M48
; DRILL file {KiCad 7.0.1-0} date 2023 September 07, Thursday 09:44:28
; FORMAT={-:-/ absolute / inch / decimal}
; #@! TF.CreationDate,2023-09-07T09:44:28-04:00
; #@! TF.GenerationSoftware,Kicad,Pcbnew,7.0.1-0
; #@! TF.FileFunction,Plated,1,4,PTH
FMAT,2
INCH
; #@! TA.AperFunction,Plated,PTH,ViaDrill
T1C0.0118
; #@! TA.AperFunction,Plated,PTH,ViaDrill
T2C0.0157
; #@! TA.AperFunction,Plated,PTH,ComponentDrill
T3C0.0256
; #@! TA.AperFunction,Plated,PTH,ComponentDrill
T4C0.0360
%
G90
G05
T1
X3.7606Y-3.3854
X3.7618Y-3.3079
X3.8469Y-3.5972
X3.8528Y-3.5606
X3.8681Y-3.4197
X3.9055Y-3.3898
X3.9071Y-3.2634
X3.9378Y-3.5972
X3.939Y-3.6736
X3.9429Y-3.0161
X4.0205Y-3.6704
X4.0421Y-3.0028
X4.0906Y-3.4488
X4.122Y-3.6693
X4.126Y-3.3583
X4.1327Y-3.2594
X4.1425Y-3.0031
X4.1772Y-3.1063
X4.2274Y-3.1642
X4.2445Y-3.6461
X4.2461Y-3.501
X4.2539Y-2.9866
X4.2555Y-3.3389
X4.2575Y-3.2027
X4.2579Y-3.2444
X4.2579Y-3.4134
X4.2618Y-3.2854
X4.2638Y-3.1693
X4.2815Y-3.3654
X4.2835Y-3.2224
X4.2835Y-3.3307
X4.2913Y-3.2548
X4.2913Y-3.1929
X4.3094Y-3.3091
X4.311Y-3.2185
X4.311Y-3.3583
X4.3122Y-3.3874
X4.3217Y-3.6713
X4.3296Y-3.0652
X4.3602Y-3.3898
X4.3642Y-3.3248
X4.3701Y-3.4823
X4.372Y-3.4193
X4.382Y-3.5098
X4.3917Y-3.3425
X4.3957Y-3.1929
X4.3996Y-3.4587
X4.4054Y-3.4937
X4.4302Y-3.4784
X4.4409Y-3.2717
X4.4429Y-3.6272
X4.4484Y-3.0122
X4.4508Y-3.4989
X4.4587Y-3.4724
X4.4626Y-3.3209
X4.4646Y-3.1929
X4.4665Y-3.2539
X4.4717Y-3.1638
X4.4772Y-3.5114
X4.4862Y-3.3425
X4.4961Y-3.2559
X4.5Y-3.1956
X4.5055Y-3.1571
X4.5079Y-3.4331
X4.5189Y-3.4595
X4.5319Y-3.1957
X4.5319Y-3.3642
X4.5354Y-3.4094
X4.5406Y-3.439
X4.5406Y-3.624
X4.5429Y-3.0386
X4.5512Y-3.3031
X4.5648Y-3.419
X4.5709Y-3.3638
X4.5723Y-3.2821
X4.5773Y-3.3249
X4.5861Y-3.2457
X4.5882Y-3.3953
X4.6Y-3.3456
X4.6059Y-3.2846
X4.6083Y-3.2252
X4.639Y-3.1063
X4.6417Y-3.0386
X4.6417Y-3.1457
X4.6417Y-3.624
X4.6839Y-3.55
X4.7236Y-3.2854
X4.7244Y-3.126
X4.7382Y-3.3878
X4.7402Y-3.5276
X4.7406Y-3.624
X4.7425Y-3.0402
X4.7598Y-3.1181
X4.765Y-3.3059
X4.7795Y-3.3701
X4.7862Y-3.4681
X4.7913Y-3.2441
X4.7953Y-3.4961
X4.7969Y-3.1232
X4.8Y-3.1606
X4.822Y-3.437
X4.8425Y-3.0413
X4.8451Y-3.624
X4.8563Y-3.5138
X4.909Y-3.1716
X4.9134Y-3.248
X4.9264Y-3.1417
X4.935Y-3.2843
X4.937Y-3.1693
X4.937Y-3.3917
X4.9406Y-3.624
X5.0406Y-3.624
X5.0425Y-3.0165
X5.0512Y-3.0748
X5.0531Y-3.1028
X5.0531Y-3.2815
X5.0772Y-3.4504
X5.1398Y-3.624
X5.1433Y-3.0165
X5.1535Y-3.5331
X5.2035Y-3.5398
X5.2398Y-3.0165
X5.2429Y-3.6181
X5.272Y-3.3524
X5.272Y-3.5398
X5.2795Y-3.2953
X5.3071Y-3.1142
X5.3071Y-3.2717
X5.3425Y-3.6181
X5.3449Y-3.0165
X5.3812Y-3.532
X5.4035Y-3.3514
X5.4311Y-3.1713
X5.4413Y-3.0165
X5.4441Y-3.6181
X5.5039Y-3.124
X5.5386Y-3.0587
X5.5406Y-3.6512
X5.5492Y-3.4685
X5.622Y-3.2441
X5.6421Y-3.0087
X5.6441Y-3.6512
X5.7421Y-3.0063
X5.7461Y-3.6535
X5.7559Y-3.126
X5.7598Y-3.315
X5.8106Y-3.2236
X5.8106Y-3.3224
X5.8106Y-3.4252
X5.8268Y-3.5689
T2
X4.1224Y-3.5079
X4.2236Y-3.5236
X4.3921Y-3.161
T4
X3.8932Y-3.0337
X3.8932Y-3.6337
X3.9932Y-3.0337
X3.9932Y-3.6337
X4.0505Y-3.1835
X4.0505Y-3.2835
X4.0505Y-3.3835
X4.0505Y-3.4835
X4.0932Y-3.0337
X4.0932Y-3.6337
X4.1932Y-3.0337
X4.1932Y-3.6337
X4.2932Y-3.0337
X4.2932Y-3.6337
X4.3932Y-3.0337
X4.3932Y-3.6337
X4.4923Y-3.6341
X4.4932Y-3.0337
X4.5932Y-3.0337
X4.5932Y-3.6337
X4.6932Y-3.0337
X4.6932Y-3.6337
X4.7932Y-3.0337
X4.7932Y-3.6337
X4.8932Y-3.0337
X4.8932Y-3.6337
X4.9932Y-3.0337
X4.9932Y-3.6337
X5.0035Y-3.1937
X5.0035Y-3.2937
X5.0035Y-3.4161
X5.0035Y-3.5161
X5.0932Y-3.0337
X5.0932Y-3.6337
X5.1932Y-3.0337
X5.1932Y-3.6337
X5.2932Y-3.0337
X5.2932Y-3.6337
X5.3932Y-3.0337
X5.3932Y-3.6337
X5.4932Y-3.0337
X5.4932Y-3.6337
X5.5932Y-3.0337
X5.5932Y-3.6337
X5.6932Y-3.0337
X5.6932Y-3.6337
X5.7867Y-3.1733
X5.7867Y-3.2733
X5.7867Y-3.3733
X5.7867Y-3.4733
X5.7932Y-3.0337
X5.7932Y-3.6337
T3
G00X3.7795Y-3.1646
M15
G01X3.7559Y-3.1646
M16
G05
G00X3.7795Y-3.5047
M15
G01X3.7559Y-3.5047
M16
G05
G00X3.9539Y-3.1646
M15
G01X3.9106Y-3.1646
M16
G05
G00X3.9539Y-3.5047
M15
G01X3.9106Y-3.5047
M16
G05
T0
M30
