G04 #@! TF.GenerationSoftware,KiCad,Pcbnew,7.0.1-0*
G04 #@! TF.CreationDate,2023-08-30T13:31:37-04:00*
G04 #@! TF.ProjectId,F405_pill,46343035-5f70-4696-9c6c-2e6b69636164,rev?*
G04 #@! TF.SameCoordinates,Original*
G04 #@! TF.FileFunction,Copper,L3,Inr*
G04 #@! TF.FilePolarity,Positive*
%FSLAX46Y46*%
G04 Gerber Fmt 4.6, Leading zero omitted, Abs format (unit mm)*
G04 Created by KiCad (PCBNEW 7.0.1-0) date 2023-08-30 13:31:37*
%MOMM*%
%LPD*%
G01*
G04 APERTURE LIST*
G04 #@! TA.AperFunction,ComponentPad*
%ADD10C,1.524000*%
G04 #@! TD*
G04 #@! TA.AperFunction,ComponentPad*
%ADD11O,2.100000X1.050000*%
G04 #@! TD*
G04 #@! TA.AperFunction,ViaPad*
%ADD12C,0.600000*%
G04 #@! TD*
G04 APERTURE END LIST*
D10*
X146982000Y-88222000D03*
X146982000Y-85682000D03*
X146982000Y-83142000D03*
X146982000Y-80602000D03*
X127090000Y-81120000D03*
X127090000Y-83660000D03*
D11*
X99880000Y-80380000D03*
X99880000Y-89020000D03*
X95700000Y-80380000D03*
X95700000Y-89020000D03*
D10*
X127090000Y-89310000D03*
X127090000Y-86770000D03*
X147147000Y-77057000D03*
X144607000Y-77057000D03*
X142067000Y-77057000D03*
X139527000Y-77057000D03*
X136987000Y-77057000D03*
X134447000Y-77057000D03*
X131907000Y-77057000D03*
X129367000Y-77057000D03*
X126827000Y-77057000D03*
X124287000Y-77057000D03*
X121747000Y-77057000D03*
X119207000Y-77057000D03*
X116667000Y-77057000D03*
X114127000Y-77057000D03*
X111587000Y-77057000D03*
X109047000Y-77057000D03*
X106507000Y-77057000D03*
X103967000Y-77057000D03*
X101427000Y-77057000D03*
X98887000Y-77057000D03*
X98887000Y-92297000D03*
X101427000Y-92297000D03*
X103967000Y-92297000D03*
X106507000Y-92297000D03*
X109047000Y-92297000D03*
X111587000Y-92297000D03*
X114103395Y-92306993D03*
X116667000Y-92297000D03*
X119207000Y-92297000D03*
X121747000Y-92297000D03*
X124287000Y-92297000D03*
X126827000Y-92297000D03*
X129367000Y-92297000D03*
X131907000Y-92297000D03*
X134447000Y-92297000D03*
X136987000Y-92297000D03*
X139527000Y-92297000D03*
X142067000Y-92297000D03*
X144607000Y-92297000D03*
X147147000Y-92297000D03*
X102882000Y-80860000D03*
X102882000Y-83400000D03*
X102882000Y-85940000D03*
X102882000Y-88480000D03*
D12*
X111000000Y-88450000D03*
X128960000Y-87640000D03*
X116487170Y-82441708D03*
X118970000Y-90170000D03*
X145850000Y-76360000D03*
X99200000Y-86100000D03*
X113400000Y-81100000D03*
X140680000Y-77690000D03*
X139800000Y-79350000D03*
X138210000Y-76620000D03*
X115390000Y-77180000D03*
X115330000Y-92050000D03*
X128030000Y-92050000D03*
X133170000Y-91900000D03*
X123065943Y-92050000D03*
X121700000Y-82400000D03*
X105220000Y-76280000D03*
X119980000Y-83450000D03*
X125490000Y-92050000D03*
X123350000Y-89250000D03*
X145950000Y-92800000D03*
X120900000Y-79200000D03*
X114500000Y-87200000D03*
X112850000Y-92130000D03*
X121400000Y-85600000D03*
X135700000Y-91900000D03*
X142800000Y-82400000D03*
X128300000Y-78100000D03*
X109000000Y-81100000D03*
X115600000Y-83900000D03*
X111550000Y-84900000D03*
X115200000Y-86600000D03*
X122480000Y-87300000D03*
X113450000Y-82650000D03*
X136682000Y-89712000D03*
X128080000Y-76620000D03*
X109500000Y-85300000D03*
X109500000Y-81750000D03*
X111050000Y-86850000D03*
X133090000Y-76620000D03*
X109771900Y-93250016D03*
X104970000Y-82790000D03*
X143310000Y-76420000D03*
X112990000Y-76510000D03*
X108300000Y-80500000D03*
X117900000Y-92050000D03*
X117900000Y-77180000D03*
X102121093Y-93228301D03*
X125400000Y-86150000D03*
X113250000Y-88200000D03*
X147590000Y-81880000D03*
X114300000Y-81169155D03*
X117831068Y-78900000D03*
X134100000Y-83700000D03*
X147590000Y-84390000D03*
X123000000Y-77250000D03*
X111650000Y-81100000D03*
X124800000Y-82500000D03*
X104700000Y-93200000D03*
X115110000Y-85450000D03*
X120460000Y-77220000D03*
X128350000Y-83350000D03*
X140730000Y-92740000D03*
X130900000Y-89740000D03*
X100050000Y-93310000D03*
X121570000Y-88090000D03*
X113950000Y-84900000D03*
X109972088Y-77855560D03*
X120410000Y-92050000D03*
X95550000Y-84020000D03*
X100150000Y-76610000D03*
X104710000Y-89100000D03*
X102670000Y-76270000D03*
X125400000Y-80500000D03*
X106100000Y-78900000D03*
X108150000Y-86700000D03*
X147590000Y-87000000D03*
X107850000Y-88925000D03*
X111750000Y-87850000D03*
X135760000Y-76620000D03*
X130640000Y-76620000D03*
X143360000Y-92740000D03*
X104800000Y-85300000D03*
X125350000Y-83420000D03*
X130550000Y-92050000D03*
X97860000Y-90440000D03*
X137950000Y-80550000D03*
X108800000Y-84600000D03*
X138280000Y-91900000D03*
X117900000Y-79900000D03*
X146300000Y-84200000D03*
X132170000Y-89910000D03*
X133910000Y-89910000D03*
X146200000Y-79400000D03*
X148000000Y-90650000D03*
X114200000Y-82700000D03*
X107280000Y-89500000D03*
X107810000Y-92610000D03*
X95520000Y-85990000D03*
X140950000Y-88100000D03*
X133910000Y-85150000D03*
X103900000Y-87600000D03*
X120400000Y-89600000D03*
X112800000Y-83100000D03*
X108140000Y-81347638D03*
X108800000Y-81850000D03*
X108150000Y-82408500D03*
X108089000Y-84808000D03*
X108750000Y-85480000D03*
X109530000Y-86040000D03*
X120350000Y-86050000D03*
X124687906Y-80559500D03*
X125130000Y-79800000D03*
X116540000Y-86240000D03*
X120000000Y-79400000D03*
X116100000Y-85440000D03*
X116839000Y-84978000D03*
X116264000Y-84453500D03*
X116135884Y-83364355D03*
X116990000Y-83430000D03*
X121920000Y-80278500D03*
X117050000Y-81920000D03*
X121840000Y-79330000D03*
X115110000Y-81170000D03*
X114439655Y-80189655D03*
X128350000Y-78810000D03*
X113580000Y-80360000D03*
X111560000Y-80290000D03*
X121800000Y-88800000D03*
X113350000Y-84350000D03*
X99240000Y-82890000D03*
X137250000Y-85126000D03*
X98250000Y-86860000D03*
X100020000Y-91370000D03*
X108049122Y-75859122D03*
X108997825Y-82672657D03*
X108250000Y-83450000D03*
X109460000Y-84050000D03*
X111301754Y-89148246D03*
X111898339Y-88739132D03*
X112525895Y-88351575D03*
X113049839Y-88871723D03*
X113721500Y-89190500D03*
X134800000Y-83100000D03*
X115330000Y-87350000D03*
X115947094Y-86842906D03*
X134800000Y-79100000D03*
X121030000Y-83970000D03*
X114780942Y-87870942D03*
X110850000Y-84450000D03*
X110750000Y-86100000D03*
X107376000Y-80370000D03*
X97710000Y-91370000D03*
G04 #@! TA.AperFunction,Conductor*
G36*
X148450000Y-75002052D02*
G01*
X148486237Y-75038289D01*
X148499500Y-75087789D01*
X148499500Y-90344101D01*
X148482815Y-90399102D01*
X148438386Y-90435565D01*
X148381186Y-90441199D01*
X148330496Y-90414105D01*
X148328051Y-90411660D01*
X148328050Y-90411658D01*
X148238342Y-90321950D01*
X148125304Y-90264354D01*
X148125303Y-90264353D01*
X148125302Y-90264353D01*
X148000000Y-90244507D01*
X147874697Y-90264353D01*
X147761659Y-90321949D01*
X147671949Y-90411659D01*
X147614353Y-90524697D01*
X147594507Y-90649999D01*
X147614353Y-90775302D01*
X147614353Y-90775303D01*
X147614354Y-90775304D01*
X147671950Y-90888342D01*
X147761658Y-90978050D01*
X147874696Y-91035646D01*
X148000000Y-91055492D01*
X148125304Y-91035646D01*
X148238342Y-90978050D01*
X148328050Y-90888342D01*
X148328051Y-90888339D01*
X148330496Y-90885895D01*
X148381186Y-90858801D01*
X148438386Y-90864435D01*
X148482815Y-90900898D01*
X148499500Y-90955899D01*
X148499500Y-94308403D01*
X148486237Y-94357903D01*
X148450000Y-94394140D01*
X148400500Y-94407403D01*
X96479436Y-94407403D01*
X96429936Y-94394140D01*
X96393699Y-94357903D01*
X96380436Y-94308403D01*
X96380436Y-92297000D01*
X98019749Y-92297000D01*
X98038701Y-92477312D01*
X98041948Y-92487304D01*
X98094727Y-92649743D01*
X98185380Y-92806759D01*
X98306693Y-92941491D01*
X98306696Y-92941493D01*
X98453374Y-93048061D01*
X98619005Y-93121805D01*
X98796348Y-93159500D01*
X98977650Y-93159500D01*
X98977652Y-93159500D01*
X99154995Y-93121805D01*
X99320626Y-93048061D01*
X99467304Y-92941493D01*
X99588621Y-92806757D01*
X99679273Y-92649743D01*
X99735299Y-92477312D01*
X99754251Y-92297000D01*
X100559749Y-92297000D01*
X100578701Y-92477312D01*
X100581948Y-92487304D01*
X100634727Y-92649743D01*
X100725380Y-92806759D01*
X100846693Y-92941491D01*
X100846696Y-92941493D01*
X100993374Y-93048061D01*
X101159005Y-93121805D01*
X101336348Y-93159500D01*
X101517650Y-93159500D01*
X101517652Y-93159500D01*
X101694995Y-93121805D01*
X101860626Y-93048061D01*
X102007304Y-92941493D01*
X102128621Y-92806757D01*
X102219273Y-92649743D01*
X102275299Y-92477312D01*
X102294251Y-92297000D01*
X103099749Y-92297000D01*
X103118701Y-92477312D01*
X103121948Y-92487304D01*
X103174727Y-92649743D01*
X103265380Y-92806759D01*
X103386693Y-92941491D01*
X103386696Y-92941493D01*
X103533374Y-93048061D01*
X103699005Y-93121805D01*
X103876348Y-93159500D01*
X104057650Y-93159500D01*
X104057652Y-93159500D01*
X104234995Y-93121805D01*
X104400626Y-93048061D01*
X104547304Y-92941493D01*
X104668621Y-92806757D01*
X104759273Y-92649743D01*
X104815299Y-92477312D01*
X104834251Y-92297000D01*
X105639749Y-92297000D01*
X105658701Y-92477312D01*
X105661948Y-92487304D01*
X105714727Y-92649743D01*
X105805380Y-92806759D01*
X105926693Y-92941491D01*
X105926696Y-92941493D01*
X106073374Y-93048061D01*
X106239005Y-93121805D01*
X106416348Y-93159500D01*
X106597650Y-93159500D01*
X106597652Y-93159500D01*
X106774995Y-93121805D01*
X106940626Y-93048061D01*
X107087304Y-92941493D01*
X107208621Y-92806757D01*
X107251392Y-92732674D01*
X107288753Y-92695800D01*
X107339718Y-92683211D01*
X107389955Y-92698450D01*
X107425335Y-92737230D01*
X107481950Y-92848342D01*
X107571658Y-92938050D01*
X107684696Y-92995646D01*
X107810000Y-93015492D01*
X107935304Y-92995646D01*
X108048342Y-92938050D01*
X108138050Y-92848342D01*
X108163723Y-92797955D01*
X108199104Y-92759175D01*
X108249340Y-92743936D01*
X108300306Y-92756525D01*
X108337667Y-92793400D01*
X108343575Y-92803633D01*
X108345380Y-92806759D01*
X108466693Y-92941491D01*
X108466696Y-92941493D01*
X108613374Y-93048061D01*
X108779005Y-93121805D01*
X108956348Y-93159500D01*
X109137650Y-93159500D01*
X109137652Y-93159500D01*
X109314995Y-93121805D01*
X109480626Y-93048061D01*
X109627304Y-92941493D01*
X109748621Y-92806757D01*
X109839273Y-92649743D01*
X109895299Y-92477312D01*
X109914251Y-92297000D01*
X110719749Y-92297000D01*
X110738701Y-92477312D01*
X110741948Y-92487304D01*
X110794727Y-92649743D01*
X110885380Y-92806759D01*
X111006693Y-92941491D01*
X111006696Y-92941493D01*
X111153374Y-93048061D01*
X111319005Y-93121805D01*
X111496348Y-93159500D01*
X111677650Y-93159500D01*
X111677652Y-93159500D01*
X111854995Y-93121805D01*
X112020626Y-93048061D01*
X112167304Y-92941493D01*
X112288621Y-92806757D01*
X112379273Y-92649743D01*
X112435299Y-92477312D01*
X112453201Y-92306993D01*
X113236144Y-92306993D01*
X113239462Y-92338565D01*
X113255096Y-92487304D01*
X113311122Y-92659736D01*
X113401775Y-92816752D01*
X113523088Y-92951484D01*
X113523091Y-92951486D01*
X113669769Y-93058054D01*
X113835400Y-93131798D01*
X114012743Y-93169493D01*
X114194045Y-93169493D01*
X114194047Y-93169493D01*
X114371390Y-93131798D01*
X114537021Y-93058054D01*
X114683699Y-92951486D01*
X114805016Y-92816750D01*
X114895668Y-92659736D01*
X114951694Y-92487305D01*
X114970646Y-92306993D01*
X114969596Y-92297000D01*
X115799749Y-92297000D01*
X115818701Y-92477312D01*
X115821948Y-92487304D01*
X115874727Y-92649743D01*
X115965380Y-92806759D01*
X116086693Y-92941491D01*
X116086696Y-92941493D01*
X116233374Y-93048061D01*
X116399005Y-93121805D01*
X116576348Y-93159500D01*
X116757650Y-93159500D01*
X116757652Y-93159500D01*
X116934995Y-93121805D01*
X117100626Y-93048061D01*
X117247304Y-92941493D01*
X117368621Y-92806757D01*
X117459273Y-92649743D01*
X117515299Y-92477312D01*
X117534251Y-92297000D01*
X118339749Y-92297000D01*
X118358701Y-92477312D01*
X118361948Y-92487304D01*
X118414727Y-92649743D01*
X118505380Y-92806759D01*
X118626693Y-92941491D01*
X118626696Y-92941493D01*
X118773374Y-93048061D01*
X118939005Y-93121805D01*
X119116348Y-93159500D01*
X119297650Y-93159500D01*
X119297652Y-93159500D01*
X119474995Y-93121805D01*
X119640626Y-93048061D01*
X119787304Y-92941493D01*
X119908621Y-92806757D01*
X119999273Y-92649743D01*
X120055299Y-92477312D01*
X120074251Y-92297000D01*
X120879749Y-92297000D01*
X120898701Y-92477312D01*
X120901948Y-92487304D01*
X120954727Y-92649743D01*
X121045380Y-92806759D01*
X121166693Y-92941491D01*
X121166696Y-92941493D01*
X121313374Y-93048061D01*
X121479005Y-93121805D01*
X121656348Y-93159500D01*
X121837650Y-93159500D01*
X121837652Y-93159500D01*
X122014995Y-93121805D01*
X122180626Y-93048061D01*
X122327304Y-92941493D01*
X122448621Y-92806757D01*
X122539273Y-92649743D01*
X122595299Y-92477312D01*
X122614251Y-92297000D01*
X123419749Y-92297000D01*
X123438701Y-92477312D01*
X123441948Y-92487304D01*
X123494727Y-92649743D01*
X123585380Y-92806759D01*
X123706693Y-92941491D01*
X123706696Y-92941493D01*
X123853374Y-93048061D01*
X124019005Y-93121805D01*
X124196348Y-93159500D01*
X124377650Y-93159500D01*
X124377652Y-93159500D01*
X124554995Y-93121805D01*
X124720626Y-93048061D01*
X124867304Y-92941493D01*
X124988621Y-92806757D01*
X125079273Y-92649743D01*
X125135299Y-92477312D01*
X125154251Y-92297000D01*
X125959749Y-92297000D01*
X125978701Y-92477312D01*
X125981948Y-92487304D01*
X126034727Y-92649743D01*
X126125380Y-92806759D01*
X126246693Y-92941491D01*
X126246696Y-92941493D01*
X126393374Y-93048061D01*
X126559005Y-93121805D01*
X126736348Y-93159500D01*
X126917650Y-93159500D01*
X126917652Y-93159500D01*
X127094995Y-93121805D01*
X127260626Y-93048061D01*
X127407304Y-92941493D01*
X127528621Y-92806757D01*
X127619273Y-92649743D01*
X127675299Y-92477312D01*
X127694251Y-92297000D01*
X128499749Y-92297000D01*
X128518701Y-92477312D01*
X128521948Y-92487304D01*
X128574727Y-92649743D01*
X128665380Y-92806759D01*
X128786693Y-92941491D01*
X128786696Y-92941493D01*
X128933374Y-93048061D01*
X129099005Y-93121805D01*
X129276348Y-93159500D01*
X129457650Y-93159500D01*
X129457652Y-93159500D01*
X129634995Y-93121805D01*
X129800626Y-93048061D01*
X129947304Y-92941493D01*
X130068621Y-92806757D01*
X130159273Y-92649743D01*
X130215299Y-92477312D01*
X130234251Y-92297000D01*
X131039749Y-92297000D01*
X131058701Y-92477312D01*
X131061948Y-92487304D01*
X131114727Y-92649743D01*
X131205380Y-92806759D01*
X131326693Y-92941491D01*
X131326696Y-92941493D01*
X131473374Y-93048061D01*
X131639005Y-93121805D01*
X131816348Y-93159500D01*
X131997650Y-93159500D01*
X131997652Y-93159500D01*
X132174995Y-93121805D01*
X132340626Y-93048061D01*
X132487304Y-92941493D01*
X132608621Y-92806757D01*
X132699273Y-92649743D01*
X132755299Y-92477312D01*
X132774251Y-92297000D01*
X133579749Y-92297000D01*
X133598701Y-92477312D01*
X133601948Y-92487304D01*
X133654727Y-92649743D01*
X133745380Y-92806759D01*
X133866693Y-92941491D01*
X133866696Y-92941493D01*
X134013374Y-93048061D01*
X134179005Y-93121805D01*
X134356348Y-93159500D01*
X134537650Y-93159500D01*
X134537652Y-93159500D01*
X134714995Y-93121805D01*
X134880626Y-93048061D01*
X135027304Y-92941493D01*
X135148621Y-92806757D01*
X135239273Y-92649743D01*
X135295299Y-92477312D01*
X135314251Y-92297000D01*
X136119749Y-92297000D01*
X136138701Y-92477312D01*
X136141948Y-92487304D01*
X136194727Y-92649743D01*
X136285380Y-92806759D01*
X136406693Y-92941491D01*
X136406696Y-92941493D01*
X136553374Y-93048061D01*
X136719005Y-93121805D01*
X136896348Y-93159500D01*
X137077650Y-93159500D01*
X137077652Y-93159500D01*
X137254995Y-93121805D01*
X137420626Y-93048061D01*
X137567304Y-92941493D01*
X137688621Y-92806757D01*
X137779273Y-92649743D01*
X137835299Y-92477312D01*
X137854251Y-92297000D01*
X138659749Y-92297000D01*
X138678701Y-92477312D01*
X138681948Y-92487304D01*
X138734727Y-92649743D01*
X138825380Y-92806759D01*
X138946693Y-92941491D01*
X138946696Y-92941493D01*
X139093374Y-93048061D01*
X139259005Y-93121805D01*
X139436348Y-93159500D01*
X139617650Y-93159500D01*
X139617652Y-93159500D01*
X139794995Y-93121805D01*
X139960626Y-93048061D01*
X140107304Y-92941493D01*
X140228621Y-92806757D01*
X140319273Y-92649743D01*
X140375299Y-92477312D01*
X140394251Y-92297000D01*
X141199749Y-92297000D01*
X141218701Y-92477312D01*
X141221948Y-92487304D01*
X141274727Y-92649743D01*
X141365380Y-92806759D01*
X141486693Y-92941491D01*
X141486696Y-92941493D01*
X141633374Y-93048061D01*
X141799005Y-93121805D01*
X141976348Y-93159500D01*
X142157650Y-93159500D01*
X142157652Y-93159500D01*
X142334995Y-93121805D01*
X142500626Y-93048061D01*
X142647304Y-92941493D01*
X142768621Y-92806757D01*
X142859273Y-92649743D01*
X142915299Y-92477312D01*
X142934251Y-92297000D01*
X146279749Y-92297000D01*
X146298701Y-92477312D01*
X146301948Y-92487304D01*
X146354727Y-92649743D01*
X146445380Y-92806759D01*
X146566693Y-92941491D01*
X146566696Y-92941493D01*
X146713374Y-93048061D01*
X146879005Y-93121805D01*
X147056348Y-93159500D01*
X147237650Y-93159500D01*
X147237652Y-93159500D01*
X147414995Y-93121805D01*
X147580626Y-93048061D01*
X147727304Y-92941493D01*
X147848621Y-92806757D01*
X147939273Y-92649743D01*
X147995299Y-92477312D01*
X148014251Y-92297000D01*
X147995299Y-92116688D01*
X147939273Y-91944257D01*
X147848621Y-91787243D01*
X147848620Y-91787242D01*
X147848619Y-91787240D01*
X147727306Y-91652508D01*
X147594380Y-91555932D01*
X147580626Y-91545939D01*
X147580624Y-91545938D01*
X147414996Y-91472195D01*
X147355880Y-91459630D01*
X147237652Y-91434500D01*
X147056348Y-91434500D01*
X146967676Y-91453347D01*
X146879003Y-91472195D01*
X146713376Y-91545938D01*
X146566693Y-91652508D01*
X146445380Y-91787240D01*
X146354727Y-91944256D01*
X146354727Y-91944257D01*
X146298701Y-92116688D01*
X146279749Y-92297000D01*
X142934251Y-92297000D01*
X142915299Y-92116688D01*
X142859273Y-91944257D01*
X142768621Y-91787243D01*
X142768620Y-91787242D01*
X142768619Y-91787240D01*
X142647306Y-91652508D01*
X142514380Y-91555932D01*
X142500626Y-91545939D01*
X142500624Y-91545938D01*
X142334996Y-91472195D01*
X142275880Y-91459630D01*
X142157652Y-91434500D01*
X141976348Y-91434500D01*
X141887676Y-91453347D01*
X141799003Y-91472195D01*
X141633376Y-91545938D01*
X141486693Y-91652508D01*
X141365380Y-91787240D01*
X141274727Y-91944256D01*
X141218701Y-92116688D01*
X141209471Y-92204508D01*
X141199749Y-92297000D01*
X140394251Y-92297000D01*
X140375299Y-92116688D01*
X140319273Y-91944257D01*
X140228621Y-91787243D01*
X140228620Y-91787242D01*
X140228619Y-91787240D01*
X140107306Y-91652508D01*
X139974380Y-91555932D01*
X139960626Y-91545939D01*
X139960624Y-91545938D01*
X139794996Y-91472195D01*
X139735880Y-91459630D01*
X139617652Y-91434500D01*
X139436348Y-91434500D01*
X139347676Y-91453347D01*
X139259003Y-91472195D01*
X139093376Y-91545938D01*
X138946693Y-91652508D01*
X138825380Y-91787240D01*
X138734727Y-91944256D01*
X138678701Y-92116688D01*
X138669471Y-92204508D01*
X138659749Y-92297000D01*
X137854251Y-92297000D01*
X137835299Y-92116688D01*
X137779273Y-91944257D01*
X137688621Y-91787243D01*
X137688620Y-91787242D01*
X137688619Y-91787240D01*
X137567306Y-91652508D01*
X137434380Y-91555932D01*
X137420626Y-91545939D01*
X137420624Y-91545938D01*
X137254996Y-91472195D01*
X137195880Y-91459630D01*
X137077652Y-91434500D01*
X136896348Y-91434500D01*
X136807676Y-91453347D01*
X136719003Y-91472195D01*
X136553376Y-91545938D01*
X136406693Y-91652508D01*
X136285380Y-91787240D01*
X136194727Y-91944256D01*
X136138701Y-92116688D01*
X136129471Y-92204508D01*
X136119749Y-92297000D01*
X135314251Y-92297000D01*
X135295299Y-92116688D01*
X135239273Y-91944257D01*
X135148621Y-91787243D01*
X135148620Y-91787242D01*
X135148619Y-91787240D01*
X135027306Y-91652508D01*
X134894380Y-91555932D01*
X134880626Y-91545939D01*
X134880624Y-91545938D01*
X134714996Y-91472195D01*
X134655880Y-91459630D01*
X134537652Y-91434500D01*
X134356348Y-91434500D01*
X134267676Y-91453347D01*
X134179003Y-91472195D01*
X134013376Y-91545938D01*
X133866693Y-91652508D01*
X133745380Y-91787240D01*
X133654727Y-91944256D01*
X133598701Y-92116688D01*
X133589471Y-92204508D01*
X133579749Y-92297000D01*
X132774251Y-92297000D01*
X132755299Y-92116688D01*
X132699273Y-91944257D01*
X132608621Y-91787243D01*
X132608620Y-91787242D01*
X132608619Y-91787240D01*
X132487306Y-91652508D01*
X132354380Y-91555932D01*
X132340626Y-91545939D01*
X132340624Y-91545938D01*
X132174996Y-91472195D01*
X132115880Y-91459630D01*
X131997652Y-91434500D01*
X131816348Y-91434500D01*
X131727676Y-91453347D01*
X131639003Y-91472195D01*
X131473376Y-91545938D01*
X131326693Y-91652508D01*
X131205380Y-91787240D01*
X131114727Y-91944256D01*
X131058701Y-92116688D01*
X131049471Y-92204508D01*
X131039749Y-92297000D01*
X130234251Y-92297000D01*
X130215299Y-92116688D01*
X130159273Y-91944257D01*
X130068621Y-91787243D01*
X130068620Y-91787242D01*
X130068619Y-91787240D01*
X129947306Y-91652508D01*
X129814380Y-91555932D01*
X129800626Y-91545939D01*
X129800624Y-91545938D01*
X129634996Y-91472195D01*
X129575880Y-91459630D01*
X129457652Y-91434500D01*
X129276348Y-91434500D01*
X129187676Y-91453347D01*
X129099003Y-91472195D01*
X128933376Y-91545938D01*
X128786693Y-91652508D01*
X128665380Y-91787240D01*
X128574727Y-91944256D01*
X128518701Y-92116688D01*
X128509471Y-92204508D01*
X128499749Y-92297000D01*
X127694251Y-92297000D01*
X127675299Y-92116688D01*
X127619273Y-91944257D01*
X127528621Y-91787243D01*
X127528620Y-91787242D01*
X127528619Y-91787240D01*
X127407306Y-91652508D01*
X127274380Y-91555932D01*
X127260626Y-91545939D01*
X127260624Y-91545938D01*
X127094996Y-91472195D01*
X127035880Y-91459630D01*
X126917652Y-91434500D01*
X126736348Y-91434500D01*
X126647676Y-91453347D01*
X126559003Y-91472195D01*
X126393376Y-91545938D01*
X126246693Y-91652508D01*
X126125380Y-91787240D01*
X126034727Y-91944256D01*
X125978701Y-92116688D01*
X125969471Y-92204508D01*
X125959749Y-92297000D01*
X125154251Y-92297000D01*
X125135299Y-92116688D01*
X125079273Y-91944257D01*
X124988621Y-91787243D01*
X124988620Y-91787242D01*
X124988619Y-91787240D01*
X124867306Y-91652508D01*
X124734380Y-91555932D01*
X124720626Y-91545939D01*
X124720624Y-91545938D01*
X124554996Y-91472195D01*
X124495880Y-91459630D01*
X124377652Y-91434500D01*
X124196348Y-91434500D01*
X124107676Y-91453347D01*
X124019003Y-91472195D01*
X123853376Y-91545938D01*
X123706693Y-91652508D01*
X123585380Y-91787240D01*
X123494727Y-91944256D01*
X123494727Y-91944257D01*
X123438701Y-92116688D01*
X123419749Y-92297000D01*
X122614251Y-92297000D01*
X122595299Y-92116688D01*
X122539273Y-91944257D01*
X122448621Y-91787243D01*
X122448620Y-91787242D01*
X122448619Y-91787240D01*
X122327306Y-91652508D01*
X122194380Y-91555932D01*
X122180626Y-91545939D01*
X122180624Y-91545938D01*
X122014996Y-91472195D01*
X121955880Y-91459630D01*
X121837652Y-91434500D01*
X121656348Y-91434500D01*
X121567676Y-91453347D01*
X121479003Y-91472195D01*
X121313376Y-91545938D01*
X121166693Y-91652508D01*
X121045380Y-91787240D01*
X120954727Y-91944256D01*
X120954727Y-91944257D01*
X120898701Y-92116688D01*
X120879749Y-92297000D01*
X120074251Y-92297000D01*
X120055299Y-92116688D01*
X119999273Y-91944257D01*
X119908621Y-91787243D01*
X119908620Y-91787242D01*
X119908619Y-91787240D01*
X119787306Y-91652508D01*
X119654380Y-91555932D01*
X119640626Y-91545939D01*
X119640624Y-91545938D01*
X119474996Y-91472195D01*
X119415880Y-91459630D01*
X119297652Y-91434500D01*
X119116348Y-91434500D01*
X119027676Y-91453347D01*
X118939003Y-91472195D01*
X118773376Y-91545938D01*
X118626693Y-91652508D01*
X118505380Y-91787240D01*
X118414727Y-91944256D01*
X118414727Y-91944257D01*
X118358701Y-92116688D01*
X118339749Y-92297000D01*
X117534251Y-92297000D01*
X117515299Y-92116688D01*
X117459273Y-91944257D01*
X117368621Y-91787243D01*
X117368620Y-91787242D01*
X117368619Y-91787240D01*
X117247306Y-91652508D01*
X117114380Y-91555932D01*
X117100626Y-91545939D01*
X117100624Y-91545938D01*
X116934996Y-91472195D01*
X116875880Y-91459630D01*
X116757652Y-91434500D01*
X116576348Y-91434500D01*
X116487676Y-91453347D01*
X116399003Y-91472195D01*
X116233376Y-91545938D01*
X116086693Y-91652508D01*
X115965380Y-91787240D01*
X115874727Y-91944256D01*
X115874727Y-91944257D01*
X115818701Y-92116688D01*
X115799749Y-92297000D01*
X114969596Y-92297000D01*
X114951694Y-92126681D01*
X114895668Y-91954250D01*
X114805016Y-91797236D01*
X114805015Y-91797235D01*
X114805014Y-91797233D01*
X114683701Y-91662501D01*
X114609154Y-91608340D01*
X114537021Y-91555932D01*
X114537019Y-91555931D01*
X114371391Y-91482188D01*
X114312275Y-91469622D01*
X114194047Y-91444493D01*
X114012743Y-91444493D01*
X113924071Y-91463340D01*
X113835398Y-91482188D01*
X113669771Y-91555931D01*
X113523088Y-91662501D01*
X113401775Y-91797233D01*
X113311122Y-91954249D01*
X113311122Y-91954250D01*
X113255096Y-92126681D01*
X113236144Y-92306993D01*
X112453201Y-92306993D01*
X112454251Y-92297000D01*
X112435299Y-92116688D01*
X112379273Y-91944257D01*
X112288621Y-91787243D01*
X112288620Y-91787242D01*
X112288619Y-91787240D01*
X112167306Y-91652508D01*
X112034380Y-91555932D01*
X112020626Y-91545939D01*
X112020624Y-91545938D01*
X111854996Y-91472195D01*
X111795880Y-91459630D01*
X111677652Y-91434500D01*
X111496348Y-91434500D01*
X111407676Y-91453347D01*
X111319003Y-91472195D01*
X111153376Y-91545938D01*
X111006693Y-91652508D01*
X110885380Y-91787240D01*
X110794727Y-91944256D01*
X110794727Y-91944257D01*
X110738701Y-92116688D01*
X110719749Y-92297000D01*
X109914251Y-92297000D01*
X109895299Y-92116688D01*
X109839273Y-91944257D01*
X109748621Y-91787243D01*
X109748620Y-91787242D01*
X109748619Y-91787240D01*
X109627306Y-91652508D01*
X109494380Y-91555932D01*
X109480626Y-91545939D01*
X109480624Y-91545938D01*
X109314996Y-91472195D01*
X109255880Y-91459630D01*
X109137652Y-91434500D01*
X108956348Y-91434500D01*
X108867676Y-91453347D01*
X108779003Y-91472195D01*
X108613376Y-91545938D01*
X108466693Y-91652508D01*
X108345380Y-91787240D01*
X108254727Y-91944256D01*
X108198701Y-92116688D01*
X108189628Y-92203010D01*
X108173485Y-92247663D01*
X108138409Y-92279664D01*
X108092466Y-92291653D01*
X108046225Y-92280871D01*
X107935302Y-92224353D01*
X107810000Y-92204507D01*
X107684697Y-92224353D01*
X107571656Y-92281951D01*
X107538359Y-92315248D01*
X107490204Y-92341803D01*
X107435309Y-92338565D01*
X107390609Y-92306534D01*
X107369899Y-92255594D01*
X107355299Y-92116688D01*
X107299273Y-91944257D01*
X107208621Y-91787243D01*
X107208620Y-91787242D01*
X107208619Y-91787240D01*
X107087306Y-91652508D01*
X106954380Y-91555932D01*
X106940626Y-91545939D01*
X106940624Y-91545938D01*
X106774996Y-91472195D01*
X106715880Y-91459630D01*
X106597652Y-91434500D01*
X106416348Y-91434500D01*
X106327676Y-91453347D01*
X106239003Y-91472195D01*
X106073376Y-91545938D01*
X105926693Y-91652508D01*
X105805380Y-91787240D01*
X105714727Y-91944256D01*
X105714727Y-91944257D01*
X105658701Y-92116688D01*
X105639749Y-92297000D01*
X104834251Y-92297000D01*
X104815299Y-92116688D01*
X104759273Y-91944257D01*
X104668621Y-91787243D01*
X104668620Y-91787242D01*
X104668619Y-91787240D01*
X104547306Y-91652508D01*
X104414380Y-91555932D01*
X104400626Y-91545939D01*
X104400624Y-91545938D01*
X104234996Y-91472195D01*
X104175880Y-91459630D01*
X104057652Y-91434500D01*
X103876348Y-91434500D01*
X103787676Y-91453347D01*
X103699003Y-91472195D01*
X103533376Y-91545938D01*
X103386693Y-91652508D01*
X103265380Y-91787240D01*
X103174727Y-91944256D01*
X103174727Y-91944257D01*
X103118701Y-92116688D01*
X103099749Y-92297000D01*
X102294251Y-92297000D01*
X102275299Y-92116688D01*
X102219273Y-91944257D01*
X102128621Y-91787243D01*
X102128620Y-91787242D01*
X102128619Y-91787240D01*
X102007306Y-91652508D01*
X101874380Y-91555932D01*
X101860626Y-91545939D01*
X101860624Y-91545938D01*
X101694996Y-91472195D01*
X101635880Y-91459630D01*
X101517652Y-91434500D01*
X101336348Y-91434500D01*
X101247676Y-91453347D01*
X101159003Y-91472195D01*
X100993376Y-91545938D01*
X100846693Y-91652508D01*
X100725380Y-91787240D01*
X100634727Y-91944256D01*
X100634727Y-91944257D01*
X100578701Y-92116688D01*
X100559749Y-92297000D01*
X99754251Y-92297000D01*
X99735299Y-92116688D01*
X99679273Y-91944257D01*
X99588621Y-91787243D01*
X99588620Y-91787242D01*
X99588619Y-91787240D01*
X99566854Y-91763068D01*
X99556473Y-91740077D01*
X99533449Y-91725968D01*
X99467304Y-91652507D01*
X99320626Y-91545939D01*
X99320624Y-91545938D01*
X99154996Y-91472195D01*
X99095880Y-91459630D01*
X98977652Y-91434500D01*
X98796348Y-91434500D01*
X98707676Y-91453347D01*
X98619003Y-91472195D01*
X98453376Y-91545938D01*
X98306693Y-91652508D01*
X98185380Y-91787240D01*
X98094727Y-91944256D01*
X98094727Y-91944257D01*
X98038701Y-92116688D01*
X98019749Y-92297000D01*
X96380436Y-92297000D01*
X96380436Y-91370000D01*
X97304507Y-91370000D01*
X97324353Y-91495302D01*
X97324353Y-91495303D01*
X97324354Y-91495304D01*
X97381950Y-91608342D01*
X97471658Y-91698050D01*
X97584696Y-91755646D01*
X97710000Y-91775492D01*
X97835304Y-91755646D01*
X97948342Y-91698050D01*
X98038050Y-91608342D01*
X98095646Y-91495304D01*
X98115492Y-91370000D01*
X99614507Y-91370000D01*
X99634353Y-91495302D01*
X99634353Y-91495303D01*
X99634354Y-91495304D01*
X99660153Y-91545938D01*
X99695230Y-91614779D01*
X99696090Y-91619419D01*
X99710426Y-91626818D01*
X99781658Y-91698050D01*
X99894696Y-91755646D01*
X100020000Y-91775492D01*
X100145304Y-91755646D01*
X100258342Y-91698050D01*
X100348050Y-91608342D01*
X100405646Y-91495304D01*
X100425492Y-91370000D01*
X100405646Y-91244696D01*
X100348050Y-91131658D01*
X100258342Y-91041950D01*
X100145304Y-90984354D01*
X100145303Y-90984353D01*
X100145302Y-90984353D01*
X100020000Y-90964507D01*
X99894697Y-90984353D01*
X99781659Y-91041949D01*
X99691949Y-91131659D01*
X99634353Y-91244697D01*
X99614507Y-91370000D01*
X98115492Y-91370000D01*
X98095646Y-91244696D01*
X98038050Y-91131658D01*
X97948342Y-91041950D01*
X97835304Y-90984354D01*
X97835303Y-90984353D01*
X97835302Y-90984353D01*
X97710000Y-90964507D01*
X97584697Y-90984353D01*
X97471659Y-91041949D01*
X97381949Y-91131659D01*
X97324353Y-91244697D01*
X97304507Y-91370000D01*
X96380436Y-91370000D01*
X96380436Y-89942917D01*
X96380463Y-89942781D01*
X96380475Y-89923132D01*
X96380477Y-89923130D01*
X96380319Y-89922747D01*
X96380035Y-89922630D01*
X96379936Y-89922589D01*
X96379934Y-89922589D01*
X96360354Y-89922589D01*
X96360148Y-89922630D01*
X94540283Y-89922630D01*
X94490783Y-89909367D01*
X94454546Y-89873130D01*
X94441283Y-89823630D01*
X94441283Y-89499999D01*
X106824866Y-89499999D01*
X106843302Y-89628227D01*
X106897116Y-89746062D01*
X106964329Y-89823630D01*
X106981951Y-89843967D01*
X107090931Y-89914004D01*
X107215228Y-89950500D01*
X107344772Y-89950500D01*
X107469069Y-89914004D01*
X107578049Y-89843967D01*
X107662882Y-89746063D01*
X107662881Y-89746063D01*
X107662883Y-89746062D01*
X107716697Y-89628227D01*
X107720755Y-89599999D01*
X119994507Y-89599999D01*
X120014353Y-89725302D01*
X120014353Y-89725303D01*
X120014354Y-89725304D01*
X120071950Y-89838342D01*
X120161658Y-89928050D01*
X120274696Y-89985646D01*
X120400000Y-90005492D01*
X120525304Y-89985646D01*
X120638342Y-89928050D01*
X120728050Y-89838342D01*
X120785646Y-89725304D01*
X120805492Y-89600000D01*
X120785646Y-89474696D01*
X120728050Y-89361658D01*
X120676392Y-89310000D01*
X126222749Y-89310000D01*
X126241701Y-89490312D01*
X126246314Y-89504508D01*
X126297727Y-89662743D01*
X126388380Y-89819759D01*
X126509693Y-89954491D01*
X126509696Y-89954493D01*
X126656374Y-90061061D01*
X126822005Y-90134805D01*
X126999348Y-90172500D01*
X127180650Y-90172500D01*
X127180652Y-90172500D01*
X127357995Y-90134805D01*
X127523626Y-90061061D01*
X127670304Y-89954493D01*
X127673900Y-89950500D01*
X127710366Y-89910000D01*
X131764507Y-89910000D01*
X131784353Y-90035302D01*
X131784353Y-90035303D01*
X131784354Y-90035304D01*
X131841950Y-90148342D01*
X131931658Y-90238050D01*
X132044696Y-90295646D01*
X132170000Y-90315492D01*
X132295304Y-90295646D01*
X132408342Y-90238050D01*
X132498050Y-90148342D01*
X132555646Y-90035304D01*
X132575492Y-89910000D01*
X133504507Y-89910000D01*
X133524353Y-90035302D01*
X133524353Y-90035303D01*
X133524354Y-90035304D01*
X133581950Y-90148342D01*
X133671658Y-90238050D01*
X133784696Y-90295646D01*
X133910000Y-90315492D01*
X134035304Y-90295646D01*
X134148342Y-90238050D01*
X134238050Y-90148342D01*
X134295646Y-90035304D01*
X134315492Y-89910000D01*
X134295646Y-89784696D01*
X134238050Y-89671658D01*
X134148342Y-89581950D01*
X134035304Y-89524354D01*
X134035303Y-89524353D01*
X134035302Y-89524353D01*
X133910000Y-89504507D01*
X133784697Y-89524353D01*
X133671659Y-89581949D01*
X133581949Y-89671659D01*
X133524353Y-89784697D01*
X133504507Y-89910000D01*
X132575492Y-89910000D01*
X132555646Y-89784696D01*
X132498050Y-89671658D01*
X132408342Y-89581950D01*
X132295304Y-89524354D01*
X132295303Y-89524353D01*
X132295302Y-89524353D01*
X132170000Y-89504507D01*
X132044697Y-89524353D01*
X131931659Y-89581949D01*
X131841949Y-89671659D01*
X131784353Y-89784697D01*
X131764507Y-89910000D01*
X127710366Y-89910000D01*
X127791619Y-89819759D01*
X127791618Y-89819759D01*
X127791621Y-89819757D01*
X127882273Y-89662743D01*
X127938299Y-89490312D01*
X127957251Y-89310000D01*
X127938299Y-89129688D01*
X127882273Y-88957257D01*
X127791621Y-88800243D01*
X127791620Y-88800242D01*
X127791619Y-88800240D01*
X127670306Y-88665508D01*
X127596964Y-88612222D01*
X127523626Y-88558939D01*
X127523624Y-88558938D01*
X127357996Y-88485195D01*
X127268775Y-88466231D01*
X127180652Y-88447500D01*
X126999348Y-88447500D01*
X126952137Y-88457535D01*
X126822003Y-88485195D01*
X126656376Y-88558938D01*
X126509693Y-88665508D01*
X126388380Y-88800240D01*
X126297727Y-88957256D01*
X126248077Y-89110065D01*
X126241701Y-89129688D01*
X126222749Y-89310000D01*
X120676392Y-89310000D01*
X120638342Y-89271950D01*
X120525304Y-89214354D01*
X120525303Y-89214353D01*
X120525302Y-89214353D01*
X120400000Y-89194507D01*
X120274697Y-89214353D01*
X120161659Y-89271949D01*
X120071949Y-89361659D01*
X120014353Y-89474697D01*
X119994507Y-89599999D01*
X107720755Y-89599999D01*
X107731631Y-89524354D01*
X107735133Y-89500000D01*
X107716697Y-89371774D01*
X107716697Y-89371772D01*
X107662883Y-89253937D01*
X107578050Y-89156034D01*
X107578049Y-89156033D01*
X107565932Y-89148246D01*
X110896261Y-89148246D01*
X110916107Y-89273548D01*
X110916107Y-89273549D01*
X110916108Y-89273550D01*
X110973704Y-89386588D01*
X111063412Y-89476296D01*
X111176450Y-89533892D01*
X111301754Y-89553738D01*
X111427058Y-89533892D01*
X111540096Y-89476296D01*
X111629804Y-89386588D01*
X111687400Y-89273550D01*
X111696995Y-89212967D01*
X111717839Y-89166152D01*
X111759298Y-89136031D01*
X111810261Y-89130674D01*
X111898339Y-89144624D01*
X112023643Y-89124778D01*
X112136681Y-89067182D01*
X112226389Y-88977474D01*
X112283985Y-88864436D01*
X112291007Y-88820098D01*
X112311850Y-88773283D01*
X112353310Y-88743161D01*
X112404273Y-88737804D01*
X112525895Y-88757067D01*
X112531436Y-88756189D01*
X112591867Y-88765759D01*
X112635132Y-88809022D01*
X112644706Y-88869453D01*
X112644346Y-88871721D01*
X112664192Y-88997025D01*
X112664192Y-88997026D01*
X112664193Y-88997027D01*
X112721789Y-89110065D01*
X112811497Y-89199773D01*
X112924535Y-89257369D01*
X113049839Y-89277215D01*
X113175143Y-89257369D01*
X113193878Y-89247822D01*
X113254306Y-89238250D01*
X113308822Y-89266024D01*
X113327414Y-89302506D01*
X113328736Y-89301833D01*
X113335853Y-89315802D01*
X113335854Y-89315804D01*
X113393450Y-89428842D01*
X113483158Y-89518550D01*
X113596196Y-89576146D01*
X113721500Y-89595992D01*
X113846804Y-89576146D01*
X113959842Y-89518550D01*
X114049550Y-89428842D01*
X114107146Y-89315804D01*
X114126992Y-89190500D01*
X114107146Y-89065196D01*
X114049550Y-88952158D01*
X113959842Y-88862450D01*
X113846804Y-88804854D01*
X113846803Y-88804853D01*
X113846802Y-88804853D01*
X113816162Y-88800000D01*
X121394507Y-88800000D01*
X121414353Y-88925302D01*
X121414353Y-88925303D01*
X121414354Y-88925304D01*
X121471950Y-89038342D01*
X121561658Y-89128050D01*
X121674696Y-89185646D01*
X121800000Y-89205492D01*
X121925304Y-89185646D01*
X122038342Y-89128050D01*
X122128050Y-89038342D01*
X122185646Y-88925304D01*
X122205492Y-88800000D01*
X122185646Y-88674696D01*
X122128050Y-88561658D01*
X122038342Y-88471950D01*
X121925304Y-88414354D01*
X121925303Y-88414353D01*
X121925302Y-88414353D01*
X121800000Y-88394507D01*
X121674697Y-88414353D01*
X121561659Y-88471949D01*
X121471949Y-88561659D01*
X121414353Y-88674697D01*
X121394507Y-88800000D01*
X113816162Y-88800000D01*
X113721500Y-88785007D01*
X113596197Y-88804853D01*
X113588016Y-88809022D01*
X113577458Y-88814401D01*
X113517028Y-88823972D01*
X113462511Y-88796195D01*
X113443924Y-88759716D01*
X113442603Y-88760390D01*
X113435485Y-88746420D01*
X113435485Y-88746419D01*
X113377889Y-88633381D01*
X113288181Y-88543673D01*
X113175143Y-88486077D01*
X113175142Y-88486076D01*
X113175141Y-88486076D01*
X113049838Y-88466230D01*
X113044292Y-88467109D01*
X112983861Y-88457535D01*
X112940598Y-88414270D01*
X112931028Y-88353839D01*
X112931387Y-88351575D01*
X112911541Y-88226271D01*
X112853945Y-88113233D01*
X112764237Y-88023525D01*
X112651199Y-87965929D01*
X112651198Y-87965928D01*
X112651197Y-87965928D01*
X112525895Y-87946082D01*
X112400592Y-87965928D01*
X112287554Y-88023524D01*
X112197844Y-88113234D01*
X112140248Y-88226272D01*
X112133226Y-88270609D01*
X112112382Y-88317424D01*
X112070923Y-88347546D01*
X112019958Y-88352902D01*
X111898339Y-88333639D01*
X111773036Y-88353485D01*
X111659998Y-88411081D01*
X111570288Y-88500791D01*
X111512692Y-88613829D01*
X111503097Y-88674410D01*
X111482253Y-88721225D01*
X111440794Y-88751346D01*
X111389830Y-88756703D01*
X111301754Y-88742753D01*
X111176451Y-88762599D01*
X111063413Y-88820195D01*
X110973703Y-88909905D01*
X110916107Y-89022943D01*
X110896261Y-89148246D01*
X107565932Y-89148246D01*
X107469469Y-89086253D01*
X107469068Y-89085995D01*
X107344772Y-89049500D01*
X107215228Y-89049500D01*
X107090931Y-89085995D01*
X106981949Y-89156034D01*
X106897116Y-89253937D01*
X106843302Y-89371772D01*
X106824866Y-89499999D01*
X94441283Y-89499999D01*
X94441283Y-88480000D01*
X102014749Y-88480000D01*
X102033701Y-88660312D01*
X102065999Y-88759716D01*
X102089727Y-88832743D01*
X102180380Y-88989759D01*
X102301693Y-89124491D01*
X102301696Y-89124493D01*
X102448374Y-89231061D01*
X102614005Y-89304805D01*
X102791348Y-89342500D01*
X102972650Y-89342500D01*
X102972652Y-89342500D01*
X103149995Y-89304805D01*
X103315626Y-89231061D01*
X103462304Y-89124493D01*
X103496736Y-89086253D01*
X103583619Y-88989759D01*
X103583618Y-88989759D01*
X103583621Y-88989757D01*
X103674273Y-88832743D01*
X103730299Y-88660312D01*
X103749251Y-88480000D01*
X103730299Y-88299688D01*
X103674273Y-88127257D01*
X103674271Y-88127254D01*
X103671057Y-88117361D01*
X103673721Y-88116495D01*
X103664769Y-88080250D01*
X103682105Y-88028063D01*
X103724613Y-87993177D01*
X103779179Y-87986356D01*
X103900000Y-88005492D01*
X104025304Y-87985646D01*
X104138342Y-87928050D01*
X104195451Y-87870941D01*
X114375449Y-87870941D01*
X114395295Y-87996244D01*
X114395295Y-87996245D01*
X114395296Y-87996246D01*
X114452892Y-88109284D01*
X114542600Y-88198992D01*
X114655638Y-88256588D01*
X114780942Y-88276434D01*
X114906246Y-88256588D01*
X115019284Y-88198992D01*
X115108992Y-88109284D01*
X115113723Y-88099999D01*
X140544507Y-88099999D01*
X140564353Y-88225302D01*
X140564353Y-88225303D01*
X140564354Y-88225304D01*
X140621950Y-88338342D01*
X140711658Y-88428050D01*
X140824696Y-88485646D01*
X140950000Y-88505492D01*
X141075304Y-88485646D01*
X141188342Y-88428050D01*
X141278050Y-88338342D01*
X141335646Y-88225304D01*
X141355492Y-88100000D01*
X141335646Y-87974696D01*
X141278050Y-87861658D01*
X141188342Y-87771950D01*
X141075304Y-87714354D01*
X141075303Y-87714353D01*
X141075302Y-87714353D01*
X140950000Y-87694507D01*
X140824697Y-87714353D01*
X140711659Y-87771949D01*
X140621949Y-87861659D01*
X140564353Y-87974697D01*
X140544507Y-88099999D01*
X115113723Y-88099999D01*
X115166588Y-87996246D01*
X115186434Y-87870942D01*
X115185299Y-87863781D01*
X115188927Y-87817701D01*
X115213078Y-87778290D01*
X115252490Y-87754139D01*
X115298565Y-87750513D01*
X115330000Y-87755492D01*
X115455304Y-87735646D01*
X115568342Y-87678050D01*
X115658050Y-87588342D01*
X115715646Y-87475304D01*
X115735492Y-87350000D01*
X115734856Y-87345990D01*
X115738483Y-87299910D01*
X115762635Y-87260499D01*
X115802046Y-87236348D01*
X115848121Y-87232722D01*
X115947094Y-87248398D01*
X116072398Y-87228552D01*
X116185436Y-87170956D01*
X116275144Y-87081248D01*
X116332740Y-86968210D01*
X116352586Y-86842906D01*
X116341039Y-86770000D01*
X126222749Y-86770000D01*
X126241701Y-86950312D01*
X126253070Y-86985302D01*
X126297727Y-87122743D01*
X126388380Y-87279759D01*
X126509693Y-87414491D01*
X126509696Y-87414493D01*
X126656374Y-87521061D01*
X126822005Y-87594805D01*
X126999348Y-87632500D01*
X127180650Y-87632500D01*
X127180652Y-87632500D01*
X127357995Y-87594805D01*
X127523626Y-87521061D01*
X127670304Y-87414493D01*
X127791621Y-87279757D01*
X127882273Y-87122743D01*
X127938299Y-86950312D01*
X127957251Y-86770000D01*
X127938299Y-86589688D01*
X127882273Y-86417257D01*
X127791621Y-86260243D01*
X127791620Y-86260242D01*
X127791619Y-86260240D01*
X127670306Y-86125508D01*
X127596964Y-86072222D01*
X127523626Y-86018939D01*
X127484815Y-86001659D01*
X127357996Y-85945195D01*
X127261558Y-85924697D01*
X127180652Y-85907500D01*
X126999348Y-85907500D01*
X126918446Y-85924696D01*
X126822003Y-85945195D01*
X126656376Y-86018938D01*
X126509693Y-86125508D01*
X126388380Y-86260240D01*
X126297727Y-86417256D01*
X126241701Y-86589688D01*
X126226460Y-86734697D01*
X126222749Y-86770000D01*
X116341039Y-86770000D01*
X116337007Y-86744545D01*
X116340633Y-86698470D01*
X116364784Y-86659059D01*
X116404195Y-86634907D01*
X116450274Y-86631281D01*
X116540000Y-86645492D01*
X116665304Y-86625646D01*
X116778342Y-86568050D01*
X116868050Y-86478342D01*
X116925646Y-86365304D01*
X116945492Y-86240000D01*
X116925646Y-86114696D01*
X116892682Y-86050000D01*
X119944507Y-86050000D01*
X119964353Y-86175302D01*
X119964353Y-86175303D01*
X119964354Y-86175304D01*
X120021950Y-86288342D01*
X120111658Y-86378050D01*
X120224696Y-86435646D01*
X120350000Y-86455492D01*
X120475304Y-86435646D01*
X120588342Y-86378050D01*
X120678050Y-86288342D01*
X120735646Y-86175304D01*
X120755492Y-86050000D01*
X120735646Y-85924696D01*
X120678050Y-85811658D01*
X120588342Y-85721950D01*
X120509936Y-85682000D01*
X146114749Y-85682000D01*
X146133701Y-85862312D01*
X146150722Y-85914696D01*
X146189727Y-86034743D01*
X146280380Y-86191759D01*
X146401693Y-86326491D01*
X146401696Y-86326493D01*
X146548374Y-86433061D01*
X146714005Y-86506805D01*
X146891348Y-86544500D01*
X147072650Y-86544500D01*
X147072652Y-86544500D01*
X147249995Y-86506805D01*
X147415626Y-86433061D01*
X147562304Y-86326493D01*
X147683621Y-86191757D01*
X147774273Y-86034743D01*
X147830299Y-85862312D01*
X147849251Y-85682000D01*
X147830299Y-85501688D01*
X147774273Y-85329257D01*
X147683621Y-85172243D01*
X147683620Y-85172242D01*
X147683619Y-85172240D01*
X147562306Y-85037508D01*
X147418881Y-84933304D01*
X147415626Y-84930939D01*
X147372323Y-84911659D01*
X147249996Y-84857195D01*
X147165080Y-84839146D01*
X147072652Y-84819500D01*
X146891348Y-84819500D01*
X146815386Y-84835646D01*
X146714003Y-84857195D01*
X146548376Y-84930938D01*
X146401693Y-85037508D01*
X146280380Y-85172240D01*
X146189727Y-85329256D01*
X146133701Y-85501688D01*
X146121639Y-85616452D01*
X146114749Y-85682000D01*
X120509936Y-85682000D01*
X120475304Y-85664354D01*
X120475303Y-85664353D01*
X120475302Y-85664353D01*
X120350000Y-85644507D01*
X120224697Y-85664353D01*
X120111659Y-85721949D01*
X120021949Y-85811659D01*
X119964353Y-85924697D01*
X119944507Y-86050000D01*
X116892682Y-86050000D01*
X116868050Y-86001658D01*
X116778342Y-85911950D01*
X116665304Y-85854354D01*
X116665303Y-85854353D01*
X116665302Y-85854353D01*
X116540000Y-85834508D01*
X116522364Y-85837301D01*
X116473338Y-85832664D01*
X116432611Y-85804981D01*
X116410260Y-85761101D01*
X116411815Y-85711882D01*
X116422822Y-85693276D01*
X116420931Y-85692313D01*
X116435177Y-85664354D01*
X116485646Y-85565304D01*
X116505492Y-85440000D01*
X116504454Y-85433449D01*
X116510770Y-85380081D01*
X116544043Y-85337872D01*
X116594467Y-85319269D01*
X116647179Y-85329753D01*
X116713696Y-85363646D01*
X116839000Y-85383492D01*
X116964304Y-85363646D01*
X117077342Y-85306050D01*
X117167050Y-85216342D01*
X117200854Y-85149999D01*
X133504507Y-85149999D01*
X133524353Y-85275302D01*
X133524353Y-85275303D01*
X133524354Y-85275304D01*
X133581950Y-85388342D01*
X133671658Y-85478050D01*
X133784696Y-85535646D01*
X133910000Y-85555492D01*
X134035304Y-85535646D01*
X134148342Y-85478050D01*
X134238050Y-85388342D01*
X134295646Y-85275304D01*
X134315492Y-85150000D01*
X134311690Y-85126000D01*
X136844507Y-85126000D01*
X136864353Y-85251302D01*
X136864353Y-85251303D01*
X136864354Y-85251304D01*
X136921950Y-85364342D01*
X137011658Y-85454050D01*
X137124696Y-85511646D01*
X137250000Y-85531492D01*
X137375304Y-85511646D01*
X137488342Y-85454050D01*
X137578050Y-85364342D01*
X137635646Y-85251304D01*
X137655492Y-85126000D01*
X137635646Y-85000696D01*
X137578050Y-84887658D01*
X137488342Y-84797950D01*
X137375304Y-84740354D01*
X137375303Y-84740353D01*
X137375302Y-84740353D01*
X137250000Y-84720507D01*
X137124697Y-84740353D01*
X137011659Y-84797949D01*
X136921949Y-84887659D01*
X136864353Y-85000697D01*
X136844507Y-85126000D01*
X134311690Y-85126000D01*
X134310069Y-85115763D01*
X134298551Y-85043039D01*
X134295646Y-85024696D01*
X134238050Y-84911658D01*
X134148342Y-84821950D01*
X134035304Y-84764354D01*
X134035303Y-84764353D01*
X134035302Y-84764353D01*
X133909999Y-84744507D01*
X133784697Y-84764353D01*
X133671659Y-84821949D01*
X133581949Y-84911659D01*
X133524353Y-85024697D01*
X133504507Y-85149999D01*
X117200854Y-85149999D01*
X117224646Y-85103304D01*
X117244492Y-84978000D01*
X117224646Y-84852696D01*
X117167050Y-84739658D01*
X117077342Y-84649950D01*
X116964304Y-84592354D01*
X116964303Y-84592353D01*
X116964302Y-84592353D01*
X116838999Y-84572507D01*
X116780380Y-84581792D01*
X116734300Y-84578165D01*
X116694889Y-84554014D01*
X116670738Y-84514602D01*
X116667112Y-84468525D01*
X116669492Y-84453500D01*
X116649646Y-84328196D01*
X116592050Y-84215158D01*
X116502342Y-84125450D01*
X116389304Y-84067854D01*
X116389303Y-84067853D01*
X116389302Y-84067853D01*
X116264000Y-84048007D01*
X116138697Y-84067853D01*
X116025659Y-84125449D01*
X115935949Y-84215159D01*
X115878353Y-84328197D01*
X115858507Y-84453500D01*
X115878353Y-84578802D01*
X115878353Y-84578803D01*
X115878354Y-84578804D01*
X115935950Y-84691842D01*
X116025658Y-84781550D01*
X116138696Y-84839146D01*
X116264000Y-84858992D01*
X116322620Y-84849707D01*
X116383050Y-84859278D01*
X116426315Y-84902541D01*
X116435887Y-84962973D01*
X116433507Y-84977997D01*
X116434545Y-84984548D01*
X116428228Y-85037921D01*
X116394955Y-85080127D01*
X116344532Y-85098730D01*
X116291820Y-85088245D01*
X116225304Y-85054354D01*
X116100000Y-85034507D01*
X115974697Y-85054353D01*
X115861659Y-85111949D01*
X115771949Y-85201659D01*
X115714353Y-85314697D01*
X115694507Y-85440000D01*
X115714353Y-85565302D01*
X115714353Y-85565303D01*
X115714354Y-85565304D01*
X115771950Y-85678342D01*
X115861658Y-85768050D01*
X115974696Y-85825646D01*
X116100000Y-85845492D01*
X116117633Y-85842699D01*
X116178060Y-85852268D01*
X116221324Y-85895525D01*
X116230904Y-85955951D01*
X116215632Y-85985936D01*
X116219069Y-85987687D01*
X116211950Y-86001657D01*
X116211950Y-86001658D01*
X116203145Y-86018939D01*
X116154353Y-86114697D01*
X116134507Y-86239999D01*
X116150086Y-86338356D01*
X116140515Y-86398788D01*
X116097250Y-86442052D01*
X116036819Y-86451624D01*
X115947094Y-86437413D01*
X115821791Y-86457259D01*
X115708753Y-86514855D01*
X115619043Y-86604565D01*
X115561447Y-86717603D01*
X115541602Y-86842906D01*
X115542237Y-86846919D01*
X115532663Y-86907350D01*
X115489399Y-86950612D01*
X115428968Y-86960182D01*
X115412355Y-86957551D01*
X115329999Y-86944507D01*
X115204697Y-86964353D01*
X115091659Y-87021949D01*
X115001949Y-87111659D01*
X114944353Y-87224697D01*
X114924507Y-87350000D01*
X114925642Y-87357164D01*
X114916068Y-87417594D01*
X114872804Y-87460857D01*
X114812373Y-87470428D01*
X114780942Y-87465449D01*
X114655639Y-87485295D01*
X114542601Y-87542891D01*
X114452891Y-87632601D01*
X114395295Y-87745639D01*
X114375449Y-87870941D01*
X104195451Y-87870941D01*
X104228050Y-87838342D01*
X104285646Y-87725304D01*
X104305492Y-87600000D01*
X104285646Y-87474696D01*
X104228050Y-87361658D01*
X104138342Y-87271950D01*
X104025304Y-87214354D01*
X104025303Y-87214353D01*
X104025302Y-87214353D01*
X103900000Y-87194507D01*
X103774697Y-87214353D01*
X103661659Y-87271949D01*
X103571949Y-87361659D01*
X103514353Y-87474697D01*
X103494507Y-87600000D01*
X103503457Y-87656507D01*
X103495582Y-87713441D01*
X103457403Y-87756405D01*
X103401789Y-87770917D01*
X103347485Y-87752086D01*
X103340156Y-87746761D01*
X103315626Y-87728939D01*
X103282868Y-87714354D01*
X103149996Y-87655195D01*
X103043697Y-87632601D01*
X102972652Y-87617500D01*
X102791348Y-87617500D01*
X102720303Y-87632601D01*
X102614003Y-87655195D01*
X102448376Y-87728938D01*
X102301693Y-87835508D01*
X102180380Y-87970240D01*
X102089727Y-88127256D01*
X102057555Y-88226272D01*
X102033701Y-88299688D01*
X102014749Y-88480000D01*
X94441283Y-88480000D01*
X94441283Y-87590000D01*
X98744318Y-87590000D01*
X98764955Y-87746761D01*
X98825464Y-87892841D01*
X98921717Y-88018282D01*
X99002476Y-88080250D01*
X99047159Y-88114536D01*
X99193238Y-88175044D01*
X99310638Y-88190500D01*
X99310639Y-88190500D01*
X99389361Y-88190500D01*
X99389362Y-88190500D01*
X99448061Y-88182772D01*
X99506762Y-88175044D01*
X99652841Y-88114536D01*
X99778282Y-88018282D01*
X99874536Y-87892841D01*
X99935044Y-87746762D01*
X99955682Y-87590000D01*
X99935044Y-87433238D01*
X99874536Y-87287159D01*
X99842682Y-87245646D01*
X99778282Y-87161717D01*
X99652841Y-87065464D01*
X99506761Y-87004955D01*
X99389362Y-86989500D01*
X99389361Y-86989500D01*
X99310639Y-86989500D01*
X99310638Y-86989500D01*
X99193238Y-87004955D01*
X99047158Y-87065464D01*
X98921717Y-87161717D01*
X98825464Y-87287158D01*
X98764955Y-87433238D01*
X98744318Y-87590000D01*
X94441283Y-87590000D01*
X94441283Y-86859999D01*
X97844507Y-86859999D01*
X97864353Y-86985302D01*
X97864353Y-86985303D01*
X97864354Y-86985304D01*
X97921950Y-87098342D01*
X98011658Y-87188050D01*
X98124696Y-87245646D01*
X98250000Y-87265492D01*
X98375304Y-87245646D01*
X98488342Y-87188050D01*
X98578050Y-87098342D01*
X98635646Y-86985304D01*
X98655492Y-86860000D01*
X98635646Y-86734696D01*
X98578050Y-86621658D01*
X98488342Y-86531950D01*
X98375304Y-86474354D01*
X98375303Y-86474353D01*
X98375302Y-86474353D01*
X98250000Y-86454507D01*
X98124697Y-86474353D01*
X98011659Y-86531949D01*
X97921949Y-86621659D01*
X97864353Y-86734697D01*
X97844507Y-86859999D01*
X94441283Y-86859999D01*
X94441283Y-85990000D01*
X95114507Y-85990000D01*
X95134353Y-86115302D01*
X95134353Y-86115303D01*
X95134354Y-86115304D01*
X95191950Y-86228342D01*
X95281658Y-86318050D01*
X95394696Y-86375646D01*
X95520000Y-86395492D01*
X95645304Y-86375646D01*
X95758342Y-86318050D01*
X95848050Y-86228342D01*
X95905646Y-86115304D01*
X95925492Y-85990000D01*
X95917573Y-85940000D01*
X102014749Y-85940000D01*
X102033701Y-86120312D01*
X102067814Y-86225302D01*
X102089727Y-86292743D01*
X102180380Y-86449759D01*
X102301693Y-86584491D01*
X102301696Y-86584493D01*
X102448374Y-86691061D01*
X102614005Y-86764805D01*
X102791348Y-86802500D01*
X102972650Y-86802500D01*
X102972652Y-86802500D01*
X103149995Y-86764805D01*
X103315626Y-86691061D01*
X103462304Y-86584493D01*
X103477110Y-86568050D01*
X103583619Y-86449759D01*
X103583618Y-86449759D01*
X103583621Y-86449757D01*
X103674273Y-86292743D01*
X103730299Y-86120312D01*
X103749251Y-85940000D01*
X103730299Y-85759688D01*
X103674273Y-85587257D01*
X103583621Y-85430243D01*
X103583620Y-85430242D01*
X103583619Y-85430240D01*
X103462306Y-85295508D01*
X103349420Y-85213492D01*
X103315626Y-85188939D01*
X103284840Y-85175232D01*
X103149996Y-85115195D01*
X103067009Y-85097556D01*
X102972652Y-85077500D01*
X102791348Y-85077500D01*
X102712060Y-85094353D01*
X102614003Y-85115195D01*
X102448376Y-85188938D01*
X102301693Y-85295508D01*
X102180380Y-85430240D01*
X102089727Y-85587256D01*
X102033701Y-85759688D01*
X102016358Y-85924696D01*
X102014749Y-85940000D01*
X95917573Y-85940000D01*
X95905646Y-85864696D01*
X95848050Y-85751658D01*
X95758342Y-85661950D01*
X95645304Y-85604354D01*
X95645303Y-85604353D01*
X95645302Y-85604353D01*
X95520000Y-85584507D01*
X95394697Y-85604353D01*
X95281659Y-85661949D01*
X95191949Y-85751659D01*
X95134353Y-85864697D01*
X95114507Y-85990000D01*
X94441283Y-85990000D01*
X94441283Y-84808000D01*
X107683507Y-84808000D01*
X107703353Y-84933302D01*
X107703353Y-84933303D01*
X107703354Y-84933304D01*
X107760950Y-85046342D01*
X107850658Y-85136050D01*
X107963696Y-85193646D01*
X108089000Y-85213492D01*
X108214304Y-85193646D01*
X108256322Y-85172236D01*
X108304375Y-85161495D01*
X108351660Y-85175232D01*
X108386479Y-85210050D01*
X108400217Y-85257335D01*
X108389476Y-85305390D01*
X108364354Y-85354695D01*
X108344507Y-85479999D01*
X108364353Y-85605302D01*
X108364353Y-85605303D01*
X108364354Y-85605304D01*
X108421950Y-85718342D01*
X108511658Y-85808050D01*
X108624696Y-85865646D01*
X108750000Y-85885492D01*
X108875304Y-85865646D01*
X108988342Y-85808050D01*
X108988342Y-85808049D01*
X109002313Y-85800931D01*
X109003465Y-85803193D01*
X109020683Y-85793001D01*
X109069907Y-85791438D01*
X109113794Y-85813787D01*
X109141482Y-85854516D01*
X109146119Y-85903546D01*
X109124507Y-86039999D01*
X109144353Y-86165302D01*
X109144353Y-86165303D01*
X109144354Y-86165304D01*
X109201950Y-86278342D01*
X109291658Y-86368050D01*
X109404696Y-86425646D01*
X109530000Y-86445492D01*
X109655304Y-86425646D01*
X109768342Y-86368050D01*
X109858050Y-86278342D01*
X109915646Y-86165304D01*
X109925989Y-86100000D01*
X110344507Y-86100000D01*
X110364353Y-86225302D01*
X110364353Y-86225303D01*
X110364354Y-86225304D01*
X110421950Y-86338342D01*
X110511658Y-86428050D01*
X110624696Y-86485646D01*
X110750000Y-86505492D01*
X110875304Y-86485646D01*
X110988342Y-86428050D01*
X111078050Y-86338342D01*
X111135646Y-86225304D01*
X111155492Y-86100000D01*
X111135646Y-85974696D01*
X111078050Y-85861658D01*
X110988342Y-85771950D01*
X110875304Y-85714354D01*
X110875303Y-85714353D01*
X110875302Y-85714353D01*
X110750000Y-85694507D01*
X110624697Y-85714353D01*
X110511659Y-85771949D01*
X110421949Y-85861659D01*
X110364353Y-85974697D01*
X110344507Y-86100000D01*
X109925989Y-86100000D01*
X109935492Y-86040000D01*
X109915646Y-85914696D01*
X109858050Y-85801658D01*
X109768342Y-85711950D01*
X109655304Y-85654354D01*
X109655303Y-85654353D01*
X109655302Y-85654353D01*
X109530000Y-85634507D01*
X109404697Y-85654353D01*
X109360498Y-85676874D01*
X109291658Y-85711950D01*
X109291657Y-85711950D01*
X109277687Y-85719069D01*
X109275702Y-85715173D01*
X109247114Y-85729726D01*
X109186695Y-85720138D01*
X109143446Y-85676874D01*
X109133880Y-85616452D01*
X109135797Y-85604353D01*
X109155492Y-85480000D01*
X109135646Y-85354696D01*
X109078050Y-85241658D01*
X108988342Y-85151950D01*
X108875304Y-85094354D01*
X108875303Y-85094353D01*
X108875302Y-85094353D01*
X108750000Y-85074507D01*
X108624695Y-85094354D01*
X108582677Y-85115763D01*
X108522245Y-85125334D01*
X108467729Y-85097556D01*
X108439952Y-85043039D01*
X108449523Y-84982609D01*
X108474646Y-84933304D01*
X108494492Y-84808000D01*
X108474646Y-84682696D01*
X108417050Y-84569658D01*
X108327342Y-84479950D01*
X108214304Y-84422354D01*
X108214303Y-84422353D01*
X108214302Y-84422353D01*
X108089000Y-84402507D01*
X107963697Y-84422353D01*
X107850659Y-84479949D01*
X107760949Y-84569659D01*
X107703353Y-84682697D01*
X107683507Y-84808000D01*
X94441283Y-84808000D01*
X94441283Y-83400000D01*
X102014749Y-83400000D01*
X102033701Y-83580312D01*
X102089727Y-83752743D01*
X102113840Y-83794508D01*
X102180380Y-83909759D01*
X102301693Y-84044491D01*
X102306534Y-84048008D01*
X102448374Y-84151061D01*
X102614005Y-84224805D01*
X102791348Y-84262500D01*
X102972650Y-84262500D01*
X102972652Y-84262500D01*
X103149995Y-84224805D01*
X103315626Y-84151061D01*
X103454724Y-84050000D01*
X109054507Y-84050000D01*
X109074353Y-84175302D01*
X109074353Y-84175303D01*
X109074354Y-84175304D01*
X109131950Y-84288342D01*
X109221658Y-84378050D01*
X109334696Y-84435646D01*
X109460000Y-84455492D01*
X109494675Y-84450000D01*
X110444507Y-84450000D01*
X110464353Y-84575302D01*
X110464353Y-84575303D01*
X110464354Y-84575304D01*
X110521950Y-84688342D01*
X110611658Y-84778050D01*
X110724696Y-84835646D01*
X110850000Y-84855492D01*
X110975304Y-84835646D01*
X111088342Y-84778050D01*
X111178050Y-84688342D01*
X111235646Y-84575304D01*
X111255492Y-84450000D01*
X111239654Y-84350000D01*
X112944507Y-84350000D01*
X112964353Y-84475302D01*
X112964353Y-84475303D01*
X112964354Y-84475304D01*
X113021950Y-84588342D01*
X113111658Y-84678050D01*
X113224696Y-84735646D01*
X113350000Y-84755492D01*
X113475304Y-84735646D01*
X113588342Y-84678050D01*
X113678050Y-84588342D01*
X113735646Y-84475304D01*
X113755492Y-84350000D01*
X113735646Y-84224696D01*
X113678050Y-84111658D01*
X113588342Y-84021950D01*
X113486383Y-83969999D01*
X120624507Y-83969999D01*
X120644353Y-84095302D01*
X120644353Y-84095303D01*
X120644354Y-84095304D01*
X120701950Y-84208342D01*
X120791658Y-84298050D01*
X120904696Y-84355646D01*
X121030000Y-84375492D01*
X121155304Y-84355646D01*
X121268342Y-84298050D01*
X121358050Y-84208342D01*
X121362300Y-84200000D01*
X145894507Y-84200000D01*
X145914353Y-84325302D01*
X145914353Y-84325303D01*
X145914354Y-84325304D01*
X145971950Y-84438342D01*
X146061658Y-84528050D01*
X146174696Y-84585646D01*
X146300000Y-84605492D01*
X146425304Y-84585646D01*
X146538342Y-84528050D01*
X146628050Y-84438342D01*
X146685646Y-84325304D01*
X146705492Y-84200000D01*
X146689507Y-84099076D01*
X146693542Y-84051771D01*
X146719141Y-84011781D01*
X146760415Y-83988310D01*
X146807868Y-83986756D01*
X146891348Y-84004500D01*
X147072650Y-84004500D01*
X147072652Y-84004500D01*
X147249995Y-83966805D01*
X147415626Y-83893061D01*
X147562304Y-83786493D01*
X147683621Y-83651757D01*
X147774273Y-83494743D01*
X147830299Y-83322312D01*
X147849251Y-83142000D01*
X147830299Y-82961688D01*
X147774273Y-82789257D01*
X147683621Y-82632243D01*
X147683620Y-82632242D01*
X147683619Y-82632240D01*
X147562306Y-82497508D01*
X147442549Y-82410500D01*
X147415626Y-82390939D01*
X147415624Y-82390938D01*
X147249996Y-82317195D01*
X147190880Y-82304629D01*
X147072652Y-82279500D01*
X146891348Y-82279500D01*
X146802676Y-82298347D01*
X146714003Y-82317195D01*
X146548376Y-82390938D01*
X146401693Y-82497508D01*
X146280380Y-82632240D01*
X146189727Y-82789256D01*
X146166202Y-82861659D01*
X146133701Y-82961688D01*
X146114749Y-83142000D01*
X146133701Y-83322312D01*
X146189727Y-83494743D01*
X146276193Y-83644507D01*
X146285512Y-83660647D01*
X146298699Y-83706260D01*
X146289131Y-83752767D01*
X146259010Y-83789470D01*
X146215264Y-83807928D01*
X146174697Y-83814353D01*
X146061659Y-83871949D01*
X145971949Y-83961659D01*
X145914353Y-84074697D01*
X145894507Y-84200000D01*
X121362300Y-84200000D01*
X121415646Y-84095304D01*
X121435492Y-83970000D01*
X121415646Y-83844696D01*
X121358050Y-83731658D01*
X121268342Y-83641950D01*
X121155304Y-83584354D01*
X121155303Y-83584353D01*
X121155302Y-83584353D01*
X121029999Y-83564507D01*
X120904697Y-83584353D01*
X120791659Y-83641949D01*
X120701949Y-83731659D01*
X120644353Y-83844697D01*
X120624507Y-83969999D01*
X113486383Y-83969999D01*
X113475304Y-83964354D01*
X113475303Y-83964353D01*
X113475302Y-83964353D01*
X113350000Y-83944507D01*
X113224697Y-83964353D01*
X113111659Y-84021949D01*
X113021949Y-84111659D01*
X112964353Y-84224697D01*
X112944507Y-84350000D01*
X111239654Y-84350000D01*
X111235646Y-84324696D01*
X111178050Y-84211658D01*
X111088342Y-84121950D01*
X110975304Y-84064354D01*
X110975303Y-84064353D01*
X110975302Y-84064353D01*
X110849999Y-84044507D01*
X110724697Y-84064353D01*
X110611659Y-84121949D01*
X110521949Y-84211659D01*
X110464353Y-84324697D01*
X110444507Y-84450000D01*
X109494675Y-84450000D01*
X109585304Y-84435646D01*
X109698342Y-84378050D01*
X109788050Y-84288342D01*
X109845646Y-84175304D01*
X109865492Y-84050000D01*
X109845646Y-83924696D01*
X109788050Y-83811658D01*
X109698342Y-83721950D01*
X109585304Y-83664354D01*
X109585303Y-83664353D01*
X109585302Y-83664353D01*
X109459999Y-83644507D01*
X109334697Y-83664353D01*
X109221659Y-83721949D01*
X109131949Y-83811659D01*
X109074353Y-83924697D01*
X109054507Y-84050000D01*
X103454724Y-84050000D01*
X103462304Y-84044493D01*
X103512892Y-83988310D01*
X103583619Y-83909759D01*
X103583618Y-83909759D01*
X103583621Y-83909757D01*
X103674273Y-83752743D01*
X103730299Y-83580312D01*
X103743996Y-83449999D01*
X107844507Y-83449999D01*
X107864353Y-83575302D01*
X107864353Y-83575303D01*
X107864354Y-83575304D01*
X107921950Y-83688342D01*
X108011658Y-83778050D01*
X108124696Y-83835646D01*
X108250000Y-83855492D01*
X108375304Y-83835646D01*
X108488342Y-83778050D01*
X108578050Y-83688342D01*
X108635646Y-83575304D01*
X108655492Y-83450000D01*
X108652015Y-83428050D01*
X108635646Y-83324697D01*
X108635646Y-83324696D01*
X108578050Y-83211658D01*
X108488342Y-83121950D01*
X108445263Y-83100000D01*
X112394507Y-83100000D01*
X112414353Y-83225302D01*
X112414353Y-83225303D01*
X112414354Y-83225304D01*
X112471950Y-83338342D01*
X112561658Y-83428050D01*
X112674696Y-83485646D01*
X112800000Y-83505492D01*
X112925304Y-83485646D01*
X113038342Y-83428050D01*
X113102037Y-83364355D01*
X115730391Y-83364355D01*
X115750237Y-83489657D01*
X115750237Y-83489658D01*
X115750238Y-83489659D01*
X115807834Y-83602697D01*
X115897542Y-83692405D01*
X116010580Y-83750001D01*
X116061400Y-83758050D01*
X116135883Y-83769847D01*
X116135883Y-83769846D01*
X116135884Y-83769847D01*
X116261188Y-83750001D01*
X116374226Y-83692405D01*
X116463934Y-83602697D01*
X116463935Y-83602694D01*
X116475021Y-83591609D01*
X116477092Y-83593680D01*
X116494484Y-83574864D01*
X116546213Y-83560271D01*
X116597943Y-83574858D01*
X116634426Y-83614324D01*
X116661950Y-83668342D01*
X116751658Y-83758050D01*
X116864696Y-83815646D01*
X116990000Y-83835492D01*
X117115304Y-83815646D01*
X117228342Y-83758050D01*
X117318050Y-83668342D01*
X117375646Y-83555304D01*
X117395492Y-83430000D01*
X117375646Y-83304696D01*
X117318050Y-83191658D01*
X117228342Y-83101950D01*
X117224515Y-83100000D01*
X134394507Y-83100000D01*
X134414353Y-83225302D01*
X134414353Y-83225303D01*
X134414354Y-83225304D01*
X134471950Y-83338342D01*
X134561658Y-83428050D01*
X134674696Y-83485646D01*
X134800000Y-83505492D01*
X134925304Y-83485646D01*
X135038342Y-83428050D01*
X135128050Y-83338342D01*
X135185646Y-83225304D01*
X135205492Y-83100000D01*
X135185646Y-82974696D01*
X135128050Y-82861658D01*
X135038342Y-82771950D01*
X134925304Y-82714354D01*
X134925303Y-82714353D01*
X134925302Y-82714353D01*
X134800000Y-82694507D01*
X134674697Y-82714353D01*
X134561659Y-82771949D01*
X134471949Y-82861659D01*
X134414353Y-82974697D01*
X134394507Y-83100000D01*
X117224515Y-83100000D01*
X117115304Y-83044354D01*
X117115303Y-83044353D01*
X117115302Y-83044353D01*
X116990000Y-83024507D01*
X116864697Y-83044353D01*
X116751659Y-83101949D01*
X116751658Y-83101949D01*
X116751658Y-83101950D01*
X116661950Y-83191658D01*
X116661949Y-83191659D01*
X116650863Y-83202746D01*
X116648790Y-83200673D01*
X116631366Y-83219510D01*
X116579644Y-83234083D01*
X116527929Y-83219489D01*
X116491456Y-83180028D01*
X116463934Y-83126013D01*
X116374226Y-83036305D01*
X116261188Y-82978709D01*
X116261187Y-82978708D01*
X116261186Y-82978708D01*
X116135883Y-82958862D01*
X116010581Y-82978708D01*
X115897543Y-83036304D01*
X115807833Y-83126014D01*
X115750237Y-83239052D01*
X115730391Y-83364355D01*
X113102037Y-83364355D01*
X113128050Y-83338342D01*
X113185646Y-83225304D01*
X113205492Y-83100000D01*
X113185646Y-82974696D01*
X113128050Y-82861658D01*
X113038342Y-82771950D01*
X112925304Y-82714354D01*
X112925303Y-82714353D01*
X112925302Y-82714353D01*
X112834681Y-82700000D01*
X113794507Y-82700000D01*
X113814353Y-82825302D01*
X113814353Y-82825303D01*
X113814354Y-82825304D01*
X113871950Y-82938342D01*
X113961658Y-83028050D01*
X114074696Y-83085646D01*
X114137348Y-83095569D01*
X114199999Y-83105492D01*
X114199999Y-83105491D01*
X114200000Y-83105492D01*
X114325304Y-83085646D01*
X114438342Y-83028050D01*
X114528050Y-82938342D01*
X114585646Y-82825304D01*
X114605492Y-82700000D01*
X114585646Y-82574696D01*
X114528050Y-82461658D01*
X114438342Y-82371950D01*
X114325304Y-82314354D01*
X114325303Y-82314353D01*
X114325302Y-82314353D01*
X114200000Y-82294507D01*
X114074697Y-82314353D01*
X113961659Y-82371949D01*
X113871949Y-82461659D01*
X113814353Y-82574697D01*
X113794507Y-82700000D01*
X112834681Y-82700000D01*
X112800000Y-82694507D01*
X112674697Y-82714353D01*
X112561659Y-82771949D01*
X112471949Y-82861659D01*
X112414353Y-82974697D01*
X112394507Y-83100000D01*
X108445263Y-83100000D01*
X108375304Y-83064354D01*
X108375303Y-83064353D01*
X108375302Y-83064353D01*
X108249999Y-83044507D01*
X108124697Y-83064353D01*
X108011659Y-83121949D01*
X107921949Y-83211659D01*
X107864353Y-83324697D01*
X107844507Y-83449999D01*
X103743996Y-83449999D01*
X103749251Y-83400000D01*
X103730299Y-83219688D01*
X103674273Y-83047257D01*
X103583621Y-82890243D01*
X103583620Y-82890242D01*
X103583619Y-82890240D01*
X103462306Y-82755508D01*
X103348271Y-82672657D01*
X103315626Y-82648939D01*
X103310912Y-82646840D01*
X103149996Y-82575195D01*
X103064492Y-82557021D01*
X102972652Y-82537500D01*
X102791348Y-82537500D01*
X102702676Y-82556347D01*
X102614003Y-82575195D01*
X102448376Y-82648938D01*
X102301693Y-82755508D01*
X102180380Y-82890240D01*
X102089727Y-83047256D01*
X102063381Y-83128342D01*
X102033701Y-83219688D01*
X102014749Y-83400000D01*
X94441283Y-83400000D01*
X94441283Y-81809999D01*
X98744318Y-81809999D01*
X98764955Y-81966761D01*
X98825464Y-82112841D01*
X98921717Y-82238282D01*
X99047157Y-82334535D01*
X99047158Y-82334535D01*
X99047159Y-82334536D01*
X99069850Y-82343935D01*
X99113183Y-82378791D01*
X99130887Y-82431511D01*
X99117374Y-82485458D01*
X99076909Y-82523607D01*
X99001660Y-82561948D01*
X98911949Y-82651659D01*
X98854353Y-82764697D01*
X98834507Y-82890000D01*
X98854353Y-83015302D01*
X98854353Y-83015303D01*
X98854354Y-83015304D01*
X98911950Y-83128342D01*
X99001658Y-83218050D01*
X99114696Y-83275646D01*
X99177348Y-83285569D01*
X99239999Y-83295492D01*
X99239999Y-83295491D01*
X99240000Y-83295492D01*
X99365304Y-83275646D01*
X99478342Y-83218050D01*
X99568050Y-83128342D01*
X99625646Y-83015304D01*
X99645492Y-82890000D01*
X99625646Y-82764696D01*
X99568050Y-82651658D01*
X99478342Y-82561950D01*
X99478339Y-82561948D01*
X99473412Y-82557021D01*
X99448679Y-82515755D01*
X99446318Y-82467703D01*
X99466888Y-82424212D01*
X99505531Y-82395553D01*
X99506758Y-82395044D01*
X99506762Y-82395044D01*
X99652841Y-82334536D01*
X99778282Y-82238282D01*
X99874536Y-82112841D01*
X99935044Y-81966762D01*
X99955682Y-81810000D01*
X99935044Y-81653238D01*
X99874536Y-81507159D01*
X99830578Y-81449872D01*
X99778282Y-81381717D01*
X99733869Y-81347638D01*
X107734507Y-81347638D01*
X107754353Y-81472940D01*
X107754353Y-81472941D01*
X107754354Y-81472942D01*
X107811950Y-81585980D01*
X107901658Y-81675688D01*
X108014696Y-81733284D01*
X108077347Y-81743206D01*
X108139999Y-81753130D01*
X108139999Y-81753129D01*
X108140000Y-81753130D01*
X108265304Y-81733284D01*
X108265304Y-81733283D01*
X108280791Y-81730831D01*
X108281289Y-81733976D01*
X108305522Y-81729148D01*
X108355957Y-81747741D01*
X108389241Y-81789948D01*
X108395564Y-81843328D01*
X108394507Y-81849998D01*
X108404358Y-81912191D01*
X108398050Y-81965543D01*
X108364805Y-82007744D01*
X108314413Y-82026367D01*
X108291346Y-82021798D01*
X108290791Y-82025307D01*
X108149999Y-82003007D01*
X108024697Y-82022853D01*
X107911659Y-82080449D01*
X107821949Y-82170159D01*
X107764353Y-82283197D01*
X107744507Y-82408499D01*
X107764353Y-82533802D01*
X107764353Y-82533803D01*
X107764354Y-82533804D01*
X107821950Y-82646842D01*
X107911658Y-82736550D01*
X108024696Y-82794146D01*
X108087347Y-82804068D01*
X108149999Y-82813992D01*
X108149999Y-82813991D01*
X108150000Y-82813992D01*
X108275304Y-82794146D01*
X108388342Y-82736550D01*
X108435789Y-82689102D01*
X108482679Y-82662843D01*
X108536383Y-82664952D01*
X108581071Y-82694811D01*
X108603572Y-82743620D01*
X108612178Y-82797959D01*
X108612178Y-82797960D01*
X108612179Y-82797961D01*
X108669775Y-82910999D01*
X108759483Y-83000707D01*
X108872521Y-83058303D01*
X108910720Y-83064353D01*
X108997824Y-83078149D01*
X108997824Y-83078148D01*
X108997825Y-83078149D01*
X109123129Y-83058303D01*
X109236167Y-83000707D01*
X109325875Y-82910999D01*
X109383471Y-82797961D01*
X109403317Y-82672657D01*
X109399560Y-82648939D01*
X109385783Y-82561950D01*
X109383471Y-82547353D01*
X109325875Y-82434315D01*
X109236167Y-82344607D01*
X109123129Y-82287011D01*
X109123127Y-82287010D01*
X109116188Y-82283475D01*
X109081040Y-82253456D01*
X109063352Y-82210751D01*
X109066979Y-82164672D01*
X109091128Y-82125263D01*
X109128050Y-82088342D01*
X109185646Y-81975304D01*
X109194405Y-81920000D01*
X116644507Y-81920000D01*
X116664353Y-82045302D01*
X116664353Y-82045303D01*
X116664354Y-82045304D01*
X116721950Y-82158342D01*
X116811658Y-82248050D01*
X116924696Y-82305646D01*
X117050000Y-82325492D01*
X117175304Y-82305646D01*
X117288342Y-82248050D01*
X117378050Y-82158342D01*
X117435646Y-82045304D01*
X117455492Y-81920000D01*
X117435646Y-81794696D01*
X117378050Y-81681658D01*
X117288342Y-81591950D01*
X117175304Y-81534354D01*
X117175303Y-81534353D01*
X117175302Y-81534353D01*
X117050000Y-81514507D01*
X116924697Y-81534353D01*
X116811659Y-81591949D01*
X116721949Y-81681659D01*
X116664353Y-81794697D01*
X116644507Y-81920000D01*
X109194405Y-81920000D01*
X109205492Y-81850000D01*
X109185646Y-81724696D01*
X109128050Y-81611658D01*
X109038342Y-81521950D01*
X108925304Y-81464354D01*
X108925303Y-81464353D01*
X108925302Y-81464353D01*
X108800000Y-81444507D01*
X108659209Y-81466807D01*
X108658710Y-81463661D01*
X108634417Y-81468484D01*
X108584008Y-81449872D01*
X108550749Y-81407667D01*
X108544436Y-81354304D01*
X108544633Y-81353061D01*
X108545492Y-81347638D01*
X108525646Y-81222334D01*
X108498980Y-81170000D01*
X114704507Y-81170000D01*
X114724353Y-81295302D01*
X114724353Y-81295303D01*
X114724354Y-81295304D01*
X114781950Y-81408342D01*
X114871658Y-81498050D01*
X114984696Y-81555646D01*
X115110000Y-81575492D01*
X115235304Y-81555646D01*
X115348342Y-81498050D01*
X115438050Y-81408342D01*
X115495646Y-81295304D01*
X115515492Y-81170000D01*
X115507573Y-81120000D01*
X126222749Y-81120000D01*
X126241174Y-81295302D01*
X126241701Y-81300311D01*
X126297727Y-81472743D01*
X126388380Y-81629759D01*
X126509693Y-81764491D01*
X126509696Y-81764493D01*
X126656374Y-81871061D01*
X126822005Y-81944805D01*
X126999348Y-81982500D01*
X127180650Y-81982500D01*
X127180652Y-81982500D01*
X127357995Y-81944805D01*
X127523626Y-81871061D01*
X127670304Y-81764493D01*
X127700614Y-81730831D01*
X127750264Y-81675688D01*
X127791621Y-81629757D01*
X127882273Y-81472743D01*
X127938299Y-81300312D01*
X127957251Y-81120000D01*
X127938299Y-80939688D01*
X127882273Y-80767257D01*
X127791621Y-80610243D01*
X127791620Y-80610242D01*
X127791619Y-80610240D01*
X127670306Y-80475508D01*
X127571613Y-80403804D01*
X127523626Y-80368939D01*
X127478416Y-80348810D01*
X127357996Y-80295195D01*
X127279450Y-80278500D01*
X127180652Y-80257500D01*
X126999348Y-80257500D01*
X126910676Y-80276347D01*
X126822003Y-80295195D01*
X126656376Y-80368938D01*
X126509693Y-80475508D01*
X126388380Y-80610240D01*
X126297727Y-80767256D01*
X126244310Y-80931658D01*
X126241701Y-80939688D01*
X126222749Y-81120000D01*
X115507573Y-81120000D01*
X115495646Y-81044696D01*
X115438050Y-80931658D01*
X115348342Y-80841950D01*
X115235304Y-80784354D01*
X115235303Y-80784353D01*
X115235302Y-80784353D01*
X115109999Y-80764507D01*
X114984697Y-80784353D01*
X114871659Y-80841949D01*
X114781949Y-80931659D01*
X114724353Y-81044697D01*
X114704507Y-81170000D01*
X108498980Y-81170000D01*
X108468050Y-81109296D01*
X108378342Y-81019588D01*
X108265304Y-80961992D01*
X108265303Y-80961991D01*
X108265302Y-80961991D01*
X108140000Y-80942145D01*
X108014697Y-80961991D01*
X107901659Y-81019587D01*
X107811949Y-81109297D01*
X107754353Y-81222335D01*
X107734507Y-81347638D01*
X99733869Y-81347638D01*
X99652841Y-81285464D01*
X99506761Y-81224955D01*
X99389362Y-81209500D01*
X99389361Y-81209500D01*
X99310639Y-81209500D01*
X99310638Y-81209500D01*
X99193238Y-81224955D01*
X99047158Y-81285464D01*
X98921717Y-81381717D01*
X98825464Y-81507158D01*
X98764955Y-81653238D01*
X98744318Y-81809999D01*
X94441283Y-81809999D01*
X94441283Y-80369999D01*
X106970507Y-80369999D01*
X106990353Y-80495302D01*
X106990353Y-80495303D01*
X106990354Y-80495304D01*
X107047950Y-80608342D01*
X107137658Y-80698050D01*
X107250696Y-80755646D01*
X107306643Y-80764507D01*
X107375999Y-80775492D01*
X107375999Y-80775491D01*
X107376000Y-80775492D01*
X107501304Y-80755646D01*
X107614342Y-80698050D01*
X107704050Y-80608342D01*
X107761646Y-80495304D01*
X107781492Y-80370000D01*
X107768821Y-80290000D01*
X111104866Y-80290000D01*
X111123302Y-80418227D01*
X111177116Y-80536062D01*
X111241394Y-80610243D01*
X111261951Y-80633967D01*
X111370931Y-80704004D01*
X111495228Y-80740500D01*
X111624772Y-80740500D01*
X111749069Y-80704004D01*
X111858049Y-80633967D01*
X111942882Y-80536063D01*
X111942881Y-80536063D01*
X111942883Y-80536062D01*
X111996697Y-80418227D01*
X112005069Y-80360000D01*
X113174507Y-80360000D01*
X113194353Y-80485302D01*
X113194353Y-80485303D01*
X113194354Y-80485304D01*
X113251950Y-80598342D01*
X113341658Y-80688050D01*
X113454696Y-80745646D01*
X113580000Y-80765492D01*
X113705304Y-80745646D01*
X113818342Y-80688050D01*
X113908050Y-80598342D01*
X113965646Y-80485304D01*
X113965646Y-80485300D01*
X113972394Y-80472058D01*
X114002413Y-80436910D01*
X114045117Y-80419222D01*
X114091197Y-80422848D01*
X114130605Y-80446997D01*
X114201313Y-80517705D01*
X114314351Y-80575301D01*
X114377002Y-80585223D01*
X114439654Y-80595147D01*
X114439654Y-80595146D01*
X114439655Y-80595147D01*
X114564959Y-80575301D01*
X114677997Y-80517705D01*
X114767705Y-80427997D01*
X114825301Y-80314959D01*
X114845147Y-80189655D01*
X114825301Y-80064351D01*
X114767705Y-79951313D01*
X114716392Y-79900000D01*
X117494507Y-79900000D01*
X117514353Y-80025302D01*
X117514353Y-80025303D01*
X117514354Y-80025304D01*
X117571950Y-80138342D01*
X117661658Y-80228050D01*
X117774696Y-80285646D01*
X117900000Y-80305492D01*
X118025304Y-80285646D01*
X118138342Y-80228050D01*
X118228050Y-80138342D01*
X118285646Y-80025304D01*
X118305492Y-79900000D01*
X118285646Y-79774696D01*
X118228050Y-79661658D01*
X118138342Y-79571950D01*
X118025304Y-79514354D01*
X118025303Y-79514353D01*
X118025302Y-79514353D01*
X117900000Y-79494507D01*
X117774697Y-79514353D01*
X117661659Y-79571949D01*
X117571949Y-79661659D01*
X117514353Y-79774697D01*
X117494507Y-79900000D01*
X114716392Y-79900000D01*
X114677997Y-79861605D01*
X114564959Y-79804009D01*
X114564958Y-79804008D01*
X114564957Y-79804008D01*
X114439655Y-79784162D01*
X114314352Y-79804008D01*
X114201314Y-79861604D01*
X114111603Y-79951315D01*
X114047259Y-80077597D01*
X114003995Y-80120861D01*
X113943563Y-80130432D01*
X113889048Y-80102656D01*
X113818342Y-80031950D01*
X113705304Y-79974354D01*
X113705303Y-79974353D01*
X113705302Y-79974353D01*
X113580000Y-79954507D01*
X113454697Y-79974353D01*
X113341659Y-80031949D01*
X113251949Y-80121659D01*
X113194353Y-80234697D01*
X113174507Y-80360000D01*
X112005069Y-80360000D01*
X112015133Y-80290000D01*
X111996697Y-80161772D01*
X111942883Y-80043937D01*
X111858050Y-79946034D01*
X111858049Y-79946033D01*
X111769038Y-79888829D01*
X111749068Y-79875995D01*
X111624772Y-79839500D01*
X111495228Y-79839500D01*
X111370931Y-79875995D01*
X111261949Y-79946034D01*
X111177116Y-80043937D01*
X111123302Y-80161772D01*
X111104866Y-80290000D01*
X107768821Y-80290000D01*
X107761646Y-80244696D01*
X107704050Y-80131658D01*
X107614342Y-80041950D01*
X107501304Y-79984354D01*
X107501303Y-79984353D01*
X107501302Y-79984353D01*
X107376000Y-79964507D01*
X107250697Y-79984353D01*
X107137659Y-80041949D01*
X107047949Y-80131659D01*
X106990353Y-80244697D01*
X106970507Y-80369999D01*
X94441283Y-80369999D01*
X94441283Y-79660446D01*
X94454546Y-79610946D01*
X94490783Y-79574709D01*
X94540283Y-79561446D01*
X96360149Y-79561446D01*
X96360284Y-79561473D01*
X96379933Y-79561485D01*
X96379936Y-79561487D01*
X96380319Y-79561329D01*
X96380436Y-79561045D01*
X96380477Y-79560946D01*
X96380476Y-79560945D01*
X96380477Y-79560944D01*
X96380477Y-79541364D01*
X96380436Y-79541158D01*
X96380436Y-79399999D01*
X119594507Y-79399999D01*
X119614353Y-79525302D01*
X119614353Y-79525303D01*
X119614354Y-79525304D01*
X119671950Y-79638342D01*
X119761658Y-79728050D01*
X119874696Y-79785646D01*
X120000000Y-79805492D01*
X120125304Y-79785646D01*
X120238342Y-79728050D01*
X120328050Y-79638342D01*
X120385646Y-79525304D01*
X120405492Y-79400000D01*
X120394405Y-79329999D01*
X121434507Y-79329999D01*
X121454353Y-79455302D01*
X121454353Y-79455303D01*
X121454354Y-79455304D01*
X121511950Y-79568342D01*
X121601658Y-79658050D01*
X121714696Y-79715646D01*
X121740103Y-79719670D01*
X121794620Y-79747447D01*
X121822397Y-79801964D01*
X121812826Y-79862396D01*
X121769561Y-79905660D01*
X121681661Y-79950447D01*
X121591949Y-80040159D01*
X121534353Y-80153197D01*
X121514507Y-80278500D01*
X121534353Y-80403802D01*
X121534353Y-80403803D01*
X121534354Y-80403804D01*
X121591950Y-80516842D01*
X121681658Y-80606550D01*
X121794696Y-80664146D01*
X121857348Y-80674069D01*
X121919999Y-80683992D01*
X121919999Y-80683991D01*
X121920000Y-80683992D01*
X122045304Y-80664146D01*
X122158342Y-80606550D01*
X122205392Y-80559500D01*
X124282413Y-80559500D01*
X124302259Y-80684802D01*
X124302259Y-80684803D01*
X124302260Y-80684804D01*
X124359856Y-80797842D01*
X124449564Y-80887550D01*
X124562602Y-80945146D01*
X124687906Y-80964992D01*
X124813210Y-80945146D01*
X124926248Y-80887550D01*
X125015956Y-80797842D01*
X125073552Y-80684804D01*
X125093398Y-80559500D01*
X125073552Y-80434196D01*
X125030044Y-80348808D01*
X125019560Y-80296096D01*
X125038164Y-80245672D01*
X125080374Y-80212399D01*
X125114577Y-80208352D01*
X125114513Y-80207945D01*
X125130000Y-80205492D01*
X125255304Y-80185646D01*
X125368342Y-80128050D01*
X125458050Y-80038342D01*
X125515646Y-79925304D01*
X125535492Y-79800000D01*
X125531484Y-79774697D01*
X125515646Y-79674697D01*
X125515646Y-79674696D01*
X125458050Y-79561658D01*
X125368342Y-79471950D01*
X125255304Y-79414354D01*
X125255303Y-79414353D01*
X125255302Y-79414353D01*
X125130000Y-79394507D01*
X125004697Y-79414353D01*
X124891659Y-79471949D01*
X124801949Y-79561659D01*
X124744353Y-79674697D01*
X124724507Y-79800000D01*
X124744353Y-79925302D01*
X124787860Y-80010689D01*
X124798345Y-80063402D01*
X124779743Y-80113825D01*
X124737536Y-80147098D01*
X124703328Y-80151146D01*
X124703393Y-80151555D01*
X124562603Y-80173853D01*
X124449565Y-80231449D01*
X124359855Y-80321159D01*
X124302259Y-80434197D01*
X124282413Y-80559500D01*
X122205392Y-80559500D01*
X122248050Y-80516842D01*
X122305646Y-80403804D01*
X122325492Y-80278500D01*
X122305646Y-80153196D01*
X122248050Y-80040158D01*
X122158342Y-79950450D01*
X122045304Y-79892854D01*
X122045303Y-79892853D01*
X122045302Y-79892853D01*
X122019894Y-79888829D01*
X121965378Y-79861050D01*
X121937602Y-79806534D01*
X121947174Y-79746102D01*
X121990436Y-79702840D01*
X122078342Y-79658050D01*
X122168050Y-79568342D01*
X122225646Y-79455304D01*
X122245492Y-79330000D01*
X122225646Y-79204696D01*
X122168050Y-79091658D01*
X122078342Y-79001950D01*
X121965304Y-78944354D01*
X121965303Y-78944353D01*
X121965302Y-78944353D01*
X121839999Y-78924507D01*
X121714697Y-78944353D01*
X121601659Y-79001949D01*
X121511949Y-79091659D01*
X121454353Y-79204697D01*
X121434507Y-79329999D01*
X120394405Y-79329999D01*
X120385646Y-79274696D01*
X120328050Y-79161658D01*
X120238342Y-79071950D01*
X120125304Y-79014354D01*
X120125303Y-79014353D01*
X120125302Y-79014353D01*
X120000000Y-78994507D01*
X119874697Y-79014353D01*
X119761659Y-79071949D01*
X119671949Y-79161659D01*
X119614353Y-79274697D01*
X119594507Y-79399999D01*
X96380436Y-79399999D01*
X96380436Y-78810000D01*
X127944507Y-78810000D01*
X127964353Y-78935302D01*
X127964353Y-78935303D01*
X127964354Y-78935304D01*
X128021950Y-79048342D01*
X128111658Y-79138050D01*
X128224696Y-79195646D01*
X128350000Y-79215492D01*
X128475304Y-79195646D01*
X128588342Y-79138050D01*
X128626392Y-79100000D01*
X134394507Y-79100000D01*
X134414353Y-79225302D01*
X134414353Y-79225303D01*
X134414354Y-79225304D01*
X134471950Y-79338342D01*
X134561658Y-79428050D01*
X134674696Y-79485646D01*
X134800000Y-79505492D01*
X134925304Y-79485646D01*
X135038342Y-79428050D01*
X135066393Y-79399999D01*
X145794507Y-79399999D01*
X145814353Y-79525302D01*
X145814353Y-79525303D01*
X145814354Y-79525304D01*
X145871950Y-79638342D01*
X145961658Y-79728050D01*
X146074696Y-79785646D01*
X146137348Y-79795569D01*
X146199999Y-79805492D01*
X146199999Y-79805491D01*
X146200000Y-79805492D01*
X146318760Y-79786682D01*
X146378032Y-79795672D01*
X146421249Y-79837224D01*
X146432560Y-79896099D01*
X146407818Y-79950707D01*
X146280379Y-80092243D01*
X146189727Y-80249256D01*
X146150840Y-80368938D01*
X146133701Y-80421688D01*
X146114749Y-80602000D01*
X146133701Y-80782312D01*
X146167895Y-80887550D01*
X146189727Y-80954743D01*
X146280380Y-81111759D01*
X146401693Y-81246491D01*
X146401696Y-81246493D01*
X146548374Y-81353061D01*
X146714005Y-81426805D01*
X146891348Y-81464500D01*
X147072650Y-81464500D01*
X147072652Y-81464500D01*
X147249995Y-81426805D01*
X147415626Y-81353061D01*
X147562304Y-81246493D01*
X147683621Y-81111757D01*
X147774273Y-80954743D01*
X147830299Y-80782312D01*
X147849251Y-80602000D01*
X147830299Y-80421688D01*
X147774273Y-80249257D01*
X147683621Y-80092243D01*
X147683620Y-80092242D01*
X147683619Y-80092240D01*
X147562306Y-79957508D01*
X147473317Y-79892854D01*
X147415626Y-79850939D01*
X147347500Y-79820607D01*
X147249996Y-79777195D01*
X147190880Y-79764629D01*
X147072652Y-79739500D01*
X146891348Y-79739500D01*
X146714005Y-79777195D01*
X146714004Y-79777195D01*
X146714001Y-79777196D01*
X146616498Y-79820607D01*
X146562795Y-79828250D01*
X146513126Y-79806446D01*
X146482403Y-79761742D01*
X146479848Y-79707558D01*
X146506226Y-79660165D01*
X146528050Y-79638342D01*
X146585646Y-79525304D01*
X146605492Y-79400000D01*
X146585646Y-79274696D01*
X146528050Y-79161658D01*
X146438342Y-79071950D01*
X146325304Y-79014354D01*
X146325303Y-79014353D01*
X146325302Y-79014353D01*
X146200000Y-78994507D01*
X146074697Y-79014353D01*
X145961659Y-79071949D01*
X145871949Y-79161659D01*
X145814353Y-79274697D01*
X145794507Y-79399999D01*
X135066393Y-79399999D01*
X135128050Y-79338342D01*
X135185646Y-79225304D01*
X135205492Y-79100000D01*
X135185646Y-78974696D01*
X135128050Y-78861658D01*
X135038342Y-78771950D01*
X134925304Y-78714354D01*
X134925303Y-78714353D01*
X134925302Y-78714353D01*
X134800000Y-78694507D01*
X134674697Y-78714353D01*
X134561659Y-78771949D01*
X134471949Y-78861659D01*
X134414353Y-78974697D01*
X134394507Y-79100000D01*
X128626392Y-79100000D01*
X128678050Y-79048342D01*
X128735646Y-78935304D01*
X128755492Y-78810000D01*
X128735646Y-78684696D01*
X128678050Y-78571658D01*
X128588342Y-78481950D01*
X128475304Y-78424354D01*
X128475303Y-78424353D01*
X128475302Y-78424353D01*
X128350000Y-78404507D01*
X128224697Y-78424353D01*
X128111659Y-78481949D01*
X128021949Y-78571659D01*
X127964353Y-78684697D01*
X127944507Y-78810000D01*
X96380436Y-78810000D01*
X96380436Y-77056999D01*
X98019749Y-77056999D01*
X98038701Y-77237311D01*
X98094727Y-77409743D01*
X98185380Y-77566759D01*
X98306693Y-77701491D01*
X98306696Y-77701493D01*
X98453374Y-77808061D01*
X98619005Y-77881805D01*
X98796348Y-77919500D01*
X98977650Y-77919500D01*
X98977652Y-77919500D01*
X99154995Y-77881805D01*
X99320626Y-77808061D01*
X99467304Y-77701493D01*
X99588621Y-77566757D01*
X99679273Y-77409743D01*
X99735299Y-77237312D01*
X99754251Y-77057000D01*
X99754251Y-77056999D01*
X103099749Y-77056999D01*
X103118701Y-77237311D01*
X103174727Y-77409743D01*
X103265380Y-77566759D01*
X103386693Y-77701491D01*
X103386696Y-77701493D01*
X103533374Y-77808061D01*
X103699005Y-77881805D01*
X103876348Y-77919500D01*
X104057650Y-77919500D01*
X104057652Y-77919500D01*
X104234995Y-77881805D01*
X104400626Y-77808061D01*
X104547304Y-77701493D01*
X104668621Y-77566757D01*
X104759273Y-77409743D01*
X104815299Y-77237312D01*
X104834251Y-77057000D01*
X104834251Y-77056999D01*
X105639749Y-77056999D01*
X105658701Y-77237311D01*
X105714727Y-77409743D01*
X105805380Y-77566759D01*
X105926693Y-77701491D01*
X105926696Y-77701493D01*
X106073374Y-77808061D01*
X106239005Y-77881805D01*
X106416348Y-77919500D01*
X106597650Y-77919500D01*
X106597652Y-77919500D01*
X106774995Y-77881805D01*
X106940626Y-77808061D01*
X107087304Y-77701493D01*
X107208621Y-77566757D01*
X107299273Y-77409743D01*
X107355299Y-77237312D01*
X107374251Y-77057000D01*
X107374251Y-77056999D01*
X108179749Y-77056999D01*
X108198701Y-77237311D01*
X108254727Y-77409743D01*
X108345380Y-77566759D01*
X108466693Y-77701491D01*
X108466696Y-77701493D01*
X108613374Y-77808061D01*
X108779005Y-77881805D01*
X108956348Y-77919500D01*
X109137650Y-77919500D01*
X109137652Y-77919500D01*
X109314995Y-77881805D01*
X109480626Y-77808061D01*
X109627304Y-77701493D01*
X109748621Y-77566757D01*
X109839273Y-77409743D01*
X109895299Y-77237312D01*
X109914251Y-77057000D01*
X109914251Y-77056999D01*
X110719749Y-77056999D01*
X110738701Y-77237311D01*
X110794727Y-77409743D01*
X110885380Y-77566759D01*
X111006693Y-77701491D01*
X111006696Y-77701493D01*
X111153374Y-77808061D01*
X111319005Y-77881805D01*
X111496348Y-77919500D01*
X111677650Y-77919500D01*
X111677652Y-77919500D01*
X111854995Y-77881805D01*
X112020626Y-77808061D01*
X112167304Y-77701493D01*
X112288621Y-77566757D01*
X112379273Y-77409743D01*
X112435299Y-77237312D01*
X112454251Y-77057000D01*
X112454251Y-77056999D01*
X113259749Y-77056999D01*
X113278701Y-77237311D01*
X113334727Y-77409743D01*
X113425380Y-77566759D01*
X113546693Y-77701491D01*
X113546696Y-77701493D01*
X113693374Y-77808061D01*
X113859005Y-77881805D01*
X114036348Y-77919500D01*
X114217650Y-77919500D01*
X114217652Y-77919500D01*
X114394995Y-77881805D01*
X114560626Y-77808061D01*
X114707304Y-77701493D01*
X114828621Y-77566757D01*
X114919273Y-77409743D01*
X114975299Y-77237312D01*
X114994251Y-77057000D01*
X114994251Y-77056999D01*
X115799749Y-77056999D01*
X115818701Y-77237311D01*
X115874727Y-77409743D01*
X115965380Y-77566759D01*
X116086693Y-77701491D01*
X116086696Y-77701493D01*
X116233374Y-77808061D01*
X116399005Y-77881805D01*
X116576348Y-77919500D01*
X116757650Y-77919500D01*
X116757652Y-77919500D01*
X116934995Y-77881805D01*
X117100626Y-77808061D01*
X117247304Y-77701493D01*
X117368621Y-77566757D01*
X117459273Y-77409743D01*
X117515299Y-77237312D01*
X117534251Y-77057000D01*
X117534251Y-77056999D01*
X118339749Y-77056999D01*
X118358701Y-77237311D01*
X118414727Y-77409743D01*
X118505380Y-77566759D01*
X118626693Y-77701491D01*
X118626696Y-77701493D01*
X118773374Y-77808061D01*
X118939005Y-77881805D01*
X119116348Y-77919500D01*
X119297650Y-77919500D01*
X119297652Y-77919500D01*
X119474995Y-77881805D01*
X119640626Y-77808061D01*
X119787304Y-77701493D01*
X119908621Y-77566757D01*
X119999273Y-77409743D01*
X120055299Y-77237312D01*
X120074251Y-77057000D01*
X120074251Y-77056999D01*
X120879749Y-77056999D01*
X120898701Y-77237311D01*
X120954727Y-77409743D01*
X121045380Y-77566759D01*
X121166693Y-77701491D01*
X121166696Y-77701493D01*
X121313374Y-77808061D01*
X121479005Y-77881805D01*
X121656348Y-77919500D01*
X121837650Y-77919500D01*
X121837652Y-77919500D01*
X122014995Y-77881805D01*
X122180626Y-77808061D01*
X122327304Y-77701493D01*
X122448621Y-77566757D01*
X122539273Y-77409743D01*
X122595299Y-77237312D01*
X122614251Y-77057000D01*
X122614251Y-77056999D01*
X123419749Y-77056999D01*
X123438701Y-77237311D01*
X123494727Y-77409743D01*
X123585380Y-77566759D01*
X123706693Y-77701491D01*
X123706696Y-77701493D01*
X123853374Y-77808061D01*
X124019005Y-77881805D01*
X124196348Y-77919500D01*
X124377650Y-77919500D01*
X124377652Y-77919500D01*
X124554995Y-77881805D01*
X124720626Y-77808061D01*
X124867304Y-77701493D01*
X124988621Y-77566757D01*
X125079273Y-77409743D01*
X125135299Y-77237312D01*
X125154251Y-77057000D01*
X125154251Y-77056999D01*
X125959749Y-77056999D01*
X125978701Y-77237311D01*
X126034727Y-77409743D01*
X126125380Y-77566759D01*
X126246693Y-77701491D01*
X126246696Y-77701493D01*
X126393374Y-77808061D01*
X126559005Y-77881805D01*
X126736348Y-77919500D01*
X126917650Y-77919500D01*
X126917652Y-77919500D01*
X127094995Y-77881805D01*
X127260626Y-77808061D01*
X127407304Y-77701493D01*
X127528621Y-77566757D01*
X127619273Y-77409743D01*
X127675299Y-77237312D01*
X127694251Y-77057000D01*
X127694251Y-77056999D01*
X128499749Y-77056999D01*
X128518701Y-77237311D01*
X128574727Y-77409743D01*
X128665380Y-77566759D01*
X128786693Y-77701491D01*
X128786696Y-77701493D01*
X128933374Y-77808061D01*
X129099005Y-77881805D01*
X129276348Y-77919500D01*
X129457650Y-77919500D01*
X129457652Y-77919500D01*
X129634995Y-77881805D01*
X129800626Y-77808061D01*
X129947304Y-77701493D01*
X130068621Y-77566757D01*
X130159273Y-77409743D01*
X130215299Y-77237312D01*
X130234251Y-77057000D01*
X130234251Y-77056999D01*
X131039749Y-77056999D01*
X131058701Y-77237311D01*
X131114727Y-77409743D01*
X131205380Y-77566759D01*
X131326693Y-77701491D01*
X131326696Y-77701493D01*
X131473374Y-77808061D01*
X131639005Y-77881805D01*
X131816348Y-77919500D01*
X131997650Y-77919500D01*
X131997652Y-77919500D01*
X132174995Y-77881805D01*
X132340626Y-77808061D01*
X132487304Y-77701493D01*
X132608621Y-77566757D01*
X132699273Y-77409743D01*
X132755299Y-77237312D01*
X132774251Y-77057000D01*
X132774251Y-77056999D01*
X133579749Y-77056999D01*
X133598701Y-77237311D01*
X133654727Y-77409743D01*
X133745380Y-77566759D01*
X133866693Y-77701491D01*
X133866696Y-77701493D01*
X134013374Y-77808061D01*
X134179005Y-77881805D01*
X134356348Y-77919500D01*
X134537650Y-77919500D01*
X134537652Y-77919500D01*
X134714995Y-77881805D01*
X134880626Y-77808061D01*
X135027304Y-77701493D01*
X135148621Y-77566757D01*
X135239273Y-77409743D01*
X135295299Y-77237312D01*
X135314251Y-77057000D01*
X135314251Y-77056999D01*
X136119749Y-77056999D01*
X136138701Y-77237311D01*
X136194727Y-77409743D01*
X136285380Y-77566759D01*
X136406693Y-77701491D01*
X136406696Y-77701493D01*
X136553374Y-77808061D01*
X136719005Y-77881805D01*
X136896348Y-77919500D01*
X137077650Y-77919500D01*
X137077652Y-77919500D01*
X137254995Y-77881805D01*
X137420626Y-77808061D01*
X137567304Y-77701493D01*
X137688621Y-77566757D01*
X137779273Y-77409743D01*
X137835299Y-77237312D01*
X137854251Y-77057000D01*
X137854251Y-77056999D01*
X138659749Y-77056999D01*
X138678701Y-77237311D01*
X138734727Y-77409743D01*
X138825380Y-77566759D01*
X138946693Y-77701491D01*
X138946696Y-77701493D01*
X139093374Y-77808061D01*
X139259005Y-77881805D01*
X139436348Y-77919500D01*
X139617650Y-77919500D01*
X139617652Y-77919500D01*
X139794995Y-77881805D01*
X139960626Y-77808061D01*
X140107304Y-77701493D01*
X140228621Y-77566757D01*
X140319273Y-77409743D01*
X140375299Y-77237312D01*
X140394251Y-77057000D01*
X140394251Y-77056999D01*
X141199749Y-77056999D01*
X141218701Y-77237311D01*
X141274727Y-77409743D01*
X141365380Y-77566759D01*
X141486693Y-77701491D01*
X141486696Y-77701493D01*
X141633374Y-77808061D01*
X141799005Y-77881805D01*
X141976348Y-77919500D01*
X142157650Y-77919500D01*
X142157652Y-77919500D01*
X142334995Y-77881805D01*
X142500626Y-77808061D01*
X142647304Y-77701493D01*
X142768621Y-77566757D01*
X142859273Y-77409743D01*
X142915299Y-77237312D01*
X142934251Y-77057000D01*
X142934251Y-77056999D01*
X143739749Y-77056999D01*
X143758701Y-77237311D01*
X143814727Y-77409743D01*
X143905380Y-77566759D01*
X144026693Y-77701491D01*
X144026696Y-77701493D01*
X144173374Y-77808061D01*
X144339005Y-77881805D01*
X144516348Y-77919500D01*
X144697650Y-77919500D01*
X144697652Y-77919500D01*
X144874995Y-77881805D01*
X145040626Y-77808061D01*
X145187304Y-77701493D01*
X145308621Y-77566757D01*
X145399273Y-77409743D01*
X145455299Y-77237312D01*
X145474251Y-77057000D01*
X145474251Y-77056999D01*
X146279749Y-77056999D01*
X146298701Y-77237311D01*
X146354727Y-77409743D01*
X146445380Y-77566759D01*
X146566693Y-77701491D01*
X146566696Y-77701493D01*
X146713374Y-77808061D01*
X146879005Y-77881805D01*
X147056348Y-77919500D01*
X147237650Y-77919500D01*
X147237652Y-77919500D01*
X147414995Y-77881805D01*
X147580626Y-77808061D01*
X147727304Y-77701493D01*
X147848621Y-77566757D01*
X147939273Y-77409743D01*
X147995299Y-77237312D01*
X148014251Y-77057000D01*
X147995299Y-76876688D01*
X147939273Y-76704257D01*
X147848621Y-76547243D01*
X147848620Y-76547242D01*
X147848619Y-76547240D01*
X147727306Y-76412508D01*
X147653965Y-76359223D01*
X147580626Y-76305939D01*
X147580624Y-76305938D01*
X147414996Y-76232195D01*
X147355880Y-76219629D01*
X147237652Y-76194500D01*
X147056348Y-76194500D01*
X146967676Y-76213347D01*
X146879003Y-76232195D01*
X146713376Y-76305938D01*
X146566693Y-76412508D01*
X146445380Y-76547240D01*
X146354727Y-76704256D01*
X146298701Y-76876688D01*
X146279749Y-77056999D01*
X145474251Y-77056999D01*
X145455299Y-76876688D01*
X145399273Y-76704257D01*
X145308621Y-76547243D01*
X145308620Y-76547242D01*
X145308619Y-76547240D01*
X145187306Y-76412508D01*
X145113965Y-76359223D01*
X145040626Y-76305939D01*
X145040624Y-76305938D01*
X144874996Y-76232195D01*
X144815880Y-76219629D01*
X144697652Y-76194500D01*
X144516348Y-76194500D01*
X144427676Y-76213347D01*
X144339003Y-76232195D01*
X144173376Y-76305938D01*
X144026693Y-76412508D01*
X143905380Y-76547240D01*
X143814727Y-76704256D01*
X143758701Y-76876688D01*
X143739749Y-77056999D01*
X142934251Y-77056999D01*
X142915299Y-76876688D01*
X142859273Y-76704257D01*
X142768621Y-76547243D01*
X142768620Y-76547242D01*
X142768619Y-76547240D01*
X142647306Y-76412508D01*
X142573965Y-76359223D01*
X142500626Y-76305939D01*
X142500624Y-76305938D01*
X142334996Y-76232195D01*
X142275880Y-76219629D01*
X142157652Y-76194500D01*
X141976348Y-76194500D01*
X141887676Y-76213347D01*
X141799003Y-76232195D01*
X141633376Y-76305938D01*
X141486693Y-76412508D01*
X141365380Y-76547240D01*
X141274727Y-76704256D01*
X141218701Y-76876688D01*
X141199749Y-77056999D01*
X140394251Y-77056999D01*
X140375299Y-76876688D01*
X140319273Y-76704257D01*
X140228621Y-76547243D01*
X140228620Y-76547242D01*
X140228619Y-76547240D01*
X140107306Y-76412508D01*
X140033965Y-76359223D01*
X139960626Y-76305939D01*
X139960624Y-76305938D01*
X139794996Y-76232195D01*
X139735880Y-76219629D01*
X139617652Y-76194500D01*
X139436348Y-76194500D01*
X139347676Y-76213347D01*
X139259003Y-76232195D01*
X139093376Y-76305938D01*
X138946693Y-76412508D01*
X138825380Y-76547240D01*
X138734727Y-76704256D01*
X138678701Y-76876688D01*
X138659749Y-77056999D01*
X137854251Y-77056999D01*
X137835299Y-76876688D01*
X137779273Y-76704257D01*
X137688621Y-76547243D01*
X137688620Y-76547242D01*
X137688619Y-76547240D01*
X137567306Y-76412508D01*
X137493965Y-76359223D01*
X137420626Y-76305939D01*
X137420624Y-76305938D01*
X137254996Y-76232195D01*
X137195880Y-76219629D01*
X137077652Y-76194500D01*
X136896348Y-76194500D01*
X136807676Y-76213347D01*
X136719003Y-76232195D01*
X136553376Y-76305938D01*
X136406693Y-76412508D01*
X136285380Y-76547240D01*
X136194727Y-76704256D01*
X136138701Y-76876688D01*
X136119749Y-77056999D01*
X135314251Y-77056999D01*
X135295299Y-76876688D01*
X135239273Y-76704257D01*
X135148621Y-76547243D01*
X135148620Y-76547242D01*
X135148619Y-76547240D01*
X135027306Y-76412508D01*
X134953965Y-76359223D01*
X134880626Y-76305939D01*
X134880624Y-76305938D01*
X134714996Y-76232195D01*
X134655880Y-76219629D01*
X134537652Y-76194500D01*
X134356348Y-76194500D01*
X134267676Y-76213347D01*
X134179003Y-76232195D01*
X134013376Y-76305938D01*
X133866693Y-76412508D01*
X133745380Y-76547240D01*
X133654727Y-76704256D01*
X133598701Y-76876688D01*
X133579749Y-77056999D01*
X132774251Y-77056999D01*
X132755299Y-76876688D01*
X132699273Y-76704257D01*
X132608621Y-76547243D01*
X132608620Y-76547242D01*
X132608619Y-76547240D01*
X132487306Y-76412508D01*
X132413965Y-76359223D01*
X132340626Y-76305939D01*
X132340624Y-76305938D01*
X132174996Y-76232195D01*
X132115880Y-76219629D01*
X131997652Y-76194500D01*
X131816348Y-76194500D01*
X131727676Y-76213347D01*
X131639003Y-76232195D01*
X131473376Y-76305938D01*
X131326693Y-76412508D01*
X131205380Y-76547240D01*
X131114727Y-76704256D01*
X131058701Y-76876688D01*
X131039749Y-77056999D01*
X130234251Y-77056999D01*
X130215299Y-76876688D01*
X130159273Y-76704257D01*
X130068621Y-76547243D01*
X130068620Y-76547242D01*
X130068619Y-76547240D01*
X129947306Y-76412508D01*
X129873965Y-76359223D01*
X129800626Y-76305939D01*
X129800624Y-76305938D01*
X129634996Y-76232195D01*
X129575880Y-76219629D01*
X129457652Y-76194500D01*
X129276348Y-76194500D01*
X129187676Y-76213347D01*
X129099003Y-76232195D01*
X128933376Y-76305938D01*
X128786693Y-76412508D01*
X128665380Y-76547240D01*
X128574727Y-76704256D01*
X128518701Y-76876688D01*
X128499749Y-77056999D01*
X127694251Y-77056999D01*
X127675299Y-76876688D01*
X127619273Y-76704257D01*
X127528621Y-76547243D01*
X127528620Y-76547242D01*
X127528619Y-76547240D01*
X127407306Y-76412508D01*
X127333965Y-76359223D01*
X127260626Y-76305939D01*
X127260624Y-76305938D01*
X127094996Y-76232195D01*
X127035880Y-76219629D01*
X126917652Y-76194500D01*
X126736348Y-76194500D01*
X126647676Y-76213347D01*
X126559003Y-76232195D01*
X126393376Y-76305938D01*
X126246693Y-76412508D01*
X126125380Y-76547240D01*
X126034727Y-76704256D01*
X125978701Y-76876688D01*
X125959749Y-77056999D01*
X125154251Y-77056999D01*
X125135299Y-76876688D01*
X125079273Y-76704257D01*
X124988621Y-76547243D01*
X124988620Y-76547242D01*
X124988619Y-76547240D01*
X124867306Y-76412508D01*
X124793965Y-76359223D01*
X124720626Y-76305939D01*
X124720624Y-76305938D01*
X124554996Y-76232195D01*
X124495880Y-76219629D01*
X124377652Y-76194500D01*
X124196348Y-76194500D01*
X124107676Y-76213347D01*
X124019003Y-76232195D01*
X123853376Y-76305938D01*
X123706693Y-76412508D01*
X123585380Y-76547240D01*
X123494727Y-76704256D01*
X123438701Y-76876688D01*
X123419749Y-77056999D01*
X122614251Y-77056999D01*
X122595299Y-76876688D01*
X122539273Y-76704257D01*
X122448621Y-76547243D01*
X122448620Y-76547242D01*
X122448619Y-76547240D01*
X122327306Y-76412508D01*
X122253965Y-76359223D01*
X122180626Y-76305939D01*
X122180624Y-76305938D01*
X122014996Y-76232195D01*
X121955880Y-76219629D01*
X121837652Y-76194500D01*
X121656348Y-76194500D01*
X121567676Y-76213347D01*
X121479003Y-76232195D01*
X121313376Y-76305938D01*
X121166693Y-76412508D01*
X121045380Y-76547240D01*
X120954727Y-76704256D01*
X120898701Y-76876688D01*
X120879749Y-77056999D01*
X120074251Y-77056999D01*
X120055299Y-76876688D01*
X119999273Y-76704257D01*
X119908621Y-76547243D01*
X119908620Y-76547242D01*
X119908619Y-76547240D01*
X119787306Y-76412508D01*
X119713965Y-76359223D01*
X119640626Y-76305939D01*
X119640624Y-76305938D01*
X119474996Y-76232195D01*
X119415880Y-76219629D01*
X119297652Y-76194500D01*
X119116348Y-76194500D01*
X119027676Y-76213347D01*
X118939003Y-76232195D01*
X118773376Y-76305938D01*
X118626693Y-76412508D01*
X118505380Y-76547240D01*
X118414727Y-76704256D01*
X118358701Y-76876688D01*
X118339749Y-77056999D01*
X117534251Y-77056999D01*
X117515299Y-76876688D01*
X117459273Y-76704257D01*
X117368621Y-76547243D01*
X117368620Y-76547242D01*
X117368619Y-76547240D01*
X117247306Y-76412508D01*
X117173965Y-76359223D01*
X117100626Y-76305939D01*
X117100624Y-76305938D01*
X116934996Y-76232195D01*
X116875880Y-76219629D01*
X116757652Y-76194500D01*
X116576348Y-76194500D01*
X116487676Y-76213347D01*
X116399003Y-76232195D01*
X116233376Y-76305938D01*
X116086693Y-76412508D01*
X115965380Y-76547240D01*
X115874727Y-76704256D01*
X115818701Y-76876688D01*
X115799749Y-77056999D01*
X114994251Y-77056999D01*
X114975299Y-76876688D01*
X114919273Y-76704257D01*
X114828621Y-76547243D01*
X114828620Y-76547242D01*
X114828619Y-76547240D01*
X114707306Y-76412508D01*
X114633965Y-76359223D01*
X114560626Y-76305939D01*
X114560624Y-76305938D01*
X114394996Y-76232195D01*
X114335880Y-76219629D01*
X114217652Y-76194500D01*
X114036348Y-76194500D01*
X113947676Y-76213347D01*
X113859003Y-76232195D01*
X113693376Y-76305938D01*
X113546693Y-76412508D01*
X113425380Y-76547240D01*
X113334727Y-76704256D01*
X113278701Y-76876688D01*
X113259749Y-77056999D01*
X112454251Y-77056999D01*
X112435299Y-76876688D01*
X112379273Y-76704257D01*
X112288621Y-76547243D01*
X112288620Y-76547242D01*
X112288619Y-76547240D01*
X112167306Y-76412508D01*
X112093965Y-76359223D01*
X112020626Y-76305939D01*
X112020624Y-76305938D01*
X111854996Y-76232195D01*
X111795880Y-76219629D01*
X111677652Y-76194500D01*
X111496348Y-76194500D01*
X111407676Y-76213347D01*
X111319003Y-76232195D01*
X111153376Y-76305938D01*
X111006693Y-76412508D01*
X110885380Y-76547240D01*
X110794727Y-76704256D01*
X110738701Y-76876688D01*
X110719749Y-77056999D01*
X109914251Y-77056999D01*
X109895299Y-76876688D01*
X109839273Y-76704257D01*
X109748621Y-76547243D01*
X109748620Y-76547242D01*
X109748619Y-76547240D01*
X109627306Y-76412508D01*
X109553965Y-76359223D01*
X109480626Y-76305939D01*
X109480624Y-76305938D01*
X109314996Y-76232195D01*
X109255880Y-76219629D01*
X109137652Y-76194500D01*
X108956348Y-76194500D01*
X108867676Y-76213347D01*
X108779003Y-76232195D01*
X108613376Y-76305938D01*
X108466693Y-76412508D01*
X108345380Y-76547240D01*
X108254727Y-76704256D01*
X108198701Y-76876688D01*
X108179749Y-77056999D01*
X107374251Y-77056999D01*
X107355299Y-76876688D01*
X107299273Y-76704257D01*
X107208621Y-76547243D01*
X107208620Y-76547242D01*
X107208619Y-76547240D01*
X107087306Y-76412508D01*
X107013965Y-76359223D01*
X106940626Y-76305939D01*
X106940624Y-76305938D01*
X106774996Y-76232195D01*
X106715880Y-76219629D01*
X106597652Y-76194500D01*
X106416348Y-76194500D01*
X106327676Y-76213347D01*
X106239003Y-76232195D01*
X106073376Y-76305938D01*
X105926693Y-76412508D01*
X105805380Y-76547240D01*
X105714727Y-76704256D01*
X105658701Y-76876688D01*
X105639749Y-77056999D01*
X104834251Y-77056999D01*
X104815299Y-76876688D01*
X104759273Y-76704257D01*
X104668621Y-76547243D01*
X104668620Y-76547242D01*
X104668619Y-76547240D01*
X104547306Y-76412508D01*
X104473965Y-76359223D01*
X104400626Y-76305939D01*
X104400624Y-76305938D01*
X104234996Y-76232195D01*
X104175880Y-76219629D01*
X104057652Y-76194500D01*
X103876348Y-76194500D01*
X103787676Y-76213347D01*
X103699003Y-76232195D01*
X103533376Y-76305938D01*
X103386693Y-76412508D01*
X103265380Y-76547240D01*
X103174727Y-76704256D01*
X103118701Y-76876688D01*
X103099749Y-77056999D01*
X99754251Y-77056999D01*
X99735299Y-76876688D01*
X99679273Y-76704257D01*
X99588621Y-76547243D01*
X99588620Y-76547242D01*
X99588619Y-76547240D01*
X99467306Y-76412508D01*
X99393965Y-76359223D01*
X99320626Y-76305939D01*
X99320624Y-76305938D01*
X99154996Y-76232195D01*
X99095880Y-76219629D01*
X98977652Y-76194500D01*
X98796348Y-76194500D01*
X98707676Y-76213347D01*
X98619003Y-76232195D01*
X98453376Y-76305938D01*
X98306693Y-76412508D01*
X98185380Y-76547240D01*
X98094727Y-76704256D01*
X98038701Y-76876688D01*
X98019749Y-77056999D01*
X96380436Y-77056999D01*
X96380436Y-75859122D01*
X107643629Y-75859122D01*
X107663475Y-75984424D01*
X107663475Y-75984425D01*
X107663476Y-75984426D01*
X107721072Y-76097464D01*
X107810780Y-76187172D01*
X107923818Y-76244768D01*
X108049122Y-76264614D01*
X108174426Y-76244768D01*
X108287464Y-76187172D01*
X108377172Y-76097464D01*
X108434768Y-75984426D01*
X108454614Y-75859122D01*
X108434768Y-75733818D01*
X108377172Y-75620780D01*
X108287464Y-75531072D01*
X108174426Y-75473476D01*
X108174425Y-75473475D01*
X108174424Y-75473475D01*
X108049121Y-75453629D01*
X107923819Y-75473475D01*
X107810781Y-75531071D01*
X107721071Y-75620781D01*
X107663475Y-75733819D01*
X107643629Y-75859122D01*
X96380436Y-75859122D01*
X96380436Y-75087789D01*
X96393699Y-75038289D01*
X96429936Y-75002052D01*
X96479436Y-74988789D01*
X148400500Y-74988789D01*
X148450000Y-75002052D01*
G37*
G04 #@! TD.AperFunction*
M02*
