M48
; DRILL file {KiCad (6.0.7-1)-1} date Thursday, January 12, 2023 at 11:00:49 AM
; FORMAT={-:-/ absolute / metric / decimal}
; #@! TF.CreationDate,2023-01-12T11:00:49-05:00
; #@! TF.GenerationSoftware,Kicad,Pcbnew,(6.0.7-1)-1
; #@! TF.FileFunction,Plated,1,4,PTH
FMAT,2
METRIC
; #@! TA.AperFunction,Plated,PTH,ViaDrill
T1C0.300
; #@! TA.AperFunction,Plated,PTH,ViaDrill
T2C0.400
; #@! TA.AperFunction,Plated,PTH,ComponentDrill
T3C0.650
; #@! TA.AperFunction,Plated,PTH,ComponentDrill
T4C0.914
%
G90
G05
T1
X95.52Y-85.99
X95.55Y-84.02
X97.71Y-91.37
X97.86Y-90.44
X98.25Y-86.86
X99.1Y-85.875
X99.24Y-82.89
X100.05Y-93.31
X100.15Y-76.61
X102.63Y-92.85
X102.67Y-76.27
X104.45Y-85.4
X105.2Y-92.69
X105.22Y-76.28
X105.43Y-82.81
X106.06Y-80.29
X107.21Y-78.11
X107.475Y-90.4
X107.81Y-92.61
X107.85Y-88.925
X108.049Y-75.859
X108.089Y-84.808
X108.108Y-86.43
X108.14Y-81.348
X108.69Y-80.83
X108.75Y-85.48
X108.8Y-81.85
X108.864Y-82.733
X109.26Y-83.992
X109.43Y-82.26
X109.53Y-86.04
X109.82Y-93.47
X109.972Y-77.856
X109.98Y-82.77
X110.53Y-82.21
X111.06Y-86.53
X111.1Y-85.39
X111.59Y-84.44
X111.64Y-89.16
X112.262Y-88.737
X112.65Y-80.98
X112.691Y-80.24
X112.85Y-92.13
X112.892Y-88.154
X112.99Y-76.51
X113.277Y-88.78
X113.58Y-80.36
X113.66Y-82.06
X114.44Y-80.19
X114.693Y-82.067
X114.781Y-87.871
X115.11Y-81.17
X115.11Y-85.45
X115.33Y-87.35
X115.33Y-92.05
X115.39Y-77.18
X115.45Y-81.92
X115.641Y-86.169
X115.947Y-86.843
X116.1Y-85.44
X116.136Y-83.364
X116.264Y-84.453
X116.839Y-84.978
X116.99Y-83.43
X117.05Y-81.92
X117.37Y-80.05
X117.831Y-78.9
X117.9Y-77.18
X117.9Y-92.05
X118.94Y-90.214
X119.98Y-83.45
X120.0Y-84.71
X120.13Y-79.28
X120.213Y-86.273
X120.41Y-92.05
X120.46Y-77.22
X120.76Y-87.575
X121.4Y-85.6
X121.84Y-79.33
X121.92Y-80.278
X122.48Y-87.3
X123.0Y-77.25
X123.066Y-92.05
X123.15Y-89.473
X124.21Y-82.67
X124.688Y-80.559
X125.13Y-79.8
X125.49Y-92.05
X125.59Y-83.42
X125.61Y-86.04
X125.76Y-89.52
X128.03Y-92.05
X128.08Y-76.62
X128.35Y-78.81
X128.96Y-87.64
X129.4Y-82.96
X130.55Y-92.05
X130.64Y-76.62
X130.9Y-89.74
X132.17Y-89.87
X133.09Y-76.62
X133.17Y-91.9
X133.91Y-89.91
X134.13Y-81.43
X134.15Y-82.81
X134.54Y-85.77
X135.7Y-91.9
X135.76Y-76.62
X136.08Y-79.07
X136.682Y-89.712
X137.25Y-85.126
X137.32Y-82.75
X137.56Y-79.21
X138.21Y-76.62
X138.28Y-91.9
X138.848Y-79.474
X140.68Y-77.69
X140.73Y-92.74
X141.782Y-83.512
X142.33Y-79.25
X143.31Y-76.42
X143.36Y-92.74
X144.3Y-83.9
X145.28Y-80.91
X145.85Y-76.36
X145.95Y-92.8
X146.12Y-84.15
X147.59Y-81.88
X147.59Y-84.39
X147.59Y-87.0
T2
X104.71Y-89.46
X107.28Y-89.5
X111.56Y-80.29
X114.0Y-89.075
T4
X98.887Y-77.057
X98.887Y-92.297
X101.427Y-77.057
X101.427Y-92.297
X102.882Y-81.502
X102.882Y-84.042
X102.882Y-86.582
X102.882Y-89.122
X103.967Y-77.057
X103.967Y-92.297
X106.507Y-77.057
X106.507Y-92.297
X109.047Y-77.057
X109.047Y-92.297
X111.587Y-77.057
X111.587Y-92.297
X114.103Y-92.307
X114.127Y-77.057
X116.667Y-77.057
X116.667Y-92.297
X119.207Y-77.057
X119.207Y-92.297
X121.747Y-77.057
X121.747Y-92.297
X124.287Y-77.057
X124.287Y-92.297
X126.827Y-77.057
X126.827Y-92.297
X127.09Y-81.12
X127.09Y-83.66
X127.09Y-86.77
X127.09Y-89.31
X129.367Y-77.057
X129.367Y-92.297
X131.907Y-77.057
X131.907Y-92.297
X134.447Y-77.057
X134.447Y-92.297
X136.987Y-77.057
X136.987Y-92.297
X139.527Y-77.057
X139.527Y-92.297
X142.067Y-77.057
X142.067Y-92.297
X144.607Y-77.057
X144.607Y-92.297
X146.982Y-80.602
X146.982Y-83.142
X146.982Y-85.682
X146.982Y-88.222
X147.147Y-77.057
X147.147Y-92.297
T3
X95.982Y-80.392G85X95.382Y-80.392
G05
X95.982Y-89.032G85X95.382Y-89.032
G05
X100.412Y-80.392G85X99.312Y-80.392
G05
X100.412Y-89.032G85X99.312Y-89.032
G05
T0
M30
