G04 #@! TF.GenerationSoftware,KiCad,Pcbnew,(6.0.7-1)-1*
G04 #@! TF.CreationDate,2023-01-15T16:37:17-05:00*
G04 #@! TF.ProjectId,F405_pill,46343035-5f70-4696-9c6c-2e6b69636164,rev?*
G04 #@! TF.SameCoordinates,Original*
G04 #@! TF.FileFunction,Soldermask,Bot*
G04 #@! TF.FilePolarity,Negative*
%FSLAX46Y46*%
G04 Gerber Fmt 4.6, Leading zero omitted, Abs format (unit mm)*
G04 Created by KiCad (PCBNEW (6.0.7-1)-1) date 2023-01-15 16:37:17*
%MOMM*%
%LPD*%
G01*
G04 APERTURE LIST*
%ADD10C,1.524000*%
%ADD11O,2.100000X1.050000*%
%ADD12C,0.700000*%
G04 APERTURE END LIST*
D10*
X146982000Y-80602000D03*
X146982000Y-83142000D03*
X146982000Y-85682000D03*
X146982000Y-88222000D03*
X127090000Y-81120000D03*
X127090000Y-83660000D03*
D11*
X95700000Y-89020000D03*
X95700000Y-80380000D03*
X99880000Y-89020000D03*
X99880000Y-80380000D03*
D12*
X99350000Y-87590000D03*
X99350000Y-81810000D03*
D10*
X127090000Y-89310000D03*
X127090000Y-86770000D03*
X147147000Y-92297000D03*
X144607000Y-92297000D03*
X142067000Y-92297000D03*
X139527000Y-92297000D03*
X136987000Y-92297000D03*
X134447000Y-92297000D03*
X131907000Y-92297000D03*
X129367000Y-92297000D03*
X126827000Y-92297000D03*
X124287000Y-92297000D03*
X121747000Y-92297000D03*
X119207000Y-92297000D03*
X116667000Y-92297000D03*
X114103395Y-92306993D03*
X111587000Y-92297000D03*
X109047000Y-92297000D03*
X106507000Y-92297000D03*
X103967000Y-92297000D03*
X101427000Y-92297000D03*
X98887000Y-92297000D03*
X98887000Y-77057000D03*
X101427000Y-77057000D03*
X103967000Y-77057000D03*
X106507000Y-77057000D03*
X109047000Y-77057000D03*
X111587000Y-77057000D03*
X114127000Y-77057000D03*
X116667000Y-77057000D03*
X119207000Y-77057000D03*
X121747000Y-77057000D03*
X124287000Y-77057000D03*
X126827000Y-77057000D03*
X129367000Y-77057000D03*
X131907000Y-77057000D03*
X134447000Y-77057000D03*
X136987000Y-77057000D03*
X139527000Y-77057000D03*
X142067000Y-77057000D03*
X144607000Y-77057000D03*
X147147000Y-77057000D03*
X102882000Y-80860000D03*
X102882000Y-83400000D03*
X102882000Y-85940000D03*
X102882000Y-88480000D03*
M02*
