M48
; DRILL file {KiCad (6.0.7-1)-1} date Monday, January 23, 2023 at 09:01:20 AM
; FORMAT={-:-/ absolute / metric / decimal}
; #@! TF.CreationDate,2023-01-23T09:01:20-05:00
; #@! TF.GenerationSoftware,Kicad,Pcbnew,(6.0.7-1)-1
; #@! TF.FileFunction,Plated,1,4,PTH
FMAT,2
METRIC
; #@! TA.AperFunction,Plated,PTH,ViaDrill
T1C0.300
; #@! TA.AperFunction,Plated,PTH,ViaDrill
T2C0.400
; #@! TA.AperFunction,Plated,PTH,ComponentDrill
T3C0.650
; #@! TA.AperFunction,Plated,PTH,ComponentDrill
T4C0.914
%
G90
G05
T1
X95.52Y-85.99
X95.55Y-84.02
X97.71Y-91.37
X97.86Y-90.44
X98.25Y-86.86
X99.2Y-86.1
X99.24Y-82.89
X100.02Y-91.37
X100.05Y-93.31
X100.15Y-76.61
X101.5Y-80.5
X102.121Y-93.228
X102.67Y-76.27
X103.9Y-87.6
X104.7Y-93.2
X104.8Y-85.3
X104.97Y-82.79
X105.22Y-76.28
X106.1Y-78.9
X107.376Y-80.37
X107.81Y-92.61
X107.85Y-88.925
X108.049Y-75.859
X108.089Y-84.808
X108.14Y-81.348
X108.15Y-82.408
X108.15Y-86.7
X108.25Y-83.45
X108.3Y-80.5
X108.75Y-85.48
X108.8Y-81.85
X108.8Y-84.6
X108.998Y-82.673
X109.0Y-81.1
X109.46Y-84.05
X109.5Y-81.75
X109.5Y-85.3
X109.53Y-86.04
X109.772Y-93.25
X109.972Y-77.856
X110.75Y-86.1
X110.85Y-84.45
X111.0Y-88.45
X111.05Y-86.85
X111.302Y-89.148
X111.55Y-84.9
X111.65Y-81.1
X111.75Y-87.85
X111.898Y-88.739
X112.526Y-88.352
X112.8Y-83.1
X112.85Y-92.13
X112.99Y-76.51
X113.05Y-88.872
X113.25Y-88.2
X113.35Y-84.35
X113.4Y-81.1
X113.45Y-82.65
X113.58Y-80.36
X113.721Y-89.191
X113.95Y-84.9
X114.2Y-82.7
X114.3Y-81.169
X114.44Y-80.19
X114.5Y-87.2
X114.781Y-87.871
X115.11Y-81.17
X115.11Y-85.45
X115.2Y-86.6
X115.33Y-87.35
X115.33Y-92.05
X115.39Y-77.18
X115.6Y-83.9
X115.947Y-86.843
X116.1Y-85.44
X116.136Y-83.364
X116.264Y-84.453
X116.487Y-82.442
X116.54Y-86.24
X116.839Y-84.978
X116.99Y-83.43
X117.05Y-81.92
X117.831Y-78.9
X117.9Y-77.18
X117.9Y-79.9
X117.9Y-92.05
X118.97Y-90.17
X119.98Y-83.45
X120.0Y-79.4
X120.35Y-86.05
X120.4Y-89.6
X120.41Y-92.05
X120.46Y-77.22
X120.9Y-79.2
X121.03Y-83.97
X121.4Y-85.6
X121.57Y-88.09
X121.7Y-82.4
X121.8Y-88.8
X121.84Y-79.33
X121.92Y-80.278
X122.48Y-87.3
X123.0Y-77.25
X123.066Y-92.05
X123.35Y-89.25
X124.21Y-82.67
X124.688Y-80.559
X125.13Y-79.8
X125.35Y-83.42
X125.4Y-80.5
X125.4Y-86.15
X125.49Y-92.05
X128.03Y-92.05
X128.08Y-76.62
X128.3Y-78.1
X128.35Y-78.81
X128.35Y-83.35
X128.96Y-87.64
X130.55Y-92.05
X130.64Y-76.62
X130.9Y-89.74
X132.17Y-89.91
X133.09Y-76.62
X133.17Y-91.9
X133.91Y-85.15
X133.91Y-89.91
X134.8Y-79.1
X134.8Y-83.1
X135.7Y-91.9
X135.76Y-76.62
X136.682Y-89.712
X137.25Y-85.126
X137.95Y-80.55
X138.21Y-76.62
X138.28Y-91.9
X139.8Y-79.35
X140.68Y-77.69
X140.73Y-92.74
X140.95Y-88.1
X142.8Y-82.4
X143.31Y-76.42
X143.36Y-92.74
X145.85Y-76.36
X145.95Y-92.8
X146.2Y-79.4
X146.3Y-84.2
X147.59Y-81.88
X147.59Y-84.39
X147.59Y-87.0
X148.0Y-90.65
T2
X104.71Y-89.1
X107.28Y-89.5
X111.56Y-80.29
T4
X98.887Y-77.057
X98.887Y-92.297
X101.427Y-77.057
X101.427Y-92.297
X102.882Y-80.86
X102.882Y-83.4
X102.882Y-85.94
X102.882Y-88.48
X103.967Y-77.057
X103.967Y-92.297
X106.507Y-77.057
X106.507Y-92.297
X109.047Y-77.057
X109.047Y-92.297
X111.587Y-77.057
X111.587Y-92.297
X114.103Y-92.307
X114.127Y-77.057
X116.667Y-77.057
X116.667Y-92.297
X119.207Y-77.057
X119.207Y-92.297
X121.747Y-77.057
X121.747Y-92.297
X124.287Y-77.057
X124.287Y-92.297
X126.827Y-77.057
X126.827Y-92.297
X127.09Y-81.12
X127.09Y-83.66
X127.09Y-86.77
X127.09Y-89.31
X129.367Y-77.057
X129.367Y-92.297
X131.907Y-77.057
X131.907Y-92.297
X134.447Y-77.057
X134.447Y-92.297
X136.987Y-77.057
X136.987Y-92.297
X139.527Y-77.057
X139.527Y-92.297
X142.067Y-77.057
X142.067Y-92.297
X144.607Y-77.057
X144.607Y-92.297
X146.982Y-80.602
X146.982Y-83.142
X146.982Y-85.682
X146.982Y-88.222
X147.147Y-77.057
X147.147Y-92.297
T3
X96.0Y-80.38G85X95.4Y-80.38
G05
X96.0Y-89.02G85X95.4Y-89.02
G05
X100.43Y-80.38G85X99.33Y-80.38
G05
X100.43Y-89.02G85X99.33Y-89.02
G05
T0
M30
