G04 #@! TF.GenerationSoftware,KiCad,Pcbnew,(6.0.7-1)-1*
G04 #@! TF.CreationDate,2023-01-12T17:06:20-05:00*
G04 #@! TF.ProjectId,F405_pill,46343035-5f70-4696-9c6c-2e6b69636164,rev?*
G04 #@! TF.SameCoordinates,Original*
G04 #@! TF.FileFunction,Legend,Top*
G04 #@! TF.FilePolarity,Positive*
%FSLAX46Y46*%
G04 Gerber Fmt 4.6, Leading zero omitted, Abs format (unit mm)*
G04 Created by KiCad (PCBNEW (6.0.7-1)-1) date 2023-01-12 17:06:20*
%MOMM*%
%LPD*%
G01*
G04 APERTURE LIST*
G04 Aperture macros list*
%AMRoundRect*
0 Rectangle with rounded corners*
0 $1 Rounding radius*
0 $2 $3 $4 $5 $6 $7 $8 $9 X,Y pos of 4 corners*
0 Add a 4 corners polygon primitive as box body*
4,1,4,$2,$3,$4,$5,$6,$7,$8,$9,$2,$3,0*
0 Add four circle primitives for the rounded corners*
1,1,$1+$1,$2,$3*
1,1,$1+$1,$4,$5*
1,1,$1+$1,$6,$7*
1,1,$1+$1,$8,$9*
0 Add four rect primitives between the rounded corners*
20,1,$1+$1,$2,$3,$4,$5,0*
20,1,$1+$1,$4,$5,$6,$7,0*
20,1,$1+$1,$6,$7,$8,$9,0*
20,1,$1+$1,$8,$9,$2,$3,0*%
%AMFreePoly0*
4,1,9,3.862500,-0.866500,0.737500,-0.866500,0.737500,-0.450000,-0.737500,-0.450000,-0.737500,0.450000,0.737500,0.450000,0.737500,0.866500,3.862500,0.866500,3.862500,-0.866500,3.862500,-0.866500,$1*%
G04 Aperture macros list end*
%ADD10C,0.200000*%
%ADD11C,0.100000*%
%ADD12C,0.060000*%
%ADD13C,0.150000*%
%ADD14C,0.080000*%
%ADD15C,0.090000*%
%ADD16C,0.070000*%
%ADD17C,0.120000*%
%ADD18C,0.127000*%
%ADD19RoundRect,0.135000X0.185000X-0.135000X0.185000X0.135000X-0.185000X0.135000X-0.185000X-0.135000X0*%
%ADD20RoundRect,0.225000X0.250000X-0.225000X0.250000X0.225000X-0.250000X0.225000X-0.250000X-0.225000X0*%
%ADD21RoundRect,0.225000X-0.250000X0.225000X-0.250000X-0.225000X0.250000X-0.225000X0.250000X0.225000X0*%
%ADD22RoundRect,0.140000X0.140000X0.170000X-0.140000X0.170000X-0.140000X-0.170000X0.140000X-0.170000X0*%
%ADD23RoundRect,0.135000X-0.135000X-0.185000X0.135000X-0.185000X0.135000X0.185000X-0.135000X0.185000X0*%
%ADD24RoundRect,0.160000X0.160000X-0.222500X0.160000X0.222500X-0.160000X0.222500X-0.160000X-0.222500X0*%
%ADD25R,2.000000X1.500000*%
%ADD26R,2.000000X3.800000*%
%ADD27RoundRect,0.140000X0.170000X-0.140000X0.170000X0.140000X-0.170000X0.140000X-0.170000X-0.140000X0*%
%ADD28C,1.524000*%
%ADD29R,1.200000X1.400000*%
%ADD30RoundRect,0.225000X-0.225000X-0.250000X0.225000X-0.250000X0.225000X0.250000X-0.225000X0.250000X0*%
%ADD31RoundRect,0.140000X-0.170000X0.140000X-0.170000X-0.140000X0.170000X-0.140000X0.170000X0.140000X0*%
%ADD32R,0.900000X1.300000*%
%ADD33FreePoly0,270.000000*%
%ADD34RoundRect,0.140000X-0.140000X-0.170000X0.140000X-0.170000X0.140000X0.170000X-0.140000X0.170000X0*%
%ADD35RoundRect,0.250000X-0.450000X-0.425000X0.450000X-0.425000X0.450000X0.425000X-0.450000X0.425000X0*%
%ADD36C,0.700000*%
%ADD37R,1.450000X0.600000*%
%ADD38R,1.450000X0.300000*%
%ADD39O,2.100000X1.050000*%
%ADD40RoundRect,0.135000X-0.185000X0.135000X-0.185000X-0.135000X0.185000X-0.135000X0.185000X0.135000X0*%
%ADD41RoundRect,0.160000X-0.222500X-0.160000X0.222500X-0.160000X0.222500X0.160000X-0.222500X0.160000X0*%
%ADD42RoundRect,0.075000X0.700000X0.075000X-0.700000X0.075000X-0.700000X-0.075000X0.700000X-0.075000X0*%
%ADD43RoundRect,0.075000X0.075000X0.700000X-0.075000X0.700000X-0.075000X-0.700000X0.075000X-0.700000X0*%
%ADD44RoundRect,0.225000X0.225000X0.250000X-0.225000X0.250000X-0.225000X-0.250000X0.225000X-0.250000X0*%
%ADD45RoundRect,0.147500X-0.172500X0.147500X-0.172500X-0.147500X0.172500X-0.147500X0.172500X0.147500X0*%
%ADD46RoundRect,0.250000X-0.425000X0.450000X-0.425000X-0.450000X0.425000X-0.450000X0.425000X0.450000X0*%
%ADD47RoundRect,0.125000X-0.537500X-0.125000X0.537500X-0.125000X0.537500X0.125000X-0.537500X0.125000X0*%
G04 APERTURE END LIST*
D10*
X137230832Y-78850000D02*
G75*
G03*
X137230832Y-78850000I-240832J0D01*
G01*
X141040832Y-90500000D02*
G75*
G03*
X141040832Y-90500000I-240832J0D01*
G01*
D11*
X120560000Y-89250000D02*
G75*
G03*
X120560000Y-89250000I-400000J0D01*
G01*
D12*
X128654238Y-93890952D02*
X128654238Y-93490952D01*
X128806619Y-93490952D01*
X128844714Y-93510000D01*
X128863761Y-93529047D01*
X128882809Y-93567142D01*
X128882809Y-93624285D01*
X128863761Y-93662380D01*
X128844714Y-93681428D01*
X128806619Y-93700476D01*
X128654238Y-93700476D01*
X129187571Y-93681428D02*
X129244714Y-93700476D01*
X129263761Y-93719523D01*
X129282809Y-93757619D01*
X129282809Y-93814761D01*
X129263761Y-93852857D01*
X129244714Y-93871904D01*
X129206619Y-93890952D01*
X129054238Y-93890952D01*
X129054238Y-93490952D01*
X129187571Y-93490952D01*
X129225666Y-93510000D01*
X129244714Y-93529047D01*
X129263761Y-93567142D01*
X129263761Y-93605238D01*
X129244714Y-93643333D01*
X129225666Y-93662380D01*
X129187571Y-93681428D01*
X129054238Y-93681428D01*
X129625666Y-93490952D02*
X129549476Y-93490952D01*
X129511380Y-93510000D01*
X129492333Y-93529047D01*
X129454238Y-93586190D01*
X129435190Y-93662380D01*
X129435190Y-93814761D01*
X129454238Y-93852857D01*
X129473285Y-93871904D01*
X129511380Y-93890952D01*
X129587571Y-93890952D01*
X129625666Y-93871904D01*
X129644714Y-93852857D01*
X129663761Y-93814761D01*
X129663761Y-93719523D01*
X129644714Y-93681428D01*
X129625666Y-93662380D01*
X129587571Y-93643333D01*
X129511380Y-93643333D01*
X129473285Y-93662380D01*
X129454238Y-93681428D01*
X129435190Y-93719523D01*
X118494238Y-93890952D02*
X118494238Y-93490952D01*
X118589476Y-93490952D01*
X118646619Y-93510000D01*
X118684714Y-93548095D01*
X118703761Y-93586190D01*
X118722809Y-93662380D01*
X118722809Y-93719523D01*
X118703761Y-93795714D01*
X118684714Y-93833809D01*
X118646619Y-93871904D01*
X118589476Y-93890952D01*
X118494238Y-93890952D01*
X118894238Y-93490952D02*
X118894238Y-93814761D01*
X118913285Y-93852857D01*
X118932333Y-93871904D01*
X118970428Y-93890952D01*
X119046619Y-93890952D01*
X119084714Y-93871904D01*
X119103761Y-93852857D01*
X119122809Y-93814761D01*
X119122809Y-93490952D01*
X119294238Y-93776666D02*
X119484714Y-93776666D01*
X119256142Y-93890952D02*
X119389476Y-93490952D01*
X119522809Y-93890952D01*
X119846619Y-93890952D02*
X119656142Y-93890952D01*
X119656142Y-93490952D01*
X119960904Y-93529047D02*
X119979952Y-93510000D01*
X120018047Y-93490952D01*
X120113285Y-93490952D01*
X120151380Y-93510000D01*
X120170428Y-93529047D01*
X120189476Y-93567142D01*
X120189476Y-93605238D01*
X120170428Y-93662380D01*
X119941857Y-93890952D01*
X120189476Y-93890952D01*
X113414238Y-93890952D02*
X113414238Y-93490952D01*
X113566619Y-93490952D01*
X113604714Y-93510000D01*
X113623761Y-93529047D01*
X113642809Y-93567142D01*
X113642809Y-93624285D01*
X113623761Y-93662380D01*
X113604714Y-93681428D01*
X113566619Y-93700476D01*
X113414238Y-93700476D01*
X113795190Y-93776666D02*
X113985666Y-93776666D01*
X113757095Y-93890952D02*
X113890428Y-93490952D01*
X114023761Y-93890952D01*
X114366619Y-93890952D02*
X114138047Y-93890952D01*
X114252333Y-93890952D02*
X114252333Y-93490952D01*
X114214238Y-93548095D01*
X114176142Y-93586190D01*
X114138047Y-93605238D01*
X114614238Y-93490952D02*
X114652333Y-93490952D01*
X114690428Y-93510000D01*
X114709476Y-93529047D01*
X114728523Y-93567142D01*
X114747571Y-93643333D01*
X114747571Y-93738571D01*
X114728523Y-93814761D01*
X114709476Y-93852857D01*
X114690428Y-93871904D01*
X114652333Y-93890952D01*
X114614238Y-93890952D01*
X114576142Y-93871904D01*
X114557095Y-93852857D01*
X114538047Y-93814761D01*
X114519000Y-93738571D01*
X114519000Y-93643333D01*
X114538047Y-93567142D01*
X114557095Y-93529047D01*
X114576142Y-93510000D01*
X114614238Y-93490952D01*
X146396142Y-93490952D02*
X146643761Y-93490952D01*
X146510428Y-93643333D01*
X146567571Y-93643333D01*
X146605666Y-93662380D01*
X146624714Y-93681428D01*
X146643761Y-93719523D01*
X146643761Y-93814761D01*
X146624714Y-93852857D01*
X146605666Y-93871904D01*
X146567571Y-93890952D01*
X146453285Y-93890952D01*
X146415190Y-93871904D01*
X146396142Y-93852857D01*
X146815190Y-93852857D02*
X146834238Y-93871904D01*
X146815190Y-93890952D01*
X146796142Y-93871904D01*
X146815190Y-93852857D01*
X146815190Y-93890952D01*
X146967571Y-93490952D02*
X147215190Y-93490952D01*
X147081857Y-93643333D01*
X147139000Y-93643333D01*
X147177095Y-93662380D01*
X147196142Y-93681428D01*
X147215190Y-93719523D01*
X147215190Y-93814761D01*
X147196142Y-93852857D01*
X147177095Y-93871904D01*
X147139000Y-93890952D01*
X147024714Y-93890952D01*
X146986619Y-93871904D01*
X146967571Y-93852857D01*
X147348523Y-93624285D02*
X147443761Y-93890952D01*
X147539000Y-93624285D01*
X103254238Y-93890952D02*
X103254238Y-93490952D01*
X103406619Y-93490952D01*
X103444714Y-93510000D01*
X103463761Y-93529047D01*
X103482809Y-93567142D01*
X103482809Y-93624285D01*
X103463761Y-93662380D01*
X103444714Y-93681428D01*
X103406619Y-93700476D01*
X103254238Y-93700476D01*
X103787571Y-93681428D02*
X103844714Y-93700476D01*
X103863761Y-93719523D01*
X103882809Y-93757619D01*
X103882809Y-93814761D01*
X103863761Y-93852857D01*
X103844714Y-93871904D01*
X103806619Y-93890952D01*
X103654238Y-93890952D01*
X103654238Y-93490952D01*
X103787571Y-93490952D01*
X103825666Y-93510000D01*
X103844714Y-93529047D01*
X103863761Y-93567142D01*
X103863761Y-93605238D01*
X103844714Y-93643333D01*
X103825666Y-93662380D01*
X103787571Y-93681428D01*
X103654238Y-93681428D01*
X104263761Y-93890952D02*
X104035190Y-93890952D01*
X104149476Y-93890952D02*
X104149476Y-93490952D01*
X104111380Y-93548095D01*
X104073285Y-93586190D01*
X104035190Y-93605238D01*
X104606619Y-93624285D02*
X104606619Y-93890952D01*
X104511380Y-93471904D02*
X104416142Y-93757619D01*
X104663761Y-93757619D01*
D13*
X129093333Y-79360000D02*
X129626666Y-79360000D01*
X129360000Y-79626666D02*
X129360000Y-79093333D01*
D12*
X113609333Y-75840952D02*
X113609333Y-75440952D01*
X113761714Y-75440952D01*
X113799809Y-75460000D01*
X113818857Y-75479047D01*
X113837904Y-75517142D01*
X113837904Y-75574285D01*
X113818857Y-75612380D01*
X113799809Y-75631428D01*
X113761714Y-75650476D01*
X113609333Y-75650476D01*
X113990285Y-75726666D02*
X114180761Y-75726666D01*
X113952190Y-75840952D02*
X114085523Y-75440952D01*
X114218857Y-75840952D01*
X114333142Y-75479047D02*
X114352190Y-75460000D01*
X114390285Y-75440952D01*
X114485523Y-75440952D01*
X114523619Y-75460000D01*
X114542666Y-75479047D01*
X114561714Y-75517142D01*
X114561714Y-75555238D01*
X114542666Y-75612380D01*
X114314095Y-75840952D01*
X114561714Y-75840952D01*
D13*
X130083333Y-85080000D02*
X130616666Y-85080000D01*
X130350000Y-85346666D02*
X130350000Y-84813333D01*
D12*
X136532857Y-75840952D02*
X136532857Y-75440952D01*
X136761428Y-75840952D01*
X136761428Y-75440952D01*
X137180476Y-75840952D02*
X137047142Y-75650476D01*
X136951904Y-75840952D02*
X136951904Y-75440952D01*
X137104285Y-75440952D01*
X137142380Y-75460000D01*
X137161428Y-75479047D01*
X137180476Y-75517142D01*
X137180476Y-75574285D01*
X137161428Y-75612380D01*
X137142380Y-75631428D01*
X137104285Y-75650476D01*
X136951904Y-75650476D01*
X137332857Y-75821904D02*
X137390000Y-75840952D01*
X137485238Y-75840952D01*
X137523333Y-75821904D01*
X137542380Y-75802857D01*
X137561428Y-75764761D01*
X137561428Y-75726666D01*
X137542380Y-75688571D01*
X137523333Y-75669523D01*
X137485238Y-75650476D01*
X137409047Y-75631428D01*
X137370952Y-75612380D01*
X137351904Y-75593333D01*
X137332857Y-75555238D01*
X137332857Y-75517142D01*
X137351904Y-75479047D01*
X137370952Y-75460000D01*
X137409047Y-75440952D01*
X137504285Y-75440952D01*
X137561428Y-75460000D01*
X137675714Y-75440952D02*
X137904285Y-75440952D01*
X137790000Y-75840952D02*
X137790000Y-75440952D01*
X103389047Y-75688571D02*
X103693809Y-75688571D01*
X103541428Y-75840952D02*
X103541428Y-75536190D01*
X103846190Y-75440952D02*
X104093809Y-75440952D01*
X103960476Y-75593333D01*
X104017619Y-75593333D01*
X104055714Y-75612380D01*
X104074761Y-75631428D01*
X104093809Y-75669523D01*
X104093809Y-75764761D01*
X104074761Y-75802857D01*
X104055714Y-75821904D01*
X104017619Y-75840952D01*
X103903333Y-75840952D01*
X103865238Y-75821904D01*
X103846190Y-75802857D01*
X104265238Y-75802857D02*
X104284285Y-75821904D01*
X104265238Y-75840952D01*
X104246190Y-75821904D01*
X104265238Y-75802857D01*
X104265238Y-75840952D01*
X104417619Y-75440952D02*
X104665238Y-75440952D01*
X104531904Y-75593333D01*
X104589047Y-75593333D01*
X104627142Y-75612380D01*
X104646190Y-75631428D01*
X104665238Y-75669523D01*
X104665238Y-75764761D01*
X104646190Y-75802857D01*
X104627142Y-75821904D01*
X104589047Y-75840952D01*
X104474761Y-75840952D01*
X104436666Y-75821904D01*
X104417619Y-75802857D01*
X104798571Y-75574285D02*
X104893809Y-75840952D01*
X104989047Y-75574285D01*
X98174238Y-93890952D02*
X98174238Y-93490952D01*
X98326619Y-93490952D01*
X98364714Y-93510000D01*
X98383761Y-93529047D01*
X98402809Y-93567142D01*
X98402809Y-93624285D01*
X98383761Y-93662380D01*
X98364714Y-93681428D01*
X98326619Y-93700476D01*
X98174238Y-93700476D01*
X98707571Y-93681428D02*
X98764714Y-93700476D01*
X98783761Y-93719523D01*
X98802809Y-93757619D01*
X98802809Y-93814761D01*
X98783761Y-93852857D01*
X98764714Y-93871904D01*
X98726619Y-93890952D01*
X98574238Y-93890952D01*
X98574238Y-93490952D01*
X98707571Y-93490952D01*
X98745666Y-93510000D01*
X98764714Y-93529047D01*
X98783761Y-93567142D01*
X98783761Y-93605238D01*
X98764714Y-93643333D01*
X98745666Y-93662380D01*
X98707571Y-93681428D01*
X98574238Y-93681428D01*
X99183761Y-93890952D02*
X98955190Y-93890952D01*
X99069476Y-93890952D02*
X99069476Y-93490952D01*
X99031380Y-93548095D01*
X98993285Y-93586190D01*
X98955190Y-93605238D01*
X99336142Y-93529047D02*
X99355190Y-93510000D01*
X99393285Y-93490952D01*
X99488523Y-93490952D01*
X99526619Y-93510000D01*
X99545666Y-93529047D01*
X99564714Y-93567142D01*
X99564714Y-93605238D01*
X99545666Y-93662380D01*
X99317095Y-93890952D01*
X99564714Y-93890952D01*
D13*
X135863333Y-82470000D02*
X136396666Y-82470000D01*
X136130000Y-82736666D02*
X136130000Y-82203333D01*
D14*
X145530857Y-80063428D02*
X145245142Y-80063428D01*
X145216571Y-80349142D01*
X145245142Y-80320571D01*
X145302285Y-80292000D01*
X145445142Y-80292000D01*
X145502285Y-80320571D01*
X145530857Y-80349142D01*
X145559428Y-80406285D01*
X145559428Y-80549142D01*
X145530857Y-80606285D01*
X145502285Y-80634857D01*
X145445142Y-80663428D01*
X145302285Y-80663428D01*
X145245142Y-80634857D01*
X145216571Y-80606285D01*
D13*
X145915142Y-90781142D02*
X145867523Y-90828761D01*
X145724666Y-90876380D01*
X145629428Y-90876380D01*
X145486571Y-90828761D01*
X145391333Y-90733523D01*
X145343714Y-90638285D01*
X145296095Y-90447809D01*
X145296095Y-90304952D01*
X145343714Y-90114476D01*
X145391333Y-90019238D01*
X145486571Y-89924000D01*
X145629428Y-89876380D01*
X145724666Y-89876380D01*
X145867523Y-89924000D01*
X145915142Y-89971619D01*
X146296095Y-90590666D02*
X146772285Y-90590666D01*
X146200857Y-90876380D02*
X146534190Y-89876380D01*
X146867523Y-90876380D01*
X147200857Y-90876380D02*
X147200857Y-89876380D01*
X147772285Y-90876380D01*
X147772285Y-89876380D01*
D15*
X129146190Y-84931428D02*
X128646190Y-84931428D01*
X129146190Y-84645714D01*
X128646190Y-84645714D01*
X129146190Y-84121904D02*
X128908095Y-84288571D01*
X129146190Y-84407619D02*
X128646190Y-84407619D01*
X128646190Y-84217142D01*
X128670000Y-84169523D01*
X128693809Y-84145714D01*
X128741428Y-84121904D01*
X128812857Y-84121904D01*
X128860476Y-84145714D01*
X128884285Y-84169523D01*
X128908095Y-84217142D01*
X128908095Y-84407619D01*
X129122380Y-83931428D02*
X129146190Y-83860000D01*
X129146190Y-83740952D01*
X129122380Y-83693333D01*
X129098571Y-83669523D01*
X129050952Y-83645714D01*
X129003333Y-83645714D01*
X128955714Y-83669523D01*
X128931904Y-83693333D01*
X128908095Y-83740952D01*
X128884285Y-83836190D01*
X128860476Y-83883809D01*
X128836666Y-83907619D01*
X128789047Y-83931428D01*
X128741428Y-83931428D01*
X128693809Y-83907619D01*
X128670000Y-83883809D01*
X128646190Y-83836190D01*
X128646190Y-83717142D01*
X128670000Y-83645714D01*
X128646190Y-83502857D02*
X128646190Y-83217142D01*
X129146190Y-83360000D02*
X128646190Y-83360000D01*
X128924285Y-90146666D02*
X128948095Y-90075238D01*
X128971904Y-90051428D01*
X129019523Y-90027619D01*
X129090952Y-90027619D01*
X129138571Y-90051428D01*
X129162380Y-90075238D01*
X129186190Y-90122857D01*
X129186190Y-90313333D01*
X128686190Y-90313333D01*
X128686190Y-90146666D01*
X128710000Y-90099047D01*
X128733809Y-90075238D01*
X128781428Y-90051428D01*
X128829047Y-90051428D01*
X128876666Y-90075238D01*
X128900476Y-90099047D01*
X128924285Y-90146666D01*
X128924285Y-90313333D01*
X128686190Y-89718095D02*
X128686190Y-89622857D01*
X128710000Y-89575238D01*
X128757619Y-89527619D01*
X128852857Y-89503809D01*
X129019523Y-89503809D01*
X129114761Y-89527619D01*
X129162380Y-89575238D01*
X129186190Y-89622857D01*
X129186190Y-89718095D01*
X129162380Y-89765714D01*
X129114761Y-89813333D01*
X129019523Y-89837142D01*
X128852857Y-89837142D01*
X128757619Y-89813333D01*
X128710000Y-89765714D01*
X128686190Y-89718095D01*
X128686190Y-89194285D02*
X128686190Y-89099047D01*
X128710000Y-89051428D01*
X128757619Y-89003809D01*
X128852857Y-88980000D01*
X129019523Y-88980000D01*
X129114761Y-89003809D01*
X129162380Y-89051428D01*
X129186190Y-89099047D01*
X129186190Y-89194285D01*
X129162380Y-89241904D01*
X129114761Y-89289523D01*
X129019523Y-89313333D01*
X128852857Y-89313333D01*
X128757619Y-89289523D01*
X128710000Y-89241904D01*
X128686190Y-89194285D01*
X128686190Y-88837142D02*
X128686190Y-88551428D01*
X129186190Y-88694285D02*
X128686190Y-88694285D01*
X128686190Y-88289523D02*
X128686190Y-88241904D01*
X128710000Y-88194285D01*
X128733809Y-88170476D01*
X128781428Y-88146666D01*
X128876666Y-88122857D01*
X128995714Y-88122857D01*
X129090952Y-88146666D01*
X129138571Y-88170476D01*
X129162380Y-88194285D01*
X129186190Y-88241904D01*
X129186190Y-88289523D01*
X129162380Y-88337142D01*
X129138571Y-88360952D01*
X129090952Y-88384761D01*
X128995714Y-88408571D01*
X128876666Y-88408571D01*
X128781428Y-88384761D01*
X128733809Y-88360952D01*
X128710000Y-88337142D01*
X128686190Y-88289523D01*
D12*
X121034238Y-93890952D02*
X121034238Y-93490952D01*
X121186619Y-93490952D01*
X121224714Y-93510000D01*
X121243761Y-93529047D01*
X121262809Y-93567142D01*
X121262809Y-93624285D01*
X121243761Y-93662380D01*
X121224714Y-93681428D01*
X121186619Y-93700476D01*
X121034238Y-93700476D01*
X121567571Y-93681428D02*
X121624714Y-93700476D01*
X121643761Y-93719523D01*
X121662809Y-93757619D01*
X121662809Y-93814761D01*
X121643761Y-93852857D01*
X121624714Y-93871904D01*
X121586619Y-93890952D01*
X121434238Y-93890952D01*
X121434238Y-93490952D01*
X121567571Y-93490952D01*
X121605666Y-93510000D01*
X121624714Y-93529047D01*
X121643761Y-93567142D01*
X121643761Y-93605238D01*
X121624714Y-93643333D01*
X121605666Y-93662380D01*
X121567571Y-93681428D01*
X121434238Y-93681428D01*
X121796142Y-93490952D02*
X122043761Y-93490952D01*
X121910428Y-93643333D01*
X121967571Y-93643333D01*
X122005666Y-93662380D01*
X122024714Y-93681428D01*
X122043761Y-93719523D01*
X122043761Y-93814761D01*
X122024714Y-93852857D01*
X122005666Y-93871904D01*
X121967571Y-93890952D01*
X121853285Y-93890952D01*
X121815190Y-93871904D01*
X121796142Y-93852857D01*
X101071238Y-75460000D02*
X101033142Y-75440952D01*
X100976000Y-75440952D01*
X100918857Y-75460000D01*
X100880761Y-75498095D01*
X100861714Y-75536190D01*
X100842666Y-75612380D01*
X100842666Y-75669523D01*
X100861714Y-75745714D01*
X100880761Y-75783809D01*
X100918857Y-75821904D01*
X100976000Y-75840952D01*
X101014095Y-75840952D01*
X101071238Y-75821904D01*
X101090285Y-75802857D01*
X101090285Y-75669523D01*
X101014095Y-75669523D01*
X101261714Y-75840952D02*
X101261714Y-75440952D01*
X101490285Y-75840952D01*
X101490285Y-75440952D01*
X101680761Y-75840952D02*
X101680761Y-75440952D01*
X101776000Y-75440952D01*
X101833142Y-75460000D01*
X101871238Y-75498095D01*
X101890285Y-75536190D01*
X101909333Y-75612380D01*
X101909333Y-75669523D01*
X101890285Y-75745714D01*
X101871238Y-75783809D01*
X101833142Y-75821904D01*
X101776000Y-75840952D01*
X101680761Y-75840952D01*
D14*
X145216571Y-83463428D02*
X145216571Y-82863428D01*
X145216571Y-83149142D02*
X145559428Y-83149142D01*
X145559428Y-83463428D02*
X145559428Y-82863428D01*
D12*
X128820761Y-75840952D02*
X128820761Y-75440952D01*
X128973142Y-75440952D01*
X129011238Y-75460000D01*
X129030285Y-75479047D01*
X129049333Y-75517142D01*
X129049333Y-75574285D01*
X129030285Y-75612380D01*
X129011238Y-75631428D01*
X128973142Y-75650476D01*
X128820761Y-75650476D01*
X129449333Y-75802857D02*
X129430285Y-75821904D01*
X129373142Y-75840952D01*
X129335047Y-75840952D01*
X129277904Y-75821904D01*
X129239809Y-75783809D01*
X129220761Y-75745714D01*
X129201714Y-75669523D01*
X129201714Y-75612380D01*
X129220761Y-75536190D01*
X129239809Y-75498095D01*
X129277904Y-75460000D01*
X129335047Y-75440952D01*
X129373142Y-75440952D01*
X129430285Y-75460000D01*
X129449333Y-75479047D01*
X129696952Y-75440952D02*
X129735047Y-75440952D01*
X129773142Y-75460000D01*
X129792190Y-75479047D01*
X129811238Y-75517142D01*
X129830285Y-75593333D01*
X129830285Y-75688571D01*
X129811238Y-75764761D01*
X129792190Y-75802857D01*
X129773142Y-75821904D01*
X129735047Y-75840952D01*
X129696952Y-75840952D01*
X129658857Y-75821904D01*
X129639809Y-75802857D01*
X129620761Y-75764761D01*
X129601714Y-75688571D01*
X129601714Y-75593333D01*
X129620761Y-75517142D01*
X129639809Y-75479047D01*
X129658857Y-75460000D01*
X129696952Y-75440952D01*
X141766714Y-93490952D02*
X141576238Y-93490952D01*
X141557190Y-93681428D01*
X141576238Y-93662380D01*
X141614333Y-93643333D01*
X141709571Y-93643333D01*
X141747666Y-93662380D01*
X141766714Y-93681428D01*
X141785761Y-93719523D01*
X141785761Y-93814761D01*
X141766714Y-93852857D01*
X141747666Y-93871904D01*
X141709571Y-93890952D01*
X141614333Y-93890952D01*
X141576238Y-93871904D01*
X141557190Y-93852857D01*
X141919095Y-93624285D02*
X142014333Y-93890952D01*
X142109571Y-93624285D01*
X136274238Y-93890952D02*
X136274238Y-93490952D01*
X136426619Y-93490952D01*
X136464714Y-93510000D01*
X136483761Y-93529047D01*
X136502809Y-93567142D01*
X136502809Y-93624285D01*
X136483761Y-93662380D01*
X136464714Y-93681428D01*
X136426619Y-93700476D01*
X136274238Y-93700476D01*
X136902809Y-93852857D02*
X136883761Y-93871904D01*
X136826619Y-93890952D01*
X136788523Y-93890952D01*
X136731380Y-93871904D01*
X136693285Y-93833809D01*
X136674238Y-93795714D01*
X136655190Y-93719523D01*
X136655190Y-93662380D01*
X136674238Y-93586190D01*
X136693285Y-93548095D01*
X136731380Y-93510000D01*
X136788523Y-93490952D01*
X136826619Y-93490952D01*
X136883761Y-93510000D01*
X136902809Y-93529047D01*
X137283761Y-93890952D02*
X137055190Y-93890952D01*
X137169476Y-93890952D02*
X137169476Y-93490952D01*
X137131380Y-93548095D01*
X137093285Y-93586190D01*
X137055190Y-93605238D01*
X137664714Y-93890952D02*
X137436142Y-93890952D01*
X137550428Y-93890952D02*
X137550428Y-93490952D01*
X137512333Y-93548095D01*
X137474238Y-93586190D01*
X137436142Y-93605238D01*
X138814238Y-93890952D02*
X138814238Y-93490952D01*
X138966619Y-93490952D01*
X139004714Y-93510000D01*
X139023761Y-93529047D01*
X139042809Y-93567142D01*
X139042809Y-93624285D01*
X139023761Y-93662380D01*
X139004714Y-93681428D01*
X138966619Y-93700476D01*
X138814238Y-93700476D01*
X139442809Y-93852857D02*
X139423761Y-93871904D01*
X139366619Y-93890952D01*
X139328523Y-93890952D01*
X139271380Y-93871904D01*
X139233285Y-93833809D01*
X139214238Y-93795714D01*
X139195190Y-93719523D01*
X139195190Y-93662380D01*
X139214238Y-93586190D01*
X139233285Y-93548095D01*
X139271380Y-93510000D01*
X139328523Y-93490952D01*
X139366619Y-93490952D01*
X139423761Y-93510000D01*
X139442809Y-93529047D01*
X139823761Y-93890952D02*
X139595190Y-93890952D01*
X139709476Y-93890952D02*
X139709476Y-93490952D01*
X139671380Y-93548095D01*
X139633285Y-93586190D01*
X139595190Y-93605238D01*
X140071380Y-93490952D02*
X140109476Y-93490952D01*
X140147571Y-93510000D01*
X140166619Y-93529047D01*
X140185666Y-93567142D01*
X140204714Y-93643333D01*
X140204714Y-93738571D01*
X140185666Y-93814761D01*
X140166619Y-93852857D01*
X140147571Y-93871904D01*
X140109476Y-93890952D01*
X140071380Y-93890952D01*
X140033285Y-93871904D01*
X140014238Y-93852857D01*
X139995190Y-93814761D01*
X139976142Y-93738571D01*
X139976142Y-93643333D01*
X139995190Y-93567142D01*
X140014238Y-93529047D01*
X140033285Y-93510000D01*
X140071380Y-93490952D01*
X123574238Y-93890952D02*
X123574238Y-93490952D01*
X123726619Y-93490952D01*
X123764714Y-93510000D01*
X123783761Y-93529047D01*
X123802809Y-93567142D01*
X123802809Y-93624285D01*
X123783761Y-93662380D01*
X123764714Y-93681428D01*
X123726619Y-93700476D01*
X123574238Y-93700476D01*
X124107571Y-93681428D02*
X124164714Y-93700476D01*
X124183761Y-93719523D01*
X124202809Y-93757619D01*
X124202809Y-93814761D01*
X124183761Y-93852857D01*
X124164714Y-93871904D01*
X124126619Y-93890952D01*
X123974238Y-93890952D01*
X123974238Y-93490952D01*
X124107571Y-93490952D01*
X124145666Y-93510000D01*
X124164714Y-93529047D01*
X124183761Y-93567142D01*
X124183761Y-93605238D01*
X124164714Y-93643333D01*
X124145666Y-93662380D01*
X124107571Y-93681428D01*
X123974238Y-93681428D01*
X124545666Y-93624285D02*
X124545666Y-93890952D01*
X124450428Y-93471904D02*
X124355190Y-93757619D01*
X124602809Y-93757619D01*
X100714238Y-93890952D02*
X100714238Y-93490952D01*
X100866619Y-93490952D01*
X100904714Y-93510000D01*
X100923761Y-93529047D01*
X100942809Y-93567142D01*
X100942809Y-93624285D01*
X100923761Y-93662380D01*
X100904714Y-93681428D01*
X100866619Y-93700476D01*
X100714238Y-93700476D01*
X101247571Y-93681428D02*
X101304714Y-93700476D01*
X101323761Y-93719523D01*
X101342809Y-93757619D01*
X101342809Y-93814761D01*
X101323761Y-93852857D01*
X101304714Y-93871904D01*
X101266619Y-93890952D01*
X101114238Y-93890952D01*
X101114238Y-93490952D01*
X101247571Y-93490952D01*
X101285666Y-93510000D01*
X101304714Y-93529047D01*
X101323761Y-93567142D01*
X101323761Y-93605238D01*
X101304714Y-93643333D01*
X101285666Y-93662380D01*
X101247571Y-93681428D01*
X101114238Y-93681428D01*
X101723761Y-93890952D02*
X101495190Y-93890952D01*
X101609476Y-93890952D02*
X101609476Y-93490952D01*
X101571380Y-93548095D01*
X101533285Y-93586190D01*
X101495190Y-93605238D01*
X101857095Y-93490952D02*
X102104714Y-93490952D01*
X101971380Y-93643333D01*
X102028523Y-93643333D01*
X102066619Y-93662380D01*
X102085666Y-93681428D01*
X102104714Y-93719523D01*
X102104714Y-93814761D01*
X102085666Y-93852857D01*
X102066619Y-93871904D01*
X102028523Y-93890952D01*
X101914238Y-93890952D01*
X101876142Y-93871904D01*
X101857095Y-93852857D01*
X141520761Y-75840952D02*
X141520761Y-75440952D01*
X141673142Y-75440952D01*
X141711238Y-75460000D01*
X141730285Y-75479047D01*
X141749333Y-75517142D01*
X141749333Y-75574285D01*
X141730285Y-75612380D01*
X141711238Y-75631428D01*
X141673142Y-75650476D01*
X141520761Y-75650476D01*
X142149333Y-75802857D02*
X142130285Y-75821904D01*
X142073142Y-75840952D01*
X142035047Y-75840952D01*
X141977904Y-75821904D01*
X141939809Y-75783809D01*
X141920761Y-75745714D01*
X141901714Y-75669523D01*
X141901714Y-75612380D01*
X141920761Y-75536190D01*
X141939809Y-75498095D01*
X141977904Y-75460000D01*
X142035047Y-75440952D01*
X142073142Y-75440952D01*
X142130285Y-75460000D01*
X142149333Y-75479047D01*
X142282666Y-75440952D02*
X142549333Y-75440952D01*
X142377904Y-75840952D01*
X121229333Y-75840952D02*
X121229333Y-75440952D01*
X121381714Y-75440952D01*
X121419809Y-75460000D01*
X121438857Y-75479047D01*
X121457904Y-75517142D01*
X121457904Y-75574285D01*
X121438857Y-75612380D01*
X121419809Y-75631428D01*
X121381714Y-75650476D01*
X121229333Y-75650476D01*
X121610285Y-75726666D02*
X121800761Y-75726666D01*
X121572190Y-75840952D02*
X121705523Y-75440952D01*
X121838857Y-75840952D01*
X122048380Y-75440952D02*
X122086476Y-75440952D01*
X122124571Y-75460000D01*
X122143619Y-75479047D01*
X122162666Y-75517142D01*
X122181714Y-75593333D01*
X122181714Y-75688571D01*
X122162666Y-75764761D01*
X122143619Y-75802857D01*
X122124571Y-75821904D01*
X122086476Y-75840952D01*
X122048380Y-75840952D01*
X122010285Y-75821904D01*
X121991238Y-75802857D01*
X121972190Y-75764761D01*
X121953142Y-75688571D01*
X121953142Y-75593333D01*
X121972190Y-75517142D01*
X121991238Y-75479047D01*
X122010285Y-75460000D01*
X122048380Y-75440952D01*
D13*
X103973333Y-78200000D02*
X104506666Y-78200000D01*
X104240000Y-78466666D02*
X104240000Y-77933333D01*
D14*
X145445142Y-88092000D02*
X145388000Y-88063428D01*
X145302285Y-88063428D01*
X145216571Y-88092000D01*
X145159428Y-88149142D01*
X145130857Y-88206285D01*
X145102285Y-88320571D01*
X145102285Y-88406285D01*
X145130857Y-88520571D01*
X145159428Y-88577714D01*
X145216571Y-88634857D01*
X145302285Y-88663428D01*
X145359428Y-88663428D01*
X145445142Y-88634857D01*
X145473714Y-88606285D01*
X145473714Y-88406285D01*
X145359428Y-88406285D01*
D12*
X131194238Y-93890952D02*
X131194238Y-93490952D01*
X131346619Y-93490952D01*
X131384714Y-93510000D01*
X131403761Y-93529047D01*
X131422809Y-93567142D01*
X131422809Y-93624285D01*
X131403761Y-93662380D01*
X131384714Y-93681428D01*
X131346619Y-93700476D01*
X131194238Y-93700476D01*
X131727571Y-93681428D02*
X131784714Y-93700476D01*
X131803761Y-93719523D01*
X131822809Y-93757619D01*
X131822809Y-93814761D01*
X131803761Y-93852857D01*
X131784714Y-93871904D01*
X131746619Y-93890952D01*
X131594238Y-93890952D01*
X131594238Y-93490952D01*
X131727571Y-93490952D01*
X131765666Y-93510000D01*
X131784714Y-93529047D01*
X131803761Y-93567142D01*
X131803761Y-93605238D01*
X131784714Y-93643333D01*
X131765666Y-93662380D01*
X131727571Y-93681428D01*
X131594238Y-93681428D01*
X131956142Y-93490952D02*
X132222809Y-93490952D01*
X132051380Y-93890952D01*
X133734238Y-93890952D02*
X133734238Y-93490952D01*
X133886619Y-93490952D01*
X133924714Y-93510000D01*
X133943761Y-93529047D01*
X133962809Y-93567142D01*
X133962809Y-93624285D01*
X133943761Y-93662380D01*
X133924714Y-93681428D01*
X133886619Y-93700476D01*
X133734238Y-93700476D01*
X134362809Y-93852857D02*
X134343761Y-93871904D01*
X134286619Y-93890952D01*
X134248523Y-93890952D01*
X134191380Y-93871904D01*
X134153285Y-93833809D01*
X134134238Y-93795714D01*
X134115190Y-93719523D01*
X134115190Y-93662380D01*
X134134238Y-93586190D01*
X134153285Y-93548095D01*
X134191380Y-93510000D01*
X134248523Y-93490952D01*
X134286619Y-93490952D01*
X134343761Y-93510000D01*
X134362809Y-93529047D01*
X134743761Y-93890952D02*
X134515190Y-93890952D01*
X134629476Y-93890952D02*
X134629476Y-93490952D01*
X134591380Y-93548095D01*
X134553285Y-93586190D01*
X134515190Y-93605238D01*
X134896142Y-93529047D02*
X134915190Y-93510000D01*
X134953285Y-93490952D01*
X135048523Y-93490952D01*
X135086619Y-93510000D01*
X135105666Y-93529047D01*
X135124714Y-93567142D01*
X135124714Y-93605238D01*
X135105666Y-93662380D01*
X134877095Y-93890952D01*
X135124714Y-93890952D01*
D13*
X143503333Y-87440000D02*
X144036666Y-87440000D01*
X143770000Y-87706666D02*
X143770000Y-87173333D01*
D12*
X111040761Y-75840952D02*
X111040761Y-75440952D01*
X111193142Y-75440952D01*
X111231238Y-75460000D01*
X111250285Y-75479047D01*
X111269333Y-75517142D01*
X111269333Y-75574285D01*
X111250285Y-75612380D01*
X111231238Y-75631428D01*
X111193142Y-75650476D01*
X111040761Y-75650476D01*
X111574095Y-75631428D02*
X111631238Y-75650476D01*
X111650285Y-75669523D01*
X111669333Y-75707619D01*
X111669333Y-75764761D01*
X111650285Y-75802857D01*
X111631238Y-75821904D01*
X111593142Y-75840952D01*
X111440761Y-75840952D01*
X111440761Y-75440952D01*
X111574095Y-75440952D01*
X111612190Y-75460000D01*
X111631238Y-75479047D01*
X111650285Y-75517142D01*
X111650285Y-75555238D01*
X111631238Y-75593333D01*
X111612190Y-75612380D01*
X111574095Y-75631428D01*
X111440761Y-75631428D01*
X112050285Y-75840952D02*
X111821714Y-75840952D01*
X111936000Y-75840952D02*
X111936000Y-75440952D01*
X111897904Y-75498095D01*
X111859809Y-75536190D01*
X111821714Y-75555238D01*
X108363333Y-75848952D02*
X108363333Y-75448952D01*
X108515714Y-75448952D01*
X108553809Y-75468000D01*
X108572857Y-75487047D01*
X108591904Y-75525142D01*
X108591904Y-75582285D01*
X108572857Y-75620380D01*
X108553809Y-75639428D01*
X108515714Y-75658476D01*
X108363333Y-75658476D01*
X108744285Y-75734666D02*
X108934761Y-75734666D01*
X108706190Y-75848952D02*
X108839523Y-75448952D01*
X108972857Y-75848952D01*
X109277619Y-75448952D02*
X109201428Y-75448952D01*
X109163333Y-75468000D01*
X109144285Y-75487047D01*
X109106190Y-75544190D01*
X109087142Y-75620380D01*
X109087142Y-75772761D01*
X109106190Y-75810857D01*
X109125238Y-75829904D01*
X109163333Y-75848952D01*
X109239523Y-75848952D01*
X109277619Y-75829904D01*
X109296666Y-75810857D01*
X109315714Y-75772761D01*
X109315714Y-75677523D01*
X109296666Y-75639428D01*
X109277619Y-75620380D01*
X109239523Y-75601333D01*
X109163333Y-75601333D01*
X109125238Y-75620380D01*
X109106190Y-75639428D01*
X109087142Y-75677523D01*
X123740761Y-75840952D02*
X123740761Y-75440952D01*
X123893142Y-75440952D01*
X123931238Y-75460000D01*
X123950285Y-75479047D01*
X123969333Y-75517142D01*
X123969333Y-75574285D01*
X123950285Y-75612380D01*
X123931238Y-75631428D01*
X123893142Y-75650476D01*
X123740761Y-75650476D01*
X124369333Y-75802857D02*
X124350285Y-75821904D01*
X124293142Y-75840952D01*
X124255047Y-75840952D01*
X124197904Y-75821904D01*
X124159809Y-75783809D01*
X124140761Y-75745714D01*
X124121714Y-75669523D01*
X124121714Y-75612380D01*
X124140761Y-75536190D01*
X124159809Y-75498095D01*
X124197904Y-75460000D01*
X124255047Y-75440952D01*
X124293142Y-75440952D01*
X124350285Y-75460000D01*
X124369333Y-75479047D01*
X124521714Y-75479047D02*
X124540761Y-75460000D01*
X124578857Y-75440952D01*
X124674095Y-75440952D01*
X124712190Y-75460000D01*
X124731238Y-75479047D01*
X124750285Y-75517142D01*
X124750285Y-75555238D01*
X124731238Y-75612380D01*
X124502666Y-75840952D01*
X124750285Y-75840952D01*
X133929333Y-75840952D02*
X133929333Y-75440952D01*
X134081714Y-75440952D01*
X134119809Y-75460000D01*
X134138857Y-75479047D01*
X134157904Y-75517142D01*
X134157904Y-75574285D01*
X134138857Y-75612380D01*
X134119809Y-75631428D01*
X134081714Y-75650476D01*
X133929333Y-75650476D01*
X134310285Y-75726666D02*
X134500761Y-75726666D01*
X134272190Y-75840952D02*
X134405523Y-75440952D01*
X134538857Y-75840952D01*
X134843619Y-75574285D02*
X134843619Y-75840952D01*
X134748380Y-75421904D02*
X134653142Y-75707619D01*
X134900761Y-75707619D01*
X116149333Y-75840952D02*
X116149333Y-75440952D01*
X116301714Y-75440952D01*
X116339809Y-75460000D01*
X116358857Y-75479047D01*
X116377904Y-75517142D01*
X116377904Y-75574285D01*
X116358857Y-75612380D01*
X116339809Y-75631428D01*
X116301714Y-75650476D01*
X116149333Y-75650476D01*
X116530285Y-75726666D02*
X116720761Y-75726666D01*
X116492190Y-75840952D02*
X116625523Y-75440952D01*
X116758857Y-75840952D01*
X116854095Y-75440952D02*
X117120761Y-75440952D01*
X116949333Y-75840952D01*
X144103761Y-93510000D02*
X144065666Y-93490952D01*
X144008523Y-93490952D01*
X143951380Y-93510000D01*
X143913285Y-93548095D01*
X143894238Y-93586190D01*
X143875190Y-93662380D01*
X143875190Y-93719523D01*
X143894238Y-93795714D01*
X143913285Y-93833809D01*
X143951380Y-93871904D01*
X144008523Y-93890952D01*
X144046619Y-93890952D01*
X144103761Y-93871904D01*
X144122809Y-93852857D01*
X144122809Y-93719523D01*
X144046619Y-93719523D01*
X144294238Y-93890952D02*
X144294238Y-93490952D01*
X144522809Y-93890952D01*
X144522809Y-93490952D01*
X144713285Y-93890952D02*
X144713285Y-93490952D01*
X144808523Y-93490952D01*
X144865666Y-93510000D01*
X144903761Y-93548095D01*
X144922809Y-93586190D01*
X144941857Y-93662380D01*
X144941857Y-93719523D01*
X144922809Y-93795714D01*
X144903761Y-93833809D01*
X144865666Y-93871904D01*
X144808523Y-93890952D01*
X144713285Y-93890952D01*
X110874238Y-93890952D02*
X110874238Y-93490952D01*
X111026619Y-93490952D01*
X111064714Y-93510000D01*
X111083761Y-93529047D01*
X111102809Y-93567142D01*
X111102809Y-93624285D01*
X111083761Y-93662380D01*
X111064714Y-93681428D01*
X111026619Y-93700476D01*
X110874238Y-93700476D01*
X111255190Y-93776666D02*
X111445666Y-93776666D01*
X111217095Y-93890952D02*
X111350428Y-93490952D01*
X111483761Y-93890952D01*
X111636142Y-93890952D02*
X111712333Y-93890952D01*
X111750428Y-93871904D01*
X111769476Y-93852857D01*
X111807571Y-93795714D01*
X111826619Y-93719523D01*
X111826619Y-93567142D01*
X111807571Y-93529047D01*
X111788523Y-93510000D01*
X111750428Y-93490952D01*
X111674238Y-93490952D01*
X111636142Y-93510000D01*
X111617095Y-93529047D01*
X111598047Y-93567142D01*
X111598047Y-93662380D01*
X111617095Y-93700476D01*
X111636142Y-93719523D01*
X111674238Y-93738571D01*
X111750428Y-93738571D01*
X111788523Y-93719523D01*
X111807571Y-93700476D01*
X111826619Y-93662380D01*
X105989333Y-75840952D02*
X105989333Y-75440952D01*
X106141714Y-75440952D01*
X106179809Y-75460000D01*
X106198857Y-75479047D01*
X106217904Y-75517142D01*
X106217904Y-75574285D01*
X106198857Y-75612380D01*
X106179809Y-75631428D01*
X106141714Y-75650476D01*
X105989333Y-75650476D01*
X106370285Y-75726666D02*
X106560761Y-75726666D01*
X106332190Y-75840952D02*
X106465523Y-75440952D01*
X106598857Y-75840952D01*
X106922666Y-75440952D02*
X106732190Y-75440952D01*
X106713142Y-75631428D01*
X106732190Y-75612380D01*
X106770285Y-75593333D01*
X106865523Y-75593333D01*
X106903619Y-75612380D01*
X106922666Y-75631428D01*
X106941714Y-75669523D01*
X106941714Y-75764761D01*
X106922666Y-75802857D01*
X106903619Y-75821904D01*
X106865523Y-75840952D01*
X106770285Y-75840952D01*
X106732190Y-75821904D01*
X106713142Y-75802857D01*
D14*
X145473714Y-85963428D02*
X145188000Y-85963428D01*
X145188000Y-85363428D01*
D12*
X126114238Y-93890952D02*
X126114238Y-93490952D01*
X126266619Y-93490952D01*
X126304714Y-93510000D01*
X126323761Y-93529047D01*
X126342809Y-93567142D01*
X126342809Y-93624285D01*
X126323761Y-93662380D01*
X126304714Y-93681428D01*
X126266619Y-93700476D01*
X126114238Y-93700476D01*
X126647571Y-93681428D02*
X126704714Y-93700476D01*
X126723761Y-93719523D01*
X126742809Y-93757619D01*
X126742809Y-93814761D01*
X126723761Y-93852857D01*
X126704714Y-93871904D01*
X126666619Y-93890952D01*
X126514238Y-93890952D01*
X126514238Y-93490952D01*
X126647571Y-93490952D01*
X126685666Y-93510000D01*
X126704714Y-93529047D01*
X126723761Y-93567142D01*
X126723761Y-93605238D01*
X126704714Y-93643333D01*
X126685666Y-93662380D01*
X126647571Y-93681428D01*
X126514238Y-93681428D01*
X127104714Y-93490952D02*
X126914238Y-93490952D01*
X126895190Y-93681428D01*
X126914238Y-93662380D01*
X126952333Y-93643333D01*
X127047571Y-93643333D01*
X127085666Y-93662380D01*
X127104714Y-93681428D01*
X127123761Y-93719523D01*
X127123761Y-93814761D01*
X127104714Y-93852857D01*
X127085666Y-93871904D01*
X127047571Y-93890952D01*
X126952333Y-93890952D01*
X126914238Y-93871904D01*
X126895190Y-93852857D01*
X118689333Y-75840952D02*
X118689333Y-75440952D01*
X118841714Y-75440952D01*
X118879809Y-75460000D01*
X118898857Y-75479047D01*
X118917904Y-75517142D01*
X118917904Y-75574285D01*
X118898857Y-75612380D01*
X118879809Y-75631428D01*
X118841714Y-75650476D01*
X118689333Y-75650476D01*
X119070285Y-75726666D02*
X119260761Y-75726666D01*
X119032190Y-75840952D02*
X119165523Y-75440952D01*
X119298857Y-75840952D01*
X119641714Y-75840952D02*
X119413142Y-75840952D01*
X119527428Y-75840952D02*
X119527428Y-75440952D01*
X119489333Y-75498095D01*
X119451238Y-75536190D01*
X119413142Y-75555238D01*
D16*
X102026666Y-80001904D02*
X102083809Y-80020952D01*
X102179047Y-80020952D01*
X102217142Y-80001904D01*
X102236190Y-79982857D01*
X102255238Y-79944761D01*
X102255238Y-79906666D01*
X102236190Y-79868571D01*
X102217142Y-79849523D01*
X102179047Y-79830476D01*
X102102857Y-79811428D01*
X102064761Y-79792380D01*
X102045714Y-79773333D01*
X102026666Y-79735238D01*
X102026666Y-79697142D01*
X102045714Y-79659047D01*
X102064761Y-79640000D01*
X102102857Y-79620952D01*
X102198095Y-79620952D01*
X102255238Y-79640000D01*
X102369523Y-79620952D02*
X102598095Y-79620952D01*
X102483809Y-80020952D02*
X102483809Y-79620952D01*
X102921904Y-80020952D02*
X102731428Y-80020952D01*
X102731428Y-79620952D01*
X103055238Y-80020952D02*
X103055238Y-79620952D01*
X103245714Y-80020952D02*
X103245714Y-79620952D01*
X103474285Y-80020952D01*
X103474285Y-79620952D01*
X103664761Y-80020952D02*
X103664761Y-79620952D01*
X103893333Y-80020952D02*
X103721904Y-79792380D01*
X103893333Y-79620952D02*
X103664761Y-79849523D01*
D12*
X146781714Y-75840952D02*
X146781714Y-75440952D01*
X147010285Y-75840952D01*
X147010285Y-75440952D01*
X147429333Y-75802857D02*
X147410285Y-75821904D01*
X147353142Y-75840952D01*
X147315047Y-75840952D01*
X147257904Y-75821904D01*
X147219809Y-75783809D01*
X147200761Y-75745714D01*
X147181714Y-75669523D01*
X147181714Y-75612380D01*
X147200761Y-75536190D01*
X147219809Y-75498095D01*
X147257904Y-75460000D01*
X147315047Y-75440952D01*
X147353142Y-75440952D01*
X147410285Y-75460000D01*
X147429333Y-75479047D01*
D13*
X140873333Y-84080000D02*
X141406666Y-84080000D01*
X141140000Y-84346666D02*
X141140000Y-83813333D01*
D12*
X138980761Y-75840952D02*
X138980761Y-75440952D01*
X139133142Y-75440952D01*
X139171238Y-75460000D01*
X139190285Y-75479047D01*
X139209333Y-75517142D01*
X139209333Y-75574285D01*
X139190285Y-75612380D01*
X139171238Y-75631428D01*
X139133142Y-75650476D01*
X138980761Y-75650476D01*
X139609333Y-75802857D02*
X139590285Y-75821904D01*
X139533142Y-75840952D01*
X139495047Y-75840952D01*
X139437904Y-75821904D01*
X139399809Y-75783809D01*
X139380761Y-75745714D01*
X139361714Y-75669523D01*
X139361714Y-75612380D01*
X139380761Y-75536190D01*
X139399809Y-75498095D01*
X139437904Y-75460000D01*
X139495047Y-75440952D01*
X139533142Y-75440952D01*
X139590285Y-75460000D01*
X139609333Y-75479047D01*
X139952190Y-75440952D02*
X139876000Y-75440952D01*
X139837904Y-75460000D01*
X139818857Y-75479047D01*
X139780761Y-75536190D01*
X139761714Y-75612380D01*
X139761714Y-75764761D01*
X139780761Y-75802857D01*
X139799809Y-75821904D01*
X139837904Y-75840952D01*
X139914095Y-75840952D01*
X139952190Y-75821904D01*
X139971238Y-75802857D01*
X139990285Y-75764761D01*
X139990285Y-75669523D01*
X139971238Y-75631428D01*
X139952190Y-75612380D01*
X139914095Y-75593333D01*
X139837904Y-75593333D01*
X139799809Y-75612380D01*
X139780761Y-75631428D01*
X139761714Y-75669523D01*
X144060761Y-75840952D02*
X144060761Y-75440952D01*
X144213142Y-75440952D01*
X144251238Y-75460000D01*
X144270285Y-75479047D01*
X144289333Y-75517142D01*
X144289333Y-75574285D01*
X144270285Y-75612380D01*
X144251238Y-75631428D01*
X144213142Y-75650476D01*
X144060761Y-75650476D01*
X144689333Y-75802857D02*
X144670285Y-75821904D01*
X144613142Y-75840952D01*
X144575047Y-75840952D01*
X144517904Y-75821904D01*
X144479809Y-75783809D01*
X144460761Y-75745714D01*
X144441714Y-75669523D01*
X144441714Y-75612380D01*
X144460761Y-75536190D01*
X144479809Y-75498095D01*
X144517904Y-75460000D01*
X144575047Y-75440952D01*
X144613142Y-75440952D01*
X144670285Y-75460000D01*
X144689333Y-75479047D01*
X144917904Y-75612380D02*
X144879809Y-75593333D01*
X144860761Y-75574285D01*
X144841714Y-75536190D01*
X144841714Y-75517142D01*
X144860761Y-75479047D01*
X144879809Y-75460000D01*
X144917904Y-75440952D01*
X144994095Y-75440952D01*
X145032190Y-75460000D01*
X145051238Y-75479047D01*
X145070285Y-75517142D01*
X145070285Y-75536190D01*
X145051238Y-75574285D01*
X145032190Y-75593333D01*
X144994095Y-75612380D01*
X144917904Y-75612380D01*
X144879809Y-75631428D01*
X144860761Y-75650476D01*
X144841714Y-75688571D01*
X144841714Y-75764761D01*
X144860761Y-75802857D01*
X144879809Y-75821904D01*
X144917904Y-75840952D01*
X144994095Y-75840952D01*
X145032190Y-75821904D01*
X145051238Y-75802857D01*
X145070285Y-75764761D01*
X145070285Y-75688571D01*
X145051238Y-75650476D01*
X145032190Y-75631428D01*
X144994095Y-75612380D01*
X126280761Y-75840952D02*
X126280761Y-75440952D01*
X126433142Y-75440952D01*
X126471238Y-75460000D01*
X126490285Y-75479047D01*
X126509333Y-75517142D01*
X126509333Y-75574285D01*
X126490285Y-75612380D01*
X126471238Y-75631428D01*
X126433142Y-75650476D01*
X126280761Y-75650476D01*
X126909333Y-75802857D02*
X126890285Y-75821904D01*
X126833142Y-75840952D01*
X126795047Y-75840952D01*
X126737904Y-75821904D01*
X126699809Y-75783809D01*
X126680761Y-75745714D01*
X126661714Y-75669523D01*
X126661714Y-75612380D01*
X126680761Y-75536190D01*
X126699809Y-75498095D01*
X126737904Y-75460000D01*
X126795047Y-75440952D01*
X126833142Y-75440952D01*
X126890285Y-75460000D01*
X126909333Y-75479047D01*
X127290285Y-75840952D02*
X127061714Y-75840952D01*
X127176000Y-75840952D02*
X127176000Y-75440952D01*
X127137904Y-75498095D01*
X127099809Y-75536190D01*
X127061714Y-75555238D01*
X115954238Y-93890952D02*
X115954238Y-93490952D01*
X116049476Y-93490952D01*
X116106619Y-93510000D01*
X116144714Y-93548095D01*
X116163761Y-93586190D01*
X116182809Y-93662380D01*
X116182809Y-93719523D01*
X116163761Y-93795714D01*
X116144714Y-93833809D01*
X116106619Y-93871904D01*
X116049476Y-93890952D01*
X115954238Y-93890952D01*
X116354238Y-93490952D02*
X116354238Y-93814761D01*
X116373285Y-93852857D01*
X116392333Y-93871904D01*
X116430428Y-93890952D01*
X116506619Y-93890952D01*
X116544714Y-93871904D01*
X116563761Y-93852857D01*
X116582809Y-93814761D01*
X116582809Y-93490952D01*
X116754238Y-93776666D02*
X116944714Y-93776666D01*
X116716142Y-93890952D02*
X116849476Y-93490952D01*
X116982809Y-93890952D01*
X117306619Y-93890952D02*
X117116142Y-93890952D01*
X117116142Y-93490952D01*
X117649476Y-93890952D02*
X117420904Y-93890952D01*
X117535190Y-93890952D02*
X117535190Y-93490952D01*
X117497095Y-93548095D01*
X117459000Y-93586190D01*
X117420904Y-93605238D01*
X105794238Y-93890952D02*
X105794238Y-93490952D01*
X105946619Y-93490952D01*
X105984714Y-93510000D01*
X106003761Y-93529047D01*
X106022809Y-93567142D01*
X106022809Y-93624285D01*
X106003761Y-93662380D01*
X105984714Y-93681428D01*
X105946619Y-93700476D01*
X105794238Y-93700476D01*
X106327571Y-93681428D02*
X106384714Y-93700476D01*
X106403761Y-93719523D01*
X106422809Y-93757619D01*
X106422809Y-93814761D01*
X106403761Y-93852857D01*
X106384714Y-93871904D01*
X106346619Y-93890952D01*
X106194238Y-93890952D01*
X106194238Y-93490952D01*
X106327571Y-93490952D01*
X106365666Y-93510000D01*
X106384714Y-93529047D01*
X106403761Y-93567142D01*
X106403761Y-93605238D01*
X106384714Y-93643333D01*
X106365666Y-93662380D01*
X106327571Y-93681428D01*
X106194238Y-93681428D01*
X106803761Y-93890952D02*
X106575190Y-93890952D01*
X106689476Y-93890952D02*
X106689476Y-93490952D01*
X106651380Y-93548095D01*
X106613285Y-93586190D01*
X106575190Y-93605238D01*
X107165666Y-93490952D02*
X106975190Y-93490952D01*
X106956142Y-93681428D01*
X106975190Y-93662380D01*
X107013285Y-93643333D01*
X107108523Y-93643333D01*
X107146619Y-93662380D01*
X107165666Y-93681428D01*
X107184714Y-93719523D01*
X107184714Y-93814761D01*
X107165666Y-93852857D01*
X107146619Y-93871904D01*
X107108523Y-93890952D01*
X107013285Y-93890952D01*
X106975190Y-93871904D01*
X106956142Y-93852857D01*
X98267714Y-75840952D02*
X98267714Y-75440952D01*
X98496285Y-75840952D01*
X98496285Y-75440952D01*
X98915333Y-75802857D02*
X98896285Y-75821904D01*
X98839142Y-75840952D01*
X98801047Y-75840952D01*
X98743904Y-75821904D01*
X98705809Y-75783809D01*
X98686761Y-75745714D01*
X98667714Y-75669523D01*
X98667714Y-75612380D01*
X98686761Y-75536190D01*
X98705809Y-75498095D01*
X98743904Y-75460000D01*
X98801047Y-75440952D01*
X98839142Y-75440952D01*
X98896285Y-75460000D01*
X98915333Y-75479047D01*
X108334238Y-93890952D02*
X108334238Y-93490952D01*
X108486619Y-93490952D01*
X108524714Y-93510000D01*
X108543761Y-93529047D01*
X108562809Y-93567142D01*
X108562809Y-93624285D01*
X108543761Y-93662380D01*
X108524714Y-93681428D01*
X108486619Y-93700476D01*
X108334238Y-93700476D01*
X108715190Y-93776666D02*
X108905666Y-93776666D01*
X108677095Y-93890952D02*
X108810428Y-93490952D01*
X108943761Y-93890952D01*
X109134238Y-93662380D02*
X109096142Y-93643333D01*
X109077095Y-93624285D01*
X109058047Y-93586190D01*
X109058047Y-93567142D01*
X109077095Y-93529047D01*
X109096142Y-93510000D01*
X109134238Y-93490952D01*
X109210428Y-93490952D01*
X109248523Y-93510000D01*
X109267571Y-93529047D01*
X109286619Y-93567142D01*
X109286619Y-93586190D01*
X109267571Y-93624285D01*
X109248523Y-93643333D01*
X109210428Y-93662380D01*
X109134238Y-93662380D01*
X109096142Y-93681428D01*
X109077095Y-93700476D01*
X109058047Y-93738571D01*
X109058047Y-93814761D01*
X109077095Y-93852857D01*
X109096142Y-93871904D01*
X109134238Y-93890952D01*
X109210428Y-93890952D01*
X109248523Y-93871904D01*
X109267571Y-93852857D01*
X109286619Y-93814761D01*
X109286619Y-93738571D01*
X109267571Y-93700476D01*
X109248523Y-93681428D01*
X109210428Y-93662380D01*
X131360761Y-75840952D02*
X131360761Y-75440952D01*
X131513142Y-75440952D01*
X131551238Y-75460000D01*
X131570285Y-75479047D01*
X131589333Y-75517142D01*
X131589333Y-75574285D01*
X131570285Y-75612380D01*
X131551238Y-75631428D01*
X131513142Y-75650476D01*
X131360761Y-75650476D01*
X131989333Y-75802857D02*
X131970285Y-75821904D01*
X131913142Y-75840952D01*
X131875047Y-75840952D01*
X131817904Y-75821904D01*
X131779809Y-75783809D01*
X131760761Y-75745714D01*
X131741714Y-75669523D01*
X131741714Y-75612380D01*
X131760761Y-75536190D01*
X131779809Y-75498095D01*
X131817904Y-75460000D01*
X131875047Y-75440952D01*
X131913142Y-75440952D01*
X131970285Y-75460000D01*
X131989333Y-75479047D01*
X132122666Y-75440952D02*
X132370285Y-75440952D01*
X132236952Y-75593333D01*
X132294095Y-75593333D01*
X132332190Y-75612380D01*
X132351238Y-75631428D01*
X132370285Y-75669523D01*
X132370285Y-75764761D01*
X132351238Y-75802857D01*
X132332190Y-75821904D01*
X132294095Y-75840952D01*
X132179809Y-75840952D01*
X132141714Y-75821904D01*
X132122666Y-75802857D01*
D13*
X106783333Y-91220000D02*
X107316666Y-91220000D01*
X107050000Y-91486666D02*
X107050000Y-90953333D01*
D17*
X130520000Y-88609641D02*
X130520000Y-88302359D01*
X131280000Y-88609641D02*
X131280000Y-88302359D01*
X105411000Y-87078580D02*
X105411000Y-86797420D01*
X104391000Y-87078580D02*
X104391000Y-86797420D01*
X104497000Y-81046420D02*
X104497000Y-81327580D01*
X105517000Y-81046420D02*
X105517000Y-81327580D01*
X106117836Y-89040000D02*
X105902164Y-89040000D01*
X106117836Y-89760000D02*
X105902164Y-89760000D01*
X107407836Y-78500000D02*
X107192164Y-78500000D01*
X107407836Y-79220000D02*
X107192164Y-79220000D01*
X126426359Y-79050000D02*
X126733641Y-79050000D01*
X126426359Y-79810000D02*
X126733641Y-79810000D01*
D11*
X130980000Y-87541000D02*
G75*
G03*
X130980000Y-87541000I-50000J0D01*
G01*
D17*
X138032000Y-84065600D02*
X134272000Y-84065600D01*
X140282000Y-90885600D02*
X134272000Y-90885600D01*
X134272000Y-84065600D02*
X134272000Y-85325600D01*
X134272000Y-90885600D02*
X134272000Y-89625600D01*
X96580000Y-91007836D02*
X96580000Y-90792164D01*
X97300000Y-91007836D02*
X97300000Y-90792164D01*
X145712000Y-79332000D02*
X148252000Y-79332000D01*
X148252000Y-79332000D02*
X148252000Y-89492000D01*
X148252000Y-89492000D02*
X145712000Y-89492000D01*
X145712000Y-89492000D02*
X145712000Y-79332000D01*
X121680000Y-86933000D02*
X124980000Y-86933000D01*
X124980000Y-86933000D02*
X124980000Y-82933000D01*
X128360000Y-84930000D02*
X125820000Y-84930000D01*
X125820000Y-84930000D02*
X125820000Y-79850000D01*
X125820000Y-79850000D02*
X128360000Y-79850000D01*
X128360000Y-79850000D02*
X128360000Y-84930000D01*
X119500000Y-80517836D02*
X119500000Y-80302164D01*
X120220000Y-80517836D02*
X120220000Y-80302164D01*
X118874000Y-79390836D02*
X118874000Y-79175164D01*
X118154000Y-79390836D02*
X118154000Y-79175164D01*
X123400420Y-82268000D02*
X123681580Y-82268000D01*
X123400420Y-81248000D02*
X123681580Y-81248000D01*
X129340000Y-86373641D02*
X129340000Y-86066359D01*
X128580000Y-86373641D02*
X128580000Y-86066359D01*
X119498000Y-82186164D02*
X119498000Y-82401836D01*
X120218000Y-82186164D02*
X120218000Y-82401836D01*
X130370000Y-82900000D02*
X130370000Y-80180000D01*
X135090000Y-82900000D02*
X133780000Y-82900000D01*
X131680000Y-82900000D02*
X130370000Y-82900000D01*
X135090000Y-80180000D02*
X135090000Y-82900000D01*
X134860000Y-79040000D02*
X134860000Y-80180000D01*
X135090000Y-80180000D02*
X134860000Y-80180000D01*
X130370000Y-80180000D02*
X130600000Y-80180000D01*
X120122164Y-88690000D02*
X120337836Y-88690000D01*
X120122164Y-87970000D02*
X120337836Y-87970000D01*
X140990000Y-86435000D02*
X144900000Y-86435000D01*
X144900000Y-84565000D02*
X140990000Y-84565000D01*
X140990000Y-84565000D02*
X140990000Y-86435000D01*
D18*
X93100000Y-80230000D02*
X94330000Y-80230000D01*
X98510000Y-89170000D02*
X97070000Y-89170000D01*
X98510000Y-80230000D02*
X97070000Y-80230000D01*
X94330000Y-89170000D02*
X93100000Y-89170000D01*
X93100000Y-89170000D02*
X93100000Y-80230000D01*
D10*
X102200000Y-81300000D02*
G75*
G03*
X102200000Y-81300000I-100000J0D01*
G01*
D17*
X142190000Y-81063641D02*
X142190000Y-80756359D01*
X142950000Y-81063641D02*
X142950000Y-80756359D01*
X96550000Y-92706359D02*
X96550000Y-93013641D01*
X97310000Y-92706359D02*
X97310000Y-93013641D01*
X120640000Y-82192164D02*
X120640000Y-82407836D01*
X121360000Y-82192164D02*
X121360000Y-82407836D01*
X96595000Y-78453641D02*
X96595000Y-78146359D01*
X97355000Y-78453641D02*
X97355000Y-78146359D01*
X117522164Y-90860000D02*
X117737836Y-90860000D01*
X117522164Y-90140000D02*
X117737836Y-90140000D01*
D11*
X101585000Y-78680000D02*
G75*
G03*
X101585000Y-78680000I-50000J0D01*
G01*
D17*
X107382000Y-89789000D02*
X107382000Y-88839000D01*
X107382000Y-79569000D02*
X107382000Y-80519000D01*
X117602000Y-79569000D02*
X117602000Y-80519000D01*
X116652000Y-89789000D02*
X117602000Y-89789000D01*
X117602000Y-88839000D02*
X118942000Y-88839000D01*
X108332000Y-89789000D02*
X107382000Y-89789000D01*
X117602000Y-89789000D02*
X117602000Y-88839000D01*
X116652000Y-79569000D02*
X117602000Y-79569000D01*
X108332000Y-79569000D02*
X107382000Y-79569000D01*
X142660000Y-82973641D02*
X142660000Y-82666359D01*
X143420000Y-82973641D02*
X143420000Y-82666359D01*
X97380000Y-76378641D02*
X97380000Y-76071359D01*
X96620000Y-76378641D02*
X96620000Y-76071359D01*
X123072164Y-79710000D02*
X123287836Y-79710000D01*
X123072164Y-78990000D02*
X123287836Y-78990000D01*
X141120000Y-79875836D02*
X141120000Y-79660164D01*
X141840000Y-79875836D02*
X141840000Y-79660164D01*
X123554580Y-87598000D02*
X123273420Y-87598000D01*
X123554580Y-88618000D02*
X123273420Y-88618000D01*
X125820000Y-85500000D02*
X128360000Y-85500000D01*
X128360000Y-85500000D02*
X128360000Y-90580000D01*
X128360000Y-90580000D02*
X125820000Y-90580000D01*
X125820000Y-90580000D02*
X125820000Y-85500000D01*
X143235000Y-86590000D02*
X141365000Y-86590000D01*
X141365000Y-86590000D02*
X141365000Y-90500000D01*
X143235000Y-90500000D02*
X143235000Y-86590000D01*
X138940000Y-79440000D02*
X139740000Y-79440000D01*
X138940000Y-82560000D02*
X138140000Y-82560000D01*
X138940000Y-79440000D02*
X137140000Y-79440000D01*
X138940000Y-82560000D02*
X139740000Y-82560000D01*
X96347000Y-94202000D02*
X149687000Y-94202000D01*
X149687000Y-94202000D02*
X149687000Y-75152000D01*
X149687000Y-75152000D02*
X96347000Y-75152000D01*
X96347000Y-75152000D02*
X96347000Y-94202000D01*
X124260000Y-90073641D02*
X124260000Y-89766359D01*
X123500000Y-90073641D02*
X123500000Y-89766359D01*
X128790000Y-80969420D02*
X128790000Y-81250580D01*
X129810000Y-80969420D02*
X129810000Y-81250580D01*
X125340000Y-90113641D02*
X125340000Y-89806359D01*
X124580000Y-90113641D02*
X124580000Y-89806359D01*
X104152000Y-90392000D02*
X101612000Y-90392000D01*
X101612000Y-90392000D02*
X101612000Y-80232000D01*
X101612000Y-80232000D02*
X104152000Y-80232000D01*
X104152000Y-80232000D02*
X104152000Y-90392000D01*
X123082164Y-79970000D02*
X123297836Y-79970000D01*
X123082164Y-80690000D02*
X123297836Y-80690000D01*
X118742164Y-89060000D02*
X118957836Y-89060000D01*
X118742164Y-89780000D02*
X118957836Y-89780000D01*
X135570000Y-80880580D02*
X135570000Y-80599420D01*
X136590000Y-80880580D02*
X136590000Y-80599420D01*
X100406359Y-78260000D02*
X100713641Y-78260000D01*
X100406359Y-79020000D02*
X100713641Y-79020000D01*
X144240000Y-82594164D02*
X144240000Y-82809836D01*
X144960000Y-82594164D02*
X144960000Y-82809836D01*
D11*
X104555000Y-90580000D02*
G75*
G03*
X104555000Y-90580000I-50000J0D01*
G01*
D17*
X141120000Y-82172164D02*
X141120000Y-82387836D01*
X141840000Y-82172164D02*
X141840000Y-82387836D01*
X101326359Y-90160000D02*
X101633641Y-90160000D01*
X101326359Y-90920000D02*
X101633641Y-90920000D01*
%LPC*%
D19*
X130900000Y-88966000D03*
X130900000Y-87946000D03*
D20*
X104901000Y-87713000D03*
X104901000Y-86163000D03*
D21*
X105007000Y-80412000D03*
X105007000Y-81962000D03*
D22*
X106490000Y-89400000D03*
X105530000Y-89400000D03*
X107780000Y-78860000D03*
X106820000Y-78860000D03*
D23*
X126070000Y-79430000D03*
X127090000Y-79430000D03*
D24*
X130930000Y-86848500D03*
X130930000Y-85703500D03*
D25*
X139332000Y-89775600D03*
D26*
X133032000Y-87475600D03*
D25*
X139332000Y-87475600D03*
X139332000Y-85175600D03*
D27*
X96940000Y-91380000D03*
X96940000Y-90420000D03*
D28*
X146982000Y-88222000D03*
X146982000Y-85682000D03*
X146982000Y-83142000D03*
X146982000Y-80602000D03*
D29*
X124180000Y-86033000D03*
X124180000Y-83833000D03*
X122480000Y-83833000D03*
X122480000Y-86033000D03*
D28*
X127090000Y-81120000D03*
X127090000Y-83660000D03*
D27*
X119860000Y-80890000D03*
X119860000Y-79930000D03*
X118514000Y-79763000D03*
X118514000Y-78803000D03*
D30*
X122766000Y-81758000D03*
X124316000Y-81758000D03*
D19*
X128960000Y-86730000D03*
X128960000Y-85710000D03*
D31*
X119858000Y-81814000D03*
X119858000Y-82774000D03*
D32*
X134230000Y-79590000D03*
D33*
X132730000Y-79677500D03*
D32*
X131230000Y-79590000D03*
D34*
X119750000Y-88330000D03*
X120710000Y-88330000D03*
D35*
X141950000Y-85500000D03*
X144650000Y-85500000D03*
D36*
X99350000Y-81810000D03*
X99350000Y-87590000D03*
D37*
X100795000Y-81450000D03*
X100795000Y-82250000D03*
D38*
X100795000Y-83450000D03*
X100795000Y-84450000D03*
X100795000Y-84950000D03*
X100795000Y-85950000D03*
D37*
X100795000Y-87950000D03*
X100795000Y-87150000D03*
D38*
X100795000Y-86450000D03*
X100795000Y-85450000D03*
X100795000Y-83950000D03*
X100795000Y-82950000D03*
D39*
X99880000Y-80380000D03*
X99880000Y-89020000D03*
X95700000Y-80380000D03*
X95700000Y-89020000D03*
D19*
X142570000Y-81420000D03*
X142570000Y-80400000D03*
D40*
X96930000Y-92350000D03*
X96930000Y-93370000D03*
D31*
X121000000Y-81820000D03*
X121000000Y-82780000D03*
D19*
X96975000Y-78810000D03*
X96975000Y-77790000D03*
D34*
X117150000Y-90500000D03*
X118110000Y-90500000D03*
D41*
X102227500Y-78680000D03*
X103372500Y-78680000D03*
D42*
X118167000Y-88429000D03*
X118167000Y-87929000D03*
X118167000Y-87429000D03*
X118167000Y-86929000D03*
X118167000Y-86429000D03*
X118167000Y-85929000D03*
X118167000Y-85429000D03*
X118167000Y-84929000D03*
X118167000Y-84429000D03*
X118167000Y-83929000D03*
X118167000Y-83429000D03*
X118167000Y-82929000D03*
X118167000Y-82429000D03*
X118167000Y-81929000D03*
X118167000Y-81429000D03*
X118167000Y-80929000D03*
D43*
X116242000Y-79004000D03*
X115742000Y-79004000D03*
X115242000Y-79004000D03*
X114742000Y-79004000D03*
X114242000Y-79004000D03*
X113742000Y-79004000D03*
X113242000Y-79004000D03*
X112742000Y-79004000D03*
X112242000Y-79004000D03*
X111742000Y-79004000D03*
X111242000Y-79004000D03*
X110742000Y-79004000D03*
X110242000Y-79004000D03*
X109742000Y-79004000D03*
X109242000Y-79004000D03*
X108742000Y-79004000D03*
D42*
X106817000Y-80929000D03*
X106817000Y-81429000D03*
X106817000Y-81929000D03*
X106817000Y-82429000D03*
X106817000Y-82929000D03*
X106817000Y-83429000D03*
X106817000Y-83929000D03*
X106817000Y-84429000D03*
X106817000Y-84929000D03*
X106817000Y-85429000D03*
X106817000Y-85929000D03*
X106817000Y-86429000D03*
X106817000Y-86929000D03*
X106817000Y-87429000D03*
X106817000Y-87929000D03*
X106817000Y-88429000D03*
D43*
X108742000Y-90354000D03*
X109242000Y-90354000D03*
X109742000Y-90354000D03*
X110242000Y-90354000D03*
X110742000Y-90354000D03*
X111242000Y-90354000D03*
X111742000Y-90354000D03*
X112242000Y-90354000D03*
X112742000Y-90354000D03*
X113242000Y-90354000D03*
X113742000Y-90354000D03*
X114242000Y-90354000D03*
X114742000Y-90354000D03*
X115242000Y-90354000D03*
X115742000Y-90354000D03*
X116242000Y-90354000D03*
D19*
X143040000Y-83330000D03*
X143040000Y-82310000D03*
X97000000Y-76735000D03*
X97000000Y-75715000D03*
D34*
X122700000Y-79350000D03*
X123660000Y-79350000D03*
D27*
X141480000Y-80248000D03*
X141480000Y-79288000D03*
D44*
X124189000Y-88108000D03*
X122639000Y-88108000D03*
D28*
X127090000Y-89310000D03*
X127090000Y-86770000D03*
D45*
X121000000Y-79915000D03*
X121000000Y-80885000D03*
D46*
X142300000Y-87550000D03*
X142300000Y-90250000D03*
D47*
X137802500Y-80025000D03*
X137802500Y-80675000D03*
X137802500Y-81325000D03*
X137802500Y-81975000D03*
X140077500Y-81975000D03*
X140077500Y-81325000D03*
X140077500Y-80675000D03*
X140077500Y-80025000D03*
D28*
X147147000Y-77057000D03*
X144607000Y-77057000D03*
X142067000Y-77057000D03*
X139527000Y-77057000D03*
X136987000Y-77057000D03*
X134447000Y-77057000D03*
X131907000Y-77057000D03*
X129367000Y-77057000D03*
X126827000Y-77057000D03*
X124287000Y-77057000D03*
X121747000Y-77057000D03*
X119207000Y-77057000D03*
X116667000Y-77057000D03*
X114127000Y-77057000D03*
X111587000Y-77057000D03*
X109047000Y-77057000D03*
X106507000Y-77057000D03*
X103967000Y-77057000D03*
X101427000Y-77057000D03*
X98887000Y-77057000D03*
X98887000Y-92297000D03*
X101427000Y-92297000D03*
X103967000Y-92297000D03*
X106507000Y-92297000D03*
X109047000Y-92297000D03*
X111587000Y-92297000D03*
X114103395Y-92306993D03*
X116667000Y-92297000D03*
X119207000Y-92297000D03*
X121747000Y-92297000D03*
X124287000Y-92297000D03*
X126827000Y-92297000D03*
X129367000Y-92297000D03*
X131907000Y-92297000D03*
X134447000Y-92297000D03*
X136987000Y-92297000D03*
X139527000Y-92297000D03*
X142067000Y-92297000D03*
X144607000Y-92297000D03*
X147147000Y-92297000D03*
D19*
X123880000Y-90430000D03*
X123880000Y-89410000D03*
D21*
X129300000Y-80335000D03*
X129300000Y-81885000D03*
D19*
X124960000Y-90470000D03*
X124960000Y-89450000D03*
D28*
X102882000Y-81502000D03*
X102882000Y-84042000D03*
X102882000Y-86582000D03*
X102882000Y-89122000D03*
D34*
X122710000Y-80330000D03*
X123670000Y-80330000D03*
X118370000Y-89420000D03*
X119330000Y-89420000D03*
D20*
X136080000Y-81515000D03*
X136080000Y-79965000D03*
D23*
X100050000Y-78640000D03*
X101070000Y-78640000D03*
D31*
X144600000Y-82222000D03*
X144600000Y-83182000D03*
D41*
X105197500Y-90580000D03*
X106342500Y-90580000D03*
D31*
X141480000Y-81800000D03*
X141480000Y-82760000D03*
D23*
X100970000Y-90540000D03*
X101990000Y-90540000D03*
M02*
