G04 #@! TF.GenerationSoftware,KiCad,Pcbnew,(6.0.7-1)-1*
G04 #@! TF.CreationDate,2023-01-12T17:06:20-05:00*
G04 #@! TF.ProjectId,F405_pill,46343035-5f70-4696-9c6c-2e6b69636164,rev?*
G04 #@! TF.SameCoordinates,Original*
G04 #@! TF.FileFunction,Soldermask,Top*
G04 #@! TF.FilePolarity,Negative*
%FSLAX46Y46*%
G04 Gerber Fmt 4.6, Leading zero omitted, Abs format (unit mm)*
G04 Created by KiCad (PCBNEW (6.0.7-1)-1) date 2023-01-12 17:06:20*
%MOMM*%
%LPD*%
G01*
G04 APERTURE LIST*
G04 Aperture macros list*
%AMRoundRect*
0 Rectangle with rounded corners*
0 $1 Rounding radius*
0 $2 $3 $4 $5 $6 $7 $8 $9 X,Y pos of 4 corners*
0 Add a 4 corners polygon primitive as box body*
4,1,4,$2,$3,$4,$5,$6,$7,$8,$9,$2,$3,0*
0 Add four circle primitives for the rounded corners*
1,1,$1+$1,$2,$3*
1,1,$1+$1,$4,$5*
1,1,$1+$1,$6,$7*
1,1,$1+$1,$8,$9*
0 Add four rect primitives between the rounded corners*
20,1,$1+$1,$2,$3,$4,$5,0*
20,1,$1+$1,$4,$5,$6,$7,0*
20,1,$1+$1,$6,$7,$8,$9,0*
20,1,$1+$1,$8,$9,$2,$3,0*%
%AMFreePoly0*
4,1,9,3.862500,-0.866500,0.737500,-0.866500,0.737500,-0.450000,-0.737500,-0.450000,-0.737500,0.450000,0.737500,0.450000,0.737500,0.866500,3.862500,0.866500,3.862500,-0.866500,3.862500,-0.866500,$1*%
G04 Aperture macros list end*
%ADD10RoundRect,0.135000X0.185000X-0.135000X0.185000X0.135000X-0.185000X0.135000X-0.185000X-0.135000X0*%
%ADD11RoundRect,0.225000X0.250000X-0.225000X0.250000X0.225000X-0.250000X0.225000X-0.250000X-0.225000X0*%
%ADD12RoundRect,0.225000X-0.250000X0.225000X-0.250000X-0.225000X0.250000X-0.225000X0.250000X0.225000X0*%
%ADD13RoundRect,0.140000X0.140000X0.170000X-0.140000X0.170000X-0.140000X-0.170000X0.140000X-0.170000X0*%
%ADD14RoundRect,0.135000X-0.135000X-0.185000X0.135000X-0.185000X0.135000X0.185000X-0.135000X0.185000X0*%
%ADD15RoundRect,0.160000X0.160000X-0.222500X0.160000X0.222500X-0.160000X0.222500X-0.160000X-0.222500X0*%
%ADD16R,2.000000X1.500000*%
%ADD17R,2.000000X3.800000*%
%ADD18RoundRect,0.140000X0.170000X-0.140000X0.170000X0.140000X-0.170000X0.140000X-0.170000X-0.140000X0*%
%ADD19C,1.524000*%
%ADD20R,1.200000X1.400000*%
%ADD21RoundRect,0.225000X-0.225000X-0.250000X0.225000X-0.250000X0.225000X0.250000X-0.225000X0.250000X0*%
%ADD22RoundRect,0.140000X-0.170000X0.140000X-0.170000X-0.140000X0.170000X-0.140000X0.170000X0.140000X0*%
%ADD23R,0.900000X1.300000*%
%ADD24FreePoly0,270.000000*%
%ADD25RoundRect,0.140000X-0.140000X-0.170000X0.140000X-0.170000X0.140000X0.170000X-0.140000X0.170000X0*%
%ADD26RoundRect,0.250000X-0.450000X-0.425000X0.450000X-0.425000X0.450000X0.425000X-0.450000X0.425000X0*%
%ADD27C,0.700000*%
%ADD28R,1.450000X0.600000*%
%ADD29R,1.450000X0.300000*%
%ADD30O,2.100000X1.050000*%
%ADD31RoundRect,0.135000X-0.185000X0.135000X-0.185000X-0.135000X0.185000X-0.135000X0.185000X0.135000X0*%
%ADD32RoundRect,0.160000X-0.222500X-0.160000X0.222500X-0.160000X0.222500X0.160000X-0.222500X0.160000X0*%
%ADD33RoundRect,0.075000X0.700000X0.075000X-0.700000X0.075000X-0.700000X-0.075000X0.700000X-0.075000X0*%
%ADD34RoundRect,0.075000X0.075000X0.700000X-0.075000X0.700000X-0.075000X-0.700000X0.075000X-0.700000X0*%
%ADD35RoundRect,0.225000X0.225000X0.250000X-0.225000X0.250000X-0.225000X-0.250000X0.225000X-0.250000X0*%
%ADD36RoundRect,0.147500X-0.172500X0.147500X-0.172500X-0.147500X0.172500X-0.147500X0.172500X0.147500X0*%
%ADD37RoundRect,0.250000X-0.425000X0.450000X-0.425000X-0.450000X0.425000X-0.450000X0.425000X0.450000X0*%
%ADD38RoundRect,0.125000X-0.537500X-0.125000X0.537500X-0.125000X0.537500X0.125000X-0.537500X0.125000X0*%
G04 APERTURE END LIST*
D10*
X130900000Y-88966000D03*
X130900000Y-87946000D03*
D11*
X104901000Y-87713000D03*
X104901000Y-86163000D03*
D12*
X105007000Y-80412000D03*
X105007000Y-81962000D03*
D13*
X106490000Y-89400000D03*
X105530000Y-89400000D03*
X107780000Y-78860000D03*
X106820000Y-78860000D03*
D14*
X126070000Y-79430000D03*
X127090000Y-79430000D03*
D15*
X130930000Y-86848500D03*
X130930000Y-85703500D03*
D16*
X139332000Y-89775600D03*
D17*
X133032000Y-87475600D03*
D16*
X139332000Y-87475600D03*
X139332000Y-85175600D03*
D18*
X96940000Y-91380000D03*
X96940000Y-90420000D03*
D19*
X146982000Y-88222000D03*
X146982000Y-85682000D03*
X146982000Y-83142000D03*
X146982000Y-80602000D03*
D20*
X124180000Y-86033000D03*
X124180000Y-83833000D03*
X122480000Y-83833000D03*
X122480000Y-86033000D03*
D19*
X127090000Y-81120000D03*
X127090000Y-83660000D03*
D18*
X119860000Y-80890000D03*
X119860000Y-79930000D03*
X118514000Y-79763000D03*
X118514000Y-78803000D03*
D21*
X122766000Y-81758000D03*
X124316000Y-81758000D03*
D10*
X128960000Y-86730000D03*
X128960000Y-85710000D03*
D22*
X119858000Y-81814000D03*
X119858000Y-82774000D03*
D23*
X134230000Y-79590000D03*
D24*
X132730000Y-79677500D03*
D23*
X131230000Y-79590000D03*
D25*
X119750000Y-88330000D03*
X120710000Y-88330000D03*
D26*
X141950000Y-85500000D03*
X144650000Y-85500000D03*
D27*
X99350000Y-81810000D03*
X99350000Y-87590000D03*
D28*
X100795000Y-81450000D03*
X100795000Y-82250000D03*
D29*
X100795000Y-83450000D03*
X100795000Y-84450000D03*
X100795000Y-84950000D03*
X100795000Y-85950000D03*
D28*
X100795000Y-87950000D03*
X100795000Y-87150000D03*
D29*
X100795000Y-86450000D03*
X100795000Y-85450000D03*
X100795000Y-83950000D03*
X100795000Y-82950000D03*
D30*
X99880000Y-80380000D03*
X99880000Y-89020000D03*
X95700000Y-80380000D03*
X95700000Y-89020000D03*
D10*
X142570000Y-81420000D03*
X142570000Y-80400000D03*
D31*
X96930000Y-92350000D03*
X96930000Y-93370000D03*
D22*
X121000000Y-81820000D03*
X121000000Y-82780000D03*
D10*
X96975000Y-78810000D03*
X96975000Y-77790000D03*
D25*
X117150000Y-90500000D03*
X118110000Y-90500000D03*
D32*
X102227500Y-78680000D03*
X103372500Y-78680000D03*
D33*
X118167000Y-88429000D03*
X118167000Y-87929000D03*
X118167000Y-87429000D03*
X118167000Y-86929000D03*
X118167000Y-86429000D03*
X118167000Y-85929000D03*
X118167000Y-85429000D03*
X118167000Y-84929000D03*
X118167000Y-84429000D03*
X118167000Y-83929000D03*
X118167000Y-83429000D03*
X118167000Y-82929000D03*
X118167000Y-82429000D03*
X118167000Y-81929000D03*
X118167000Y-81429000D03*
X118167000Y-80929000D03*
D34*
X116242000Y-79004000D03*
X115742000Y-79004000D03*
X115242000Y-79004000D03*
X114742000Y-79004000D03*
X114242000Y-79004000D03*
X113742000Y-79004000D03*
X113242000Y-79004000D03*
X112742000Y-79004000D03*
X112242000Y-79004000D03*
X111742000Y-79004000D03*
X111242000Y-79004000D03*
X110742000Y-79004000D03*
X110242000Y-79004000D03*
X109742000Y-79004000D03*
X109242000Y-79004000D03*
X108742000Y-79004000D03*
D33*
X106817000Y-80929000D03*
X106817000Y-81429000D03*
X106817000Y-81929000D03*
X106817000Y-82429000D03*
X106817000Y-82929000D03*
X106817000Y-83429000D03*
X106817000Y-83929000D03*
X106817000Y-84429000D03*
X106817000Y-84929000D03*
X106817000Y-85429000D03*
X106817000Y-85929000D03*
X106817000Y-86429000D03*
X106817000Y-86929000D03*
X106817000Y-87429000D03*
X106817000Y-87929000D03*
X106817000Y-88429000D03*
D34*
X108742000Y-90354000D03*
X109242000Y-90354000D03*
X109742000Y-90354000D03*
X110242000Y-90354000D03*
X110742000Y-90354000D03*
X111242000Y-90354000D03*
X111742000Y-90354000D03*
X112242000Y-90354000D03*
X112742000Y-90354000D03*
X113242000Y-90354000D03*
X113742000Y-90354000D03*
X114242000Y-90354000D03*
X114742000Y-90354000D03*
X115242000Y-90354000D03*
X115742000Y-90354000D03*
X116242000Y-90354000D03*
D10*
X143040000Y-83330000D03*
X143040000Y-82310000D03*
X97000000Y-76735000D03*
X97000000Y-75715000D03*
D25*
X122700000Y-79350000D03*
X123660000Y-79350000D03*
D18*
X141480000Y-80248000D03*
X141480000Y-79288000D03*
D35*
X124189000Y-88108000D03*
X122639000Y-88108000D03*
D19*
X127090000Y-89310000D03*
X127090000Y-86770000D03*
D36*
X121000000Y-79915000D03*
X121000000Y-80885000D03*
D37*
X142300000Y-87550000D03*
X142300000Y-90250000D03*
D38*
X137802500Y-80025000D03*
X137802500Y-80675000D03*
X137802500Y-81325000D03*
X137802500Y-81975000D03*
X140077500Y-81975000D03*
X140077500Y-81325000D03*
X140077500Y-80675000D03*
X140077500Y-80025000D03*
D19*
X147147000Y-77057000D03*
X144607000Y-77057000D03*
X142067000Y-77057000D03*
X139527000Y-77057000D03*
X136987000Y-77057000D03*
X134447000Y-77057000D03*
X131907000Y-77057000D03*
X129367000Y-77057000D03*
X126827000Y-77057000D03*
X124287000Y-77057000D03*
X121747000Y-77057000D03*
X119207000Y-77057000D03*
X116667000Y-77057000D03*
X114127000Y-77057000D03*
X111587000Y-77057000D03*
X109047000Y-77057000D03*
X106507000Y-77057000D03*
X103967000Y-77057000D03*
X101427000Y-77057000D03*
X98887000Y-77057000D03*
X98887000Y-92297000D03*
X101427000Y-92297000D03*
X103967000Y-92297000D03*
X106507000Y-92297000D03*
X109047000Y-92297000D03*
X111587000Y-92297000D03*
X114103395Y-92306993D03*
X116667000Y-92297000D03*
X119207000Y-92297000D03*
X121747000Y-92297000D03*
X124287000Y-92297000D03*
X126827000Y-92297000D03*
X129367000Y-92297000D03*
X131907000Y-92297000D03*
X134447000Y-92297000D03*
X136987000Y-92297000D03*
X139527000Y-92297000D03*
X142067000Y-92297000D03*
X144607000Y-92297000D03*
X147147000Y-92297000D03*
D10*
X123880000Y-90430000D03*
X123880000Y-89410000D03*
D12*
X129300000Y-80335000D03*
X129300000Y-81885000D03*
D10*
X124960000Y-90470000D03*
X124960000Y-89450000D03*
D19*
X102882000Y-81502000D03*
X102882000Y-84042000D03*
X102882000Y-86582000D03*
X102882000Y-89122000D03*
D25*
X122710000Y-80330000D03*
X123670000Y-80330000D03*
X118370000Y-89420000D03*
X119330000Y-89420000D03*
D11*
X136080000Y-81515000D03*
X136080000Y-79965000D03*
D14*
X100050000Y-78640000D03*
X101070000Y-78640000D03*
D22*
X144600000Y-82222000D03*
X144600000Y-83182000D03*
D32*
X105197500Y-90580000D03*
X106342500Y-90580000D03*
D22*
X141480000Y-81800000D03*
X141480000Y-82760000D03*
D14*
X100970000Y-90540000D03*
X101990000Y-90540000D03*
M02*
