G04 #@! TF.GenerationSoftware,KiCad,Pcbnew,(6.0.7-1)-1*
G04 #@! TF.CreationDate,2023-01-30T10:05:39-05:00*
G04 #@! TF.ProjectId,F405_pill,46343035-5f70-4696-9c6c-2e6b69636164,rev?*
G04 #@! TF.SameCoordinates,Original*
G04 #@! TF.FileFunction,Copper,L2,Inr*
G04 #@! TF.FilePolarity,Positive*
%FSLAX46Y46*%
G04 Gerber Fmt 4.6, Leading zero omitted, Abs format (unit mm)*
G04 Created by KiCad (PCBNEW (6.0.7-1)-1) date 2023-01-30 10:05:39*
%MOMM*%
%LPD*%
G01*
G04 APERTURE LIST*
G04 #@! TA.AperFunction,ComponentPad*
%ADD10C,1.524000*%
G04 #@! TD*
G04 #@! TA.AperFunction,ComponentPad*
%ADD11O,2.100000X1.050000*%
G04 #@! TD*
G04 #@! TA.AperFunction,ViaPad*
%ADD12C,0.600000*%
G04 #@! TD*
G04 APERTURE END LIST*
D10*
X146982000Y-88222000D03*
X146982000Y-85682000D03*
X146982000Y-83142000D03*
X146982000Y-80602000D03*
X127090000Y-81120000D03*
X127090000Y-83660000D03*
D11*
X99880000Y-80380000D03*
X99880000Y-89020000D03*
X95700000Y-80380000D03*
X95700000Y-89020000D03*
D10*
X127090000Y-89310000D03*
X127090000Y-86770000D03*
X147147000Y-77057000D03*
X144607000Y-77057000D03*
X142067000Y-77057000D03*
X139527000Y-77057000D03*
X136987000Y-77057000D03*
X134447000Y-77057000D03*
X131907000Y-77057000D03*
X129367000Y-77057000D03*
X126827000Y-77057000D03*
X124287000Y-77057000D03*
X121747000Y-77057000D03*
X119207000Y-77057000D03*
X116667000Y-77057000D03*
X114127000Y-77057000D03*
X111587000Y-77057000D03*
X109047000Y-77057000D03*
X106507000Y-77057000D03*
X103967000Y-77057000D03*
X101427000Y-77057000D03*
X98887000Y-77057000D03*
X98887000Y-92297000D03*
X101427000Y-92297000D03*
X103967000Y-92297000D03*
X106507000Y-92297000D03*
X109047000Y-92297000D03*
X111587000Y-92297000D03*
X114103395Y-92306993D03*
X116667000Y-92297000D03*
X119207000Y-92297000D03*
X121747000Y-92297000D03*
X124287000Y-92297000D03*
X126827000Y-92297000D03*
X129367000Y-92297000D03*
X131907000Y-92297000D03*
X134447000Y-92297000D03*
X136987000Y-92297000D03*
X139527000Y-92297000D03*
X142067000Y-92297000D03*
X144607000Y-92297000D03*
X147147000Y-92297000D03*
X102882000Y-80860000D03*
X102882000Y-83400000D03*
X102882000Y-85940000D03*
X102882000Y-88480000D03*
D12*
X111000000Y-88450000D03*
X128960000Y-87640000D03*
X116487170Y-82441708D03*
X118970000Y-90170000D03*
X145850000Y-76360000D03*
X99200000Y-86100000D03*
X113400000Y-81100000D03*
X140680000Y-77690000D03*
X139800000Y-79350000D03*
X138210000Y-76620000D03*
X115390000Y-77180000D03*
X115330000Y-92050000D03*
X128030000Y-92050000D03*
X133170000Y-91900000D03*
X123065943Y-92050000D03*
X121700000Y-82400000D03*
X105220000Y-76280000D03*
X119980000Y-83450000D03*
X125490000Y-92050000D03*
X123350000Y-89250000D03*
X145950000Y-92800000D03*
X120900000Y-79200000D03*
X114500000Y-87200000D03*
X112850000Y-92130000D03*
X121400000Y-85600000D03*
X135700000Y-91900000D03*
X142800000Y-82400000D03*
X128300000Y-78100000D03*
X109000000Y-81100000D03*
X115600000Y-83900000D03*
X111550000Y-84900000D03*
X115200000Y-86600000D03*
X122480000Y-87300000D03*
X113450000Y-82650000D03*
X136682000Y-89712000D03*
X128080000Y-76620000D03*
X109500000Y-85300000D03*
X109500000Y-81750000D03*
X111050000Y-86850000D03*
X133090000Y-76620000D03*
X109771900Y-93250016D03*
X104970000Y-82790000D03*
X143310000Y-76420000D03*
X112990000Y-76510000D03*
X108300000Y-80500000D03*
X117900000Y-92050000D03*
X117900000Y-77180000D03*
X102121093Y-93228301D03*
X125400000Y-86150000D03*
X113250000Y-88200000D03*
X147590000Y-81880000D03*
X114300000Y-81169155D03*
X117831068Y-78900000D03*
X134100000Y-83700000D03*
X147590000Y-84390000D03*
X123000000Y-77250000D03*
X111650000Y-81100000D03*
X124800000Y-82500000D03*
X104700000Y-93200000D03*
X115110000Y-85450000D03*
X120460000Y-77220000D03*
X128350000Y-83350000D03*
X140730000Y-92740000D03*
X130900000Y-89740000D03*
X100050000Y-93310000D03*
X121570000Y-88090000D03*
X113950000Y-84900000D03*
X109972088Y-77855560D03*
X120410000Y-92050000D03*
X95550000Y-84020000D03*
X100150000Y-76610000D03*
X104710000Y-89100000D03*
X102670000Y-76270000D03*
X125400000Y-80500000D03*
X106100000Y-78900000D03*
X108150000Y-86700000D03*
X147590000Y-87000000D03*
X107850000Y-88925000D03*
X111750000Y-87850000D03*
X135760000Y-76620000D03*
X130640000Y-76620000D03*
X143360000Y-92740000D03*
X104800000Y-85300000D03*
X125350000Y-83420000D03*
X130550000Y-92050000D03*
X97860000Y-90440000D03*
X137950000Y-80550000D03*
X108800000Y-84600000D03*
X138280000Y-91900000D03*
X117900000Y-79900000D03*
X146300000Y-84200000D03*
X132170000Y-89910000D03*
X133910000Y-89910000D03*
X146200000Y-79400000D03*
X148000000Y-90650000D03*
X114200000Y-82700000D03*
X107280000Y-89500000D03*
X107810000Y-92610000D03*
X95520000Y-85990000D03*
X140950000Y-88100000D03*
X133910000Y-85150000D03*
X103900000Y-87600000D03*
X114780942Y-87870942D03*
X120400000Y-89600000D03*
X112800000Y-83100000D03*
X108140000Y-81347638D03*
X108800000Y-81850000D03*
X108150000Y-82408500D03*
X108089000Y-84808000D03*
X108750000Y-85480000D03*
X109530000Y-86040000D03*
X120350000Y-86050000D03*
X124687906Y-80559500D03*
X125130000Y-79800000D03*
X116540000Y-86240000D03*
X120000000Y-79400000D03*
X116100000Y-85440000D03*
X116839000Y-84978000D03*
X116264000Y-84453500D03*
X116135884Y-83364355D03*
X116990000Y-83430000D03*
X121920000Y-80278500D03*
X117050000Y-81920000D03*
X121840000Y-79330000D03*
X115110000Y-81170000D03*
X114439655Y-80189655D03*
X128350000Y-78810000D03*
X113580000Y-80360000D03*
X111560000Y-80290000D03*
X121800000Y-88800000D03*
X113350000Y-84350000D03*
X99240000Y-82890000D03*
X137250000Y-85126000D03*
X98250000Y-86860000D03*
X100020000Y-91370000D03*
X108049122Y-75859122D03*
X108997825Y-82672657D03*
X108250000Y-83450000D03*
X109460000Y-84050000D03*
X111301754Y-89148246D03*
X111898339Y-88739132D03*
X112525895Y-88351575D03*
X113049839Y-88871723D03*
X113721500Y-89190500D03*
X134800000Y-83100000D03*
X115330000Y-87350000D03*
X115947094Y-86842906D03*
X134800000Y-79100000D03*
X121030000Y-83970000D03*
X110850000Y-84450000D03*
X110750000Y-86100000D03*
X107376000Y-80370000D03*
X97710000Y-91370000D03*
G04 #@! TA.AperFunction,Conductor*
G36*
X148458191Y-75008196D02*
G01*
X148494155Y-75057696D01*
X148499000Y-75088289D01*
X148499000Y-90315314D01*
X148480093Y-90373505D01*
X148430593Y-90409469D01*
X148369407Y-90409469D01*
X148329996Y-90385318D01*
X148250245Y-90305567D01*
X148243308Y-90302032D01*
X148243306Y-90302031D01*
X148138502Y-90248631D01*
X148138501Y-90248631D01*
X148131562Y-90245095D01*
X148123869Y-90243876D01*
X148123867Y-90243876D01*
X148007697Y-90225477D01*
X148000000Y-90224258D01*
X147992303Y-90225477D01*
X147876133Y-90243876D01*
X147876131Y-90243876D01*
X147868438Y-90245095D01*
X147861499Y-90248631D01*
X147861498Y-90248631D01*
X147756694Y-90302031D01*
X147756692Y-90302032D01*
X147749755Y-90305567D01*
X147655567Y-90399755D01*
X147595095Y-90518438D01*
X147574258Y-90650000D01*
X147595095Y-90781562D01*
X147655567Y-90900245D01*
X147749755Y-90994433D01*
X147756692Y-90997968D01*
X147756694Y-90997969D01*
X147821665Y-91031073D01*
X147868438Y-91054905D01*
X147876131Y-91056124D01*
X147876133Y-91056124D01*
X147992303Y-91074523D01*
X148000000Y-91075742D01*
X148007697Y-91074523D01*
X148123867Y-91056124D01*
X148123869Y-91056124D01*
X148131562Y-91054905D01*
X148178335Y-91031073D01*
X148243306Y-90997969D01*
X148243308Y-90997968D01*
X148250245Y-90994433D01*
X148329996Y-90914682D01*
X148384513Y-90886905D01*
X148444945Y-90896476D01*
X148488210Y-90939741D01*
X148499000Y-90984686D01*
X148499000Y-94307903D01*
X148480093Y-94366094D01*
X148430593Y-94402058D01*
X148400000Y-94406903D01*
X96479936Y-94406903D01*
X96421745Y-94387996D01*
X96385781Y-94338496D01*
X96380936Y-94307903D01*
X96380936Y-92297000D01*
X98019749Y-92297000D01*
X98038701Y-92477312D01*
X98094727Y-92649743D01*
X98097318Y-92654231D01*
X98097319Y-92654233D01*
X98154534Y-92753332D01*
X98185379Y-92806757D01*
X98188851Y-92810613D01*
X98303226Y-92937640D01*
X98303230Y-92937644D01*
X98306696Y-92941493D01*
X98453374Y-93048061D01*
X98458106Y-93050168D01*
X98458108Y-93050169D01*
X98614267Y-93119696D01*
X98614271Y-93119697D01*
X98619005Y-93121805D01*
X98624075Y-93122883D01*
X98624076Y-93122883D01*
X98656097Y-93129689D01*
X98796348Y-93159500D01*
X98977652Y-93159500D01*
X99117903Y-93129689D01*
X99149924Y-93122883D01*
X99149925Y-93122883D01*
X99154995Y-93121805D01*
X99159729Y-93119697D01*
X99159733Y-93119696D01*
X99315892Y-93050169D01*
X99315894Y-93050168D01*
X99320626Y-93048061D01*
X99467304Y-92941493D01*
X99470770Y-92937644D01*
X99470774Y-92937640D01*
X99585149Y-92810613D01*
X99588621Y-92806757D01*
X99619466Y-92753332D01*
X99676681Y-92654233D01*
X99676682Y-92654231D01*
X99679273Y-92649743D01*
X99735299Y-92477312D01*
X99754251Y-92297000D01*
X100559749Y-92297000D01*
X100578701Y-92477312D01*
X100634727Y-92649743D01*
X100637318Y-92654231D01*
X100637319Y-92654233D01*
X100694534Y-92753332D01*
X100725379Y-92806757D01*
X100728851Y-92810613D01*
X100843226Y-92937640D01*
X100843230Y-92937644D01*
X100846696Y-92941493D01*
X100993374Y-93048061D01*
X100998106Y-93050168D01*
X100998108Y-93050169D01*
X101154267Y-93119696D01*
X101154271Y-93119697D01*
X101159005Y-93121805D01*
X101164075Y-93122883D01*
X101164076Y-93122883D01*
X101196097Y-93129689D01*
X101336348Y-93159500D01*
X101517652Y-93159500D01*
X101657903Y-93129689D01*
X101689924Y-93122883D01*
X101689925Y-93122883D01*
X101694995Y-93121805D01*
X101699729Y-93119697D01*
X101699733Y-93119696D01*
X101855892Y-93050169D01*
X101855894Y-93050168D01*
X101860626Y-93048061D01*
X102007304Y-92941493D01*
X102010770Y-92937644D01*
X102010774Y-92937640D01*
X102125149Y-92810613D01*
X102128621Y-92806757D01*
X102159466Y-92753332D01*
X102216681Y-92654233D01*
X102216682Y-92654231D01*
X102219273Y-92649743D01*
X102275299Y-92477312D01*
X102294251Y-92297000D01*
X103099749Y-92297000D01*
X103118701Y-92477312D01*
X103174727Y-92649743D01*
X103177318Y-92654231D01*
X103177319Y-92654233D01*
X103234534Y-92753332D01*
X103265379Y-92806757D01*
X103268851Y-92810613D01*
X103383226Y-92937640D01*
X103383230Y-92937644D01*
X103386696Y-92941493D01*
X103533374Y-93048061D01*
X103538106Y-93050168D01*
X103538108Y-93050169D01*
X103694267Y-93119696D01*
X103694271Y-93119697D01*
X103699005Y-93121805D01*
X103704075Y-93122883D01*
X103704076Y-93122883D01*
X103736097Y-93129689D01*
X103876348Y-93159500D01*
X104057652Y-93159500D01*
X104197903Y-93129689D01*
X104229924Y-93122883D01*
X104229925Y-93122883D01*
X104234995Y-93121805D01*
X104239729Y-93119697D01*
X104239733Y-93119696D01*
X104395892Y-93050169D01*
X104395894Y-93050168D01*
X104400626Y-93048061D01*
X104547304Y-92941493D01*
X104550770Y-92937644D01*
X104550774Y-92937640D01*
X104665149Y-92810613D01*
X104668621Y-92806757D01*
X104699466Y-92753332D01*
X104756681Y-92654233D01*
X104756682Y-92654231D01*
X104759273Y-92649743D01*
X104815299Y-92477312D01*
X104834251Y-92297000D01*
X105639749Y-92297000D01*
X105658701Y-92477312D01*
X105714727Y-92649743D01*
X105717318Y-92654231D01*
X105717319Y-92654233D01*
X105774534Y-92753332D01*
X105805379Y-92806757D01*
X105808851Y-92810613D01*
X105923226Y-92937640D01*
X105923230Y-92937644D01*
X105926696Y-92941493D01*
X106073374Y-93048061D01*
X106078106Y-93050168D01*
X106078108Y-93050169D01*
X106234267Y-93119696D01*
X106234271Y-93119697D01*
X106239005Y-93121805D01*
X106244075Y-93122883D01*
X106244076Y-93122883D01*
X106276097Y-93129689D01*
X106416348Y-93159500D01*
X106597652Y-93159500D01*
X106737903Y-93129689D01*
X106769924Y-93122883D01*
X106769925Y-93122883D01*
X106774995Y-93121805D01*
X106779729Y-93119697D01*
X106779733Y-93119696D01*
X106935892Y-93050169D01*
X106935894Y-93050168D01*
X106940626Y-93048061D01*
X107087304Y-92941493D01*
X107090770Y-92937644D01*
X107090774Y-92937640D01*
X107205149Y-92810613D01*
X107208621Y-92806757D01*
X107211214Y-92802266D01*
X107211219Y-92802259D01*
X107239467Y-92753332D01*
X107284936Y-92712391D01*
X107345786Y-92705995D01*
X107398774Y-92736588D01*
X107413413Y-92757887D01*
X107438314Y-92806757D01*
X107465567Y-92860245D01*
X107559755Y-92954433D01*
X107566692Y-92957968D01*
X107566694Y-92957969D01*
X107671498Y-93011369D01*
X107678438Y-93014905D01*
X107686131Y-93016124D01*
X107686133Y-93016124D01*
X107802303Y-93034523D01*
X107810000Y-93035742D01*
X107817697Y-93034523D01*
X107933867Y-93016124D01*
X107933869Y-93016124D01*
X107941562Y-93014905D01*
X107948502Y-93011369D01*
X108053306Y-92957969D01*
X108053308Y-92957968D01*
X108060245Y-92954433D01*
X108154433Y-92860245D01*
X108176095Y-92817731D01*
X108219359Y-92774466D01*
X108279791Y-92764894D01*
X108334308Y-92792671D01*
X108343376Y-92803288D01*
X108345379Y-92806757D01*
X108348848Y-92810610D01*
X108348849Y-92810611D01*
X108463226Y-92937640D01*
X108463230Y-92937644D01*
X108466696Y-92941493D01*
X108613374Y-93048061D01*
X108618106Y-93050168D01*
X108618108Y-93050169D01*
X108774267Y-93119696D01*
X108774271Y-93119697D01*
X108779005Y-93121805D01*
X108784075Y-93122883D01*
X108784076Y-93122883D01*
X108816097Y-93129689D01*
X108956348Y-93159500D01*
X109137652Y-93159500D01*
X109277903Y-93129689D01*
X109309924Y-93122883D01*
X109309925Y-93122883D01*
X109314995Y-93121805D01*
X109319729Y-93119697D01*
X109319733Y-93119696D01*
X109475892Y-93050169D01*
X109475894Y-93050168D01*
X109480626Y-93048061D01*
X109627304Y-92941493D01*
X109630770Y-92937644D01*
X109630774Y-92937640D01*
X109745149Y-92810613D01*
X109748621Y-92806757D01*
X109779466Y-92753332D01*
X109836681Y-92654233D01*
X109836682Y-92654231D01*
X109839273Y-92649743D01*
X109895299Y-92477312D01*
X109914251Y-92297000D01*
X110719749Y-92297000D01*
X110738701Y-92477312D01*
X110794727Y-92649743D01*
X110797318Y-92654231D01*
X110797319Y-92654233D01*
X110854534Y-92753332D01*
X110885379Y-92806757D01*
X110888851Y-92810613D01*
X111003226Y-92937640D01*
X111003230Y-92937644D01*
X111006696Y-92941493D01*
X111153374Y-93048061D01*
X111158106Y-93050168D01*
X111158108Y-93050169D01*
X111314267Y-93119696D01*
X111314271Y-93119697D01*
X111319005Y-93121805D01*
X111324075Y-93122883D01*
X111324076Y-93122883D01*
X111356097Y-93129689D01*
X111496348Y-93159500D01*
X111677652Y-93159500D01*
X111817903Y-93129689D01*
X111849924Y-93122883D01*
X111849925Y-93122883D01*
X111854995Y-93121805D01*
X111859729Y-93119697D01*
X111859733Y-93119696D01*
X112015892Y-93050169D01*
X112015894Y-93050168D01*
X112020626Y-93048061D01*
X112167304Y-92941493D01*
X112170770Y-92937644D01*
X112170774Y-92937640D01*
X112285149Y-92810613D01*
X112288621Y-92806757D01*
X112319466Y-92753332D01*
X112376681Y-92654233D01*
X112376682Y-92654231D01*
X112379273Y-92649743D01*
X112435299Y-92477312D01*
X112453201Y-92306993D01*
X113236144Y-92306993D01*
X113255096Y-92487305D01*
X113311122Y-92659736D01*
X113313713Y-92664224D01*
X113313714Y-92664226D01*
X113398230Y-92810611D01*
X113401774Y-92816750D01*
X113405246Y-92820606D01*
X113519621Y-92947633D01*
X113519625Y-92947637D01*
X113523091Y-92951486D01*
X113669769Y-93058054D01*
X113674501Y-93060161D01*
X113674503Y-93060162D01*
X113830662Y-93129689D01*
X113830666Y-93129690D01*
X113835400Y-93131798D01*
X113840470Y-93132876D01*
X113840471Y-93132876D01*
X113876563Y-93140547D01*
X114012743Y-93169493D01*
X114194047Y-93169493D01*
X114330227Y-93140547D01*
X114366319Y-93132876D01*
X114366320Y-93132876D01*
X114371390Y-93131798D01*
X114376124Y-93129690D01*
X114376128Y-93129689D01*
X114532287Y-93060162D01*
X114532289Y-93060161D01*
X114537021Y-93058054D01*
X114683699Y-92951486D01*
X114687165Y-92947637D01*
X114687169Y-92947633D01*
X114801544Y-92820606D01*
X114805016Y-92816750D01*
X114808560Y-92810611D01*
X114893076Y-92664226D01*
X114893077Y-92664224D01*
X114895668Y-92659736D01*
X114951694Y-92487305D01*
X114970646Y-92306993D01*
X114969596Y-92297000D01*
X115799749Y-92297000D01*
X115818701Y-92477312D01*
X115874727Y-92649743D01*
X115877318Y-92654231D01*
X115877319Y-92654233D01*
X115934534Y-92753332D01*
X115965379Y-92806757D01*
X115968851Y-92810613D01*
X116083226Y-92937640D01*
X116083230Y-92937644D01*
X116086696Y-92941493D01*
X116233374Y-93048061D01*
X116238106Y-93050168D01*
X116238108Y-93050169D01*
X116394267Y-93119696D01*
X116394271Y-93119697D01*
X116399005Y-93121805D01*
X116404075Y-93122883D01*
X116404076Y-93122883D01*
X116436097Y-93129689D01*
X116576348Y-93159500D01*
X116757652Y-93159500D01*
X116897903Y-93129689D01*
X116929924Y-93122883D01*
X116929925Y-93122883D01*
X116934995Y-93121805D01*
X116939729Y-93119697D01*
X116939733Y-93119696D01*
X117095892Y-93050169D01*
X117095894Y-93050168D01*
X117100626Y-93048061D01*
X117247304Y-92941493D01*
X117250770Y-92937644D01*
X117250774Y-92937640D01*
X117365149Y-92810613D01*
X117368621Y-92806757D01*
X117399466Y-92753332D01*
X117456681Y-92654233D01*
X117456682Y-92654231D01*
X117459273Y-92649743D01*
X117515299Y-92477312D01*
X117534251Y-92297000D01*
X118339749Y-92297000D01*
X118358701Y-92477312D01*
X118414727Y-92649743D01*
X118417318Y-92654231D01*
X118417319Y-92654233D01*
X118474534Y-92753332D01*
X118505379Y-92806757D01*
X118508851Y-92810613D01*
X118623226Y-92937640D01*
X118623230Y-92937644D01*
X118626696Y-92941493D01*
X118773374Y-93048061D01*
X118778106Y-93050168D01*
X118778108Y-93050169D01*
X118934267Y-93119696D01*
X118934271Y-93119697D01*
X118939005Y-93121805D01*
X118944075Y-93122883D01*
X118944076Y-93122883D01*
X118976097Y-93129689D01*
X119116348Y-93159500D01*
X119297652Y-93159500D01*
X119437903Y-93129689D01*
X119469924Y-93122883D01*
X119469925Y-93122883D01*
X119474995Y-93121805D01*
X119479729Y-93119697D01*
X119479733Y-93119696D01*
X119635892Y-93050169D01*
X119635894Y-93050168D01*
X119640626Y-93048061D01*
X119787304Y-92941493D01*
X119790770Y-92937644D01*
X119790774Y-92937640D01*
X119905149Y-92810613D01*
X119908621Y-92806757D01*
X119939466Y-92753332D01*
X119996681Y-92654233D01*
X119996682Y-92654231D01*
X119999273Y-92649743D01*
X120055299Y-92477312D01*
X120074251Y-92297000D01*
X120879749Y-92297000D01*
X120898701Y-92477312D01*
X120954727Y-92649743D01*
X120957318Y-92654231D01*
X120957319Y-92654233D01*
X121014534Y-92753332D01*
X121045379Y-92806757D01*
X121048851Y-92810613D01*
X121163226Y-92937640D01*
X121163230Y-92937644D01*
X121166696Y-92941493D01*
X121313374Y-93048061D01*
X121318106Y-93050168D01*
X121318108Y-93050169D01*
X121474267Y-93119696D01*
X121474271Y-93119697D01*
X121479005Y-93121805D01*
X121484075Y-93122883D01*
X121484076Y-93122883D01*
X121516097Y-93129689D01*
X121656348Y-93159500D01*
X121837652Y-93159500D01*
X121977903Y-93129689D01*
X122009924Y-93122883D01*
X122009925Y-93122883D01*
X122014995Y-93121805D01*
X122019729Y-93119697D01*
X122019733Y-93119696D01*
X122175892Y-93050169D01*
X122175894Y-93050168D01*
X122180626Y-93048061D01*
X122327304Y-92941493D01*
X122330770Y-92937644D01*
X122330774Y-92937640D01*
X122445149Y-92810613D01*
X122448621Y-92806757D01*
X122479466Y-92753332D01*
X122536681Y-92654233D01*
X122536682Y-92654231D01*
X122539273Y-92649743D01*
X122595299Y-92477312D01*
X122614251Y-92297000D01*
X123419749Y-92297000D01*
X123438701Y-92477312D01*
X123494727Y-92649743D01*
X123497318Y-92654231D01*
X123497319Y-92654233D01*
X123554534Y-92753332D01*
X123585379Y-92806757D01*
X123588851Y-92810613D01*
X123703226Y-92937640D01*
X123703230Y-92937644D01*
X123706696Y-92941493D01*
X123853374Y-93048061D01*
X123858106Y-93050168D01*
X123858108Y-93050169D01*
X124014267Y-93119696D01*
X124014271Y-93119697D01*
X124019005Y-93121805D01*
X124024075Y-93122883D01*
X124024076Y-93122883D01*
X124056097Y-93129689D01*
X124196348Y-93159500D01*
X124377652Y-93159500D01*
X124517903Y-93129689D01*
X124549924Y-93122883D01*
X124549925Y-93122883D01*
X124554995Y-93121805D01*
X124559729Y-93119697D01*
X124559733Y-93119696D01*
X124715892Y-93050169D01*
X124715894Y-93050168D01*
X124720626Y-93048061D01*
X124867304Y-92941493D01*
X124870770Y-92937644D01*
X124870774Y-92937640D01*
X124985149Y-92810613D01*
X124988621Y-92806757D01*
X125019466Y-92753332D01*
X125076681Y-92654233D01*
X125076682Y-92654231D01*
X125079273Y-92649743D01*
X125135299Y-92477312D01*
X125154251Y-92297000D01*
X125959749Y-92297000D01*
X125978701Y-92477312D01*
X126034727Y-92649743D01*
X126037318Y-92654231D01*
X126037319Y-92654233D01*
X126094534Y-92753332D01*
X126125379Y-92806757D01*
X126128851Y-92810613D01*
X126243226Y-92937640D01*
X126243230Y-92937644D01*
X126246696Y-92941493D01*
X126393374Y-93048061D01*
X126398106Y-93050168D01*
X126398108Y-93050169D01*
X126554267Y-93119696D01*
X126554271Y-93119697D01*
X126559005Y-93121805D01*
X126564075Y-93122883D01*
X126564076Y-93122883D01*
X126596097Y-93129689D01*
X126736348Y-93159500D01*
X126917652Y-93159500D01*
X127057903Y-93129689D01*
X127089924Y-93122883D01*
X127089925Y-93122883D01*
X127094995Y-93121805D01*
X127099729Y-93119697D01*
X127099733Y-93119696D01*
X127255892Y-93050169D01*
X127255894Y-93050168D01*
X127260626Y-93048061D01*
X127407304Y-92941493D01*
X127410770Y-92937644D01*
X127410774Y-92937640D01*
X127525149Y-92810613D01*
X127528621Y-92806757D01*
X127559466Y-92753332D01*
X127616681Y-92654233D01*
X127616682Y-92654231D01*
X127619273Y-92649743D01*
X127675299Y-92477312D01*
X127694251Y-92297000D01*
X128499749Y-92297000D01*
X128518701Y-92477312D01*
X128574727Y-92649743D01*
X128577318Y-92654231D01*
X128577319Y-92654233D01*
X128634534Y-92753332D01*
X128665379Y-92806757D01*
X128668851Y-92810613D01*
X128783226Y-92937640D01*
X128783230Y-92937644D01*
X128786696Y-92941493D01*
X128933374Y-93048061D01*
X128938106Y-93050168D01*
X128938108Y-93050169D01*
X129094267Y-93119696D01*
X129094271Y-93119697D01*
X129099005Y-93121805D01*
X129104075Y-93122883D01*
X129104076Y-93122883D01*
X129136097Y-93129689D01*
X129276348Y-93159500D01*
X129457652Y-93159500D01*
X129597903Y-93129689D01*
X129629924Y-93122883D01*
X129629925Y-93122883D01*
X129634995Y-93121805D01*
X129639729Y-93119697D01*
X129639733Y-93119696D01*
X129795892Y-93050169D01*
X129795894Y-93050168D01*
X129800626Y-93048061D01*
X129947304Y-92941493D01*
X129950770Y-92937644D01*
X129950774Y-92937640D01*
X130065149Y-92810613D01*
X130068621Y-92806757D01*
X130099466Y-92753332D01*
X130156681Y-92654233D01*
X130156682Y-92654231D01*
X130159273Y-92649743D01*
X130215299Y-92477312D01*
X130234251Y-92297000D01*
X131039749Y-92297000D01*
X131058701Y-92477312D01*
X131114727Y-92649743D01*
X131117318Y-92654231D01*
X131117319Y-92654233D01*
X131174534Y-92753332D01*
X131205379Y-92806757D01*
X131208851Y-92810613D01*
X131323226Y-92937640D01*
X131323230Y-92937644D01*
X131326696Y-92941493D01*
X131473374Y-93048061D01*
X131478106Y-93050168D01*
X131478108Y-93050169D01*
X131634267Y-93119696D01*
X131634271Y-93119697D01*
X131639005Y-93121805D01*
X131644075Y-93122883D01*
X131644076Y-93122883D01*
X131676097Y-93129689D01*
X131816348Y-93159500D01*
X131997652Y-93159500D01*
X132137903Y-93129689D01*
X132169924Y-93122883D01*
X132169925Y-93122883D01*
X132174995Y-93121805D01*
X132179729Y-93119697D01*
X132179733Y-93119696D01*
X132335892Y-93050169D01*
X132335894Y-93050168D01*
X132340626Y-93048061D01*
X132487304Y-92941493D01*
X132490770Y-92937644D01*
X132490774Y-92937640D01*
X132605149Y-92810613D01*
X132608621Y-92806757D01*
X132639466Y-92753332D01*
X132696681Y-92654233D01*
X132696682Y-92654231D01*
X132699273Y-92649743D01*
X132755299Y-92477312D01*
X132774251Y-92297000D01*
X133579749Y-92297000D01*
X133598701Y-92477312D01*
X133654727Y-92649743D01*
X133657318Y-92654231D01*
X133657319Y-92654233D01*
X133714534Y-92753332D01*
X133745379Y-92806757D01*
X133748851Y-92810613D01*
X133863226Y-92937640D01*
X133863230Y-92937644D01*
X133866696Y-92941493D01*
X134013374Y-93048061D01*
X134018106Y-93050168D01*
X134018108Y-93050169D01*
X134174267Y-93119696D01*
X134174271Y-93119697D01*
X134179005Y-93121805D01*
X134184075Y-93122883D01*
X134184076Y-93122883D01*
X134216097Y-93129689D01*
X134356348Y-93159500D01*
X134537652Y-93159500D01*
X134677903Y-93129689D01*
X134709924Y-93122883D01*
X134709925Y-93122883D01*
X134714995Y-93121805D01*
X134719729Y-93119697D01*
X134719733Y-93119696D01*
X134875892Y-93050169D01*
X134875894Y-93050168D01*
X134880626Y-93048061D01*
X135027304Y-92941493D01*
X135030770Y-92937644D01*
X135030774Y-92937640D01*
X135145149Y-92810613D01*
X135148621Y-92806757D01*
X135179466Y-92753332D01*
X135236681Y-92654233D01*
X135236682Y-92654231D01*
X135239273Y-92649743D01*
X135295299Y-92477312D01*
X135314251Y-92297000D01*
X136119749Y-92297000D01*
X136138701Y-92477312D01*
X136194727Y-92649743D01*
X136197318Y-92654231D01*
X136197319Y-92654233D01*
X136254534Y-92753332D01*
X136285379Y-92806757D01*
X136288851Y-92810613D01*
X136403226Y-92937640D01*
X136403230Y-92937644D01*
X136406696Y-92941493D01*
X136553374Y-93048061D01*
X136558106Y-93050168D01*
X136558108Y-93050169D01*
X136714267Y-93119696D01*
X136714271Y-93119697D01*
X136719005Y-93121805D01*
X136724075Y-93122883D01*
X136724076Y-93122883D01*
X136756097Y-93129689D01*
X136896348Y-93159500D01*
X137077652Y-93159500D01*
X137217903Y-93129689D01*
X137249924Y-93122883D01*
X137249925Y-93122883D01*
X137254995Y-93121805D01*
X137259729Y-93119697D01*
X137259733Y-93119696D01*
X137415892Y-93050169D01*
X137415894Y-93050168D01*
X137420626Y-93048061D01*
X137567304Y-92941493D01*
X137570770Y-92937644D01*
X137570774Y-92937640D01*
X137685149Y-92810613D01*
X137688621Y-92806757D01*
X137719466Y-92753332D01*
X137776681Y-92654233D01*
X137776682Y-92654231D01*
X137779273Y-92649743D01*
X137835299Y-92477312D01*
X137854251Y-92297000D01*
X138659749Y-92297000D01*
X138678701Y-92477312D01*
X138734727Y-92649743D01*
X138737318Y-92654231D01*
X138737319Y-92654233D01*
X138794534Y-92753332D01*
X138825379Y-92806757D01*
X138828851Y-92810613D01*
X138943226Y-92937640D01*
X138943230Y-92937644D01*
X138946696Y-92941493D01*
X139093374Y-93048061D01*
X139098106Y-93050168D01*
X139098108Y-93050169D01*
X139254267Y-93119696D01*
X139254271Y-93119697D01*
X139259005Y-93121805D01*
X139264075Y-93122883D01*
X139264076Y-93122883D01*
X139296097Y-93129689D01*
X139436348Y-93159500D01*
X139617652Y-93159500D01*
X139757903Y-93129689D01*
X139789924Y-93122883D01*
X139789925Y-93122883D01*
X139794995Y-93121805D01*
X139799729Y-93119697D01*
X139799733Y-93119696D01*
X139955892Y-93050169D01*
X139955894Y-93050168D01*
X139960626Y-93048061D01*
X140107304Y-92941493D01*
X140110770Y-92937644D01*
X140110774Y-92937640D01*
X140225149Y-92810613D01*
X140228621Y-92806757D01*
X140259466Y-92753332D01*
X140316681Y-92654233D01*
X140316682Y-92654231D01*
X140319273Y-92649743D01*
X140375299Y-92477312D01*
X140394251Y-92297000D01*
X141199749Y-92297000D01*
X141218701Y-92477312D01*
X141274727Y-92649743D01*
X141277318Y-92654231D01*
X141277319Y-92654233D01*
X141334534Y-92753332D01*
X141365379Y-92806757D01*
X141368851Y-92810613D01*
X141483226Y-92937640D01*
X141483230Y-92937644D01*
X141486696Y-92941493D01*
X141633374Y-93048061D01*
X141638106Y-93050168D01*
X141638108Y-93050169D01*
X141794267Y-93119696D01*
X141794271Y-93119697D01*
X141799005Y-93121805D01*
X141804075Y-93122883D01*
X141804076Y-93122883D01*
X141836097Y-93129689D01*
X141976348Y-93159500D01*
X142157652Y-93159500D01*
X142297903Y-93129689D01*
X142329924Y-93122883D01*
X142329925Y-93122883D01*
X142334995Y-93121805D01*
X142339729Y-93119697D01*
X142339733Y-93119696D01*
X142495892Y-93050169D01*
X142495894Y-93050168D01*
X142500626Y-93048061D01*
X142647304Y-92941493D01*
X142650770Y-92937644D01*
X142650774Y-92937640D01*
X142765149Y-92810613D01*
X142768621Y-92806757D01*
X142799466Y-92753332D01*
X142856681Y-92654233D01*
X142856682Y-92654231D01*
X142859273Y-92649743D01*
X142915299Y-92477312D01*
X142934251Y-92297000D01*
X146279749Y-92297000D01*
X146298701Y-92477312D01*
X146354727Y-92649743D01*
X146357318Y-92654231D01*
X146357319Y-92654233D01*
X146414534Y-92753332D01*
X146445379Y-92806757D01*
X146448851Y-92810613D01*
X146563226Y-92937640D01*
X146563230Y-92937644D01*
X146566696Y-92941493D01*
X146713374Y-93048061D01*
X146718106Y-93050168D01*
X146718108Y-93050169D01*
X146874267Y-93119696D01*
X146874271Y-93119697D01*
X146879005Y-93121805D01*
X146884075Y-93122883D01*
X146884076Y-93122883D01*
X146916097Y-93129689D01*
X147056348Y-93159500D01*
X147237652Y-93159500D01*
X147377903Y-93129689D01*
X147409924Y-93122883D01*
X147409925Y-93122883D01*
X147414995Y-93121805D01*
X147419729Y-93119697D01*
X147419733Y-93119696D01*
X147575892Y-93050169D01*
X147575894Y-93050168D01*
X147580626Y-93048061D01*
X147727304Y-92941493D01*
X147730770Y-92937644D01*
X147730774Y-92937640D01*
X147845149Y-92810613D01*
X147848621Y-92806757D01*
X147879466Y-92753332D01*
X147936681Y-92654233D01*
X147936682Y-92654231D01*
X147939273Y-92649743D01*
X147995299Y-92477312D01*
X148014251Y-92297000D01*
X147995299Y-92116688D01*
X147939273Y-91944257D01*
X147876712Y-91835897D01*
X147851214Y-91791734D01*
X147851213Y-91791733D01*
X147848621Y-91787243D01*
X147788213Y-91720153D01*
X147730774Y-91656360D01*
X147730770Y-91656356D01*
X147727304Y-91652507D01*
X147580626Y-91545939D01*
X147575894Y-91543832D01*
X147575892Y-91543831D01*
X147419733Y-91474304D01*
X147419729Y-91474303D01*
X147414995Y-91472195D01*
X147409925Y-91471117D01*
X147409924Y-91471117D01*
X147373832Y-91463446D01*
X147237652Y-91434500D01*
X147056348Y-91434500D01*
X146920168Y-91463446D01*
X146884076Y-91471117D01*
X146884075Y-91471117D01*
X146879005Y-91472195D01*
X146874269Y-91474304D01*
X146874268Y-91474304D01*
X146718109Y-91543831D01*
X146718107Y-91543832D01*
X146713375Y-91545939D01*
X146566696Y-91652507D01*
X146563230Y-91656356D01*
X146563226Y-91656360D01*
X146505787Y-91720153D01*
X146445379Y-91787243D01*
X146442787Y-91791733D01*
X146442786Y-91791734D01*
X146417289Y-91835897D01*
X146354727Y-91944257D01*
X146298701Y-92116688D01*
X146279749Y-92297000D01*
X142934251Y-92297000D01*
X142915299Y-92116688D01*
X142859273Y-91944257D01*
X142796712Y-91835897D01*
X142771214Y-91791734D01*
X142771213Y-91791733D01*
X142768621Y-91787243D01*
X142708213Y-91720153D01*
X142650774Y-91656360D01*
X142650770Y-91656356D01*
X142647304Y-91652507D01*
X142500626Y-91545939D01*
X142495894Y-91543832D01*
X142495892Y-91543831D01*
X142339733Y-91474304D01*
X142339729Y-91474303D01*
X142334995Y-91472195D01*
X142329925Y-91471117D01*
X142329924Y-91471117D01*
X142293832Y-91463446D01*
X142157652Y-91434500D01*
X141976348Y-91434500D01*
X141840168Y-91463446D01*
X141804076Y-91471117D01*
X141804075Y-91471117D01*
X141799005Y-91472195D01*
X141794269Y-91474304D01*
X141794268Y-91474304D01*
X141638109Y-91543831D01*
X141638107Y-91543832D01*
X141633375Y-91545939D01*
X141486696Y-91652507D01*
X141483230Y-91656356D01*
X141483226Y-91656360D01*
X141425787Y-91720153D01*
X141365379Y-91787243D01*
X141362787Y-91791733D01*
X141362786Y-91791734D01*
X141337289Y-91835897D01*
X141274727Y-91944257D01*
X141218701Y-92116688D01*
X141199749Y-92297000D01*
X140394251Y-92297000D01*
X140375299Y-92116688D01*
X140319273Y-91944257D01*
X140256712Y-91835897D01*
X140231214Y-91791734D01*
X140231213Y-91791733D01*
X140228621Y-91787243D01*
X140168213Y-91720153D01*
X140110774Y-91656360D01*
X140110770Y-91656356D01*
X140107304Y-91652507D01*
X139960626Y-91545939D01*
X139955894Y-91543832D01*
X139955892Y-91543831D01*
X139799733Y-91474304D01*
X139799729Y-91474303D01*
X139794995Y-91472195D01*
X139789925Y-91471117D01*
X139789924Y-91471117D01*
X139753832Y-91463446D01*
X139617652Y-91434500D01*
X139436348Y-91434500D01*
X139300168Y-91463446D01*
X139264076Y-91471117D01*
X139264075Y-91471117D01*
X139259005Y-91472195D01*
X139254269Y-91474304D01*
X139254268Y-91474304D01*
X139098109Y-91543831D01*
X139098107Y-91543832D01*
X139093375Y-91545939D01*
X138946696Y-91652507D01*
X138943230Y-91656356D01*
X138943226Y-91656360D01*
X138885787Y-91720153D01*
X138825379Y-91787243D01*
X138822787Y-91791733D01*
X138822786Y-91791734D01*
X138797289Y-91835897D01*
X138734727Y-91944257D01*
X138678701Y-92116688D01*
X138659749Y-92297000D01*
X137854251Y-92297000D01*
X137835299Y-92116688D01*
X137779273Y-91944257D01*
X137716712Y-91835897D01*
X137691214Y-91791734D01*
X137691213Y-91791733D01*
X137688621Y-91787243D01*
X137628213Y-91720153D01*
X137570774Y-91656360D01*
X137570770Y-91656356D01*
X137567304Y-91652507D01*
X137420626Y-91545939D01*
X137415894Y-91543832D01*
X137415892Y-91543831D01*
X137259733Y-91474304D01*
X137259729Y-91474303D01*
X137254995Y-91472195D01*
X137249925Y-91471117D01*
X137249924Y-91471117D01*
X137213832Y-91463446D01*
X137077652Y-91434500D01*
X136896348Y-91434500D01*
X136760168Y-91463446D01*
X136724076Y-91471117D01*
X136724075Y-91471117D01*
X136719005Y-91472195D01*
X136714269Y-91474304D01*
X136714268Y-91474304D01*
X136558109Y-91543831D01*
X136558107Y-91543832D01*
X136553375Y-91545939D01*
X136406696Y-91652507D01*
X136403230Y-91656356D01*
X136403226Y-91656360D01*
X136345787Y-91720153D01*
X136285379Y-91787243D01*
X136282787Y-91791733D01*
X136282786Y-91791734D01*
X136257289Y-91835897D01*
X136194727Y-91944257D01*
X136138701Y-92116688D01*
X136119749Y-92297000D01*
X135314251Y-92297000D01*
X135295299Y-92116688D01*
X135239273Y-91944257D01*
X135176712Y-91835897D01*
X135151214Y-91791734D01*
X135151213Y-91791733D01*
X135148621Y-91787243D01*
X135088213Y-91720153D01*
X135030774Y-91656360D01*
X135030770Y-91656356D01*
X135027304Y-91652507D01*
X134880626Y-91545939D01*
X134875894Y-91543832D01*
X134875892Y-91543831D01*
X134719733Y-91474304D01*
X134719729Y-91474303D01*
X134714995Y-91472195D01*
X134709925Y-91471117D01*
X134709924Y-91471117D01*
X134673832Y-91463446D01*
X134537652Y-91434500D01*
X134356348Y-91434500D01*
X134220168Y-91463446D01*
X134184076Y-91471117D01*
X134184075Y-91471117D01*
X134179005Y-91472195D01*
X134174269Y-91474304D01*
X134174268Y-91474304D01*
X134018109Y-91543831D01*
X134018107Y-91543832D01*
X134013375Y-91545939D01*
X133866696Y-91652507D01*
X133863230Y-91656356D01*
X133863226Y-91656360D01*
X133805787Y-91720153D01*
X133745379Y-91787243D01*
X133742787Y-91791733D01*
X133742786Y-91791734D01*
X133717289Y-91835897D01*
X133654727Y-91944257D01*
X133598701Y-92116688D01*
X133579749Y-92297000D01*
X132774251Y-92297000D01*
X132755299Y-92116688D01*
X132699273Y-91944257D01*
X132636712Y-91835897D01*
X132611214Y-91791734D01*
X132611213Y-91791733D01*
X132608621Y-91787243D01*
X132548213Y-91720153D01*
X132490774Y-91656360D01*
X132490770Y-91656356D01*
X132487304Y-91652507D01*
X132340626Y-91545939D01*
X132335894Y-91543832D01*
X132335892Y-91543831D01*
X132179733Y-91474304D01*
X132179729Y-91474303D01*
X132174995Y-91472195D01*
X132169925Y-91471117D01*
X132169924Y-91471117D01*
X132133832Y-91463446D01*
X131997652Y-91434500D01*
X131816348Y-91434500D01*
X131680168Y-91463446D01*
X131644076Y-91471117D01*
X131644075Y-91471117D01*
X131639005Y-91472195D01*
X131634269Y-91474304D01*
X131634268Y-91474304D01*
X131478109Y-91543831D01*
X131478107Y-91543832D01*
X131473375Y-91545939D01*
X131326696Y-91652507D01*
X131323230Y-91656356D01*
X131323226Y-91656360D01*
X131265787Y-91720153D01*
X131205379Y-91787243D01*
X131202787Y-91791733D01*
X131202786Y-91791734D01*
X131177289Y-91835897D01*
X131114727Y-91944257D01*
X131058701Y-92116688D01*
X131039749Y-92297000D01*
X130234251Y-92297000D01*
X130215299Y-92116688D01*
X130159273Y-91944257D01*
X130096712Y-91835897D01*
X130071214Y-91791734D01*
X130071213Y-91791733D01*
X130068621Y-91787243D01*
X130008213Y-91720153D01*
X129950774Y-91656360D01*
X129950770Y-91656356D01*
X129947304Y-91652507D01*
X129800626Y-91545939D01*
X129795894Y-91543832D01*
X129795892Y-91543831D01*
X129639733Y-91474304D01*
X129639729Y-91474303D01*
X129634995Y-91472195D01*
X129629925Y-91471117D01*
X129629924Y-91471117D01*
X129593832Y-91463446D01*
X129457652Y-91434500D01*
X129276348Y-91434500D01*
X129140168Y-91463446D01*
X129104076Y-91471117D01*
X129104075Y-91471117D01*
X129099005Y-91472195D01*
X129094269Y-91474304D01*
X129094268Y-91474304D01*
X128938109Y-91543831D01*
X128938107Y-91543832D01*
X128933375Y-91545939D01*
X128786696Y-91652507D01*
X128783230Y-91656356D01*
X128783226Y-91656360D01*
X128725787Y-91720153D01*
X128665379Y-91787243D01*
X128662787Y-91791733D01*
X128662786Y-91791734D01*
X128637289Y-91835897D01*
X128574727Y-91944257D01*
X128518701Y-92116688D01*
X128499749Y-92297000D01*
X127694251Y-92297000D01*
X127675299Y-92116688D01*
X127619273Y-91944257D01*
X127556712Y-91835897D01*
X127531214Y-91791734D01*
X127531213Y-91791733D01*
X127528621Y-91787243D01*
X127468213Y-91720153D01*
X127410774Y-91656360D01*
X127410770Y-91656356D01*
X127407304Y-91652507D01*
X127260626Y-91545939D01*
X127255894Y-91543832D01*
X127255892Y-91543831D01*
X127099733Y-91474304D01*
X127099729Y-91474303D01*
X127094995Y-91472195D01*
X127089925Y-91471117D01*
X127089924Y-91471117D01*
X127053832Y-91463446D01*
X126917652Y-91434500D01*
X126736348Y-91434500D01*
X126600168Y-91463446D01*
X126564076Y-91471117D01*
X126564075Y-91471117D01*
X126559005Y-91472195D01*
X126554269Y-91474304D01*
X126554268Y-91474304D01*
X126398109Y-91543831D01*
X126398107Y-91543832D01*
X126393375Y-91545939D01*
X126246696Y-91652507D01*
X126243230Y-91656356D01*
X126243226Y-91656360D01*
X126185787Y-91720153D01*
X126125379Y-91787243D01*
X126122787Y-91791733D01*
X126122786Y-91791734D01*
X126097289Y-91835897D01*
X126034727Y-91944257D01*
X125978701Y-92116688D01*
X125959749Y-92297000D01*
X125154251Y-92297000D01*
X125135299Y-92116688D01*
X125079273Y-91944257D01*
X125016712Y-91835897D01*
X124991214Y-91791734D01*
X124991213Y-91791733D01*
X124988621Y-91787243D01*
X124928213Y-91720153D01*
X124870774Y-91656360D01*
X124870770Y-91656356D01*
X124867304Y-91652507D01*
X124720626Y-91545939D01*
X124715894Y-91543832D01*
X124715892Y-91543831D01*
X124559733Y-91474304D01*
X124559729Y-91474303D01*
X124554995Y-91472195D01*
X124549925Y-91471117D01*
X124549924Y-91471117D01*
X124513832Y-91463446D01*
X124377652Y-91434500D01*
X124196348Y-91434500D01*
X124060168Y-91463446D01*
X124024076Y-91471117D01*
X124024075Y-91471117D01*
X124019005Y-91472195D01*
X124014269Y-91474304D01*
X124014268Y-91474304D01*
X123858109Y-91543831D01*
X123858107Y-91543832D01*
X123853375Y-91545939D01*
X123706696Y-91652507D01*
X123703230Y-91656356D01*
X123703226Y-91656360D01*
X123645787Y-91720153D01*
X123585379Y-91787243D01*
X123582787Y-91791733D01*
X123582786Y-91791734D01*
X123557289Y-91835897D01*
X123494727Y-91944257D01*
X123438701Y-92116688D01*
X123419749Y-92297000D01*
X122614251Y-92297000D01*
X122595299Y-92116688D01*
X122539273Y-91944257D01*
X122476712Y-91835897D01*
X122451214Y-91791734D01*
X122451213Y-91791733D01*
X122448621Y-91787243D01*
X122388213Y-91720153D01*
X122330774Y-91656360D01*
X122330770Y-91656356D01*
X122327304Y-91652507D01*
X122180626Y-91545939D01*
X122175894Y-91543832D01*
X122175892Y-91543831D01*
X122019733Y-91474304D01*
X122019729Y-91474303D01*
X122014995Y-91472195D01*
X122009925Y-91471117D01*
X122009924Y-91471117D01*
X121973832Y-91463446D01*
X121837652Y-91434500D01*
X121656348Y-91434500D01*
X121520168Y-91463446D01*
X121484076Y-91471117D01*
X121484075Y-91471117D01*
X121479005Y-91472195D01*
X121474269Y-91474304D01*
X121474268Y-91474304D01*
X121318109Y-91543831D01*
X121318107Y-91543832D01*
X121313375Y-91545939D01*
X121166696Y-91652507D01*
X121163230Y-91656356D01*
X121163226Y-91656360D01*
X121105787Y-91720153D01*
X121045379Y-91787243D01*
X121042787Y-91791733D01*
X121042786Y-91791734D01*
X121017289Y-91835897D01*
X120954727Y-91944257D01*
X120898701Y-92116688D01*
X120879749Y-92297000D01*
X120074251Y-92297000D01*
X120055299Y-92116688D01*
X119999273Y-91944257D01*
X119936712Y-91835897D01*
X119911214Y-91791734D01*
X119911213Y-91791733D01*
X119908621Y-91787243D01*
X119848213Y-91720153D01*
X119790774Y-91656360D01*
X119790770Y-91656356D01*
X119787304Y-91652507D01*
X119640626Y-91545939D01*
X119635894Y-91543832D01*
X119635892Y-91543831D01*
X119479733Y-91474304D01*
X119479729Y-91474303D01*
X119474995Y-91472195D01*
X119469925Y-91471117D01*
X119469924Y-91471117D01*
X119433832Y-91463446D01*
X119297652Y-91434500D01*
X119116348Y-91434500D01*
X118980168Y-91463446D01*
X118944076Y-91471117D01*
X118944075Y-91471117D01*
X118939005Y-91472195D01*
X118934269Y-91474304D01*
X118934268Y-91474304D01*
X118778109Y-91543831D01*
X118778107Y-91543832D01*
X118773375Y-91545939D01*
X118626696Y-91652507D01*
X118623230Y-91656356D01*
X118623226Y-91656360D01*
X118565787Y-91720153D01*
X118505379Y-91787243D01*
X118502787Y-91791733D01*
X118502786Y-91791734D01*
X118477289Y-91835897D01*
X118414727Y-91944257D01*
X118358701Y-92116688D01*
X118339749Y-92297000D01*
X117534251Y-92297000D01*
X117515299Y-92116688D01*
X117459273Y-91944257D01*
X117396712Y-91835897D01*
X117371214Y-91791734D01*
X117371213Y-91791733D01*
X117368621Y-91787243D01*
X117308213Y-91720153D01*
X117250774Y-91656360D01*
X117250770Y-91656356D01*
X117247304Y-91652507D01*
X117100626Y-91545939D01*
X117095894Y-91543832D01*
X117095892Y-91543831D01*
X116939733Y-91474304D01*
X116939729Y-91474303D01*
X116934995Y-91472195D01*
X116929925Y-91471117D01*
X116929924Y-91471117D01*
X116893832Y-91463446D01*
X116757652Y-91434500D01*
X116576348Y-91434500D01*
X116440168Y-91463446D01*
X116404076Y-91471117D01*
X116404075Y-91471117D01*
X116399005Y-91472195D01*
X116394269Y-91474304D01*
X116394268Y-91474304D01*
X116238109Y-91543831D01*
X116238107Y-91543832D01*
X116233375Y-91545939D01*
X116086696Y-91652507D01*
X116083230Y-91656356D01*
X116083226Y-91656360D01*
X116025787Y-91720153D01*
X115965379Y-91787243D01*
X115962787Y-91791733D01*
X115962786Y-91791734D01*
X115937289Y-91835897D01*
X115874727Y-91944257D01*
X115818701Y-92116688D01*
X115799749Y-92297000D01*
X114969596Y-92297000D01*
X114951694Y-92126681D01*
X114895668Y-91954250D01*
X114887307Y-91939767D01*
X114807609Y-91801727D01*
X114807608Y-91801726D01*
X114805016Y-91797236D01*
X114730460Y-91714433D01*
X114687169Y-91666353D01*
X114687165Y-91666349D01*
X114683699Y-91662500D01*
X114537021Y-91555932D01*
X114532289Y-91553825D01*
X114532287Y-91553824D01*
X114376128Y-91484297D01*
X114376124Y-91484296D01*
X114371390Y-91482188D01*
X114366320Y-91481110D01*
X114366319Y-91481110D01*
X114319304Y-91471117D01*
X114194047Y-91444493D01*
X114012743Y-91444493D01*
X113887486Y-91471117D01*
X113840471Y-91481110D01*
X113840470Y-91481110D01*
X113835400Y-91482188D01*
X113830664Y-91484297D01*
X113830663Y-91484297D01*
X113674504Y-91553824D01*
X113674502Y-91553825D01*
X113669770Y-91555932D01*
X113523091Y-91662500D01*
X113519625Y-91666349D01*
X113519621Y-91666353D01*
X113476330Y-91714433D01*
X113401774Y-91797236D01*
X113399182Y-91801726D01*
X113399181Y-91801727D01*
X113319484Y-91939767D01*
X113311122Y-91954250D01*
X113255096Y-92126681D01*
X113236144Y-92306993D01*
X112453201Y-92306993D01*
X112454251Y-92297000D01*
X112435299Y-92116688D01*
X112379273Y-91944257D01*
X112316712Y-91835897D01*
X112291214Y-91791734D01*
X112291213Y-91791733D01*
X112288621Y-91787243D01*
X112228213Y-91720153D01*
X112170774Y-91656360D01*
X112170770Y-91656356D01*
X112167304Y-91652507D01*
X112020626Y-91545939D01*
X112015894Y-91543832D01*
X112015892Y-91543831D01*
X111859733Y-91474304D01*
X111859729Y-91474303D01*
X111854995Y-91472195D01*
X111849925Y-91471117D01*
X111849924Y-91471117D01*
X111813832Y-91463446D01*
X111677652Y-91434500D01*
X111496348Y-91434500D01*
X111360168Y-91463446D01*
X111324076Y-91471117D01*
X111324075Y-91471117D01*
X111319005Y-91472195D01*
X111314269Y-91474304D01*
X111314268Y-91474304D01*
X111158109Y-91543831D01*
X111158107Y-91543832D01*
X111153375Y-91545939D01*
X111006696Y-91652507D01*
X111003230Y-91656356D01*
X111003226Y-91656360D01*
X110945787Y-91720153D01*
X110885379Y-91787243D01*
X110882787Y-91791733D01*
X110882786Y-91791734D01*
X110857289Y-91835897D01*
X110794727Y-91944257D01*
X110738701Y-92116688D01*
X110719749Y-92297000D01*
X109914251Y-92297000D01*
X109895299Y-92116688D01*
X109839273Y-91944257D01*
X109776712Y-91835897D01*
X109751214Y-91791734D01*
X109751213Y-91791733D01*
X109748621Y-91787243D01*
X109688213Y-91720153D01*
X109630774Y-91656360D01*
X109630770Y-91656356D01*
X109627304Y-91652507D01*
X109480626Y-91545939D01*
X109475894Y-91543832D01*
X109475892Y-91543831D01*
X109319733Y-91474304D01*
X109319729Y-91474303D01*
X109314995Y-91472195D01*
X109309925Y-91471117D01*
X109309924Y-91471117D01*
X109273832Y-91463446D01*
X109137652Y-91434500D01*
X108956348Y-91434500D01*
X108820168Y-91463446D01*
X108784076Y-91471117D01*
X108784075Y-91471117D01*
X108779005Y-91472195D01*
X108774269Y-91474304D01*
X108774268Y-91474304D01*
X108618109Y-91543831D01*
X108618107Y-91543832D01*
X108613375Y-91545939D01*
X108466696Y-91652507D01*
X108463230Y-91656356D01*
X108463226Y-91656360D01*
X108405787Y-91720153D01*
X108345379Y-91787243D01*
X108342787Y-91791733D01*
X108342786Y-91791734D01*
X108317289Y-91835897D01*
X108254727Y-91944257D01*
X108198701Y-92116688D01*
X108195700Y-92145244D01*
X108191867Y-92181704D01*
X108166980Y-92237600D01*
X108113991Y-92268192D01*
X108048463Y-92259564D01*
X107948505Y-92208632D01*
X107948502Y-92208631D01*
X107941562Y-92205095D01*
X107933869Y-92203876D01*
X107933867Y-92203876D01*
X107817697Y-92185477D01*
X107810000Y-92184258D01*
X107802303Y-92185477D01*
X107686133Y-92203876D01*
X107686131Y-92203876D01*
X107678438Y-92205095D01*
X107671499Y-92208631D01*
X107671498Y-92208631D01*
X107566694Y-92262031D01*
X107566692Y-92262032D01*
X107559755Y-92265567D01*
X107535670Y-92289652D01*
X107481153Y-92317429D01*
X107420721Y-92307858D01*
X107377456Y-92264593D01*
X107367208Y-92229996D01*
X107364963Y-92208631D01*
X107355299Y-92116688D01*
X107299273Y-91944257D01*
X107236712Y-91835897D01*
X107211214Y-91791734D01*
X107211213Y-91791733D01*
X107208621Y-91787243D01*
X107148213Y-91720153D01*
X107090774Y-91656360D01*
X107090770Y-91656356D01*
X107087304Y-91652507D01*
X106940626Y-91545939D01*
X106935894Y-91543832D01*
X106935892Y-91543831D01*
X106779733Y-91474304D01*
X106779729Y-91474303D01*
X106774995Y-91472195D01*
X106769925Y-91471117D01*
X106769924Y-91471117D01*
X106733832Y-91463446D01*
X106597652Y-91434500D01*
X106416348Y-91434500D01*
X106280168Y-91463446D01*
X106244076Y-91471117D01*
X106244075Y-91471117D01*
X106239005Y-91472195D01*
X106234269Y-91474304D01*
X106234268Y-91474304D01*
X106078109Y-91543831D01*
X106078107Y-91543832D01*
X106073375Y-91545939D01*
X105926696Y-91652507D01*
X105923230Y-91656356D01*
X105923226Y-91656360D01*
X105865787Y-91720153D01*
X105805379Y-91787243D01*
X105802787Y-91791733D01*
X105802786Y-91791734D01*
X105777289Y-91835897D01*
X105714727Y-91944257D01*
X105658701Y-92116688D01*
X105639749Y-92297000D01*
X104834251Y-92297000D01*
X104815299Y-92116688D01*
X104759273Y-91944257D01*
X104696712Y-91835897D01*
X104671214Y-91791734D01*
X104671213Y-91791733D01*
X104668621Y-91787243D01*
X104608213Y-91720153D01*
X104550774Y-91656360D01*
X104550770Y-91656356D01*
X104547304Y-91652507D01*
X104400626Y-91545939D01*
X104395894Y-91543832D01*
X104395892Y-91543831D01*
X104239733Y-91474304D01*
X104239729Y-91474303D01*
X104234995Y-91472195D01*
X104229925Y-91471117D01*
X104229924Y-91471117D01*
X104193832Y-91463446D01*
X104057652Y-91434500D01*
X103876348Y-91434500D01*
X103740168Y-91463446D01*
X103704076Y-91471117D01*
X103704075Y-91471117D01*
X103699005Y-91472195D01*
X103694269Y-91474304D01*
X103694268Y-91474304D01*
X103538109Y-91543831D01*
X103538107Y-91543832D01*
X103533375Y-91545939D01*
X103386696Y-91652507D01*
X103383230Y-91656356D01*
X103383226Y-91656360D01*
X103325787Y-91720153D01*
X103265379Y-91787243D01*
X103262787Y-91791733D01*
X103262786Y-91791734D01*
X103237289Y-91835897D01*
X103174727Y-91944257D01*
X103118701Y-92116688D01*
X103099749Y-92297000D01*
X102294251Y-92297000D01*
X102275299Y-92116688D01*
X102219273Y-91944257D01*
X102156712Y-91835897D01*
X102131214Y-91791734D01*
X102131213Y-91791733D01*
X102128621Y-91787243D01*
X102068213Y-91720153D01*
X102010774Y-91656360D01*
X102010770Y-91656356D01*
X102007304Y-91652507D01*
X101860626Y-91545939D01*
X101855894Y-91543832D01*
X101855892Y-91543831D01*
X101699733Y-91474304D01*
X101699729Y-91474303D01*
X101694995Y-91472195D01*
X101689925Y-91471117D01*
X101689924Y-91471117D01*
X101653832Y-91463446D01*
X101517652Y-91434500D01*
X101336348Y-91434500D01*
X101200168Y-91463446D01*
X101164076Y-91471117D01*
X101164075Y-91471117D01*
X101159005Y-91472195D01*
X101154269Y-91474304D01*
X101154268Y-91474304D01*
X100998109Y-91543831D01*
X100998107Y-91543832D01*
X100993375Y-91545939D01*
X100846696Y-91652507D01*
X100843230Y-91656356D01*
X100843226Y-91656360D01*
X100785787Y-91720153D01*
X100725379Y-91787243D01*
X100722787Y-91791733D01*
X100722786Y-91791734D01*
X100697289Y-91835897D01*
X100634727Y-91944257D01*
X100578701Y-92116688D01*
X100559749Y-92297000D01*
X99754251Y-92297000D01*
X99735299Y-92116688D01*
X99679273Y-91944257D01*
X99676681Y-91939767D01*
X99676678Y-91939760D01*
X99616712Y-91835897D01*
X99603990Y-91776049D01*
X99628877Y-91720153D01*
X99681865Y-91689560D01*
X99742715Y-91695956D01*
X99760637Y-91706303D01*
X99764249Y-91708927D01*
X99769755Y-91714433D01*
X99888438Y-91774905D01*
X99896131Y-91776124D01*
X99896133Y-91776124D01*
X100012303Y-91794523D01*
X100020000Y-91795742D01*
X100027697Y-91794523D01*
X100143867Y-91776124D01*
X100143869Y-91776124D01*
X100151562Y-91774905D01*
X100158502Y-91771369D01*
X100263306Y-91717969D01*
X100263308Y-91717968D01*
X100270245Y-91714433D01*
X100364433Y-91620245D01*
X100400743Y-91548984D01*
X100421369Y-91508502D01*
X100421369Y-91508501D01*
X100424905Y-91501562D01*
X100427640Y-91484297D01*
X100444523Y-91377697D01*
X100445742Y-91370000D01*
X100424905Y-91238438D01*
X100364433Y-91119755D01*
X100270245Y-91025567D01*
X100263308Y-91022032D01*
X100263306Y-91022031D01*
X100158502Y-90968631D01*
X100158501Y-90968631D01*
X100151562Y-90965095D01*
X100143869Y-90963876D01*
X100143867Y-90963876D01*
X100027697Y-90945477D01*
X100020000Y-90944258D01*
X100012303Y-90945477D01*
X99896133Y-90963876D01*
X99896131Y-90963876D01*
X99888438Y-90965095D01*
X99881499Y-90968631D01*
X99881498Y-90968631D01*
X99776694Y-91022031D01*
X99776692Y-91022032D01*
X99769755Y-91025567D01*
X99675567Y-91119755D01*
X99615095Y-91238438D01*
X99594258Y-91370000D01*
X99595477Y-91377697D01*
X99612361Y-91484297D01*
X99615095Y-91501562D01*
X99618631Y-91508502D01*
X99618632Y-91508505D01*
X99643520Y-91557349D01*
X99653092Y-91617781D01*
X99625315Y-91672298D01*
X99570799Y-91700076D01*
X99510367Y-91690505D01*
X99481741Y-91668541D01*
X99479771Y-91666353D01*
X99467304Y-91652507D01*
X99320626Y-91545939D01*
X99315894Y-91543832D01*
X99315892Y-91543831D01*
X99159733Y-91474304D01*
X99159729Y-91474303D01*
X99154995Y-91472195D01*
X99149925Y-91471117D01*
X99149924Y-91471117D01*
X99113832Y-91463446D01*
X98977652Y-91434500D01*
X98796348Y-91434500D01*
X98660168Y-91463446D01*
X98624076Y-91471117D01*
X98624075Y-91471117D01*
X98619005Y-91472195D01*
X98614269Y-91474304D01*
X98614268Y-91474304D01*
X98458109Y-91543831D01*
X98458107Y-91543832D01*
X98453375Y-91545939D01*
X98306696Y-91652507D01*
X98303230Y-91656356D01*
X98303226Y-91656360D01*
X98245787Y-91720153D01*
X98185379Y-91787243D01*
X98182787Y-91791733D01*
X98182786Y-91791734D01*
X98157289Y-91835897D01*
X98094727Y-91944257D01*
X98038701Y-92116688D01*
X98019749Y-92297000D01*
X96380936Y-92297000D01*
X96380936Y-91370000D01*
X97284258Y-91370000D01*
X97285477Y-91377697D01*
X97302361Y-91484297D01*
X97305095Y-91501562D01*
X97308631Y-91508501D01*
X97308631Y-91508502D01*
X97329258Y-91548984D01*
X97365567Y-91620245D01*
X97459755Y-91714433D01*
X97466692Y-91717968D01*
X97466694Y-91717969D01*
X97571498Y-91771369D01*
X97578438Y-91774905D01*
X97586131Y-91776124D01*
X97586133Y-91776124D01*
X97702303Y-91794523D01*
X97710000Y-91795742D01*
X97717697Y-91794523D01*
X97833867Y-91776124D01*
X97833869Y-91776124D01*
X97841562Y-91774905D01*
X97848502Y-91771369D01*
X97953306Y-91717969D01*
X97953308Y-91717968D01*
X97960245Y-91714433D01*
X98054433Y-91620245D01*
X98090743Y-91548984D01*
X98111369Y-91508502D01*
X98111369Y-91508501D01*
X98114905Y-91501562D01*
X98117640Y-91484297D01*
X98134523Y-91377697D01*
X98135742Y-91370000D01*
X98114905Y-91238438D01*
X98054433Y-91119755D01*
X97960245Y-91025567D01*
X97953308Y-91022032D01*
X97953306Y-91022031D01*
X97848502Y-90968631D01*
X97848501Y-90968631D01*
X97841562Y-90965095D01*
X97833869Y-90963876D01*
X97833867Y-90963876D01*
X97717697Y-90945477D01*
X97710000Y-90944258D01*
X97702303Y-90945477D01*
X97586133Y-90963876D01*
X97586131Y-90963876D01*
X97578438Y-90965095D01*
X97571499Y-90968631D01*
X97571498Y-90968631D01*
X97466694Y-91022031D01*
X97466692Y-91022032D01*
X97459755Y-91025567D01*
X97365567Y-91119755D01*
X97305095Y-91238438D01*
X97284258Y-91370000D01*
X96380936Y-91370000D01*
X96380936Y-89923328D01*
X96381018Y-89923130D01*
X96380701Y-89922365D01*
X96380134Y-89922130D01*
X96379936Y-89922048D01*
X96379738Y-89922130D01*
X94540783Y-89922130D01*
X94482592Y-89903223D01*
X94446628Y-89853723D01*
X94441783Y-89823130D01*
X94441783Y-89494193D01*
X106804697Y-89494193D01*
X106822172Y-89627828D01*
X106825010Y-89634279D01*
X106825011Y-89634281D01*
X106873611Y-89744734D01*
X106873613Y-89744737D01*
X106876451Y-89751187D01*
X106963172Y-89854353D01*
X107075362Y-89929033D01*
X107204002Y-89969223D01*
X107271377Y-89970458D01*
X107331699Y-89971564D01*
X107331701Y-89971564D01*
X107338752Y-89971693D01*
X107345555Y-89969838D01*
X107345557Y-89969838D01*
X107425772Y-89947969D01*
X107468779Y-89936244D01*
X107583631Y-89865725D01*
X107593925Y-89854353D01*
X107669338Y-89771037D01*
X107674073Y-89765806D01*
X107732836Y-89644518D01*
X107755196Y-89511614D01*
X107755338Y-89500000D01*
X107736232Y-89366588D01*
X107699931Y-89286748D01*
X107683370Y-89250324D01*
X107680450Y-89243902D01*
X107598027Y-89148246D01*
X110876012Y-89148246D01*
X110877231Y-89155943D01*
X110893882Y-89261073D01*
X110896849Y-89279808D01*
X110900385Y-89286747D01*
X110900385Y-89286748D01*
X110941783Y-89367995D01*
X110957321Y-89398491D01*
X111051509Y-89492679D01*
X111058446Y-89496214D01*
X111058448Y-89496215D01*
X111123631Y-89529427D01*
X111170192Y-89553151D01*
X111177885Y-89554370D01*
X111177887Y-89554370D01*
X111294057Y-89572769D01*
X111301754Y-89573988D01*
X111309451Y-89572769D01*
X111425621Y-89554370D01*
X111425623Y-89554370D01*
X111433316Y-89553151D01*
X111479877Y-89529427D01*
X111545060Y-89496215D01*
X111545062Y-89496214D01*
X111551999Y-89492679D01*
X111646187Y-89398491D01*
X111661726Y-89367995D01*
X111703123Y-89286748D01*
X111703123Y-89286747D01*
X111706659Y-89279808D01*
X111709627Y-89261073D01*
X111713621Y-89235852D01*
X111741399Y-89181335D01*
X111795915Y-89153558D01*
X111826888Y-89153558D01*
X111890641Y-89163655D01*
X111890642Y-89163655D01*
X111898339Y-89164874D01*
X111906036Y-89163655D01*
X112022206Y-89145256D01*
X112022208Y-89145256D01*
X112029901Y-89144037D01*
X112041816Y-89137966D01*
X112141645Y-89087101D01*
X112141647Y-89087100D01*
X112148584Y-89083565D01*
X112242772Y-88989377D01*
X112264266Y-88947194D01*
X112299708Y-88877634D01*
X112299708Y-88877633D01*
X112303244Y-88870694D01*
X112306273Y-88851573D01*
X112307633Y-88842983D01*
X112335410Y-88788466D01*
X112389926Y-88760688D01*
X112420901Y-88760688D01*
X112518198Y-88776098D01*
X112525895Y-88777317D01*
X112528700Y-88776873D01*
X112584507Y-88795005D01*
X112620471Y-88844505D01*
X112624439Y-88869562D01*
X112624097Y-88871723D01*
X112625316Y-88879420D01*
X112634674Y-88938502D01*
X112644934Y-89003285D01*
X112648470Y-89010224D01*
X112648470Y-89010225D01*
X112685839Y-89083565D01*
X112705406Y-89121968D01*
X112799594Y-89216156D01*
X112806531Y-89219691D01*
X112806533Y-89219692D01*
X112906609Y-89270683D01*
X112918277Y-89276628D01*
X112925970Y-89277847D01*
X112925972Y-89277847D01*
X113042142Y-89296246D01*
X113049839Y-89297465D01*
X113057536Y-89296246D01*
X113173706Y-89277847D01*
X113173708Y-89277847D01*
X113181401Y-89276628D01*
X113188341Y-89273092D01*
X113195755Y-89270683D01*
X113196764Y-89273789D01*
X113243006Y-89266478D01*
X113297514Y-89294271D01*
X113315027Y-89322861D01*
X113316595Y-89322062D01*
X113355538Y-89398491D01*
X113377067Y-89440745D01*
X113471255Y-89534933D01*
X113478192Y-89538468D01*
X113478194Y-89538469D01*
X113582998Y-89591869D01*
X113589938Y-89595405D01*
X113597631Y-89596624D01*
X113597633Y-89596624D01*
X113713803Y-89615023D01*
X113721500Y-89616242D01*
X113729197Y-89615023D01*
X113824051Y-89600000D01*
X119974258Y-89600000D01*
X119975477Y-89607697D01*
X119983415Y-89657813D01*
X119995095Y-89731562D01*
X119998631Y-89738501D01*
X119998631Y-89738502D01*
X120040033Y-89819757D01*
X120055567Y-89850245D01*
X120149755Y-89944433D01*
X120156692Y-89947968D01*
X120156694Y-89947969D01*
X120261498Y-90001369D01*
X120268438Y-90004905D01*
X120276131Y-90006124D01*
X120276133Y-90006124D01*
X120392303Y-90024523D01*
X120400000Y-90025742D01*
X120407697Y-90024523D01*
X120523867Y-90006124D01*
X120523869Y-90006124D01*
X120531562Y-90004905D01*
X120538502Y-90001369D01*
X120643306Y-89947969D01*
X120643308Y-89947968D01*
X120650245Y-89944433D01*
X120744433Y-89850245D01*
X120759968Y-89819757D01*
X120801369Y-89738502D01*
X120801369Y-89738501D01*
X120804905Y-89731562D01*
X120816586Y-89657813D01*
X120824523Y-89607697D01*
X120825742Y-89600000D01*
X120821429Y-89572769D01*
X120806124Y-89476133D01*
X120806124Y-89476131D01*
X120804905Y-89468438D01*
X120772071Y-89403997D01*
X120747969Y-89356694D01*
X120747968Y-89356692D01*
X120744433Y-89349755D01*
X120704678Y-89310000D01*
X126222749Y-89310000D01*
X126241701Y-89490312D01*
X126249847Y-89515384D01*
X126279842Y-89607697D01*
X126297727Y-89662743D01*
X126300318Y-89667231D01*
X126300319Y-89667233D01*
X126360517Y-89771498D01*
X126388379Y-89819757D01*
X126391851Y-89823613D01*
X126506226Y-89950640D01*
X126506230Y-89950644D01*
X126509696Y-89954493D01*
X126656374Y-90061061D01*
X126661106Y-90063168D01*
X126661108Y-90063169D01*
X126817267Y-90132696D01*
X126817271Y-90132697D01*
X126822005Y-90134805D01*
X126827075Y-90135883D01*
X126827076Y-90135883D01*
X126863168Y-90143554D01*
X126999348Y-90172500D01*
X127180652Y-90172500D01*
X127316832Y-90143554D01*
X127352924Y-90135883D01*
X127352925Y-90135883D01*
X127357995Y-90134805D01*
X127362729Y-90132697D01*
X127362733Y-90132696D01*
X127518892Y-90063169D01*
X127518894Y-90063168D01*
X127523626Y-90061061D01*
X127670304Y-89954493D01*
X127673770Y-89950644D01*
X127673774Y-89950640D01*
X127710366Y-89910000D01*
X131744258Y-89910000D01*
X131745477Y-89917697D01*
X131754009Y-89971564D01*
X131765095Y-90041562D01*
X131768631Y-90048501D01*
X131768631Y-90048502D01*
X131812605Y-90134805D01*
X131825567Y-90160245D01*
X131919755Y-90254433D01*
X131926692Y-90257968D01*
X131926694Y-90257969D01*
X132013171Y-90302031D01*
X132038438Y-90314905D01*
X132046131Y-90316124D01*
X132046133Y-90316124D01*
X132162303Y-90334523D01*
X132170000Y-90335742D01*
X132177697Y-90334523D01*
X132293867Y-90316124D01*
X132293869Y-90316124D01*
X132301562Y-90314905D01*
X132326829Y-90302031D01*
X132413306Y-90257969D01*
X132413308Y-90257968D01*
X132420245Y-90254433D01*
X132514433Y-90160245D01*
X132527396Y-90134805D01*
X132571369Y-90048502D01*
X132571369Y-90048501D01*
X132574905Y-90041562D01*
X132585992Y-89971564D01*
X132594523Y-89917697D01*
X132595742Y-89910000D01*
X133484258Y-89910000D01*
X133485477Y-89917697D01*
X133494009Y-89971564D01*
X133505095Y-90041562D01*
X133508631Y-90048501D01*
X133508631Y-90048502D01*
X133552605Y-90134805D01*
X133565567Y-90160245D01*
X133659755Y-90254433D01*
X133666692Y-90257968D01*
X133666694Y-90257969D01*
X133753171Y-90302031D01*
X133778438Y-90314905D01*
X133786131Y-90316124D01*
X133786133Y-90316124D01*
X133902303Y-90334523D01*
X133910000Y-90335742D01*
X133917697Y-90334523D01*
X134033867Y-90316124D01*
X134033869Y-90316124D01*
X134041562Y-90314905D01*
X134066829Y-90302031D01*
X134153306Y-90257969D01*
X134153308Y-90257968D01*
X134160245Y-90254433D01*
X134254433Y-90160245D01*
X134267396Y-90134805D01*
X134311369Y-90048502D01*
X134311369Y-90048501D01*
X134314905Y-90041562D01*
X134325992Y-89971564D01*
X134334523Y-89917697D01*
X134335742Y-89910000D01*
X134334523Y-89902303D01*
X134316124Y-89786133D01*
X134316124Y-89786131D01*
X134314905Y-89778438D01*
X134294557Y-89738502D01*
X134257969Y-89666694D01*
X134257968Y-89666692D01*
X134254433Y-89659755D01*
X134160245Y-89565567D01*
X134153308Y-89562032D01*
X134153306Y-89562031D01*
X134048502Y-89508631D01*
X134048501Y-89508631D01*
X134041562Y-89505095D01*
X134033869Y-89503876D01*
X134033867Y-89503876D01*
X133917697Y-89485477D01*
X133910000Y-89484258D01*
X133902303Y-89485477D01*
X133786133Y-89503876D01*
X133786131Y-89503876D01*
X133778438Y-89505095D01*
X133771499Y-89508631D01*
X133771498Y-89508631D01*
X133666694Y-89562031D01*
X133666692Y-89562032D01*
X133659755Y-89565567D01*
X133565567Y-89659755D01*
X133562032Y-89666692D01*
X133562031Y-89666694D01*
X133525443Y-89738502D01*
X133505095Y-89778438D01*
X133503876Y-89786131D01*
X133503876Y-89786133D01*
X133485477Y-89902303D01*
X133484258Y-89910000D01*
X132595742Y-89910000D01*
X132594523Y-89902303D01*
X132576124Y-89786133D01*
X132576124Y-89786131D01*
X132574905Y-89778438D01*
X132554557Y-89738502D01*
X132517969Y-89666694D01*
X132517968Y-89666692D01*
X132514433Y-89659755D01*
X132420245Y-89565567D01*
X132413308Y-89562032D01*
X132413306Y-89562031D01*
X132308502Y-89508631D01*
X132308501Y-89508631D01*
X132301562Y-89505095D01*
X132293869Y-89503876D01*
X132293867Y-89503876D01*
X132177697Y-89485477D01*
X132170000Y-89484258D01*
X132162303Y-89485477D01*
X132046133Y-89503876D01*
X132046131Y-89503876D01*
X132038438Y-89505095D01*
X132031499Y-89508631D01*
X132031498Y-89508631D01*
X131926694Y-89562031D01*
X131926692Y-89562032D01*
X131919755Y-89565567D01*
X131825567Y-89659755D01*
X131822032Y-89666692D01*
X131822031Y-89666694D01*
X131785443Y-89738502D01*
X131765095Y-89778438D01*
X131763876Y-89786131D01*
X131763876Y-89786133D01*
X131745477Y-89902303D01*
X131744258Y-89910000D01*
X127710366Y-89910000D01*
X127788149Y-89823613D01*
X127791621Y-89819757D01*
X127819483Y-89771498D01*
X127879681Y-89667233D01*
X127879682Y-89667231D01*
X127882273Y-89662743D01*
X127900159Y-89607697D01*
X127930153Y-89515384D01*
X127938299Y-89490312D01*
X127957251Y-89310000D01*
X127955934Y-89297465D01*
X127954078Y-89279808D01*
X127938299Y-89129688D01*
X127882273Y-88957257D01*
X127862996Y-88923867D01*
X127794214Y-88804734D01*
X127794213Y-88804733D01*
X127791621Y-88800243D01*
X127759670Y-88764758D01*
X127673774Y-88669360D01*
X127673770Y-88669356D01*
X127670304Y-88665507D01*
X127523626Y-88558939D01*
X127518894Y-88556832D01*
X127518892Y-88556831D01*
X127362733Y-88487304D01*
X127362729Y-88487303D01*
X127357995Y-88485195D01*
X127352925Y-88484117D01*
X127352924Y-88484117D01*
X127309292Y-88474843D01*
X127180652Y-88447500D01*
X126999348Y-88447500D01*
X126870708Y-88474843D01*
X126827076Y-88484117D01*
X126827075Y-88484117D01*
X126822005Y-88485195D01*
X126817269Y-88487304D01*
X126817268Y-88487304D01*
X126661109Y-88556831D01*
X126661107Y-88556832D01*
X126656375Y-88558939D01*
X126509696Y-88665507D01*
X126506230Y-88669356D01*
X126506226Y-88669360D01*
X126420330Y-88764758D01*
X126388379Y-88800243D01*
X126385787Y-88804733D01*
X126385786Y-88804734D01*
X126317005Y-88923867D01*
X126297727Y-88957257D01*
X126241701Y-89129688D01*
X126225922Y-89279808D01*
X126224067Y-89297465D01*
X126222749Y-89310000D01*
X120704678Y-89310000D01*
X120650245Y-89255567D01*
X120643308Y-89252032D01*
X120643306Y-89252031D01*
X120538502Y-89198631D01*
X120538501Y-89198631D01*
X120531562Y-89195095D01*
X120523869Y-89193876D01*
X120523867Y-89193876D01*
X120407697Y-89175477D01*
X120400000Y-89174258D01*
X120392303Y-89175477D01*
X120276133Y-89193876D01*
X120276131Y-89193876D01*
X120268438Y-89195095D01*
X120261499Y-89198631D01*
X120261498Y-89198631D01*
X120156694Y-89252031D01*
X120156692Y-89252032D01*
X120149755Y-89255567D01*
X120055567Y-89349755D01*
X120052032Y-89356692D01*
X120052031Y-89356694D01*
X120027929Y-89403997D01*
X119995095Y-89468438D01*
X119993876Y-89476131D01*
X119993876Y-89476133D01*
X119978571Y-89572769D01*
X119974258Y-89600000D01*
X113824051Y-89600000D01*
X113845367Y-89596624D01*
X113845369Y-89596624D01*
X113853062Y-89595405D01*
X113860002Y-89591869D01*
X113964806Y-89538469D01*
X113964808Y-89538468D01*
X113971745Y-89534933D01*
X114065933Y-89440745D01*
X114087463Y-89398491D01*
X114122869Y-89329002D01*
X114122869Y-89329001D01*
X114126405Y-89322062D01*
X114128316Y-89310000D01*
X114146023Y-89198197D01*
X114147242Y-89190500D01*
X114138333Y-89134249D01*
X114127624Y-89066633D01*
X114127624Y-89066631D01*
X114126405Y-89058938D01*
X114112631Y-89031905D01*
X114069469Y-88947194D01*
X114069468Y-88947192D01*
X114065933Y-88940255D01*
X113971745Y-88846067D01*
X113964808Y-88842532D01*
X113964806Y-88842531D01*
X113881334Y-88800000D01*
X121374258Y-88800000D01*
X121375477Y-88807697D01*
X121390879Y-88904940D01*
X121395095Y-88931562D01*
X121398631Y-88938501D01*
X121398631Y-88938502D01*
X121445760Y-89030997D01*
X121455567Y-89050245D01*
X121549755Y-89144433D01*
X121556692Y-89147968D01*
X121556694Y-89147969D01*
X121661498Y-89201369D01*
X121668438Y-89204905D01*
X121676131Y-89206124D01*
X121676133Y-89206124D01*
X121792303Y-89224523D01*
X121800000Y-89225742D01*
X121807697Y-89224523D01*
X121923867Y-89206124D01*
X121923869Y-89206124D01*
X121931562Y-89204905D01*
X121938502Y-89201369D01*
X122043306Y-89147969D01*
X122043308Y-89147968D01*
X122050245Y-89144433D01*
X122144433Y-89050245D01*
X122154241Y-89030997D01*
X122201369Y-88938502D01*
X122201369Y-88938501D01*
X122204905Y-88931562D01*
X122209122Y-88904940D01*
X122224523Y-88807697D01*
X122225742Y-88800000D01*
X122223461Y-88785595D01*
X122206124Y-88676133D01*
X122206124Y-88676131D01*
X122204905Y-88668438D01*
X122150664Y-88561984D01*
X122147969Y-88556694D01*
X122147968Y-88556692D01*
X122144433Y-88549755D01*
X122050245Y-88455567D01*
X122043308Y-88452032D01*
X122043306Y-88452031D01*
X121938502Y-88398631D01*
X121938501Y-88398631D01*
X121931562Y-88395095D01*
X121923869Y-88393876D01*
X121923867Y-88393876D01*
X121807697Y-88375477D01*
X121800000Y-88374258D01*
X121792303Y-88375477D01*
X121676133Y-88393876D01*
X121676131Y-88393876D01*
X121668438Y-88395095D01*
X121661499Y-88398631D01*
X121661498Y-88398631D01*
X121556694Y-88452031D01*
X121556692Y-88452032D01*
X121549755Y-88455567D01*
X121455567Y-88549755D01*
X121452032Y-88556692D01*
X121452031Y-88556694D01*
X121449336Y-88561984D01*
X121395095Y-88668438D01*
X121393876Y-88676131D01*
X121393876Y-88676133D01*
X121376539Y-88785595D01*
X121374258Y-88800000D01*
X113881334Y-88800000D01*
X113860002Y-88789131D01*
X113860001Y-88789131D01*
X113853062Y-88785595D01*
X113845369Y-88784376D01*
X113845367Y-88784376D01*
X113729197Y-88765977D01*
X113721500Y-88764758D01*
X113713803Y-88765977D01*
X113597633Y-88784376D01*
X113597631Y-88784376D01*
X113589938Y-88785595D01*
X113582998Y-88789131D01*
X113575584Y-88791540D01*
X113574575Y-88788434D01*
X113528333Y-88795745D01*
X113473825Y-88767952D01*
X113456312Y-88739362D01*
X113454744Y-88740161D01*
X113397808Y-88628417D01*
X113397807Y-88628415D01*
X113394272Y-88621478D01*
X113300084Y-88527290D01*
X113293147Y-88523755D01*
X113293145Y-88523754D01*
X113188341Y-88470354D01*
X113188340Y-88470354D01*
X113181401Y-88466818D01*
X113173708Y-88465599D01*
X113173706Y-88465599D01*
X113057536Y-88447200D01*
X113049839Y-88445981D01*
X113047034Y-88446425D01*
X112991227Y-88428293D01*
X112955263Y-88378793D01*
X112951295Y-88353736D01*
X112951637Y-88351575D01*
X112950327Y-88343306D01*
X112932019Y-88227708D01*
X112932019Y-88227706D01*
X112930800Y-88220013D01*
X112925631Y-88209869D01*
X112873864Y-88108269D01*
X112873863Y-88108267D01*
X112870328Y-88101330D01*
X112776140Y-88007142D01*
X112769203Y-88003607D01*
X112769201Y-88003606D01*
X112664397Y-87950206D01*
X112664396Y-87950206D01*
X112657457Y-87946670D01*
X112649764Y-87945451D01*
X112649762Y-87945451D01*
X112533592Y-87927052D01*
X112525895Y-87925833D01*
X112518198Y-87927052D01*
X112402028Y-87945451D01*
X112402026Y-87945451D01*
X112394333Y-87946670D01*
X112387394Y-87950206D01*
X112387393Y-87950206D01*
X112282589Y-88003606D01*
X112282587Y-88003607D01*
X112275650Y-88007142D01*
X112181462Y-88101330D01*
X112177927Y-88108267D01*
X112177926Y-88108269D01*
X112126159Y-88209869D01*
X112120990Y-88220013D01*
X112119771Y-88227708D01*
X112119771Y-88227709D01*
X112116601Y-88247724D01*
X112088824Y-88302241D01*
X112034308Y-88330019D01*
X112003333Y-88330019D01*
X111906036Y-88314609D01*
X111898339Y-88313390D01*
X111890642Y-88314609D01*
X111774472Y-88333008D01*
X111774470Y-88333008D01*
X111766777Y-88334227D01*
X111759838Y-88337763D01*
X111759837Y-88337763D01*
X111655033Y-88391163D01*
X111655031Y-88391164D01*
X111648094Y-88394699D01*
X111553906Y-88488887D01*
X111550371Y-88495824D01*
X111550370Y-88495826D01*
X111519287Y-88556831D01*
X111493434Y-88607570D01*
X111492215Y-88615263D01*
X111492215Y-88615265D01*
X111486472Y-88651526D01*
X111458694Y-88706043D01*
X111404178Y-88733820D01*
X111373205Y-88733820D01*
X111309452Y-88723723D01*
X111309451Y-88723723D01*
X111301754Y-88722504D01*
X111294057Y-88723723D01*
X111177887Y-88742122D01*
X111177885Y-88742122D01*
X111170192Y-88743341D01*
X111163253Y-88746877D01*
X111163252Y-88746877D01*
X111058448Y-88800277D01*
X111058446Y-88800278D01*
X111051509Y-88803813D01*
X110957321Y-88898001D01*
X110953786Y-88904938D01*
X110953785Y-88904940D01*
X110910569Y-88989757D01*
X110896849Y-89016684D01*
X110895630Y-89024377D01*
X110895630Y-89024379D01*
X110879302Y-89127474D01*
X110876012Y-89148246D01*
X107598027Y-89148246D01*
X107592475Y-89141803D01*
X107479382Y-89068499D01*
X107472627Y-89066479D01*
X107472623Y-89066477D01*
X107357020Y-89031905D01*
X107350259Y-89029883D01*
X107268454Y-89029383D01*
X107222540Y-89029103D01*
X107215489Y-89029060D01*
X107208712Y-89030997D01*
X107208711Y-89030997D01*
X107092685Y-89064157D01*
X107092683Y-89064158D01*
X107085905Y-89066095D01*
X106971924Y-89138012D01*
X106882709Y-89239029D01*
X106825432Y-89361025D01*
X106804697Y-89494193D01*
X94441783Y-89494193D01*
X94441783Y-88480000D01*
X102014749Y-88480000D01*
X102033701Y-88660312D01*
X102089727Y-88832743D01*
X102092318Y-88837231D01*
X102092319Y-88837233D01*
X102131410Y-88904940D01*
X102180379Y-88989757D01*
X102185631Y-88995590D01*
X102298226Y-89120640D01*
X102298230Y-89120644D01*
X102301696Y-89124493D01*
X102448374Y-89231061D01*
X102453106Y-89233168D01*
X102453108Y-89233169D01*
X102609267Y-89302696D01*
X102609271Y-89302697D01*
X102614005Y-89304805D01*
X102619075Y-89305883D01*
X102619076Y-89305883D01*
X102638446Y-89310000D01*
X102791348Y-89342500D01*
X102972652Y-89342500D01*
X103125554Y-89310000D01*
X103144924Y-89305883D01*
X103144925Y-89305883D01*
X103149995Y-89304805D01*
X103154729Y-89302697D01*
X103154733Y-89302696D01*
X103310892Y-89233169D01*
X103310894Y-89233168D01*
X103315626Y-89231061D01*
X103462304Y-89124493D01*
X103465770Y-89120644D01*
X103465774Y-89120640D01*
X103578369Y-88995590D01*
X103583621Y-88989757D01*
X103632590Y-88904940D01*
X103671681Y-88837233D01*
X103671682Y-88837231D01*
X103674273Y-88832743D01*
X103730299Y-88660312D01*
X103749251Y-88480000D01*
X103747866Y-88466818D01*
X103745835Y-88447500D01*
X103730299Y-88299688D01*
X103677175Y-88136188D01*
X103677175Y-88075004D01*
X103713139Y-88025504D01*
X103771330Y-88006597D01*
X103786817Y-88007816D01*
X103892303Y-88024523D01*
X103900000Y-88025742D01*
X103907697Y-88024523D01*
X104023867Y-88006124D01*
X104023869Y-88006124D01*
X104031562Y-88004905D01*
X104051377Y-87994809D01*
X104143306Y-87947969D01*
X104143308Y-87947968D01*
X104150245Y-87944433D01*
X104223736Y-87870942D01*
X114355200Y-87870942D01*
X114356419Y-87878639D01*
X114370642Y-87968438D01*
X114376037Y-88002504D01*
X114379573Y-88009443D01*
X114379573Y-88009444D01*
X114429636Y-88107697D01*
X114436509Y-88121187D01*
X114530697Y-88215375D01*
X114537634Y-88218910D01*
X114537636Y-88218911D01*
X114576086Y-88238502D01*
X114649380Y-88275847D01*
X114657073Y-88277066D01*
X114657075Y-88277066D01*
X114773245Y-88295465D01*
X114780942Y-88296684D01*
X114788639Y-88295465D01*
X114904809Y-88277066D01*
X114904811Y-88277066D01*
X114912504Y-88275847D01*
X114985798Y-88238502D01*
X115024248Y-88218911D01*
X115024250Y-88218910D01*
X115031187Y-88215375D01*
X115125375Y-88121187D01*
X115132249Y-88107697D01*
X115136171Y-88100000D01*
X140524258Y-88100000D01*
X140525477Y-88107697D01*
X140542167Y-88213073D01*
X140545095Y-88231562D01*
X140548631Y-88238501D01*
X140548631Y-88238502D01*
X140587410Y-88314609D01*
X140605567Y-88350245D01*
X140699755Y-88444433D01*
X140706692Y-88447968D01*
X140706694Y-88447969D01*
X140777639Y-88484117D01*
X140818438Y-88504905D01*
X140826131Y-88506124D01*
X140826133Y-88506124D01*
X140942303Y-88524523D01*
X140950000Y-88525742D01*
X140957697Y-88524523D01*
X141073867Y-88506124D01*
X141073869Y-88506124D01*
X141081562Y-88504905D01*
X141122361Y-88484117D01*
X141193306Y-88447969D01*
X141193308Y-88447968D01*
X141200245Y-88444433D01*
X141294433Y-88350245D01*
X141312591Y-88314609D01*
X141351369Y-88238502D01*
X141351369Y-88238501D01*
X141354905Y-88231562D01*
X141357834Y-88213073D01*
X141374523Y-88107697D01*
X141375742Y-88100000D01*
X141363426Y-88022236D01*
X141356124Y-87976133D01*
X141356124Y-87976131D01*
X141354905Y-87968438D01*
X141342674Y-87944433D01*
X141297969Y-87856694D01*
X141297968Y-87856692D01*
X141294433Y-87849755D01*
X141200245Y-87755567D01*
X141193308Y-87752032D01*
X141193306Y-87752031D01*
X141088502Y-87698631D01*
X141088501Y-87698631D01*
X141081562Y-87695095D01*
X141073869Y-87693876D01*
X141073867Y-87693876D01*
X140957697Y-87675477D01*
X140950000Y-87674258D01*
X140942303Y-87675477D01*
X140826133Y-87693876D01*
X140826131Y-87693876D01*
X140818438Y-87695095D01*
X140811499Y-87698631D01*
X140811498Y-87698631D01*
X140706694Y-87752031D01*
X140706692Y-87752032D01*
X140699755Y-87755567D01*
X140605567Y-87849755D01*
X140602032Y-87856692D01*
X140602031Y-87856694D01*
X140557326Y-87944433D01*
X140545095Y-87968438D01*
X140543876Y-87976131D01*
X140543876Y-87976133D01*
X140536574Y-88022236D01*
X140524258Y-88100000D01*
X115136171Y-88100000D01*
X115182311Y-88009444D01*
X115182311Y-88009443D01*
X115185847Y-88002504D01*
X115191243Y-87968438D01*
X115205465Y-87878639D01*
X115206684Y-87870942D01*
X115206390Y-87869085D01*
X115224372Y-87813741D01*
X115273872Y-87777777D01*
X115314513Y-87774578D01*
X115314513Y-87774523D01*
X115315210Y-87774523D01*
X115319948Y-87774150D01*
X115330000Y-87775742D01*
X115337697Y-87774523D01*
X115453867Y-87756124D01*
X115453869Y-87756124D01*
X115461562Y-87754905D01*
X115477544Y-87746762D01*
X115573306Y-87697969D01*
X115573308Y-87697968D01*
X115580245Y-87694433D01*
X115674433Y-87600245D01*
X115678280Y-87592696D01*
X115731369Y-87488502D01*
X115731369Y-87488501D01*
X115734905Y-87481562D01*
X115736475Y-87471653D01*
X115754523Y-87357697D01*
X115755742Y-87350000D01*
X115755838Y-87350015D01*
X115773430Y-87295871D01*
X115822930Y-87259907D01*
X115869010Y-87256281D01*
X115939397Y-87267429D01*
X115947094Y-87268648D01*
X115954791Y-87267429D01*
X116070961Y-87249030D01*
X116070963Y-87249030D01*
X116078656Y-87247811D01*
X116085596Y-87244275D01*
X116190400Y-87190875D01*
X116190402Y-87190874D01*
X116197339Y-87187339D01*
X116291527Y-87093151D01*
X116305635Y-87065464D01*
X116348463Y-86981408D01*
X116348463Y-86981407D01*
X116351999Y-86974468D01*
X116359952Y-86924258D01*
X116371617Y-86850603D01*
X116372836Y-86842906D01*
X116371617Y-86835209D01*
X116361289Y-86770000D01*
X126222749Y-86770000D01*
X126241701Y-86950312D01*
X126259181Y-87004109D01*
X126291412Y-87103306D01*
X126297727Y-87122743D01*
X126300318Y-87127231D01*
X126300319Y-87127233D01*
X126377592Y-87261073D01*
X126388379Y-87279757D01*
X126391851Y-87283613D01*
X126506226Y-87410640D01*
X126506230Y-87410644D01*
X126509696Y-87414493D01*
X126656374Y-87521061D01*
X126661106Y-87523168D01*
X126661108Y-87523169D01*
X126817267Y-87592696D01*
X126817271Y-87592697D01*
X126822005Y-87594805D01*
X126827075Y-87595883D01*
X126827076Y-87595883D01*
X126846446Y-87600000D01*
X126999348Y-87632500D01*
X127180652Y-87632500D01*
X127333554Y-87600000D01*
X127352924Y-87595883D01*
X127352925Y-87595883D01*
X127357995Y-87594805D01*
X127362729Y-87592697D01*
X127362733Y-87592696D01*
X127518892Y-87523169D01*
X127518894Y-87523168D01*
X127523626Y-87521061D01*
X127670304Y-87414493D01*
X127673770Y-87410644D01*
X127673774Y-87410640D01*
X127788149Y-87283613D01*
X127791621Y-87279757D01*
X127802408Y-87261073D01*
X127879681Y-87127233D01*
X127879682Y-87127231D01*
X127882273Y-87122743D01*
X127888589Y-87103306D01*
X127920819Y-87004109D01*
X127938299Y-86950312D01*
X127957251Y-86770000D01*
X127938299Y-86589688D01*
X127892252Y-86447969D01*
X127883875Y-86422187D01*
X127883874Y-86422186D01*
X127882273Y-86417257D01*
X127851449Y-86363867D01*
X127794214Y-86264734D01*
X127794213Y-86264733D01*
X127791621Y-86260243D01*
X127766464Y-86232303D01*
X127673774Y-86129360D01*
X127673770Y-86129356D01*
X127670304Y-86125507D01*
X127523626Y-86018939D01*
X127518894Y-86016832D01*
X127518892Y-86016831D01*
X127362733Y-85947304D01*
X127362729Y-85947303D01*
X127357995Y-85945195D01*
X127352925Y-85944117D01*
X127352924Y-85944117D01*
X127300292Y-85932930D01*
X127180652Y-85907500D01*
X126999348Y-85907500D01*
X126879708Y-85932930D01*
X126827076Y-85944117D01*
X126827075Y-85944117D01*
X126822005Y-85945195D01*
X126817269Y-85947304D01*
X126817268Y-85947304D01*
X126661109Y-86016831D01*
X126661107Y-86016832D01*
X126656375Y-86018939D01*
X126509696Y-86125507D01*
X126506230Y-86129356D01*
X126506226Y-86129360D01*
X126413536Y-86232303D01*
X126388379Y-86260243D01*
X126385787Y-86264733D01*
X126385786Y-86264734D01*
X126328552Y-86363867D01*
X126297727Y-86417257D01*
X126296126Y-86422186D01*
X126296125Y-86422187D01*
X126287748Y-86447969D01*
X126241701Y-86589688D01*
X126222749Y-86770000D01*
X116361289Y-86770000D01*
X116361069Y-86768610D01*
X116370641Y-86708178D01*
X116413905Y-86664913D01*
X116474336Y-86655342D01*
X116540000Y-86665742D01*
X116547697Y-86664523D01*
X116663867Y-86646124D01*
X116663869Y-86646124D01*
X116671562Y-86644905D01*
X116678502Y-86641369D01*
X116783306Y-86587969D01*
X116783308Y-86587968D01*
X116790245Y-86584433D01*
X116884433Y-86490245D01*
X116904242Y-86451369D01*
X116941369Y-86378502D01*
X116941369Y-86378501D01*
X116944905Y-86371562D01*
X116952654Y-86322640D01*
X116964523Y-86247697D01*
X116965742Y-86240000D01*
X116957390Y-86187266D01*
X116946124Y-86116133D01*
X116946124Y-86116131D01*
X116944905Y-86108438D01*
X116919051Y-86057697D01*
X116915129Y-86050000D01*
X119924258Y-86050000D01*
X119925477Y-86057697D01*
X119933514Y-86108438D01*
X119945095Y-86181562D01*
X119948631Y-86188501D01*
X119948631Y-86188502D01*
X120001745Y-86292743D01*
X120005567Y-86300245D01*
X120099755Y-86394433D01*
X120106692Y-86397968D01*
X120106694Y-86397969D01*
X120198812Y-86444905D01*
X120218438Y-86454905D01*
X120226131Y-86456124D01*
X120226133Y-86456124D01*
X120342303Y-86474523D01*
X120350000Y-86475742D01*
X120357697Y-86474523D01*
X120473867Y-86456124D01*
X120473869Y-86456124D01*
X120481562Y-86454905D01*
X120501188Y-86444905D01*
X120593306Y-86397969D01*
X120593308Y-86397968D01*
X120600245Y-86394433D01*
X120694433Y-86300245D01*
X120698256Y-86292743D01*
X120751369Y-86188502D01*
X120751369Y-86188501D01*
X120754905Y-86181562D01*
X120766487Y-86108438D01*
X120774523Y-86057697D01*
X120775742Y-86050000D01*
X120757503Y-85934843D01*
X120756124Y-85926133D01*
X120756124Y-85926131D01*
X120754905Y-85918438D01*
X120737068Y-85883430D01*
X120697969Y-85806694D01*
X120697968Y-85806692D01*
X120694433Y-85799755D01*
X120600245Y-85705567D01*
X120593308Y-85702032D01*
X120593306Y-85702031D01*
X120553993Y-85682000D01*
X146114749Y-85682000D01*
X146133701Y-85862312D01*
X146151937Y-85918438D01*
X146176527Y-85994116D01*
X146189727Y-86034743D01*
X146192318Y-86039231D01*
X146192319Y-86039233D01*
X146243859Y-86128502D01*
X146280379Y-86191757D01*
X146283851Y-86195613D01*
X146398226Y-86322640D01*
X146398230Y-86322644D01*
X146401696Y-86326493D01*
X146548374Y-86433061D01*
X146553106Y-86435168D01*
X146553108Y-86435169D01*
X146709267Y-86504696D01*
X146709271Y-86504697D01*
X146714005Y-86506805D01*
X146719075Y-86507883D01*
X146719076Y-86507883D01*
X146755168Y-86515554D01*
X146891348Y-86544500D01*
X147072652Y-86544500D01*
X147208832Y-86515554D01*
X147244924Y-86507883D01*
X147244925Y-86507883D01*
X147249995Y-86506805D01*
X147254729Y-86504697D01*
X147254733Y-86504696D01*
X147410892Y-86435169D01*
X147410894Y-86435168D01*
X147415626Y-86433061D01*
X147562304Y-86326493D01*
X147565770Y-86322644D01*
X147565774Y-86322640D01*
X147680149Y-86195613D01*
X147683621Y-86191757D01*
X147720141Y-86128502D01*
X147771681Y-86039233D01*
X147771682Y-86039231D01*
X147774273Y-86034743D01*
X147787474Y-85994116D01*
X147812063Y-85918438D01*
X147830299Y-85862312D01*
X147849251Y-85682000D01*
X147830299Y-85501688D01*
X147774273Y-85329257D01*
X147767155Y-85316927D01*
X147686214Y-85176734D01*
X147686213Y-85176733D01*
X147683621Y-85172243D01*
X147620254Y-85101867D01*
X147565774Y-85041360D01*
X147565770Y-85041356D01*
X147562304Y-85037507D01*
X147415626Y-84930939D01*
X147410894Y-84928832D01*
X147410892Y-84928831D01*
X147254733Y-84859304D01*
X147254729Y-84859303D01*
X147249995Y-84857195D01*
X147244925Y-84856117D01*
X147244924Y-84856117D01*
X147199387Y-84846438D01*
X147072652Y-84819500D01*
X146891348Y-84819500D01*
X146764613Y-84846438D01*
X146719076Y-84856117D01*
X146719075Y-84856117D01*
X146714005Y-84857195D01*
X146709269Y-84859304D01*
X146709268Y-84859304D01*
X146553109Y-84928831D01*
X146553107Y-84928832D01*
X146548375Y-84930939D01*
X146401696Y-85037507D01*
X146398230Y-85041356D01*
X146398226Y-85041360D01*
X146343746Y-85101867D01*
X146280379Y-85172243D01*
X146277787Y-85176733D01*
X146277786Y-85176734D01*
X146196846Y-85316927D01*
X146189727Y-85329257D01*
X146133701Y-85501688D01*
X146114749Y-85682000D01*
X120553993Y-85682000D01*
X120488502Y-85648631D01*
X120488501Y-85648631D01*
X120481562Y-85645095D01*
X120473869Y-85643876D01*
X120473867Y-85643876D01*
X120357697Y-85625477D01*
X120350000Y-85624258D01*
X120342303Y-85625477D01*
X120226133Y-85643876D01*
X120226131Y-85643876D01*
X120218438Y-85645095D01*
X120211499Y-85648631D01*
X120211498Y-85648631D01*
X120106694Y-85702031D01*
X120106692Y-85702032D01*
X120099755Y-85705567D01*
X120005567Y-85799755D01*
X120002032Y-85806692D01*
X120002031Y-85806694D01*
X119962932Y-85883430D01*
X119945095Y-85918438D01*
X119943876Y-85926131D01*
X119943876Y-85926133D01*
X119942497Y-85934843D01*
X119924258Y-86050000D01*
X116915129Y-86050000D01*
X116887969Y-85996694D01*
X116887968Y-85996692D01*
X116884433Y-85989755D01*
X116790245Y-85895567D01*
X116783308Y-85892032D01*
X116783306Y-85892031D01*
X116678502Y-85838631D01*
X116678501Y-85838631D01*
X116671562Y-85835095D01*
X116663869Y-85833876D01*
X116663867Y-85833876D01*
X116547697Y-85815477D01*
X116540000Y-85814258D01*
X116538942Y-85814426D01*
X116483987Y-85796570D01*
X116448023Y-85747070D01*
X116448023Y-85685884D01*
X116453968Y-85671532D01*
X116501369Y-85578502D01*
X116501369Y-85578501D01*
X116504905Y-85571562D01*
X116511345Y-85530905D01*
X116525742Y-85440000D01*
X116528062Y-85440367D01*
X116543430Y-85393068D01*
X116592930Y-85357104D01*
X116654116Y-85357104D01*
X116668468Y-85363049D01*
X116700497Y-85379369D01*
X116700500Y-85379370D01*
X116707438Y-85382905D01*
X116715131Y-85384124D01*
X116715133Y-85384124D01*
X116831303Y-85402523D01*
X116839000Y-85403742D01*
X116846697Y-85402523D01*
X116962867Y-85384124D01*
X116962869Y-85384124D01*
X116970562Y-85382905D01*
X117009532Y-85363049D01*
X117082306Y-85325969D01*
X117082308Y-85325968D01*
X117089245Y-85322433D01*
X117183433Y-85228245D01*
X117203461Y-85188939D01*
X117223301Y-85150000D01*
X133484258Y-85150000D01*
X133485477Y-85157697D01*
X133497523Y-85233751D01*
X133505095Y-85281562D01*
X133508631Y-85288501D01*
X133508631Y-85288502D01*
X133556732Y-85382905D01*
X133565567Y-85400245D01*
X133659755Y-85494433D01*
X133666692Y-85497968D01*
X133666694Y-85497969D01*
X133769838Y-85550523D01*
X133778438Y-85554905D01*
X133786131Y-85556124D01*
X133786133Y-85556124D01*
X133902303Y-85574523D01*
X133910000Y-85575742D01*
X133917697Y-85574523D01*
X134033867Y-85556124D01*
X134033869Y-85556124D01*
X134041562Y-85554905D01*
X134050162Y-85550523D01*
X134153306Y-85497969D01*
X134153308Y-85497968D01*
X134160245Y-85494433D01*
X134254433Y-85400245D01*
X134263269Y-85382905D01*
X134311369Y-85288502D01*
X134311369Y-85288501D01*
X134314905Y-85281562D01*
X134322478Y-85233751D01*
X134334523Y-85157697D01*
X134335742Y-85150000D01*
X134331941Y-85126000D01*
X136824258Y-85126000D01*
X136825477Y-85133697D01*
X136835455Y-85196694D01*
X136845095Y-85257562D01*
X136848631Y-85264501D01*
X136848631Y-85264502D01*
X136891399Y-85348438D01*
X136905567Y-85376245D01*
X136999755Y-85470433D01*
X137006692Y-85473968D01*
X137006694Y-85473969D01*
X137111498Y-85527369D01*
X137118438Y-85530905D01*
X137126131Y-85532124D01*
X137126133Y-85532124D01*
X137242303Y-85550523D01*
X137250000Y-85551742D01*
X137257697Y-85550523D01*
X137373867Y-85532124D01*
X137373869Y-85532124D01*
X137381562Y-85530905D01*
X137388502Y-85527369D01*
X137493306Y-85473969D01*
X137493308Y-85473968D01*
X137500245Y-85470433D01*
X137594433Y-85376245D01*
X137608602Y-85348438D01*
X137651369Y-85264502D01*
X137651369Y-85264501D01*
X137654905Y-85257562D01*
X137664546Y-85196694D01*
X137674523Y-85133697D01*
X137675742Y-85126000D01*
X137668240Y-85078631D01*
X137656124Y-85002133D01*
X137656124Y-85002131D01*
X137654905Y-84994438D01*
X137649604Y-84984034D01*
X137597969Y-84882694D01*
X137597968Y-84882692D01*
X137594433Y-84875755D01*
X137500245Y-84781567D01*
X137493308Y-84778032D01*
X137493306Y-84778031D01*
X137388502Y-84724631D01*
X137388501Y-84724631D01*
X137381562Y-84721095D01*
X137373869Y-84719876D01*
X137373867Y-84719876D01*
X137257697Y-84701477D01*
X137250000Y-84700258D01*
X137242303Y-84701477D01*
X137126133Y-84719876D01*
X137126131Y-84719876D01*
X137118438Y-84721095D01*
X137111499Y-84724631D01*
X137111498Y-84724631D01*
X137006694Y-84778031D01*
X137006692Y-84778032D01*
X136999755Y-84781567D01*
X136905567Y-84875755D01*
X136902032Y-84882692D01*
X136902031Y-84882694D01*
X136850396Y-84984034D01*
X136845095Y-84994438D01*
X136843876Y-85002131D01*
X136843876Y-85002133D01*
X136831760Y-85078631D01*
X136824258Y-85126000D01*
X134331941Y-85126000D01*
X134326561Y-85092031D01*
X134316124Y-85026133D01*
X134316124Y-85026131D01*
X134314905Y-85018438D01*
X134306597Y-85002133D01*
X134257969Y-84906694D01*
X134257968Y-84906692D01*
X134254433Y-84899755D01*
X134160245Y-84805567D01*
X134153308Y-84802032D01*
X134153306Y-84802031D01*
X134048502Y-84748631D01*
X134048501Y-84748631D01*
X134041562Y-84745095D01*
X134033869Y-84743876D01*
X134033867Y-84743876D01*
X133917697Y-84725477D01*
X133910000Y-84724258D01*
X133902303Y-84725477D01*
X133786133Y-84743876D01*
X133786131Y-84743876D01*
X133778438Y-84745095D01*
X133771499Y-84748631D01*
X133771498Y-84748631D01*
X133666694Y-84802031D01*
X133666692Y-84802032D01*
X133659755Y-84805567D01*
X133565567Y-84899755D01*
X133562032Y-84906692D01*
X133562031Y-84906694D01*
X133513403Y-85002133D01*
X133505095Y-85018438D01*
X133503876Y-85026131D01*
X133503876Y-85026133D01*
X133493439Y-85092031D01*
X133484258Y-85150000D01*
X117223301Y-85150000D01*
X117240369Y-85116502D01*
X117240369Y-85116501D01*
X117243905Y-85109562D01*
X117257925Y-85021045D01*
X117263523Y-84985697D01*
X117264742Y-84978000D01*
X117257436Y-84931870D01*
X117245124Y-84854133D01*
X117245124Y-84854131D01*
X117243905Y-84846438D01*
X117230729Y-84820579D01*
X117186969Y-84734694D01*
X117186968Y-84734692D01*
X117183433Y-84727755D01*
X117089245Y-84633567D01*
X117082308Y-84630032D01*
X117082306Y-84630031D01*
X116977502Y-84576631D01*
X116977501Y-84576631D01*
X116970562Y-84573095D01*
X116962869Y-84571876D01*
X116962867Y-84571876D01*
X116846697Y-84553477D01*
X116839000Y-84552258D01*
X116831303Y-84553477D01*
X116831302Y-84553477D01*
X116803009Y-84557958D01*
X116742577Y-84548386D01*
X116699313Y-84505121D01*
X116688620Y-84460582D01*
X116689742Y-84453500D01*
X116688523Y-84445803D01*
X116670124Y-84329633D01*
X116670124Y-84329631D01*
X116668905Y-84321938D01*
X116619963Y-84225883D01*
X116611969Y-84210194D01*
X116611968Y-84210192D01*
X116608433Y-84203255D01*
X116514245Y-84109067D01*
X116507308Y-84105532D01*
X116507306Y-84105531D01*
X116402502Y-84052131D01*
X116402501Y-84052131D01*
X116395562Y-84048595D01*
X116387869Y-84047376D01*
X116387867Y-84047376D01*
X116271697Y-84028977D01*
X116264000Y-84027758D01*
X116256303Y-84028977D01*
X116140133Y-84047376D01*
X116140131Y-84047376D01*
X116132438Y-84048595D01*
X116125499Y-84052131D01*
X116125498Y-84052131D01*
X116020694Y-84105531D01*
X116020692Y-84105532D01*
X116013755Y-84109067D01*
X115919567Y-84203255D01*
X115916032Y-84210192D01*
X115916031Y-84210194D01*
X115908037Y-84225883D01*
X115859095Y-84321938D01*
X115857876Y-84329631D01*
X115857876Y-84329633D01*
X115839477Y-84445803D01*
X115838258Y-84453500D01*
X115839477Y-84461197D01*
X115857760Y-84576631D01*
X115859095Y-84585062D01*
X115862631Y-84592001D01*
X115862631Y-84592002D01*
X115912017Y-84688927D01*
X115919567Y-84703745D01*
X116013755Y-84797933D01*
X116020693Y-84801468D01*
X116020697Y-84801471D01*
X116086609Y-84835055D01*
X116129873Y-84878319D01*
X116139444Y-84938752D01*
X116111666Y-84993268D01*
X116057150Y-85021045D01*
X116025023Y-85026133D01*
X115976133Y-85033876D01*
X115976131Y-85033876D01*
X115968438Y-85035095D01*
X115961499Y-85038631D01*
X115961498Y-85038631D01*
X115856694Y-85092031D01*
X115856692Y-85092032D01*
X115849755Y-85095567D01*
X115755567Y-85189755D01*
X115752032Y-85196692D01*
X115752031Y-85196694D01*
X115712710Y-85273867D01*
X115695095Y-85308438D01*
X115693876Y-85316131D01*
X115693876Y-85316133D01*
X115679682Y-85405751D01*
X115674258Y-85440000D01*
X115675477Y-85447697D01*
X115688656Y-85530905D01*
X115695095Y-85571562D01*
X115698631Y-85578501D01*
X115698631Y-85578502D01*
X115734364Y-85648631D01*
X115755567Y-85690245D01*
X115849755Y-85784433D01*
X115856692Y-85787968D01*
X115856694Y-85787969D01*
X115961498Y-85841369D01*
X115968438Y-85844905D01*
X115976131Y-85846124D01*
X115976133Y-85846124D01*
X116078343Y-85862312D01*
X116100000Y-85865742D01*
X116101058Y-85865574D01*
X116156013Y-85883430D01*
X116191977Y-85932930D01*
X116191977Y-85994116D01*
X116186032Y-86008468D01*
X116160949Y-86057697D01*
X116135095Y-86108438D01*
X116133876Y-86116131D01*
X116133876Y-86116133D01*
X116122610Y-86187266D01*
X116114258Y-86240000D01*
X116115477Y-86247697D01*
X116126025Y-86314296D01*
X116116453Y-86374728D01*
X116073189Y-86417993D01*
X116012758Y-86427564D01*
X115947094Y-86417164D01*
X115939397Y-86418383D01*
X115823227Y-86436782D01*
X115823225Y-86436782D01*
X115815532Y-86438001D01*
X115808593Y-86441537D01*
X115808592Y-86441537D01*
X115703788Y-86494937D01*
X115703786Y-86494938D01*
X115696849Y-86498473D01*
X115602661Y-86592661D01*
X115599126Y-86599598D01*
X115599125Y-86599600D01*
X115545725Y-86704404D01*
X115542189Y-86711344D01*
X115540970Y-86719037D01*
X115540970Y-86719039D01*
X115522571Y-86835209D01*
X115521352Y-86842906D01*
X115521256Y-86842891D01*
X115503664Y-86897035D01*
X115454164Y-86932999D01*
X115408084Y-86936625D01*
X115337697Y-86925477D01*
X115330000Y-86924258D01*
X115322303Y-86925477D01*
X115206133Y-86943876D01*
X115206131Y-86943876D01*
X115198438Y-86945095D01*
X115191499Y-86948631D01*
X115191498Y-86948631D01*
X115086694Y-87002031D01*
X115086692Y-87002032D01*
X115079755Y-87005567D01*
X114985567Y-87099755D01*
X114982032Y-87106692D01*
X114982031Y-87106694D01*
X114947606Y-87174258D01*
X114925095Y-87218438D01*
X114923876Y-87226131D01*
X114923876Y-87226133D01*
X114916094Y-87275266D01*
X114904258Y-87350000D01*
X114904552Y-87351857D01*
X114886570Y-87407201D01*
X114837070Y-87443165D01*
X114796429Y-87446364D01*
X114796429Y-87446419D01*
X114795732Y-87446419D01*
X114790994Y-87446792D01*
X114780942Y-87445200D01*
X114773245Y-87446419D01*
X114657075Y-87464818D01*
X114657073Y-87464818D01*
X114649380Y-87466037D01*
X114642441Y-87469573D01*
X114642440Y-87469573D01*
X114537636Y-87522973D01*
X114537634Y-87522974D01*
X114530697Y-87526509D01*
X114436509Y-87620697D01*
X114432974Y-87627634D01*
X114432973Y-87627636D01*
X114395942Y-87700314D01*
X114376037Y-87739380D01*
X114374818Y-87747073D01*
X114374818Y-87747075D01*
X114361295Y-87832461D01*
X114355200Y-87870942D01*
X104223736Y-87870942D01*
X104244433Y-87850245D01*
X104249980Y-87839360D01*
X104301369Y-87738502D01*
X104301369Y-87738501D01*
X104304905Y-87731562D01*
X104319426Y-87639882D01*
X104324523Y-87607697D01*
X104325742Y-87600000D01*
X104323139Y-87583566D01*
X104306124Y-87476133D01*
X104306124Y-87476131D01*
X104304905Y-87468438D01*
X104277419Y-87414493D01*
X104247969Y-87356694D01*
X104247968Y-87356692D01*
X104244433Y-87349755D01*
X104150245Y-87255567D01*
X104143308Y-87252032D01*
X104143306Y-87252031D01*
X104038502Y-87198631D01*
X104038501Y-87198631D01*
X104031562Y-87195095D01*
X104023869Y-87193876D01*
X104023867Y-87193876D01*
X103907697Y-87175477D01*
X103900000Y-87174258D01*
X103892303Y-87175477D01*
X103776133Y-87193876D01*
X103776131Y-87193876D01*
X103768438Y-87195095D01*
X103761499Y-87198631D01*
X103761498Y-87198631D01*
X103656694Y-87252031D01*
X103656692Y-87252032D01*
X103649755Y-87255567D01*
X103555567Y-87349755D01*
X103552032Y-87356692D01*
X103552031Y-87356694D01*
X103522581Y-87414493D01*
X103495095Y-87468438D01*
X103493876Y-87476131D01*
X103493876Y-87476133D01*
X103476861Y-87583566D01*
X103474258Y-87600000D01*
X103475477Y-87607697D01*
X103475477Y-87607698D01*
X103480574Y-87639882D01*
X103471002Y-87700314D01*
X103427737Y-87743578D01*
X103367305Y-87753149D01*
X103324599Y-87735458D01*
X103319820Y-87731986D01*
X103319817Y-87731984D01*
X103315626Y-87728939D01*
X103310894Y-87726832D01*
X103310892Y-87726831D01*
X103154733Y-87657304D01*
X103154729Y-87657303D01*
X103149995Y-87655195D01*
X103144925Y-87654117D01*
X103144924Y-87654117D01*
X103077952Y-87639882D01*
X102972652Y-87617500D01*
X102791348Y-87617500D01*
X102686048Y-87639882D01*
X102619076Y-87654117D01*
X102619075Y-87654117D01*
X102614005Y-87655195D01*
X102609269Y-87657304D01*
X102609268Y-87657304D01*
X102453109Y-87726831D01*
X102453107Y-87726832D01*
X102448375Y-87728939D01*
X102301696Y-87835507D01*
X102298230Y-87839356D01*
X102298226Y-87839360D01*
X102255470Y-87886846D01*
X102180379Y-87970243D01*
X102177787Y-87974733D01*
X102177786Y-87974734D01*
X102093232Y-88121187D01*
X102089727Y-88127257D01*
X102088126Y-88132186D01*
X102088125Y-88132187D01*
X102075007Y-88172560D01*
X102033701Y-88299688D01*
X102018165Y-88447500D01*
X102016135Y-88466818D01*
X102014749Y-88480000D01*
X94441783Y-88480000D01*
X94441783Y-87590000D01*
X98744318Y-87590000D01*
X98745165Y-87596434D01*
X98745667Y-87600245D01*
X98764956Y-87746762D01*
X98825464Y-87892841D01*
X98921718Y-88018282D01*
X99047159Y-88114536D01*
X99193238Y-88175044D01*
X99310639Y-88190500D01*
X99389361Y-88190500D01*
X99506762Y-88175044D01*
X99652841Y-88114536D01*
X99778282Y-88018282D01*
X99874536Y-87892841D01*
X99935044Y-87746762D01*
X99954333Y-87600245D01*
X99954835Y-87596434D01*
X99955682Y-87590000D01*
X99935044Y-87433238D01*
X99874536Y-87287159D01*
X99778282Y-87161718D01*
X99652841Y-87065464D01*
X99506762Y-87004956D01*
X99389361Y-86989500D01*
X99310639Y-86989500D01*
X99193238Y-87004956D01*
X99047159Y-87065464D01*
X98921718Y-87161718D01*
X98825464Y-87287159D01*
X98764956Y-87433238D01*
X98744318Y-87590000D01*
X94441783Y-87590000D01*
X94441783Y-86860000D01*
X97824258Y-86860000D01*
X97825477Y-86867697D01*
X97842388Y-86974468D01*
X97845095Y-86991562D01*
X97848631Y-86998501D01*
X97848631Y-86998502D01*
X97899663Y-87098657D01*
X97905567Y-87110245D01*
X97999755Y-87204433D01*
X98006692Y-87207968D01*
X98006694Y-87207969D01*
X98093171Y-87252031D01*
X98118438Y-87264905D01*
X98126131Y-87266124D01*
X98126133Y-87266124D01*
X98242303Y-87284523D01*
X98250000Y-87285742D01*
X98257697Y-87284523D01*
X98373867Y-87266124D01*
X98373869Y-87266124D01*
X98381562Y-87264905D01*
X98406829Y-87252031D01*
X98493306Y-87207969D01*
X98493308Y-87207968D01*
X98500245Y-87204433D01*
X98594433Y-87110245D01*
X98600338Y-87098657D01*
X98651369Y-86998502D01*
X98651369Y-86998501D01*
X98654905Y-86991562D01*
X98657613Y-86974468D01*
X98674523Y-86867697D01*
X98675742Y-86860000D01*
X98666464Y-86801421D01*
X98656124Y-86736133D01*
X98656124Y-86736131D01*
X98654905Y-86728438D01*
X98636935Y-86693169D01*
X98597969Y-86616694D01*
X98597968Y-86616692D01*
X98594433Y-86609755D01*
X98500245Y-86515567D01*
X98493308Y-86512032D01*
X98493306Y-86512031D01*
X98388502Y-86458631D01*
X98388501Y-86458631D01*
X98381562Y-86455095D01*
X98373869Y-86453876D01*
X98373867Y-86453876D01*
X98257697Y-86435477D01*
X98250000Y-86434258D01*
X98242303Y-86435477D01*
X98126133Y-86453876D01*
X98126131Y-86453876D01*
X98118438Y-86455095D01*
X98111499Y-86458631D01*
X98111498Y-86458631D01*
X98006694Y-86512031D01*
X98006692Y-86512032D01*
X97999755Y-86515567D01*
X97905567Y-86609755D01*
X97902032Y-86616692D01*
X97902031Y-86616694D01*
X97863065Y-86693169D01*
X97845095Y-86728438D01*
X97843876Y-86736131D01*
X97843876Y-86736133D01*
X97833536Y-86801421D01*
X97824258Y-86860000D01*
X94441783Y-86860000D01*
X94441783Y-85990000D01*
X95094258Y-85990000D01*
X95095477Y-85997697D01*
X95102056Y-86039233D01*
X95115095Y-86121562D01*
X95118631Y-86128501D01*
X95118631Y-86128502D01*
X95171143Y-86231562D01*
X95175567Y-86240245D01*
X95269755Y-86334433D01*
X95276692Y-86337968D01*
X95276694Y-86337969D01*
X95381498Y-86391369D01*
X95388438Y-86394905D01*
X95396131Y-86396124D01*
X95396133Y-86396124D01*
X95512303Y-86414523D01*
X95520000Y-86415742D01*
X95527697Y-86414523D01*
X95643867Y-86396124D01*
X95643869Y-86396124D01*
X95651562Y-86394905D01*
X95658502Y-86391369D01*
X95763306Y-86337969D01*
X95763308Y-86337968D01*
X95770245Y-86334433D01*
X95864433Y-86240245D01*
X95868858Y-86231562D01*
X95921369Y-86128502D01*
X95921369Y-86128501D01*
X95924905Y-86121562D01*
X95937945Y-86039233D01*
X95944523Y-85997697D01*
X95945742Y-85990000D01*
X95937823Y-85940000D01*
X102014749Y-85940000D01*
X102033701Y-86120312D01*
X102089727Y-86292743D01*
X102092318Y-86297231D01*
X102092319Y-86297233D01*
X102172134Y-86435477D01*
X102180379Y-86449757D01*
X102183851Y-86453613D01*
X102298226Y-86580640D01*
X102298230Y-86580644D01*
X102301696Y-86584493D01*
X102448374Y-86691061D01*
X102453106Y-86693168D01*
X102453108Y-86693169D01*
X102609267Y-86762696D01*
X102609271Y-86762697D01*
X102614005Y-86764805D01*
X102619075Y-86765883D01*
X102619076Y-86765883D01*
X102631906Y-86768610D01*
X102791348Y-86802500D01*
X102972652Y-86802500D01*
X103132094Y-86768610D01*
X103144924Y-86765883D01*
X103144925Y-86765883D01*
X103149995Y-86764805D01*
X103154729Y-86762697D01*
X103154733Y-86762696D01*
X103310892Y-86693169D01*
X103310894Y-86693168D01*
X103315626Y-86691061D01*
X103462304Y-86584493D01*
X103465770Y-86580644D01*
X103465774Y-86580640D01*
X103580149Y-86453613D01*
X103583621Y-86449757D01*
X103591866Y-86435477D01*
X103671681Y-86297233D01*
X103671682Y-86297231D01*
X103674273Y-86292743D01*
X103730299Y-86120312D01*
X103749251Y-85940000D01*
X103747794Y-85926133D01*
X103745204Y-85901498D01*
X103730299Y-85759688D01*
X103690965Y-85638631D01*
X103675875Y-85592187D01*
X103675874Y-85592186D01*
X103674273Y-85587257D01*
X103670219Y-85580234D01*
X103586214Y-85434734D01*
X103586213Y-85434733D01*
X103583621Y-85430243D01*
X103550363Y-85393306D01*
X103465774Y-85299360D01*
X103465770Y-85299356D01*
X103462304Y-85295507D01*
X103315626Y-85188939D01*
X103310894Y-85186832D01*
X103310892Y-85186831D01*
X103154733Y-85117304D01*
X103154729Y-85117303D01*
X103149995Y-85115195D01*
X103144925Y-85114117D01*
X103144924Y-85114117D01*
X103057651Y-85095567D01*
X102972652Y-85077500D01*
X102791348Y-85077500D01*
X102706349Y-85095567D01*
X102619076Y-85114117D01*
X102619075Y-85114117D01*
X102614005Y-85115195D01*
X102609269Y-85117304D01*
X102609268Y-85117304D01*
X102453109Y-85186831D01*
X102453107Y-85186832D01*
X102448375Y-85188939D01*
X102301696Y-85295507D01*
X102298230Y-85299356D01*
X102298226Y-85299360D01*
X102213637Y-85393306D01*
X102180379Y-85430243D01*
X102177787Y-85434733D01*
X102177786Y-85434734D01*
X102093782Y-85580234D01*
X102089727Y-85587257D01*
X102088126Y-85592186D01*
X102088125Y-85592187D01*
X102073035Y-85638631D01*
X102033701Y-85759688D01*
X102018796Y-85901498D01*
X102016207Y-85926133D01*
X102014749Y-85940000D01*
X95937823Y-85940000D01*
X95932880Y-85908792D01*
X95926124Y-85866133D01*
X95926124Y-85866131D01*
X95924905Y-85858438D01*
X95892199Y-85794249D01*
X95867969Y-85746694D01*
X95867968Y-85746692D01*
X95864433Y-85739755D01*
X95770245Y-85645567D01*
X95763308Y-85642032D01*
X95763306Y-85642031D01*
X95658502Y-85588631D01*
X95658501Y-85588631D01*
X95651562Y-85585095D01*
X95643869Y-85583876D01*
X95643867Y-85583876D01*
X95527697Y-85565477D01*
X95520000Y-85564258D01*
X95512303Y-85565477D01*
X95396133Y-85583876D01*
X95396131Y-85583876D01*
X95388438Y-85585095D01*
X95381499Y-85588631D01*
X95381498Y-85588631D01*
X95276694Y-85642031D01*
X95276692Y-85642032D01*
X95269755Y-85645567D01*
X95175567Y-85739755D01*
X95172032Y-85746692D01*
X95172031Y-85746694D01*
X95147801Y-85794249D01*
X95115095Y-85858438D01*
X95113876Y-85866131D01*
X95113876Y-85866133D01*
X95107120Y-85908792D01*
X95094258Y-85990000D01*
X94441783Y-85990000D01*
X94441783Y-84808000D01*
X107663258Y-84808000D01*
X107664477Y-84815697D01*
X107671384Y-84859304D01*
X107684095Y-84939562D01*
X107687631Y-84946501D01*
X107687631Y-84946502D01*
X107735964Y-85041360D01*
X107744567Y-85058245D01*
X107838755Y-85152433D01*
X107845692Y-85155968D01*
X107845694Y-85155969D01*
X107916378Y-85191984D01*
X107957438Y-85212905D01*
X107965131Y-85214124D01*
X107965133Y-85214124D01*
X108081303Y-85232523D01*
X108089000Y-85233742D01*
X108220562Y-85212905D01*
X108226634Y-85209811D01*
X108287324Y-85209811D01*
X108336824Y-85245775D01*
X108355731Y-85303966D01*
X108350886Y-85334556D01*
X108348631Y-85341498D01*
X108345095Y-85348438D01*
X108324258Y-85480000D01*
X108325477Y-85487697D01*
X108341246Y-85587257D01*
X108345095Y-85611562D01*
X108348631Y-85618501D01*
X108348631Y-85618502D01*
X108387898Y-85695567D01*
X108405567Y-85730245D01*
X108499755Y-85824433D01*
X108506692Y-85827968D01*
X108506694Y-85827969D01*
X108583778Y-85867245D01*
X108618438Y-85884905D01*
X108626131Y-85886124D01*
X108626133Y-85886124D01*
X108742303Y-85904523D01*
X108750000Y-85905742D01*
X108757697Y-85904523D01*
X108873867Y-85886124D01*
X108873869Y-85886124D01*
X108881562Y-85884905D01*
X108888502Y-85881369D01*
X108888508Y-85881367D01*
X108977407Y-85836070D01*
X109037839Y-85826498D01*
X109092355Y-85854275D01*
X109120133Y-85908792D01*
X109120133Y-85939766D01*
X109107594Y-86018939D01*
X109104258Y-86040000D01*
X109125095Y-86171562D01*
X109128631Y-86178501D01*
X109128631Y-86178502D01*
X109163888Y-86247697D01*
X109185567Y-86290245D01*
X109279755Y-86384433D01*
X109286692Y-86387968D01*
X109286694Y-86387969D01*
X109391498Y-86441369D01*
X109398438Y-86444905D01*
X109406131Y-86446124D01*
X109406133Y-86446124D01*
X109522303Y-86464523D01*
X109530000Y-86465742D01*
X109537697Y-86464523D01*
X109653867Y-86446124D01*
X109653869Y-86446124D01*
X109661562Y-86444905D01*
X109668502Y-86441369D01*
X109773306Y-86387969D01*
X109773308Y-86387968D01*
X109780245Y-86384433D01*
X109874433Y-86290245D01*
X109896113Y-86247697D01*
X109931369Y-86178502D01*
X109931369Y-86178501D01*
X109934905Y-86171562D01*
X109946239Y-86100000D01*
X110324258Y-86100000D01*
X110325477Y-86107697D01*
X110338791Y-86191757D01*
X110345095Y-86231562D01*
X110348631Y-86238501D01*
X110348631Y-86238502D01*
X110395017Y-86329539D01*
X110405567Y-86350245D01*
X110499755Y-86444433D01*
X110506692Y-86447968D01*
X110506694Y-86447969D01*
X110600472Y-86495751D01*
X110618438Y-86504905D01*
X110626131Y-86506124D01*
X110626133Y-86506124D01*
X110742303Y-86524523D01*
X110750000Y-86525742D01*
X110757697Y-86524523D01*
X110873867Y-86506124D01*
X110873869Y-86506124D01*
X110881562Y-86504905D01*
X110899528Y-86495751D01*
X110993306Y-86447969D01*
X110993308Y-86447968D01*
X111000245Y-86444433D01*
X111094433Y-86350245D01*
X111104984Y-86329539D01*
X111151369Y-86238502D01*
X111151369Y-86238501D01*
X111154905Y-86231562D01*
X111161210Y-86191757D01*
X111174523Y-86107697D01*
X111175742Y-86100000D01*
X111166118Y-86039233D01*
X111156124Y-85976133D01*
X111156124Y-85976131D01*
X111154905Y-85968438D01*
X111140296Y-85939766D01*
X111097969Y-85856694D01*
X111097968Y-85856692D01*
X111094433Y-85849755D01*
X111000245Y-85755567D01*
X110993308Y-85752032D01*
X110993306Y-85752031D01*
X110888502Y-85698631D01*
X110888501Y-85698631D01*
X110881562Y-85695095D01*
X110873869Y-85693876D01*
X110873867Y-85693876D01*
X110757697Y-85675477D01*
X110750000Y-85674258D01*
X110742303Y-85675477D01*
X110626133Y-85693876D01*
X110626131Y-85693876D01*
X110618438Y-85695095D01*
X110611499Y-85698631D01*
X110611498Y-85698631D01*
X110506694Y-85752031D01*
X110506692Y-85752032D01*
X110499755Y-85755567D01*
X110405567Y-85849755D01*
X110402032Y-85856692D01*
X110402031Y-85856694D01*
X110359704Y-85939766D01*
X110345095Y-85968438D01*
X110343876Y-85976131D01*
X110343876Y-85976133D01*
X110333882Y-86039233D01*
X110324258Y-86100000D01*
X109946239Y-86100000D01*
X109955742Y-86040000D01*
X109952406Y-86018939D01*
X109936124Y-85916133D01*
X109936124Y-85916131D01*
X109934905Y-85908438D01*
X109926545Y-85892031D01*
X109877969Y-85796694D01*
X109877968Y-85796692D01*
X109874433Y-85789755D01*
X109780245Y-85695567D01*
X109773308Y-85692032D01*
X109773306Y-85692031D01*
X109668502Y-85638631D01*
X109668501Y-85638631D01*
X109661562Y-85635095D01*
X109653869Y-85633876D01*
X109653867Y-85633876D01*
X109537697Y-85615477D01*
X109530000Y-85614258D01*
X109522303Y-85615477D01*
X109406133Y-85633876D01*
X109406131Y-85633876D01*
X109398438Y-85635095D01*
X109391498Y-85638631D01*
X109391492Y-85638633D01*
X109302593Y-85683930D01*
X109242161Y-85693502D01*
X109187645Y-85665725D01*
X109159867Y-85611208D01*
X109159867Y-85580234D01*
X109174523Y-85487697D01*
X109175742Y-85480000D01*
X109168188Y-85432303D01*
X109156124Y-85356133D01*
X109156123Y-85356130D01*
X109154905Y-85348438D01*
X109145132Y-85329257D01*
X109097969Y-85236694D01*
X109097968Y-85236692D01*
X109094433Y-85229755D01*
X109000245Y-85135567D01*
X108993308Y-85132032D01*
X108993306Y-85132031D01*
X108888502Y-85078631D01*
X108888501Y-85078631D01*
X108881562Y-85075095D01*
X108873869Y-85073876D01*
X108873867Y-85073876D01*
X108757697Y-85055477D01*
X108750000Y-85054258D01*
X108618438Y-85075095D01*
X108612366Y-85078189D01*
X108551676Y-85078189D01*
X108502176Y-85042225D01*
X108483269Y-84984034D01*
X108488114Y-84953444D01*
X108490370Y-84946500D01*
X108493905Y-84939562D01*
X108514742Y-84808000D01*
X108511428Y-84787073D01*
X108495124Y-84684133D01*
X108495124Y-84684131D01*
X108493905Y-84676438D01*
X108472061Y-84633567D01*
X108436969Y-84564694D01*
X108436968Y-84564692D01*
X108433433Y-84557755D01*
X108339245Y-84463567D01*
X108332308Y-84460032D01*
X108332306Y-84460031D01*
X108227502Y-84406631D01*
X108227501Y-84406631D01*
X108220562Y-84403095D01*
X108212869Y-84401876D01*
X108212867Y-84401876D01*
X108096697Y-84383477D01*
X108089000Y-84382258D01*
X108081303Y-84383477D01*
X107965133Y-84401876D01*
X107965131Y-84401876D01*
X107957438Y-84403095D01*
X107950499Y-84406631D01*
X107950498Y-84406631D01*
X107845694Y-84460031D01*
X107845692Y-84460032D01*
X107838755Y-84463567D01*
X107744567Y-84557755D01*
X107741032Y-84564692D01*
X107741031Y-84564694D01*
X107705939Y-84633567D01*
X107684095Y-84676438D01*
X107682876Y-84684131D01*
X107682876Y-84684133D01*
X107666572Y-84787073D01*
X107663258Y-84808000D01*
X94441783Y-84808000D01*
X94441783Y-83400000D01*
X102014749Y-83400000D01*
X102033701Y-83580312D01*
X102047980Y-83624258D01*
X102079009Y-83719755D01*
X102089727Y-83752743D01*
X102092318Y-83757231D01*
X102092319Y-83757233D01*
X102177786Y-83905266D01*
X102180379Y-83909757D01*
X102183851Y-83913613D01*
X102298226Y-84040640D01*
X102298230Y-84040644D01*
X102301696Y-84044493D01*
X102448374Y-84151061D01*
X102453106Y-84153168D01*
X102453108Y-84153169D01*
X102609267Y-84222696D01*
X102609271Y-84222697D01*
X102614005Y-84224805D01*
X102619075Y-84225883D01*
X102619076Y-84225883D01*
X102655168Y-84233554D01*
X102791348Y-84262500D01*
X102972652Y-84262500D01*
X103108832Y-84233554D01*
X103144924Y-84225883D01*
X103144925Y-84225883D01*
X103149995Y-84224805D01*
X103154729Y-84222697D01*
X103154733Y-84222696D01*
X103310892Y-84153169D01*
X103310894Y-84153168D01*
X103315626Y-84151061D01*
X103454724Y-84050000D01*
X109034258Y-84050000D01*
X109035477Y-84057697D01*
X109043524Y-84108502D01*
X109055095Y-84181562D01*
X109058631Y-84188501D01*
X109058631Y-84188502D01*
X109077678Y-84225883D01*
X109115567Y-84300245D01*
X109209755Y-84394433D01*
X109216692Y-84397968D01*
X109216694Y-84397969D01*
X109310574Y-84445803D01*
X109328438Y-84454905D01*
X109336131Y-84456124D01*
X109336133Y-84456124D01*
X109452303Y-84474523D01*
X109460000Y-84475742D01*
X109467697Y-84474523D01*
X109583867Y-84456124D01*
X109583869Y-84456124D01*
X109591562Y-84454905D01*
X109601189Y-84450000D01*
X110424258Y-84450000D01*
X110425477Y-84457697D01*
X110441357Y-84557958D01*
X110445095Y-84581562D01*
X110448631Y-84588501D01*
X110448631Y-84588502D01*
X110497358Y-84684133D01*
X110505567Y-84700245D01*
X110599755Y-84794433D01*
X110606692Y-84797968D01*
X110606694Y-84797969D01*
X110711498Y-84851369D01*
X110718438Y-84854905D01*
X110726131Y-84856124D01*
X110726133Y-84856124D01*
X110842303Y-84874523D01*
X110850000Y-84875742D01*
X110857697Y-84874523D01*
X110973867Y-84856124D01*
X110973869Y-84856124D01*
X110981562Y-84854905D01*
X110988502Y-84851369D01*
X111093306Y-84797969D01*
X111093308Y-84797968D01*
X111100245Y-84794433D01*
X111194433Y-84700245D01*
X111202643Y-84684133D01*
X111251369Y-84588502D01*
X111251369Y-84588501D01*
X111254905Y-84581562D01*
X111258644Y-84557958D01*
X111274523Y-84457697D01*
X111275742Y-84450000D01*
X111267149Y-84395742D01*
X111259904Y-84350000D01*
X112924258Y-84350000D01*
X112925477Y-84357697D01*
X112941870Y-84461197D01*
X112945095Y-84481562D01*
X112948631Y-84488501D01*
X112948631Y-84488502D01*
X112999584Y-84588502D01*
X113005567Y-84600245D01*
X113099755Y-84694433D01*
X113106692Y-84697968D01*
X113106694Y-84697969D01*
X113211498Y-84751369D01*
X113218438Y-84754905D01*
X113226131Y-84756124D01*
X113226133Y-84756124D01*
X113342303Y-84774523D01*
X113350000Y-84775742D01*
X113357697Y-84774523D01*
X113473867Y-84756124D01*
X113473869Y-84756124D01*
X113481562Y-84754905D01*
X113488502Y-84751369D01*
X113593306Y-84697969D01*
X113593308Y-84697968D01*
X113600245Y-84694433D01*
X113694433Y-84600245D01*
X113700417Y-84588502D01*
X113751369Y-84488502D01*
X113751369Y-84488501D01*
X113754905Y-84481562D01*
X113758131Y-84461197D01*
X113774523Y-84357697D01*
X113775742Y-84350000D01*
X113771603Y-84323867D01*
X113756124Y-84226133D01*
X113756124Y-84226131D01*
X113754905Y-84218438D01*
X113751369Y-84211498D01*
X113697969Y-84106694D01*
X113697968Y-84106692D01*
X113694433Y-84099755D01*
X113600245Y-84005567D01*
X113593308Y-84002032D01*
X113593306Y-84002031D01*
X113530441Y-83970000D01*
X120604258Y-83970000D01*
X120605477Y-83977697D01*
X120621068Y-84076133D01*
X120625095Y-84101562D01*
X120628631Y-84108501D01*
X120628631Y-84108502D01*
X120680446Y-84210194D01*
X120685567Y-84220245D01*
X120779755Y-84314433D01*
X120786692Y-84317968D01*
X120786694Y-84317969D01*
X120849559Y-84350000D01*
X120898438Y-84374905D01*
X120906131Y-84376124D01*
X120906133Y-84376124D01*
X121022303Y-84394523D01*
X121030000Y-84395742D01*
X121037697Y-84394523D01*
X121153867Y-84376124D01*
X121153869Y-84376124D01*
X121161562Y-84374905D01*
X121210441Y-84350000D01*
X121273306Y-84317969D01*
X121273308Y-84317968D01*
X121280245Y-84314433D01*
X121374433Y-84220245D01*
X121379555Y-84210194D01*
X121384749Y-84200000D01*
X145874258Y-84200000D01*
X145875477Y-84207697D01*
X145893571Y-84321938D01*
X145895095Y-84331562D01*
X145898631Y-84338501D01*
X145898631Y-84338502D01*
X145933345Y-84406631D01*
X145955567Y-84450245D01*
X146049755Y-84544433D01*
X146056692Y-84547968D01*
X146056694Y-84547969D01*
X146159292Y-84600245D01*
X146168438Y-84604905D01*
X146176131Y-84606124D01*
X146176133Y-84606124D01*
X146292303Y-84624523D01*
X146300000Y-84625742D01*
X146307697Y-84624523D01*
X146423867Y-84606124D01*
X146423869Y-84606124D01*
X146431562Y-84604905D01*
X146440708Y-84600245D01*
X146543306Y-84547969D01*
X146543308Y-84547968D01*
X146550245Y-84544433D01*
X146644433Y-84450245D01*
X146666656Y-84406631D01*
X146701369Y-84338502D01*
X146701369Y-84338501D01*
X146704905Y-84331562D01*
X146706430Y-84321938D01*
X146724523Y-84207697D01*
X146725742Y-84200000D01*
X146711340Y-84109067D01*
X146710464Y-84103534D01*
X146720036Y-84043102D01*
X146763300Y-83999838D01*
X146828828Y-83991211D01*
X146891348Y-84004500D01*
X147072652Y-84004500D01*
X147234964Y-83970000D01*
X147244924Y-83967883D01*
X147244925Y-83967883D01*
X147249995Y-83966805D01*
X147254729Y-83964697D01*
X147254733Y-83964696D01*
X147410892Y-83895169D01*
X147410894Y-83895168D01*
X147415626Y-83893061D01*
X147562304Y-83786493D01*
X147565770Y-83782644D01*
X147565774Y-83782640D01*
X147680149Y-83655613D01*
X147683621Y-83651757D01*
X147699498Y-83624258D01*
X147771681Y-83499233D01*
X147771682Y-83499231D01*
X147774273Y-83494743D01*
X147830299Y-83322312D01*
X147849251Y-83142000D01*
X147830299Y-82961688D01*
X147790274Y-82838502D01*
X147775875Y-82794187D01*
X147775874Y-82794186D01*
X147774273Y-82789257D01*
X147760923Y-82766133D01*
X147686214Y-82636734D01*
X147686213Y-82636733D01*
X147683621Y-82632243D01*
X147634154Y-82577304D01*
X147565774Y-82501360D01*
X147565770Y-82501356D01*
X147562304Y-82497507D01*
X147415626Y-82390939D01*
X147410894Y-82388832D01*
X147410892Y-82388831D01*
X147254733Y-82319304D01*
X147254729Y-82319303D01*
X147249995Y-82317195D01*
X147244925Y-82316117D01*
X147244924Y-82316117D01*
X147208832Y-82308446D01*
X147072652Y-82279500D01*
X146891348Y-82279500D01*
X146755168Y-82308446D01*
X146719076Y-82316117D01*
X146719075Y-82316117D01*
X146714005Y-82317195D01*
X146709269Y-82319304D01*
X146709268Y-82319304D01*
X146553109Y-82388831D01*
X146553107Y-82388832D01*
X146548375Y-82390939D01*
X146401696Y-82497507D01*
X146398230Y-82501356D01*
X146398226Y-82501360D01*
X146329846Y-82577304D01*
X146280379Y-82632243D01*
X146277787Y-82636733D01*
X146277786Y-82636734D01*
X146203078Y-82766133D01*
X146189727Y-82789257D01*
X146188126Y-82794186D01*
X146188125Y-82794187D01*
X146173726Y-82838502D01*
X146133701Y-82961688D01*
X146114749Y-83142000D01*
X146133701Y-83322312D01*
X146189727Y-83494743D01*
X146192318Y-83499231D01*
X146192319Y-83499233D01*
X146274800Y-83642094D01*
X146287521Y-83701942D01*
X146262634Y-83757838D01*
X146204551Y-83789375D01*
X146176132Y-83793876D01*
X146176130Y-83793877D01*
X146168438Y-83795095D01*
X146161499Y-83798631D01*
X146161498Y-83798631D01*
X146056694Y-83852031D01*
X146056692Y-83852032D01*
X146049755Y-83855567D01*
X145955567Y-83949755D01*
X145952032Y-83956692D01*
X145952031Y-83956694D01*
X145903404Y-84052131D01*
X145895095Y-84068438D01*
X145893876Y-84076131D01*
X145893876Y-84076133D01*
X145888660Y-84109067D01*
X145874258Y-84200000D01*
X121384749Y-84200000D01*
X121431369Y-84108502D01*
X121431369Y-84108501D01*
X121434905Y-84101562D01*
X121438933Y-84076133D01*
X121454523Y-83977697D01*
X121455742Y-83970000D01*
X121451664Y-83944249D01*
X121436124Y-83846133D01*
X121436124Y-83846131D01*
X121434905Y-83838438D01*
X121415195Y-83799755D01*
X121377969Y-83726694D01*
X121377968Y-83726692D01*
X121374433Y-83719755D01*
X121280245Y-83625567D01*
X121273308Y-83622032D01*
X121273306Y-83622031D01*
X121168502Y-83568631D01*
X121168501Y-83568631D01*
X121161562Y-83565095D01*
X121153869Y-83563876D01*
X121153867Y-83563876D01*
X121037697Y-83545477D01*
X121030000Y-83544258D01*
X121022303Y-83545477D01*
X120906133Y-83563876D01*
X120906131Y-83563876D01*
X120898438Y-83565095D01*
X120891499Y-83568631D01*
X120891498Y-83568631D01*
X120786694Y-83622031D01*
X120786692Y-83622032D01*
X120779755Y-83625567D01*
X120685567Y-83719755D01*
X120682032Y-83726692D01*
X120682031Y-83726694D01*
X120644805Y-83799755D01*
X120625095Y-83838438D01*
X120623876Y-83846131D01*
X120623876Y-83846133D01*
X120608336Y-83944249D01*
X120604258Y-83970000D01*
X113530441Y-83970000D01*
X113488502Y-83948631D01*
X113488501Y-83948631D01*
X113481562Y-83945095D01*
X113473869Y-83943876D01*
X113473867Y-83943876D01*
X113357697Y-83925477D01*
X113350000Y-83924258D01*
X113342303Y-83925477D01*
X113226133Y-83943876D01*
X113226131Y-83943876D01*
X113218438Y-83945095D01*
X113211499Y-83948631D01*
X113211498Y-83948631D01*
X113106694Y-84002031D01*
X113106692Y-84002032D01*
X113099755Y-84005567D01*
X113005567Y-84099755D01*
X113002032Y-84106692D01*
X113002031Y-84106694D01*
X112948631Y-84211498D01*
X112945095Y-84218438D01*
X112943876Y-84226131D01*
X112943876Y-84226133D01*
X112928397Y-84323867D01*
X112924258Y-84350000D01*
X111259904Y-84350000D01*
X111256124Y-84326133D01*
X111256124Y-84326131D01*
X111254905Y-84318438D01*
X111226403Y-84262500D01*
X111197969Y-84206694D01*
X111197968Y-84206692D01*
X111194433Y-84199755D01*
X111100245Y-84105567D01*
X111093308Y-84102032D01*
X111093306Y-84102031D01*
X110988502Y-84048631D01*
X110988501Y-84048631D01*
X110981562Y-84045095D01*
X110973869Y-84043876D01*
X110973867Y-84043876D01*
X110857697Y-84025477D01*
X110850000Y-84024258D01*
X110842303Y-84025477D01*
X110726133Y-84043876D01*
X110726131Y-84043876D01*
X110718438Y-84045095D01*
X110711499Y-84048631D01*
X110711498Y-84048631D01*
X110606694Y-84102031D01*
X110606692Y-84102032D01*
X110599755Y-84105567D01*
X110505567Y-84199755D01*
X110502032Y-84206692D01*
X110502031Y-84206694D01*
X110473597Y-84262500D01*
X110445095Y-84318438D01*
X110443876Y-84326131D01*
X110443876Y-84326133D01*
X110432851Y-84395742D01*
X110424258Y-84450000D01*
X109601189Y-84450000D01*
X109609426Y-84445803D01*
X109703306Y-84397969D01*
X109703308Y-84397968D01*
X109710245Y-84394433D01*
X109804433Y-84300245D01*
X109842323Y-84225883D01*
X109861369Y-84188502D01*
X109861369Y-84188501D01*
X109864905Y-84181562D01*
X109876477Y-84108502D01*
X109884523Y-84057697D01*
X109885742Y-84050000D01*
X109874291Y-83977697D01*
X109866124Y-83926133D01*
X109866124Y-83926131D01*
X109864905Y-83918438D01*
X109850423Y-83890016D01*
X109807969Y-83806694D01*
X109807968Y-83806692D01*
X109804433Y-83799755D01*
X109710245Y-83705567D01*
X109703308Y-83702032D01*
X109703306Y-83702031D01*
X109598502Y-83648631D01*
X109598501Y-83648631D01*
X109591562Y-83645095D01*
X109583869Y-83643876D01*
X109583867Y-83643876D01*
X109467697Y-83625477D01*
X109460000Y-83624258D01*
X109452303Y-83625477D01*
X109336133Y-83643876D01*
X109336131Y-83643876D01*
X109328438Y-83645095D01*
X109321499Y-83648631D01*
X109321498Y-83648631D01*
X109216694Y-83702031D01*
X109216692Y-83702032D01*
X109209755Y-83705567D01*
X109115567Y-83799755D01*
X109112032Y-83806692D01*
X109112031Y-83806694D01*
X109069577Y-83890016D01*
X109055095Y-83918438D01*
X109053876Y-83926131D01*
X109053876Y-83926133D01*
X109045709Y-83977697D01*
X109034258Y-84050000D01*
X103454724Y-84050000D01*
X103462304Y-84044493D01*
X103465770Y-84040644D01*
X103465774Y-84040640D01*
X103580149Y-83913613D01*
X103583621Y-83909757D01*
X103586214Y-83905266D01*
X103671681Y-83757233D01*
X103671682Y-83757231D01*
X103674273Y-83752743D01*
X103684992Y-83719755D01*
X103716020Y-83624258D01*
X103730299Y-83580312D01*
X103743996Y-83450000D01*
X107824258Y-83450000D01*
X107825477Y-83457697D01*
X107843027Y-83568502D01*
X107845095Y-83581562D01*
X107848631Y-83588501D01*
X107848631Y-83588502D01*
X107877467Y-83645095D01*
X107905567Y-83700245D01*
X107999755Y-83794433D01*
X108006692Y-83797968D01*
X108006694Y-83797969D01*
X108101222Y-83846133D01*
X108118438Y-83854905D01*
X108126131Y-83856124D01*
X108126133Y-83856124D01*
X108242303Y-83874523D01*
X108250000Y-83875742D01*
X108257697Y-83874523D01*
X108373867Y-83856124D01*
X108373869Y-83856124D01*
X108381562Y-83854905D01*
X108398778Y-83846133D01*
X108493306Y-83797969D01*
X108493308Y-83797968D01*
X108500245Y-83794433D01*
X108594433Y-83700245D01*
X108622534Y-83645095D01*
X108651369Y-83588502D01*
X108651369Y-83588501D01*
X108654905Y-83581562D01*
X108656974Y-83568502D01*
X108674523Y-83457697D01*
X108675742Y-83450000D01*
X108673988Y-83438927D01*
X108656124Y-83326133D01*
X108656124Y-83326131D01*
X108654905Y-83318438D01*
X108648635Y-83306133D01*
X108597969Y-83206694D01*
X108597968Y-83206692D01*
X108594433Y-83199755D01*
X108500245Y-83105567D01*
X108493308Y-83102032D01*
X108493306Y-83102031D01*
X108489320Y-83100000D01*
X112374258Y-83100000D01*
X112375477Y-83107697D01*
X112389858Y-83198494D01*
X112395095Y-83231562D01*
X112398631Y-83238501D01*
X112398631Y-83238502D01*
X112439361Y-83318438D01*
X112455567Y-83350245D01*
X112549755Y-83444433D01*
X112556692Y-83447968D01*
X112556694Y-83447969D01*
X112638818Y-83489813D01*
X112668438Y-83504905D01*
X112676131Y-83506124D01*
X112676133Y-83506124D01*
X112792303Y-83524523D01*
X112800000Y-83525742D01*
X112807697Y-83524523D01*
X112923867Y-83506124D01*
X112923869Y-83506124D01*
X112931562Y-83504905D01*
X112961182Y-83489813D01*
X113043306Y-83447969D01*
X113043308Y-83447968D01*
X113050245Y-83444433D01*
X113130323Y-83364355D01*
X115710142Y-83364355D01*
X115711361Y-83372052D01*
X115724926Y-83457697D01*
X115730979Y-83495917D01*
X115734515Y-83502856D01*
X115734515Y-83502857D01*
X115786780Y-83605432D01*
X115791451Y-83614600D01*
X115885639Y-83708788D01*
X115892576Y-83712323D01*
X115892578Y-83712324D01*
X115981905Y-83757838D01*
X116004322Y-83769260D01*
X116012015Y-83770479D01*
X116012017Y-83770479D01*
X116128187Y-83788878D01*
X116135884Y-83790097D01*
X116143581Y-83788878D01*
X116259751Y-83770479D01*
X116259753Y-83770479D01*
X116267446Y-83769260D01*
X116289863Y-83757838D01*
X116379190Y-83712324D01*
X116379192Y-83712323D01*
X116386129Y-83708788D01*
X116471279Y-83623638D01*
X116525796Y-83595861D01*
X116586228Y-83605432D01*
X116629493Y-83648698D01*
X116645567Y-83680245D01*
X116739755Y-83774433D01*
X116746692Y-83777968D01*
X116746694Y-83777969D01*
X116851498Y-83831369D01*
X116858438Y-83834905D01*
X116866131Y-83836124D01*
X116866133Y-83836124D01*
X116982303Y-83854523D01*
X116990000Y-83855742D01*
X116997697Y-83854523D01*
X117113867Y-83836124D01*
X117113869Y-83836124D01*
X117121562Y-83834905D01*
X117128502Y-83831369D01*
X117233306Y-83777969D01*
X117233308Y-83777968D01*
X117240245Y-83774433D01*
X117334433Y-83680245D01*
X117348949Y-83651757D01*
X117391369Y-83568502D01*
X117391369Y-83568501D01*
X117394905Y-83561562D01*
X117400772Y-83524523D01*
X117414523Y-83437697D01*
X117415742Y-83430000D01*
X117402011Y-83343306D01*
X117396124Y-83306133D01*
X117396124Y-83306131D01*
X117394905Y-83298438D01*
X117360830Y-83231562D01*
X117337969Y-83186694D01*
X117337968Y-83186692D01*
X117334433Y-83179755D01*
X117254678Y-83100000D01*
X134374258Y-83100000D01*
X134375477Y-83107697D01*
X134389858Y-83198494D01*
X134395095Y-83231562D01*
X134398631Y-83238501D01*
X134398631Y-83238502D01*
X134439361Y-83318438D01*
X134455567Y-83350245D01*
X134549755Y-83444433D01*
X134556692Y-83447968D01*
X134556694Y-83447969D01*
X134638818Y-83489813D01*
X134668438Y-83504905D01*
X134676131Y-83506124D01*
X134676133Y-83506124D01*
X134792303Y-83524523D01*
X134800000Y-83525742D01*
X134807697Y-83524523D01*
X134923867Y-83506124D01*
X134923869Y-83506124D01*
X134931562Y-83504905D01*
X134961182Y-83489813D01*
X135043306Y-83447969D01*
X135043308Y-83447968D01*
X135050245Y-83444433D01*
X135144433Y-83350245D01*
X135160640Y-83318438D01*
X135201369Y-83238502D01*
X135201369Y-83238501D01*
X135204905Y-83231562D01*
X135210143Y-83198494D01*
X135224523Y-83107697D01*
X135225742Y-83100000D01*
X135217501Y-83047969D01*
X135206124Y-82976133D01*
X135206124Y-82976131D01*
X135204905Y-82968438D01*
X135190330Y-82939832D01*
X135147969Y-82856694D01*
X135147968Y-82856692D01*
X135144433Y-82849755D01*
X135050245Y-82755567D01*
X135043308Y-82752032D01*
X135043306Y-82752031D01*
X134938502Y-82698631D01*
X134938501Y-82698631D01*
X134931562Y-82695095D01*
X134923869Y-82693876D01*
X134923867Y-82693876D01*
X134807697Y-82675477D01*
X134800000Y-82674258D01*
X134792303Y-82675477D01*
X134676133Y-82693876D01*
X134676131Y-82693876D01*
X134668438Y-82695095D01*
X134661499Y-82698631D01*
X134661498Y-82698631D01*
X134556694Y-82752031D01*
X134556692Y-82752032D01*
X134549755Y-82755567D01*
X134455567Y-82849755D01*
X134452032Y-82856692D01*
X134452031Y-82856694D01*
X134409670Y-82939832D01*
X134395095Y-82968438D01*
X134393876Y-82976131D01*
X134393876Y-82976133D01*
X134382499Y-83047969D01*
X134374258Y-83100000D01*
X117254678Y-83100000D01*
X117240245Y-83085567D01*
X117233308Y-83082032D01*
X117233306Y-83082031D01*
X117128502Y-83028631D01*
X117128501Y-83028631D01*
X117121562Y-83025095D01*
X117113869Y-83023876D01*
X117113867Y-83023876D01*
X116997697Y-83005477D01*
X116990000Y-83004258D01*
X116982303Y-83005477D01*
X116866133Y-83023876D01*
X116866131Y-83023876D01*
X116858438Y-83025095D01*
X116851499Y-83028631D01*
X116851498Y-83028631D01*
X116746694Y-83082031D01*
X116746692Y-83082032D01*
X116739755Y-83085567D01*
X116654605Y-83170717D01*
X116600088Y-83198494D01*
X116539656Y-83188923D01*
X116496391Y-83145657D01*
X116483854Y-83121051D01*
X116483853Y-83121049D01*
X116480317Y-83114110D01*
X116386129Y-83019922D01*
X116379192Y-83016387D01*
X116379190Y-83016386D01*
X116274386Y-82962986D01*
X116274385Y-82962986D01*
X116267446Y-82959450D01*
X116259753Y-82958231D01*
X116259751Y-82958231D01*
X116143581Y-82939832D01*
X116135884Y-82938613D01*
X116128187Y-82939832D01*
X116012017Y-82958231D01*
X116012015Y-82958231D01*
X116004322Y-82959450D01*
X115997383Y-82962986D01*
X115997382Y-82962986D01*
X115892578Y-83016386D01*
X115892576Y-83016387D01*
X115885639Y-83019922D01*
X115791451Y-83114110D01*
X115787916Y-83121047D01*
X115787915Y-83121049D01*
X115753332Y-83188923D01*
X115730979Y-83232793D01*
X115729760Y-83240486D01*
X115729760Y-83240488D01*
X115713476Y-83343306D01*
X115710142Y-83364355D01*
X113130323Y-83364355D01*
X113144433Y-83350245D01*
X113160640Y-83318438D01*
X113201369Y-83238502D01*
X113201369Y-83238501D01*
X113204905Y-83231562D01*
X113210143Y-83198494D01*
X113224523Y-83107697D01*
X113225742Y-83100000D01*
X113217501Y-83047969D01*
X113206124Y-82976133D01*
X113206124Y-82976131D01*
X113204905Y-82968438D01*
X113190330Y-82939832D01*
X113147969Y-82856694D01*
X113147968Y-82856692D01*
X113144433Y-82849755D01*
X113050245Y-82755567D01*
X113043308Y-82752032D01*
X113043306Y-82752031D01*
X112941189Y-82700000D01*
X113774258Y-82700000D01*
X113775477Y-82707697D01*
X113791864Y-82811159D01*
X113795095Y-82831562D01*
X113798631Y-82838501D01*
X113798631Y-82838502D01*
X113827283Y-82894734D01*
X113855567Y-82950245D01*
X113949755Y-83044433D01*
X113956692Y-83047968D01*
X113956694Y-83047969D01*
X114023545Y-83082031D01*
X114068438Y-83104905D01*
X114076131Y-83106124D01*
X114076133Y-83106124D01*
X114192303Y-83124523D01*
X114200000Y-83125742D01*
X114207697Y-83124523D01*
X114323867Y-83106124D01*
X114323869Y-83106124D01*
X114331562Y-83104905D01*
X114376455Y-83082031D01*
X114443306Y-83047969D01*
X114443308Y-83047968D01*
X114450245Y-83044433D01*
X114544433Y-82950245D01*
X114572718Y-82894734D01*
X114601369Y-82838502D01*
X114601369Y-82838501D01*
X114604905Y-82831562D01*
X114608137Y-82811159D01*
X114624523Y-82707697D01*
X114625742Y-82700000D01*
X114624523Y-82692303D01*
X114606124Y-82576133D01*
X114606124Y-82576131D01*
X114604905Y-82568438D01*
X114544433Y-82449755D01*
X114450245Y-82355567D01*
X114443308Y-82352032D01*
X114443306Y-82352031D01*
X114338502Y-82298631D01*
X114338501Y-82298631D01*
X114331562Y-82295095D01*
X114323869Y-82293876D01*
X114323867Y-82293876D01*
X114207697Y-82275477D01*
X114200000Y-82274258D01*
X114192303Y-82275477D01*
X114076133Y-82293876D01*
X114076131Y-82293876D01*
X114068438Y-82295095D01*
X114061499Y-82298631D01*
X114061498Y-82298631D01*
X113956694Y-82352031D01*
X113956692Y-82352032D01*
X113949755Y-82355567D01*
X113855567Y-82449755D01*
X113795095Y-82568438D01*
X113793876Y-82576131D01*
X113793876Y-82576133D01*
X113775477Y-82692303D01*
X113774258Y-82700000D01*
X112941189Y-82700000D01*
X112938502Y-82698631D01*
X112938501Y-82698631D01*
X112931562Y-82695095D01*
X112923869Y-82693876D01*
X112923867Y-82693876D01*
X112807697Y-82675477D01*
X112800000Y-82674258D01*
X112792303Y-82675477D01*
X112676133Y-82693876D01*
X112676131Y-82693876D01*
X112668438Y-82695095D01*
X112661499Y-82698631D01*
X112661498Y-82698631D01*
X112556694Y-82752031D01*
X112556692Y-82752032D01*
X112549755Y-82755567D01*
X112455567Y-82849755D01*
X112452032Y-82856692D01*
X112452031Y-82856694D01*
X112409670Y-82939832D01*
X112395095Y-82968438D01*
X112393876Y-82976131D01*
X112393876Y-82976133D01*
X112382499Y-83047969D01*
X112374258Y-83100000D01*
X108489320Y-83100000D01*
X108388502Y-83048631D01*
X108388501Y-83048631D01*
X108381562Y-83045095D01*
X108373869Y-83043876D01*
X108373867Y-83043876D01*
X108257697Y-83025477D01*
X108250000Y-83024258D01*
X108242303Y-83025477D01*
X108126133Y-83043876D01*
X108126131Y-83043876D01*
X108118438Y-83045095D01*
X108111499Y-83048631D01*
X108111498Y-83048631D01*
X108006694Y-83102031D01*
X108006692Y-83102032D01*
X107999755Y-83105567D01*
X107905567Y-83199755D01*
X107902032Y-83206692D01*
X107902031Y-83206694D01*
X107851365Y-83306133D01*
X107845095Y-83318438D01*
X107843876Y-83326131D01*
X107843876Y-83326133D01*
X107826012Y-83438927D01*
X107824258Y-83450000D01*
X103743996Y-83450000D01*
X103749251Y-83400000D01*
X103730299Y-83219688D01*
X103674273Y-83047257D01*
X103663520Y-83028631D01*
X103586214Y-82894734D01*
X103586213Y-82894733D01*
X103583621Y-82890243D01*
X103553413Y-82856694D01*
X103465774Y-82759360D01*
X103465770Y-82759356D01*
X103462304Y-82755507D01*
X103315626Y-82648939D01*
X103310894Y-82646832D01*
X103310892Y-82646831D01*
X103154733Y-82577304D01*
X103154729Y-82577303D01*
X103149995Y-82575195D01*
X103144925Y-82574117D01*
X103144924Y-82574117D01*
X103085555Y-82561498D01*
X102972652Y-82537500D01*
X102791348Y-82537500D01*
X102678445Y-82561498D01*
X102619076Y-82574117D01*
X102619075Y-82574117D01*
X102614005Y-82575195D01*
X102609269Y-82577304D01*
X102609268Y-82577304D01*
X102453109Y-82646831D01*
X102453107Y-82646832D01*
X102448375Y-82648939D01*
X102301696Y-82755507D01*
X102298230Y-82759356D01*
X102298226Y-82759360D01*
X102210587Y-82856694D01*
X102180379Y-82890243D01*
X102177787Y-82894733D01*
X102177786Y-82894734D01*
X102100481Y-83028631D01*
X102089727Y-83047257D01*
X102033701Y-83219688D01*
X102014749Y-83400000D01*
X94441783Y-83400000D01*
X94441783Y-81810000D01*
X98744318Y-81810000D01*
X98764956Y-81966762D01*
X98825464Y-82112841D01*
X98921718Y-82238282D01*
X99047159Y-82334536D01*
X99053154Y-82337019D01*
X99057404Y-82339473D01*
X99098344Y-82384943D01*
X99104739Y-82445793D01*
X99074146Y-82498781D01*
X99052849Y-82513418D01*
X98996697Y-82542029D01*
X98996693Y-82542032D01*
X98989755Y-82545567D01*
X98895567Y-82639755D01*
X98892032Y-82646692D01*
X98892031Y-82646694D01*
X98863226Y-82703227D01*
X98835095Y-82758438D01*
X98833876Y-82766131D01*
X98833876Y-82766133D01*
X98823282Y-82833023D01*
X98814258Y-82890000D01*
X98815477Y-82897697D01*
X98833515Y-83011584D01*
X98835095Y-83021562D01*
X98838631Y-83028501D01*
X98838631Y-83028502D01*
X98882251Y-83114110D01*
X98895567Y-83140245D01*
X98989755Y-83234433D01*
X98996692Y-83237968D01*
X98996694Y-83237969D01*
X99101498Y-83291369D01*
X99108438Y-83294905D01*
X99116131Y-83296124D01*
X99116133Y-83296124D01*
X99232303Y-83314523D01*
X99240000Y-83315742D01*
X99247697Y-83314523D01*
X99363867Y-83296124D01*
X99363869Y-83296124D01*
X99371562Y-83294905D01*
X99378502Y-83291369D01*
X99483306Y-83237969D01*
X99483308Y-83237968D01*
X99490245Y-83234433D01*
X99584433Y-83140245D01*
X99597750Y-83114110D01*
X99641369Y-83028502D01*
X99641369Y-83028501D01*
X99644905Y-83021562D01*
X99646486Y-83011584D01*
X99664523Y-82897697D01*
X99665742Y-82890000D01*
X99656718Y-82833023D01*
X99646124Y-82766133D01*
X99646124Y-82766131D01*
X99644905Y-82758438D01*
X99616774Y-82703227D01*
X99587969Y-82646694D01*
X99587968Y-82646692D01*
X99584433Y-82639755D01*
X99493415Y-82548737D01*
X99465638Y-82494220D01*
X99475209Y-82433788D01*
X99518474Y-82390523D01*
X99525533Y-82387269D01*
X99640922Y-82339473D01*
X99652841Y-82334536D01*
X99778282Y-82238282D01*
X99874536Y-82112841D01*
X99935044Y-81966762D01*
X99955682Y-81810000D01*
X99935044Y-81653238D01*
X99874536Y-81507159D01*
X99778282Y-81381718D01*
X99733868Y-81347638D01*
X107714258Y-81347638D01*
X107715477Y-81355335D01*
X107733292Y-81467813D01*
X107735095Y-81479200D01*
X107738631Y-81486139D01*
X107738631Y-81486140D01*
X107782395Y-81572031D01*
X107795567Y-81597883D01*
X107889755Y-81692071D01*
X107896692Y-81695606D01*
X107896694Y-81695607D01*
X107941503Y-81718438D01*
X108008438Y-81752543D01*
X108016131Y-81753762D01*
X108016133Y-81753762D01*
X108132303Y-81772161D01*
X108140000Y-81773380D01*
X108260991Y-81754217D01*
X108321422Y-81763788D01*
X108364687Y-81807053D01*
X108374552Y-81848144D01*
X108374258Y-81850000D01*
X108375477Y-81857697D01*
X108375477Y-81857698D01*
X108380280Y-81888024D01*
X108370708Y-81948456D01*
X108327443Y-81991720D01*
X108267013Y-82001291D01*
X108150000Y-81982758D01*
X108142303Y-81983977D01*
X108026133Y-82002376D01*
X108026131Y-82002376D01*
X108018438Y-82003595D01*
X108011499Y-82007131D01*
X108011498Y-82007131D01*
X107906694Y-82060531D01*
X107906692Y-82060532D01*
X107899755Y-82064067D01*
X107805567Y-82158255D01*
X107802032Y-82165192D01*
X107802031Y-82165194D01*
X107749665Y-82267969D01*
X107745095Y-82276938D01*
X107743876Y-82284631D01*
X107743876Y-82284633D01*
X107727989Y-82384943D01*
X107724258Y-82408500D01*
X107725477Y-82416197D01*
X107737873Y-82494461D01*
X107745095Y-82540062D01*
X107748631Y-82547001D01*
X107748631Y-82547002D01*
X107800571Y-82648939D01*
X107805567Y-82658745D01*
X107899755Y-82752933D01*
X107906692Y-82756468D01*
X107906694Y-82756469D01*
X107985307Y-82796524D01*
X108018438Y-82813405D01*
X108026131Y-82814624D01*
X108026133Y-82814624D01*
X108142303Y-82833023D01*
X108150000Y-82834242D01*
X108157697Y-82833023D01*
X108273867Y-82814624D01*
X108273869Y-82814624D01*
X108281562Y-82813405D01*
X108314693Y-82796524D01*
X108393306Y-82756469D01*
X108393308Y-82756468D01*
X108400245Y-82752933D01*
X108422174Y-82731004D01*
X108476691Y-82703227D01*
X108537123Y-82712798D01*
X108580388Y-82756063D01*
X108589958Y-82785516D01*
X108592920Y-82804219D01*
X108596456Y-82811158D01*
X108596456Y-82811159D01*
X108639040Y-82894734D01*
X108653392Y-82922902D01*
X108747580Y-83017090D01*
X108754517Y-83020625D01*
X108754519Y-83020626D01*
X108859323Y-83074026D01*
X108866263Y-83077562D01*
X108873956Y-83078781D01*
X108873958Y-83078781D01*
X108990128Y-83097180D01*
X108997825Y-83098399D01*
X109005522Y-83097180D01*
X109121692Y-83078781D01*
X109121694Y-83078781D01*
X109129387Y-83077562D01*
X109136327Y-83074026D01*
X109241131Y-83020626D01*
X109241133Y-83020625D01*
X109248070Y-83017090D01*
X109342258Y-82922902D01*
X109356611Y-82894734D01*
X109399194Y-82811159D01*
X109399194Y-82811158D01*
X109402730Y-82804219D01*
X109417210Y-82712798D01*
X109422348Y-82680354D01*
X109423567Y-82672657D01*
X109418356Y-82639755D01*
X109403949Y-82548790D01*
X109403949Y-82548788D01*
X109402730Y-82541095D01*
X109356190Y-82449755D01*
X109345794Y-82429351D01*
X109345793Y-82429349D01*
X109342258Y-82422412D01*
X109248070Y-82328224D01*
X109241130Y-82324688D01*
X109241126Y-82324685D01*
X109149799Y-82278151D01*
X109106534Y-82234887D01*
X109096963Y-82174455D01*
X109124740Y-82119938D01*
X109144433Y-82100245D01*
X109164669Y-82060531D01*
X109201369Y-81988502D01*
X109201369Y-81988501D01*
X109204905Y-81981562D01*
X109208269Y-81960326D01*
X109214656Y-81920000D01*
X116624258Y-81920000D01*
X116625477Y-81927697D01*
X116632790Y-81973867D01*
X116645095Y-82051562D01*
X116648631Y-82058501D01*
X116648631Y-82058502D01*
X116699458Y-82158255D01*
X116705567Y-82170245D01*
X116799755Y-82264433D01*
X116806692Y-82267968D01*
X116806694Y-82267969D01*
X116903306Y-82317195D01*
X116918438Y-82324905D01*
X116926131Y-82326124D01*
X116926133Y-82326124D01*
X117042303Y-82344523D01*
X117050000Y-82345742D01*
X117057697Y-82344523D01*
X117173867Y-82326124D01*
X117173869Y-82326124D01*
X117181562Y-82324905D01*
X117196694Y-82317195D01*
X117293306Y-82267969D01*
X117293308Y-82267968D01*
X117300245Y-82264433D01*
X117394433Y-82170245D01*
X117400543Y-82158255D01*
X117451369Y-82058502D01*
X117451369Y-82058501D01*
X117454905Y-82051562D01*
X117467211Y-81973867D01*
X117474523Y-81927697D01*
X117475742Y-81920000D01*
X117465875Y-81857698D01*
X117456124Y-81796133D01*
X117456124Y-81796131D01*
X117454905Y-81788438D01*
X117447233Y-81773380D01*
X117397969Y-81676694D01*
X117397968Y-81676692D01*
X117394433Y-81669755D01*
X117300245Y-81575567D01*
X117293308Y-81572032D01*
X117293306Y-81572031D01*
X117188502Y-81518631D01*
X117188501Y-81518631D01*
X117181562Y-81515095D01*
X117173869Y-81513876D01*
X117173867Y-81513876D01*
X117057697Y-81495477D01*
X117050000Y-81494258D01*
X117042303Y-81495477D01*
X116926133Y-81513876D01*
X116926131Y-81513876D01*
X116918438Y-81515095D01*
X116911499Y-81518631D01*
X116911498Y-81518631D01*
X116806694Y-81572031D01*
X116806692Y-81572032D01*
X116799755Y-81575567D01*
X116705567Y-81669755D01*
X116702032Y-81676692D01*
X116702031Y-81676694D01*
X116652767Y-81773380D01*
X116645095Y-81788438D01*
X116643876Y-81796131D01*
X116643876Y-81796133D01*
X116634125Y-81857698D01*
X116624258Y-81920000D01*
X109214656Y-81920000D01*
X109224523Y-81857697D01*
X109225742Y-81850000D01*
X109218388Y-81803566D01*
X109206124Y-81726133D01*
X109206124Y-81726131D01*
X109204905Y-81718438D01*
X109193272Y-81695607D01*
X109147969Y-81606694D01*
X109147968Y-81606692D01*
X109144433Y-81599755D01*
X109050245Y-81505567D01*
X109043308Y-81502032D01*
X109043306Y-81502031D01*
X108938502Y-81448631D01*
X108938501Y-81448631D01*
X108931562Y-81445095D01*
X108923869Y-81443876D01*
X108923867Y-81443876D01*
X108807697Y-81425477D01*
X108800000Y-81424258D01*
X108679009Y-81443421D01*
X108618578Y-81433850D01*
X108575313Y-81390585D01*
X108565448Y-81349494D01*
X108565742Y-81347638D01*
X108559028Y-81305245D01*
X108546124Y-81223771D01*
X108546124Y-81223769D01*
X108544905Y-81216076D01*
X108521428Y-81170000D01*
X114684258Y-81170000D01*
X114685477Y-81177697D01*
X114696856Y-81249539D01*
X114705095Y-81301562D01*
X114708631Y-81308501D01*
X114708631Y-81308502D01*
X114745937Y-81381718D01*
X114765567Y-81420245D01*
X114859755Y-81514433D01*
X114866692Y-81517968D01*
X114866694Y-81517969D01*
X114971498Y-81571369D01*
X114978438Y-81574905D01*
X114986131Y-81576124D01*
X114986133Y-81576124D01*
X115102303Y-81594523D01*
X115110000Y-81595742D01*
X115117697Y-81594523D01*
X115233867Y-81576124D01*
X115233869Y-81576124D01*
X115241562Y-81574905D01*
X115248502Y-81571369D01*
X115353306Y-81517969D01*
X115353308Y-81517968D01*
X115360245Y-81514433D01*
X115454433Y-81420245D01*
X115474064Y-81381718D01*
X115511369Y-81308502D01*
X115511369Y-81308501D01*
X115514905Y-81301562D01*
X115523145Y-81249539D01*
X115534523Y-81177697D01*
X115535742Y-81170000D01*
X115527823Y-81120000D01*
X126222749Y-81120000D01*
X126241701Y-81300312D01*
X126243304Y-81305245D01*
X126289893Y-81448631D01*
X126297727Y-81472743D01*
X126300318Y-81477231D01*
X126300319Y-81477233D01*
X126385786Y-81625266D01*
X126388379Y-81629757D01*
X126391851Y-81633613D01*
X126506226Y-81760640D01*
X126506230Y-81760644D01*
X126509696Y-81764493D01*
X126656374Y-81871061D01*
X126661106Y-81873168D01*
X126661108Y-81873169D01*
X126817267Y-81942696D01*
X126817271Y-81942697D01*
X126822005Y-81944805D01*
X126827075Y-81945883D01*
X126827076Y-81945883D01*
X126863168Y-81953554D01*
X126999348Y-81982500D01*
X127180652Y-81982500D01*
X127316832Y-81953554D01*
X127352924Y-81945883D01*
X127352925Y-81945883D01*
X127357995Y-81944805D01*
X127362729Y-81942697D01*
X127362733Y-81942696D01*
X127518892Y-81873169D01*
X127518894Y-81873168D01*
X127523626Y-81871061D01*
X127670304Y-81764493D01*
X127673770Y-81760644D01*
X127673774Y-81760640D01*
X127788149Y-81633613D01*
X127791621Y-81629757D01*
X127794214Y-81625266D01*
X127879681Y-81477233D01*
X127879682Y-81477231D01*
X127882273Y-81472743D01*
X127890108Y-81448631D01*
X127936696Y-81305245D01*
X127938299Y-81300312D01*
X127957251Y-81120000D01*
X127938299Y-80939688D01*
X127891132Y-80794523D01*
X127883875Y-80772187D01*
X127883874Y-80772186D01*
X127882273Y-80767257D01*
X127876421Y-80757120D01*
X127794214Y-80614734D01*
X127794213Y-80614733D01*
X127791621Y-80610243D01*
X127742606Y-80555806D01*
X127673774Y-80479360D01*
X127673770Y-80479356D01*
X127670304Y-80475507D01*
X127523626Y-80368939D01*
X127518894Y-80366832D01*
X127518892Y-80366831D01*
X127362733Y-80297304D01*
X127362729Y-80297303D01*
X127357995Y-80295195D01*
X127352925Y-80294117D01*
X127352924Y-80294117D01*
X127279450Y-80278500D01*
X127180652Y-80257500D01*
X126999348Y-80257500D01*
X126900550Y-80278500D01*
X126827076Y-80294117D01*
X126827075Y-80294117D01*
X126822005Y-80295195D01*
X126817269Y-80297304D01*
X126817268Y-80297304D01*
X126661109Y-80366831D01*
X126661107Y-80366832D01*
X126656375Y-80368939D01*
X126509696Y-80475507D01*
X126506230Y-80479356D01*
X126506226Y-80479360D01*
X126437394Y-80555806D01*
X126388379Y-80610243D01*
X126385787Y-80614733D01*
X126385786Y-80614734D01*
X126303580Y-80757120D01*
X126297727Y-80767257D01*
X126296126Y-80772186D01*
X126296125Y-80772187D01*
X126288868Y-80794523D01*
X126241701Y-80939688D01*
X126222749Y-81120000D01*
X115527823Y-81120000D01*
X115527006Y-81114843D01*
X115516124Y-81046133D01*
X115516124Y-81046131D01*
X115514905Y-81038438D01*
X115511369Y-81031498D01*
X115457969Y-80926694D01*
X115457968Y-80926692D01*
X115454433Y-80919755D01*
X115360245Y-80825567D01*
X115353308Y-80822032D01*
X115353306Y-80822031D01*
X115248502Y-80768631D01*
X115248501Y-80768631D01*
X115241562Y-80765095D01*
X115233869Y-80763876D01*
X115233867Y-80763876D01*
X115117697Y-80745477D01*
X115110000Y-80744258D01*
X115102303Y-80745477D01*
X114986133Y-80763876D01*
X114986131Y-80763876D01*
X114978438Y-80765095D01*
X114971499Y-80768631D01*
X114971498Y-80768631D01*
X114866694Y-80822031D01*
X114866692Y-80822032D01*
X114859755Y-80825567D01*
X114765567Y-80919755D01*
X114762032Y-80926692D01*
X114762031Y-80926694D01*
X114708631Y-81031498D01*
X114705095Y-81038438D01*
X114703876Y-81046131D01*
X114703876Y-81046133D01*
X114692994Y-81114843D01*
X114684258Y-81170000D01*
X108521428Y-81170000D01*
X108487969Y-81104332D01*
X108487968Y-81104330D01*
X108484433Y-81097393D01*
X108390245Y-81003205D01*
X108383308Y-80999670D01*
X108383306Y-80999669D01*
X108278502Y-80946269D01*
X108278501Y-80946269D01*
X108271562Y-80942733D01*
X108263869Y-80941514D01*
X108263867Y-80941514D01*
X108147697Y-80923115D01*
X108140000Y-80921896D01*
X108132303Y-80923115D01*
X108016133Y-80941514D01*
X108016131Y-80941514D01*
X108008438Y-80942733D01*
X108001499Y-80946269D01*
X108001498Y-80946269D01*
X107896694Y-80999669D01*
X107896692Y-80999670D01*
X107889755Y-81003205D01*
X107795567Y-81097393D01*
X107792032Y-81104330D01*
X107792031Y-81104332D01*
X107758572Y-81170000D01*
X107735095Y-81216076D01*
X107733876Y-81223769D01*
X107733876Y-81223771D01*
X107720972Y-81305245D01*
X107714258Y-81347638D01*
X99733868Y-81347638D01*
X99652841Y-81285464D01*
X99506762Y-81224956D01*
X99389361Y-81209500D01*
X99310639Y-81209500D01*
X99193238Y-81224956D01*
X99047159Y-81285464D01*
X98921718Y-81381718D01*
X98825464Y-81507159D01*
X98764956Y-81653238D01*
X98744318Y-81810000D01*
X94441783Y-81810000D01*
X94441783Y-80370000D01*
X106950258Y-80370000D01*
X106951477Y-80377697D01*
X106967579Y-80479360D01*
X106971095Y-80501562D01*
X106974631Y-80508501D01*
X106974631Y-80508502D01*
X107026472Y-80610245D01*
X107031567Y-80620245D01*
X107125755Y-80714433D01*
X107132692Y-80717968D01*
X107132694Y-80717969D01*
X107237498Y-80771369D01*
X107244438Y-80774905D01*
X107252131Y-80776124D01*
X107252133Y-80776124D01*
X107368303Y-80794523D01*
X107376000Y-80795742D01*
X107383697Y-80794523D01*
X107499867Y-80776124D01*
X107499869Y-80776124D01*
X107507562Y-80774905D01*
X107514502Y-80771369D01*
X107619306Y-80717969D01*
X107619308Y-80717968D01*
X107626245Y-80714433D01*
X107720433Y-80620245D01*
X107725529Y-80610245D01*
X107777369Y-80508502D01*
X107777369Y-80508501D01*
X107780905Y-80501562D01*
X107784422Y-80479360D01*
X107800523Y-80377697D01*
X107801742Y-80370000D01*
X107789724Y-80294117D01*
X107788152Y-80284193D01*
X111084697Y-80284193D01*
X111085612Y-80291190D01*
X111085612Y-80291191D01*
X111089971Y-80324523D01*
X111102172Y-80417828D01*
X111105010Y-80424279D01*
X111105011Y-80424281D01*
X111153611Y-80534734D01*
X111153613Y-80534737D01*
X111156451Y-80541187D01*
X111243172Y-80644353D01*
X111355362Y-80719033D01*
X111484002Y-80759223D01*
X111551377Y-80760458D01*
X111611699Y-80761564D01*
X111611701Y-80761564D01*
X111618752Y-80761693D01*
X111625555Y-80759838D01*
X111625557Y-80759838D01*
X111697763Y-80740152D01*
X111748779Y-80726244D01*
X111863631Y-80655725D01*
X111873925Y-80644353D01*
X111949338Y-80561037D01*
X111954073Y-80555806D01*
X112012836Y-80434518D01*
X112015783Y-80417002D01*
X112025373Y-80360000D01*
X113154258Y-80360000D01*
X113175095Y-80491562D01*
X113178631Y-80498501D01*
X113178631Y-80498502D01*
X113203130Y-80546583D01*
X113235567Y-80610245D01*
X113329755Y-80704433D01*
X113336692Y-80707968D01*
X113336694Y-80707969D01*
X113438493Y-80759838D01*
X113448438Y-80764905D01*
X113456131Y-80766124D01*
X113456133Y-80766124D01*
X113572303Y-80784523D01*
X113580000Y-80785742D01*
X113587697Y-80784523D01*
X113703867Y-80766124D01*
X113703869Y-80766124D01*
X113711562Y-80764905D01*
X113721507Y-80759838D01*
X113823306Y-80707969D01*
X113823308Y-80707968D01*
X113830245Y-80704433D01*
X113924433Y-80610245D01*
X113977718Y-80505667D01*
X114020982Y-80462404D01*
X114081414Y-80452832D01*
X114135931Y-80480609D01*
X114189410Y-80534088D01*
X114196347Y-80537623D01*
X114196349Y-80537624D01*
X114242300Y-80561037D01*
X114308093Y-80594560D01*
X114315786Y-80595779D01*
X114315788Y-80595779D01*
X114431958Y-80614178D01*
X114439655Y-80615397D01*
X114447352Y-80614178D01*
X114563522Y-80595779D01*
X114563524Y-80595779D01*
X114571217Y-80594560D01*
X114637010Y-80561037D01*
X114682961Y-80537624D01*
X114682963Y-80537623D01*
X114689900Y-80534088D01*
X114784088Y-80439900D01*
X114792047Y-80424281D01*
X114841024Y-80328157D01*
X114841024Y-80328156D01*
X114844560Y-80321217D01*
X114846951Y-80306124D01*
X114864178Y-80197352D01*
X114865397Y-80189655D01*
X114858795Y-80147969D01*
X114845779Y-80065788D01*
X114845779Y-80065786D01*
X114844560Y-80058093D01*
X114833003Y-80035411D01*
X114787624Y-79946349D01*
X114787623Y-79946347D01*
X114784088Y-79939410D01*
X114744678Y-79900000D01*
X117474258Y-79900000D01*
X117475477Y-79907697D01*
X117493434Y-80021073D01*
X117495095Y-80031562D01*
X117498631Y-80038501D01*
X117498631Y-80038502D01*
X117550346Y-80139998D01*
X117555567Y-80150245D01*
X117649755Y-80244433D01*
X117656692Y-80247968D01*
X117656694Y-80247969D01*
X117746694Y-80293826D01*
X117768438Y-80304905D01*
X117776131Y-80306124D01*
X117776133Y-80306124D01*
X117892303Y-80324523D01*
X117900000Y-80325742D01*
X117907697Y-80324523D01*
X118023867Y-80306124D01*
X118023869Y-80306124D01*
X118031562Y-80304905D01*
X118053306Y-80293826D01*
X118143306Y-80247969D01*
X118143308Y-80247968D01*
X118150245Y-80244433D01*
X118244433Y-80150245D01*
X118249655Y-80139998D01*
X118301369Y-80038502D01*
X118301369Y-80038501D01*
X118304905Y-80031562D01*
X118306567Y-80021073D01*
X118324523Y-79907697D01*
X118325742Y-79900000D01*
X118313373Y-79821905D01*
X118306124Y-79776133D01*
X118306124Y-79776131D01*
X118304905Y-79768438D01*
X118290710Y-79740579D01*
X118247969Y-79656694D01*
X118247968Y-79656692D01*
X118244433Y-79649755D01*
X118150245Y-79555567D01*
X118143308Y-79552032D01*
X118143306Y-79552031D01*
X118038502Y-79498631D01*
X118038501Y-79498631D01*
X118031562Y-79495095D01*
X118023869Y-79493876D01*
X118023867Y-79493876D01*
X117907697Y-79475477D01*
X117900000Y-79474258D01*
X117892303Y-79475477D01*
X117776133Y-79493876D01*
X117776131Y-79493876D01*
X117768438Y-79495095D01*
X117761499Y-79498631D01*
X117761498Y-79498631D01*
X117656694Y-79552031D01*
X117656692Y-79552032D01*
X117649755Y-79555567D01*
X117555567Y-79649755D01*
X117552032Y-79656692D01*
X117552031Y-79656694D01*
X117509290Y-79740579D01*
X117495095Y-79768438D01*
X117493876Y-79776131D01*
X117493876Y-79776133D01*
X117486627Y-79821905D01*
X117474258Y-79900000D01*
X114744678Y-79900000D01*
X114689900Y-79845222D01*
X114682963Y-79841687D01*
X114682961Y-79841686D01*
X114578157Y-79788286D01*
X114578156Y-79788286D01*
X114571217Y-79784750D01*
X114563524Y-79783531D01*
X114563522Y-79783531D01*
X114447352Y-79765132D01*
X114439655Y-79763913D01*
X114431958Y-79765132D01*
X114315788Y-79783531D01*
X114315786Y-79783531D01*
X114308093Y-79784750D01*
X114301154Y-79788286D01*
X114301153Y-79788286D01*
X114196349Y-79841686D01*
X114196347Y-79841687D01*
X114189410Y-79845222D01*
X114095222Y-79939410D01*
X114041937Y-80043988D01*
X113998673Y-80087251D01*
X113938241Y-80096823D01*
X113883724Y-80069046D01*
X113830245Y-80015567D01*
X113823308Y-80012032D01*
X113823306Y-80012031D01*
X113718502Y-79958631D01*
X113718501Y-79958631D01*
X113711562Y-79955095D01*
X113703869Y-79953876D01*
X113703867Y-79953876D01*
X113587697Y-79935477D01*
X113580000Y-79934258D01*
X113572303Y-79935477D01*
X113456133Y-79953876D01*
X113456131Y-79953876D01*
X113448438Y-79955095D01*
X113441499Y-79958631D01*
X113441498Y-79958631D01*
X113336694Y-80012031D01*
X113336692Y-80012032D01*
X113329755Y-80015567D01*
X113235567Y-80109755D01*
X113232032Y-80116692D01*
X113232031Y-80116694D01*
X113181908Y-80215067D01*
X113175095Y-80228438D01*
X113173876Y-80236131D01*
X113173876Y-80236133D01*
X113159877Y-80324523D01*
X113154258Y-80360000D01*
X112025373Y-80360000D01*
X112034562Y-80305384D01*
X112034562Y-80305381D01*
X112035196Y-80301614D01*
X112035338Y-80290000D01*
X112016232Y-80156588D01*
X111960450Y-80033902D01*
X111872475Y-79931803D01*
X111759382Y-79858499D01*
X111752627Y-79856479D01*
X111752623Y-79856477D01*
X111637020Y-79821905D01*
X111630259Y-79819883D01*
X111548454Y-79819383D01*
X111502540Y-79819103D01*
X111495489Y-79819060D01*
X111488712Y-79820997D01*
X111488711Y-79820997D01*
X111372685Y-79854157D01*
X111372683Y-79854158D01*
X111365905Y-79856095D01*
X111251924Y-79928012D01*
X111162709Y-80029029D01*
X111105432Y-80151025D01*
X111084697Y-80284193D01*
X107788152Y-80284193D01*
X107782124Y-80246133D01*
X107782124Y-80246131D01*
X107780905Y-80238438D01*
X107763819Y-80204905D01*
X107723969Y-80126694D01*
X107723968Y-80126692D01*
X107720433Y-80119755D01*
X107626245Y-80025567D01*
X107619308Y-80022032D01*
X107619306Y-80022031D01*
X107514502Y-79968631D01*
X107514501Y-79968631D01*
X107507562Y-79965095D01*
X107499869Y-79963876D01*
X107499867Y-79963876D01*
X107383697Y-79945477D01*
X107376000Y-79944258D01*
X107368303Y-79945477D01*
X107252133Y-79963876D01*
X107252131Y-79963876D01*
X107244438Y-79965095D01*
X107237499Y-79968631D01*
X107237498Y-79968631D01*
X107132694Y-80022031D01*
X107132692Y-80022032D01*
X107125755Y-80025567D01*
X107031567Y-80119755D01*
X107028032Y-80126692D01*
X107028031Y-80126694D01*
X106988181Y-80204905D01*
X106971095Y-80238438D01*
X106969876Y-80246131D01*
X106969876Y-80246133D01*
X106962276Y-80294117D01*
X106950258Y-80370000D01*
X94441783Y-80370000D01*
X94441783Y-79660946D01*
X94460690Y-79602755D01*
X94510190Y-79566791D01*
X94540783Y-79561946D01*
X96379738Y-79561946D01*
X96379936Y-79562028D01*
X96380701Y-79561711D01*
X96380936Y-79561144D01*
X96381018Y-79560946D01*
X96380936Y-79560748D01*
X96380936Y-79400000D01*
X119574258Y-79400000D01*
X119575477Y-79407697D01*
X119582790Y-79453867D01*
X119595095Y-79531562D01*
X119598631Y-79538501D01*
X119598631Y-79538502D01*
X119652031Y-79643305D01*
X119655567Y-79650245D01*
X119749755Y-79744433D01*
X119756692Y-79747968D01*
X119756694Y-79747969D01*
X119861498Y-79801369D01*
X119868438Y-79804905D01*
X119876131Y-79806124D01*
X119876133Y-79806124D01*
X119992303Y-79824523D01*
X120000000Y-79825742D01*
X120007697Y-79824523D01*
X120123867Y-79806124D01*
X120123869Y-79806124D01*
X120131562Y-79804905D01*
X120138502Y-79801369D01*
X120243306Y-79747969D01*
X120243308Y-79747968D01*
X120250245Y-79744433D01*
X120344433Y-79650245D01*
X120347970Y-79643305D01*
X120401369Y-79538502D01*
X120401369Y-79538501D01*
X120404905Y-79531562D01*
X120417211Y-79453867D01*
X120424523Y-79407697D01*
X120425742Y-79400000D01*
X120416763Y-79343306D01*
X120414656Y-79330000D01*
X121414258Y-79330000D01*
X121415477Y-79337697D01*
X121424126Y-79392303D01*
X121435095Y-79461562D01*
X121438631Y-79468501D01*
X121438631Y-79468502D01*
X121488712Y-79566791D01*
X121495567Y-79580245D01*
X121589755Y-79674433D01*
X121596692Y-79677968D01*
X121596694Y-79677969D01*
X121708438Y-79734905D01*
X121707314Y-79737111D01*
X121747223Y-79766110D01*
X121766127Y-79824302D01*
X121747216Y-79882492D01*
X121712071Y-79912506D01*
X121676696Y-79930530D01*
X121676694Y-79930531D01*
X121669755Y-79934067D01*
X121575567Y-80028255D01*
X121572032Y-80035192D01*
X121572031Y-80035194D01*
X121521420Y-80134525D01*
X121515095Y-80146938D01*
X121513876Y-80154631D01*
X121513876Y-80154633D01*
X121498336Y-80252752D01*
X121494258Y-80278500D01*
X121495477Y-80286197D01*
X121501024Y-80321217D01*
X121515095Y-80410062D01*
X121518631Y-80417001D01*
X121518631Y-80417002D01*
X121565253Y-80508502D01*
X121575567Y-80528745D01*
X121669755Y-80622933D01*
X121676692Y-80626468D01*
X121676694Y-80626469D01*
X121781498Y-80679869D01*
X121788438Y-80683405D01*
X121796131Y-80684624D01*
X121796133Y-80684624D01*
X121912303Y-80703023D01*
X121920000Y-80704242D01*
X121927697Y-80703023D01*
X122043867Y-80684624D01*
X122043869Y-80684624D01*
X122051562Y-80683405D01*
X122058502Y-80679869D01*
X122163306Y-80626469D01*
X122163308Y-80626468D01*
X122170245Y-80622933D01*
X122233678Y-80559500D01*
X124262164Y-80559500D01*
X124263383Y-80567197D01*
X124272771Y-80626469D01*
X124283001Y-80691062D01*
X124286537Y-80698001D01*
X124286537Y-80698002D01*
X124332009Y-80787245D01*
X124343473Y-80809745D01*
X124437661Y-80903933D01*
X124444598Y-80907468D01*
X124444600Y-80907469D01*
X124537381Y-80954743D01*
X124556344Y-80964405D01*
X124564037Y-80965624D01*
X124564039Y-80965624D01*
X124680209Y-80984023D01*
X124687906Y-80985242D01*
X124695603Y-80984023D01*
X124811773Y-80965624D01*
X124811775Y-80965624D01*
X124819468Y-80964405D01*
X124838431Y-80954743D01*
X124931212Y-80907469D01*
X124931214Y-80907468D01*
X124938151Y-80903933D01*
X125032339Y-80809745D01*
X125043804Y-80787245D01*
X125089275Y-80698002D01*
X125089275Y-80698001D01*
X125092811Y-80691062D01*
X125103042Y-80626469D01*
X125112429Y-80567197D01*
X125113648Y-80559500D01*
X125092811Y-80427938D01*
X125089275Y-80420998D01*
X125089275Y-80420997D01*
X125062119Y-80367701D01*
X125052548Y-80307269D01*
X125080326Y-80252752D01*
X125134842Y-80224975D01*
X125197401Y-80215067D01*
X125253867Y-80206124D01*
X125253869Y-80206124D01*
X125261562Y-80204905D01*
X125342683Y-80163572D01*
X125373306Y-80147969D01*
X125373308Y-80147968D01*
X125380245Y-80144433D01*
X125474433Y-80050245D01*
X125480417Y-80038502D01*
X125531369Y-79938502D01*
X125531369Y-79938501D01*
X125534905Y-79931562D01*
X125552417Y-79820997D01*
X125554523Y-79807697D01*
X125555742Y-79800000D01*
X125551959Y-79776117D01*
X125536124Y-79676133D01*
X125536124Y-79676131D01*
X125534905Y-79668438D01*
X125528441Y-79655751D01*
X125477969Y-79556694D01*
X125477968Y-79556692D01*
X125474433Y-79549755D01*
X125380245Y-79455567D01*
X125373308Y-79452032D01*
X125373306Y-79452031D01*
X125268502Y-79398631D01*
X125268501Y-79398631D01*
X125261562Y-79395095D01*
X125253869Y-79393876D01*
X125253867Y-79393876D01*
X125137697Y-79375477D01*
X125130000Y-79374258D01*
X125122303Y-79375477D01*
X125006133Y-79393876D01*
X125006131Y-79393876D01*
X124998438Y-79395095D01*
X124991499Y-79398631D01*
X124991498Y-79398631D01*
X124886694Y-79452031D01*
X124886692Y-79452032D01*
X124879755Y-79455567D01*
X124785567Y-79549755D01*
X124782032Y-79556692D01*
X124782031Y-79556694D01*
X124731559Y-79655751D01*
X124725095Y-79668438D01*
X124723876Y-79676131D01*
X124723876Y-79676133D01*
X124708041Y-79776117D01*
X124704258Y-79800000D01*
X124705477Y-79807697D01*
X124707584Y-79820997D01*
X124725095Y-79931562D01*
X124728630Y-79938500D01*
X124728631Y-79938503D01*
X124755787Y-79991799D01*
X124765358Y-80052231D01*
X124737580Y-80106748D01*
X124683064Y-80134525D01*
X124645642Y-80140452D01*
X124564039Y-80153376D01*
X124564037Y-80153376D01*
X124556344Y-80154595D01*
X124549405Y-80158131D01*
X124549404Y-80158131D01*
X124444600Y-80211531D01*
X124444598Y-80211532D01*
X124437661Y-80215067D01*
X124343473Y-80309255D01*
X124339938Y-80316192D01*
X124339937Y-80316194D01*
X124313695Y-80367697D01*
X124283001Y-80427938D01*
X124262164Y-80559500D01*
X122233678Y-80559500D01*
X122264433Y-80528745D01*
X122274748Y-80508502D01*
X122321369Y-80417002D01*
X122321369Y-80417001D01*
X122324905Y-80410062D01*
X122338977Y-80321217D01*
X122344523Y-80286197D01*
X122345742Y-80278500D01*
X122341664Y-80252752D01*
X122326124Y-80154633D01*
X122326124Y-80154631D01*
X122324905Y-80146938D01*
X122318580Y-80134525D01*
X122267969Y-80035194D01*
X122267968Y-80035192D01*
X122264433Y-80028255D01*
X122170245Y-79934067D01*
X122163308Y-79930532D01*
X122163306Y-79930531D01*
X122051562Y-79873595D01*
X122052686Y-79871389D01*
X122012777Y-79842390D01*
X121993873Y-79784198D01*
X122012784Y-79726008D01*
X122047929Y-79695994D01*
X122083304Y-79677970D01*
X122083306Y-79677969D01*
X122090245Y-79674433D01*
X122184433Y-79580245D01*
X122191289Y-79566791D01*
X122241369Y-79468502D01*
X122241369Y-79468501D01*
X122244905Y-79461562D01*
X122255875Y-79392303D01*
X122264523Y-79337697D01*
X122265742Y-79330000D01*
X122264523Y-79322303D01*
X122246124Y-79206133D01*
X122246124Y-79206131D01*
X122244905Y-79198438D01*
X122224285Y-79157969D01*
X122187969Y-79086694D01*
X122187968Y-79086692D01*
X122184433Y-79079755D01*
X122090245Y-78985567D01*
X122083308Y-78982032D01*
X122083306Y-78982031D01*
X121978502Y-78928631D01*
X121978501Y-78928631D01*
X121971562Y-78925095D01*
X121963869Y-78923876D01*
X121963867Y-78923876D01*
X121847697Y-78905477D01*
X121840000Y-78904258D01*
X121832303Y-78905477D01*
X121716133Y-78923876D01*
X121716131Y-78923876D01*
X121708438Y-78925095D01*
X121701499Y-78928631D01*
X121701498Y-78928631D01*
X121596694Y-78982031D01*
X121596692Y-78982032D01*
X121589755Y-78985567D01*
X121495567Y-79079755D01*
X121492032Y-79086692D01*
X121492031Y-79086694D01*
X121455715Y-79157969D01*
X121435095Y-79198438D01*
X121433876Y-79206131D01*
X121433876Y-79206133D01*
X121415477Y-79322303D01*
X121414258Y-79330000D01*
X120414656Y-79330000D01*
X120406124Y-79276133D01*
X120406124Y-79276131D01*
X120404905Y-79268438D01*
X120388246Y-79235742D01*
X120347969Y-79156694D01*
X120347968Y-79156692D01*
X120344433Y-79149755D01*
X120250245Y-79055567D01*
X120243308Y-79052032D01*
X120243306Y-79052031D01*
X120138502Y-78998631D01*
X120138501Y-78998631D01*
X120131562Y-78995095D01*
X120123869Y-78993876D01*
X120123867Y-78993876D01*
X120007697Y-78975477D01*
X120000000Y-78974258D01*
X119992303Y-78975477D01*
X119876133Y-78993876D01*
X119876131Y-78993876D01*
X119868438Y-78995095D01*
X119861499Y-78998631D01*
X119861498Y-78998631D01*
X119756694Y-79052031D01*
X119756692Y-79052032D01*
X119749755Y-79055567D01*
X119655567Y-79149755D01*
X119652032Y-79156692D01*
X119652031Y-79156694D01*
X119611754Y-79235742D01*
X119595095Y-79268438D01*
X119593876Y-79276131D01*
X119593876Y-79276133D01*
X119583237Y-79343306D01*
X119574258Y-79400000D01*
X96380936Y-79400000D01*
X96380936Y-78810000D01*
X127924258Y-78810000D01*
X127945095Y-78941562D01*
X127948631Y-78948501D01*
X127948631Y-78948502D01*
X128001382Y-79052031D01*
X128005567Y-79060245D01*
X128099755Y-79154433D01*
X128106692Y-79157968D01*
X128106694Y-79157969D01*
X128201222Y-79206133D01*
X128218438Y-79214905D01*
X128226131Y-79216124D01*
X128226133Y-79216124D01*
X128342303Y-79234523D01*
X128350000Y-79235742D01*
X128357697Y-79234523D01*
X128473867Y-79216124D01*
X128473869Y-79216124D01*
X128481562Y-79214905D01*
X128498778Y-79206133D01*
X128593306Y-79157969D01*
X128593308Y-79157968D01*
X128600245Y-79154433D01*
X128654678Y-79100000D01*
X134374258Y-79100000D01*
X134375477Y-79107697D01*
X134391068Y-79206133D01*
X134395095Y-79231562D01*
X134398631Y-79238501D01*
X134398631Y-79238502D01*
X134445252Y-79330000D01*
X134455567Y-79350245D01*
X134549755Y-79444433D01*
X134556692Y-79447968D01*
X134556694Y-79447969D01*
X134661498Y-79501369D01*
X134668438Y-79504905D01*
X134676131Y-79506124D01*
X134676133Y-79506124D01*
X134792303Y-79524523D01*
X134800000Y-79525742D01*
X134807697Y-79524523D01*
X134923867Y-79506124D01*
X134923869Y-79506124D01*
X134931562Y-79504905D01*
X134938502Y-79501369D01*
X135043306Y-79447969D01*
X135043308Y-79447968D01*
X135050245Y-79444433D01*
X135094678Y-79400000D01*
X145774258Y-79400000D01*
X145775477Y-79407697D01*
X145782790Y-79453867D01*
X145795095Y-79531562D01*
X145798631Y-79538501D01*
X145798631Y-79538502D01*
X145852031Y-79643305D01*
X145855567Y-79650245D01*
X145949755Y-79744433D01*
X145956692Y-79747968D01*
X145956694Y-79747969D01*
X146061498Y-79801369D01*
X146068438Y-79804905D01*
X146076131Y-79806124D01*
X146076133Y-79806124D01*
X146192303Y-79824523D01*
X146200000Y-79825742D01*
X146207697Y-79824523D01*
X146207698Y-79824523D01*
X146297495Y-79810301D01*
X146357927Y-79819873D01*
X146401191Y-79863137D01*
X146410762Y-79923570D01*
X146386552Y-79974326D01*
X146280379Y-80092243D01*
X146277787Y-80096733D01*
X146277786Y-80096734D01*
X146205754Y-80221498D01*
X146189727Y-80249257D01*
X146188126Y-80254186D01*
X146188125Y-80254187D01*
X146171646Y-80304905D01*
X146133701Y-80421688D01*
X146114749Y-80602000D01*
X146133701Y-80782312D01*
X146147755Y-80825567D01*
X146186974Y-80946269D01*
X146189727Y-80954743D01*
X146192318Y-80959231D01*
X146192319Y-80959233D01*
X146220885Y-81008711D01*
X146280379Y-81111757D01*
X146283851Y-81115613D01*
X146398226Y-81242640D01*
X146398230Y-81242644D01*
X146401696Y-81246493D01*
X146548374Y-81353061D01*
X146553106Y-81355168D01*
X146553108Y-81355169D01*
X146709267Y-81424696D01*
X146709271Y-81424697D01*
X146714005Y-81426805D01*
X146719075Y-81427883D01*
X146719076Y-81427883D01*
X146747149Y-81433850D01*
X146891348Y-81464500D01*
X147072652Y-81464500D01*
X147216851Y-81433850D01*
X147244924Y-81427883D01*
X147244925Y-81427883D01*
X147249995Y-81426805D01*
X147254729Y-81424697D01*
X147254733Y-81424696D01*
X147410892Y-81355169D01*
X147410894Y-81355168D01*
X147415626Y-81353061D01*
X147562304Y-81246493D01*
X147565770Y-81242644D01*
X147565774Y-81242640D01*
X147680149Y-81115613D01*
X147683621Y-81111757D01*
X147743115Y-81008711D01*
X147771681Y-80959233D01*
X147771682Y-80959231D01*
X147774273Y-80954743D01*
X147777027Y-80946269D01*
X147816245Y-80825567D01*
X147830299Y-80782312D01*
X147849251Y-80602000D01*
X147830299Y-80421688D01*
X147792354Y-80304905D01*
X147775875Y-80254187D01*
X147775874Y-80254186D01*
X147774273Y-80249257D01*
X147758247Y-80221498D01*
X147686214Y-80096734D01*
X147686213Y-80096733D01*
X147683621Y-80092243D01*
X147652872Y-80058093D01*
X147565774Y-79961360D01*
X147565770Y-79961356D01*
X147562304Y-79957507D01*
X147415626Y-79850939D01*
X147410894Y-79848832D01*
X147410892Y-79848831D01*
X147254733Y-79779304D01*
X147254729Y-79779303D01*
X147249995Y-79777195D01*
X147244925Y-79776117D01*
X147244924Y-79776117D01*
X147208796Y-79768438D01*
X147072652Y-79739500D01*
X146891348Y-79739500D01*
X146755204Y-79768438D01*
X146719076Y-79776117D01*
X146719075Y-79776117D01*
X146714005Y-79777195D01*
X146709269Y-79779304D01*
X146709268Y-79779304D01*
X146662320Y-79800207D01*
X146601470Y-79806603D01*
X146548482Y-79776010D01*
X146523595Y-79720115D01*
X146536316Y-79660266D01*
X146539844Y-79654834D01*
X146544433Y-79650245D01*
X146595635Y-79549755D01*
X146601369Y-79538502D01*
X146601369Y-79538501D01*
X146604905Y-79531562D01*
X146617211Y-79453867D01*
X146624523Y-79407697D01*
X146625742Y-79400000D01*
X146616763Y-79343306D01*
X146606124Y-79276133D01*
X146606124Y-79276131D01*
X146604905Y-79268438D01*
X146588246Y-79235742D01*
X146547969Y-79156694D01*
X146547968Y-79156692D01*
X146544433Y-79149755D01*
X146450245Y-79055567D01*
X146443308Y-79052032D01*
X146443306Y-79052031D01*
X146338502Y-78998631D01*
X146338501Y-78998631D01*
X146331562Y-78995095D01*
X146323869Y-78993876D01*
X146323867Y-78993876D01*
X146207697Y-78975477D01*
X146200000Y-78974258D01*
X146192303Y-78975477D01*
X146076133Y-78993876D01*
X146076131Y-78993876D01*
X146068438Y-78995095D01*
X146061499Y-78998631D01*
X146061498Y-78998631D01*
X145956694Y-79052031D01*
X145956692Y-79052032D01*
X145949755Y-79055567D01*
X145855567Y-79149755D01*
X145852032Y-79156692D01*
X145852031Y-79156694D01*
X145811754Y-79235742D01*
X145795095Y-79268438D01*
X145793876Y-79276131D01*
X145793876Y-79276133D01*
X145783237Y-79343306D01*
X145774258Y-79400000D01*
X135094678Y-79400000D01*
X135144433Y-79350245D01*
X135154749Y-79330000D01*
X135201369Y-79238502D01*
X135201369Y-79238501D01*
X135204905Y-79231562D01*
X135208933Y-79206133D01*
X135224523Y-79107697D01*
X135225742Y-79100000D01*
X135204905Y-78968438D01*
X135187290Y-78933867D01*
X135147969Y-78856694D01*
X135147968Y-78856692D01*
X135144433Y-78849755D01*
X135050245Y-78755567D01*
X135043308Y-78752032D01*
X135043306Y-78752031D01*
X134938502Y-78698631D01*
X134938501Y-78698631D01*
X134931562Y-78695095D01*
X134923869Y-78693876D01*
X134923867Y-78693876D01*
X134807697Y-78675477D01*
X134800000Y-78674258D01*
X134792303Y-78675477D01*
X134676133Y-78693876D01*
X134676131Y-78693876D01*
X134668438Y-78695095D01*
X134661499Y-78698631D01*
X134661498Y-78698631D01*
X134556694Y-78752031D01*
X134556692Y-78752032D01*
X134549755Y-78755567D01*
X134455567Y-78849755D01*
X134452032Y-78856692D01*
X134452031Y-78856694D01*
X134412710Y-78933867D01*
X134395095Y-78968438D01*
X134374258Y-79100000D01*
X128654678Y-79100000D01*
X128694433Y-79060245D01*
X128698619Y-79052031D01*
X128751369Y-78948502D01*
X128751369Y-78948501D01*
X128754905Y-78941562D01*
X128775742Y-78810000D01*
X128754905Y-78678438D01*
X128694433Y-78559755D01*
X128600245Y-78465567D01*
X128593308Y-78462032D01*
X128593306Y-78462031D01*
X128488502Y-78408631D01*
X128488501Y-78408631D01*
X128481562Y-78405095D01*
X128473869Y-78403876D01*
X128473867Y-78403876D01*
X128357697Y-78385477D01*
X128350000Y-78384258D01*
X128342303Y-78385477D01*
X128226133Y-78403876D01*
X128226131Y-78403876D01*
X128218438Y-78405095D01*
X128211499Y-78408631D01*
X128211498Y-78408631D01*
X128106694Y-78462031D01*
X128106692Y-78462032D01*
X128099755Y-78465567D01*
X128005567Y-78559755D01*
X127945095Y-78678438D01*
X127924258Y-78810000D01*
X96380936Y-78810000D01*
X96380936Y-77057000D01*
X98019749Y-77057000D01*
X98038701Y-77237312D01*
X98094727Y-77409743D01*
X98185379Y-77566757D01*
X98188851Y-77570613D01*
X98303226Y-77697640D01*
X98303230Y-77697644D01*
X98306696Y-77701493D01*
X98453374Y-77808061D01*
X98458106Y-77810168D01*
X98458108Y-77810169D01*
X98614267Y-77879696D01*
X98614271Y-77879697D01*
X98619005Y-77881805D01*
X98624075Y-77882883D01*
X98624076Y-77882883D01*
X98660168Y-77890554D01*
X98796348Y-77919500D01*
X98977652Y-77919500D01*
X99113832Y-77890554D01*
X99149924Y-77882883D01*
X99149925Y-77882883D01*
X99154995Y-77881805D01*
X99159729Y-77879697D01*
X99159733Y-77879696D01*
X99315892Y-77810169D01*
X99315894Y-77810168D01*
X99320626Y-77808061D01*
X99467304Y-77701493D01*
X99470770Y-77697644D01*
X99470774Y-77697640D01*
X99585149Y-77570613D01*
X99588621Y-77566757D01*
X99679273Y-77409743D01*
X99735299Y-77237312D01*
X99754251Y-77057000D01*
X103099749Y-77057000D01*
X103118701Y-77237312D01*
X103174727Y-77409743D01*
X103265379Y-77566757D01*
X103268851Y-77570613D01*
X103383226Y-77697640D01*
X103383230Y-77697644D01*
X103386696Y-77701493D01*
X103533374Y-77808061D01*
X103538106Y-77810168D01*
X103538108Y-77810169D01*
X103694267Y-77879696D01*
X103694271Y-77879697D01*
X103699005Y-77881805D01*
X103704075Y-77882883D01*
X103704076Y-77882883D01*
X103740168Y-77890554D01*
X103876348Y-77919500D01*
X104057652Y-77919500D01*
X104193832Y-77890554D01*
X104229924Y-77882883D01*
X104229925Y-77882883D01*
X104234995Y-77881805D01*
X104239729Y-77879697D01*
X104239733Y-77879696D01*
X104395892Y-77810169D01*
X104395894Y-77810168D01*
X104400626Y-77808061D01*
X104547304Y-77701493D01*
X104550770Y-77697644D01*
X104550774Y-77697640D01*
X104665149Y-77570613D01*
X104668621Y-77566757D01*
X104759273Y-77409743D01*
X104815299Y-77237312D01*
X104834251Y-77057000D01*
X105639749Y-77057000D01*
X105658701Y-77237312D01*
X105714727Y-77409743D01*
X105805379Y-77566757D01*
X105808851Y-77570613D01*
X105923226Y-77697640D01*
X105923230Y-77697644D01*
X105926696Y-77701493D01*
X106073374Y-77808061D01*
X106078106Y-77810168D01*
X106078108Y-77810169D01*
X106234267Y-77879696D01*
X106234271Y-77879697D01*
X106239005Y-77881805D01*
X106244075Y-77882883D01*
X106244076Y-77882883D01*
X106280168Y-77890554D01*
X106416348Y-77919500D01*
X106597652Y-77919500D01*
X106733832Y-77890554D01*
X106769924Y-77882883D01*
X106769925Y-77882883D01*
X106774995Y-77881805D01*
X106779729Y-77879697D01*
X106779733Y-77879696D01*
X106935892Y-77810169D01*
X106935894Y-77810168D01*
X106940626Y-77808061D01*
X107087304Y-77701493D01*
X107090770Y-77697644D01*
X107090774Y-77697640D01*
X107205149Y-77570613D01*
X107208621Y-77566757D01*
X107299273Y-77409743D01*
X107355299Y-77237312D01*
X107374251Y-77057000D01*
X108179749Y-77057000D01*
X108198701Y-77237312D01*
X108254727Y-77409743D01*
X108345379Y-77566757D01*
X108348851Y-77570613D01*
X108463226Y-77697640D01*
X108463230Y-77697644D01*
X108466696Y-77701493D01*
X108613374Y-77808061D01*
X108618106Y-77810168D01*
X108618108Y-77810169D01*
X108774267Y-77879696D01*
X108774271Y-77879697D01*
X108779005Y-77881805D01*
X108784075Y-77882883D01*
X108784076Y-77882883D01*
X108820168Y-77890554D01*
X108956348Y-77919500D01*
X109137652Y-77919500D01*
X109273832Y-77890554D01*
X109309924Y-77882883D01*
X109309925Y-77882883D01*
X109314995Y-77881805D01*
X109319729Y-77879697D01*
X109319733Y-77879696D01*
X109475892Y-77810169D01*
X109475894Y-77810168D01*
X109480626Y-77808061D01*
X109627304Y-77701493D01*
X109630770Y-77697644D01*
X109630774Y-77697640D01*
X109745149Y-77570613D01*
X109748621Y-77566757D01*
X109839273Y-77409743D01*
X109895299Y-77237312D01*
X109914251Y-77057000D01*
X110719749Y-77057000D01*
X110738701Y-77237312D01*
X110794727Y-77409743D01*
X110885379Y-77566757D01*
X110888851Y-77570613D01*
X111003226Y-77697640D01*
X111003230Y-77697644D01*
X111006696Y-77701493D01*
X111153374Y-77808061D01*
X111158106Y-77810168D01*
X111158108Y-77810169D01*
X111314267Y-77879696D01*
X111314271Y-77879697D01*
X111319005Y-77881805D01*
X111324075Y-77882883D01*
X111324076Y-77882883D01*
X111360168Y-77890554D01*
X111496348Y-77919500D01*
X111677652Y-77919500D01*
X111813832Y-77890554D01*
X111849924Y-77882883D01*
X111849925Y-77882883D01*
X111854995Y-77881805D01*
X111859729Y-77879697D01*
X111859733Y-77879696D01*
X112015892Y-77810169D01*
X112015894Y-77810168D01*
X112020626Y-77808061D01*
X112167304Y-77701493D01*
X112170770Y-77697644D01*
X112170774Y-77697640D01*
X112285149Y-77570613D01*
X112288621Y-77566757D01*
X112379273Y-77409743D01*
X112435299Y-77237312D01*
X112454251Y-77057000D01*
X113259749Y-77057000D01*
X113278701Y-77237312D01*
X113334727Y-77409743D01*
X113425379Y-77566757D01*
X113428851Y-77570613D01*
X113543226Y-77697640D01*
X113543230Y-77697644D01*
X113546696Y-77701493D01*
X113693374Y-77808061D01*
X113698106Y-77810168D01*
X113698108Y-77810169D01*
X113854267Y-77879696D01*
X113854271Y-77879697D01*
X113859005Y-77881805D01*
X113864075Y-77882883D01*
X113864076Y-77882883D01*
X113900168Y-77890554D01*
X114036348Y-77919500D01*
X114217652Y-77919500D01*
X114353832Y-77890554D01*
X114389924Y-77882883D01*
X114389925Y-77882883D01*
X114394995Y-77881805D01*
X114399729Y-77879697D01*
X114399733Y-77879696D01*
X114555892Y-77810169D01*
X114555894Y-77810168D01*
X114560626Y-77808061D01*
X114707304Y-77701493D01*
X114710770Y-77697644D01*
X114710774Y-77697640D01*
X114825149Y-77570613D01*
X114828621Y-77566757D01*
X114919273Y-77409743D01*
X114975299Y-77237312D01*
X114994251Y-77057000D01*
X115799749Y-77057000D01*
X115818701Y-77237312D01*
X115874727Y-77409743D01*
X115965379Y-77566757D01*
X115968851Y-77570613D01*
X116083226Y-77697640D01*
X116083230Y-77697644D01*
X116086696Y-77701493D01*
X116233374Y-77808061D01*
X116238106Y-77810168D01*
X116238108Y-77810169D01*
X116394267Y-77879696D01*
X116394271Y-77879697D01*
X116399005Y-77881805D01*
X116404075Y-77882883D01*
X116404076Y-77882883D01*
X116440168Y-77890554D01*
X116576348Y-77919500D01*
X116757652Y-77919500D01*
X116893832Y-77890554D01*
X116929924Y-77882883D01*
X116929925Y-77882883D01*
X116934995Y-77881805D01*
X116939729Y-77879697D01*
X116939733Y-77879696D01*
X117095892Y-77810169D01*
X117095894Y-77810168D01*
X117100626Y-77808061D01*
X117247304Y-77701493D01*
X117250770Y-77697644D01*
X117250774Y-77697640D01*
X117365149Y-77570613D01*
X117368621Y-77566757D01*
X117459273Y-77409743D01*
X117515299Y-77237312D01*
X117534251Y-77057000D01*
X118339749Y-77057000D01*
X118358701Y-77237312D01*
X118414727Y-77409743D01*
X118505379Y-77566757D01*
X118508851Y-77570613D01*
X118623226Y-77697640D01*
X118623230Y-77697644D01*
X118626696Y-77701493D01*
X118773374Y-77808061D01*
X118778106Y-77810168D01*
X118778108Y-77810169D01*
X118934267Y-77879696D01*
X118934271Y-77879697D01*
X118939005Y-77881805D01*
X118944075Y-77882883D01*
X118944076Y-77882883D01*
X118980168Y-77890554D01*
X119116348Y-77919500D01*
X119297652Y-77919500D01*
X119433832Y-77890554D01*
X119469924Y-77882883D01*
X119469925Y-77882883D01*
X119474995Y-77881805D01*
X119479729Y-77879697D01*
X119479733Y-77879696D01*
X119635892Y-77810169D01*
X119635894Y-77810168D01*
X119640626Y-77808061D01*
X119787304Y-77701493D01*
X119790770Y-77697644D01*
X119790774Y-77697640D01*
X119905149Y-77570613D01*
X119908621Y-77566757D01*
X119999273Y-77409743D01*
X120055299Y-77237312D01*
X120074251Y-77057000D01*
X120879749Y-77057000D01*
X120898701Y-77237312D01*
X120954727Y-77409743D01*
X121045379Y-77566757D01*
X121048851Y-77570613D01*
X121163226Y-77697640D01*
X121163230Y-77697644D01*
X121166696Y-77701493D01*
X121313374Y-77808061D01*
X121318106Y-77810168D01*
X121318108Y-77810169D01*
X121474267Y-77879696D01*
X121474271Y-77879697D01*
X121479005Y-77881805D01*
X121484075Y-77882883D01*
X121484076Y-77882883D01*
X121520168Y-77890554D01*
X121656348Y-77919500D01*
X121837652Y-77919500D01*
X121973832Y-77890554D01*
X122009924Y-77882883D01*
X122009925Y-77882883D01*
X122014995Y-77881805D01*
X122019729Y-77879697D01*
X122019733Y-77879696D01*
X122175892Y-77810169D01*
X122175894Y-77810168D01*
X122180626Y-77808061D01*
X122327304Y-77701493D01*
X122330770Y-77697644D01*
X122330774Y-77697640D01*
X122445149Y-77570613D01*
X122448621Y-77566757D01*
X122539273Y-77409743D01*
X122595299Y-77237312D01*
X122614251Y-77057000D01*
X123419749Y-77057000D01*
X123438701Y-77237312D01*
X123494727Y-77409743D01*
X123585379Y-77566757D01*
X123588851Y-77570613D01*
X123703226Y-77697640D01*
X123703230Y-77697644D01*
X123706696Y-77701493D01*
X123853374Y-77808061D01*
X123858106Y-77810168D01*
X123858108Y-77810169D01*
X124014267Y-77879696D01*
X124014271Y-77879697D01*
X124019005Y-77881805D01*
X124024075Y-77882883D01*
X124024076Y-77882883D01*
X124060168Y-77890554D01*
X124196348Y-77919500D01*
X124377652Y-77919500D01*
X124513832Y-77890554D01*
X124549924Y-77882883D01*
X124549925Y-77882883D01*
X124554995Y-77881805D01*
X124559729Y-77879697D01*
X124559733Y-77879696D01*
X124715892Y-77810169D01*
X124715894Y-77810168D01*
X124720626Y-77808061D01*
X124867304Y-77701493D01*
X124870770Y-77697644D01*
X124870774Y-77697640D01*
X124985149Y-77570613D01*
X124988621Y-77566757D01*
X125079273Y-77409743D01*
X125135299Y-77237312D01*
X125154251Y-77057000D01*
X125959749Y-77057000D01*
X125978701Y-77237312D01*
X126034727Y-77409743D01*
X126125379Y-77566757D01*
X126128851Y-77570613D01*
X126243226Y-77697640D01*
X126243230Y-77697644D01*
X126246696Y-77701493D01*
X126393374Y-77808061D01*
X126398106Y-77810168D01*
X126398108Y-77810169D01*
X126554267Y-77879696D01*
X126554271Y-77879697D01*
X126559005Y-77881805D01*
X126564075Y-77882883D01*
X126564076Y-77882883D01*
X126600168Y-77890554D01*
X126736348Y-77919500D01*
X126917652Y-77919500D01*
X127053832Y-77890554D01*
X127089924Y-77882883D01*
X127089925Y-77882883D01*
X127094995Y-77881805D01*
X127099729Y-77879697D01*
X127099733Y-77879696D01*
X127255892Y-77810169D01*
X127255894Y-77810168D01*
X127260626Y-77808061D01*
X127407304Y-77701493D01*
X127410770Y-77697644D01*
X127410774Y-77697640D01*
X127525149Y-77570613D01*
X127528621Y-77566757D01*
X127619273Y-77409743D01*
X127675299Y-77237312D01*
X127694251Y-77057000D01*
X128499749Y-77057000D01*
X128518701Y-77237312D01*
X128574727Y-77409743D01*
X128665379Y-77566757D01*
X128668851Y-77570613D01*
X128783226Y-77697640D01*
X128783230Y-77697644D01*
X128786696Y-77701493D01*
X128933374Y-77808061D01*
X128938106Y-77810168D01*
X128938108Y-77810169D01*
X129094267Y-77879696D01*
X129094271Y-77879697D01*
X129099005Y-77881805D01*
X129104075Y-77882883D01*
X129104076Y-77882883D01*
X129140168Y-77890554D01*
X129276348Y-77919500D01*
X129457652Y-77919500D01*
X129593832Y-77890554D01*
X129629924Y-77882883D01*
X129629925Y-77882883D01*
X129634995Y-77881805D01*
X129639729Y-77879697D01*
X129639733Y-77879696D01*
X129795892Y-77810169D01*
X129795894Y-77810168D01*
X129800626Y-77808061D01*
X129947304Y-77701493D01*
X129950770Y-77697644D01*
X129950774Y-77697640D01*
X130065149Y-77570613D01*
X130068621Y-77566757D01*
X130159273Y-77409743D01*
X130215299Y-77237312D01*
X130234251Y-77057000D01*
X131039749Y-77057000D01*
X131058701Y-77237312D01*
X131114727Y-77409743D01*
X131205379Y-77566757D01*
X131208851Y-77570613D01*
X131323226Y-77697640D01*
X131323230Y-77697644D01*
X131326696Y-77701493D01*
X131473374Y-77808061D01*
X131478106Y-77810168D01*
X131478108Y-77810169D01*
X131634267Y-77879696D01*
X131634271Y-77879697D01*
X131639005Y-77881805D01*
X131644075Y-77882883D01*
X131644076Y-77882883D01*
X131680168Y-77890554D01*
X131816348Y-77919500D01*
X131997652Y-77919500D01*
X132133832Y-77890554D01*
X132169924Y-77882883D01*
X132169925Y-77882883D01*
X132174995Y-77881805D01*
X132179729Y-77879697D01*
X132179733Y-77879696D01*
X132335892Y-77810169D01*
X132335894Y-77810168D01*
X132340626Y-77808061D01*
X132487304Y-77701493D01*
X132490770Y-77697644D01*
X132490774Y-77697640D01*
X132605149Y-77570613D01*
X132608621Y-77566757D01*
X132699273Y-77409743D01*
X132755299Y-77237312D01*
X132774251Y-77057000D01*
X133579749Y-77057000D01*
X133598701Y-77237312D01*
X133654727Y-77409743D01*
X133745379Y-77566757D01*
X133748851Y-77570613D01*
X133863226Y-77697640D01*
X133863230Y-77697644D01*
X133866696Y-77701493D01*
X134013374Y-77808061D01*
X134018106Y-77810168D01*
X134018108Y-77810169D01*
X134174267Y-77879696D01*
X134174271Y-77879697D01*
X134179005Y-77881805D01*
X134184075Y-77882883D01*
X134184076Y-77882883D01*
X134220168Y-77890554D01*
X134356348Y-77919500D01*
X134537652Y-77919500D01*
X134673832Y-77890554D01*
X134709924Y-77882883D01*
X134709925Y-77882883D01*
X134714995Y-77881805D01*
X134719729Y-77879697D01*
X134719733Y-77879696D01*
X134875892Y-77810169D01*
X134875894Y-77810168D01*
X134880626Y-77808061D01*
X135027304Y-77701493D01*
X135030770Y-77697644D01*
X135030774Y-77697640D01*
X135145149Y-77570613D01*
X135148621Y-77566757D01*
X135239273Y-77409743D01*
X135295299Y-77237312D01*
X135314251Y-77057000D01*
X136119749Y-77057000D01*
X136138701Y-77237312D01*
X136194727Y-77409743D01*
X136285379Y-77566757D01*
X136288851Y-77570613D01*
X136403226Y-77697640D01*
X136403230Y-77697644D01*
X136406696Y-77701493D01*
X136553374Y-77808061D01*
X136558106Y-77810168D01*
X136558108Y-77810169D01*
X136714267Y-77879696D01*
X136714271Y-77879697D01*
X136719005Y-77881805D01*
X136724075Y-77882883D01*
X136724076Y-77882883D01*
X136760168Y-77890554D01*
X136896348Y-77919500D01*
X137077652Y-77919500D01*
X137213832Y-77890554D01*
X137249924Y-77882883D01*
X137249925Y-77882883D01*
X137254995Y-77881805D01*
X137259729Y-77879697D01*
X137259733Y-77879696D01*
X137415892Y-77810169D01*
X137415894Y-77810168D01*
X137420626Y-77808061D01*
X137567304Y-77701493D01*
X137570770Y-77697644D01*
X137570774Y-77697640D01*
X137685149Y-77570613D01*
X137688621Y-77566757D01*
X137779273Y-77409743D01*
X137835299Y-77237312D01*
X137854251Y-77057000D01*
X138659749Y-77057000D01*
X138678701Y-77237312D01*
X138734727Y-77409743D01*
X138825379Y-77566757D01*
X138828851Y-77570613D01*
X138943226Y-77697640D01*
X138943230Y-77697644D01*
X138946696Y-77701493D01*
X139093374Y-77808061D01*
X139098106Y-77810168D01*
X139098108Y-77810169D01*
X139254267Y-77879696D01*
X139254271Y-77879697D01*
X139259005Y-77881805D01*
X139264075Y-77882883D01*
X139264076Y-77882883D01*
X139300168Y-77890554D01*
X139436348Y-77919500D01*
X139617652Y-77919500D01*
X139753832Y-77890554D01*
X139789924Y-77882883D01*
X139789925Y-77882883D01*
X139794995Y-77881805D01*
X139799729Y-77879697D01*
X139799733Y-77879696D01*
X139955892Y-77810169D01*
X139955894Y-77810168D01*
X139960626Y-77808061D01*
X140107304Y-77701493D01*
X140110770Y-77697644D01*
X140110774Y-77697640D01*
X140225149Y-77570613D01*
X140228621Y-77566757D01*
X140319273Y-77409743D01*
X140375299Y-77237312D01*
X140394251Y-77057000D01*
X141199749Y-77057000D01*
X141218701Y-77237312D01*
X141274727Y-77409743D01*
X141365379Y-77566757D01*
X141368851Y-77570613D01*
X141483226Y-77697640D01*
X141483230Y-77697644D01*
X141486696Y-77701493D01*
X141633374Y-77808061D01*
X141638106Y-77810168D01*
X141638108Y-77810169D01*
X141794267Y-77879696D01*
X141794271Y-77879697D01*
X141799005Y-77881805D01*
X141804075Y-77882883D01*
X141804076Y-77882883D01*
X141840168Y-77890554D01*
X141976348Y-77919500D01*
X142157652Y-77919500D01*
X142293832Y-77890554D01*
X142329924Y-77882883D01*
X142329925Y-77882883D01*
X142334995Y-77881805D01*
X142339729Y-77879697D01*
X142339733Y-77879696D01*
X142495892Y-77810169D01*
X142495894Y-77810168D01*
X142500626Y-77808061D01*
X142647304Y-77701493D01*
X142650770Y-77697644D01*
X142650774Y-77697640D01*
X142765149Y-77570613D01*
X142768621Y-77566757D01*
X142859273Y-77409743D01*
X142915299Y-77237312D01*
X142934251Y-77057000D01*
X143739749Y-77057000D01*
X143758701Y-77237312D01*
X143814727Y-77409743D01*
X143905379Y-77566757D01*
X143908851Y-77570613D01*
X144023226Y-77697640D01*
X144023230Y-77697644D01*
X144026696Y-77701493D01*
X144173374Y-77808061D01*
X144178106Y-77810168D01*
X144178108Y-77810169D01*
X144334267Y-77879696D01*
X144334271Y-77879697D01*
X144339005Y-77881805D01*
X144344075Y-77882883D01*
X144344076Y-77882883D01*
X144380168Y-77890554D01*
X144516348Y-77919500D01*
X144697652Y-77919500D01*
X144833832Y-77890554D01*
X144869924Y-77882883D01*
X144869925Y-77882883D01*
X144874995Y-77881805D01*
X144879729Y-77879697D01*
X144879733Y-77879696D01*
X145035892Y-77810169D01*
X145035894Y-77810168D01*
X145040626Y-77808061D01*
X145187304Y-77701493D01*
X145190770Y-77697644D01*
X145190774Y-77697640D01*
X145305149Y-77570613D01*
X145308621Y-77566757D01*
X145399273Y-77409743D01*
X145455299Y-77237312D01*
X145474251Y-77057000D01*
X146279749Y-77057000D01*
X146298701Y-77237312D01*
X146354727Y-77409743D01*
X146445379Y-77566757D01*
X146448851Y-77570613D01*
X146563226Y-77697640D01*
X146563230Y-77697644D01*
X146566696Y-77701493D01*
X146713374Y-77808061D01*
X146718106Y-77810168D01*
X146718108Y-77810169D01*
X146874267Y-77879696D01*
X146874271Y-77879697D01*
X146879005Y-77881805D01*
X146884075Y-77882883D01*
X146884076Y-77882883D01*
X146920168Y-77890554D01*
X147056348Y-77919500D01*
X147237652Y-77919500D01*
X147373832Y-77890554D01*
X147409924Y-77882883D01*
X147409925Y-77882883D01*
X147414995Y-77881805D01*
X147419729Y-77879697D01*
X147419733Y-77879696D01*
X147575892Y-77810169D01*
X147575894Y-77810168D01*
X147580626Y-77808061D01*
X147727304Y-77701493D01*
X147730770Y-77697644D01*
X147730774Y-77697640D01*
X147845149Y-77570613D01*
X147848621Y-77566757D01*
X147939273Y-77409743D01*
X147995299Y-77237312D01*
X148014251Y-77057000D01*
X147995299Y-76876688D01*
X147939273Y-76704257D01*
X147848621Y-76547243D01*
X147839636Y-76537264D01*
X147730774Y-76416360D01*
X147730770Y-76416356D01*
X147727304Y-76412507D01*
X147580626Y-76305939D01*
X147575894Y-76303832D01*
X147575892Y-76303831D01*
X147419733Y-76234304D01*
X147419729Y-76234303D01*
X147414995Y-76232195D01*
X147409925Y-76231117D01*
X147409924Y-76231117D01*
X147373832Y-76223446D01*
X147237652Y-76194500D01*
X147056348Y-76194500D01*
X146920168Y-76223446D01*
X146884076Y-76231117D01*
X146884075Y-76231117D01*
X146879005Y-76232195D01*
X146874269Y-76234304D01*
X146874268Y-76234304D01*
X146718109Y-76303831D01*
X146718107Y-76303832D01*
X146713375Y-76305939D01*
X146566696Y-76412507D01*
X146563230Y-76416356D01*
X146563226Y-76416360D01*
X146454364Y-76537264D01*
X146445379Y-76547243D01*
X146354727Y-76704257D01*
X146298701Y-76876688D01*
X146279749Y-77057000D01*
X145474251Y-77057000D01*
X145455299Y-76876688D01*
X145399273Y-76704257D01*
X145308621Y-76547243D01*
X145299636Y-76537264D01*
X145190774Y-76416360D01*
X145190770Y-76416356D01*
X145187304Y-76412507D01*
X145040626Y-76305939D01*
X145035894Y-76303832D01*
X145035892Y-76303831D01*
X144879733Y-76234304D01*
X144879729Y-76234303D01*
X144874995Y-76232195D01*
X144869925Y-76231117D01*
X144869924Y-76231117D01*
X144833832Y-76223446D01*
X144697652Y-76194500D01*
X144516348Y-76194500D01*
X144380168Y-76223446D01*
X144344076Y-76231117D01*
X144344075Y-76231117D01*
X144339005Y-76232195D01*
X144334269Y-76234304D01*
X144334268Y-76234304D01*
X144178109Y-76303831D01*
X144178107Y-76303832D01*
X144173375Y-76305939D01*
X144026696Y-76412507D01*
X144023230Y-76416356D01*
X144023226Y-76416360D01*
X143914364Y-76537264D01*
X143905379Y-76547243D01*
X143814727Y-76704257D01*
X143758701Y-76876688D01*
X143739749Y-77057000D01*
X142934251Y-77057000D01*
X142915299Y-76876688D01*
X142859273Y-76704257D01*
X142768621Y-76547243D01*
X142759636Y-76537264D01*
X142650774Y-76416360D01*
X142650770Y-76416356D01*
X142647304Y-76412507D01*
X142500626Y-76305939D01*
X142495894Y-76303832D01*
X142495892Y-76303831D01*
X142339733Y-76234304D01*
X142339729Y-76234303D01*
X142334995Y-76232195D01*
X142329925Y-76231117D01*
X142329924Y-76231117D01*
X142293832Y-76223446D01*
X142157652Y-76194500D01*
X141976348Y-76194500D01*
X141840168Y-76223446D01*
X141804076Y-76231117D01*
X141804075Y-76231117D01*
X141799005Y-76232195D01*
X141794269Y-76234304D01*
X141794268Y-76234304D01*
X141638109Y-76303831D01*
X141638107Y-76303832D01*
X141633375Y-76305939D01*
X141486696Y-76412507D01*
X141483230Y-76416356D01*
X141483226Y-76416360D01*
X141374364Y-76537264D01*
X141365379Y-76547243D01*
X141274727Y-76704257D01*
X141218701Y-76876688D01*
X141199749Y-77057000D01*
X140394251Y-77057000D01*
X140375299Y-76876688D01*
X140319273Y-76704257D01*
X140228621Y-76547243D01*
X140219636Y-76537264D01*
X140110774Y-76416360D01*
X140110770Y-76416356D01*
X140107304Y-76412507D01*
X139960626Y-76305939D01*
X139955894Y-76303832D01*
X139955892Y-76303831D01*
X139799733Y-76234304D01*
X139799729Y-76234303D01*
X139794995Y-76232195D01*
X139789925Y-76231117D01*
X139789924Y-76231117D01*
X139753832Y-76223446D01*
X139617652Y-76194500D01*
X139436348Y-76194500D01*
X139300168Y-76223446D01*
X139264076Y-76231117D01*
X139264075Y-76231117D01*
X139259005Y-76232195D01*
X139254269Y-76234304D01*
X139254268Y-76234304D01*
X139098109Y-76303831D01*
X139098107Y-76303832D01*
X139093375Y-76305939D01*
X138946696Y-76412507D01*
X138943230Y-76416356D01*
X138943226Y-76416360D01*
X138834364Y-76537264D01*
X138825379Y-76547243D01*
X138734727Y-76704257D01*
X138678701Y-76876688D01*
X138659749Y-77057000D01*
X137854251Y-77057000D01*
X137835299Y-76876688D01*
X137779273Y-76704257D01*
X137688621Y-76547243D01*
X137679636Y-76537264D01*
X137570774Y-76416360D01*
X137570770Y-76416356D01*
X137567304Y-76412507D01*
X137420626Y-76305939D01*
X137415894Y-76303832D01*
X137415892Y-76303831D01*
X137259733Y-76234304D01*
X137259729Y-76234303D01*
X137254995Y-76232195D01*
X137249925Y-76231117D01*
X137249924Y-76231117D01*
X137213832Y-76223446D01*
X137077652Y-76194500D01*
X136896348Y-76194500D01*
X136760168Y-76223446D01*
X136724076Y-76231117D01*
X136724075Y-76231117D01*
X136719005Y-76232195D01*
X136714269Y-76234304D01*
X136714268Y-76234304D01*
X136558109Y-76303831D01*
X136558107Y-76303832D01*
X136553375Y-76305939D01*
X136406696Y-76412507D01*
X136403230Y-76416356D01*
X136403226Y-76416360D01*
X136294364Y-76537264D01*
X136285379Y-76547243D01*
X136194727Y-76704257D01*
X136138701Y-76876688D01*
X136119749Y-77057000D01*
X135314251Y-77057000D01*
X135295299Y-76876688D01*
X135239273Y-76704257D01*
X135148621Y-76547243D01*
X135139636Y-76537264D01*
X135030774Y-76416360D01*
X135030770Y-76416356D01*
X135027304Y-76412507D01*
X134880626Y-76305939D01*
X134875894Y-76303832D01*
X134875892Y-76303831D01*
X134719733Y-76234304D01*
X134719729Y-76234303D01*
X134714995Y-76232195D01*
X134709925Y-76231117D01*
X134709924Y-76231117D01*
X134673832Y-76223446D01*
X134537652Y-76194500D01*
X134356348Y-76194500D01*
X134220168Y-76223446D01*
X134184076Y-76231117D01*
X134184075Y-76231117D01*
X134179005Y-76232195D01*
X134174269Y-76234304D01*
X134174268Y-76234304D01*
X134018109Y-76303831D01*
X134018107Y-76303832D01*
X134013375Y-76305939D01*
X133866696Y-76412507D01*
X133863230Y-76416356D01*
X133863226Y-76416360D01*
X133754364Y-76537264D01*
X133745379Y-76547243D01*
X133654727Y-76704257D01*
X133598701Y-76876688D01*
X133579749Y-77057000D01*
X132774251Y-77057000D01*
X132755299Y-76876688D01*
X132699273Y-76704257D01*
X132608621Y-76547243D01*
X132599636Y-76537264D01*
X132490774Y-76416360D01*
X132490770Y-76416356D01*
X132487304Y-76412507D01*
X132340626Y-76305939D01*
X132335894Y-76303832D01*
X132335892Y-76303831D01*
X132179733Y-76234304D01*
X132179729Y-76234303D01*
X132174995Y-76232195D01*
X132169925Y-76231117D01*
X132169924Y-76231117D01*
X132133832Y-76223446D01*
X131997652Y-76194500D01*
X131816348Y-76194500D01*
X131680168Y-76223446D01*
X131644076Y-76231117D01*
X131644075Y-76231117D01*
X131639005Y-76232195D01*
X131634269Y-76234304D01*
X131634268Y-76234304D01*
X131478109Y-76303831D01*
X131478107Y-76303832D01*
X131473375Y-76305939D01*
X131326696Y-76412507D01*
X131323230Y-76416356D01*
X131323226Y-76416360D01*
X131214364Y-76537264D01*
X131205379Y-76547243D01*
X131114727Y-76704257D01*
X131058701Y-76876688D01*
X131039749Y-77057000D01*
X130234251Y-77057000D01*
X130215299Y-76876688D01*
X130159273Y-76704257D01*
X130068621Y-76547243D01*
X130059636Y-76537264D01*
X129950774Y-76416360D01*
X129950770Y-76416356D01*
X129947304Y-76412507D01*
X129800626Y-76305939D01*
X129795894Y-76303832D01*
X129795892Y-76303831D01*
X129639733Y-76234304D01*
X129639729Y-76234303D01*
X129634995Y-76232195D01*
X129629925Y-76231117D01*
X129629924Y-76231117D01*
X129593832Y-76223446D01*
X129457652Y-76194500D01*
X129276348Y-76194500D01*
X129140168Y-76223446D01*
X129104076Y-76231117D01*
X129104075Y-76231117D01*
X129099005Y-76232195D01*
X129094269Y-76234304D01*
X129094268Y-76234304D01*
X128938109Y-76303831D01*
X128938107Y-76303832D01*
X128933375Y-76305939D01*
X128786696Y-76412507D01*
X128783230Y-76416356D01*
X128783226Y-76416360D01*
X128674364Y-76537264D01*
X128665379Y-76547243D01*
X128574727Y-76704257D01*
X128518701Y-76876688D01*
X128499749Y-77057000D01*
X127694251Y-77057000D01*
X127675299Y-76876688D01*
X127619273Y-76704257D01*
X127528621Y-76547243D01*
X127519636Y-76537264D01*
X127410774Y-76416360D01*
X127410770Y-76416356D01*
X127407304Y-76412507D01*
X127260626Y-76305939D01*
X127255894Y-76303832D01*
X127255892Y-76303831D01*
X127099733Y-76234304D01*
X127099729Y-76234303D01*
X127094995Y-76232195D01*
X127089925Y-76231117D01*
X127089924Y-76231117D01*
X127053832Y-76223446D01*
X126917652Y-76194500D01*
X126736348Y-76194500D01*
X126600168Y-76223446D01*
X126564076Y-76231117D01*
X126564075Y-76231117D01*
X126559005Y-76232195D01*
X126554269Y-76234304D01*
X126554268Y-76234304D01*
X126398109Y-76303831D01*
X126398107Y-76303832D01*
X126393375Y-76305939D01*
X126246696Y-76412507D01*
X126243230Y-76416356D01*
X126243226Y-76416360D01*
X126134364Y-76537264D01*
X126125379Y-76547243D01*
X126034727Y-76704257D01*
X125978701Y-76876688D01*
X125959749Y-77057000D01*
X125154251Y-77057000D01*
X125135299Y-76876688D01*
X125079273Y-76704257D01*
X124988621Y-76547243D01*
X124979636Y-76537264D01*
X124870774Y-76416360D01*
X124870770Y-76416356D01*
X124867304Y-76412507D01*
X124720626Y-76305939D01*
X124715894Y-76303832D01*
X124715892Y-76303831D01*
X124559733Y-76234304D01*
X124559729Y-76234303D01*
X124554995Y-76232195D01*
X124549925Y-76231117D01*
X124549924Y-76231117D01*
X124513832Y-76223446D01*
X124377652Y-76194500D01*
X124196348Y-76194500D01*
X124060168Y-76223446D01*
X124024076Y-76231117D01*
X124024075Y-76231117D01*
X124019005Y-76232195D01*
X124014269Y-76234304D01*
X124014268Y-76234304D01*
X123858109Y-76303831D01*
X123858107Y-76303832D01*
X123853375Y-76305939D01*
X123706696Y-76412507D01*
X123703230Y-76416356D01*
X123703226Y-76416360D01*
X123594364Y-76537264D01*
X123585379Y-76547243D01*
X123494727Y-76704257D01*
X123438701Y-76876688D01*
X123419749Y-77057000D01*
X122614251Y-77057000D01*
X122595299Y-76876688D01*
X122539273Y-76704257D01*
X122448621Y-76547243D01*
X122439636Y-76537264D01*
X122330774Y-76416360D01*
X122330770Y-76416356D01*
X122327304Y-76412507D01*
X122180626Y-76305939D01*
X122175894Y-76303832D01*
X122175892Y-76303831D01*
X122019733Y-76234304D01*
X122019729Y-76234303D01*
X122014995Y-76232195D01*
X122009925Y-76231117D01*
X122009924Y-76231117D01*
X121973832Y-76223446D01*
X121837652Y-76194500D01*
X121656348Y-76194500D01*
X121520168Y-76223446D01*
X121484076Y-76231117D01*
X121484075Y-76231117D01*
X121479005Y-76232195D01*
X121474269Y-76234304D01*
X121474268Y-76234304D01*
X121318109Y-76303831D01*
X121318107Y-76303832D01*
X121313375Y-76305939D01*
X121166696Y-76412507D01*
X121163230Y-76416356D01*
X121163226Y-76416360D01*
X121054364Y-76537264D01*
X121045379Y-76547243D01*
X120954727Y-76704257D01*
X120898701Y-76876688D01*
X120879749Y-77057000D01*
X120074251Y-77057000D01*
X120055299Y-76876688D01*
X119999273Y-76704257D01*
X119908621Y-76547243D01*
X119899636Y-76537264D01*
X119790774Y-76416360D01*
X119790770Y-76416356D01*
X119787304Y-76412507D01*
X119640626Y-76305939D01*
X119635894Y-76303832D01*
X119635892Y-76303831D01*
X119479733Y-76234304D01*
X119479729Y-76234303D01*
X119474995Y-76232195D01*
X119469925Y-76231117D01*
X119469924Y-76231117D01*
X119433832Y-76223446D01*
X119297652Y-76194500D01*
X119116348Y-76194500D01*
X118980168Y-76223446D01*
X118944076Y-76231117D01*
X118944075Y-76231117D01*
X118939005Y-76232195D01*
X118934269Y-76234304D01*
X118934268Y-76234304D01*
X118778109Y-76303831D01*
X118778107Y-76303832D01*
X118773375Y-76305939D01*
X118626696Y-76412507D01*
X118623230Y-76416356D01*
X118623226Y-76416360D01*
X118514364Y-76537264D01*
X118505379Y-76547243D01*
X118414727Y-76704257D01*
X118358701Y-76876688D01*
X118339749Y-77057000D01*
X117534251Y-77057000D01*
X117515299Y-76876688D01*
X117459273Y-76704257D01*
X117368621Y-76547243D01*
X117359636Y-76537264D01*
X117250774Y-76416360D01*
X117250770Y-76416356D01*
X117247304Y-76412507D01*
X117100626Y-76305939D01*
X117095894Y-76303832D01*
X117095892Y-76303831D01*
X116939733Y-76234304D01*
X116939729Y-76234303D01*
X116934995Y-76232195D01*
X116929925Y-76231117D01*
X116929924Y-76231117D01*
X116893832Y-76223446D01*
X116757652Y-76194500D01*
X116576348Y-76194500D01*
X116440168Y-76223446D01*
X116404076Y-76231117D01*
X116404075Y-76231117D01*
X116399005Y-76232195D01*
X116394269Y-76234304D01*
X116394268Y-76234304D01*
X116238109Y-76303831D01*
X116238107Y-76303832D01*
X116233375Y-76305939D01*
X116086696Y-76412507D01*
X116083230Y-76416356D01*
X116083226Y-76416360D01*
X115974364Y-76537264D01*
X115965379Y-76547243D01*
X115874727Y-76704257D01*
X115818701Y-76876688D01*
X115799749Y-77057000D01*
X114994251Y-77057000D01*
X114975299Y-76876688D01*
X114919273Y-76704257D01*
X114828621Y-76547243D01*
X114819636Y-76537264D01*
X114710774Y-76416360D01*
X114710770Y-76416356D01*
X114707304Y-76412507D01*
X114560626Y-76305939D01*
X114555894Y-76303832D01*
X114555892Y-76303831D01*
X114399733Y-76234304D01*
X114399729Y-76234303D01*
X114394995Y-76232195D01*
X114389925Y-76231117D01*
X114389924Y-76231117D01*
X114353832Y-76223446D01*
X114217652Y-76194500D01*
X114036348Y-76194500D01*
X113900168Y-76223446D01*
X113864076Y-76231117D01*
X113864075Y-76231117D01*
X113859005Y-76232195D01*
X113854269Y-76234304D01*
X113854268Y-76234304D01*
X113698109Y-76303831D01*
X113698107Y-76303832D01*
X113693375Y-76305939D01*
X113546696Y-76412507D01*
X113543230Y-76416356D01*
X113543226Y-76416360D01*
X113434364Y-76537264D01*
X113425379Y-76547243D01*
X113334727Y-76704257D01*
X113278701Y-76876688D01*
X113259749Y-77057000D01*
X112454251Y-77057000D01*
X112435299Y-76876688D01*
X112379273Y-76704257D01*
X112288621Y-76547243D01*
X112279636Y-76537264D01*
X112170774Y-76416360D01*
X112170770Y-76416356D01*
X112167304Y-76412507D01*
X112020626Y-76305939D01*
X112015894Y-76303832D01*
X112015892Y-76303831D01*
X111859733Y-76234304D01*
X111859729Y-76234303D01*
X111854995Y-76232195D01*
X111849925Y-76231117D01*
X111849924Y-76231117D01*
X111813832Y-76223446D01*
X111677652Y-76194500D01*
X111496348Y-76194500D01*
X111360168Y-76223446D01*
X111324076Y-76231117D01*
X111324075Y-76231117D01*
X111319005Y-76232195D01*
X111314269Y-76234304D01*
X111314268Y-76234304D01*
X111158109Y-76303831D01*
X111158107Y-76303832D01*
X111153375Y-76305939D01*
X111006696Y-76412507D01*
X111003230Y-76416356D01*
X111003226Y-76416360D01*
X110894364Y-76537264D01*
X110885379Y-76547243D01*
X110794727Y-76704257D01*
X110738701Y-76876688D01*
X110719749Y-77057000D01*
X109914251Y-77057000D01*
X109895299Y-76876688D01*
X109839273Y-76704257D01*
X109748621Y-76547243D01*
X109739636Y-76537264D01*
X109630774Y-76416360D01*
X109630770Y-76416356D01*
X109627304Y-76412507D01*
X109480626Y-76305939D01*
X109475894Y-76303832D01*
X109475892Y-76303831D01*
X109319733Y-76234304D01*
X109319729Y-76234303D01*
X109314995Y-76232195D01*
X109309925Y-76231117D01*
X109309924Y-76231117D01*
X109273832Y-76223446D01*
X109137652Y-76194500D01*
X108956348Y-76194500D01*
X108820168Y-76223446D01*
X108784076Y-76231117D01*
X108784075Y-76231117D01*
X108779005Y-76232195D01*
X108774269Y-76234304D01*
X108774268Y-76234304D01*
X108618109Y-76303831D01*
X108618107Y-76303832D01*
X108613375Y-76305939D01*
X108466696Y-76412507D01*
X108463230Y-76416356D01*
X108463226Y-76416360D01*
X108354364Y-76537264D01*
X108345379Y-76547243D01*
X108254727Y-76704257D01*
X108198701Y-76876688D01*
X108179749Y-77057000D01*
X107374251Y-77057000D01*
X107355299Y-76876688D01*
X107299273Y-76704257D01*
X107208621Y-76547243D01*
X107199636Y-76537264D01*
X107090774Y-76416360D01*
X107090770Y-76416356D01*
X107087304Y-76412507D01*
X106940626Y-76305939D01*
X106935894Y-76303832D01*
X106935892Y-76303831D01*
X106779733Y-76234304D01*
X106779729Y-76234303D01*
X106774995Y-76232195D01*
X106769925Y-76231117D01*
X106769924Y-76231117D01*
X106733832Y-76223446D01*
X106597652Y-76194500D01*
X106416348Y-76194500D01*
X106280168Y-76223446D01*
X106244076Y-76231117D01*
X106244075Y-76231117D01*
X106239005Y-76232195D01*
X106234269Y-76234304D01*
X106234268Y-76234304D01*
X106078109Y-76303831D01*
X106078107Y-76303832D01*
X106073375Y-76305939D01*
X105926696Y-76412507D01*
X105923230Y-76416356D01*
X105923226Y-76416360D01*
X105814364Y-76537264D01*
X105805379Y-76547243D01*
X105714727Y-76704257D01*
X105658701Y-76876688D01*
X105639749Y-77057000D01*
X104834251Y-77057000D01*
X104815299Y-76876688D01*
X104759273Y-76704257D01*
X104668621Y-76547243D01*
X104659636Y-76537264D01*
X104550774Y-76416360D01*
X104550770Y-76416356D01*
X104547304Y-76412507D01*
X104400626Y-76305939D01*
X104395894Y-76303832D01*
X104395892Y-76303831D01*
X104239733Y-76234304D01*
X104239729Y-76234303D01*
X104234995Y-76232195D01*
X104229925Y-76231117D01*
X104229924Y-76231117D01*
X104193832Y-76223446D01*
X104057652Y-76194500D01*
X103876348Y-76194500D01*
X103740168Y-76223446D01*
X103704076Y-76231117D01*
X103704075Y-76231117D01*
X103699005Y-76232195D01*
X103694269Y-76234304D01*
X103694268Y-76234304D01*
X103538109Y-76303831D01*
X103538107Y-76303832D01*
X103533375Y-76305939D01*
X103386696Y-76412507D01*
X103383230Y-76416356D01*
X103383226Y-76416360D01*
X103274364Y-76537264D01*
X103265379Y-76547243D01*
X103174727Y-76704257D01*
X103118701Y-76876688D01*
X103099749Y-77057000D01*
X99754251Y-77057000D01*
X99735299Y-76876688D01*
X99679273Y-76704257D01*
X99588621Y-76547243D01*
X99579636Y-76537264D01*
X99470774Y-76416360D01*
X99470770Y-76416356D01*
X99467304Y-76412507D01*
X99320626Y-76305939D01*
X99315894Y-76303832D01*
X99315892Y-76303831D01*
X99159733Y-76234304D01*
X99159729Y-76234303D01*
X99154995Y-76232195D01*
X99149925Y-76231117D01*
X99149924Y-76231117D01*
X99113832Y-76223446D01*
X98977652Y-76194500D01*
X98796348Y-76194500D01*
X98660168Y-76223446D01*
X98624076Y-76231117D01*
X98624075Y-76231117D01*
X98619005Y-76232195D01*
X98614269Y-76234304D01*
X98614268Y-76234304D01*
X98458109Y-76303831D01*
X98458107Y-76303832D01*
X98453375Y-76305939D01*
X98306696Y-76412507D01*
X98303230Y-76416356D01*
X98303226Y-76416360D01*
X98194364Y-76537264D01*
X98185379Y-76547243D01*
X98094727Y-76704257D01*
X98038701Y-76876688D01*
X98019749Y-77057000D01*
X96380936Y-77057000D01*
X96380936Y-75859122D01*
X107623380Y-75859122D01*
X107644217Y-75990684D01*
X107704689Y-76109367D01*
X107798877Y-76203555D01*
X107805814Y-76207090D01*
X107805816Y-76207091D01*
X107852970Y-76231117D01*
X107917560Y-76264027D01*
X107925253Y-76265246D01*
X107925255Y-76265246D01*
X108041425Y-76283645D01*
X108049122Y-76284864D01*
X108056819Y-76283645D01*
X108172989Y-76265246D01*
X108172991Y-76265246D01*
X108180684Y-76264027D01*
X108245274Y-76231117D01*
X108292428Y-76207091D01*
X108292430Y-76207090D01*
X108299367Y-76203555D01*
X108393555Y-76109367D01*
X108454027Y-75990684D01*
X108474864Y-75859122D01*
X108454027Y-75727560D01*
X108393555Y-75608877D01*
X108299367Y-75514689D01*
X108292430Y-75511154D01*
X108292428Y-75511153D01*
X108187624Y-75457753D01*
X108187623Y-75457753D01*
X108180684Y-75454217D01*
X108172991Y-75452998D01*
X108172989Y-75452998D01*
X108056819Y-75434599D01*
X108049122Y-75433380D01*
X108041425Y-75434599D01*
X107925255Y-75452998D01*
X107925253Y-75452998D01*
X107917560Y-75454217D01*
X107910621Y-75457753D01*
X107910620Y-75457753D01*
X107805816Y-75511153D01*
X107805814Y-75511154D01*
X107798877Y-75514689D01*
X107704689Y-75608877D01*
X107644217Y-75727560D01*
X107623380Y-75859122D01*
X96380936Y-75859122D01*
X96380936Y-75088289D01*
X96399843Y-75030098D01*
X96449343Y-74994134D01*
X96479936Y-74989289D01*
X148400000Y-74989289D01*
X148458191Y-75008196D01*
G37*
G04 #@! TD.AperFunction*
M02*
