G04 #@! TF.GenerationSoftware,KiCad,Pcbnew,(6.0.7-1)-1*
G04 #@! TF.CreationDate,2023-01-12T11:00:53-05:00*
G04 #@! TF.ProjectId,F405_pill,46343035-5f70-4696-9c6c-2e6b69636164,rev?*
G04 #@! TF.SameCoordinates,Original*
G04 #@! TF.FileFunction,Copper,L4,Bot*
G04 #@! TF.FilePolarity,Positive*
%FSLAX46Y46*%
G04 Gerber Fmt 4.6, Leading zero omitted, Abs format (unit mm)*
G04 Created by KiCad (PCBNEW (6.0.7-1)-1) date 2023-01-12 11:00:53*
%MOMM*%
%LPD*%
G01*
G04 APERTURE LIST*
G04 #@! TA.AperFunction,ComponentPad*
%ADD10C,1.524000*%
G04 #@! TD*
G04 #@! TA.AperFunction,ComponentPad*
%ADD11O,2.100000X1.050000*%
G04 #@! TD*
G04 #@! TA.AperFunction,ViaPad*
%ADD12C,0.600000*%
G04 #@! TD*
G04 #@! TA.AperFunction,Conductor*
%ADD13C,0.160000*%
G04 #@! TD*
G04 #@! TA.AperFunction,Conductor*
%ADD14C,0.800000*%
G04 #@! TD*
G04 APERTURE END LIST*
D10*
X146982000Y-88222000D03*
X146982000Y-85682000D03*
X146982000Y-83142000D03*
X146982000Y-80602000D03*
X127090000Y-81120000D03*
X127090000Y-83660000D03*
X127090000Y-89310000D03*
X127090000Y-86770000D03*
X147147000Y-77057000D03*
X144607000Y-77057000D03*
X142067000Y-77057000D03*
X139527000Y-77057000D03*
X136987000Y-77057000D03*
X134447000Y-77057000D03*
X131907000Y-77057000D03*
X129367000Y-77057000D03*
X126827000Y-77057000D03*
X124287000Y-77057000D03*
X121747000Y-77057000D03*
X119207000Y-77057000D03*
X116667000Y-77057000D03*
X114127000Y-77057000D03*
X111587000Y-77057000D03*
X109047000Y-77057000D03*
X106507000Y-77057000D03*
X103967000Y-77057000D03*
X101427000Y-77057000D03*
X98887000Y-77057000D03*
X98887000Y-92297000D03*
X101427000Y-92297000D03*
X103967000Y-92297000D03*
X106507000Y-92297000D03*
X109047000Y-92297000D03*
X111587000Y-92297000D03*
X114103395Y-92306993D03*
X116667000Y-92297000D03*
X119207000Y-92297000D03*
X121747000Y-92297000D03*
X124287000Y-92297000D03*
X126827000Y-92297000D03*
X129367000Y-92297000D03*
X131907000Y-92297000D03*
X134447000Y-92297000D03*
X136987000Y-92297000D03*
X139527000Y-92297000D03*
X142067000Y-92297000D03*
X144607000Y-92297000D03*
X147147000Y-92297000D03*
X102882000Y-81502000D03*
X102882000Y-84042000D03*
X102882000Y-86582000D03*
X102882000Y-89122000D03*
D11*
X99862000Y-80392000D03*
X99862000Y-89032000D03*
X95682000Y-80392000D03*
X95682000Y-89032000D03*
D12*
X128960000Y-87640000D03*
X118940000Y-90214152D03*
X145850000Y-76360000D03*
X99100000Y-85875000D03*
X113660000Y-82060000D03*
X140680000Y-77690000D03*
X142330000Y-79250000D03*
X138210000Y-76620000D03*
X115390000Y-77180000D03*
X134150000Y-82810000D03*
X144300000Y-83900000D03*
X115330000Y-92050000D03*
X128030000Y-92050000D03*
X133170000Y-91900000D03*
X138847972Y-79474343D03*
X123065943Y-92050000D03*
X105220000Y-76280000D03*
X119980000Y-83450000D03*
X125490000Y-92050000D03*
X141782000Y-83512000D03*
X145950000Y-92800000D03*
X112850000Y-92130000D03*
X121400000Y-85600000D03*
X129400000Y-82960000D03*
X135700000Y-91900000D03*
X109430000Y-82260000D03*
X107475000Y-90400000D03*
X122480000Y-87300000D03*
X136682000Y-89712000D03*
X108690000Y-80830000D03*
X134130000Y-81430000D03*
X128080000Y-76620000D03*
X111060000Y-86530000D03*
X133090000Y-76620000D03*
X109820000Y-93470000D03*
X105430000Y-82810000D03*
X143310000Y-76420000D03*
X112990000Y-76510000D03*
X117900000Y-92050000D03*
X117900000Y-77180000D03*
X102630000Y-92850000D03*
X125610000Y-86040000D03*
X147590000Y-81880000D03*
X114692787Y-82067272D03*
X117831068Y-78900000D03*
X147590000Y-84390000D03*
X123000000Y-77250000D03*
X124210000Y-82670000D03*
X105200000Y-92690000D03*
X136080000Y-79070000D03*
X115110000Y-85450000D03*
X120460000Y-77220000D03*
X140730000Y-92740000D03*
X130900000Y-89740000D03*
X100050000Y-93310000D03*
X120760000Y-87574500D03*
X109972088Y-77855560D03*
X120410000Y-92050000D03*
X95550000Y-84020000D03*
X100150000Y-76610000D03*
X104710000Y-89460000D03*
X102670000Y-76270000D03*
X107210000Y-78110000D03*
X147590000Y-87000000D03*
X107850000Y-88925000D03*
X135760000Y-76620000D03*
X130640000Y-76620000D03*
X143360000Y-92740000D03*
X104450000Y-85400000D03*
X125590000Y-83420000D03*
X130550000Y-92050000D03*
X97860000Y-90440000D03*
X138280000Y-91900000D03*
X146120000Y-84150000D03*
X132170000Y-89870000D03*
X133910000Y-89910000D03*
X145280000Y-80910000D03*
X115450000Y-81920000D03*
X107280000Y-89500000D03*
X117370000Y-80050000D03*
X107810000Y-92610000D03*
X95520000Y-85990000D03*
X134540000Y-85770000D03*
X108107692Y-86429808D03*
X114780942Y-87870942D03*
X99240000Y-82890000D03*
X137250000Y-85126000D03*
X98250000Y-86860000D03*
X106060000Y-80290000D03*
X97710000Y-91370000D03*
X108140000Y-81347638D03*
X108800000Y-81850000D03*
X108864000Y-82733000D03*
X108089000Y-84808000D03*
X108750000Y-85480000D03*
X109530000Y-86040000D03*
X120213256Y-86273256D03*
X124687906Y-80559500D03*
X125130000Y-79800000D03*
X115640942Y-86169058D03*
X120130000Y-79280000D03*
X116100000Y-85440000D03*
X116839000Y-84978000D03*
X116264000Y-84453500D03*
X116135884Y-83364355D03*
X116990000Y-83430000D03*
X121920000Y-80278500D03*
X117050000Y-81920000D03*
X121840000Y-79330000D03*
X115110000Y-81170000D03*
X114439655Y-80189655D03*
X128350000Y-78810000D03*
X113580000Y-80360000D03*
X111560000Y-80290000D03*
X111590000Y-84440000D03*
X123150000Y-89472804D03*
X111100000Y-85390000D03*
X125760000Y-89520000D03*
X108049122Y-75859122D03*
X109980000Y-82770000D03*
X110530000Y-82210000D03*
X109260000Y-83992500D03*
X111640000Y-89160000D03*
X112262500Y-88736649D03*
X112892025Y-88154020D03*
X113276592Y-88780072D03*
X114000000Y-89075000D03*
X137320000Y-82750000D03*
X115330000Y-87350000D03*
X115947094Y-86842906D03*
X137560000Y-79210000D03*
X120000000Y-84710000D03*
X112690500Y-80240000D03*
X112650000Y-80980000D03*
D13*
X115670000Y-80870000D02*
X116490000Y-80050000D01*
X116490000Y-80050000D02*
X117370000Y-80050000D01*
X115450000Y-81920000D02*
X115670000Y-81700000D01*
X115670000Y-81700000D02*
X115670000Y-80870000D01*
X106163000Y-85583000D02*
X104622000Y-84042000D01*
X108107692Y-86429808D02*
X108107692Y-86406718D01*
X104622000Y-84042000D02*
X102882000Y-84042000D01*
X107283974Y-85583000D02*
X106163000Y-85583000D01*
X108107692Y-86406718D02*
X107283974Y-85583000D01*
X122525500Y-88074500D02*
X114984500Y-88074500D01*
X123870000Y-86770000D02*
X122640000Y-88000000D01*
X122600000Y-88000000D02*
X122525500Y-88074500D01*
X122640000Y-88000000D02*
X122600000Y-88000000D01*
X114984500Y-88074500D02*
X114780942Y-87870942D01*
X127090000Y-86770000D02*
X123870000Y-86770000D01*
X98250000Y-86860000D02*
X98250000Y-86017893D01*
D14*
X145282000Y-82302000D02*
X146982000Y-80602000D01*
X145120000Y-89212000D02*
X145282000Y-89212000D01*
D13*
X99200000Y-85067892D02*
X99200000Y-82930000D01*
D14*
X137250000Y-87554000D02*
X137250000Y-85126000D01*
D13*
X99200000Y-82930000D02*
X99240000Y-82890000D01*
D14*
X142014000Y-92318000D02*
X145120000Y-89212000D01*
X142014000Y-92318000D02*
X137250000Y-87554000D01*
D13*
X98250000Y-86017893D02*
X99200000Y-85067892D01*
D14*
X145282000Y-89212000D02*
X145282000Y-82302000D01*
D13*
X106060000Y-80290000D02*
X102761810Y-80290000D01*
X101860000Y-82260000D02*
X101034000Y-83086000D01*
X101034000Y-83086000D02*
X101034000Y-86236000D01*
X102761810Y-80290000D02*
X101860000Y-81191810D01*
X98637330Y-88860000D02*
X98632000Y-88860000D01*
X98632000Y-90448000D02*
X97710000Y-91370000D01*
X101860000Y-81191810D02*
X101860000Y-82260000D01*
X99121999Y-86830000D02*
X98651999Y-87300000D01*
X98632000Y-88860000D02*
X98632000Y-90448000D01*
X98651999Y-87300000D02*
X98651999Y-88845331D01*
X100440000Y-86830000D02*
X99121999Y-86830000D01*
X98651999Y-88845331D02*
X98637330Y-88860000D01*
X101034000Y-86236000D02*
X100440000Y-86830000D01*
X101294000Y-83296000D02*
X101294000Y-92164000D01*
X101294000Y-92164000D02*
X101427000Y-92297000D01*
X102072000Y-82518000D02*
X103302000Y-82518000D01*
X108140000Y-81347638D02*
X104472362Y-81347638D01*
X104472362Y-81347638D02*
X103302000Y-82518000D01*
X102072000Y-82518000D02*
X101294000Y-83296000D01*
X108800000Y-81850000D02*
X104337696Y-81850000D01*
X101574000Y-83450020D02*
X102246020Y-82778000D01*
X102246020Y-82778000D02*
X103409696Y-82778000D01*
X103967000Y-92297000D02*
X103967000Y-91117000D01*
X102802304Y-90760000D02*
X101574000Y-89531696D01*
X103967000Y-91117000D02*
X103610000Y-90760000D01*
X103610000Y-90760000D02*
X102802304Y-90760000D01*
X101574000Y-89531696D02*
X101574000Y-83450020D01*
X104337696Y-81850000D02*
X103409696Y-82778000D01*
X106507000Y-91727000D02*
X105280000Y-90500000D01*
X101854000Y-83566000D02*
X102362000Y-83058000D01*
X102362000Y-83058000D02*
X103497392Y-83058000D01*
X105280000Y-90500000D02*
X102910000Y-90500000D01*
X108773000Y-82733000D02*
X108864000Y-82733000D01*
X102910000Y-90500000D02*
X101854000Y-89444000D01*
X101854000Y-89444000D02*
X101854000Y-83566000D01*
X108162696Y-82122696D02*
X108773000Y-82733000D01*
X103497392Y-83058000D02*
X104432696Y-82122696D01*
X106507000Y-92297000D02*
X106507000Y-91727000D01*
X104432696Y-82122696D02*
X108162696Y-82122696D01*
X109047000Y-92297000D02*
X109328999Y-92015001D01*
X108089000Y-85733000D02*
X109328999Y-86972999D01*
X109328999Y-92015001D02*
X109328999Y-86972999D01*
X108089000Y-85733000D02*
X108089000Y-84808000D01*
X108990000Y-85720000D02*
X108990000Y-86266304D01*
X108990000Y-86266304D02*
X109589000Y-86865304D01*
X111587000Y-91250088D02*
X109589000Y-89252088D01*
X108750000Y-85480000D02*
X108990000Y-85720000D01*
X111587000Y-92297000D02*
X111587000Y-91250088D01*
X109589000Y-86865304D02*
X109589000Y-88639000D01*
X109589000Y-89252088D02*
X109589000Y-88639000D01*
X109849000Y-89144392D02*
X112024608Y-91320000D01*
X112060000Y-91320000D02*
X112381799Y-91641799D01*
X112381799Y-91641799D02*
X113438201Y-91641799D01*
X112024608Y-91320000D02*
X112060000Y-91320000D01*
X109849000Y-86359000D02*
X109849000Y-89144392D01*
X109530000Y-86040000D02*
X109849000Y-86359000D01*
X113438201Y-91641799D02*
X114103395Y-92306993D01*
X124507406Y-80740000D02*
X124115392Y-80740000D01*
X124115392Y-80740000D02*
X122776889Y-82078503D01*
X120334586Y-82078502D02*
X119480000Y-82933088D01*
X124687906Y-80559500D02*
X124507406Y-80740000D01*
X119480000Y-82933088D02*
X119480000Y-85540000D01*
X119480000Y-85540000D02*
X120213256Y-86273256D01*
X122776889Y-82078503D02*
X120334586Y-82078502D01*
X124763848Y-79723848D02*
X125053848Y-79723848D01*
X117339000Y-85185106D02*
X117339000Y-84706392D01*
X117339000Y-84706392D02*
X120226890Y-81818502D01*
X122669194Y-81818502D02*
X124763848Y-79723848D01*
X115640942Y-86169058D02*
X116355048Y-86169058D01*
X120226890Y-81818502D02*
X122669194Y-81818502D01*
X125053848Y-79723848D02*
X125130000Y-79800000D01*
X116355048Y-86169058D02*
X117339000Y-85185106D01*
X115635884Y-84975884D02*
X116100000Y-85440000D01*
X118402304Y-81420000D02*
X120130000Y-79692304D01*
X115635884Y-82574116D02*
X115635884Y-84975884D01*
X118402304Y-81420000D02*
X116790000Y-81420000D01*
X116790000Y-81420000D02*
X115635884Y-82574116D01*
X120130000Y-79280000D02*
X120130000Y-79692304D01*
X122561498Y-81558502D02*
X125660000Y-78460000D01*
X120120002Y-81558502D02*
X122561498Y-81558502D01*
X127777107Y-78460000D02*
X128640000Y-77597107D01*
X120120000Y-81558500D02*
X120120002Y-81558502D01*
X116839000Y-84978000D02*
X116839000Y-84838696D01*
X129163000Y-77057000D02*
X129367000Y-77057000D01*
X128640000Y-77597107D02*
X128640000Y-77580000D01*
X116839000Y-84838696D02*
X120119196Y-81558500D01*
X120119196Y-81558500D02*
X120120000Y-81558500D01*
X128640000Y-77580000D02*
X129163000Y-77057000D01*
X125660000Y-78460000D02*
X127777107Y-78460000D01*
X125730000Y-77945392D02*
X125734608Y-77945392D01*
X125734608Y-77945392D02*
X126623000Y-77057000D01*
X126623000Y-77057000D02*
X126827000Y-77057000D01*
X120011500Y-81298500D02*
X122376891Y-81298501D01*
X116264000Y-84453500D02*
X116856500Y-84453500D01*
X122376891Y-81298501D02*
X125730000Y-77945392D01*
X116856500Y-84453500D02*
X120011500Y-81298500D01*
X116590239Y-82910000D02*
X116135884Y-83364355D01*
X124234000Y-77110000D02*
X124287000Y-77057000D01*
X120822500Y-80778500D02*
X122161500Y-80778500D01*
X124234000Y-78706000D02*
X124234000Y-77110000D01*
X120802000Y-80758000D02*
X120822500Y-80778500D01*
X119816608Y-80758000D02*
X120802000Y-80758000D01*
X117664608Y-82910000D02*
X119816608Y-80758000D01*
X117664608Y-82910000D02*
X116590239Y-82910000D01*
X122161500Y-80778500D02*
X124234000Y-78706000D01*
X131051489Y-76095489D02*
X131854000Y-76898000D01*
X125500000Y-77000000D02*
X126404511Y-76095489D01*
X128968728Y-76095489D02*
X131051489Y-76095489D01*
X116990000Y-83430000D02*
X117512304Y-83430000D01*
X125500000Y-77807696D02*
X125500000Y-77000000D01*
X122269196Y-81038500D02*
X125500000Y-77807696D01*
X126404511Y-76095489D02*
X127225272Y-76095489D01*
X119903804Y-81038500D02*
X122269196Y-81038500D01*
X131854000Y-76898000D02*
X131854000Y-77078000D01*
X127229783Y-76100000D02*
X128964217Y-76100000D01*
X128964217Y-76100000D02*
X128968728Y-76095489D01*
X127225272Y-76095489D02*
X127229783Y-76100000D01*
X117512304Y-83430000D02*
X119903804Y-81038500D01*
X122510000Y-79338823D02*
X122510000Y-77820000D01*
X121920000Y-79928824D02*
X122510000Y-79338823D01*
X118270000Y-81920000D02*
X117050000Y-81920000D01*
X119692000Y-80498000D02*
X121700500Y-80498000D01*
X118270000Y-81920000D02*
X119692000Y-80498000D01*
X121920000Y-80278500D02*
X121700500Y-80498000D01*
X122510000Y-77820000D02*
X121747000Y-77057000D01*
X121920000Y-80278500D02*
X121920000Y-79928824D01*
X118928736Y-77057000D02*
X119207000Y-77057000D01*
X118957534Y-77057000D02*
X119207000Y-77057000D01*
X121840000Y-79330000D02*
X121480000Y-79330000D01*
X121480000Y-79330000D02*
X119207000Y-77057000D01*
X119207000Y-77057000D02*
X118966961Y-77057000D01*
X115110000Y-80913961D02*
X115110000Y-81170000D01*
X118966961Y-77057000D02*
X115110000Y-80913961D01*
X114439655Y-80189655D02*
X114350000Y-80100000D01*
X114350000Y-80100000D02*
X114350000Y-77354000D01*
X114350000Y-77354000D02*
X114074000Y-77078000D01*
X128350000Y-78810000D02*
X128670000Y-78490000D01*
X133014000Y-78490000D02*
X134447000Y-77057000D01*
X128670000Y-78490000D02*
X133014000Y-78490000D01*
X114966610Y-80689655D02*
X113909655Y-80689655D01*
X116667000Y-78989265D02*
X114966610Y-80689655D01*
X116667000Y-77057000D02*
X116667000Y-78989265D01*
X113909655Y-80689655D02*
X113580000Y-80360000D01*
X111560000Y-80290000D02*
X111490000Y-80290000D01*
X111587000Y-80263000D02*
X111587000Y-77057000D01*
X111560000Y-80290000D02*
X111587000Y-80263000D01*
X122262804Y-89472804D02*
X121644743Y-88854743D01*
X114925257Y-88854743D02*
X114260257Y-88189743D01*
X121644743Y-88854743D02*
X114925257Y-88854743D01*
X114260257Y-88189743D02*
X114260257Y-88182561D01*
X111600000Y-84450000D02*
X111590000Y-84440000D01*
X123150000Y-89472804D02*
X122262804Y-89472804D01*
X111600000Y-85522304D02*
X111600000Y-84450000D01*
X111600000Y-85522304D02*
X114260257Y-88182561D01*
X123605392Y-89960000D02*
X125320000Y-89960000D01*
X113480000Y-87777182D02*
X114852818Y-89150000D01*
X114852818Y-89150000D02*
X121527696Y-89150000D01*
X122330000Y-89952304D02*
X123597696Y-89952304D01*
X123597696Y-89952304D02*
X123605392Y-89960000D01*
X111100000Y-85390000D02*
X113480000Y-87770000D01*
X121527696Y-89150000D02*
X122330000Y-89952304D01*
X113480000Y-87770000D02*
X113480000Y-87777182D01*
X125320000Y-89960000D02*
X125760000Y-89520000D01*
X108049122Y-78179122D02*
X108049122Y-75859122D01*
X109980000Y-82770000D02*
X109980000Y-80110000D01*
X109980000Y-80110000D02*
X108049122Y-78179122D01*
X110530000Y-77706365D02*
X110306817Y-77483183D01*
X110975855Y-75496449D02*
X140506449Y-75496449D01*
X110314031Y-76158273D02*
X110314031Y-77475969D01*
X140506449Y-75496449D02*
X142067000Y-77057000D01*
X110314031Y-77475969D02*
X110306817Y-77483183D01*
X110975855Y-75496449D02*
X110314031Y-76158273D01*
X110530000Y-82210000D02*
X110530000Y-77706365D01*
X141105489Y-76463185D02*
X141105489Y-77455272D01*
X111160000Y-82020000D02*
X110820000Y-81680000D01*
X110574031Y-77364031D02*
X110574031Y-76265969D01*
X110574031Y-76265969D02*
X111044031Y-75795969D01*
X143474000Y-78190000D02*
X144607000Y-77057000D01*
X110820000Y-77610000D02*
X110574031Y-77364031D01*
X109260000Y-83992500D02*
X109517500Y-83992500D01*
X109517500Y-83992500D02*
X111160000Y-82350000D01*
X110820000Y-81680000D02*
X110820000Y-77610000D01*
X111044031Y-75795969D02*
X140438273Y-75795969D01*
X140438273Y-75795969D02*
X141105489Y-76463185D01*
X141105489Y-77455272D02*
X141840217Y-78190000D01*
X141840217Y-78190000D02*
X143474000Y-78190000D01*
X111160000Y-82350000D02*
X111160000Y-82020000D01*
X118389803Y-91355000D02*
X117849803Y-90815000D01*
X119575000Y-91355000D02*
X118389803Y-91355000D01*
X112665000Y-90815000D02*
X111640000Y-89790000D01*
X121747000Y-92297000D02*
X120970000Y-91520000D01*
X119740000Y-91520000D02*
X119575000Y-91355000D01*
X111640000Y-89790000D02*
X111640000Y-89160000D01*
X117849803Y-90815000D02*
X112665000Y-90815000D01*
X120970000Y-91520000D02*
X119740000Y-91520000D01*
X112262500Y-89745196D02*
X112262500Y-88736649D01*
X124287000Y-92297000D02*
X123560000Y-91570000D01*
X119705000Y-91095000D02*
X118500000Y-91095000D01*
X117959999Y-90554999D02*
X113072304Y-90555000D01*
X119870000Y-91260000D02*
X119705000Y-91095000D01*
X122042190Y-91260000D02*
X119870000Y-91260000D01*
X118500000Y-91095000D02*
X117959999Y-90554999D01*
X123560000Y-91570000D02*
X122352190Y-91570000D01*
X113072304Y-90555000D02*
X112262500Y-89745196D01*
X122352190Y-91570000D02*
X122042190Y-91260000D01*
X119683652Y-90693652D02*
X118466348Y-90693652D01*
X112776592Y-88269453D02*
X112892025Y-88154020D01*
X122520002Y-91310000D02*
X122210002Y-91000000D01*
X118067696Y-90295000D02*
X113180000Y-90295000D01*
X119990000Y-91000000D02*
X119683652Y-90693652D01*
X125840000Y-91310000D02*
X122520002Y-91310000D01*
X113180000Y-90295000D02*
X112776592Y-89891592D01*
X118466348Y-90693652D02*
X118067696Y-90295000D01*
X122210002Y-91000000D02*
X119990000Y-91000000D01*
X112776592Y-89891592D02*
X112776592Y-88269453D01*
X126827000Y-92297000D02*
X125840000Y-91310000D01*
X122630002Y-91050000D02*
X121250002Y-89670000D01*
X128680000Y-91050000D02*
X129367000Y-91737000D01*
X122630002Y-91050000D02*
X128680000Y-91050000D01*
X129367000Y-91560000D02*
X129367000Y-92120000D01*
X113276592Y-88780072D02*
X113276592Y-89536592D01*
X121250002Y-89670000D02*
X113410000Y-89670000D01*
X113410000Y-89670000D02*
X113276592Y-89536592D01*
X122800000Y-90790000D02*
X121420000Y-89410000D01*
X121420000Y-89410000D02*
X114335000Y-89410000D01*
X131907000Y-92297000D02*
X130400000Y-90790000D01*
X114335000Y-89410000D02*
X114000000Y-89075000D01*
X130400000Y-90790000D02*
X122800000Y-90790000D01*
X136588848Y-82018848D02*
X137320000Y-82750000D01*
X128825696Y-85332000D02*
X132138848Y-82018848D01*
X121254000Y-86366000D02*
X121776000Y-86366000D01*
X116636744Y-87033256D02*
X120586743Y-87033257D01*
X132138848Y-82018848D02*
X136588848Y-82018848D01*
X122810000Y-85332000D02*
X128825696Y-85332000D01*
X121776000Y-86366000D02*
X122810000Y-85332000D01*
X120586743Y-87033257D02*
X121254000Y-86366000D01*
X116320000Y-87350000D02*
X116636744Y-87033256D01*
X115330000Y-87350000D02*
X116320000Y-87350000D01*
X121094000Y-86106000D02*
X121666000Y-86106000D01*
X115947094Y-86842906D02*
X116016744Y-86773256D01*
X116016744Y-86773256D02*
X120426744Y-86773256D01*
X120426744Y-86773256D02*
X121094000Y-86106000D01*
X133970000Y-79820000D02*
X128718000Y-85072000D01*
X122700000Y-85072000D02*
X128718000Y-85072000D01*
X136950000Y-79820000D02*
X133970000Y-79820000D01*
X137560000Y-79210000D02*
X136950000Y-79820000D01*
X121666000Y-86106000D02*
X122700000Y-85072000D01*
X120510000Y-82790000D02*
X120510000Y-84200000D01*
X120510000Y-84200000D02*
X120000000Y-84710000D01*
X122940000Y-82400000D02*
X120900000Y-82400000D01*
X120900000Y-82400000D02*
X120510000Y-82790000D01*
X124300000Y-81120000D02*
X127090000Y-81120000D01*
X124260000Y-81080000D02*
X124300000Y-81120000D01*
X124260000Y-81080000D02*
X122940000Y-82400000D01*
X112132304Y-91060000D02*
X110109000Y-89036696D01*
X112682893Y-80240000D02*
X112690500Y-80240000D01*
X112167696Y-91060000D02*
X112132304Y-91060000D01*
X110108999Y-83871001D02*
X112150000Y-81830000D01*
X110109000Y-89036696D02*
X110108999Y-83871001D01*
X115720000Y-91350000D02*
X112457696Y-91350000D01*
X112150000Y-81830000D02*
X112150000Y-80772893D01*
X112150000Y-80772893D02*
X112682893Y-80240000D01*
X116667000Y-92297000D02*
X115720000Y-91350000D01*
X112457696Y-91350000D02*
X112167696Y-91060000D01*
X119207000Y-92297000D02*
X118964107Y-92297000D01*
X118964107Y-92297000D02*
X117742107Y-91075000D01*
X112275392Y-90800000D02*
X112240000Y-90800000D01*
X112550392Y-91075000D02*
X112275392Y-90800000D01*
X110369000Y-88929000D02*
X110369000Y-83978696D01*
X117742107Y-91075000D02*
X112550392Y-91075000D01*
X112240000Y-90800000D02*
X110369000Y-88929000D01*
X110369000Y-83978696D02*
X112650000Y-81697696D01*
X112650000Y-81697696D02*
X112650000Y-80980000D01*
G04 #@! TA.AperFunction,Conductor*
G36*
X148073087Y-75009291D02*
G01*
X148119580Y-75062947D01*
X148130966Y-75115289D01*
X148130966Y-76566041D01*
X148110964Y-76634162D01*
X148057308Y-76680655D01*
X147987034Y-76690759D01*
X147922454Y-76661265D01*
X147895847Y-76629041D01*
X147851924Y-76552964D01*
X147848621Y-76547243D01*
X147839357Y-76536954D01*
X147731719Y-76417410D01*
X147731717Y-76417409D01*
X147727304Y-76412507D01*
X147668253Y-76369604D01*
X147585968Y-76309820D01*
X147585967Y-76309819D01*
X147580626Y-76305939D01*
X147574598Y-76303255D01*
X147574596Y-76303254D01*
X147421026Y-76234880D01*
X147421024Y-76234879D01*
X147414995Y-76232195D01*
X147308674Y-76209596D01*
X147244109Y-76195872D01*
X147244105Y-76195872D01*
X147237652Y-76194500D01*
X147056348Y-76194500D01*
X147049895Y-76195872D01*
X147049891Y-76195872D01*
X146985326Y-76209596D01*
X146879005Y-76232195D01*
X146872976Y-76234879D01*
X146872974Y-76234880D01*
X146719405Y-76303254D01*
X146719403Y-76303255D01*
X146713375Y-76305939D01*
X146708034Y-76309819D01*
X146708033Y-76309820D01*
X146663562Y-76342130D01*
X146566696Y-76412507D01*
X146562281Y-76417410D01*
X146562277Y-76417414D01*
X146488174Y-76499714D01*
X146427728Y-76536954D01*
X146356745Y-76535602D01*
X146297760Y-76496089D01*
X146269502Y-76430958D01*
X146270089Y-76395695D01*
X146274191Y-76369794D01*
X146274191Y-76369793D01*
X146275742Y-76360000D01*
X146254905Y-76228438D01*
X146248107Y-76215095D01*
X146204666Y-76129839D01*
X146194433Y-76109755D01*
X146100245Y-76015567D01*
X145981562Y-75955095D01*
X145850000Y-75934258D01*
X145718438Y-75955095D01*
X145599755Y-76015567D01*
X145505567Y-76109755D01*
X145495334Y-76129839D01*
X145451894Y-76215095D01*
X145445095Y-76228438D01*
X145424258Y-76360000D01*
X145422696Y-76359753D01*
X145405807Y-76417273D01*
X145352151Y-76463766D01*
X145281877Y-76473870D01*
X145217297Y-76444376D01*
X145206173Y-76433463D01*
X145191719Y-76417410D01*
X145191717Y-76417409D01*
X145187304Y-76412507D01*
X145128253Y-76369604D01*
X145045968Y-76309820D01*
X145045967Y-76309819D01*
X145040626Y-76305939D01*
X145034598Y-76303255D01*
X145034596Y-76303254D01*
X144881026Y-76234880D01*
X144881024Y-76234879D01*
X144874995Y-76232195D01*
X144768674Y-76209596D01*
X144704109Y-76195872D01*
X144704105Y-76195872D01*
X144697652Y-76194500D01*
X144516348Y-76194500D01*
X144509895Y-76195872D01*
X144509891Y-76195872D01*
X144445326Y-76209596D01*
X144339005Y-76232195D01*
X144332976Y-76234879D01*
X144332974Y-76234880D01*
X144179405Y-76303254D01*
X144179403Y-76303255D01*
X144173375Y-76305939D01*
X144168034Y-76309819D01*
X144168033Y-76309820D01*
X144123562Y-76342130D01*
X144026696Y-76412507D01*
X144022283Y-76417409D01*
X144022281Y-76417410D01*
X143953827Y-76493436D01*
X143893381Y-76530675D01*
X143822397Y-76529323D01*
X143763413Y-76489809D01*
X143735155Y-76424679D01*
X143735112Y-76423980D01*
X143735742Y-76420000D01*
X143714905Y-76288438D01*
X143704791Y-76268587D01*
X143658933Y-76178587D01*
X143654433Y-76169755D01*
X143560245Y-76075567D01*
X143441562Y-76015095D01*
X143310000Y-75994258D01*
X143178438Y-76015095D01*
X143059755Y-76075567D01*
X142965567Y-76169755D01*
X142961067Y-76178587D01*
X142915210Y-76268587D01*
X142905095Y-76288438D01*
X142893327Y-76362744D01*
X142891146Y-76376512D01*
X142860734Y-76440665D01*
X142800466Y-76478192D01*
X142729477Y-76477179D01*
X142673061Y-76441113D01*
X142651719Y-76417410D01*
X142651717Y-76417409D01*
X142647304Y-76412507D01*
X142588253Y-76369604D01*
X142505968Y-76309820D01*
X142505967Y-76309819D01*
X142500626Y-76305939D01*
X142494598Y-76303255D01*
X142494596Y-76303254D01*
X142341026Y-76234880D01*
X142341024Y-76234879D01*
X142334995Y-76232195D01*
X142228674Y-76209596D01*
X142164109Y-76195872D01*
X142164105Y-76195872D01*
X142157652Y-76194500D01*
X141976348Y-76194500D01*
X141969895Y-76195872D01*
X141969891Y-76195872D01*
X141905326Y-76209596D01*
X141799005Y-76232195D01*
X141792978Y-76234878D01*
X141792970Y-76234881D01*
X141669468Y-76289869D01*
X141599101Y-76299304D01*
X141534803Y-76269198D01*
X141529123Y-76263858D01*
X140654709Y-75389444D01*
X140639592Y-75371172D01*
X140639411Y-75370905D01*
X140639410Y-75370904D01*
X140630842Y-75358297D01*
X140598798Y-75341115D01*
X140593110Y-75337870D01*
X140562041Y-75319054D01*
X140557072Y-75318741D01*
X140552681Y-75316387D01*
X140549214Y-75315949D01*
X140516645Y-75315949D01*
X140508733Y-75315700D01*
X140500930Y-75315209D01*
X140473529Y-75313485D01*
X140473600Y-75312358D01*
X140467995Y-75311752D01*
X140467995Y-75315949D01*
X111005017Y-75315949D01*
X110981407Y-75313717D01*
X110981103Y-75313659D01*
X110966126Y-75310802D01*
X110931343Y-75321303D01*
X110925008Y-75323036D01*
X110889727Y-75331702D01*
X110885991Y-75334995D01*
X110881223Y-75336435D01*
X110878461Y-75338577D01*
X110855446Y-75361592D01*
X110849678Y-75367010D01*
X110823202Y-75390352D01*
X110822455Y-75389504D01*
X110818064Y-75393040D01*
X110821031Y-75396007D01*
X110207024Y-76010015D01*
X110188750Y-76025133D01*
X110188489Y-76025310D01*
X110188488Y-76025311D01*
X110175879Y-76033880D01*
X110158697Y-76065924D01*
X110155452Y-76071612D01*
X110136636Y-76102681D01*
X110136323Y-76107650D01*
X110133969Y-76112041D01*
X110133531Y-76115508D01*
X110133531Y-76148077D01*
X110133282Y-76155988D01*
X110131067Y-76191193D01*
X110129940Y-76191122D01*
X110129334Y-76196727D01*
X110133531Y-76196727D01*
X110133531Y-76814358D01*
X110113529Y-76882479D01*
X110059873Y-76928972D01*
X109989599Y-76939076D01*
X109925019Y-76909582D01*
X109887698Y-76853294D01*
X109841315Y-76710542D01*
X109841314Y-76710539D01*
X109839273Y-76704257D01*
X109833462Y-76694191D01*
X109751924Y-76552964D01*
X109748621Y-76547243D01*
X109739357Y-76536954D01*
X109631719Y-76417410D01*
X109631717Y-76417409D01*
X109627304Y-76412507D01*
X109568253Y-76369604D01*
X109485968Y-76309820D01*
X109485967Y-76309819D01*
X109480626Y-76305939D01*
X109474598Y-76303255D01*
X109474596Y-76303254D01*
X109321026Y-76234880D01*
X109321024Y-76234879D01*
X109314995Y-76232195D01*
X109208674Y-76209596D01*
X109144109Y-76195872D01*
X109144105Y-76195872D01*
X109137652Y-76194500D01*
X108956348Y-76194500D01*
X108949895Y-76195872D01*
X108949891Y-76195872D01*
X108885326Y-76209596D01*
X108779005Y-76232195D01*
X108772976Y-76234879D01*
X108772974Y-76234880D01*
X108619405Y-76303254D01*
X108619403Y-76303255D01*
X108613375Y-76305939D01*
X108608034Y-76309819D01*
X108608033Y-76309820D01*
X108563562Y-76342130D01*
X108466696Y-76412507D01*
X108452523Y-76428248D01*
X108449259Y-76431873D01*
X108388813Y-76469113D01*
X108317829Y-76467761D01*
X108258844Y-76428248D01*
X108230586Y-76363117D01*
X108229622Y-76347563D01*
X108229622Y-76316305D01*
X108249624Y-76248184D01*
X108284500Y-76216632D01*
X108282507Y-76213888D01*
X108290535Y-76208055D01*
X108299367Y-76203555D01*
X108393555Y-76109367D01*
X108434119Y-76029755D01*
X108449526Y-75999518D01*
X108449526Y-75999517D01*
X108454027Y-75990684D01*
X108474864Y-75859122D01*
X108454027Y-75727560D01*
X108393555Y-75608877D01*
X108299367Y-75514689D01*
X108180684Y-75454217D01*
X108049122Y-75433380D01*
X107917560Y-75454217D01*
X107798877Y-75514689D01*
X107704689Y-75608877D01*
X107644217Y-75727560D01*
X107623380Y-75859122D01*
X107644217Y-75990684D01*
X107648718Y-75999517D01*
X107648718Y-75999518D01*
X107664125Y-76029755D01*
X107704689Y-76109367D01*
X107798877Y-76203555D01*
X107807709Y-76208055D01*
X107815737Y-76213888D01*
X107813505Y-76216960D01*
X107851438Y-76252784D01*
X107868622Y-76316305D01*
X107868622Y-77979362D01*
X107848620Y-78047483D01*
X107794964Y-78093976D01*
X107724690Y-78104080D01*
X107660110Y-78074586D01*
X107621726Y-78014860D01*
X107618173Y-77999072D01*
X107617680Y-77995956D01*
X107614905Y-77978438D01*
X107554433Y-77859755D01*
X107460245Y-77765567D01*
X107341562Y-77705095D01*
X107331771Y-77703544D01*
X107331767Y-77703543D01*
X107327660Y-77702893D01*
X107323071Y-77700718D01*
X107322336Y-77700479D01*
X107322367Y-77700384D01*
X107263505Y-77672483D01*
X107225976Y-77612217D01*
X107226988Y-77541227D01*
X107238247Y-77515444D01*
X107295969Y-77415466D01*
X107295970Y-77415465D01*
X107299273Y-77409743D01*
X107339469Y-77286032D01*
X107353259Y-77243591D01*
X107353259Y-77243590D01*
X107355299Y-77237312D01*
X107374251Y-77057000D01*
X107367594Y-76993661D01*
X107355989Y-76883252D01*
X107355989Y-76883251D01*
X107355299Y-76876688D01*
X107349957Y-76860245D01*
X107301315Y-76710542D01*
X107301314Y-76710539D01*
X107299273Y-76704257D01*
X107293462Y-76694191D01*
X107211924Y-76552964D01*
X107208621Y-76547243D01*
X107199357Y-76536954D01*
X107091719Y-76417410D01*
X107091717Y-76417409D01*
X107087304Y-76412507D01*
X107028253Y-76369604D01*
X106945968Y-76309820D01*
X106945967Y-76309819D01*
X106940626Y-76305939D01*
X106934598Y-76303255D01*
X106934596Y-76303254D01*
X106781026Y-76234880D01*
X106781024Y-76234879D01*
X106774995Y-76232195D01*
X106668674Y-76209596D01*
X106604109Y-76195872D01*
X106604105Y-76195872D01*
X106597652Y-76194500D01*
X106416348Y-76194500D01*
X106409895Y-76195872D01*
X106409891Y-76195872D01*
X106345326Y-76209596D01*
X106239005Y-76232195D01*
X106232976Y-76234879D01*
X106232974Y-76234880D01*
X106079405Y-76303254D01*
X106079403Y-76303255D01*
X106073375Y-76305939D01*
X106068034Y-76309819D01*
X106068033Y-76309820D01*
X106023562Y-76342130D01*
X105926696Y-76412507D01*
X105922285Y-76417406D01*
X105922276Y-76417414D01*
X105844933Y-76503313D01*
X105784487Y-76540553D01*
X105713503Y-76539201D01*
X105654519Y-76499688D01*
X105626261Y-76434557D01*
X105626848Y-76399292D01*
X105630128Y-76378587D01*
X105645742Y-76280000D01*
X105641432Y-76252784D01*
X105626456Y-76158231D01*
X105624905Y-76148438D01*
X105610620Y-76120401D01*
X105585773Y-76071638D01*
X105564433Y-76029755D01*
X105470245Y-75935567D01*
X105351562Y-75875095D01*
X105220000Y-75854258D01*
X105088438Y-75875095D01*
X104969755Y-75935567D01*
X104875567Y-76029755D01*
X104854227Y-76071638D01*
X104829381Y-76120401D01*
X104815095Y-76148438D01*
X104813544Y-76158231D01*
X104798569Y-76252784D01*
X104794258Y-76280000D01*
X104815095Y-76411562D01*
X104819596Y-76420395D01*
X104819596Y-76420396D01*
X104832261Y-76445252D01*
X104875567Y-76530245D01*
X104969755Y-76624433D01*
X104981737Y-76630538D01*
X105069146Y-76675075D01*
X105088438Y-76684905D01*
X105220000Y-76705742D01*
X105351562Y-76684905D01*
X105370855Y-76675075D01*
X105458263Y-76630538D01*
X105470245Y-76624433D01*
X105499709Y-76594969D01*
X105562021Y-76560943D01*
X105632836Y-76566008D01*
X105689672Y-76608555D01*
X105714483Y-76675075D01*
X105708637Y-76723000D01*
X105664044Y-76860245D01*
X105658701Y-76876688D01*
X105658011Y-76883251D01*
X105658011Y-76883252D01*
X105646406Y-76993661D01*
X105639749Y-77057000D01*
X105658701Y-77237312D01*
X105660741Y-77243590D01*
X105660741Y-77243591D01*
X105674531Y-77286032D01*
X105714727Y-77409743D01*
X105718030Y-77415465D01*
X105718031Y-77415466D01*
X105752983Y-77476004D01*
X105805379Y-77566757D01*
X105809797Y-77571664D01*
X105809798Y-77571665D01*
X105916348Y-77690000D01*
X105926696Y-77701493D01*
X105932035Y-77705372D01*
X106024217Y-77772346D01*
X106073374Y-77808061D01*
X106079402Y-77810745D01*
X106079404Y-77810746D01*
X106217883Y-77872401D01*
X106239005Y-77881805D01*
X106326498Y-77900402D01*
X106409891Y-77918128D01*
X106409895Y-77918128D01*
X106416348Y-77919500D01*
X106597652Y-77919500D01*
X106604105Y-77918128D01*
X106604109Y-77918128D01*
X106642657Y-77909934D01*
X106713448Y-77915336D01*
X106770081Y-77958153D01*
X106794574Y-78024791D01*
X106793303Y-78052891D01*
X106784258Y-78110000D01*
X106785809Y-78119793D01*
X106789209Y-78141262D01*
X106805095Y-78241562D01*
X106809596Y-78250395D01*
X106809596Y-78250396D01*
X106830000Y-78290441D01*
X106865567Y-78360245D01*
X106959755Y-78454433D01*
X107078438Y-78514905D01*
X107210000Y-78535742D01*
X107341562Y-78514905D01*
X107460245Y-78454433D01*
X107554433Y-78360245D01*
X107590000Y-78290441D01*
X107610404Y-78250396D01*
X107610404Y-78250395D01*
X107614905Y-78241562D01*
X107619849Y-78210344D01*
X107650261Y-78146192D01*
X107710529Y-78108665D01*
X107781518Y-78109678D01*
X107840690Y-78148910D01*
X107864920Y-78193638D01*
X107873968Y-78223607D01*
X107875709Y-78229968D01*
X107880727Y-78250396D01*
X107884375Y-78265250D01*
X107887668Y-78268986D01*
X107889108Y-78273754D01*
X107891250Y-78276515D01*
X107914258Y-78299523D01*
X107919677Y-78305293D01*
X107943025Y-78331776D01*
X107942178Y-78332523D01*
X107945713Y-78336914D01*
X107948681Y-78333946D01*
X109762595Y-80147860D01*
X109796621Y-80210172D01*
X109799500Y-80236955D01*
X109799500Y-81770717D01*
X109779498Y-81838838D01*
X109725842Y-81885331D01*
X109655568Y-81895435D01*
X109616297Y-81882984D01*
X109570396Y-81859596D01*
X109570395Y-81859596D01*
X109561562Y-81855095D01*
X109449788Y-81837392D01*
X109439793Y-81835809D01*
X109430000Y-81834258D01*
X109352757Y-81846492D01*
X109282347Y-81837392D01*
X109228033Y-81791670D01*
X109208598Y-81741755D01*
X109206456Y-81728230D01*
X109206456Y-81728229D01*
X109204905Y-81718438D01*
X109144433Y-81599755D01*
X109050245Y-81505567D01*
X108973087Y-81466253D01*
X108940396Y-81449596D01*
X108940395Y-81449596D01*
X108931562Y-81445095D01*
X108915967Y-81442625D01*
X108851813Y-81412215D01*
X108814284Y-81351948D01*
X108815296Y-81280959D01*
X108854527Y-81221785D01*
X108878470Y-81205910D01*
X108931410Y-81178935D01*
X108931412Y-81178934D01*
X108940245Y-81174433D01*
X109034433Y-81080245D01*
X109073687Y-81003205D01*
X109090404Y-80970396D01*
X109090404Y-80970395D01*
X109094905Y-80961562D01*
X109115742Y-80830000D01*
X109094905Y-80698438D01*
X109087255Y-80683423D01*
X109038933Y-80588587D01*
X109034433Y-80579755D01*
X108940245Y-80485567D01*
X108884400Y-80457113D01*
X108830396Y-80429596D01*
X108830395Y-80429596D01*
X108821562Y-80425095D01*
X108755781Y-80414677D01*
X108699793Y-80405809D01*
X108690000Y-80404258D01*
X108680207Y-80405809D01*
X108624219Y-80414676D01*
X108558438Y-80425095D01*
X108549605Y-80429596D01*
X108549604Y-80429596D01*
X108495600Y-80457113D01*
X108439755Y-80485567D01*
X108345567Y-80579755D01*
X108341067Y-80588587D01*
X108292746Y-80683423D01*
X108285095Y-80698438D01*
X108283544Y-80708231D01*
X108266292Y-80817157D01*
X108235880Y-80881311D01*
X108175612Y-80918838D01*
X108146113Y-80922864D01*
X108140000Y-80921896D01*
X108008438Y-80942733D01*
X107999605Y-80947234D01*
X107999604Y-80947234D01*
X107990704Y-80951769D01*
X107889755Y-81003205D01*
X107795567Y-81097393D01*
X107791067Y-81106225D01*
X107785234Y-81114253D01*
X107782162Y-81112021D01*
X107746338Y-81149954D01*
X107682817Y-81167138D01*
X104501524Y-81167138D01*
X104477914Y-81164906D01*
X104477610Y-81164848D01*
X104462633Y-81161991D01*
X104427850Y-81172492D01*
X104421516Y-81174225D01*
X104396273Y-81180425D01*
X104396272Y-81180425D01*
X104386234Y-81182891D01*
X104382498Y-81186184D01*
X104377730Y-81187624D01*
X104374969Y-81189766D01*
X104351961Y-81212774D01*
X104346191Y-81218193D01*
X104319708Y-81241541D01*
X104318961Y-81240694D01*
X104314570Y-81244229D01*
X104317538Y-81247197D01*
X103963656Y-81601079D01*
X103901344Y-81635105D01*
X103830529Y-81630040D01*
X103773693Y-81587493D01*
X103748882Y-81520973D01*
X103748561Y-81511984D01*
X103748561Y-81508565D01*
X103749251Y-81502000D01*
X103745494Y-81466253D01*
X103730989Y-81328252D01*
X103730989Y-81328251D01*
X103730299Y-81321688D01*
X103721402Y-81294304D01*
X103682453Y-81174433D01*
X103674273Y-81149257D01*
X103657382Y-81120000D01*
X103586924Y-80997964D01*
X103583621Y-80992243D01*
X103572749Y-80980168D01*
X103466719Y-80862410D01*
X103466717Y-80862409D01*
X103462304Y-80857507D01*
X103394535Y-80808270D01*
X103320968Y-80754820D01*
X103320967Y-80754819D01*
X103315626Y-80750939D01*
X103309598Y-80748255D01*
X103309596Y-80748254D01*
X103240074Y-80717301D01*
X103227285Y-80711607D01*
X103173189Y-80665627D01*
X103152540Y-80597699D01*
X103171892Y-80529391D01*
X103225103Y-80482390D01*
X103278534Y-80470500D01*
X105602817Y-80470500D01*
X105670938Y-80490502D01*
X105702490Y-80525378D01*
X105705234Y-80523385D01*
X105711067Y-80531413D01*
X105715567Y-80540245D01*
X105809755Y-80634433D01*
X105818588Y-80638933D01*
X105818587Y-80638933D01*
X105918747Y-80689967D01*
X105928438Y-80694905D01*
X105969270Y-80701372D01*
X106012577Y-80708231D01*
X106060000Y-80715742D01*
X106107424Y-80708231D01*
X106150730Y-80701372D01*
X106191562Y-80694905D01*
X106201254Y-80689967D01*
X106301413Y-80638933D01*
X106301412Y-80638933D01*
X106310245Y-80634433D01*
X106404433Y-80540245D01*
X106455829Y-80439374D01*
X106460404Y-80430396D01*
X106460404Y-80430395D01*
X106464905Y-80421562D01*
X106482113Y-80312914D01*
X106484191Y-80299793D01*
X106485742Y-80290000D01*
X106480285Y-80255542D01*
X106466456Y-80168231D01*
X106464905Y-80158438D01*
X106459877Y-80148569D01*
X106417778Y-80065947D01*
X106404433Y-80039755D01*
X106310245Y-79945567D01*
X106213828Y-79896440D01*
X106200396Y-79889596D01*
X106200395Y-79889596D01*
X106191562Y-79885095D01*
X106060000Y-79864258D01*
X105928438Y-79885095D01*
X105919605Y-79889596D01*
X105919604Y-79889596D01*
X105906172Y-79896440D01*
X105809755Y-79945567D01*
X105715567Y-80039755D01*
X105711067Y-80048587D01*
X105705234Y-80056615D01*
X105702162Y-80054383D01*
X105666338Y-80092316D01*
X105602817Y-80109500D01*
X102790972Y-80109500D01*
X102767362Y-80107268D01*
X102767058Y-80107210D01*
X102752081Y-80104353D01*
X102717298Y-80114854D01*
X102710964Y-80116587D01*
X102685721Y-80122787D01*
X102685720Y-80122787D01*
X102675682Y-80125253D01*
X102671946Y-80128546D01*
X102667178Y-80129986D01*
X102664417Y-80132128D01*
X102641409Y-80155136D01*
X102635639Y-80160555D01*
X102609156Y-80183903D01*
X102608409Y-80183056D01*
X102604018Y-80186591D01*
X102606986Y-80189559D01*
X101752995Y-81043550D01*
X101734723Y-81058667D01*
X101734456Y-81058848D01*
X101734455Y-81058849D01*
X101721848Y-81067417D01*
X101704666Y-81099461D01*
X101701421Y-81105149D01*
X101682605Y-81136218D01*
X101682292Y-81141187D01*
X101679938Y-81145578D01*
X101679500Y-81149045D01*
X101679500Y-81181614D01*
X101679251Y-81189525D01*
X101677036Y-81224730D01*
X101675909Y-81224659D01*
X101675303Y-81230264D01*
X101679500Y-81230264D01*
X101679500Y-82133044D01*
X101659498Y-82201165D01*
X101642595Y-82222139D01*
X100926991Y-82937743D01*
X100908721Y-82952858D01*
X100895848Y-82961607D01*
X100878666Y-82993651D01*
X100875421Y-82999339D01*
X100856605Y-83030408D01*
X100856292Y-83035377D01*
X100853938Y-83039768D01*
X100853500Y-83043235D01*
X100853500Y-83075804D01*
X100853251Y-83083715D01*
X100851036Y-83118920D01*
X100849909Y-83118849D01*
X100849303Y-83124454D01*
X100853500Y-83124454D01*
X100853500Y-86109045D01*
X100833498Y-86177166D01*
X100816595Y-86198140D01*
X100402140Y-86612595D01*
X100339828Y-86646621D01*
X100313045Y-86649500D01*
X99151161Y-86649500D01*
X99127551Y-86647268D01*
X99127247Y-86647210D01*
X99112270Y-86644353D01*
X99077487Y-86654854D01*
X99071152Y-86656587D01*
X99035871Y-86665253D01*
X99032135Y-86668546D01*
X99027367Y-86669986D01*
X99024605Y-86672128D01*
X99001590Y-86695143D01*
X98995822Y-86700561D01*
X98969346Y-86723903D01*
X98968599Y-86723055D01*
X98964208Y-86726591D01*
X98967175Y-86729558D01*
X98872613Y-86824120D01*
X98810303Y-86858144D01*
X98739487Y-86853080D01*
X98682651Y-86810534D01*
X98659070Y-86754735D01*
X98656456Y-86738230D01*
X98656456Y-86738229D01*
X98654905Y-86728438D01*
X98643965Y-86706966D01*
X98617775Y-86655567D01*
X98594433Y-86609755D01*
X98500245Y-86515567D01*
X98491413Y-86511067D01*
X98483385Y-86505234D01*
X98485617Y-86502162D01*
X98447684Y-86466338D01*
X98430500Y-86402817D01*
X98430500Y-86144848D01*
X98450502Y-86076727D01*
X98467405Y-86055753D01*
X98512215Y-86010943D01*
X98574527Y-85976917D01*
X98645342Y-85981982D01*
X98702178Y-86024529D01*
X98713577Y-86042835D01*
X98755567Y-86125245D01*
X98849755Y-86219433D01*
X98858588Y-86223933D01*
X98858587Y-86223933D01*
X98959116Y-86275155D01*
X98968438Y-86279905D01*
X98978231Y-86281456D01*
X99084241Y-86298246D01*
X99100000Y-86300742D01*
X99115760Y-86298246D01*
X99221769Y-86281456D01*
X99231562Y-86279905D01*
X99240885Y-86275155D01*
X99341413Y-86223933D01*
X99341412Y-86223933D01*
X99350245Y-86219433D01*
X99444433Y-86125245D01*
X99487630Y-86040466D01*
X99500404Y-86015396D01*
X99500404Y-86015395D01*
X99504905Y-86006562D01*
X99525742Y-85875000D01*
X99522767Y-85856213D01*
X99506456Y-85753231D01*
X99504905Y-85743438D01*
X99496745Y-85727422D01*
X99467612Y-85670247D01*
X99444433Y-85624755D01*
X99350245Y-85530567D01*
X99267835Y-85488577D01*
X99216220Y-85439829D01*
X99199154Y-85370914D01*
X99222055Y-85303712D01*
X99235943Y-85287215D01*
X99307011Y-85216147D01*
X99325284Y-85201030D01*
X99325539Y-85200857D01*
X99325540Y-85200856D01*
X99338152Y-85192285D01*
X99355323Y-85160262D01*
X99358572Y-85154566D01*
X99372037Y-85132333D01*
X99372037Y-85132332D01*
X99377396Y-85123484D01*
X99377709Y-85118513D01*
X99380062Y-85114124D01*
X99380500Y-85110657D01*
X99380500Y-85078094D01*
X99380749Y-85070183D01*
X99382964Y-85034972D01*
X99384091Y-85035043D01*
X99384697Y-85029438D01*
X99380500Y-85029438D01*
X99380500Y-83367564D01*
X99400502Y-83299443D01*
X99449297Y-83255297D01*
X99490245Y-83234433D01*
X99584433Y-83140245D01*
X99629695Y-83051413D01*
X99640404Y-83030396D01*
X99640404Y-83030395D01*
X99644905Y-83021562D01*
X99656513Y-82948272D01*
X99664191Y-82899793D01*
X99665742Y-82890000D01*
X99644905Y-82758438D01*
X99636934Y-82742793D01*
X99597605Y-82665607D01*
X99584433Y-82639755D01*
X99525201Y-82580523D01*
X99491175Y-82518211D01*
X99496240Y-82447396D01*
X99538787Y-82390560D01*
X99566077Y-82375019D01*
X99574546Y-82371511D01*
X99634841Y-82346536D01*
X99735111Y-82269596D01*
X99753736Y-82255305D01*
X99760282Y-82250282D01*
X99769782Y-82237902D01*
X99799759Y-82198834D01*
X99856536Y-82124841D01*
X99917044Y-81978762D01*
X99937682Y-81822000D01*
X99917044Y-81665238D01*
X99856536Y-81519159D01*
X99760282Y-81393718D01*
X99634841Y-81297464D01*
X99544175Y-81259909D01*
X99488894Y-81215361D01*
X99466473Y-81147997D01*
X99484031Y-81079206D01*
X99535993Y-81030828D01*
X99592393Y-81017500D01*
X100426350Y-81017500D01*
X100430275Y-81017004D01*
X100430278Y-81017004D01*
X100535933Y-81003657D01*
X100535935Y-81003657D01*
X100543792Y-81002664D01*
X100615234Y-80974378D01*
X100683363Y-80947404D01*
X100683366Y-80947403D01*
X100690732Y-80944486D01*
X100705979Y-80933409D01*
X100812173Y-80856254D01*
X100818587Y-80851594D01*
X100828506Y-80839604D01*
X100914271Y-80735932D01*
X100914274Y-80735928D01*
X100919324Y-80729823D01*
X100986614Y-80586826D01*
X100988099Y-80579042D01*
X101014742Y-80439374D01*
X101014742Y-80439372D01*
X101016227Y-80431588D01*
X101006304Y-80273862D01*
X100984402Y-80206456D01*
X100959916Y-80131095D01*
X100959915Y-80131092D01*
X100957467Y-80123559D01*
X100872786Y-79990123D01*
X100840279Y-79959596D01*
X100763358Y-79887362D01*
X100757582Y-79881938D01*
X100619092Y-79805803D01*
X100466019Y-79766500D01*
X99297650Y-79766500D01*
X99293725Y-79766996D01*
X99293722Y-79766996D01*
X99188067Y-79780343D01*
X99188065Y-79780343D01*
X99180208Y-79781336D01*
X99157803Y-79790207D01*
X99040637Y-79836596D01*
X99040634Y-79836597D01*
X99033268Y-79839514D01*
X99026857Y-79844172D01*
X99026855Y-79844173D01*
X98954916Y-79896440D01*
X98905413Y-79932406D01*
X98900360Y-79938514D01*
X98809729Y-80048068D01*
X98809726Y-80048072D01*
X98804676Y-80054177D01*
X98737386Y-80197174D01*
X98735901Y-80204957D01*
X98735901Y-80204958D01*
X98713724Y-80321217D01*
X98707773Y-80352412D01*
X98717696Y-80510138D01*
X98720147Y-80517681D01*
X98762922Y-80649327D01*
X98766533Y-80660441D01*
X98851214Y-80793877D01*
X98856993Y-80799304D01*
X98856994Y-80799305D01*
X98929469Y-80867364D01*
X98966418Y-80902062D01*
X99104908Y-80978197D01*
X99170908Y-80995143D01*
X99231914Y-81031458D01*
X99263602Y-81094990D01*
X99255912Y-81165569D01*
X99211284Y-81220786D01*
X99176806Y-81236750D01*
X99175238Y-81236956D01*
X99029159Y-81297464D01*
X98903718Y-81393718D01*
X98807464Y-81519159D01*
X98746956Y-81665238D01*
X98726318Y-81822000D01*
X98746956Y-81978762D01*
X98807464Y-82124841D01*
X98864241Y-82198834D01*
X98894219Y-82237902D01*
X98903718Y-82250282D01*
X98910264Y-82255305D01*
X98933333Y-82273006D01*
X98991001Y-82317256D01*
X99010880Y-82332510D01*
X99052747Y-82389848D01*
X99056969Y-82460719D01*
X99022205Y-82522622D01*
X99005933Y-82534295D01*
X99006615Y-82535234D01*
X98998587Y-82541067D01*
X98989755Y-82545567D01*
X98895567Y-82639755D01*
X98882395Y-82665607D01*
X98843067Y-82742793D01*
X98835095Y-82758438D01*
X98814258Y-82890000D01*
X98815809Y-82899793D01*
X98823487Y-82948272D01*
X98835095Y-83021562D01*
X98839596Y-83030395D01*
X98839596Y-83030396D01*
X98850305Y-83051413D01*
X98895567Y-83140245D01*
X98982595Y-83227273D01*
X99016621Y-83289585D01*
X99019500Y-83316368D01*
X99019500Y-84940937D01*
X98999498Y-85009058D01*
X98982595Y-85030032D01*
X98142991Y-85869636D01*
X98124721Y-85884751D01*
X98111848Y-85893500D01*
X98094666Y-85925544D01*
X98091421Y-85931232D01*
X98072605Y-85962301D01*
X98072292Y-85967270D01*
X98069938Y-85971661D01*
X98069500Y-85975128D01*
X98069500Y-86007697D01*
X98069251Y-86015608D01*
X98067036Y-86050813D01*
X98065909Y-86050742D01*
X98065303Y-86056347D01*
X98069500Y-86056347D01*
X98069500Y-86402817D01*
X98049498Y-86470938D01*
X98014622Y-86502490D01*
X98016615Y-86505234D01*
X98008587Y-86511067D01*
X97999755Y-86515567D01*
X97905567Y-86609755D01*
X97882225Y-86655567D01*
X97856036Y-86706966D01*
X97845095Y-86728438D01*
X97843544Y-86738230D01*
X97843544Y-86738231D01*
X97832093Y-86810534D01*
X97824258Y-86860000D01*
X97845095Y-86991562D01*
X97849596Y-87000395D01*
X97849596Y-87000396D01*
X97873732Y-87047765D01*
X97905567Y-87110245D01*
X97999755Y-87204433D01*
X98033420Y-87221586D01*
X98090483Y-87250661D01*
X98118438Y-87264905D01*
X98128231Y-87266456D01*
X98231665Y-87282838D01*
X98250000Y-87285742D01*
X98325790Y-87273738D01*
X98396199Y-87282838D01*
X98450513Y-87328559D01*
X98471499Y-87398187D01*
X98471499Y-88745638D01*
X98459809Y-88792176D01*
X98460929Y-88792534D01*
X98457408Y-88803566D01*
X98451938Y-88813768D01*
X98451500Y-88817235D01*
X98451500Y-88826446D01*
X98450106Y-88826446D01*
X98448763Y-88830655D01*
X98449082Y-88832746D01*
X98447564Y-88836700D01*
X98449316Y-88851845D01*
X98449316Y-88851846D01*
X98450665Y-88863503D01*
X98451500Y-88877984D01*
X98451500Y-90149823D01*
X98431498Y-90217944D01*
X98377842Y-90264437D01*
X98307568Y-90274541D01*
X98242988Y-90245047D01*
X98213233Y-90207026D01*
X98208933Y-90198587D01*
X98204433Y-90189755D01*
X98110245Y-90095567D01*
X98022909Y-90051067D01*
X98000396Y-90039596D01*
X98000395Y-90039596D01*
X97991562Y-90035095D01*
X97860000Y-90014258D01*
X97728438Y-90035095D01*
X97719605Y-90039596D01*
X97719604Y-90039596D01*
X97697091Y-90051067D01*
X97609755Y-90095567D01*
X97515567Y-90189755D01*
X97455095Y-90308438D01*
X97434258Y-90440000D01*
X97455095Y-90571562D01*
X97459596Y-90580395D01*
X97459596Y-90580396D01*
X97475848Y-90612292D01*
X97515567Y-90690245D01*
X97596236Y-90770914D01*
X97630262Y-90833226D01*
X97625197Y-90904041D01*
X97582650Y-90960877D01*
X97564344Y-90972276D01*
X97459755Y-91025567D01*
X97365567Y-91119755D01*
X97361067Y-91128587D01*
X97315930Y-91217174D01*
X97305095Y-91238438D01*
X97284258Y-91370000D01*
X97305095Y-91501562D01*
X97309596Y-91510395D01*
X97309596Y-91510396D01*
X97336184Y-91562578D01*
X97365567Y-91620245D01*
X97459755Y-91714433D01*
X97506022Y-91738007D01*
X97552106Y-91761488D01*
X97578438Y-91774905D01*
X97710000Y-91795742D01*
X97841562Y-91774905D01*
X97853972Y-91768582D01*
X97959761Y-91714680D01*
X98029538Y-91701576D01*
X98095323Y-91728276D01*
X98136229Y-91786304D01*
X98139269Y-91857235D01*
X98126083Y-91889946D01*
X98094727Y-91944257D01*
X98038701Y-92116688D01*
X98038011Y-92123251D01*
X98038011Y-92123252D01*
X98023470Y-92261596D01*
X98019749Y-92297000D01*
X98020439Y-92303562D01*
X98020439Y-92303565D01*
X98034754Y-92439755D01*
X98038701Y-92477312D01*
X98040741Y-92483590D01*
X98040741Y-92483591D01*
X98057414Y-92534905D01*
X98094727Y-92649743D01*
X98098030Y-92655465D01*
X98098031Y-92655466D01*
X98117969Y-92690000D01*
X98185379Y-92806757D01*
X98189797Y-92811664D01*
X98189798Y-92811665D01*
X98302278Y-92936586D01*
X98306696Y-92941493D01*
X98312035Y-92945372D01*
X98434617Y-93034433D01*
X98453374Y-93048061D01*
X98459402Y-93050745D01*
X98459404Y-93050746D01*
X98605387Y-93115742D01*
X98619005Y-93121805D01*
X98692478Y-93137422D01*
X98789891Y-93158128D01*
X98789895Y-93158128D01*
X98796348Y-93159500D01*
X98977652Y-93159500D01*
X98984105Y-93158128D01*
X98984109Y-93158128D01*
X99081522Y-93137422D01*
X99154995Y-93121805D01*
X99168613Y-93115742D01*
X99314596Y-93050746D01*
X99314598Y-93050745D01*
X99320626Y-93048061D01*
X99339384Y-93034433D01*
X99461965Y-92945372D01*
X99467304Y-92941493D01*
X99471723Y-92936586D01*
X99584202Y-92811665D01*
X99584203Y-92811664D01*
X99588621Y-92806757D01*
X99656031Y-92690000D01*
X99675969Y-92655466D01*
X99675970Y-92655465D01*
X99679273Y-92649743D01*
X99716586Y-92534905D01*
X99733259Y-92483591D01*
X99733259Y-92483590D01*
X99735299Y-92477312D01*
X99739247Y-92439755D01*
X99753561Y-92303565D01*
X99753561Y-92303562D01*
X99754251Y-92297000D01*
X99750530Y-92261596D01*
X99735989Y-92123252D01*
X99735989Y-92123251D01*
X99735299Y-92116688D01*
X99679273Y-91944257D01*
X99664367Y-91918438D01*
X99591924Y-91792964D01*
X99588621Y-91787243D01*
X99581823Y-91779693D01*
X99471719Y-91657410D01*
X99471717Y-91657409D01*
X99467304Y-91652507D01*
X99361843Y-91575885D01*
X99325968Y-91549820D01*
X99325967Y-91549819D01*
X99320626Y-91545939D01*
X99314598Y-91543255D01*
X99314596Y-91543254D01*
X99161026Y-91474880D01*
X99161024Y-91474879D01*
X99154995Y-91472195D01*
X99066323Y-91453347D01*
X98984109Y-91435872D01*
X98984105Y-91435872D01*
X98977652Y-91434500D01*
X98796348Y-91434500D01*
X98789895Y-91435872D01*
X98789891Y-91435872D01*
X98707677Y-91453347D01*
X98619005Y-91472195D01*
X98612976Y-91474879D01*
X98612974Y-91474880D01*
X98459405Y-91543254D01*
X98459403Y-91543255D01*
X98453375Y-91545939D01*
X98448034Y-91549819D01*
X98448033Y-91549820D01*
X98406366Y-91580093D01*
X98306696Y-91652507D01*
X98305772Y-91651236D01*
X98248967Y-91678490D01*
X98178514Y-91669719D01*
X98123987Y-91624251D01*
X98102699Y-91556522D01*
X98108843Y-91515198D01*
X98110402Y-91510399D01*
X98114905Y-91501562D01*
X98135742Y-91370000D01*
X98122476Y-91286240D01*
X98131576Y-91215829D01*
X98157830Y-91177435D01*
X98739005Y-90596260D01*
X98757277Y-90581143D01*
X98757544Y-90580962D01*
X98757545Y-90580961D01*
X98770152Y-90572393D01*
X98787334Y-90540349D01*
X98790579Y-90534661D01*
X98809395Y-90503592D01*
X98809708Y-90498623D01*
X98812062Y-90494232D01*
X98812500Y-90490765D01*
X98812500Y-90458196D01*
X98812749Y-90450284D01*
X98814964Y-90415080D01*
X98816091Y-90415151D01*
X98816697Y-90409546D01*
X98812500Y-90409546D01*
X98812500Y-89670499D01*
X98832502Y-89602378D01*
X98886158Y-89555885D01*
X98956432Y-89545781D01*
X98999199Y-89560083D01*
X99104908Y-89618197D01*
X99257981Y-89657500D01*
X100426350Y-89657500D01*
X100430275Y-89657004D01*
X100430278Y-89657004D01*
X100535933Y-89643657D01*
X100535935Y-89643657D01*
X100543792Y-89642664D01*
X100605588Y-89618197D01*
X100683363Y-89587404D01*
X100683366Y-89587403D01*
X100690732Y-89584486D01*
X100703299Y-89575356D01*
X100812173Y-89496254D01*
X100818587Y-89491594D01*
X100890415Y-89404768D01*
X100949248Y-89365030D01*
X101020226Y-89363407D01*
X101080814Y-89400416D01*
X101111775Y-89464306D01*
X101113500Y-89485083D01*
X101113500Y-91410630D01*
X101093498Y-91478751D01*
X101038750Y-91525736D01*
X100999407Y-91543253D01*
X100999404Y-91543254D01*
X100993375Y-91545939D01*
X100988034Y-91549819D01*
X100988033Y-91549820D01*
X100946366Y-91580093D01*
X100846696Y-91652507D01*
X100842283Y-91657409D01*
X100842281Y-91657410D01*
X100732177Y-91779693D01*
X100725379Y-91787243D01*
X100722076Y-91792964D01*
X100649634Y-91918438D01*
X100634727Y-91944257D01*
X100578701Y-92116688D01*
X100578011Y-92123251D01*
X100578011Y-92123252D01*
X100563470Y-92261596D01*
X100559749Y-92297000D01*
X100560439Y-92303562D01*
X100560439Y-92303565D01*
X100574754Y-92439755D01*
X100578701Y-92477312D01*
X100580741Y-92483590D01*
X100580741Y-92483591D01*
X100597414Y-92534905D01*
X100634727Y-92649743D01*
X100638030Y-92655465D01*
X100638031Y-92655466D01*
X100657969Y-92690000D01*
X100725379Y-92806757D01*
X100729797Y-92811664D01*
X100729798Y-92811665D01*
X100842278Y-92936586D01*
X100846696Y-92941493D01*
X100852035Y-92945372D01*
X100974617Y-93034433D01*
X100993374Y-93048061D01*
X100999402Y-93050745D01*
X100999404Y-93050746D01*
X101145387Y-93115742D01*
X101159005Y-93121805D01*
X101232478Y-93137422D01*
X101329891Y-93158128D01*
X101329895Y-93158128D01*
X101336348Y-93159500D01*
X101517652Y-93159500D01*
X101524105Y-93158128D01*
X101524109Y-93158128D01*
X101621522Y-93137422D01*
X101694995Y-93121805D01*
X101708613Y-93115742D01*
X101854596Y-93050746D01*
X101854598Y-93050745D01*
X101860626Y-93048061D01*
X101879384Y-93034433D01*
X102001965Y-92945372D01*
X102007304Y-92941493D01*
X102011719Y-92936589D01*
X102011723Y-92936586D01*
X102012945Y-92935229D01*
X102013848Y-92934672D01*
X102016631Y-92932167D01*
X102017089Y-92932676D01*
X102073391Y-92897989D01*
X102144374Y-92899341D01*
X102203359Y-92938854D01*
X102224351Y-92976867D01*
X102225095Y-92981562D01*
X102285567Y-93100245D01*
X102379755Y-93194433D01*
X102498438Y-93254905D01*
X102630000Y-93275742D01*
X102761562Y-93254905D01*
X102880245Y-93194433D01*
X102974433Y-93100245D01*
X103034905Y-92981562D01*
X103039054Y-92955365D01*
X103051602Y-92876141D01*
X103082015Y-92811988D01*
X103142283Y-92774461D01*
X103213272Y-92775475D01*
X103269687Y-92811542D01*
X103382276Y-92936586D01*
X103382285Y-92936594D01*
X103386696Y-92941493D01*
X103392035Y-92945372D01*
X103514617Y-93034433D01*
X103533374Y-93048061D01*
X103539402Y-93050745D01*
X103539404Y-93050746D01*
X103685387Y-93115742D01*
X103699005Y-93121805D01*
X103772478Y-93137422D01*
X103869891Y-93158128D01*
X103869895Y-93158128D01*
X103876348Y-93159500D01*
X104057652Y-93159500D01*
X104064105Y-93158128D01*
X104064109Y-93158128D01*
X104161522Y-93137422D01*
X104234995Y-93121805D01*
X104248613Y-93115742D01*
X104394596Y-93050746D01*
X104394598Y-93050745D01*
X104400626Y-93048061D01*
X104419384Y-93034433D01*
X104541965Y-92945372D01*
X104547304Y-92941493D01*
X104551723Y-92936586D01*
X104621900Y-92858646D01*
X104682346Y-92821407D01*
X104753330Y-92822759D01*
X104812314Y-92862273D01*
X104827803Y-92885755D01*
X104828786Y-92887685D01*
X104851065Y-92931411D01*
X104851068Y-92931415D01*
X104855567Y-92940245D01*
X104949755Y-93034433D01*
X104980788Y-93050245D01*
X105047886Y-93084433D01*
X105068438Y-93094905D01*
X105200000Y-93115742D01*
X105331562Y-93094905D01*
X105352115Y-93084433D01*
X105419212Y-93050245D01*
X105450245Y-93034433D01*
X105544433Y-92940245D01*
X105598983Y-92833185D01*
X105647730Y-92781571D01*
X105716645Y-92764505D01*
X105783847Y-92787406D01*
X105804392Y-92807646D01*
X105805379Y-92806757D01*
X105922278Y-92936586D01*
X105926696Y-92941493D01*
X105932035Y-92945372D01*
X106054617Y-93034433D01*
X106073374Y-93048061D01*
X106079402Y-93050745D01*
X106079404Y-93050746D01*
X106225387Y-93115742D01*
X106239005Y-93121805D01*
X106312478Y-93137422D01*
X106409891Y-93158128D01*
X106409895Y-93158128D01*
X106416348Y-93159500D01*
X106597652Y-93159500D01*
X106604105Y-93158128D01*
X106604109Y-93158128D01*
X106701522Y-93137422D01*
X106774995Y-93121805D01*
X106788613Y-93115742D01*
X106934596Y-93050746D01*
X106934598Y-93050745D01*
X106940626Y-93048061D01*
X106959384Y-93034433D01*
X107081965Y-92945372D01*
X107087304Y-92941493D01*
X107091723Y-92936586D01*
X107204202Y-92811665D01*
X107204203Y-92811664D01*
X107208621Y-92806757D01*
X107276031Y-92690000D01*
X107295969Y-92655466D01*
X107295970Y-92655465D01*
X107299273Y-92649743D01*
X107336586Y-92534905D01*
X107353259Y-92483591D01*
X107353259Y-92483590D01*
X107355299Y-92477312D01*
X107359247Y-92439755D01*
X107373561Y-92303565D01*
X107373561Y-92303562D01*
X107374251Y-92297000D01*
X107370530Y-92261596D01*
X107355989Y-92123252D01*
X107355989Y-92123251D01*
X107355299Y-92116688D01*
X107299273Y-91944257D01*
X107284367Y-91918438D01*
X107211924Y-91792964D01*
X107208621Y-91787243D01*
X107201823Y-91779693D01*
X107091719Y-91657410D01*
X107091717Y-91657409D01*
X107087304Y-91652507D01*
X106981843Y-91575885D01*
X106945968Y-91549820D01*
X106945967Y-91549819D01*
X106940626Y-91545939D01*
X106934598Y-91543255D01*
X106934596Y-91543254D01*
X106781026Y-91474880D01*
X106781024Y-91474879D01*
X106774995Y-91472195D01*
X106686323Y-91453347D01*
X106604109Y-91435872D01*
X106604105Y-91435872D01*
X106597652Y-91434500D01*
X106521955Y-91434500D01*
X106453834Y-91414498D01*
X106432860Y-91397595D01*
X105435265Y-90400000D01*
X107049258Y-90400000D01*
X107070095Y-90531562D01*
X107130567Y-90650245D01*
X107224755Y-90744433D01*
X107343438Y-90804905D01*
X107475000Y-90825742D01*
X107606562Y-90804905D01*
X107725245Y-90744433D01*
X107819433Y-90650245D01*
X107879905Y-90531562D01*
X107900742Y-90400000D01*
X107879905Y-90268438D01*
X107819433Y-90149755D01*
X107725245Y-90055567D01*
X107606562Y-89995095D01*
X107475000Y-89974258D01*
X107343438Y-89995095D01*
X107224755Y-90055567D01*
X107130567Y-90149755D01*
X107070095Y-90268438D01*
X107049258Y-90400000D01*
X105435265Y-90400000D01*
X105428260Y-90392995D01*
X105413143Y-90374723D01*
X105412962Y-90374456D01*
X105412961Y-90374455D01*
X105404393Y-90361848D01*
X105372349Y-90344666D01*
X105366661Y-90341421D01*
X105335592Y-90322605D01*
X105330623Y-90322292D01*
X105326232Y-90319938D01*
X105322765Y-90319500D01*
X105290196Y-90319500D01*
X105282284Y-90319251D01*
X105247080Y-90317036D01*
X105247151Y-90315909D01*
X105241546Y-90315303D01*
X105241546Y-90319500D01*
X103036957Y-90319500D01*
X102968836Y-90299498D01*
X102947862Y-90282596D01*
X102119458Y-89454193D01*
X104234697Y-89454193D01*
X104235861Y-89463095D01*
X104235861Y-89463098D01*
X104246686Y-89545879D01*
X104252172Y-89587828D01*
X104306451Y-89711187D01*
X104312228Y-89718060D01*
X104312229Y-89718061D01*
X104377854Y-89796130D01*
X104393172Y-89814353D01*
X104505362Y-89889033D01*
X104598464Y-89918120D01*
X104617963Y-89924212D01*
X104634002Y-89929223D01*
X104642972Y-89929387D01*
X104642976Y-89929388D01*
X104704742Y-89930520D01*
X104768752Y-89931693D01*
X104777812Y-89929223D01*
X104890117Y-89898606D01*
X104890120Y-89898605D01*
X104898779Y-89896244D01*
X104906429Y-89891547D01*
X104906431Y-89891546D01*
X105005979Y-89830424D01*
X105005982Y-89830421D01*
X105013631Y-89825725D01*
X105023925Y-89814353D01*
X105098045Y-89732466D01*
X105098046Y-89732465D01*
X105104073Y-89725806D01*
X105110293Y-89712969D01*
X105158921Y-89612599D01*
X105158921Y-89612598D01*
X105162836Y-89604518D01*
X105185196Y-89471614D01*
X105185338Y-89460000D01*
X105175090Y-89388438D01*
X105167505Y-89335474D01*
X105167504Y-89335471D01*
X105166232Y-89326588D01*
X105160010Y-89312902D01*
X105141550Y-89272302D01*
X105110450Y-89203902D01*
X105022475Y-89101803D01*
X104909382Y-89028499D01*
X104900785Y-89025928D01*
X104900783Y-89025927D01*
X104806514Y-88997735D01*
X104780259Y-88989883D01*
X104771283Y-88989828D01*
X104771282Y-88989828D01*
X104713847Y-88989477D01*
X104645489Y-88989060D01*
X104636858Y-88991527D01*
X104636856Y-88991527D01*
X104524536Y-89023628D01*
X104524534Y-89023629D01*
X104515905Y-89026095D01*
X104453617Y-89065396D01*
X104419989Y-89086614D01*
X104401924Y-89098012D01*
X104395981Y-89104741D01*
X104395980Y-89104742D01*
X104355888Y-89150138D01*
X104312709Y-89199029D01*
X104308895Y-89207152D01*
X104308894Y-89207154D01*
X104299658Y-89226826D01*
X104255432Y-89321025D01*
X104254052Y-89329890D01*
X104254051Y-89329892D01*
X104238565Y-89429353D01*
X104234697Y-89454193D01*
X102119458Y-89454193D01*
X102071405Y-89406140D01*
X102037380Y-89343827D01*
X102034500Y-89317044D01*
X102034500Y-88925000D01*
X107424258Y-88925000D01*
X107445095Y-89056562D01*
X107449596Y-89065395D01*
X107449596Y-89065396D01*
X107458631Y-89083128D01*
X107505567Y-89175245D01*
X107599755Y-89269433D01*
X107617721Y-89278587D01*
X107704343Y-89322723D01*
X107718438Y-89329905D01*
X107850000Y-89350742D01*
X107981562Y-89329905D01*
X107995658Y-89322723D01*
X108082279Y-89278587D01*
X108100245Y-89269433D01*
X108194433Y-89175245D01*
X108241369Y-89083128D01*
X108250404Y-89065396D01*
X108250404Y-89065395D01*
X108254905Y-89056562D01*
X108275742Y-88925000D01*
X108273328Y-88909755D01*
X108256456Y-88803231D01*
X108254905Y-88793438D01*
X108194433Y-88674755D01*
X108100245Y-88580567D01*
X108000662Y-88529827D01*
X107990396Y-88524596D01*
X107990395Y-88524596D01*
X107981562Y-88520095D01*
X107850000Y-88499258D01*
X107718438Y-88520095D01*
X107709605Y-88524596D01*
X107709604Y-88524596D01*
X107699338Y-88529827D01*
X107599755Y-88580567D01*
X107505567Y-88674755D01*
X107445095Y-88793438D01*
X107443544Y-88803231D01*
X107426673Y-88909755D01*
X107424258Y-88925000D01*
X102034500Y-88925000D01*
X102034500Y-87257983D01*
X102054502Y-87189862D01*
X102108158Y-87143369D01*
X102178432Y-87133265D01*
X102243012Y-87162759D01*
X102254136Y-87173673D01*
X102297277Y-87221586D01*
X102297281Y-87221589D01*
X102301696Y-87226493D01*
X102307035Y-87230372D01*
X102442178Y-87328559D01*
X102448374Y-87333061D01*
X102454402Y-87335745D01*
X102454404Y-87335746D01*
X102595547Y-87398587D01*
X102614005Y-87406805D01*
X102684406Y-87421769D01*
X102784891Y-87443128D01*
X102784895Y-87443128D01*
X102791348Y-87444500D01*
X102972652Y-87444500D01*
X102979105Y-87443128D01*
X102979109Y-87443128D01*
X103079594Y-87421769D01*
X103149995Y-87406805D01*
X103168453Y-87398587D01*
X103309596Y-87335746D01*
X103309598Y-87335745D01*
X103315626Y-87333061D01*
X103321823Y-87328559D01*
X103456965Y-87230372D01*
X103462304Y-87226493D01*
X103466723Y-87221586D01*
X103579202Y-87096665D01*
X103579203Y-87096664D01*
X103583621Y-87091757D01*
X103629335Y-87012578D01*
X103670969Y-86940466D01*
X103670970Y-86940465D01*
X103674273Y-86934743D01*
X103730299Y-86762312D01*
X103740732Y-86663056D01*
X103748561Y-86588565D01*
X103749251Y-86582000D01*
X103745695Y-86548168D01*
X103730989Y-86408252D01*
X103730989Y-86408251D01*
X103730299Y-86401688D01*
X103674273Y-86229257D01*
X103667376Y-86217310D01*
X103586924Y-86077964D01*
X103583621Y-86072243D01*
X103569308Y-86056347D01*
X103466719Y-85942410D01*
X103466717Y-85942409D01*
X103462304Y-85937507D01*
X103368888Y-85869636D01*
X103320968Y-85834820D01*
X103320967Y-85834819D01*
X103315626Y-85830939D01*
X103309598Y-85828255D01*
X103309596Y-85828254D01*
X103156026Y-85759880D01*
X103156024Y-85759879D01*
X103149995Y-85757195D01*
X103043712Y-85734604D01*
X102979109Y-85720872D01*
X102979105Y-85720872D01*
X102972652Y-85719500D01*
X102791348Y-85719500D01*
X102784895Y-85720872D01*
X102784891Y-85720872D01*
X102720288Y-85734604D01*
X102614005Y-85757195D01*
X102607976Y-85759879D01*
X102607974Y-85759880D01*
X102454405Y-85828254D01*
X102454403Y-85828255D01*
X102448375Y-85830939D01*
X102443034Y-85834819D01*
X102443033Y-85834820D01*
X102314199Y-85928423D01*
X102301696Y-85937507D01*
X102297281Y-85942410D01*
X102297277Y-85942414D01*
X102254136Y-85990327D01*
X102193690Y-86027567D01*
X102122707Y-86026215D01*
X102063722Y-85986702D01*
X102035464Y-85921571D01*
X102034500Y-85906017D01*
X102034500Y-85400000D01*
X104024258Y-85400000D01*
X104045095Y-85531562D01*
X104049596Y-85540395D01*
X104049596Y-85540396D01*
X104062384Y-85565493D01*
X104105567Y-85650245D01*
X104199755Y-85744433D01*
X104237176Y-85763500D01*
X104297886Y-85794433D01*
X104318438Y-85804905D01*
X104450000Y-85825742D01*
X104581562Y-85804905D01*
X104602115Y-85794433D01*
X104662824Y-85763500D01*
X104700245Y-85744433D01*
X104794433Y-85650245D01*
X104837616Y-85565493D01*
X104850404Y-85540396D01*
X104850404Y-85540395D01*
X104854905Y-85531562D01*
X104875742Y-85400000D01*
X104854905Y-85268438D01*
X104845276Y-85249539D01*
X104814814Y-85189755D01*
X104794433Y-85149755D01*
X104700245Y-85055567D01*
X104581562Y-84995095D01*
X104474656Y-84978163D01*
X104459793Y-84975809D01*
X104450000Y-84974258D01*
X104440207Y-84975809D01*
X104425344Y-84978163D01*
X104318438Y-84995095D01*
X104199755Y-85055567D01*
X104105567Y-85149755D01*
X104085186Y-85189755D01*
X104054725Y-85249539D01*
X104045095Y-85268438D01*
X104024258Y-85400000D01*
X102034500Y-85400000D01*
X102034500Y-84717983D01*
X102054502Y-84649862D01*
X102108158Y-84603369D01*
X102178432Y-84593265D01*
X102243012Y-84622759D01*
X102254136Y-84633673D01*
X102297277Y-84681586D01*
X102297281Y-84681589D01*
X102301696Y-84686493D01*
X102307035Y-84690372D01*
X102436499Y-84784433D01*
X102448374Y-84793061D01*
X102454402Y-84795745D01*
X102454404Y-84795746D01*
X102595138Y-84858405D01*
X102614005Y-84866805D01*
X102702677Y-84885653D01*
X102784891Y-84903128D01*
X102784895Y-84903128D01*
X102791348Y-84904500D01*
X102972652Y-84904500D01*
X102979105Y-84903128D01*
X102979109Y-84903128D01*
X103061323Y-84885653D01*
X103149995Y-84866805D01*
X103168862Y-84858405D01*
X103309596Y-84795746D01*
X103309598Y-84795745D01*
X103315626Y-84793061D01*
X103327502Y-84784433D01*
X103456965Y-84690372D01*
X103462304Y-84686493D01*
X103466723Y-84681586D01*
X103579202Y-84556665D01*
X103579203Y-84556664D01*
X103583621Y-84551757D01*
X103630490Y-84470578D01*
X103670969Y-84400466D01*
X103670970Y-84400465D01*
X103674273Y-84394743D01*
X103701950Y-84309563D01*
X103742022Y-84250958D01*
X103807419Y-84223321D01*
X103821782Y-84222500D01*
X104495045Y-84222500D01*
X104563166Y-84242502D01*
X104584140Y-84259405D01*
X106014740Y-85690005D01*
X106029857Y-85708277D01*
X106030038Y-85708544D01*
X106030039Y-85708545D01*
X106038607Y-85721152D01*
X106070651Y-85738334D01*
X106076339Y-85741579D01*
X106107408Y-85760395D01*
X106112377Y-85760708D01*
X106116768Y-85763062D01*
X106120235Y-85763500D01*
X106152804Y-85763500D01*
X106160716Y-85763749D01*
X106195920Y-85765964D01*
X106195849Y-85767091D01*
X106201454Y-85767697D01*
X106201454Y-85763500D01*
X107157019Y-85763500D01*
X107225140Y-85783502D01*
X107246114Y-85800405D01*
X107663019Y-86217310D01*
X107697045Y-86279622D01*
X107698373Y-86326115D01*
X107695783Y-86342471D01*
X107681950Y-86429808D01*
X107702787Y-86561370D01*
X107707288Y-86570203D01*
X107707288Y-86570204D01*
X107734805Y-86624208D01*
X107763259Y-86680053D01*
X107857447Y-86774241D01*
X107895539Y-86793650D01*
X107953425Y-86823144D01*
X107976130Y-86834713D01*
X108041911Y-86845131D01*
X108074210Y-86850247D01*
X108107692Y-86855550D01*
X108141175Y-86850247D01*
X108173473Y-86845131D01*
X108239254Y-86834713D01*
X108261960Y-86823144D01*
X108319845Y-86793650D01*
X108357937Y-86774241D01*
X108452125Y-86680053D01*
X108484329Y-86616849D01*
X108533077Y-86565234D01*
X108601992Y-86548168D01*
X108669194Y-86571069D01*
X108685690Y-86584956D01*
X109111595Y-87010861D01*
X109145620Y-87073173D01*
X109148499Y-87099956D01*
X109148499Y-91308500D01*
X109128497Y-91376621D01*
X109074841Y-91423114D01*
X109022499Y-91434500D01*
X108956348Y-91434500D01*
X108949895Y-91435872D01*
X108949891Y-91435872D01*
X108867677Y-91453347D01*
X108779005Y-91472195D01*
X108772976Y-91474879D01*
X108772974Y-91474880D01*
X108619405Y-91543254D01*
X108619403Y-91543255D01*
X108613375Y-91545939D01*
X108608034Y-91549819D01*
X108608033Y-91549820D01*
X108566366Y-91580093D01*
X108466696Y-91652507D01*
X108462283Y-91657409D01*
X108462281Y-91657410D01*
X108352177Y-91779693D01*
X108345379Y-91787243D01*
X108342076Y-91792964D01*
X108269634Y-91918438D01*
X108254727Y-91944257D01*
X108198701Y-92116688D01*
X108198011Y-92123251D01*
X108198011Y-92123252D01*
X108183470Y-92261596D01*
X108179749Y-92297000D01*
X108180439Y-92303562D01*
X108180439Y-92303565D01*
X108194754Y-92439755D01*
X108198701Y-92477312D01*
X108200741Y-92483590D01*
X108200741Y-92483591D01*
X108217414Y-92534905D01*
X108254727Y-92649743D01*
X108258030Y-92655465D01*
X108258031Y-92655466D01*
X108277969Y-92690000D01*
X108345379Y-92806757D01*
X108349797Y-92811664D01*
X108349798Y-92811665D01*
X108462278Y-92936586D01*
X108466696Y-92941493D01*
X108472035Y-92945372D01*
X108594617Y-93034433D01*
X108613374Y-93048061D01*
X108619402Y-93050745D01*
X108619404Y-93050746D01*
X108765387Y-93115742D01*
X108779005Y-93121805D01*
X108852478Y-93137422D01*
X108949891Y-93158128D01*
X108949895Y-93158128D01*
X108956348Y-93159500D01*
X109137652Y-93159500D01*
X109144105Y-93158128D01*
X109144109Y-93158128D01*
X109280613Y-93129113D01*
X109292648Y-93126555D01*
X109363438Y-93131957D01*
X109420071Y-93174774D01*
X109444564Y-93241412D01*
X109431111Y-93307005D01*
X109415095Y-93338438D01*
X109394258Y-93470000D01*
X109415095Y-93601562D01*
X109475567Y-93720245D01*
X109569755Y-93814433D01*
X109688438Y-93874905D01*
X109820000Y-93895742D01*
X109951562Y-93874905D01*
X110070245Y-93814433D01*
X110164433Y-93720245D01*
X110224905Y-93601562D01*
X110245742Y-93470000D01*
X110224905Y-93338438D01*
X110164433Y-93219755D01*
X110070245Y-93125567D01*
X109951562Y-93065095D01*
X109820000Y-93044258D01*
X109814216Y-93045174D01*
X109748257Y-93025807D01*
X109701764Y-92972151D01*
X109691660Y-92901877D01*
X109722743Y-92835498D01*
X109744198Y-92811670D01*
X109744202Y-92811665D01*
X109748621Y-92806757D01*
X109816031Y-92690000D01*
X109835969Y-92655466D01*
X109835970Y-92655465D01*
X109839273Y-92649743D01*
X109876586Y-92534905D01*
X109893259Y-92483591D01*
X109893259Y-92483590D01*
X109895299Y-92477312D01*
X109899247Y-92439755D01*
X109913561Y-92303565D01*
X109913561Y-92303562D01*
X109914251Y-92297000D01*
X109910530Y-92261596D01*
X109895989Y-92123252D01*
X109895989Y-92123251D01*
X109895299Y-92116688D01*
X109839273Y-91944257D01*
X109824367Y-91918438D01*
X109751924Y-91792964D01*
X109748621Y-91787243D01*
X109741823Y-91779693D01*
X109631719Y-91657410D01*
X109631717Y-91657409D01*
X109627304Y-91652507D01*
X109621965Y-91648628D01*
X109621961Y-91648624D01*
X109561439Y-91604653D01*
X109518084Y-91548431D01*
X109509499Y-91502717D01*
X109509499Y-89732042D01*
X109529501Y-89663921D01*
X109583157Y-89617428D01*
X109653431Y-89607324D01*
X109718011Y-89636818D01*
X109724594Y-89642947D01*
X111351861Y-91270214D01*
X111385887Y-91332526D01*
X111380822Y-91403341D01*
X111338275Y-91460177D01*
X111314016Y-91474415D01*
X111189468Y-91529869D01*
X111153375Y-91545939D01*
X111148034Y-91549819D01*
X111148033Y-91549820D01*
X111106366Y-91580093D01*
X111006696Y-91652507D01*
X111002283Y-91657409D01*
X111002281Y-91657410D01*
X110892177Y-91779693D01*
X110885379Y-91787243D01*
X110882076Y-91792964D01*
X110809634Y-91918438D01*
X110794727Y-91944257D01*
X110738701Y-92116688D01*
X110738011Y-92123251D01*
X110738011Y-92123252D01*
X110723470Y-92261596D01*
X110719749Y-92297000D01*
X110720439Y-92303562D01*
X110720439Y-92303565D01*
X110734754Y-92439755D01*
X110738701Y-92477312D01*
X110740741Y-92483590D01*
X110740741Y-92483591D01*
X110757414Y-92534905D01*
X110794727Y-92649743D01*
X110798030Y-92655465D01*
X110798031Y-92655466D01*
X110817969Y-92690000D01*
X110885379Y-92806757D01*
X110889797Y-92811664D01*
X110889798Y-92811665D01*
X111002278Y-92936586D01*
X111006696Y-92941493D01*
X111012035Y-92945372D01*
X111134617Y-93034433D01*
X111153374Y-93048061D01*
X111159402Y-93050745D01*
X111159404Y-93050746D01*
X111305387Y-93115742D01*
X111319005Y-93121805D01*
X111392478Y-93137422D01*
X111489891Y-93158128D01*
X111489895Y-93158128D01*
X111496348Y-93159500D01*
X111677652Y-93159500D01*
X111684105Y-93158128D01*
X111684109Y-93158128D01*
X111781522Y-93137422D01*
X111854995Y-93121805D01*
X111868613Y-93115742D01*
X112014596Y-93050746D01*
X112014598Y-93050745D01*
X112020626Y-93048061D01*
X112039384Y-93034433D01*
X112161965Y-92945372D01*
X112167304Y-92941493D01*
X112171723Y-92936586D01*
X112284202Y-92811665D01*
X112284203Y-92811664D01*
X112288621Y-92806757D01*
X112356031Y-92690000D01*
X112375969Y-92655466D01*
X112375970Y-92655465D01*
X112379273Y-92649743D01*
X112414377Y-92541702D01*
X112454450Y-92483097D01*
X112519847Y-92455460D01*
X112589804Y-92467567D01*
X112597576Y-92472254D01*
X112599755Y-92474433D01*
X112608586Y-92478933D01*
X112608588Y-92478934D01*
X112696545Y-92523750D01*
X112718438Y-92534905D01*
X112850000Y-92555742D01*
X112981562Y-92534905D01*
X113003455Y-92523750D01*
X113098065Y-92475544D01*
X113167842Y-92462440D01*
X113233627Y-92489140D01*
X113275101Y-92548875D01*
X113311122Y-92659736D01*
X113314425Y-92665458D01*
X113314426Y-92665459D01*
X113357462Y-92740000D01*
X113401774Y-92816750D01*
X113406192Y-92821657D01*
X113406193Y-92821658D01*
X113513106Y-92940396D01*
X113523091Y-92951486D01*
X113528430Y-92955365D01*
X113646865Y-93041413D01*
X113669769Y-93058054D01*
X113675797Y-93060738D01*
X113675799Y-93060739D01*
X113812955Y-93121805D01*
X113835400Y-93131798D01*
X113916015Y-93148933D01*
X114006286Y-93168121D01*
X114006290Y-93168121D01*
X114012743Y-93169493D01*
X114194047Y-93169493D01*
X114200500Y-93168121D01*
X114200504Y-93168121D01*
X114290775Y-93148933D01*
X114371390Y-93131798D01*
X114393835Y-93121805D01*
X114530991Y-93060739D01*
X114530993Y-93060738D01*
X114537021Y-93058054D01*
X114559926Y-93041413D01*
X114678360Y-92955365D01*
X114683699Y-92951486D01*
X114693685Y-92940396D01*
X114800597Y-92821658D01*
X114800598Y-92821657D01*
X114805016Y-92816750D01*
X114849328Y-92740000D01*
X114892364Y-92665459D01*
X114892365Y-92665458D01*
X114895668Y-92659736D01*
X114950185Y-92491949D01*
X114990258Y-92433343D01*
X115055655Y-92405706D01*
X115127221Y-92418618D01*
X115198438Y-92454905D01*
X115208231Y-92456456D01*
X115298469Y-92470748D01*
X115330000Y-92475742D01*
X115361532Y-92470748D01*
X115451769Y-92456456D01*
X115461562Y-92454905D01*
X115580245Y-92394433D01*
X115601347Y-92373331D01*
X115663659Y-92339305D01*
X115734474Y-92344370D01*
X115791310Y-92386917D01*
X115815752Y-92449255D01*
X115818701Y-92477312D01*
X115820741Y-92483590D01*
X115820741Y-92483591D01*
X115837414Y-92534905D01*
X115874727Y-92649743D01*
X115878030Y-92655465D01*
X115878031Y-92655466D01*
X115897969Y-92690000D01*
X115965379Y-92806757D01*
X115969797Y-92811664D01*
X115969798Y-92811665D01*
X116082278Y-92936586D01*
X116086696Y-92941493D01*
X116092035Y-92945372D01*
X116214617Y-93034433D01*
X116233374Y-93048061D01*
X116239402Y-93050745D01*
X116239404Y-93050746D01*
X116385387Y-93115742D01*
X116399005Y-93121805D01*
X116472478Y-93137422D01*
X116569891Y-93158128D01*
X116569895Y-93158128D01*
X116576348Y-93159500D01*
X116757652Y-93159500D01*
X116764105Y-93158128D01*
X116764109Y-93158128D01*
X116861522Y-93137422D01*
X116934995Y-93121805D01*
X116948613Y-93115742D01*
X117094596Y-93050746D01*
X117094598Y-93050745D01*
X117100626Y-93048061D01*
X117119384Y-93034433D01*
X117241965Y-92945372D01*
X117247304Y-92941493D01*
X117251723Y-92936586D01*
X117364202Y-92811665D01*
X117364203Y-92811664D01*
X117368621Y-92806757D01*
X117436031Y-92690000D01*
X117455969Y-92655466D01*
X117455970Y-92655465D01*
X117459273Y-92649743D01*
X117496586Y-92534905D01*
X117511913Y-92487734D01*
X117551986Y-92429128D01*
X117617383Y-92401491D01*
X117688948Y-92414403D01*
X117768438Y-92454905D01*
X117778231Y-92456456D01*
X117868469Y-92470748D01*
X117900000Y-92475742D01*
X117931532Y-92470748D01*
X118021769Y-92456456D01*
X118031562Y-92454905D01*
X118150245Y-92394433D01*
X118157260Y-92387418D01*
X118159070Y-92386103D01*
X118225938Y-92362243D01*
X118295089Y-92378321D01*
X118344571Y-92429234D01*
X118355311Y-92464566D01*
X118356637Y-92464284D01*
X118358010Y-92470741D01*
X118358701Y-92477312D01*
X118360741Y-92483590D01*
X118360741Y-92483591D01*
X118377414Y-92534905D01*
X118414727Y-92649743D01*
X118418030Y-92655465D01*
X118418031Y-92655466D01*
X118437969Y-92690000D01*
X118505379Y-92806757D01*
X118509797Y-92811664D01*
X118509798Y-92811665D01*
X118622278Y-92936586D01*
X118626696Y-92941493D01*
X118632035Y-92945372D01*
X118754617Y-93034433D01*
X118773374Y-93048061D01*
X118779402Y-93050745D01*
X118779404Y-93050746D01*
X118925387Y-93115742D01*
X118939005Y-93121805D01*
X119012478Y-93137422D01*
X119109891Y-93158128D01*
X119109895Y-93158128D01*
X119116348Y-93159500D01*
X119297652Y-93159500D01*
X119304105Y-93158128D01*
X119304109Y-93158128D01*
X119401522Y-93137422D01*
X119474995Y-93121805D01*
X119488613Y-93115742D01*
X119634596Y-93050746D01*
X119634598Y-93050745D01*
X119640626Y-93048061D01*
X119659384Y-93034433D01*
X119781965Y-92945372D01*
X119787304Y-92941493D01*
X119791723Y-92936586D01*
X119904202Y-92811665D01*
X119904203Y-92811664D01*
X119908621Y-92806757D01*
X119976031Y-92690000D01*
X119995969Y-92655466D01*
X119995970Y-92655465D01*
X119999273Y-92649743D01*
X120047652Y-92500848D01*
X120087724Y-92442243D01*
X120153121Y-92414606D01*
X120224686Y-92427518D01*
X120269601Y-92450403D01*
X120269605Y-92450404D01*
X120278438Y-92454905D01*
X120288231Y-92456456D01*
X120378469Y-92470748D01*
X120410000Y-92475742D01*
X120441532Y-92470748D01*
X120531769Y-92456456D01*
X120541562Y-92454905D01*
X120660245Y-92394433D01*
X120681347Y-92373331D01*
X120743659Y-92339305D01*
X120814474Y-92344370D01*
X120871310Y-92386917D01*
X120895752Y-92449255D01*
X120898701Y-92477312D01*
X120900741Y-92483590D01*
X120900741Y-92483591D01*
X120917414Y-92534905D01*
X120954727Y-92649743D01*
X120958030Y-92655465D01*
X120958031Y-92655466D01*
X120977969Y-92690000D01*
X121045379Y-92806757D01*
X121049797Y-92811664D01*
X121049798Y-92811665D01*
X121162278Y-92936586D01*
X121166696Y-92941493D01*
X121172035Y-92945372D01*
X121294617Y-93034433D01*
X121313374Y-93048061D01*
X121319402Y-93050745D01*
X121319404Y-93050746D01*
X121465387Y-93115742D01*
X121479005Y-93121805D01*
X121552478Y-93137422D01*
X121649891Y-93158128D01*
X121649895Y-93158128D01*
X121656348Y-93159500D01*
X121837652Y-93159500D01*
X121844105Y-93158128D01*
X121844109Y-93158128D01*
X121941522Y-93137422D01*
X122014995Y-93121805D01*
X122028613Y-93115742D01*
X122174596Y-93050746D01*
X122174598Y-93050745D01*
X122180626Y-93048061D01*
X122199384Y-93034433D01*
X122321965Y-92945372D01*
X122327304Y-92941493D01*
X122331723Y-92936586D01*
X122444202Y-92811665D01*
X122444203Y-92811664D01*
X122448621Y-92806757D01*
X122516031Y-92690000D01*
X122535969Y-92655466D01*
X122535970Y-92655465D01*
X122539273Y-92649743D01*
X122576586Y-92534905D01*
X122593259Y-92483591D01*
X122593259Y-92483590D01*
X122595299Y-92477312D01*
X122595990Y-92470741D01*
X122596532Y-92465590D01*
X122623548Y-92399935D01*
X122681771Y-92359307D01*
X122752716Y-92356607D01*
X122799512Y-92383183D01*
X122800666Y-92381594D01*
X122808686Y-92387421D01*
X122815698Y-92394433D01*
X122934381Y-92454905D01*
X122944174Y-92456456D01*
X123034412Y-92470748D01*
X123065943Y-92475742D01*
X123097475Y-92470748D01*
X123187712Y-92456456D01*
X123197505Y-92454905D01*
X123263098Y-92421484D01*
X123266748Y-92419624D01*
X123336525Y-92406520D01*
X123402310Y-92433220D01*
X123443783Y-92492954D01*
X123494727Y-92649743D01*
X123498030Y-92655465D01*
X123498031Y-92655466D01*
X123517969Y-92690000D01*
X123585379Y-92806757D01*
X123589797Y-92811664D01*
X123589798Y-92811665D01*
X123702278Y-92936586D01*
X123706696Y-92941493D01*
X123712035Y-92945372D01*
X123834617Y-93034433D01*
X123853374Y-93048061D01*
X123859402Y-93050745D01*
X123859404Y-93050746D01*
X124005387Y-93115742D01*
X124019005Y-93121805D01*
X124092478Y-93137422D01*
X124189891Y-93158128D01*
X124189895Y-93158128D01*
X124196348Y-93159500D01*
X124377652Y-93159500D01*
X124384105Y-93158128D01*
X124384109Y-93158128D01*
X124481522Y-93137422D01*
X124554995Y-93121805D01*
X124568613Y-93115742D01*
X124714596Y-93050746D01*
X124714598Y-93050745D01*
X124720626Y-93048061D01*
X124739384Y-93034433D01*
X124861965Y-92945372D01*
X124867304Y-92941493D01*
X124871723Y-92936586D01*
X124984202Y-92811665D01*
X124984203Y-92811664D01*
X124988621Y-92806757D01*
X125056031Y-92690000D01*
X125075969Y-92655466D01*
X125075970Y-92655465D01*
X125079273Y-92649743D01*
X125127652Y-92500848D01*
X125167724Y-92442243D01*
X125233121Y-92414606D01*
X125304686Y-92427518D01*
X125349601Y-92450403D01*
X125349605Y-92450404D01*
X125358438Y-92454905D01*
X125368231Y-92456456D01*
X125458469Y-92470748D01*
X125490000Y-92475742D01*
X125521532Y-92470748D01*
X125611769Y-92456456D01*
X125621562Y-92454905D01*
X125740245Y-92394433D01*
X125761347Y-92373331D01*
X125823659Y-92339305D01*
X125894474Y-92344370D01*
X125951310Y-92386917D01*
X125975752Y-92449255D01*
X125978701Y-92477312D01*
X125980741Y-92483590D01*
X125980741Y-92483591D01*
X125997414Y-92534905D01*
X126034727Y-92649743D01*
X126038030Y-92655465D01*
X126038031Y-92655466D01*
X126057969Y-92690000D01*
X126125379Y-92806757D01*
X126129797Y-92811664D01*
X126129798Y-92811665D01*
X126242278Y-92936586D01*
X126246696Y-92941493D01*
X126252035Y-92945372D01*
X126374617Y-93034433D01*
X126393374Y-93048061D01*
X126399402Y-93050745D01*
X126399404Y-93050746D01*
X126545387Y-93115742D01*
X126559005Y-93121805D01*
X126632478Y-93137422D01*
X126729891Y-93158128D01*
X126729895Y-93158128D01*
X126736348Y-93159500D01*
X126917652Y-93159500D01*
X126924105Y-93158128D01*
X126924109Y-93158128D01*
X127021522Y-93137422D01*
X127094995Y-93121805D01*
X127108613Y-93115742D01*
X127254596Y-93050746D01*
X127254598Y-93050745D01*
X127260626Y-93048061D01*
X127279384Y-93034433D01*
X127401965Y-92945372D01*
X127407304Y-92941493D01*
X127411723Y-92936586D01*
X127524202Y-92811665D01*
X127524203Y-92811664D01*
X127528621Y-92806757D01*
X127596031Y-92690000D01*
X127615969Y-92655466D01*
X127615970Y-92655465D01*
X127619273Y-92649743D01*
X127667652Y-92500848D01*
X127707724Y-92442243D01*
X127773121Y-92414606D01*
X127844686Y-92427518D01*
X127889601Y-92450403D01*
X127889605Y-92450404D01*
X127898438Y-92454905D01*
X127908231Y-92456456D01*
X127998469Y-92470748D01*
X128030000Y-92475742D01*
X128061532Y-92470748D01*
X128151769Y-92456456D01*
X128161562Y-92454905D01*
X128280245Y-92394433D01*
X128301347Y-92373331D01*
X128363659Y-92339305D01*
X128434474Y-92344370D01*
X128491310Y-92386917D01*
X128515752Y-92449255D01*
X128518701Y-92477312D01*
X128520741Y-92483590D01*
X128520741Y-92483591D01*
X128537414Y-92534905D01*
X128574727Y-92649743D01*
X128578030Y-92655465D01*
X128578031Y-92655466D01*
X128597969Y-92690000D01*
X128665379Y-92806757D01*
X128669797Y-92811664D01*
X128669798Y-92811665D01*
X128782278Y-92936586D01*
X128786696Y-92941493D01*
X128792035Y-92945372D01*
X128914617Y-93034433D01*
X128933374Y-93048061D01*
X128939402Y-93050745D01*
X128939404Y-93050746D01*
X129085387Y-93115742D01*
X129099005Y-93121805D01*
X129172478Y-93137422D01*
X129269891Y-93158128D01*
X129269895Y-93158128D01*
X129276348Y-93159500D01*
X129457652Y-93159500D01*
X129464105Y-93158128D01*
X129464109Y-93158128D01*
X129561522Y-93137422D01*
X129634995Y-93121805D01*
X129648613Y-93115742D01*
X129794596Y-93050746D01*
X129794598Y-93050745D01*
X129800626Y-93048061D01*
X129819384Y-93034433D01*
X129941965Y-92945372D01*
X129947304Y-92941493D01*
X129951723Y-92936586D01*
X130064202Y-92811665D01*
X130064203Y-92811664D01*
X130068621Y-92806757D01*
X130136031Y-92690000D01*
X130155969Y-92655466D01*
X130155970Y-92655465D01*
X130159273Y-92649743D01*
X130196586Y-92534905D01*
X130204811Y-92509592D01*
X130244885Y-92450986D01*
X130310281Y-92423349D01*
X130381847Y-92436261D01*
X130418438Y-92454905D01*
X130428231Y-92456456D01*
X130518469Y-92470748D01*
X130550000Y-92475742D01*
X130581532Y-92470748D01*
X130671769Y-92456456D01*
X130681562Y-92454905D01*
X130800245Y-92394433D01*
X130839445Y-92355233D01*
X130901757Y-92321207D01*
X130972572Y-92326272D01*
X131029408Y-92368819D01*
X131053850Y-92431158D01*
X131058701Y-92477312D01*
X131060741Y-92483590D01*
X131060741Y-92483591D01*
X131077414Y-92534905D01*
X131114727Y-92649743D01*
X131118030Y-92655465D01*
X131118031Y-92655466D01*
X131137969Y-92690000D01*
X131205379Y-92806757D01*
X131209797Y-92811664D01*
X131209798Y-92811665D01*
X131322278Y-92936586D01*
X131326696Y-92941493D01*
X131332035Y-92945372D01*
X131454617Y-93034433D01*
X131473374Y-93048061D01*
X131479402Y-93050745D01*
X131479404Y-93050746D01*
X131625387Y-93115742D01*
X131639005Y-93121805D01*
X131712478Y-93137422D01*
X131809891Y-93158128D01*
X131809895Y-93158128D01*
X131816348Y-93159500D01*
X131997652Y-93159500D01*
X132004105Y-93158128D01*
X132004109Y-93158128D01*
X132101522Y-93137422D01*
X132174995Y-93121805D01*
X132188613Y-93115742D01*
X132334596Y-93050746D01*
X132334598Y-93050745D01*
X132340626Y-93048061D01*
X132359384Y-93034433D01*
X132481965Y-92945372D01*
X132487304Y-92941493D01*
X132491723Y-92936586D01*
X132604202Y-92811665D01*
X132604203Y-92811664D01*
X132608621Y-92806757D01*
X132676031Y-92690000D01*
X132695969Y-92655466D01*
X132695970Y-92655465D01*
X132699273Y-92649743D01*
X132736586Y-92534905D01*
X132753259Y-92483591D01*
X132753259Y-92483590D01*
X132755299Y-92477312D01*
X132758985Y-92442243D01*
X132767728Y-92359062D01*
X132794742Y-92293405D01*
X132852963Y-92252776D01*
X132923908Y-92250073D01*
X132950238Y-92259965D01*
X133038438Y-92304905D01*
X133056679Y-92307794D01*
X133141367Y-92321207D01*
X133170000Y-92325742D01*
X133198634Y-92321207D01*
X133283321Y-92307794D01*
X133301562Y-92304905D01*
X133310395Y-92300404D01*
X133310399Y-92300403D01*
X133403049Y-92253196D01*
X133472826Y-92240092D01*
X133538610Y-92266793D01*
X133579516Y-92324820D01*
X133585560Y-92352290D01*
X133598701Y-92477312D01*
X133600741Y-92483590D01*
X133600741Y-92483591D01*
X133617414Y-92534905D01*
X133654727Y-92649743D01*
X133658030Y-92655465D01*
X133658031Y-92655466D01*
X133677969Y-92690000D01*
X133745379Y-92806757D01*
X133749797Y-92811664D01*
X133749798Y-92811665D01*
X133862278Y-92936586D01*
X133866696Y-92941493D01*
X133872035Y-92945372D01*
X133994617Y-93034433D01*
X134013374Y-93048061D01*
X134019402Y-93050745D01*
X134019404Y-93050746D01*
X134165387Y-93115742D01*
X134179005Y-93121805D01*
X134252478Y-93137422D01*
X134349891Y-93158128D01*
X134349895Y-93158128D01*
X134356348Y-93159500D01*
X134537652Y-93159500D01*
X134544105Y-93158128D01*
X134544109Y-93158128D01*
X134641522Y-93137422D01*
X134714995Y-93121805D01*
X134728613Y-93115742D01*
X134874596Y-93050746D01*
X134874598Y-93050745D01*
X134880626Y-93048061D01*
X134899384Y-93034433D01*
X135021965Y-92945372D01*
X135027304Y-92941493D01*
X135031723Y-92936586D01*
X135144202Y-92811665D01*
X135144203Y-92811664D01*
X135148621Y-92806757D01*
X135216031Y-92690000D01*
X135235969Y-92655466D01*
X135235970Y-92655465D01*
X135239273Y-92649743D01*
X135276586Y-92534905D01*
X135293259Y-92483591D01*
X135293259Y-92483590D01*
X135295299Y-92477312D01*
X135298685Y-92445095D01*
X135307220Y-92363899D01*
X135334234Y-92298242D01*
X135392456Y-92257613D01*
X135463401Y-92254910D01*
X135489733Y-92264803D01*
X135555361Y-92298242D01*
X135568438Y-92304905D01*
X135586679Y-92307794D01*
X135671367Y-92321207D01*
X135700000Y-92325742D01*
X135728634Y-92321207D01*
X135813321Y-92307794D01*
X135831562Y-92304905D01*
X135942540Y-92248359D01*
X136012316Y-92235255D01*
X136078100Y-92261955D01*
X136119007Y-92319982D01*
X136125052Y-92347455D01*
X136135015Y-92442243D01*
X136138701Y-92477312D01*
X136140741Y-92483590D01*
X136140741Y-92483591D01*
X136157414Y-92534905D01*
X136194727Y-92649743D01*
X136198030Y-92655465D01*
X136198031Y-92655466D01*
X136217969Y-92690000D01*
X136285379Y-92806757D01*
X136289797Y-92811664D01*
X136289798Y-92811665D01*
X136402278Y-92936586D01*
X136406696Y-92941493D01*
X136412035Y-92945372D01*
X136534617Y-93034433D01*
X136553374Y-93048061D01*
X136559402Y-93050745D01*
X136559404Y-93050746D01*
X136705387Y-93115742D01*
X136719005Y-93121805D01*
X136792478Y-93137422D01*
X136889891Y-93158128D01*
X136889895Y-93158128D01*
X136896348Y-93159500D01*
X137077652Y-93159500D01*
X137084105Y-93158128D01*
X137084109Y-93158128D01*
X137181522Y-93137422D01*
X137254995Y-93121805D01*
X137268613Y-93115742D01*
X137414596Y-93050746D01*
X137414598Y-93050745D01*
X137420626Y-93048061D01*
X137439384Y-93034433D01*
X137561965Y-92945372D01*
X137567304Y-92941493D01*
X137571723Y-92936586D01*
X137684202Y-92811665D01*
X137684203Y-92811664D01*
X137688621Y-92806757D01*
X137756031Y-92690000D01*
X137775969Y-92655466D01*
X137775970Y-92655465D01*
X137779273Y-92649743D01*
X137816586Y-92534905D01*
X137833259Y-92483591D01*
X137833259Y-92483590D01*
X137835299Y-92477312D01*
X137838985Y-92442243D01*
X137849253Y-92344554D01*
X137876267Y-92278897D01*
X137934488Y-92238268D01*
X138005433Y-92235565D01*
X138031766Y-92245458D01*
X138135361Y-92298242D01*
X138148438Y-92304905D01*
X138166679Y-92307794D01*
X138251367Y-92321207D01*
X138280000Y-92325742D01*
X138308634Y-92321207D01*
X138393321Y-92307794D01*
X138411562Y-92304905D01*
X138420397Y-92300403D01*
X138420401Y-92300402D01*
X138484572Y-92267705D01*
X138554348Y-92254600D01*
X138620133Y-92281300D01*
X138661040Y-92339327D01*
X138667085Y-92366800D01*
X138675315Y-92445095D01*
X138678701Y-92477312D01*
X138680741Y-92483590D01*
X138680741Y-92483591D01*
X138697414Y-92534905D01*
X138734727Y-92649743D01*
X138738030Y-92655465D01*
X138738031Y-92655466D01*
X138757969Y-92690000D01*
X138825379Y-92806757D01*
X138829797Y-92811664D01*
X138829798Y-92811665D01*
X138942278Y-92936586D01*
X138946696Y-92941493D01*
X138952035Y-92945372D01*
X139074617Y-93034433D01*
X139093374Y-93048061D01*
X139099402Y-93050745D01*
X139099404Y-93050746D01*
X139245387Y-93115742D01*
X139259005Y-93121805D01*
X139332478Y-93137422D01*
X139429891Y-93158128D01*
X139429895Y-93158128D01*
X139436348Y-93159500D01*
X139617652Y-93159500D01*
X139624105Y-93158128D01*
X139624109Y-93158128D01*
X139721522Y-93137422D01*
X139794995Y-93121805D01*
X139808613Y-93115742D01*
X139954596Y-93050746D01*
X139954598Y-93050745D01*
X139960626Y-93048061D01*
X139979384Y-93034433D01*
X140101965Y-92945372D01*
X140107304Y-92941493D01*
X140111719Y-92936590D01*
X140146472Y-92897993D01*
X140206919Y-92860754D01*
X140277902Y-92862106D01*
X140336887Y-92901620D01*
X140352375Y-92925102D01*
X140381065Y-92981411D01*
X140381068Y-92981415D01*
X140385567Y-92990245D01*
X140479755Y-93084433D01*
X140598438Y-93144905D01*
X140730000Y-93165742D01*
X140861562Y-93144905D01*
X140980245Y-93084433D01*
X141074433Y-92990245D01*
X141134905Y-92871562D01*
X141137149Y-92857393D01*
X141139466Y-92852506D01*
X141139521Y-92852336D01*
X141139543Y-92852343D01*
X141167562Y-92793240D01*
X141227830Y-92755713D01*
X141298819Y-92756727D01*
X141357991Y-92795960D01*
X141362392Y-92801583D01*
X141365379Y-92806757D01*
X141369800Y-92811667D01*
X141482278Y-92936586D01*
X141486696Y-92941493D01*
X141492035Y-92945372D01*
X141614617Y-93034433D01*
X141633374Y-93048061D01*
X141639402Y-93050745D01*
X141639404Y-93050746D01*
X141785387Y-93115742D01*
X141799005Y-93121805D01*
X141872478Y-93137422D01*
X141969891Y-93158128D01*
X141969895Y-93158128D01*
X141976348Y-93159500D01*
X142157652Y-93159500D01*
X142164105Y-93158128D01*
X142164109Y-93158128D01*
X142261522Y-93137422D01*
X142334995Y-93121805D01*
X142348613Y-93115742D01*
X142494596Y-93050746D01*
X142494598Y-93050745D01*
X142500626Y-93048061D01*
X142519384Y-93034433D01*
X142641965Y-92945372D01*
X142647304Y-92941493D01*
X142745344Y-92832609D01*
X142805788Y-92795370D01*
X142876772Y-92796722D01*
X142935757Y-92836235D01*
X142955026Y-92871127D01*
X142955095Y-92871562D01*
X143015567Y-92990245D01*
X143109755Y-93084433D01*
X143228438Y-93144905D01*
X143360000Y-93165742D01*
X143491562Y-93144905D01*
X143610245Y-93084433D01*
X143704433Y-92990245D01*
X143753527Y-92893893D01*
X143802274Y-92842279D01*
X143871189Y-92825213D01*
X143938391Y-92848114D01*
X143959429Y-92866786D01*
X144022281Y-92936590D01*
X144026696Y-92941493D01*
X144032035Y-92945372D01*
X144154617Y-93034433D01*
X144173374Y-93048061D01*
X144179402Y-93050745D01*
X144179404Y-93050746D01*
X144325387Y-93115742D01*
X144339005Y-93121805D01*
X144412478Y-93137422D01*
X144509891Y-93158128D01*
X144509895Y-93158128D01*
X144516348Y-93159500D01*
X144697652Y-93159500D01*
X144704105Y-93158128D01*
X144704109Y-93158128D01*
X144801522Y-93137422D01*
X144874995Y-93121805D01*
X144888613Y-93115742D01*
X145034596Y-93050746D01*
X145034598Y-93050745D01*
X145040626Y-93048061D01*
X145059384Y-93034433D01*
X145181965Y-92945372D01*
X145187304Y-92941493D01*
X145191719Y-92936590D01*
X145304204Y-92811663D01*
X145304206Y-92811661D01*
X145308621Y-92806757D01*
X145309193Y-92805766D01*
X145363812Y-92763648D01*
X145434548Y-92757573D01*
X145497340Y-92790704D01*
X145532251Y-92852524D01*
X145533975Y-92861352D01*
X145537849Y-92885809D01*
X145545095Y-92931562D01*
X145549596Y-92940395D01*
X145549596Y-92940396D01*
X145562421Y-92965567D01*
X145605567Y-93050245D01*
X145699755Y-93144433D01*
X145708588Y-93148933D01*
X145708587Y-93148933D01*
X145797886Y-93194433D01*
X145818438Y-93204905D01*
X145950000Y-93225742D01*
X146081562Y-93204905D01*
X146102115Y-93194433D01*
X146191413Y-93148933D01*
X146191412Y-93148933D01*
X146200245Y-93144433D01*
X146294433Y-93050245D01*
X146337579Y-92965567D01*
X146350404Y-92940396D01*
X146350404Y-92940395D01*
X146354905Y-92931562D01*
X146373894Y-92811667D01*
X146374191Y-92809793D01*
X146375742Y-92800000D01*
X146354905Y-92668438D01*
X146348296Y-92655466D01*
X146298933Y-92558587D01*
X146294433Y-92549755D01*
X146200245Y-92455567D01*
X146129703Y-92419624D01*
X146090396Y-92399596D01*
X146090395Y-92399596D01*
X146081562Y-92395095D01*
X145950000Y-92374258D01*
X145818438Y-92395095D01*
X145809605Y-92399596D01*
X145809604Y-92399596D01*
X145770297Y-92419624D01*
X145699755Y-92455567D01*
X145680740Y-92474582D01*
X145618428Y-92508608D01*
X145547613Y-92503543D01*
X145490777Y-92460996D01*
X145465966Y-92394476D01*
X145466335Y-92372316D01*
X145473561Y-92303565D01*
X145473561Y-92303562D01*
X145474251Y-92297000D01*
X145470530Y-92261596D01*
X145455989Y-92123252D01*
X145455989Y-92123251D01*
X145455299Y-92116688D01*
X145399273Y-91944257D01*
X145384367Y-91918438D01*
X145311924Y-91792964D01*
X145308621Y-91787243D01*
X145301823Y-91779693D01*
X145191719Y-91657410D01*
X145191717Y-91657409D01*
X145187304Y-91652507D01*
X145081843Y-91575885D01*
X145045968Y-91549820D01*
X145045967Y-91549819D01*
X145040626Y-91545939D01*
X145034598Y-91543255D01*
X145034596Y-91543254D01*
X144881026Y-91474880D01*
X144881024Y-91474879D01*
X144874995Y-91472195D01*
X144786323Y-91453347D01*
X144704109Y-91435872D01*
X144704105Y-91435872D01*
X144697652Y-91434500D01*
X144516348Y-91434500D01*
X144509895Y-91435872D01*
X144509891Y-91435872D01*
X144427677Y-91453347D01*
X144339005Y-91472195D01*
X144332976Y-91474879D01*
X144332974Y-91474880D01*
X144179405Y-91543254D01*
X144179403Y-91543255D01*
X144173375Y-91545939D01*
X144168034Y-91549819D01*
X144168033Y-91549820D01*
X144126366Y-91580093D01*
X144026696Y-91652507D01*
X144022283Y-91657409D01*
X144022281Y-91657410D01*
X143912177Y-91779693D01*
X143905379Y-91787243D01*
X143902076Y-91792964D01*
X143829634Y-91918438D01*
X143814727Y-91944257D01*
X143758701Y-92116688D01*
X143758011Y-92123251D01*
X143758011Y-92123252D01*
X143742496Y-92270861D01*
X143715482Y-92336518D01*
X143657261Y-92377147D01*
X143586315Y-92379850D01*
X143559984Y-92369957D01*
X143500399Y-92339597D01*
X143500395Y-92339596D01*
X143491562Y-92335095D01*
X143360000Y-92314258D01*
X143228438Y-92335095D01*
X143219605Y-92339596D01*
X143219604Y-92339596D01*
X143116355Y-92392204D01*
X143046578Y-92405308D01*
X142980793Y-92378608D01*
X142939887Y-92320580D01*
X142933842Y-92293109D01*
X142931938Y-92274992D01*
X142922325Y-92183540D01*
X142935097Y-92113702D01*
X142958540Y-92081274D01*
X145294574Y-89745240D01*
X145351035Y-89714409D01*
X145350623Y-89712969D01*
X145350624Y-89712969D01*
X145378482Y-89705007D01*
X145395241Y-89701429D01*
X145404644Y-89700083D01*
X145415029Y-89698596D01*
X145415030Y-89698596D01*
X145423918Y-89697323D01*
X145432092Y-89693607D01*
X145432094Y-89693606D01*
X145446788Y-89686925D01*
X145464312Y-89680477D01*
X145479845Y-89676038D01*
X145479849Y-89676036D01*
X145488471Y-89673572D01*
X145512975Y-89658111D01*
X145528058Y-89649974D01*
X145546252Y-89641702D01*
X145546255Y-89641700D01*
X145554428Y-89637984D01*
X145573464Y-89621581D01*
X145588477Y-89610473D01*
X145598156Y-89604366D01*
X145609720Y-89597070D01*
X145615663Y-89590341D01*
X145615665Y-89590339D01*
X145628897Y-89575356D01*
X145641091Y-89563310D01*
X145656236Y-89550260D01*
X145663037Y-89544400D01*
X145676704Y-89523314D01*
X145687991Y-89508444D01*
X145698683Y-89496338D01*
X145698683Y-89496337D01*
X145704623Y-89489612D01*
X145716934Y-89463391D01*
X145725254Y-89448413D01*
X145736131Y-89431631D01*
X145736132Y-89431628D01*
X145741015Y-89424095D01*
X145748215Y-89400019D01*
X145754871Y-89382589D01*
X145765553Y-89359837D01*
X145770010Y-89331213D01*
X145773793Y-89314495D01*
X145779522Y-89295340D01*
X145779523Y-89295332D01*
X145782093Y-89286739D01*
X145782301Y-89252818D01*
X145782332Y-89252075D01*
X145782500Y-89250991D01*
X145782500Y-89220574D01*
X145782502Y-89219804D01*
X145782800Y-89171067D01*
X145782969Y-89143376D01*
X145782589Y-89142047D01*
X145782500Y-89140737D01*
X145782500Y-82561504D01*
X145802502Y-82493383D01*
X145819405Y-82472409D01*
X146791535Y-81500279D01*
X146853847Y-81466253D01*
X146890219Y-81464260D01*
X146891348Y-81464500D01*
X147072652Y-81464500D01*
X147079107Y-81463128D01*
X147079116Y-81463127D01*
X147102604Y-81458134D01*
X147173395Y-81463535D01*
X147230028Y-81506351D01*
X147254522Y-81572988D01*
X147241069Y-81638583D01*
X147185095Y-81748438D01*
X147164258Y-81880000D01*
X147185095Y-82011562D01*
X147189596Y-82020395D01*
X147189596Y-82020396D01*
X147231926Y-82103473D01*
X147245030Y-82173250D01*
X147218330Y-82239035D01*
X147160302Y-82279941D01*
X147093464Y-82283923D01*
X147079114Y-82280873D01*
X147079109Y-82280872D01*
X147072652Y-82279500D01*
X146891348Y-82279500D01*
X146884895Y-82280872D01*
X146884891Y-82280872D01*
X146823586Y-82293903D01*
X146714005Y-82317195D01*
X146707976Y-82319879D01*
X146707974Y-82319880D01*
X146554405Y-82388254D01*
X146554403Y-82388255D01*
X146548375Y-82390939D01*
X146543034Y-82394819D01*
X146543033Y-82394820D01*
X146446569Y-82464905D01*
X146401696Y-82497507D01*
X146397283Y-82502409D01*
X146397281Y-82502410D01*
X146291630Y-82619747D01*
X146280379Y-82632243D01*
X146277076Y-82637964D01*
X146221141Y-82734847D01*
X146189727Y-82789257D01*
X146173814Y-82838231D01*
X146137320Y-82950551D01*
X146133701Y-82961688D01*
X146133011Y-82968251D01*
X146133011Y-82968252D01*
X146120445Y-83087809D01*
X146114749Y-83142000D01*
X146115439Y-83148565D01*
X146118296Y-83175742D01*
X146133701Y-83322312D01*
X146135741Y-83328590D01*
X146135741Y-83328591D01*
X146147540Y-83364905D01*
X146189727Y-83494743D01*
X146193030Y-83500465D01*
X146193031Y-83500466D01*
X146230715Y-83565736D01*
X146280379Y-83651757D01*
X146284797Y-83656664D01*
X146284798Y-83656665D01*
X146386176Y-83769256D01*
X146401696Y-83786493D01*
X146407035Y-83790372D01*
X146529178Y-83879114D01*
X146548374Y-83893061D01*
X146554402Y-83895745D01*
X146554404Y-83895746D01*
X146675079Y-83949474D01*
X146714005Y-83966805D01*
X146788819Y-83982707D01*
X146884891Y-84003128D01*
X146884895Y-84003128D01*
X146891348Y-84004500D01*
X147072652Y-84004500D01*
X147079108Y-84003128D01*
X147079115Y-84003127D01*
X147085461Y-84001778D01*
X147156252Y-84007179D01*
X147212885Y-84049995D01*
X147237379Y-84116632D01*
X147223926Y-84182226D01*
X147189597Y-84249601D01*
X147189596Y-84249605D01*
X147185095Y-84258438D01*
X147164258Y-84390000D01*
X147185095Y-84521562D01*
X147189596Y-84530395D01*
X147189596Y-84530396D01*
X147245567Y-84640245D01*
X147244183Y-84640950D01*
X147264360Y-84697505D01*
X147248278Y-84766656D01*
X147197363Y-84816135D01*
X147127780Y-84830233D01*
X147112371Y-84827942D01*
X147098834Y-84825065D01*
X147079109Y-84820872D01*
X147079105Y-84820872D01*
X147072652Y-84819500D01*
X146891348Y-84819500D01*
X146884895Y-84820872D01*
X146884891Y-84820872D01*
X146826202Y-84833347D01*
X146714005Y-84857195D01*
X146707976Y-84859879D01*
X146707974Y-84859880D01*
X146554405Y-84928254D01*
X146554403Y-84928255D01*
X146548375Y-84930939D01*
X146543034Y-84934819D01*
X146543033Y-84934820D01*
X146407035Y-85033628D01*
X146401696Y-85037507D01*
X146397283Y-85042409D01*
X146397281Y-85042410D01*
X146291134Y-85160298D01*
X146280379Y-85172243D01*
X146277076Y-85177964D01*
X146219618Y-85277485D01*
X146189727Y-85329257D01*
X146167293Y-85398303D01*
X146141323Y-85478231D01*
X146133701Y-85501688D01*
X146133011Y-85508251D01*
X146133011Y-85508252D01*
X146119835Y-85633614D01*
X146114749Y-85682000D01*
X146115439Y-85688565D01*
X146132584Y-85851680D01*
X146133701Y-85862312D01*
X146135741Y-85868590D01*
X146135741Y-85868591D01*
X146154232Y-85925500D01*
X146189727Y-86034743D01*
X146193030Y-86040465D01*
X146193031Y-86040466D01*
X146213966Y-86076727D01*
X146280379Y-86191757D01*
X146284797Y-86196664D01*
X146284798Y-86196665D01*
X146378510Y-86300742D01*
X146401696Y-86326493D01*
X146407035Y-86330372D01*
X146539088Y-86426314D01*
X146548374Y-86433061D01*
X146554402Y-86435745D01*
X146554404Y-86435746D01*
X146704192Y-86502436D01*
X146714005Y-86506805D01*
X146794300Y-86523872D01*
X146884891Y-86543128D01*
X146884895Y-86543128D01*
X146891348Y-86544500D01*
X147072652Y-86544500D01*
X147111414Y-86536261D01*
X147136830Y-86530859D01*
X147207620Y-86536261D01*
X147264253Y-86579078D01*
X147288746Y-86645716D01*
X147273325Y-86715017D01*
X147255773Y-86738346D01*
X147252577Y-86742745D01*
X147245567Y-86749755D01*
X147241067Y-86758587D01*
X147205051Y-86829273D01*
X147185095Y-86868438D01*
X147164258Y-87000000D01*
X147165809Y-87009793D01*
X147168084Y-87024158D01*
X147185095Y-87131562D01*
X147189596Y-87140395D01*
X147189596Y-87140396D01*
X147209188Y-87178847D01*
X147222292Y-87248624D01*
X147195592Y-87314408D01*
X147137565Y-87355315D01*
X147083754Y-87361360D01*
X147079104Y-87360871D01*
X147072652Y-87359500D01*
X146891348Y-87359500D01*
X146884895Y-87360872D01*
X146884891Y-87360872D01*
X146802677Y-87378347D01*
X146714005Y-87397195D01*
X146707976Y-87399879D01*
X146707974Y-87399880D01*
X146554405Y-87468254D01*
X146554403Y-87468255D01*
X146548375Y-87470939D01*
X146543034Y-87474819D01*
X146543033Y-87474820D01*
X146429569Y-87557256D01*
X146401696Y-87577507D01*
X146397283Y-87582409D01*
X146397281Y-87582410D01*
X146306350Y-87683399D01*
X146280379Y-87712243D01*
X146277076Y-87717964D01*
X146196241Y-87857975D01*
X146189727Y-87869257D01*
X146178165Y-87904841D01*
X146137529Y-88029908D01*
X146133701Y-88041688D01*
X146133011Y-88048251D01*
X146133011Y-88048252D01*
X146119504Y-88176761D01*
X146114749Y-88222000D01*
X146115439Y-88228565D01*
X146132461Y-88390510D01*
X146133701Y-88402312D01*
X146135741Y-88408590D01*
X146135741Y-88408591D01*
X146144924Y-88436852D01*
X146189727Y-88574743D01*
X146193030Y-88580465D01*
X146193031Y-88580466D01*
X146247173Y-88674243D01*
X146280379Y-88731757D01*
X146284797Y-88736664D01*
X146284798Y-88736665D01*
X146388508Y-88851846D01*
X146401696Y-88866493D01*
X146407035Y-88870372D01*
X146477791Y-88921779D01*
X146548374Y-88973061D01*
X146554402Y-88975745D01*
X146554404Y-88975746D01*
X146707974Y-89044120D01*
X146714005Y-89046805D01*
X146801470Y-89065396D01*
X146884891Y-89083128D01*
X146884895Y-89083128D01*
X146891348Y-89084500D01*
X147072652Y-89084500D01*
X147079105Y-89083128D01*
X147079109Y-89083128D01*
X147162530Y-89065396D01*
X147249995Y-89046805D01*
X147256026Y-89044120D01*
X147409596Y-88975746D01*
X147409598Y-88975745D01*
X147415626Y-88973061D01*
X147486210Y-88921779D01*
X147556965Y-88870372D01*
X147562304Y-88866493D01*
X147575493Y-88851846D01*
X147679202Y-88736665D01*
X147679203Y-88736664D01*
X147683621Y-88731757D01*
X147716827Y-88674243D01*
X147770969Y-88580466D01*
X147770970Y-88580465D01*
X147774273Y-88574743D01*
X147819076Y-88436852D01*
X147828259Y-88408591D01*
X147828259Y-88408590D01*
X147830299Y-88402312D01*
X147831540Y-88390510D01*
X147848561Y-88228565D01*
X147849251Y-88222000D01*
X147844496Y-88176761D01*
X147830989Y-88048252D01*
X147830989Y-88048251D01*
X147830299Y-88041688D01*
X147826472Y-88029908D01*
X147785835Y-87904841D01*
X147774273Y-87869257D01*
X147767760Y-87857975D01*
X147686924Y-87717964D01*
X147683621Y-87712243D01*
X147657650Y-87683399D01*
X147601447Y-87620979D01*
X147570730Y-87556971D01*
X147579495Y-87486518D01*
X147624958Y-87431987D01*
X147675373Y-87412221D01*
X147709566Y-87406805D01*
X147711770Y-87406456D01*
X147711771Y-87406456D01*
X147721562Y-87404905D01*
X147739387Y-87395823D01*
X147810674Y-87359500D01*
X147840245Y-87344433D01*
X147915871Y-87268807D01*
X147978183Y-87234781D01*
X148048998Y-87239846D01*
X148105834Y-87282393D01*
X148130645Y-87348913D01*
X148130966Y-87357902D01*
X148130966Y-94280903D01*
X148110964Y-94349024D01*
X148057308Y-94395517D01*
X148004966Y-94406903D01*
X96438902Y-94406903D01*
X96370781Y-94386901D01*
X96324288Y-94333245D01*
X96312902Y-94280903D01*
X96312902Y-93310000D01*
X99624258Y-93310000D01*
X99645095Y-93441562D01*
X99705567Y-93560245D01*
X99799755Y-93654433D01*
X99918438Y-93714905D01*
X100050000Y-93735742D01*
X100181562Y-93714905D01*
X100300245Y-93654433D01*
X100394433Y-93560245D01*
X100454905Y-93441562D01*
X100475742Y-93310000D01*
X100454905Y-93178438D01*
X100439872Y-93148933D01*
X100412343Y-93094905D01*
X100394433Y-93059755D01*
X100300245Y-92965567D01*
X100181562Y-92905095D01*
X100050000Y-92884258D01*
X99918438Y-92905095D01*
X99799755Y-92965567D01*
X99705567Y-93059755D01*
X99687657Y-93094905D01*
X99660129Y-93148933D01*
X99645095Y-93178438D01*
X99624258Y-93310000D01*
X96312902Y-93310000D01*
X96312902Y-89923328D01*
X96312984Y-89923130D01*
X96312667Y-89922365D01*
X96312100Y-89922130D01*
X96311902Y-89922048D01*
X96311704Y-89922130D01*
X94499749Y-89922130D01*
X94431628Y-89902128D01*
X94385135Y-89848472D01*
X94373749Y-89796130D01*
X94373749Y-89398841D01*
X94393751Y-89330720D01*
X94447407Y-89284227D01*
X94517681Y-89274123D01*
X94582261Y-89303617D01*
X94606133Y-89331326D01*
X94671214Y-89433877D01*
X94676993Y-89439304D01*
X94676994Y-89439305D01*
X94716505Y-89476409D01*
X94786418Y-89542062D01*
X94924908Y-89618197D01*
X95077981Y-89657500D01*
X96246350Y-89657500D01*
X96250275Y-89657004D01*
X96250278Y-89657004D01*
X96355933Y-89643657D01*
X96355935Y-89643657D01*
X96363792Y-89642664D01*
X96425588Y-89618197D01*
X96503363Y-89587404D01*
X96503366Y-89587403D01*
X96510732Y-89584486D01*
X96523299Y-89575356D01*
X96632173Y-89496254D01*
X96638587Y-89491594D01*
X96655116Y-89471614D01*
X96734271Y-89375932D01*
X96734274Y-89375928D01*
X96739324Y-89369823D01*
X96806614Y-89226826D01*
X96808099Y-89219042D01*
X96834742Y-89079374D01*
X96834742Y-89079372D01*
X96836227Y-89071588D01*
X96826304Y-88913862D01*
X96799268Y-88830655D01*
X96779916Y-88771095D01*
X96779915Y-88771092D01*
X96777467Y-88763559D01*
X96692786Y-88630123D01*
X96577582Y-88521938D01*
X96439092Y-88445803D01*
X96286019Y-88406500D01*
X95117650Y-88406500D01*
X95113725Y-88406996D01*
X95113722Y-88406996D01*
X95008067Y-88420343D01*
X95008065Y-88420343D01*
X95000208Y-88421336D01*
X94975454Y-88431137D01*
X94860637Y-88476596D01*
X94860634Y-88476597D01*
X94853268Y-88479514D01*
X94846857Y-88484172D01*
X94846855Y-88484173D01*
X94800130Y-88518121D01*
X94725413Y-88572406D01*
X94720360Y-88578514D01*
X94629729Y-88688068D01*
X94629726Y-88688072D01*
X94624676Y-88694177D01*
X94621302Y-88701348D01*
X94621299Y-88701352D01*
X94613757Y-88717380D01*
X94566654Y-88770501D01*
X94498309Y-88789724D01*
X94430422Y-88768945D01*
X94384545Y-88714761D01*
X94373749Y-88663732D01*
X94373749Y-84020000D01*
X95124258Y-84020000D01*
X95145095Y-84151562D01*
X95149596Y-84160395D01*
X95149596Y-84160396D01*
X95177113Y-84214400D01*
X95205567Y-84270245D01*
X95299755Y-84364433D01*
X95308588Y-84368933D01*
X95308587Y-84368933D01*
X95391268Y-84411061D01*
X95418438Y-84424905D01*
X95550000Y-84445742D01*
X95681562Y-84424905D01*
X95708733Y-84411061D01*
X95791413Y-84368933D01*
X95791412Y-84368933D01*
X95800245Y-84364433D01*
X95894433Y-84270245D01*
X95922887Y-84214400D01*
X95950404Y-84160396D01*
X95950404Y-84160395D01*
X95954905Y-84151562D01*
X95975742Y-84020000D01*
X95954905Y-83888438D01*
X95948591Y-83876045D01*
X95898933Y-83778587D01*
X95894433Y-83769755D01*
X95800245Y-83675567D01*
X95718212Y-83633769D01*
X95690396Y-83619596D01*
X95690395Y-83619596D01*
X95681562Y-83615095D01*
X95550000Y-83594258D01*
X95418438Y-83615095D01*
X95409605Y-83619596D01*
X95409604Y-83619596D01*
X95381788Y-83633769D01*
X95299755Y-83675567D01*
X95205567Y-83769755D01*
X95201067Y-83778587D01*
X95151410Y-83876045D01*
X95145095Y-83888438D01*
X95124258Y-84020000D01*
X94373749Y-84020000D01*
X94373749Y-80758841D01*
X94393751Y-80690720D01*
X94447407Y-80644227D01*
X94517681Y-80634123D01*
X94582261Y-80663617D01*
X94606133Y-80691326D01*
X94671214Y-80793877D01*
X94676993Y-80799304D01*
X94676994Y-80799305D01*
X94749469Y-80867364D01*
X94786418Y-80902062D01*
X94924908Y-80978197D01*
X95077981Y-81017500D01*
X96246350Y-81017500D01*
X96250275Y-81017004D01*
X96250278Y-81017004D01*
X96355933Y-81003657D01*
X96355935Y-81003657D01*
X96363792Y-81002664D01*
X96435234Y-80974378D01*
X96503363Y-80947404D01*
X96503366Y-80947403D01*
X96510732Y-80944486D01*
X96525979Y-80933409D01*
X96632173Y-80856254D01*
X96638587Y-80851594D01*
X96648506Y-80839604D01*
X96734271Y-80735932D01*
X96734274Y-80735928D01*
X96739324Y-80729823D01*
X96806614Y-80586826D01*
X96808099Y-80579042D01*
X96834742Y-80439374D01*
X96834742Y-80439372D01*
X96836227Y-80431588D01*
X96826304Y-80273862D01*
X96804402Y-80206456D01*
X96779916Y-80131095D01*
X96779915Y-80131092D01*
X96777467Y-80123559D01*
X96692786Y-79990123D01*
X96660279Y-79959596D01*
X96583358Y-79887362D01*
X96577582Y-79881938D01*
X96439092Y-79805803D01*
X96350710Y-79783110D01*
X96289704Y-79746795D01*
X96258016Y-79683263D01*
X96265706Y-79612684D01*
X96302970Y-79562972D01*
X96304243Y-79561946D01*
X96311704Y-79561946D01*
X96311902Y-79562028D01*
X96312667Y-79561711D01*
X96312902Y-79561144D01*
X96312984Y-79560946D01*
X96312902Y-79560748D01*
X96312902Y-77057000D01*
X98019749Y-77057000D01*
X98038701Y-77237312D01*
X98040741Y-77243590D01*
X98040741Y-77243591D01*
X98054531Y-77286032D01*
X98094727Y-77409743D01*
X98098030Y-77415465D01*
X98098031Y-77415466D01*
X98132983Y-77476004D01*
X98185379Y-77566757D01*
X98189797Y-77571664D01*
X98189798Y-77571665D01*
X98296348Y-77690000D01*
X98306696Y-77701493D01*
X98312035Y-77705372D01*
X98404217Y-77772346D01*
X98453374Y-77808061D01*
X98459402Y-77810745D01*
X98459404Y-77810746D01*
X98597883Y-77872401D01*
X98619005Y-77881805D01*
X98706498Y-77900402D01*
X98789891Y-77918128D01*
X98789895Y-77918128D01*
X98796348Y-77919500D01*
X98977652Y-77919500D01*
X98984105Y-77918128D01*
X98984109Y-77918128D01*
X99067502Y-77900402D01*
X99154995Y-77881805D01*
X99176117Y-77872401D01*
X99314596Y-77810746D01*
X99314598Y-77810745D01*
X99320626Y-77808061D01*
X99369784Y-77772346D01*
X99461965Y-77705372D01*
X99467304Y-77701493D01*
X99477653Y-77690000D01*
X99584202Y-77571665D01*
X99584203Y-77571664D01*
X99588621Y-77566757D01*
X99641017Y-77476004D01*
X99675969Y-77415466D01*
X99675970Y-77415465D01*
X99679273Y-77409743D01*
X99719469Y-77286032D01*
X99733259Y-77243591D01*
X99733259Y-77243590D01*
X99735299Y-77237312D01*
X99752716Y-77071604D01*
X99779729Y-77005947D01*
X99837951Y-76965318D01*
X99908896Y-76962615D01*
X99935229Y-76972508D01*
X100000086Y-77005554D01*
X100018438Y-77014905D01*
X100150000Y-77035742D01*
X100281562Y-77014905D01*
X100299915Y-77005554D01*
X100327591Y-76991452D01*
X100378060Y-76965737D01*
X100447836Y-76952633D01*
X100513620Y-76979333D01*
X100554527Y-77037360D01*
X100560572Y-77064833D01*
X100573900Y-77191632D01*
X100578701Y-77237312D01*
X100580741Y-77243590D01*
X100580741Y-77243591D01*
X100594531Y-77286032D01*
X100634727Y-77409743D01*
X100638030Y-77415465D01*
X100638031Y-77415466D01*
X100672983Y-77476004D01*
X100725379Y-77566757D01*
X100729797Y-77571664D01*
X100729798Y-77571665D01*
X100836348Y-77690000D01*
X100846696Y-77701493D01*
X100852035Y-77705372D01*
X100944217Y-77772346D01*
X100993374Y-77808061D01*
X100999402Y-77810745D01*
X100999404Y-77810746D01*
X101137883Y-77872401D01*
X101159005Y-77881805D01*
X101246498Y-77900402D01*
X101329891Y-77918128D01*
X101329895Y-77918128D01*
X101336348Y-77919500D01*
X101517652Y-77919500D01*
X101524105Y-77918128D01*
X101524109Y-77918128D01*
X101607502Y-77900402D01*
X101694995Y-77881805D01*
X101716117Y-77872401D01*
X101854596Y-77810746D01*
X101854598Y-77810745D01*
X101860626Y-77808061D01*
X101909784Y-77772346D01*
X102001965Y-77705372D01*
X102007304Y-77701493D01*
X102017653Y-77690000D01*
X102124202Y-77571665D01*
X102124203Y-77571664D01*
X102128621Y-77566757D01*
X102181017Y-77476004D01*
X102215969Y-77415466D01*
X102215970Y-77415465D01*
X102219273Y-77409743D01*
X102259469Y-77286032D01*
X102273259Y-77243591D01*
X102273259Y-77243590D01*
X102275299Y-77237312D01*
X102294251Y-77057000D01*
X102287594Y-76993661D01*
X102275989Y-76883252D01*
X102275989Y-76883251D01*
X102275299Y-76876688D01*
X102271033Y-76863559D01*
X102238134Y-76762304D01*
X102236107Y-76691336D01*
X102272769Y-76630538D01*
X102336482Y-76599213D01*
X102407016Y-76607307D01*
X102419728Y-76614486D01*
X102419755Y-76614433D01*
X102528221Y-76669699D01*
X102538438Y-76674905D01*
X102548231Y-76676456D01*
X102655548Y-76693453D01*
X102670000Y-76695742D01*
X102684453Y-76693453D01*
X102791769Y-76676456D01*
X102801562Y-76674905D01*
X102811780Y-76669699D01*
X102911413Y-76618933D01*
X102911412Y-76618933D01*
X102920245Y-76614433D01*
X103014433Y-76520245D01*
X103063126Y-76424679D01*
X103070404Y-76410396D01*
X103070404Y-76410395D01*
X103074905Y-76401562D01*
X103095742Y-76270000D01*
X103074905Y-76138438D01*
X103070225Y-76129252D01*
X103029908Y-76050127D01*
X103014433Y-76019755D01*
X102920245Y-75925567D01*
X102801562Y-75865095D01*
X102670000Y-75844258D01*
X102538438Y-75865095D01*
X102419755Y-75925567D01*
X102325567Y-76019755D01*
X102310092Y-76050127D01*
X102269776Y-76129252D01*
X102265095Y-76138438D01*
X102244258Y-76270000D01*
X102245809Y-76279793D01*
X102255682Y-76342130D01*
X102246582Y-76412541D01*
X102200860Y-76466855D01*
X102133032Y-76487827D01*
X102064632Y-76468800D01*
X102037596Y-76446150D01*
X102007304Y-76412507D01*
X101948253Y-76369604D01*
X101865968Y-76309820D01*
X101865967Y-76309819D01*
X101860626Y-76305939D01*
X101854598Y-76303255D01*
X101854596Y-76303254D01*
X101701026Y-76234880D01*
X101701024Y-76234879D01*
X101694995Y-76232195D01*
X101588674Y-76209596D01*
X101524109Y-76195872D01*
X101524105Y-76195872D01*
X101517652Y-76194500D01*
X101336348Y-76194500D01*
X101329895Y-76195872D01*
X101329891Y-76195872D01*
X101265326Y-76209596D01*
X101159005Y-76232195D01*
X101152976Y-76234879D01*
X101152974Y-76234880D01*
X100999405Y-76303254D01*
X100999403Y-76303255D01*
X100993375Y-76305939D01*
X100988034Y-76309819D01*
X100988033Y-76309820D01*
X100943562Y-76342130D01*
X100846696Y-76412507D01*
X100842283Y-76417409D01*
X100842281Y-76417410D01*
X100761369Y-76507272D01*
X100700923Y-76544511D01*
X100629939Y-76543159D01*
X100570955Y-76503645D01*
X100556566Y-76477592D01*
X100554905Y-76478438D01*
X100535659Y-76440665D01*
X100494433Y-76359755D01*
X100400245Y-76265567D01*
X100310038Y-76219604D01*
X100290396Y-76209596D01*
X100290395Y-76209596D01*
X100281562Y-76205095D01*
X100150000Y-76184258D01*
X100018438Y-76205095D01*
X100009605Y-76209596D01*
X100009604Y-76209596D01*
X99989962Y-76219604D01*
X99899755Y-76265567D01*
X99805567Y-76359755D01*
X99749847Y-76469113D01*
X99749390Y-76470009D01*
X99700642Y-76521624D01*
X99631727Y-76538690D01*
X99564525Y-76515789D01*
X99543487Y-76497116D01*
X99471724Y-76417414D01*
X99471715Y-76417406D01*
X99467304Y-76412507D01*
X99408253Y-76369604D01*
X99325968Y-76309820D01*
X99325967Y-76309819D01*
X99320626Y-76305939D01*
X99314598Y-76303255D01*
X99314596Y-76303254D01*
X99161026Y-76234880D01*
X99161024Y-76234879D01*
X99154995Y-76232195D01*
X99048674Y-76209596D01*
X98984109Y-76195872D01*
X98984105Y-76195872D01*
X98977652Y-76194500D01*
X98796348Y-76194500D01*
X98789895Y-76195872D01*
X98789891Y-76195872D01*
X98725326Y-76209596D01*
X98619005Y-76232195D01*
X98612976Y-76234879D01*
X98612974Y-76234880D01*
X98459405Y-76303254D01*
X98459403Y-76303255D01*
X98453375Y-76305939D01*
X98448034Y-76309819D01*
X98448033Y-76309820D01*
X98403562Y-76342130D01*
X98306696Y-76412507D01*
X98302283Y-76417409D01*
X98302281Y-76417410D01*
X98194643Y-76536954D01*
X98185379Y-76547243D01*
X98182076Y-76552964D01*
X98100539Y-76694191D01*
X98094727Y-76704257D01*
X98092686Y-76710539D01*
X98092685Y-76710542D01*
X98044044Y-76860245D01*
X98038701Y-76876688D01*
X98038011Y-76883251D01*
X98038011Y-76883252D01*
X98026406Y-76993661D01*
X98019749Y-77057000D01*
X96312902Y-77057000D01*
X96312902Y-75115289D01*
X96332904Y-75047168D01*
X96386560Y-75000675D01*
X96438902Y-74989289D01*
X148004966Y-74989289D01*
X148073087Y-75009291D01*
G37*
G04 #@! TD.AperFunction*
G04 #@! TA.AperFunction,Conductor*
G36*
X146239145Y-76669699D02*
G01*
X146295981Y-76712246D01*
X146320792Y-76778766D01*
X146314946Y-76826691D01*
X146308205Y-76847439D01*
X146298701Y-76876688D01*
X146298011Y-76883251D01*
X146298011Y-76883252D01*
X146286406Y-76993661D01*
X146279749Y-77057000D01*
X146298701Y-77237312D01*
X146300741Y-77243590D01*
X146300741Y-77243591D01*
X146314531Y-77286032D01*
X146354727Y-77409743D01*
X146358030Y-77415465D01*
X146358031Y-77415466D01*
X146392983Y-77476004D01*
X146445379Y-77566757D01*
X146449797Y-77571664D01*
X146449798Y-77571665D01*
X146556348Y-77690000D01*
X146566696Y-77701493D01*
X146572035Y-77705372D01*
X146664217Y-77772346D01*
X146713374Y-77808061D01*
X146719402Y-77810745D01*
X146719404Y-77810746D01*
X146857883Y-77872401D01*
X146879005Y-77881805D01*
X146966498Y-77900402D01*
X147049891Y-77918128D01*
X147049895Y-77918128D01*
X147056348Y-77919500D01*
X147237652Y-77919500D01*
X147244105Y-77918128D01*
X147244109Y-77918128D01*
X147327502Y-77900402D01*
X147414995Y-77881805D01*
X147436117Y-77872401D01*
X147574596Y-77810746D01*
X147574598Y-77810745D01*
X147580626Y-77808061D01*
X147629784Y-77772346D01*
X147721965Y-77705372D01*
X147727304Y-77701493D01*
X147737653Y-77690000D01*
X147844202Y-77571665D01*
X147844203Y-77571664D01*
X147848621Y-77566757D01*
X147895847Y-77484959D01*
X147947229Y-77435966D01*
X148016943Y-77422530D01*
X148082854Y-77448916D01*
X148124036Y-77506748D01*
X148130966Y-77547959D01*
X148130966Y-81522098D01*
X148110964Y-81590219D01*
X148057308Y-81636712D01*
X147987034Y-81646816D01*
X147922454Y-81617322D01*
X147915871Y-81611193D01*
X147840245Y-81535567D01*
X147721562Y-81475095D01*
X147711771Y-81473544D01*
X147711770Y-81473544D01*
X147695405Y-81470952D01*
X147630252Y-81460633D01*
X147566101Y-81430222D01*
X147528574Y-81369954D01*
X147529587Y-81298965D01*
X147562829Y-81246966D01*
X147562304Y-81246493D01*
X147565157Y-81243325D01*
X147565158Y-81243323D01*
X147670288Y-81126565D01*
X147679202Y-81116665D01*
X147679203Y-81116664D01*
X147683621Y-81111757D01*
X147746033Y-81003657D01*
X147770969Y-80960466D01*
X147770970Y-80960465D01*
X147774273Y-80954743D01*
X147807788Y-80851594D01*
X147828259Y-80788591D01*
X147828259Y-80788590D01*
X147830299Y-80782312D01*
X147832709Y-80759388D01*
X147848561Y-80608565D01*
X147849251Y-80602000D01*
X147835548Y-80471628D01*
X147830989Y-80428252D01*
X147830989Y-80428251D01*
X147830299Y-80421688D01*
X147812288Y-80366254D01*
X147790689Y-80299781D01*
X147774273Y-80249257D01*
X147768929Y-80240000D01*
X147686924Y-80097964D01*
X147683621Y-80092243D01*
X147679202Y-80087335D01*
X147566719Y-79962410D01*
X147566717Y-79962409D01*
X147562304Y-79957507D01*
X147515372Y-79923409D01*
X147420968Y-79854820D01*
X147420967Y-79854819D01*
X147415626Y-79850939D01*
X147409598Y-79848255D01*
X147409596Y-79848254D01*
X147256026Y-79779880D01*
X147256024Y-79779879D01*
X147249995Y-79777195D01*
X147153742Y-79756736D01*
X147079109Y-79740872D01*
X147079105Y-79740872D01*
X147072652Y-79739500D01*
X146891348Y-79739500D01*
X146884895Y-79740872D01*
X146884891Y-79740872D01*
X146810258Y-79756736D01*
X146714005Y-79777195D01*
X146707976Y-79779879D01*
X146707974Y-79779880D01*
X146554405Y-79848254D01*
X146554403Y-79848255D01*
X146548375Y-79850939D01*
X146543034Y-79854819D01*
X146543033Y-79854820D01*
X146425247Y-79940396D01*
X146401696Y-79957507D01*
X146397283Y-79962409D01*
X146397281Y-79962410D01*
X146284798Y-80087335D01*
X146280379Y-80092243D01*
X146277076Y-80097964D01*
X146195072Y-80240000D01*
X146189727Y-80249257D01*
X146173311Y-80299781D01*
X146151713Y-80366254D01*
X146133701Y-80421688D01*
X146133011Y-80428251D01*
X146133011Y-80428252D01*
X146128452Y-80471628D01*
X146114749Y-80602000D01*
X146115439Y-80608565D01*
X146116672Y-80620297D01*
X146122653Y-80677195D01*
X146123631Y-80686504D01*
X146110859Y-80756342D01*
X146087416Y-80788770D01*
X144977720Y-81898466D01*
X144968376Y-81905932D01*
X144968708Y-81906322D01*
X144961872Y-81912140D01*
X144954280Y-81916930D01*
X144948338Y-81923658D01*
X144948337Y-81923659D01*
X144919245Y-81956600D01*
X144913898Y-81962288D01*
X144902680Y-81973506D01*
X144899991Y-81977094D01*
X144899990Y-81977095D01*
X144896550Y-81981684D01*
X144890168Y-81989523D01*
X144870704Y-82011562D01*
X144859377Y-82024388D01*
X144855563Y-82032511D01*
X144853492Y-82035664D01*
X144845673Y-82048676D01*
X144843856Y-82051995D01*
X144838474Y-82059176D01*
X144835325Y-82067577D01*
X144835324Y-82067578D01*
X144822144Y-82102736D01*
X144818217Y-82112053D01*
X144802263Y-82146034D01*
X144802262Y-82146037D01*
X144798447Y-82154163D01*
X144797065Y-82163037D01*
X144795961Y-82166650D01*
X144792115Y-82181307D01*
X144791301Y-82185010D01*
X144788148Y-82193420D01*
X144784698Y-82239843D01*
X144783548Y-82249856D01*
X144781500Y-82263009D01*
X144781500Y-82278204D01*
X144781154Y-82287541D01*
X144777524Y-82336392D01*
X144779397Y-82345168D01*
X144780008Y-82354125D01*
X144780002Y-82354125D01*
X144781500Y-82368318D01*
X144781500Y-83482632D01*
X144761498Y-83550753D01*
X144707842Y-83597246D01*
X144637568Y-83607350D01*
X144572988Y-83577856D01*
X144566405Y-83571727D01*
X144550245Y-83555567D01*
X144483960Y-83521793D01*
X144440396Y-83499596D01*
X144440395Y-83499596D01*
X144431562Y-83495095D01*
X144300000Y-83474258D01*
X144168438Y-83495095D01*
X144159605Y-83499596D01*
X144159604Y-83499596D01*
X144116040Y-83521793D01*
X144049755Y-83555567D01*
X143955567Y-83649755D01*
X143951067Y-83658587D01*
X143902751Y-83753413D01*
X143895095Y-83768438D01*
X143874258Y-83900000D01*
X143895095Y-84031562D01*
X143899596Y-84040395D01*
X143899596Y-84040396D01*
X143912360Y-84065447D01*
X143955567Y-84150245D01*
X144049755Y-84244433D01*
X144079139Y-84259405D01*
X144158007Y-84299590D01*
X144168438Y-84304905D01*
X144208165Y-84311197D01*
X144252577Y-84318231D01*
X144300000Y-84325742D01*
X144347424Y-84318231D01*
X144391835Y-84311197D01*
X144431562Y-84304905D01*
X144441994Y-84299590D01*
X144520861Y-84259405D01*
X144550245Y-84244433D01*
X144566405Y-84228273D01*
X144628717Y-84194247D01*
X144699532Y-84199312D01*
X144756368Y-84241859D01*
X144781179Y-84308379D01*
X144781500Y-84317368D01*
X144781500Y-88785540D01*
X144761498Y-88853661D01*
X144750450Y-88868368D01*
X144745764Y-88873740D01*
X144738963Y-88879600D01*
X144734080Y-88887134D01*
X144728181Y-88893896D01*
X144728176Y-88893892D01*
X144719200Y-88904986D01*
X142226591Y-91397595D01*
X142164279Y-91431621D01*
X142137496Y-91434500D01*
X141976348Y-91434500D01*
X141969891Y-91435872D01*
X141969886Y-91435873D01*
X141929424Y-91444473D01*
X141858634Y-91439070D01*
X141814134Y-91410321D01*
X139806392Y-89402578D01*
X137787405Y-87383591D01*
X137753379Y-87321279D01*
X137750500Y-87294496D01*
X137750500Y-85090060D01*
X137744061Y-85045095D01*
X137736596Y-84992968D01*
X137736595Y-84992965D01*
X137735323Y-84984082D01*
X137730857Y-84974258D01*
X137711160Y-84930939D01*
X137675984Y-84853572D01*
X137643726Y-84816135D01*
X137588260Y-84751763D01*
X137588257Y-84751760D01*
X137582400Y-84744963D01*
X137462095Y-84666985D01*
X137324739Y-84625907D01*
X137315763Y-84625852D01*
X137315762Y-84625852D01*
X137255555Y-84625484D01*
X137181376Y-84625031D01*
X137043529Y-84664428D01*
X136922280Y-84740930D01*
X136916338Y-84747658D01*
X136916337Y-84747659D01*
X136912713Y-84751763D01*
X136827377Y-84848388D01*
X136766447Y-84978163D01*
X136749500Y-85087009D01*
X136749500Y-87483819D01*
X136748172Y-87495704D01*
X136748682Y-87495745D01*
X136747962Y-87504691D01*
X136745981Y-87513447D01*
X136746537Y-87522407D01*
X136749258Y-87566264D01*
X136749500Y-87574067D01*
X136749500Y-87589940D01*
X136750135Y-87594374D01*
X136750948Y-87600050D01*
X136751978Y-87610106D01*
X136753368Y-87632500D01*
X136754859Y-87656538D01*
X136757907Y-87664982D01*
X136758676Y-87668694D01*
X136762343Y-87683399D01*
X136763404Y-87687027D01*
X136764677Y-87695918D01*
X136783939Y-87738282D01*
X136787746Y-87747637D01*
X136800491Y-87782943D01*
X136800493Y-87782947D01*
X136803540Y-87791387D01*
X136808835Y-87798635D01*
X136810611Y-87801975D01*
X136818274Y-87815089D01*
X136820303Y-87818261D01*
X136824016Y-87826428D01*
X136829871Y-87833223D01*
X136829873Y-87833226D01*
X136854387Y-87861675D01*
X136860675Y-87869595D01*
X136868522Y-87880336D01*
X136879265Y-87891079D01*
X136885623Y-87897925D01*
X136917600Y-87935037D01*
X136925134Y-87939920D01*
X136931896Y-87945819D01*
X136931892Y-87945824D01*
X136942986Y-87954800D01*
X141165378Y-92177192D01*
X141199404Y-92239504D01*
X141201593Y-92279457D01*
X141199749Y-92297000D01*
X141200439Y-92303562D01*
X141200439Y-92310171D01*
X141197796Y-92310171D01*
X141187127Y-92368430D01*
X141138613Y-92420265D01*
X141069776Y-92437642D01*
X141002471Y-92415045D01*
X140989799Y-92404425D01*
X140987254Y-92402576D01*
X140980245Y-92395567D01*
X140885820Y-92347455D01*
X140870396Y-92339596D01*
X140870395Y-92339596D01*
X140861562Y-92335095D01*
X140730000Y-92314258D01*
X140598438Y-92335095D01*
X140589605Y-92339596D01*
X140589604Y-92339596D01*
X140571780Y-92348678D01*
X140502003Y-92361782D01*
X140436219Y-92335082D01*
X140395312Y-92277055D01*
X140389267Y-92249582D01*
X140389139Y-92248359D01*
X140378826Y-92150245D01*
X140375989Y-92123252D01*
X140375989Y-92123251D01*
X140375299Y-92116688D01*
X140319273Y-91944257D01*
X140304367Y-91918438D01*
X140231924Y-91792964D01*
X140228621Y-91787243D01*
X140221823Y-91779693D01*
X140111719Y-91657410D01*
X140111717Y-91657409D01*
X140107304Y-91652507D01*
X140001843Y-91575885D01*
X139965968Y-91549820D01*
X139965967Y-91549819D01*
X139960626Y-91545939D01*
X139954598Y-91543255D01*
X139954596Y-91543254D01*
X139801026Y-91474880D01*
X139801024Y-91474879D01*
X139794995Y-91472195D01*
X139706323Y-91453347D01*
X139624109Y-91435872D01*
X139624105Y-91435872D01*
X139617652Y-91434500D01*
X139436348Y-91434500D01*
X139429895Y-91435872D01*
X139429891Y-91435872D01*
X139347677Y-91453347D01*
X139259005Y-91472195D01*
X139252976Y-91474879D01*
X139252974Y-91474880D01*
X139099405Y-91543254D01*
X139099403Y-91543255D01*
X139093375Y-91545939D01*
X139088034Y-91549819D01*
X139088033Y-91549820D01*
X139046366Y-91580093D01*
X138946696Y-91652507D01*
X138942283Y-91657409D01*
X138942281Y-91657410D01*
X138864461Y-91743838D01*
X138804015Y-91781077D01*
X138733031Y-91779725D01*
X138674047Y-91740211D01*
X138658558Y-91716729D01*
X138628935Y-91658589D01*
X138628932Y-91658585D01*
X138624433Y-91649755D01*
X138530245Y-91555567D01*
X138431139Y-91505070D01*
X138420396Y-91499596D01*
X138420395Y-91499596D01*
X138411562Y-91495095D01*
X138308368Y-91478751D01*
X138289793Y-91475809D01*
X138280000Y-91474258D01*
X138270207Y-91475809D01*
X138251632Y-91478751D01*
X138148438Y-91495095D01*
X138139605Y-91499596D01*
X138139604Y-91499596D01*
X138128861Y-91505070D01*
X138029755Y-91555567D01*
X137935567Y-91649755D01*
X137907115Y-91705595D01*
X137884818Y-91749355D01*
X137836069Y-91800970D01*
X137767155Y-91818036D01*
X137699953Y-91795135D01*
X137678915Y-91776463D01*
X137571719Y-91657410D01*
X137571717Y-91657409D01*
X137567304Y-91652507D01*
X137461843Y-91575885D01*
X137425968Y-91549820D01*
X137425967Y-91549819D01*
X137420626Y-91545939D01*
X137414598Y-91543255D01*
X137414596Y-91543254D01*
X137261026Y-91474880D01*
X137261024Y-91474879D01*
X137254995Y-91472195D01*
X137166323Y-91453347D01*
X137084109Y-91435872D01*
X137084105Y-91435872D01*
X137077652Y-91434500D01*
X136896348Y-91434500D01*
X136889895Y-91435872D01*
X136889891Y-91435872D01*
X136807677Y-91453347D01*
X136719005Y-91472195D01*
X136712976Y-91474879D01*
X136712974Y-91474880D01*
X136559405Y-91543254D01*
X136559403Y-91543255D01*
X136553375Y-91545939D01*
X136548034Y-91549819D01*
X136548033Y-91549820D01*
X136506366Y-91580093D01*
X136406696Y-91652507D01*
X136402285Y-91657406D01*
X136402276Y-91657414D01*
X136298917Y-91772207D01*
X136238471Y-91809447D01*
X136167488Y-91808095D01*
X136108503Y-91768582D01*
X136093014Y-91745100D01*
X136070289Y-91700500D01*
X136044433Y-91649755D01*
X135950245Y-91555567D01*
X135851139Y-91505070D01*
X135840396Y-91499596D01*
X135840395Y-91499596D01*
X135831562Y-91495095D01*
X135728368Y-91478751D01*
X135709793Y-91475809D01*
X135700000Y-91474258D01*
X135690207Y-91475809D01*
X135671632Y-91478751D01*
X135568438Y-91495095D01*
X135559605Y-91499596D01*
X135559604Y-91499596D01*
X135548861Y-91505070D01*
X135449755Y-91555567D01*
X135355567Y-91649755D01*
X135351067Y-91658586D01*
X135351066Y-91658588D01*
X135319273Y-91720985D01*
X135270524Y-91772600D01*
X135201609Y-91789666D01*
X135134408Y-91766765D01*
X135113370Y-91748092D01*
X135031724Y-91657414D01*
X135031715Y-91657406D01*
X135027304Y-91652507D01*
X134921843Y-91575885D01*
X134885968Y-91549820D01*
X134885967Y-91549819D01*
X134880626Y-91545939D01*
X134874598Y-91543255D01*
X134874596Y-91543254D01*
X134721026Y-91474880D01*
X134721024Y-91474879D01*
X134714995Y-91472195D01*
X134626323Y-91453347D01*
X134544109Y-91435872D01*
X134544105Y-91435872D01*
X134537652Y-91434500D01*
X134356348Y-91434500D01*
X134349895Y-91435872D01*
X134349891Y-91435872D01*
X134267677Y-91453347D01*
X134179005Y-91472195D01*
X134172976Y-91474879D01*
X134172974Y-91474880D01*
X134019405Y-91543254D01*
X134019403Y-91543255D01*
X134013375Y-91545939D01*
X134008034Y-91549819D01*
X134008033Y-91549820D01*
X133966366Y-91580093D01*
X133866696Y-91652507D01*
X133862283Y-91657409D01*
X133862281Y-91657410D01*
X133765303Y-91765115D01*
X133704857Y-91802354D01*
X133633873Y-91801002D01*
X133574889Y-91761488D01*
X133559400Y-91738007D01*
X133524605Y-91669719D01*
X133514433Y-91649755D01*
X133420245Y-91555567D01*
X133321139Y-91505070D01*
X133310396Y-91499596D01*
X133310395Y-91499596D01*
X133301562Y-91495095D01*
X133198368Y-91478751D01*
X133179793Y-91475809D01*
X133170000Y-91474258D01*
X133160207Y-91475809D01*
X133141632Y-91478751D01*
X133038438Y-91495095D01*
X133029605Y-91499596D01*
X133029604Y-91499596D01*
X133018861Y-91505070D01*
X132919755Y-91555567D01*
X132825567Y-91649755D01*
X132821068Y-91658585D01*
X132821065Y-91658589D01*
X132785660Y-91728077D01*
X132736912Y-91779693D01*
X132667998Y-91796759D01*
X132600796Y-91773859D01*
X132579757Y-91755186D01*
X132491719Y-91657410D01*
X132491717Y-91657409D01*
X132487304Y-91652507D01*
X132381843Y-91575885D01*
X132345968Y-91549820D01*
X132345967Y-91549819D01*
X132340626Y-91545939D01*
X132334598Y-91543255D01*
X132334596Y-91543254D01*
X132181026Y-91474880D01*
X132181024Y-91474879D01*
X132174995Y-91472195D01*
X132086323Y-91453347D01*
X132004109Y-91435872D01*
X132004105Y-91435872D01*
X131997652Y-91434500D01*
X131816348Y-91434500D01*
X131809895Y-91435872D01*
X131809891Y-91435872D01*
X131727677Y-91453347D01*
X131639005Y-91472195D01*
X131632978Y-91474878D01*
X131632970Y-91474881D01*
X131509468Y-91529869D01*
X131439101Y-91539304D01*
X131374803Y-91509198D01*
X131369123Y-91503858D01*
X130548260Y-90682995D01*
X130533143Y-90664723D01*
X130532962Y-90664456D01*
X130532961Y-90664455D01*
X130524393Y-90651848D01*
X130492349Y-90634666D01*
X130486661Y-90631421D01*
X130455592Y-90612605D01*
X130450623Y-90612292D01*
X130446232Y-90609938D01*
X130442765Y-90609500D01*
X130410196Y-90609500D01*
X130402284Y-90609251D01*
X130367080Y-90607036D01*
X130367151Y-90605909D01*
X130361546Y-90605303D01*
X130361546Y-90609500D01*
X122926955Y-90609500D01*
X122858834Y-90589498D01*
X122837860Y-90572595D01*
X122613164Y-90347899D01*
X122579138Y-90285587D01*
X122584203Y-90214772D01*
X122626750Y-90157936D01*
X122693270Y-90133125D01*
X122702259Y-90132804D01*
X123523737Y-90132804D01*
X123548612Y-90136676D01*
X123549800Y-90137396D01*
X123554771Y-90137709D01*
X123559160Y-90140062D01*
X123562627Y-90140500D01*
X123595190Y-90140500D01*
X123603101Y-90140749D01*
X123638312Y-90142964D01*
X123638241Y-90144091D01*
X123643846Y-90144697D01*
X123643846Y-90140500D01*
X125290838Y-90140500D01*
X125314448Y-90142732D01*
X125329729Y-90145647D01*
X125364512Y-90135146D01*
X125370846Y-90133413D01*
X125396089Y-90127213D01*
X125396090Y-90127213D01*
X125406128Y-90124747D01*
X125409864Y-90121454D01*
X125414632Y-90120014D01*
X125417393Y-90117872D01*
X125440401Y-90094864D01*
X125446171Y-90089445D01*
X125472654Y-90066097D01*
X125473401Y-90066944D01*
X125477792Y-90063409D01*
X125474824Y-90060441D01*
X125567435Y-89967830D01*
X125629747Y-89933804D01*
X125676240Y-89932476D01*
X125760000Y-89945742D01*
X125891562Y-89924905D01*
X126010245Y-89864433D01*
X126104433Y-89770245D01*
X126119844Y-89740000D01*
X130474258Y-89740000D01*
X130495095Y-89871562D01*
X130499596Y-89880395D01*
X130499596Y-89880396D01*
X130522275Y-89924905D01*
X130555567Y-89990245D01*
X130649755Y-90084433D01*
X130658588Y-90088933D01*
X130658587Y-90088933D01*
X130758176Y-90139676D01*
X130768438Y-90144905D01*
X130900000Y-90165742D01*
X131031562Y-90144905D01*
X131041825Y-90139676D01*
X131141413Y-90088933D01*
X131141412Y-90088933D01*
X131150245Y-90084433D01*
X131244433Y-89990245D01*
X131277725Y-89924905D01*
X131300404Y-89880396D01*
X131300404Y-89880395D01*
X131304905Y-89871562D01*
X131325742Y-89740000D01*
X131321307Y-89712000D01*
X136256258Y-89712000D01*
X136277095Y-89843562D01*
X136281596Y-89852395D01*
X136281596Y-89852396D01*
X136284062Y-89857235D01*
X136337567Y-89962245D01*
X136431755Y-90056433D01*
X136472948Y-90077422D01*
X136522320Y-90102578D01*
X136550438Y-90116905D01*
X136682000Y-90137742D01*
X136813562Y-90116905D01*
X136841681Y-90102578D01*
X136891052Y-90077422D01*
X136932245Y-90056433D01*
X137026433Y-89962245D01*
X137079938Y-89857235D01*
X137082404Y-89852396D01*
X137082404Y-89852395D01*
X137086905Y-89843562D01*
X137107742Y-89712000D01*
X137086905Y-89580438D01*
X137067352Y-89542062D01*
X137050222Y-89508444D01*
X137026433Y-89461755D01*
X136932245Y-89367567D01*
X136858304Y-89329892D01*
X136822396Y-89311596D01*
X136822395Y-89311596D01*
X136813562Y-89307095D01*
X136682000Y-89286258D01*
X136550438Y-89307095D01*
X136541605Y-89311596D01*
X136541604Y-89311596D01*
X136505696Y-89329892D01*
X136431755Y-89367567D01*
X136337567Y-89461755D01*
X136313778Y-89508444D01*
X136296649Y-89542062D01*
X136277095Y-89580438D01*
X136256258Y-89712000D01*
X131321307Y-89712000D01*
X131304905Y-89608438D01*
X131298590Y-89596043D01*
X131254854Y-89510207D01*
X131244433Y-89489755D01*
X131150245Y-89395567D01*
X131031562Y-89335095D01*
X130926272Y-89318419D01*
X130909793Y-89315809D01*
X130900000Y-89314258D01*
X130890207Y-89315809D01*
X130873728Y-89318419D01*
X130768438Y-89335095D01*
X130649755Y-89395567D01*
X130555567Y-89489755D01*
X130545146Y-89510207D01*
X130501411Y-89596043D01*
X130495095Y-89608438D01*
X130474258Y-89740000D01*
X126119844Y-89740000D01*
X126139100Y-89702207D01*
X126160404Y-89660396D01*
X126160404Y-89660395D01*
X126164905Y-89651562D01*
X126177994Y-89568917D01*
X126184191Y-89529793D01*
X126185742Y-89520000D01*
X126183277Y-89504433D01*
X126167491Y-89404768D01*
X126164905Y-89388438D01*
X126154470Y-89367957D01*
X126122668Y-89305544D01*
X126104433Y-89269755D01*
X126010245Y-89175567D01*
X125941887Y-89140737D01*
X125900396Y-89119596D01*
X125900395Y-89119596D01*
X125891562Y-89115095D01*
X125760000Y-89094258D01*
X125628438Y-89115095D01*
X125619605Y-89119596D01*
X125619604Y-89119596D01*
X125578113Y-89140737D01*
X125509755Y-89175567D01*
X125415567Y-89269755D01*
X125397332Y-89305544D01*
X125365531Y-89367957D01*
X125355095Y-89388438D01*
X125352509Y-89404768D01*
X125336724Y-89504433D01*
X125334258Y-89520000D01*
X125335809Y-89529793D01*
X125347524Y-89603760D01*
X125338424Y-89674171D01*
X125312170Y-89712565D01*
X125282140Y-89742595D01*
X125219828Y-89776621D01*
X125193045Y-89779500D01*
X123679352Y-89779500D01*
X123654474Y-89775627D01*
X123653288Y-89774909D01*
X123648319Y-89774596D01*
X123643928Y-89772242D01*
X123640461Y-89771804D01*
X123635618Y-89771804D01*
X123632393Y-89770775D01*
X123573575Y-89731014D01*
X123545591Y-89665765D01*
X123550797Y-89612428D01*
X123554905Y-89604366D01*
X123557592Y-89587404D01*
X123574191Y-89482597D01*
X123575742Y-89472804D01*
X123554905Y-89341242D01*
X123547439Y-89326588D01*
X123507417Y-89248041D01*
X123494433Y-89222559D01*
X123400245Y-89128371D01*
X123338517Y-89096919D01*
X123290396Y-89072400D01*
X123290395Y-89072400D01*
X123281562Y-89067899D01*
X123150000Y-89047062D01*
X123018438Y-89067899D01*
X123009605Y-89072400D01*
X123009604Y-89072400D01*
X122961483Y-89096919D01*
X122899755Y-89128371D01*
X122805567Y-89222559D01*
X122801067Y-89231391D01*
X122795234Y-89239419D01*
X122792162Y-89237187D01*
X122756338Y-89275120D01*
X122692817Y-89292304D01*
X122389761Y-89292304D01*
X122321640Y-89272302D01*
X122300666Y-89255400D01*
X121793001Y-88747736D01*
X121777883Y-88729462D01*
X121777706Y-88729201D01*
X121777705Y-88729200D01*
X121769136Y-88716591D01*
X121737092Y-88699409D01*
X121731404Y-88696164D01*
X121700335Y-88677348D01*
X121695366Y-88677035D01*
X121690975Y-88674681D01*
X121687508Y-88674243D01*
X121654939Y-88674243D01*
X121647027Y-88673994D01*
X121611823Y-88671779D01*
X121611894Y-88670652D01*
X121606289Y-88670046D01*
X121606289Y-88674243D01*
X115052212Y-88674243D01*
X114984091Y-88654241D01*
X114963117Y-88637338D01*
X114818991Y-88493212D01*
X114784965Y-88430900D01*
X114790030Y-88360085D01*
X114832577Y-88303249D01*
X114888378Y-88279668D01*
X114912504Y-88275847D01*
X114925437Y-88269257D01*
X114990551Y-88255773D01*
X115017420Y-88257464D01*
X115017422Y-88257464D01*
X115017351Y-88258592D01*
X115022954Y-88259197D01*
X115022954Y-88255000D01*
X122496338Y-88255000D01*
X122519948Y-88257232D01*
X122535229Y-88260147D01*
X122570012Y-88249646D01*
X122576346Y-88247913D01*
X122601589Y-88241713D01*
X122601590Y-88241713D01*
X122611628Y-88239247D01*
X122615364Y-88235954D01*
X122620132Y-88234514D01*
X122622893Y-88232372D01*
X122645901Y-88209364D01*
X122651672Y-88203944D01*
X122661334Y-88195426D01*
X122698184Y-88176161D01*
X122697811Y-88175447D01*
X122707856Y-88170196D01*
X122710661Y-88169639D01*
X122714601Y-88167579D01*
X122716085Y-88167214D01*
X122716086Y-88167214D01*
X122726128Y-88164747D01*
X122729864Y-88161454D01*
X122734632Y-88160014D01*
X122737393Y-88157872D01*
X122760401Y-88134864D01*
X122766171Y-88129445D01*
X122792654Y-88106097D01*
X122793401Y-88106944D01*
X122797792Y-88103409D01*
X122794824Y-88100441D01*
X123255265Y-87640000D01*
X128534258Y-87640000D01*
X128555095Y-87771562D01*
X128615567Y-87890245D01*
X128709755Y-87984433D01*
X128828438Y-88044905D01*
X128960000Y-88065742D01*
X129091562Y-88044905D01*
X129210245Y-87984433D01*
X129304433Y-87890245D01*
X129364905Y-87771562D01*
X129385742Y-87640000D01*
X129379724Y-87602000D01*
X129367401Y-87524197D01*
X129364905Y-87508438D01*
X129352894Y-87484864D01*
X129331531Y-87442938D01*
X129304433Y-87389755D01*
X129210245Y-87295567D01*
X129109840Y-87244408D01*
X129100396Y-87239596D01*
X129100395Y-87239596D01*
X129091562Y-87235095D01*
X128960000Y-87214258D01*
X128828438Y-87235095D01*
X128819605Y-87239596D01*
X128819604Y-87239596D01*
X128810160Y-87244408D01*
X128709755Y-87295567D01*
X128615567Y-87389755D01*
X128588469Y-87442938D01*
X128567107Y-87484864D01*
X128555095Y-87508438D01*
X128552599Y-87524197D01*
X128540277Y-87602000D01*
X128534258Y-87640000D01*
X123255265Y-87640000D01*
X123907860Y-86987405D01*
X123970172Y-86953379D01*
X123996955Y-86950500D01*
X126150218Y-86950500D01*
X126218339Y-86970502D01*
X126264832Y-87024158D01*
X126270049Y-87037560D01*
X126297727Y-87122743D01*
X126301030Y-87128465D01*
X126301031Y-87128466D01*
X126352976Y-87218438D01*
X126388379Y-87279757D01*
X126392797Y-87284664D01*
X126392798Y-87284665D01*
X126502774Y-87406805D01*
X126509696Y-87414493D01*
X126515035Y-87418372D01*
X126647684Y-87514747D01*
X126656374Y-87521061D01*
X126662402Y-87523745D01*
X126662404Y-87523746D01*
X126811078Y-87589940D01*
X126822005Y-87594805D01*
X126910676Y-87613652D01*
X126992891Y-87631128D01*
X126992895Y-87631128D01*
X126999348Y-87632500D01*
X127180652Y-87632500D01*
X127187105Y-87631128D01*
X127187109Y-87631128D01*
X127269323Y-87613653D01*
X127357995Y-87594805D01*
X127368922Y-87589940D01*
X127517596Y-87523746D01*
X127517598Y-87523745D01*
X127523626Y-87521061D01*
X127532317Y-87514747D01*
X127664965Y-87418372D01*
X127670304Y-87414493D01*
X127677227Y-87406805D01*
X127787202Y-87284665D01*
X127787203Y-87284664D01*
X127791621Y-87279757D01*
X127827024Y-87218438D01*
X127878969Y-87128466D01*
X127878970Y-87128465D01*
X127882273Y-87122743D01*
X127916645Y-87016956D01*
X127936259Y-86956591D01*
X127936259Y-86956590D01*
X127938299Y-86950312D01*
X127940392Y-86930404D01*
X127956561Y-86776565D01*
X127957251Y-86770000D01*
X127946241Y-86665253D01*
X127938989Y-86596252D01*
X127938989Y-86596251D01*
X127938299Y-86589688D01*
X127932250Y-86571069D01*
X127885216Y-86426314D01*
X127882273Y-86417257D01*
X127875092Y-86404818D01*
X127794924Y-86265964D01*
X127791621Y-86260243D01*
X127763721Y-86229257D01*
X127674719Y-86130410D01*
X127674717Y-86130409D01*
X127670304Y-86125507D01*
X127566093Y-86049793D01*
X127528968Y-86022820D01*
X127528967Y-86022819D01*
X127523626Y-86018939D01*
X127517598Y-86016255D01*
X127517596Y-86016254D01*
X127364026Y-85947880D01*
X127364024Y-85947879D01*
X127357995Y-85945195D01*
X127246852Y-85921571D01*
X127187109Y-85908872D01*
X127187105Y-85908872D01*
X127180652Y-85907500D01*
X126999348Y-85907500D01*
X126992895Y-85908872D01*
X126992891Y-85908872D01*
X126933148Y-85921571D01*
X126822005Y-85945195D01*
X126815976Y-85947879D01*
X126815974Y-85947880D01*
X126662405Y-86016254D01*
X126662403Y-86016255D01*
X126656375Y-86018939D01*
X126651034Y-86022819D01*
X126651033Y-86022820D01*
X126522213Y-86116413D01*
X126509696Y-86125507D01*
X126505283Y-86130409D01*
X126505281Y-86130410D01*
X126416279Y-86229257D01*
X126388379Y-86260243D01*
X126385076Y-86265964D01*
X126304909Y-86404818D01*
X126297727Y-86417257D01*
X126295686Y-86423539D01*
X126295685Y-86423541D01*
X126291404Y-86436717D01*
X126270144Y-86502151D01*
X126270051Y-86502436D01*
X126229978Y-86561042D01*
X126164581Y-86588679D01*
X126150218Y-86589500D01*
X125959368Y-86589500D01*
X125891247Y-86569498D01*
X125844754Y-86515842D01*
X125834650Y-86445568D01*
X125864144Y-86380988D01*
X125870273Y-86374405D01*
X125954433Y-86290245D01*
X125994086Y-86212422D01*
X126010404Y-86180396D01*
X126010404Y-86180395D01*
X126014905Y-86171562D01*
X126035742Y-86040000D01*
X126014905Y-85908438D01*
X126003296Y-85885653D01*
X125965551Y-85811576D01*
X125954433Y-85789755D01*
X125892273Y-85727595D01*
X125858247Y-85665283D01*
X125863312Y-85594468D01*
X125905859Y-85537632D01*
X125972379Y-85512821D01*
X125981368Y-85512500D01*
X128796534Y-85512500D01*
X128820144Y-85514732D01*
X128835425Y-85517647D01*
X128870208Y-85507146D01*
X128876542Y-85505413D01*
X128901785Y-85499213D01*
X128901786Y-85499213D01*
X128911824Y-85496747D01*
X128915560Y-85493454D01*
X128920328Y-85492014D01*
X128923089Y-85489872D01*
X128946097Y-85466864D01*
X128951867Y-85461445D01*
X128978350Y-85438097D01*
X128979097Y-85438944D01*
X128983488Y-85435409D01*
X128980520Y-85432441D01*
X130900962Y-83512000D01*
X141356258Y-83512000D01*
X141377095Y-83643562D01*
X141381596Y-83652395D01*
X141381596Y-83652396D01*
X141387892Y-83664752D01*
X141437567Y-83762245D01*
X141531755Y-83856433D01*
X141566607Y-83874191D01*
X141635817Y-83909455D01*
X141650438Y-83916905D01*
X141782000Y-83937742D01*
X141913562Y-83916905D01*
X141928184Y-83909455D01*
X141997393Y-83874191D01*
X142032245Y-83856433D01*
X142126433Y-83762245D01*
X142176108Y-83664752D01*
X142182404Y-83652396D01*
X142182404Y-83652395D01*
X142186905Y-83643562D01*
X142207742Y-83512000D01*
X142186905Y-83380438D01*
X142180346Y-83367564D01*
X142148645Y-83305348D01*
X142126433Y-83261755D01*
X142032245Y-83167567D01*
X141947631Y-83124454D01*
X141922396Y-83111596D01*
X141922395Y-83111596D01*
X141913562Y-83107095D01*
X141815489Y-83091562D01*
X141791793Y-83087809D01*
X141782000Y-83086258D01*
X141772207Y-83087809D01*
X141748511Y-83091562D01*
X141650438Y-83107095D01*
X141641605Y-83111596D01*
X141641604Y-83111596D01*
X141616369Y-83124454D01*
X141531755Y-83167567D01*
X141437567Y-83261755D01*
X141415355Y-83305348D01*
X141383655Y-83367564D01*
X141377095Y-83380438D01*
X141356258Y-83512000D01*
X130900962Y-83512000D01*
X132176709Y-82236253D01*
X132239021Y-82202227D01*
X132265804Y-82199348D01*
X133897411Y-82199348D01*
X133965532Y-82219350D01*
X134012025Y-82273006D01*
X134022129Y-82343280D01*
X133992635Y-82407860D01*
X133954614Y-82437615D01*
X133899755Y-82465567D01*
X133805567Y-82559755D01*
X133781769Y-82606462D01*
X133756090Y-82656860D01*
X133745095Y-82678438D01*
X133724258Y-82810000D01*
X133745095Y-82941562D01*
X133749596Y-82950395D01*
X133749596Y-82950396D01*
X133769906Y-82990256D01*
X133805567Y-83060245D01*
X133899755Y-83154433D01*
X133908588Y-83158933D01*
X133908587Y-83158933D01*
X134008223Y-83209700D01*
X134018438Y-83214905D01*
X134150000Y-83235742D01*
X134281562Y-83214905D01*
X134291778Y-83209700D01*
X134391413Y-83158933D01*
X134391412Y-83158933D01*
X134400245Y-83154433D01*
X134494433Y-83060245D01*
X134530094Y-82990256D01*
X134550404Y-82950396D01*
X134550404Y-82950395D01*
X134554905Y-82941562D01*
X134575742Y-82810000D01*
X134554905Y-82678438D01*
X134543911Y-82656860D01*
X134518231Y-82606462D01*
X134494433Y-82559755D01*
X134400245Y-82465567D01*
X134345386Y-82437615D01*
X134293771Y-82388867D01*
X134276705Y-82319952D01*
X134299606Y-82252750D01*
X134355203Y-82208598D01*
X134402589Y-82199348D01*
X136461893Y-82199348D01*
X136530014Y-82219350D01*
X136550988Y-82236253D01*
X136872170Y-82557435D01*
X136906196Y-82619747D01*
X136907524Y-82666240D01*
X136897858Y-82727268D01*
X136894258Y-82750000D01*
X136915095Y-82881562D01*
X136919596Y-82890395D01*
X136919596Y-82890396D01*
X136933129Y-82916956D01*
X136975567Y-83000245D01*
X137069755Y-83094433D01*
X137103439Y-83111596D01*
X137163111Y-83142000D01*
X137188438Y-83154905D01*
X137320000Y-83175742D01*
X137451562Y-83154905D01*
X137476890Y-83142000D01*
X137536561Y-83111596D01*
X137570245Y-83094433D01*
X137664433Y-83000245D01*
X137706871Y-82916956D01*
X137720404Y-82890396D01*
X137720404Y-82890395D01*
X137724905Y-82881562D01*
X137745742Y-82750000D01*
X137742133Y-82727210D01*
X137726456Y-82628231D01*
X137724905Y-82618438D01*
X137719096Y-82607036D01*
X137673996Y-82518524D01*
X137664433Y-82499755D01*
X137570245Y-82405567D01*
X137471037Y-82355018D01*
X137460396Y-82349596D01*
X137460395Y-82349596D01*
X137451562Y-82345095D01*
X137346304Y-82328424D01*
X137329793Y-82325809D01*
X137320000Y-82324258D01*
X137310207Y-82325809D01*
X137243388Y-82336392D01*
X137236240Y-82337524D01*
X137165829Y-82328424D01*
X137127435Y-82302170D01*
X136737108Y-81911843D01*
X136721991Y-81893571D01*
X136721810Y-81893304D01*
X136721809Y-81893303D01*
X136713241Y-81880696D01*
X136681197Y-81863514D01*
X136675509Y-81860269D01*
X136644440Y-81841453D01*
X136639471Y-81841140D01*
X136635080Y-81838786D01*
X136631613Y-81838348D01*
X136599044Y-81838348D01*
X136591132Y-81838099D01*
X136579896Y-81837392D01*
X136555928Y-81835884D01*
X136555999Y-81834757D01*
X136550394Y-81834151D01*
X136550394Y-81838348D01*
X134599489Y-81838348D01*
X134531368Y-81818346D01*
X134484875Y-81764690D01*
X134474771Y-81694416D01*
X134487222Y-81655145D01*
X134487248Y-81655095D01*
X134510945Y-81608587D01*
X134530404Y-81570396D01*
X134530404Y-81570395D01*
X134534905Y-81561562D01*
X134555742Y-81430000D01*
X134534905Y-81298438D01*
X134515274Y-81259909D01*
X134487760Y-81205910D01*
X134474433Y-81179755D01*
X134380245Y-81085567D01*
X134287749Y-81038438D01*
X134270396Y-81029596D01*
X134270395Y-81029596D01*
X134261562Y-81025095D01*
X134130000Y-81004258D01*
X133998438Y-81025095D01*
X133989605Y-81029596D01*
X133989604Y-81029596D01*
X133972251Y-81038438D01*
X133879755Y-81085567D01*
X133785567Y-81179755D01*
X133772240Y-81205910D01*
X133744727Y-81259909D01*
X133725095Y-81298438D01*
X133704258Y-81430000D01*
X133725095Y-81561562D01*
X133729596Y-81570395D01*
X133729596Y-81570396D01*
X133749055Y-81608587D01*
X133772753Y-81655095D01*
X133772778Y-81655145D01*
X133785882Y-81724922D01*
X133759182Y-81790707D01*
X133701154Y-81831613D01*
X133660511Y-81838348D01*
X132511107Y-81838348D01*
X132442986Y-81818346D01*
X132396493Y-81764690D01*
X132386389Y-81694416D01*
X132415883Y-81629836D01*
X132422012Y-81623253D01*
X134007860Y-80037405D01*
X134070172Y-80003379D01*
X134096955Y-80000500D01*
X136920838Y-80000500D01*
X136944448Y-80002732D01*
X136959729Y-80005647D01*
X136994512Y-79995146D01*
X137000846Y-79993413D01*
X137026089Y-79987213D01*
X137026090Y-79987213D01*
X137036128Y-79984747D01*
X137039864Y-79981454D01*
X137044632Y-79980014D01*
X137047393Y-79977872D01*
X137070401Y-79954864D01*
X137076171Y-79949445D01*
X137102654Y-79926097D01*
X137103401Y-79926944D01*
X137107792Y-79923409D01*
X137104824Y-79920441D01*
X137367435Y-79657830D01*
X137429747Y-79623804D01*
X137476240Y-79622476D01*
X137517912Y-79629076D01*
X137560000Y-79635742D01*
X137691562Y-79614905D01*
X137709226Y-79605905D01*
X137786044Y-79566764D01*
X137810245Y-79554433D01*
X137890335Y-79474343D01*
X138422230Y-79474343D01*
X138443067Y-79605905D01*
X138447568Y-79614738D01*
X138447568Y-79614739D01*
X138465740Y-79650404D01*
X138503539Y-79724588D01*
X138597727Y-79818776D01*
X138716410Y-79879248D01*
X138726203Y-79880799D01*
X138833078Y-79897726D01*
X138847972Y-79900085D01*
X138862867Y-79897726D01*
X138969741Y-79880799D01*
X138979534Y-79879248D01*
X139098217Y-79818776D01*
X139192405Y-79724588D01*
X139230204Y-79650404D01*
X139248376Y-79614739D01*
X139248376Y-79614738D01*
X139252877Y-79605905D01*
X139273714Y-79474343D01*
X139252877Y-79342781D01*
X139234369Y-79306456D01*
X139212766Y-79264058D01*
X139205603Y-79250000D01*
X141904258Y-79250000D01*
X141905809Y-79259793D01*
X141907458Y-79270207D01*
X141925095Y-79381562D01*
X141929596Y-79390395D01*
X141929596Y-79390396D01*
X141936154Y-79403266D01*
X141985567Y-79500245D01*
X142079755Y-79594433D01*
X142128948Y-79619498D01*
X142163708Y-79637209D01*
X142198438Y-79654905D01*
X142226718Y-79659384D01*
X142283884Y-79668438D01*
X142330000Y-79675742D01*
X142376117Y-79668438D01*
X142433282Y-79659384D01*
X142461562Y-79654905D01*
X142496293Y-79637209D01*
X142531052Y-79619498D01*
X142580245Y-79594433D01*
X142674433Y-79500245D01*
X142723846Y-79403266D01*
X142730404Y-79390396D01*
X142730404Y-79390395D01*
X142734905Y-79381562D01*
X142752542Y-79270207D01*
X142754191Y-79259793D01*
X142755742Y-79250000D01*
X142734905Y-79118438D01*
X142709122Y-79067835D01*
X142678933Y-79008587D01*
X142674433Y-78999755D01*
X142580245Y-78905567D01*
X142501741Y-78865567D01*
X142470396Y-78849596D01*
X142470395Y-78849596D01*
X142461562Y-78845095D01*
X142330000Y-78824258D01*
X142198438Y-78845095D01*
X142189605Y-78849596D01*
X142189604Y-78849596D01*
X142158259Y-78865567D01*
X142079755Y-78905567D01*
X141985567Y-78999755D01*
X141981067Y-79008587D01*
X141950879Y-79067835D01*
X141925095Y-79118438D01*
X141904258Y-79250000D01*
X139205603Y-79250000D01*
X139192405Y-79224098D01*
X139098217Y-79129910D01*
X138999782Y-79079755D01*
X138988368Y-79073939D01*
X138988367Y-79073939D01*
X138979534Y-79069438D01*
X138847972Y-79048601D01*
X138716410Y-79069438D01*
X138707577Y-79073939D01*
X138707576Y-79073939D01*
X138696162Y-79079755D01*
X138597727Y-79129910D01*
X138503539Y-79224098D01*
X138483178Y-79264058D01*
X138461576Y-79306456D01*
X138443067Y-79342781D01*
X138422230Y-79474343D01*
X137890335Y-79474343D01*
X137904433Y-79460245D01*
X137964905Y-79341562D01*
X137985742Y-79210000D01*
X137964905Y-79078438D01*
X137959208Y-79067256D01*
X137908933Y-78968587D01*
X137904433Y-78959755D01*
X137810245Y-78865567D01*
X137729172Y-78824258D01*
X137700396Y-78809596D01*
X137700395Y-78809596D01*
X137691562Y-78805095D01*
X137560000Y-78784258D01*
X137428438Y-78805095D01*
X137419605Y-78809596D01*
X137419604Y-78809596D01*
X137390828Y-78824258D01*
X137309755Y-78865567D01*
X137215567Y-78959755D01*
X137211067Y-78968587D01*
X137160793Y-79067256D01*
X137155095Y-79078438D01*
X137134258Y-79210000D01*
X137135809Y-79219793D01*
X137147524Y-79293760D01*
X137138424Y-79364171D01*
X137112170Y-79402565D01*
X136912140Y-79602595D01*
X136849828Y-79636621D01*
X136823045Y-79639500D01*
X136405615Y-79639500D01*
X136337494Y-79619498D01*
X136291001Y-79565842D01*
X136280897Y-79495568D01*
X136310391Y-79430988D01*
X136326161Y-79416514D01*
X136330245Y-79414433D01*
X136424433Y-79320245D01*
X136466633Y-79237422D01*
X136480404Y-79210396D01*
X136480404Y-79210395D01*
X136484905Y-79201562D01*
X136505742Y-79070000D01*
X136484905Y-78938438D01*
X136478107Y-78925095D01*
X136446116Y-78862310D01*
X136424433Y-78819755D01*
X136330245Y-78725567D01*
X136235722Y-78677405D01*
X136220396Y-78669596D01*
X136220395Y-78669596D01*
X136211562Y-78665095D01*
X136080000Y-78644258D01*
X135948438Y-78665095D01*
X135939605Y-78669596D01*
X135939604Y-78669596D01*
X135924278Y-78677405D01*
X135829755Y-78725567D01*
X135735567Y-78819755D01*
X135713884Y-78862310D01*
X135681894Y-78925095D01*
X135675095Y-78938438D01*
X135654258Y-79070000D01*
X135675095Y-79201562D01*
X135679596Y-79210395D01*
X135679596Y-79210396D01*
X135693367Y-79237422D01*
X135735567Y-79320245D01*
X135829755Y-79414433D01*
X135831243Y-79415191D01*
X135871800Y-79467787D01*
X135877875Y-79538524D01*
X135844743Y-79601315D01*
X135782922Y-79636226D01*
X135754385Y-79639500D01*
X133999168Y-79639500D01*
X133975558Y-79637268D01*
X133975249Y-79637209D01*
X133975248Y-79637209D01*
X133960271Y-79634352D01*
X133925494Y-79644851D01*
X133919148Y-79646587D01*
X133893921Y-79652784D01*
X133893919Y-79652785D01*
X133883872Y-79655253D01*
X133880137Y-79658546D01*
X133875368Y-79659986D01*
X133872607Y-79662128D01*
X133849599Y-79685136D01*
X133843829Y-79690555D01*
X133817346Y-79713903D01*
X133816599Y-79713056D01*
X133812208Y-79716591D01*
X133815176Y-79719559D01*
X128680140Y-84854595D01*
X128617828Y-84888621D01*
X128591045Y-84891500D01*
X122729162Y-84891500D01*
X122705552Y-84889268D01*
X122705248Y-84889210D01*
X122690271Y-84886353D01*
X122655488Y-84896854D01*
X122649154Y-84898587D01*
X122623911Y-84904787D01*
X122623910Y-84904787D01*
X122613872Y-84907253D01*
X122610136Y-84910546D01*
X122605368Y-84911986D01*
X122602607Y-84914128D01*
X122579599Y-84937136D01*
X122573829Y-84942555D01*
X122547346Y-84965903D01*
X122546599Y-84965056D01*
X122542208Y-84968591D01*
X122545176Y-84971559D01*
X122008753Y-85507982D01*
X121946441Y-85542008D01*
X121875626Y-85536943D01*
X121818790Y-85494396D01*
X121805241Y-85468267D01*
X121804905Y-85468438D01*
X121772890Y-85405605D01*
X121744433Y-85349755D01*
X121650245Y-85255567D01*
X121556348Y-85207724D01*
X121540396Y-85199596D01*
X121540395Y-85199596D01*
X121531562Y-85195095D01*
X121400000Y-85174258D01*
X121268438Y-85195095D01*
X121259605Y-85199596D01*
X121259604Y-85199596D01*
X121243652Y-85207724D01*
X121149755Y-85255567D01*
X121055567Y-85349755D01*
X121051067Y-85358587D01*
X121000555Y-85457723D01*
X120995095Y-85468438D01*
X120974258Y-85600000D01*
X120995095Y-85731562D01*
X120999596Y-85740395D01*
X120999597Y-85740399D01*
X121027451Y-85795066D01*
X121040555Y-85864843D01*
X121013854Y-85930627D01*
X120998981Y-85946286D01*
X120996606Y-85948128D01*
X120973591Y-85971143D01*
X120967823Y-85976561D01*
X120941347Y-85999903D01*
X120940600Y-85999055D01*
X120936208Y-86002591D01*
X120939175Y-86005558D01*
X120803194Y-86141539D01*
X120740882Y-86175565D01*
X120670067Y-86170500D01*
X120613231Y-86127953D01*
X120601832Y-86109647D01*
X120601526Y-86109045D01*
X120557689Y-86023011D01*
X120463501Y-85928823D01*
X120359324Y-85875742D01*
X120353652Y-85872852D01*
X120353651Y-85872852D01*
X120344818Y-85868351D01*
X120213256Y-85847514D01*
X120203463Y-85849065D01*
X120158332Y-85856213D01*
X120129496Y-85860780D01*
X120059085Y-85851680D01*
X120020691Y-85825426D01*
X119697405Y-85502140D01*
X119663379Y-85439828D01*
X119660500Y-85413045D01*
X119660500Y-85214569D01*
X119680502Y-85146448D01*
X119734158Y-85099955D01*
X119804432Y-85089851D01*
X119843702Y-85102302D01*
X119859601Y-85110403D01*
X119859605Y-85110404D01*
X119868438Y-85114905D01*
X120000000Y-85135742D01*
X120131562Y-85114905D01*
X120142049Y-85109562D01*
X120203808Y-85078094D01*
X120250245Y-85054433D01*
X120344433Y-84960245D01*
X120404905Y-84841562D01*
X120425742Y-84710000D01*
X120412476Y-84626240D01*
X120421576Y-84555829D01*
X120447830Y-84517435D01*
X120617005Y-84348260D01*
X120635277Y-84333143D01*
X120635544Y-84332962D01*
X120635545Y-84332961D01*
X120648152Y-84324393D01*
X120665334Y-84292349D01*
X120668579Y-84286661D01*
X120687395Y-84255592D01*
X120687708Y-84250623D01*
X120690062Y-84246232D01*
X120690500Y-84242765D01*
X120690500Y-84210196D01*
X120690749Y-84202284D01*
X120692964Y-84167080D01*
X120694091Y-84167151D01*
X120694697Y-84161546D01*
X120690500Y-84161546D01*
X120690500Y-83420000D01*
X125164258Y-83420000D01*
X125185095Y-83551562D01*
X125189596Y-83560395D01*
X125189596Y-83560396D01*
X125197319Y-83575553D01*
X125245567Y-83670245D01*
X125339755Y-83764433D01*
X125458438Y-83824905D01*
X125590000Y-83845742D01*
X125721562Y-83824905D01*
X125840245Y-83764433D01*
X125934433Y-83670245D01*
X125987683Y-83565736D01*
X126036431Y-83514121D01*
X126037239Y-83513921D01*
X126154840Y-83513921D01*
X126172548Y-83519956D01*
X126216700Y-83575553D01*
X126225260Y-83636110D01*
X126222749Y-83660000D01*
X126223439Y-83666565D01*
X126239609Y-83820404D01*
X126241701Y-83840312D01*
X126243741Y-83846590D01*
X126243741Y-83846591D01*
X126260002Y-83896638D01*
X126297727Y-84012743D01*
X126301030Y-84018465D01*
X126301031Y-84018466D01*
X126324536Y-84059177D01*
X126388379Y-84169757D01*
X126392797Y-84174664D01*
X126392798Y-84174665D01*
X126498778Y-84292367D01*
X126509696Y-84304493D01*
X126656374Y-84411061D01*
X126662402Y-84413745D01*
X126662404Y-84413746D01*
X126815974Y-84482120D01*
X126822005Y-84484805D01*
X126910677Y-84503653D01*
X126992891Y-84521128D01*
X126992895Y-84521128D01*
X126999348Y-84522500D01*
X127180652Y-84522500D01*
X127187105Y-84521128D01*
X127187109Y-84521128D01*
X127269323Y-84503653D01*
X127357995Y-84484805D01*
X127364026Y-84482120D01*
X127517596Y-84413746D01*
X127517598Y-84413745D01*
X127523626Y-84411061D01*
X127670304Y-84304493D01*
X127681223Y-84292367D01*
X127787202Y-84174665D01*
X127787203Y-84174664D01*
X127791621Y-84169757D01*
X127855464Y-84059177D01*
X127878969Y-84018466D01*
X127878970Y-84018465D01*
X127882273Y-84012743D01*
X127919998Y-83896638D01*
X127936259Y-83846591D01*
X127936259Y-83846590D01*
X127938299Y-83840312D01*
X127940392Y-83820404D01*
X127956561Y-83666565D01*
X127957251Y-83660000D01*
X127942725Y-83521793D01*
X127938989Y-83486252D01*
X127938989Y-83486251D01*
X127938299Y-83479688D01*
X127930163Y-83454646D01*
X127884315Y-83313542D01*
X127882273Y-83307257D01*
X127878530Y-83300773D01*
X127794924Y-83155964D01*
X127791621Y-83150243D01*
X127782619Y-83140245D01*
X127674719Y-83020410D01*
X127674717Y-83020409D01*
X127670304Y-83015507D01*
X127593905Y-82960000D01*
X128974258Y-82960000D01*
X128975809Y-82969793D01*
X128976541Y-82974413D01*
X128995095Y-83091562D01*
X128999596Y-83100395D01*
X128999596Y-83100396D01*
X129023557Y-83147422D01*
X129055567Y-83210245D01*
X129149755Y-83304433D01*
X129171962Y-83315748D01*
X129257126Y-83359141D01*
X129268438Y-83364905D01*
X129400000Y-83385742D01*
X129531562Y-83364905D01*
X129542875Y-83359141D01*
X129628038Y-83315748D01*
X129650245Y-83304433D01*
X129744433Y-83210245D01*
X129776443Y-83147422D01*
X129800404Y-83100396D01*
X129800404Y-83100395D01*
X129804905Y-83091562D01*
X129823459Y-82974413D01*
X129824191Y-82969793D01*
X129825742Y-82960000D01*
X129816487Y-82901562D01*
X129810515Y-82863858D01*
X129804905Y-82828438D01*
X129793774Y-82806591D01*
X129756277Y-82733000D01*
X129744433Y-82709755D01*
X129650245Y-82615567D01*
X129591524Y-82585647D01*
X129540396Y-82559596D01*
X129540395Y-82559596D01*
X129531562Y-82555095D01*
X129400000Y-82534258D01*
X129268438Y-82555095D01*
X129259605Y-82559596D01*
X129259604Y-82559596D01*
X129208476Y-82585647D01*
X129149755Y-82615567D01*
X129055567Y-82709755D01*
X129043723Y-82733000D01*
X129006227Y-82806591D01*
X128995095Y-82828438D01*
X128989485Y-82863858D01*
X128983514Y-82901562D01*
X128974258Y-82960000D01*
X127593905Y-82960000D01*
X127580900Y-82950551D01*
X127528968Y-82912820D01*
X127528967Y-82912819D01*
X127523626Y-82908939D01*
X127517598Y-82906255D01*
X127517596Y-82906254D01*
X127364026Y-82837880D01*
X127364024Y-82837879D01*
X127357995Y-82835195D01*
X127269324Y-82816348D01*
X127187109Y-82798872D01*
X127187105Y-82798872D01*
X127180652Y-82797500D01*
X126999348Y-82797500D01*
X126992895Y-82798872D01*
X126992891Y-82798872D01*
X126910676Y-82816348D01*
X126822005Y-82835195D01*
X126815976Y-82837879D01*
X126815974Y-82837880D01*
X126662405Y-82906254D01*
X126662403Y-82906255D01*
X126656375Y-82908939D01*
X126651034Y-82912819D01*
X126651033Y-82912820D01*
X126576438Y-82967016D01*
X126509696Y-83015507D01*
X126505283Y-83020409D01*
X126505281Y-83020410D01*
X126397381Y-83140245D01*
X126388379Y-83150243D01*
X126385076Y-83155964D01*
X126301471Y-83300773D01*
X126297727Y-83307257D01*
X126264575Y-83409291D01*
X126258328Y-83428516D01*
X126218255Y-83487122D01*
X126154840Y-83513921D01*
X126037239Y-83513921D01*
X126082869Y-83502621D01*
X126030595Y-83454646D01*
X126014046Y-83409291D01*
X125996456Y-83298230D01*
X125996456Y-83298229D01*
X125994905Y-83288438D01*
X125985810Y-83270587D01*
X125954786Y-83209700D01*
X125934433Y-83169755D01*
X125840245Y-83075567D01*
X125776790Y-83043235D01*
X125730396Y-83019596D01*
X125730395Y-83019596D01*
X125721562Y-83015095D01*
X125590000Y-82994258D01*
X125458438Y-83015095D01*
X125449605Y-83019596D01*
X125449604Y-83019596D01*
X125403210Y-83043235D01*
X125339755Y-83075567D01*
X125245567Y-83169755D01*
X125225214Y-83209700D01*
X125194191Y-83270587D01*
X125185095Y-83288438D01*
X125164258Y-83420000D01*
X120690500Y-83420000D01*
X120690500Y-82916956D01*
X120710502Y-82848835D01*
X120727405Y-82827860D01*
X120885266Y-82670000D01*
X123784258Y-82670000D01*
X123785809Y-82679793D01*
X123793682Y-82729500D01*
X123805095Y-82801562D01*
X123865567Y-82920245D01*
X123959755Y-83014433D01*
X124078438Y-83074905D01*
X124210000Y-83095742D01*
X124341562Y-83074905D01*
X124460245Y-83014433D01*
X124554433Y-82920245D01*
X124614905Y-82801562D01*
X124626318Y-82729500D01*
X124634191Y-82679793D01*
X124635742Y-82670000D01*
X124614905Y-82538438D01*
X124609528Y-82527884D01*
X124576547Y-82463156D01*
X124554433Y-82419755D01*
X124460245Y-82325567D01*
X124370699Y-82279941D01*
X124350396Y-82269596D01*
X124350395Y-82269596D01*
X124341562Y-82265095D01*
X124210000Y-82244258D01*
X124078438Y-82265095D01*
X124069605Y-82269596D01*
X124069604Y-82269596D01*
X124049301Y-82279941D01*
X123959755Y-82325567D01*
X123865567Y-82419755D01*
X123843453Y-82463156D01*
X123810473Y-82527884D01*
X123805095Y-82538438D01*
X123784258Y-82670000D01*
X120885266Y-82670000D01*
X120937862Y-82617404D01*
X121000174Y-82583379D01*
X121026957Y-82580500D01*
X122910838Y-82580500D01*
X122934448Y-82582732D01*
X122949729Y-82585647D01*
X122984512Y-82575146D01*
X122990846Y-82573413D01*
X123016089Y-82567213D01*
X123016090Y-82567213D01*
X123026128Y-82564747D01*
X123029864Y-82561454D01*
X123034632Y-82560014D01*
X123037393Y-82557872D01*
X123060401Y-82534864D01*
X123066171Y-82529445D01*
X123092654Y-82506097D01*
X123093401Y-82506944D01*
X123097792Y-82503409D01*
X123094824Y-82500441D01*
X124257860Y-81337405D01*
X124320172Y-81303379D01*
X124327314Y-81302611D01*
X124332920Y-81302964D01*
X124335748Y-81301705D01*
X124346955Y-81300500D01*
X126150218Y-81300500D01*
X126218339Y-81320502D01*
X126264832Y-81374158D01*
X126270049Y-81387560D01*
X126274177Y-81400264D01*
X126295049Y-81464500D01*
X126297727Y-81472743D01*
X126301030Y-81478465D01*
X126301031Y-81478466D01*
X126363978Y-81587493D01*
X126388379Y-81629757D01*
X126392797Y-81634664D01*
X126392798Y-81634665D01*
X126504058Y-81758231D01*
X126509696Y-81764493D01*
X126515035Y-81768372D01*
X126650233Y-81866599D01*
X126656374Y-81871061D01*
X126662402Y-81873745D01*
X126662404Y-81873746D01*
X126815974Y-81942120D01*
X126822005Y-81944805D01*
X126891230Y-81959519D01*
X126992891Y-81981128D01*
X126992895Y-81981128D01*
X126999348Y-81982500D01*
X127180652Y-81982500D01*
X127187105Y-81981128D01*
X127187109Y-81981128D01*
X127288770Y-81959519D01*
X127357995Y-81944805D01*
X127364026Y-81942120D01*
X127517596Y-81873746D01*
X127517598Y-81873745D01*
X127523626Y-81871061D01*
X127529768Y-81866599D01*
X127664965Y-81768372D01*
X127670304Y-81764493D01*
X127675943Y-81758231D01*
X127787202Y-81634665D01*
X127787203Y-81634664D01*
X127791621Y-81629757D01*
X127816022Y-81587493D01*
X127878969Y-81478466D01*
X127878970Y-81478465D01*
X127882273Y-81472743D01*
X127938299Y-81300312D01*
X127939425Y-81289604D01*
X127956561Y-81126565D01*
X127957251Y-81120000D01*
X127953136Y-81080850D01*
X127938989Y-80946252D01*
X127938989Y-80946251D01*
X127938299Y-80939688D01*
X127932065Y-80920500D01*
X127895599Y-80808270D01*
X127882273Y-80767257D01*
X127878966Y-80761528D01*
X127794924Y-80615964D01*
X127791621Y-80610243D01*
X127783669Y-80601411D01*
X127674719Y-80480410D01*
X127674717Y-80480409D01*
X127670304Y-80475507D01*
X127574373Y-80405809D01*
X127528968Y-80372820D01*
X127528967Y-80372819D01*
X127523626Y-80368939D01*
X127517598Y-80366255D01*
X127517596Y-80366254D01*
X127364026Y-80297880D01*
X127364024Y-80297879D01*
X127357995Y-80295195D01*
X127269323Y-80276347D01*
X127187109Y-80258872D01*
X127187105Y-80258872D01*
X127180652Y-80257500D01*
X126999348Y-80257500D01*
X126992895Y-80258872D01*
X126992891Y-80258872D01*
X126910677Y-80276347D01*
X126822005Y-80295195D01*
X126815976Y-80297879D01*
X126815974Y-80297880D01*
X126662405Y-80366254D01*
X126662403Y-80366255D01*
X126656375Y-80368939D01*
X126651034Y-80372819D01*
X126651033Y-80372820D01*
X126575169Y-80427938D01*
X126509696Y-80475507D01*
X126505283Y-80480409D01*
X126505281Y-80480410D01*
X126396331Y-80601411D01*
X126388379Y-80610243D01*
X126385076Y-80615964D01*
X126301035Y-80761528D01*
X126297727Y-80767257D01*
X126295686Y-80773539D01*
X126295685Y-80773541D01*
X126285466Y-80804994D01*
X126270325Y-80851594D01*
X126270051Y-80852436D01*
X126229978Y-80911042D01*
X126164581Y-80938679D01*
X126150218Y-80939500D01*
X125171839Y-80939500D01*
X125103718Y-80919498D01*
X125057225Y-80865842D01*
X125047121Y-80795568D01*
X125059572Y-80756297D01*
X125088310Y-80699896D01*
X125088310Y-80699895D01*
X125092811Y-80691062D01*
X125113648Y-80559500D01*
X125110743Y-80541155D01*
X125094362Y-80437731D01*
X125092811Y-80427938D01*
X125078991Y-80400814D01*
X125065886Y-80331039D01*
X125092585Y-80265254D01*
X125150611Y-80224347D01*
X125171546Y-80219162D01*
X125251770Y-80206456D01*
X125251771Y-80206456D01*
X125261562Y-80204905D01*
X125272928Y-80199114D01*
X125348604Y-80160555D01*
X125380245Y-80144433D01*
X125474433Y-80050245D01*
X125508274Y-79983829D01*
X125530404Y-79940396D01*
X125530404Y-79940395D01*
X125534905Y-79931562D01*
X125555742Y-79800000D01*
X125534905Y-79668438D01*
X125518694Y-79636621D01*
X125485467Y-79571411D01*
X125474433Y-79549755D01*
X125380245Y-79455567D01*
X125299515Y-79414433D01*
X125270394Y-79399595D01*
X125270393Y-79399595D01*
X125261562Y-79395095D01*
X125251771Y-79393544D01*
X125243497Y-79390856D01*
X125184891Y-79350783D01*
X125157253Y-79285387D01*
X125169359Y-79215430D01*
X125193337Y-79181928D01*
X125697860Y-78677405D01*
X125760172Y-78643379D01*
X125786955Y-78640500D01*
X127747945Y-78640500D01*
X127771555Y-78642732D01*
X127786836Y-78645647D01*
X127798972Y-78641983D01*
X127865929Y-78657889D01*
X127915166Y-78709038D01*
X127928934Y-78778687D01*
X127927898Y-78787017D01*
X127924258Y-78810000D01*
X127945095Y-78941562D01*
X127949596Y-78950395D01*
X127949596Y-78950396D01*
X127972798Y-78995933D01*
X128005567Y-79060245D01*
X128099755Y-79154433D01*
X128108588Y-79158933D01*
X128108587Y-79158933D01*
X128209589Y-79210396D01*
X128218438Y-79214905D01*
X128350000Y-79235742D01*
X128481562Y-79214905D01*
X128490412Y-79210396D01*
X128591413Y-79158933D01*
X128591412Y-79158933D01*
X128600245Y-79154433D01*
X128694433Y-79060245D01*
X128727202Y-78995933D01*
X128750404Y-78950396D01*
X128750404Y-78950395D01*
X128754905Y-78941562D01*
X128775742Y-78810000D01*
X128774191Y-78800207D01*
X128774191Y-78796500D01*
X128794193Y-78728379D01*
X128847849Y-78681886D01*
X128900191Y-78670500D01*
X132984838Y-78670500D01*
X133008448Y-78672732D01*
X133023729Y-78675647D01*
X133058512Y-78665146D01*
X133064846Y-78663413D01*
X133090089Y-78657213D01*
X133090090Y-78657213D01*
X133100128Y-78654747D01*
X133103864Y-78651454D01*
X133108632Y-78650014D01*
X133111393Y-78647872D01*
X133134401Y-78624864D01*
X133140171Y-78619445D01*
X133166654Y-78596097D01*
X133167401Y-78596944D01*
X133171792Y-78593409D01*
X133168824Y-78590441D01*
X133909123Y-77850142D01*
X133971435Y-77816116D01*
X134042250Y-77821181D01*
X134049464Y-77824129D01*
X134063539Y-77830396D01*
X134172970Y-77879119D01*
X134172978Y-77879122D01*
X134179005Y-77881805D01*
X134266498Y-77900402D01*
X134349891Y-77918128D01*
X134349895Y-77918128D01*
X134356348Y-77919500D01*
X134537652Y-77919500D01*
X134544105Y-77918128D01*
X134544109Y-77918128D01*
X134627502Y-77900402D01*
X134714995Y-77881805D01*
X134736117Y-77872401D01*
X134874596Y-77810746D01*
X134874598Y-77810745D01*
X134880626Y-77808061D01*
X134929784Y-77772346D01*
X135021965Y-77705372D01*
X135027304Y-77701493D01*
X135037653Y-77690000D01*
X135144202Y-77571665D01*
X135144203Y-77571664D01*
X135148621Y-77566757D01*
X135201017Y-77476004D01*
X135235969Y-77415466D01*
X135235970Y-77415465D01*
X135239273Y-77409743D01*
X135279469Y-77286032D01*
X135293259Y-77243591D01*
X135293259Y-77243590D01*
X135295299Y-77237312D01*
X135314251Y-77057000D01*
X135316504Y-77057237D01*
X135333563Y-76999140D01*
X135387219Y-76952647D01*
X135457493Y-76942543D01*
X135508616Y-76963294D01*
X135509755Y-76964433D01*
X135628438Y-77024905D01*
X135638231Y-77026456D01*
X135722433Y-77039792D01*
X135760000Y-77045742D01*
X135797568Y-77039792D01*
X135881769Y-77026456D01*
X135891562Y-77024905D01*
X135929541Y-77005554D01*
X135941599Y-76999410D01*
X136011376Y-76986306D01*
X136077161Y-77013006D01*
X136118067Y-77071034D01*
X136124111Y-77098504D01*
X136138701Y-77237312D01*
X136140741Y-77243590D01*
X136140741Y-77243591D01*
X136154531Y-77286032D01*
X136194727Y-77409743D01*
X136198030Y-77415465D01*
X136198031Y-77415466D01*
X136232983Y-77476004D01*
X136285379Y-77566757D01*
X136289797Y-77571664D01*
X136289798Y-77571665D01*
X136396348Y-77690000D01*
X136406696Y-77701493D01*
X136412035Y-77705372D01*
X136504217Y-77772346D01*
X136553374Y-77808061D01*
X136559402Y-77810745D01*
X136559404Y-77810746D01*
X136697883Y-77872401D01*
X136719005Y-77881805D01*
X136806498Y-77900402D01*
X136889891Y-77918128D01*
X136889895Y-77918128D01*
X136896348Y-77919500D01*
X137077652Y-77919500D01*
X137084105Y-77918128D01*
X137084109Y-77918128D01*
X137167502Y-77900402D01*
X137254995Y-77881805D01*
X137276117Y-77872401D01*
X137414596Y-77810746D01*
X137414598Y-77810745D01*
X137420626Y-77808061D01*
X137469784Y-77772346D01*
X137561965Y-77705372D01*
X137567304Y-77701493D01*
X137577653Y-77690000D01*
X137684202Y-77571665D01*
X137684203Y-77571664D01*
X137688621Y-77566757D01*
X137741017Y-77476004D01*
X137775969Y-77415466D01*
X137775970Y-77415465D01*
X137779273Y-77409743D01*
X137819469Y-77286032D01*
X137833259Y-77243591D01*
X137833259Y-77243590D01*
X137835299Y-77237312D01*
X137849685Y-77100441D01*
X137876698Y-77034784D01*
X137934920Y-76994155D01*
X138005865Y-76991452D01*
X138032197Y-77001345D01*
X138069601Y-77020403D01*
X138069605Y-77020404D01*
X138078438Y-77024905D01*
X138088231Y-77026456D01*
X138172433Y-77039792D01*
X138210000Y-77045742D01*
X138247568Y-77039792D01*
X138331769Y-77026456D01*
X138341562Y-77024905D01*
X138369251Y-77010797D01*
X138451412Y-76968934D01*
X138451414Y-76968933D01*
X138460245Y-76964433D01*
X138463301Y-76961377D01*
X138527244Y-76938561D01*
X138596396Y-76954640D01*
X138645877Y-77005554D01*
X138658646Y-77057116D01*
X138659749Y-77057000D01*
X138678701Y-77237312D01*
X138680741Y-77243590D01*
X138680741Y-77243591D01*
X138694531Y-77286032D01*
X138734727Y-77409743D01*
X138738030Y-77415465D01*
X138738031Y-77415466D01*
X138772983Y-77476004D01*
X138825379Y-77566757D01*
X138829797Y-77571664D01*
X138829798Y-77571665D01*
X138936348Y-77690000D01*
X138946696Y-77701493D01*
X138952035Y-77705372D01*
X139044217Y-77772346D01*
X139093374Y-77808061D01*
X139099402Y-77810745D01*
X139099404Y-77810746D01*
X139237883Y-77872401D01*
X139259005Y-77881805D01*
X139346498Y-77900402D01*
X139429891Y-77918128D01*
X139429895Y-77918128D01*
X139436348Y-77919500D01*
X139617652Y-77919500D01*
X139624105Y-77918128D01*
X139624109Y-77918128D01*
X139707502Y-77900402D01*
X139794995Y-77881805D01*
X139816117Y-77872401D01*
X139954596Y-77810746D01*
X139954598Y-77810745D01*
X139960626Y-77808061D01*
X140009464Y-77772578D01*
X140074380Y-77725414D01*
X140141248Y-77701555D01*
X140210399Y-77717636D01*
X140259880Y-77768550D01*
X140272890Y-77807640D01*
X140275095Y-77821562D01*
X140279596Y-77830395D01*
X140279596Y-77830396D01*
X140286078Y-77843117D01*
X140335567Y-77940245D01*
X140429755Y-78034433D01*
X140451475Y-78045500D01*
X140517125Y-78078950D01*
X140548438Y-78094905D01*
X140558231Y-78096456D01*
X140661526Y-78112816D01*
X140680000Y-78115742D01*
X140698475Y-78112816D01*
X140801769Y-78096456D01*
X140811562Y-78094905D01*
X140842876Y-78078950D01*
X140908525Y-78045500D01*
X140930245Y-78034433D01*
X141024433Y-77940245D01*
X141028934Y-77931411D01*
X141028937Y-77931407D01*
X141050595Y-77888899D01*
X141099342Y-77837284D01*
X141168257Y-77820217D01*
X141235459Y-77843117D01*
X141251957Y-77857006D01*
X141691959Y-78297008D01*
X141707075Y-78315279D01*
X141715824Y-78328152D01*
X141729259Y-78335356D01*
X141747838Y-78345318D01*
X141753559Y-78348581D01*
X141784625Y-78367395D01*
X141789594Y-78367708D01*
X141793985Y-78370062D01*
X141797452Y-78370500D01*
X141830021Y-78370500D01*
X141837932Y-78370749D01*
X141869450Y-78372732D01*
X141873137Y-78372964D01*
X141873066Y-78374091D01*
X141878671Y-78374697D01*
X141878671Y-78370500D01*
X143444838Y-78370500D01*
X143468448Y-78372732D01*
X143483729Y-78375647D01*
X143518512Y-78365146D01*
X143524846Y-78363413D01*
X143550089Y-78357213D01*
X143550090Y-78357213D01*
X143560128Y-78354747D01*
X143563864Y-78351454D01*
X143568632Y-78350014D01*
X143571393Y-78347872D01*
X143594401Y-78324864D01*
X143600171Y-78319445D01*
X143626654Y-78296097D01*
X143627401Y-78296944D01*
X143631792Y-78293409D01*
X143628824Y-78290441D01*
X144069123Y-77850142D01*
X144131435Y-77816116D01*
X144202250Y-77821181D01*
X144209464Y-77824129D01*
X144223539Y-77830396D01*
X144332970Y-77879119D01*
X144332978Y-77879122D01*
X144339005Y-77881805D01*
X144426498Y-77900402D01*
X144509891Y-77918128D01*
X144509895Y-77918128D01*
X144516348Y-77919500D01*
X144697652Y-77919500D01*
X144704105Y-77918128D01*
X144704109Y-77918128D01*
X144787502Y-77900402D01*
X144874995Y-77881805D01*
X144896117Y-77872401D01*
X145034596Y-77810746D01*
X145034598Y-77810745D01*
X145040626Y-77808061D01*
X145089784Y-77772346D01*
X145181965Y-77705372D01*
X145187304Y-77701493D01*
X145197653Y-77690000D01*
X145304202Y-77571665D01*
X145304203Y-77571664D01*
X145308621Y-77566757D01*
X145361017Y-77476004D01*
X145395969Y-77415466D01*
X145395970Y-77415465D01*
X145399273Y-77409743D01*
X145439469Y-77286032D01*
X145453259Y-77243591D01*
X145453259Y-77243590D01*
X145455299Y-77237312D01*
X145474251Y-77057000D01*
X145467594Y-76993661D01*
X145455989Y-76883252D01*
X145455989Y-76883251D01*
X145455299Y-76876688D01*
X145453259Y-76870409D01*
X145451886Y-76863951D01*
X145453344Y-76863641D01*
X145451541Y-76800376D01*
X145488208Y-76739581D01*
X145551923Y-76708261D01*
X145622456Y-76716359D01*
X145630595Y-76720147D01*
X145718438Y-76764905D01*
X145850000Y-76785742D01*
X145981562Y-76764905D01*
X146100245Y-76704433D01*
X146107257Y-76697421D01*
X146115277Y-76691594D01*
X146116323Y-76693033D01*
X146168330Y-76664634D01*
X146239145Y-76669699D01*
G37*
G04 #@! TD.AperFunction*
G04 #@! TA.AperFunction,Conductor*
G36*
X118655369Y-77728023D02*
G01*
X118685398Y-77744143D01*
X118733854Y-77779348D01*
X118773374Y-77808061D01*
X118779402Y-77810745D01*
X118779404Y-77810746D01*
X118917883Y-77872401D01*
X118939005Y-77881805D01*
X119026498Y-77900402D01*
X119109891Y-77918128D01*
X119109895Y-77918128D01*
X119116348Y-77919500D01*
X119297652Y-77919500D01*
X119304105Y-77918128D01*
X119304109Y-77918128D01*
X119387502Y-77900402D01*
X119474995Y-77881805D01*
X119496117Y-77872401D01*
X119604533Y-77824131D01*
X119674900Y-77814697D01*
X119739197Y-77844803D01*
X119744877Y-77850143D01*
X121331745Y-79437011D01*
X121346862Y-79455284D01*
X121355607Y-79468152D01*
X121369043Y-79475357D01*
X121369045Y-79475358D01*
X121387621Y-79485318D01*
X121393342Y-79488581D01*
X121424407Y-79507394D01*
X121423806Y-79508386D01*
X121427629Y-79510969D01*
X121429377Y-79507708D01*
X121433768Y-79510062D01*
X121431779Y-79513772D01*
X121472207Y-79541080D01*
X121487388Y-79564193D01*
X121495567Y-79580245D01*
X121589755Y-79674433D01*
X121598588Y-79678933D01*
X121598587Y-79678933D01*
X121665174Y-79712861D01*
X121716789Y-79761609D01*
X121733855Y-79830524D01*
X121710954Y-79897726D01*
X121682035Y-79927062D01*
X121678589Y-79929566D01*
X121669755Y-79934067D01*
X121575567Y-80028255D01*
X121568863Y-80041413D01*
X121519944Y-80137422D01*
X121515095Y-80146938D01*
X121513544Y-80156729D01*
X121513544Y-80156730D01*
X121504915Y-80211211D01*
X121474502Y-80275364D01*
X121414234Y-80312891D01*
X121380466Y-80317500D01*
X120064259Y-80317500D01*
X119996138Y-80297498D01*
X119949645Y-80243842D01*
X119939541Y-80173568D01*
X119969035Y-80108988D01*
X119975164Y-80102405D01*
X120237005Y-79840564D01*
X120255277Y-79825447D01*
X120255544Y-79825266D01*
X120255545Y-79825265D01*
X120268152Y-79816697D01*
X120285334Y-79784653D01*
X120288579Y-79778965D01*
X120307395Y-79747896D01*
X120307708Y-79742927D01*
X120310062Y-79738536D01*
X120310500Y-79735069D01*
X120310500Y-79730227D01*
X120310570Y-79730008D01*
X120310612Y-79729334D01*
X120312029Y-79725433D01*
X120315031Y-79716026D01*
X120315404Y-79716145D01*
X120334856Y-79662605D01*
X120365008Y-79637000D01*
X120363385Y-79634766D01*
X120371413Y-79628933D01*
X120380245Y-79624433D01*
X120474433Y-79530245D01*
X120506257Y-79467787D01*
X120530404Y-79420396D01*
X120530404Y-79420395D01*
X120534905Y-79411562D01*
X120555742Y-79280000D01*
X120534905Y-79148438D01*
X120474433Y-79029755D01*
X120380245Y-78935567D01*
X120261562Y-78875095D01*
X120130000Y-78854258D01*
X119998438Y-78875095D01*
X119879755Y-78935567D01*
X119785567Y-79029755D01*
X119725095Y-79148438D01*
X119704258Y-79280000D01*
X119725095Y-79411562D01*
X119729596Y-79420395D01*
X119729596Y-79420396D01*
X119753743Y-79467787D01*
X119785567Y-79530245D01*
X119822086Y-79566764D01*
X119856112Y-79629076D01*
X119851047Y-79699891D01*
X119822088Y-79744951D01*
X118364444Y-81202595D01*
X118302132Y-81236621D01*
X118275349Y-81239500D01*
X116819162Y-81239500D01*
X116795552Y-81237268D01*
X116795248Y-81237210D01*
X116780271Y-81234353D01*
X116745488Y-81244854D01*
X116739153Y-81246587D01*
X116703872Y-81255253D01*
X116700136Y-81258546D01*
X116695368Y-81259986D01*
X116692606Y-81262128D01*
X116669591Y-81285143D01*
X116663823Y-81290561D01*
X116637347Y-81313903D01*
X116636599Y-81313055D01*
X116632208Y-81316590D01*
X116635176Y-81319558D01*
X116080989Y-81873746D01*
X115528879Y-82425856D01*
X115510607Y-82440973D01*
X115510340Y-82441154D01*
X115510339Y-82441155D01*
X115497732Y-82449723D01*
X115480550Y-82481767D01*
X115477305Y-82487455D01*
X115458489Y-82518524D01*
X115458176Y-82523493D01*
X115455822Y-82527884D01*
X115455384Y-82531351D01*
X115455384Y-82563920D01*
X115455135Y-82571831D01*
X115452920Y-82607036D01*
X115451793Y-82606965D01*
X115451187Y-82612570D01*
X115455384Y-82612570D01*
X115455384Y-84946722D01*
X115453151Y-84970339D01*
X115452852Y-84971904D01*
X115420433Y-85035064D01*
X115359012Y-85070673D01*
X115288090Y-85067422D01*
X115271884Y-85060545D01*
X115241562Y-85045095D01*
X115110000Y-85024258D01*
X114978438Y-85045095D01*
X114969605Y-85049596D01*
X114969604Y-85049596D01*
X114944126Y-85062578D01*
X114859755Y-85105567D01*
X114765567Y-85199755D01*
X114705095Y-85318438D01*
X114684258Y-85450000D01*
X114685809Y-85459793D01*
X114691450Y-85495409D01*
X114705095Y-85581562D01*
X114709596Y-85590395D01*
X114709596Y-85590396D01*
X114732371Y-85635095D01*
X114765567Y-85700245D01*
X114859755Y-85794433D01*
X114978438Y-85854905D01*
X114988231Y-85856456D01*
X115100207Y-85874191D01*
X115110000Y-85875742D01*
X115118177Y-85874447D01*
X115185426Y-85894193D01*
X115231919Y-85947849D01*
X115242023Y-86018123D01*
X115238760Y-86032151D01*
X115236037Y-86037496D01*
X115234486Y-86047289D01*
X115219559Y-86141539D01*
X115215200Y-86169058D01*
X115236037Y-86300620D01*
X115240538Y-86309453D01*
X115240538Y-86309454D01*
X115260114Y-86347873D01*
X115296509Y-86419303D01*
X115390697Y-86513491D01*
X115399530Y-86517992D01*
X115399532Y-86517993D01*
X115481340Y-86559676D01*
X115532956Y-86608424D01*
X115550022Y-86677339D01*
X115544818Y-86706184D01*
X115542189Y-86711344D01*
X115526480Y-86810534D01*
X115523811Y-86827383D01*
X115493399Y-86891536D01*
X115433131Y-86929063D01*
X115379652Y-86932122D01*
X115339793Y-86925809D01*
X115330000Y-86924258D01*
X115198438Y-86945095D01*
X115189605Y-86949596D01*
X115189604Y-86949596D01*
X115165158Y-86962052D01*
X115079755Y-87005567D01*
X114985567Y-87099755D01*
X114977056Y-87116459D01*
X114931569Y-87205733D01*
X114925095Y-87218438D01*
X114910010Y-87313686D01*
X114905769Y-87340461D01*
X114875357Y-87404614D01*
X114815089Y-87442142D01*
X114786377Y-87446061D01*
X114780942Y-87445200D01*
X114649380Y-87466037D01*
X114530697Y-87526509D01*
X114436509Y-87620697D01*
X114376037Y-87739380D01*
X114374486Y-87749174D01*
X114373198Y-87757305D01*
X114342787Y-87821459D01*
X114282520Y-87858987D01*
X114211530Y-87857975D01*
X114159654Y-87826692D01*
X111817405Y-85484444D01*
X111783380Y-85422132D01*
X111780500Y-85395349D01*
X111780500Y-84890123D01*
X111800502Y-84822002D01*
X111832030Y-84788619D01*
X111840245Y-84784433D01*
X111934433Y-84690245D01*
X111983847Y-84593265D01*
X111990404Y-84580396D01*
X111990404Y-84580395D01*
X111994905Y-84571562D01*
X112015742Y-84440000D01*
X111994905Y-84308438D01*
X111988668Y-84296196D01*
X111954059Y-84228273D01*
X111934433Y-84189755D01*
X111840245Y-84095567D01*
X111745013Y-84047044D01*
X111730396Y-84039596D01*
X111730395Y-84039596D01*
X111721562Y-84035095D01*
X111644564Y-84022900D01*
X111599793Y-84015809D01*
X111590000Y-84014258D01*
X111580207Y-84015809D01*
X111535436Y-84022900D01*
X111458438Y-84035095D01*
X111449605Y-84039596D01*
X111449604Y-84039596D01*
X111434987Y-84047044D01*
X111339755Y-84095567D01*
X111245567Y-84189755D01*
X111225941Y-84228273D01*
X111191333Y-84296196D01*
X111185095Y-84308438D01*
X111164258Y-84440000D01*
X111185095Y-84571562D01*
X111189596Y-84580395D01*
X111189596Y-84580396D01*
X111196153Y-84593265D01*
X111245567Y-84690245D01*
X111324334Y-84769012D01*
X111358360Y-84831324D01*
X111353295Y-84902139D01*
X111310748Y-84958975D01*
X111244228Y-84983786D01*
X111215532Y-84982556D01*
X111100000Y-84964258D01*
X111090207Y-84965809D01*
X111081071Y-84967256D01*
X110968438Y-84985095D01*
X110849755Y-85045567D01*
X110764595Y-85130727D01*
X110702283Y-85164753D01*
X110631468Y-85159688D01*
X110574632Y-85117141D01*
X110549821Y-85050621D01*
X110549500Y-85041632D01*
X110549500Y-84105651D01*
X110569502Y-84037530D01*
X110586405Y-84016556D01*
X112757005Y-81845956D01*
X112775277Y-81830839D01*
X112775544Y-81830658D01*
X112775545Y-81830657D01*
X112788152Y-81822089D01*
X112805334Y-81790045D01*
X112808579Y-81784357D01*
X112827395Y-81753288D01*
X112827708Y-81748319D01*
X112830062Y-81743928D01*
X112830500Y-81740461D01*
X112830500Y-81707892D01*
X112830749Y-81699980D01*
X112832964Y-81664776D01*
X112834091Y-81664847D01*
X112834697Y-81659242D01*
X112830500Y-81659242D01*
X112830500Y-81437183D01*
X112850502Y-81369062D01*
X112885378Y-81337510D01*
X112883385Y-81334766D01*
X112891413Y-81328933D01*
X112900245Y-81324433D01*
X112994433Y-81230245D01*
X113035343Y-81149954D01*
X113050404Y-81120396D01*
X113050404Y-81120395D01*
X113054905Y-81111562D01*
X113065677Y-81043550D01*
X113074191Y-80989793D01*
X113075742Y-80980000D01*
X113054905Y-80848438D01*
X113038347Y-80815940D01*
X112998933Y-80738587D01*
X112994433Y-80729755D01*
X112984023Y-80719345D01*
X112949997Y-80657033D01*
X112955062Y-80586218D01*
X112984023Y-80541155D01*
X113004711Y-80520467D01*
X113067023Y-80486441D01*
X113137838Y-80491506D01*
X113194674Y-80534053D01*
X113206073Y-80552360D01*
X113231065Y-80601411D01*
X113231068Y-80601415D01*
X113235567Y-80610245D01*
X113329755Y-80704433D01*
X113363343Y-80721547D01*
X113436537Y-80758841D01*
X113448438Y-80764905D01*
X113580000Y-80785742D01*
X113589793Y-80784191D01*
X113660529Y-80772988D01*
X113730940Y-80782088D01*
X113762410Y-80808270D01*
X113765360Y-80804994D01*
X113776693Y-80815198D01*
X113785262Y-80827807D01*
X113817271Y-80844970D01*
X113822988Y-80848232D01*
X113845212Y-80861691D01*
X113845213Y-80861691D01*
X113854063Y-80867051D01*
X113859034Y-80867364D01*
X113863423Y-80869717D01*
X113866890Y-80870155D01*
X113899453Y-80870155D01*
X113907364Y-80870404D01*
X113942575Y-80872619D01*
X113942504Y-80873746D01*
X113948109Y-80874352D01*
X113948109Y-80870155D01*
X114587980Y-80870155D01*
X114656101Y-80890157D01*
X114702594Y-80943813D01*
X114712698Y-81014087D01*
X114708664Y-81031433D01*
X114705095Y-81038438D01*
X114684258Y-81170000D01*
X114705095Y-81301562D01*
X114765567Y-81420245D01*
X114773308Y-81427986D01*
X114773911Y-81429091D01*
X114778406Y-81435277D01*
X114777607Y-81435858D01*
X114807334Y-81490298D01*
X114802269Y-81561113D01*
X114759722Y-81617949D01*
X114695393Y-81641943D01*
X114692787Y-81641530D01*
X114561225Y-81662367D01*
X114552392Y-81666868D01*
X114552391Y-81666868D01*
X114526137Y-81680245D01*
X114442542Y-81722839D01*
X114348354Y-81817027D01*
X114341215Y-81831039D01*
X114290275Y-81931013D01*
X114241527Y-81982628D01*
X114172612Y-81999694D01*
X114105410Y-81976793D01*
X114066403Y-81927675D01*
X114064905Y-81928438D01*
X114050211Y-81899599D01*
X114004433Y-81809755D01*
X113910245Y-81715567D01*
X113840922Y-81680245D01*
X113800396Y-81659596D01*
X113800395Y-81659596D01*
X113791562Y-81655095D01*
X113715707Y-81643081D01*
X113669793Y-81635809D01*
X113660000Y-81634258D01*
X113650207Y-81635809D01*
X113604293Y-81643081D01*
X113528438Y-81655095D01*
X113519605Y-81659596D01*
X113519604Y-81659596D01*
X113479078Y-81680245D01*
X113409755Y-81715567D01*
X113315567Y-81809755D01*
X113292465Y-81855095D01*
X113260959Y-81916930D01*
X113255095Y-81928438D01*
X113253544Y-81938231D01*
X113236052Y-82048676D01*
X113234258Y-82060000D01*
X113255095Y-82191562D01*
X113315567Y-82310245D01*
X113409755Y-82404433D01*
X113451800Y-82425856D01*
X113510920Y-82455979D01*
X113528438Y-82464905D01*
X113660000Y-82485742D01*
X113791562Y-82464905D01*
X113809081Y-82455979D01*
X113868200Y-82425856D01*
X113910245Y-82404433D01*
X114004433Y-82310245D01*
X114031348Y-82257422D01*
X114062512Y-82196259D01*
X114111260Y-82144644D01*
X114180175Y-82127578D01*
X114247377Y-82150479D01*
X114286384Y-82199597D01*
X114287882Y-82198834D01*
X114348354Y-82317517D01*
X114442542Y-82411705D01*
X114470315Y-82425856D01*
X114529435Y-82455979D01*
X114561225Y-82472177D01*
X114571018Y-82473728D01*
X114642788Y-82485095D01*
X114692787Y-82493014D01*
X114742787Y-82485095D01*
X114814556Y-82473728D01*
X114824349Y-82472177D01*
X114856140Y-82455979D01*
X114915259Y-82425856D01*
X114943032Y-82411705D01*
X115037220Y-82317517D01*
X115097692Y-82198834D01*
X115118529Y-82067272D01*
X115097692Y-81935710D01*
X115092423Y-81925368D01*
X115048307Y-81838786D01*
X115037220Y-81817027D01*
X115029479Y-81809286D01*
X115028876Y-81808181D01*
X115024381Y-81801995D01*
X115025180Y-81801414D01*
X114995453Y-81746974D01*
X115000518Y-81676159D01*
X115043065Y-81619323D01*
X115107394Y-81595329D01*
X115110000Y-81595742D01*
X115144872Y-81590219D01*
X115231769Y-81576456D01*
X115241562Y-81574905D01*
X115250412Y-81570396D01*
X115335995Y-81526789D01*
X115360245Y-81514433D01*
X115454433Y-81420245D01*
X115514905Y-81301562D01*
X115535742Y-81170000D01*
X115526487Y-81111562D01*
X115516456Y-81048231D01*
X115514905Y-81038438D01*
X115510403Y-81029603D01*
X115510402Y-81029599D01*
X115463940Y-80938413D01*
X115450835Y-80868637D01*
X115477535Y-80802852D01*
X115487111Y-80792115D01*
X117243283Y-79035943D01*
X117305595Y-79001917D01*
X117376410Y-79006982D01*
X117433246Y-79049529D01*
X117444645Y-79067835D01*
X117445462Y-79069438D01*
X117486635Y-79150245D01*
X117580823Y-79244433D01*
X117589656Y-79248933D01*
X117589655Y-79248933D01*
X117690604Y-79300369D01*
X117699506Y-79304905D01*
X117831068Y-79325742D01*
X117962630Y-79304905D01*
X117971533Y-79300369D01*
X118072481Y-79248933D01*
X118072480Y-79248933D01*
X118081313Y-79244433D01*
X118175501Y-79150245D01*
X118211417Y-79079755D01*
X118231472Y-79040396D01*
X118231472Y-79040395D01*
X118235973Y-79031562D01*
X118256810Y-78900000D01*
X118235973Y-78768438D01*
X118175501Y-78649755D01*
X118081313Y-78555567D01*
X117998903Y-78513577D01*
X117947288Y-78464829D01*
X117930222Y-78395914D01*
X117953123Y-78328712D01*
X117967011Y-78312215D01*
X118522242Y-77756984D01*
X118584554Y-77722958D01*
X118655369Y-77728023D01*
G37*
G04 #@! TD.AperFunction*
M02*
