G04 #@! TF.GenerationSoftware,KiCad,Pcbnew,(6.0.7-1)-1*
G04 #@! TF.CreationDate,2022-09-05T08:39:56-04:00*
G04 #@! TF.ProjectId,F405_pill,46343035-5f70-4696-9c6c-2e6b69636164,rev?*
G04 #@! TF.SameCoordinates,Original*
G04 #@! TF.FileFunction,Copper,L3,Inr*
G04 #@! TF.FilePolarity,Positive*
%FSLAX46Y46*%
G04 Gerber Fmt 4.6, Leading zero omitted, Abs format (unit mm)*
G04 Created by KiCad (PCBNEW (6.0.7-1)-1) date 2022-09-05 08:39:56*
%MOMM*%
%LPD*%
G01*
G04 APERTURE LIST*
G04 #@! TA.AperFunction,ComponentPad*
%ADD10C,1.524000*%
G04 #@! TD*
G04 #@! TA.AperFunction,ComponentPad*
%ADD11O,2.100000X1.050000*%
G04 #@! TD*
G04 #@! TA.AperFunction,ViaPad*
%ADD12C,0.600000*%
G04 #@! TD*
G04 #@! TA.AperFunction,ViaPad*
%ADD13C,0.800000*%
G04 #@! TD*
G04 APERTURE END LIST*
D10*
X146982000Y-88222000D03*
X146982000Y-85682000D03*
X146982000Y-83142000D03*
X146982000Y-80602000D03*
X129800000Y-84130000D03*
X129800000Y-86670000D03*
X130070000Y-89300000D03*
X127530000Y-89300000D03*
X147147000Y-77057000D03*
X144607000Y-77057000D03*
X142067000Y-77057000D03*
X139527000Y-77057000D03*
X136987000Y-77057000D03*
X134447000Y-77057000D03*
X131907000Y-77057000D03*
X129367000Y-77057000D03*
X126827000Y-77057000D03*
X124287000Y-77057000D03*
X121747000Y-77057000D03*
X119207000Y-77057000D03*
X116667000Y-77057000D03*
X114127000Y-77057000D03*
X111587000Y-77057000D03*
X109047000Y-77057000D03*
X106507000Y-77057000D03*
X103967000Y-77057000D03*
X101427000Y-77057000D03*
X98887000Y-77057000D03*
X98887000Y-92297000D03*
X101427000Y-92297000D03*
X103967000Y-92297000D03*
X106507000Y-92297000D03*
X109047000Y-92297000D03*
X111587000Y-92297000D03*
X114103395Y-92306993D03*
X116667000Y-92297000D03*
X119207000Y-92297000D03*
X121747000Y-92297000D03*
X124287000Y-92297000D03*
X126827000Y-92297000D03*
X129367000Y-92297000D03*
X131907000Y-92297000D03*
X134447000Y-92297000D03*
X136987000Y-92297000D03*
X139527000Y-92297000D03*
X142067000Y-92297000D03*
X144607000Y-92297000D03*
X147147000Y-92297000D03*
X102882000Y-81502000D03*
X102882000Y-84042000D03*
X102882000Y-86582000D03*
X102882000Y-89122000D03*
D11*
X99862000Y-80392000D03*
X99862000Y-89032000D03*
X95682000Y-80392000D03*
X95682000Y-89032000D03*
D12*
X145570000Y-76370000D03*
X122690000Y-79360000D03*
X99260000Y-85600000D03*
X113620000Y-85600000D03*
X113700000Y-80310000D03*
X140932000Y-78452000D03*
X138560000Y-77820000D03*
X115390000Y-77180000D03*
X144300000Y-83900000D03*
X116094994Y-86815006D03*
X133170000Y-92540000D03*
D13*
X137016628Y-80270657D03*
D12*
X122740000Y-92940500D03*
X107330000Y-75700000D03*
X128120000Y-92750000D03*
X119980000Y-83450000D03*
X141782000Y-83512000D03*
X121400000Y-85600000D03*
X117010000Y-82650000D03*
X135700000Y-91910000D03*
X109430000Y-82260000D03*
X107760000Y-90320000D03*
X122480000Y-87300000D03*
D13*
X136682000Y-89712000D03*
D12*
X108690000Y-80830000D03*
X127570000Y-77960000D03*
X110960000Y-89060000D03*
X133100000Y-77370000D03*
X114680000Y-82000000D03*
X112900000Y-92690000D03*
D13*
X105182000Y-83112000D03*
D12*
X110310000Y-92730000D03*
X143090000Y-76410000D03*
X135470000Y-83610000D03*
X117900000Y-77180000D03*
X102150000Y-93270000D03*
X127620000Y-85860000D03*
X147430000Y-82000000D03*
X115640000Y-82560000D03*
X117831068Y-78900000D03*
X125020000Y-82680000D03*
X110483300Y-85976700D03*
X126890000Y-88270000D03*
X112020000Y-87320000D03*
X117940000Y-91980000D03*
D13*
X105667000Y-90354000D03*
D12*
X123000000Y-77250000D03*
X115540000Y-84490000D03*
X125530000Y-92410000D03*
X124210000Y-82670000D03*
X100182000Y-93489300D03*
X105200000Y-92690000D03*
X112560000Y-77730000D03*
X120460000Y-77220000D03*
X140700000Y-92520000D03*
X113241500Y-88330000D03*
X131090000Y-84250000D03*
X120200000Y-87091500D03*
X109972088Y-77855560D03*
X95550000Y-84020000D03*
X111918838Y-83102665D03*
D13*
X122766000Y-90521000D03*
X119337000Y-89196696D03*
X105634000Y-78456000D03*
D12*
X100182000Y-75912000D03*
X114640000Y-88815500D03*
X116160000Y-85230500D03*
X108670000Y-87820000D03*
X135440000Y-76360000D03*
X130360000Y-77840000D03*
D13*
X104876000Y-85013000D03*
D12*
X127730000Y-83380000D03*
X108800000Y-84500000D03*
X132800000Y-79500000D03*
X112230000Y-80550000D03*
X105741000Y-89379000D03*
X120286800Y-92913200D03*
X107560000Y-93450000D03*
X95520000Y-85990000D03*
X112460000Y-85300000D03*
X108614000Y-87008000D03*
X107814000Y-89383000D03*
X115340000Y-89170000D03*
X136140657Y-81540657D03*
X97907500Y-82840000D03*
D13*
X137250000Y-85126000D03*
D12*
X97443573Y-86853266D03*
X107910000Y-80654500D03*
X108140000Y-81347638D03*
X108800000Y-81850000D03*
X108864000Y-82733000D03*
X108089000Y-84808000D03*
X108839000Y-85308000D03*
X109772378Y-85499622D03*
X119432000Y-87362000D03*
X127700000Y-86600000D03*
X126950000Y-85559500D03*
X116708985Y-87211015D03*
X114990000Y-83010000D03*
X120130000Y-79280000D03*
X116839000Y-84978000D03*
X116264000Y-84453500D03*
X115839000Y-83783000D03*
X116489000Y-83208000D03*
X123470000Y-79420000D03*
X116170000Y-82037815D03*
X122180000Y-79933500D03*
X115160000Y-81340000D03*
X114439655Y-80189655D03*
X128350000Y-78810000D03*
X113414000Y-81008000D03*
X114357000Y-85462000D03*
X113732000Y-84762000D03*
X108049122Y-75859122D03*
X110880500Y-82820000D03*
X111290000Y-83470000D03*
X111920000Y-83920000D03*
X111500000Y-88530000D03*
X112189000Y-88108000D03*
X113264000Y-87583000D03*
X113980000Y-88430000D03*
X113945390Y-89210269D03*
X134700000Y-83700000D03*
X135400000Y-84400000D03*
X117520000Y-91320000D03*
X98440000Y-79710000D03*
X98305007Y-90184993D03*
X119739000Y-84208000D03*
X127230000Y-82780000D03*
X110438500Y-88500000D03*
X108390000Y-88560000D03*
G04 #@! TA.AperFunction,Conductor*
G36*
X148090157Y-75008196D02*
G01*
X148126121Y-75057696D01*
X148130966Y-75088289D01*
X148130966Y-76670380D01*
X148112059Y-76728571D01*
X148062559Y-76764535D01*
X148001373Y-76764535D01*
X147951873Y-76728571D01*
X147941525Y-76710648D01*
X147940875Y-76709187D01*
X147939273Y-76704257D01*
X147848621Y-76547243D01*
X147839636Y-76537264D01*
X147730774Y-76416360D01*
X147730770Y-76416356D01*
X147727304Y-76412507D01*
X147580626Y-76305939D01*
X147575894Y-76303832D01*
X147575892Y-76303831D01*
X147419733Y-76234304D01*
X147419729Y-76234303D01*
X147414995Y-76232195D01*
X147409925Y-76231117D01*
X147409924Y-76231117D01*
X147373832Y-76223446D01*
X147237652Y-76194500D01*
X147056348Y-76194500D01*
X146920168Y-76223446D01*
X146884076Y-76231117D01*
X146884075Y-76231117D01*
X146879005Y-76232195D01*
X146874269Y-76234304D01*
X146874268Y-76234304D01*
X146718109Y-76303831D01*
X146718107Y-76303832D01*
X146713375Y-76305939D01*
X146566696Y-76412507D01*
X146563230Y-76416356D01*
X146563226Y-76416360D01*
X146454364Y-76537264D01*
X146445379Y-76547243D01*
X146354727Y-76704257D01*
X146298701Y-76876688D01*
X146279749Y-77057000D01*
X146298701Y-77237312D01*
X146354727Y-77409743D01*
X146445379Y-77566757D01*
X146448851Y-77570613D01*
X146563226Y-77697640D01*
X146563230Y-77697644D01*
X146566696Y-77701493D01*
X146713374Y-77808061D01*
X146718106Y-77810168D01*
X146718108Y-77810169D01*
X146874267Y-77879696D01*
X146874271Y-77879697D01*
X146879005Y-77881805D01*
X146884075Y-77882883D01*
X146884076Y-77882883D01*
X146920168Y-77890554D01*
X147056348Y-77919500D01*
X147237652Y-77919500D01*
X147373832Y-77890554D01*
X147409924Y-77882883D01*
X147409925Y-77882883D01*
X147414995Y-77881805D01*
X147419729Y-77879697D01*
X147419733Y-77879696D01*
X147575892Y-77810169D01*
X147575894Y-77810168D01*
X147580626Y-77808061D01*
X147727304Y-77701493D01*
X147730770Y-77697644D01*
X147730774Y-77697640D01*
X147845149Y-77570613D01*
X147848621Y-77566757D01*
X147939273Y-77409743D01*
X147940876Y-77404810D01*
X147941525Y-77403352D01*
X147982467Y-77357883D01*
X148042315Y-77345162D01*
X148098211Y-77370049D01*
X148128803Y-77423038D01*
X148130966Y-77443620D01*
X148130966Y-91910380D01*
X148112059Y-91968571D01*
X148062559Y-92004535D01*
X148001373Y-92004535D01*
X147951873Y-91968571D01*
X147941525Y-91950648D01*
X147940875Y-91949187D01*
X147939273Y-91944257D01*
X147856983Y-91801727D01*
X147851214Y-91791734D01*
X147851213Y-91791733D01*
X147848621Y-91787243D01*
X147789308Y-91721369D01*
X147730774Y-91656360D01*
X147730770Y-91656356D01*
X147727304Y-91652507D01*
X147580626Y-91545939D01*
X147575894Y-91543832D01*
X147575892Y-91543831D01*
X147419733Y-91474304D01*
X147419729Y-91474303D01*
X147414995Y-91472195D01*
X147409925Y-91471117D01*
X147409924Y-91471117D01*
X147373832Y-91463446D01*
X147237652Y-91434500D01*
X147056348Y-91434500D01*
X146920168Y-91463446D01*
X146884076Y-91471117D01*
X146884075Y-91471117D01*
X146879005Y-91472195D01*
X146874269Y-91474304D01*
X146874268Y-91474304D01*
X146718109Y-91543831D01*
X146718107Y-91543832D01*
X146713375Y-91545939D01*
X146566696Y-91652507D01*
X146563230Y-91656356D01*
X146563226Y-91656360D01*
X146504692Y-91721369D01*
X146445379Y-91787243D01*
X146442787Y-91791733D01*
X146442786Y-91791734D01*
X146439610Y-91797236D01*
X146354727Y-91944257D01*
X146298701Y-92116688D01*
X146279749Y-92297000D01*
X146298701Y-92477312D01*
X146354727Y-92649743D01*
X146357318Y-92654231D01*
X146357319Y-92654233D01*
X146435319Y-92789333D01*
X146445379Y-92806757D01*
X146448851Y-92810613D01*
X146563226Y-92937640D01*
X146563230Y-92937644D01*
X146566696Y-92941493D01*
X146713374Y-93048061D01*
X146718106Y-93050168D01*
X146718108Y-93050169D01*
X146874267Y-93119696D01*
X146874271Y-93119697D01*
X146879005Y-93121805D01*
X146884075Y-93122883D01*
X146884076Y-93122883D01*
X146916097Y-93129689D01*
X147056348Y-93159500D01*
X147237652Y-93159500D01*
X147377903Y-93129689D01*
X147409924Y-93122883D01*
X147409925Y-93122883D01*
X147414995Y-93121805D01*
X147419729Y-93119697D01*
X147419733Y-93119696D01*
X147575892Y-93050169D01*
X147575894Y-93050168D01*
X147580626Y-93048061D01*
X147727304Y-92941493D01*
X147730770Y-92937644D01*
X147730774Y-92937640D01*
X147845149Y-92810613D01*
X147848621Y-92806757D01*
X147863124Y-92781638D01*
X147936679Y-92654236D01*
X147939273Y-92649743D01*
X147940876Y-92644810D01*
X147941525Y-92643352D01*
X147982467Y-92597883D01*
X148042315Y-92585162D01*
X148098211Y-92610049D01*
X148128803Y-92663038D01*
X148130966Y-92683620D01*
X148130966Y-94307903D01*
X148112059Y-94366094D01*
X148062559Y-94402058D01*
X148031966Y-94406903D01*
X96411902Y-94406903D01*
X96353711Y-94387996D01*
X96317747Y-94338496D01*
X96312902Y-94307903D01*
X96312902Y-93450000D01*
X107134258Y-93450000D01*
X107155095Y-93581562D01*
X107215567Y-93700245D01*
X107309755Y-93794433D01*
X107316692Y-93797968D01*
X107316694Y-93797969D01*
X107421498Y-93851369D01*
X107428438Y-93854905D01*
X107436131Y-93856124D01*
X107436133Y-93856124D01*
X107552303Y-93874523D01*
X107560000Y-93875742D01*
X107567697Y-93874523D01*
X107683867Y-93856124D01*
X107683869Y-93856124D01*
X107691562Y-93854905D01*
X107698502Y-93851369D01*
X107803306Y-93797969D01*
X107803308Y-93797968D01*
X107810245Y-93794433D01*
X107904433Y-93700245D01*
X107964905Y-93581562D01*
X107985742Y-93450000D01*
X107984523Y-93442303D01*
X107966124Y-93326133D01*
X107966124Y-93326131D01*
X107964905Y-93318438D01*
X107935725Y-93261169D01*
X107907969Y-93206694D01*
X107907968Y-93206692D01*
X107904433Y-93199755D01*
X107810245Y-93105567D01*
X107803308Y-93102032D01*
X107803306Y-93102031D01*
X107698502Y-93048631D01*
X107698501Y-93048631D01*
X107691562Y-93045095D01*
X107683869Y-93043876D01*
X107683867Y-93043876D01*
X107567697Y-93025477D01*
X107560000Y-93024258D01*
X107552303Y-93025477D01*
X107436133Y-93043876D01*
X107436131Y-93043876D01*
X107428438Y-93045095D01*
X107421499Y-93048631D01*
X107421498Y-93048631D01*
X107316694Y-93102031D01*
X107316692Y-93102032D01*
X107309755Y-93105567D01*
X107215567Y-93199755D01*
X107212032Y-93206692D01*
X107212031Y-93206694D01*
X107184275Y-93261169D01*
X107155095Y-93318438D01*
X107153876Y-93326131D01*
X107153876Y-93326133D01*
X107135477Y-93442303D01*
X107134258Y-93450000D01*
X96312902Y-93450000D01*
X96312902Y-92297000D01*
X98019749Y-92297000D01*
X98038701Y-92477312D01*
X98094727Y-92649743D01*
X98097318Y-92654231D01*
X98097319Y-92654233D01*
X98175319Y-92789333D01*
X98185379Y-92806757D01*
X98188851Y-92810613D01*
X98303226Y-92937640D01*
X98303230Y-92937644D01*
X98306696Y-92941493D01*
X98453374Y-93048061D01*
X98458106Y-93050168D01*
X98458108Y-93050169D01*
X98614267Y-93119696D01*
X98614271Y-93119697D01*
X98619005Y-93121805D01*
X98624075Y-93122883D01*
X98624076Y-93122883D01*
X98656097Y-93129689D01*
X98796348Y-93159500D01*
X98977652Y-93159500D01*
X99117903Y-93129689D01*
X99149924Y-93122883D01*
X99149925Y-93122883D01*
X99154995Y-93121805D01*
X99159729Y-93119697D01*
X99159733Y-93119696D01*
X99315892Y-93050169D01*
X99315894Y-93050168D01*
X99320626Y-93048061D01*
X99467304Y-92941493D01*
X99470770Y-92937644D01*
X99470774Y-92937640D01*
X99585149Y-92810613D01*
X99588621Y-92806757D01*
X99598681Y-92789333D01*
X99676681Y-92654233D01*
X99676682Y-92654231D01*
X99679273Y-92649743D01*
X99735299Y-92477312D01*
X99754251Y-92297000D01*
X100559749Y-92297000D01*
X100578701Y-92477312D01*
X100634727Y-92649743D01*
X100637318Y-92654231D01*
X100637319Y-92654233D01*
X100715319Y-92789333D01*
X100725379Y-92806757D01*
X100728851Y-92810613D01*
X100843226Y-92937640D01*
X100843230Y-92937644D01*
X100846696Y-92941493D01*
X100993374Y-93048061D01*
X100998106Y-93050168D01*
X100998108Y-93050169D01*
X101154267Y-93119696D01*
X101154271Y-93119697D01*
X101159005Y-93121805D01*
X101164075Y-93122883D01*
X101164076Y-93122883D01*
X101196097Y-93129689D01*
X101336348Y-93159500D01*
X101517652Y-93159500D01*
X101657903Y-93129689D01*
X101689924Y-93122883D01*
X101689925Y-93122883D01*
X101694995Y-93121805D01*
X101699729Y-93119697D01*
X101699733Y-93119696D01*
X101855892Y-93050169D01*
X101855894Y-93050168D01*
X101860626Y-93048061D01*
X102007304Y-92941493D01*
X102010770Y-92937644D01*
X102010774Y-92937640D01*
X102125149Y-92810613D01*
X102128621Y-92806757D01*
X102138681Y-92789333D01*
X102216681Y-92654233D01*
X102216682Y-92654231D01*
X102219273Y-92649743D01*
X102275299Y-92477312D01*
X102294251Y-92297000D01*
X103099749Y-92297000D01*
X103118701Y-92477312D01*
X103174727Y-92649743D01*
X103177318Y-92654231D01*
X103177319Y-92654233D01*
X103255319Y-92789333D01*
X103265379Y-92806757D01*
X103268851Y-92810613D01*
X103383226Y-92937640D01*
X103383230Y-92937644D01*
X103386696Y-92941493D01*
X103533374Y-93048061D01*
X103538106Y-93050168D01*
X103538108Y-93050169D01*
X103694267Y-93119696D01*
X103694271Y-93119697D01*
X103699005Y-93121805D01*
X103704075Y-93122883D01*
X103704076Y-93122883D01*
X103736097Y-93129689D01*
X103876348Y-93159500D01*
X104057652Y-93159500D01*
X104197903Y-93129689D01*
X104229924Y-93122883D01*
X104229925Y-93122883D01*
X104234995Y-93121805D01*
X104239729Y-93119697D01*
X104239733Y-93119696D01*
X104395892Y-93050169D01*
X104395894Y-93050168D01*
X104400626Y-93048061D01*
X104547304Y-92941493D01*
X104550770Y-92937644D01*
X104550774Y-92937640D01*
X104665149Y-92810613D01*
X104668621Y-92806757D01*
X104678681Y-92789333D01*
X104756681Y-92654233D01*
X104756682Y-92654231D01*
X104759273Y-92649743D01*
X104815299Y-92477312D01*
X104834251Y-92297000D01*
X105639749Y-92297000D01*
X105658701Y-92477312D01*
X105714727Y-92649743D01*
X105717318Y-92654231D01*
X105717319Y-92654233D01*
X105795319Y-92789333D01*
X105805379Y-92806757D01*
X105808851Y-92810613D01*
X105923226Y-92937640D01*
X105923230Y-92937644D01*
X105926696Y-92941493D01*
X106073374Y-93048061D01*
X106078106Y-93050168D01*
X106078108Y-93050169D01*
X106234267Y-93119696D01*
X106234271Y-93119697D01*
X106239005Y-93121805D01*
X106244075Y-93122883D01*
X106244076Y-93122883D01*
X106276097Y-93129689D01*
X106416348Y-93159500D01*
X106597652Y-93159500D01*
X106737903Y-93129689D01*
X106769924Y-93122883D01*
X106769925Y-93122883D01*
X106774995Y-93121805D01*
X106779729Y-93119697D01*
X106779733Y-93119696D01*
X106935892Y-93050169D01*
X106935894Y-93050168D01*
X106940626Y-93048061D01*
X107087304Y-92941493D01*
X107090770Y-92937644D01*
X107090774Y-92937640D01*
X107205149Y-92810613D01*
X107208621Y-92806757D01*
X107218681Y-92789333D01*
X107296681Y-92654233D01*
X107296682Y-92654231D01*
X107299273Y-92649743D01*
X107355299Y-92477312D01*
X107374251Y-92297000D01*
X108179749Y-92297000D01*
X108198701Y-92477312D01*
X108254727Y-92649743D01*
X108257318Y-92654231D01*
X108257319Y-92654233D01*
X108335319Y-92789333D01*
X108345379Y-92806757D01*
X108348851Y-92810613D01*
X108463226Y-92937640D01*
X108463230Y-92937644D01*
X108466696Y-92941493D01*
X108613374Y-93048061D01*
X108618106Y-93050168D01*
X108618108Y-93050169D01*
X108774267Y-93119696D01*
X108774271Y-93119697D01*
X108779005Y-93121805D01*
X108784075Y-93122883D01*
X108784076Y-93122883D01*
X108816097Y-93129689D01*
X108956348Y-93159500D01*
X109137652Y-93159500D01*
X109277903Y-93129689D01*
X109309924Y-93122883D01*
X109309925Y-93122883D01*
X109314995Y-93121805D01*
X109319729Y-93119697D01*
X109319733Y-93119696D01*
X109475892Y-93050169D01*
X109475894Y-93050168D01*
X109480626Y-93048061D01*
X109627304Y-92941493D01*
X109630770Y-92937644D01*
X109630774Y-92937640D01*
X109745149Y-92810613D01*
X109748621Y-92806757D01*
X109758681Y-92789333D01*
X109836681Y-92654233D01*
X109836682Y-92654231D01*
X109839273Y-92649743D01*
X109895299Y-92477312D01*
X109914251Y-92297000D01*
X110719749Y-92297000D01*
X110738701Y-92477312D01*
X110794727Y-92649743D01*
X110797318Y-92654231D01*
X110797319Y-92654233D01*
X110875319Y-92789333D01*
X110885379Y-92806757D01*
X110888851Y-92810613D01*
X111003226Y-92937640D01*
X111003230Y-92937644D01*
X111006696Y-92941493D01*
X111153374Y-93048061D01*
X111158106Y-93050168D01*
X111158108Y-93050169D01*
X111314267Y-93119696D01*
X111314271Y-93119697D01*
X111319005Y-93121805D01*
X111324075Y-93122883D01*
X111324076Y-93122883D01*
X111356097Y-93129689D01*
X111496348Y-93159500D01*
X111677652Y-93159500D01*
X111817903Y-93129689D01*
X111849924Y-93122883D01*
X111849925Y-93122883D01*
X111854995Y-93121805D01*
X111859729Y-93119697D01*
X111859733Y-93119696D01*
X112015892Y-93050169D01*
X112015894Y-93050168D01*
X112020626Y-93048061D01*
X112167304Y-92941493D01*
X112170770Y-92937644D01*
X112170774Y-92937640D01*
X112285149Y-92810613D01*
X112288621Y-92806757D01*
X112298681Y-92789333D01*
X112376681Y-92654233D01*
X112376682Y-92654231D01*
X112379273Y-92649743D01*
X112435299Y-92477312D01*
X112453201Y-92306993D01*
X113236144Y-92306993D01*
X113255096Y-92487305D01*
X113256699Y-92492238D01*
X113305799Y-92643352D01*
X113311122Y-92659736D01*
X113313713Y-92664224D01*
X113313714Y-92664226D01*
X113398231Y-92810613D01*
X113401774Y-92816750D01*
X113405246Y-92820606D01*
X113519621Y-92947633D01*
X113519625Y-92947637D01*
X113523091Y-92951486D01*
X113669769Y-93058054D01*
X113674501Y-93060161D01*
X113674503Y-93060162D01*
X113830662Y-93129689D01*
X113830666Y-93129690D01*
X113835400Y-93131798D01*
X113840470Y-93132876D01*
X113840471Y-93132876D01*
X113876563Y-93140547D01*
X114012743Y-93169493D01*
X114194047Y-93169493D01*
X114330227Y-93140547D01*
X114366319Y-93132876D01*
X114366320Y-93132876D01*
X114371390Y-93131798D01*
X114376124Y-93129690D01*
X114376128Y-93129689D01*
X114532287Y-93060162D01*
X114532289Y-93060161D01*
X114537021Y-93058054D01*
X114683699Y-92951486D01*
X114687165Y-92947637D01*
X114687169Y-92947633D01*
X114801544Y-92820606D01*
X114805016Y-92816750D01*
X114808559Y-92810613D01*
X114893076Y-92664226D01*
X114893077Y-92664224D01*
X114895668Y-92659736D01*
X114900992Y-92643352D01*
X114950091Y-92492238D01*
X114951694Y-92487305D01*
X114970646Y-92306993D01*
X114969596Y-92297000D01*
X115799749Y-92297000D01*
X115818701Y-92477312D01*
X115874727Y-92649743D01*
X115877318Y-92654231D01*
X115877319Y-92654233D01*
X115955319Y-92789333D01*
X115965379Y-92806757D01*
X115968851Y-92810613D01*
X116083226Y-92937640D01*
X116083230Y-92937644D01*
X116086696Y-92941493D01*
X116233374Y-93048061D01*
X116238106Y-93050168D01*
X116238108Y-93050169D01*
X116394267Y-93119696D01*
X116394271Y-93119697D01*
X116399005Y-93121805D01*
X116404075Y-93122883D01*
X116404076Y-93122883D01*
X116436097Y-93129689D01*
X116576348Y-93159500D01*
X116757652Y-93159500D01*
X116897903Y-93129689D01*
X116929924Y-93122883D01*
X116929925Y-93122883D01*
X116934995Y-93121805D01*
X116939729Y-93119697D01*
X116939733Y-93119696D01*
X117095892Y-93050169D01*
X117095894Y-93050168D01*
X117100626Y-93048061D01*
X117247304Y-92941493D01*
X117250770Y-92937644D01*
X117250774Y-92937640D01*
X117365149Y-92810613D01*
X117368621Y-92806757D01*
X117378681Y-92789333D01*
X117456681Y-92654233D01*
X117456682Y-92654231D01*
X117459273Y-92649743D01*
X117515299Y-92477312D01*
X117534251Y-92297000D01*
X118339749Y-92297000D01*
X118358701Y-92477312D01*
X118414727Y-92649743D01*
X118417318Y-92654231D01*
X118417319Y-92654233D01*
X118495319Y-92789333D01*
X118505379Y-92806757D01*
X118508851Y-92810613D01*
X118623226Y-92937640D01*
X118623230Y-92937644D01*
X118626696Y-92941493D01*
X118773374Y-93048061D01*
X118778106Y-93050168D01*
X118778108Y-93050169D01*
X118934267Y-93119696D01*
X118934271Y-93119697D01*
X118939005Y-93121805D01*
X118944075Y-93122883D01*
X118944076Y-93122883D01*
X118976097Y-93129689D01*
X119116348Y-93159500D01*
X119297652Y-93159500D01*
X119437903Y-93129689D01*
X119469924Y-93122883D01*
X119469925Y-93122883D01*
X119474995Y-93121805D01*
X119479729Y-93119697D01*
X119479733Y-93119696D01*
X119635892Y-93050169D01*
X119635894Y-93050168D01*
X119640626Y-93048061D01*
X119673388Y-93024258D01*
X119727483Y-92984956D01*
X119785674Y-92966049D01*
X119843865Y-92984956D01*
X119879830Y-93034459D01*
X119880675Y-93037060D01*
X119881895Y-93044762D01*
X119885434Y-93051707D01*
X119921700Y-93122883D01*
X119942367Y-93163445D01*
X120036555Y-93257633D01*
X120043492Y-93261168D01*
X120043494Y-93261169D01*
X120142271Y-93311498D01*
X120155238Y-93318105D01*
X120162931Y-93319324D01*
X120162933Y-93319324D01*
X120279103Y-93337723D01*
X120286800Y-93338942D01*
X120294497Y-93337723D01*
X120410667Y-93319324D01*
X120410669Y-93319324D01*
X120418362Y-93318105D01*
X120431329Y-93311498D01*
X120530106Y-93261169D01*
X120530108Y-93261168D01*
X120537045Y-93257633D01*
X120631233Y-93163445D01*
X120651901Y-93122883D01*
X120688169Y-93051702D01*
X120688169Y-93051701D01*
X120691705Y-93044762D01*
X120694760Y-93025477D01*
X120711323Y-92920897D01*
X120712542Y-92913200D01*
X120696294Y-92810613D01*
X120692924Y-92789333D01*
X120692924Y-92789331D01*
X120691705Y-92781638D01*
X120688169Y-92774698D01*
X120634769Y-92669894D01*
X120634768Y-92669892D01*
X120631233Y-92662955D01*
X120537045Y-92568767D01*
X120530108Y-92565232D01*
X120530106Y-92565231D01*
X120425302Y-92511831D01*
X120425301Y-92511831D01*
X120418362Y-92508295D01*
X120410669Y-92507076D01*
X120410667Y-92507076D01*
X120294497Y-92488677D01*
X120286800Y-92487458D01*
X120279103Y-92488677D01*
X120177727Y-92504733D01*
X120117295Y-92495161D01*
X120074030Y-92451897D01*
X120063782Y-92396603D01*
X120073709Y-92302157D01*
X120074251Y-92297000D01*
X120879749Y-92297000D01*
X120898701Y-92477312D01*
X120954727Y-92649743D01*
X120957318Y-92654231D01*
X120957319Y-92654233D01*
X121035319Y-92789333D01*
X121045379Y-92806757D01*
X121048851Y-92810613D01*
X121163226Y-92937640D01*
X121163230Y-92937644D01*
X121166696Y-92941493D01*
X121313374Y-93048061D01*
X121318106Y-93050168D01*
X121318108Y-93050169D01*
X121474267Y-93119696D01*
X121474271Y-93119697D01*
X121479005Y-93121805D01*
X121484075Y-93122883D01*
X121484076Y-93122883D01*
X121516097Y-93129689D01*
X121656348Y-93159500D01*
X121837652Y-93159500D01*
X121977903Y-93129689D01*
X122009924Y-93122883D01*
X122009925Y-93122883D01*
X122014995Y-93121805D01*
X122019729Y-93119697D01*
X122019733Y-93119696D01*
X122175892Y-93050169D01*
X122175894Y-93050168D01*
X122180626Y-93048061D01*
X122327304Y-92941493D01*
X122330770Y-92937644D01*
X122330774Y-92937640D01*
X122445149Y-92810613D01*
X122448621Y-92806757D01*
X122458681Y-92789333D01*
X122536681Y-92654233D01*
X122536682Y-92654231D01*
X122539273Y-92649743D01*
X122595299Y-92477312D01*
X122614251Y-92297000D01*
X123419749Y-92297000D01*
X123438701Y-92477312D01*
X123494727Y-92649743D01*
X123497318Y-92654231D01*
X123497319Y-92654233D01*
X123575319Y-92789333D01*
X123585379Y-92806757D01*
X123588851Y-92810613D01*
X123703226Y-92937640D01*
X123703230Y-92937644D01*
X123706696Y-92941493D01*
X123853374Y-93048061D01*
X123858106Y-93050168D01*
X123858108Y-93050169D01*
X124014267Y-93119696D01*
X124014271Y-93119697D01*
X124019005Y-93121805D01*
X124024075Y-93122883D01*
X124024076Y-93122883D01*
X124056097Y-93129689D01*
X124196348Y-93159500D01*
X124377652Y-93159500D01*
X124517903Y-93129689D01*
X124549924Y-93122883D01*
X124549925Y-93122883D01*
X124554995Y-93121805D01*
X124559729Y-93119697D01*
X124559733Y-93119696D01*
X124715892Y-93050169D01*
X124715894Y-93050168D01*
X124720626Y-93048061D01*
X124867304Y-92941493D01*
X124870770Y-92937644D01*
X124870774Y-92937640D01*
X124985149Y-92810613D01*
X124988621Y-92806757D01*
X124998681Y-92789333D01*
X125076681Y-92654233D01*
X125076682Y-92654231D01*
X125079273Y-92649743D01*
X125135299Y-92477312D01*
X125154251Y-92297000D01*
X125959749Y-92297000D01*
X125978701Y-92477312D01*
X126034727Y-92649743D01*
X126037318Y-92654231D01*
X126037319Y-92654233D01*
X126115319Y-92789333D01*
X126125379Y-92806757D01*
X126128851Y-92810613D01*
X126243226Y-92937640D01*
X126243230Y-92937644D01*
X126246696Y-92941493D01*
X126393374Y-93048061D01*
X126398106Y-93050168D01*
X126398108Y-93050169D01*
X126554267Y-93119696D01*
X126554271Y-93119697D01*
X126559005Y-93121805D01*
X126564075Y-93122883D01*
X126564076Y-93122883D01*
X126596097Y-93129689D01*
X126736348Y-93159500D01*
X126917652Y-93159500D01*
X127057903Y-93129689D01*
X127089924Y-93122883D01*
X127089925Y-93122883D01*
X127094995Y-93121805D01*
X127099729Y-93119697D01*
X127099733Y-93119696D01*
X127255892Y-93050169D01*
X127255894Y-93050168D01*
X127260626Y-93048061D01*
X127407304Y-92941493D01*
X127410770Y-92937644D01*
X127410774Y-92937640D01*
X127525149Y-92810613D01*
X127528621Y-92806757D01*
X127538681Y-92789333D01*
X127616681Y-92654233D01*
X127616682Y-92654231D01*
X127619273Y-92649743D01*
X127675299Y-92477312D01*
X127694251Y-92297000D01*
X128499749Y-92297000D01*
X128518701Y-92477312D01*
X128574727Y-92649743D01*
X128577318Y-92654231D01*
X128577319Y-92654233D01*
X128655319Y-92789333D01*
X128665379Y-92806757D01*
X128668851Y-92810613D01*
X128783226Y-92937640D01*
X128783230Y-92937644D01*
X128786696Y-92941493D01*
X128933374Y-93048061D01*
X128938106Y-93050168D01*
X128938108Y-93050169D01*
X129094267Y-93119696D01*
X129094271Y-93119697D01*
X129099005Y-93121805D01*
X129104075Y-93122883D01*
X129104076Y-93122883D01*
X129136097Y-93129689D01*
X129276348Y-93159500D01*
X129457652Y-93159500D01*
X129597903Y-93129689D01*
X129629924Y-93122883D01*
X129629925Y-93122883D01*
X129634995Y-93121805D01*
X129639729Y-93119697D01*
X129639733Y-93119696D01*
X129795892Y-93050169D01*
X129795894Y-93050168D01*
X129800626Y-93048061D01*
X129947304Y-92941493D01*
X129950770Y-92937644D01*
X129950774Y-92937640D01*
X130065149Y-92810613D01*
X130068621Y-92806757D01*
X130078681Y-92789333D01*
X130156681Y-92654233D01*
X130156682Y-92654231D01*
X130159273Y-92649743D01*
X130215299Y-92477312D01*
X130234251Y-92297000D01*
X131039749Y-92297000D01*
X131058701Y-92477312D01*
X131114727Y-92649743D01*
X131117318Y-92654231D01*
X131117319Y-92654233D01*
X131195319Y-92789333D01*
X131205379Y-92806757D01*
X131208851Y-92810613D01*
X131323226Y-92937640D01*
X131323230Y-92937644D01*
X131326696Y-92941493D01*
X131473374Y-93048061D01*
X131478106Y-93050168D01*
X131478108Y-93050169D01*
X131634267Y-93119696D01*
X131634271Y-93119697D01*
X131639005Y-93121805D01*
X131644075Y-93122883D01*
X131644076Y-93122883D01*
X131676097Y-93129689D01*
X131816348Y-93159500D01*
X131997652Y-93159500D01*
X132137903Y-93129689D01*
X132169924Y-93122883D01*
X132169925Y-93122883D01*
X132174995Y-93121805D01*
X132179729Y-93119697D01*
X132179733Y-93119696D01*
X132335892Y-93050169D01*
X132335894Y-93050168D01*
X132340626Y-93048061D01*
X132487304Y-92941493D01*
X132490770Y-92937644D01*
X132490774Y-92937640D01*
X132605149Y-92810613D01*
X132608621Y-92806757D01*
X132618681Y-92789333D01*
X132696681Y-92654233D01*
X132696682Y-92654231D01*
X132699273Y-92649743D01*
X132755299Y-92477312D01*
X132774251Y-92297000D01*
X133579749Y-92297000D01*
X133598701Y-92477312D01*
X133654727Y-92649743D01*
X133657318Y-92654231D01*
X133657319Y-92654233D01*
X133735319Y-92789333D01*
X133745379Y-92806757D01*
X133748851Y-92810613D01*
X133863226Y-92937640D01*
X133863230Y-92937644D01*
X133866696Y-92941493D01*
X134013374Y-93048061D01*
X134018106Y-93050168D01*
X134018108Y-93050169D01*
X134174267Y-93119696D01*
X134174271Y-93119697D01*
X134179005Y-93121805D01*
X134184075Y-93122883D01*
X134184076Y-93122883D01*
X134216097Y-93129689D01*
X134356348Y-93159500D01*
X134537652Y-93159500D01*
X134677903Y-93129689D01*
X134709924Y-93122883D01*
X134709925Y-93122883D01*
X134714995Y-93121805D01*
X134719729Y-93119697D01*
X134719733Y-93119696D01*
X134875892Y-93050169D01*
X134875894Y-93050168D01*
X134880626Y-93048061D01*
X135027304Y-92941493D01*
X135030770Y-92937644D01*
X135030774Y-92937640D01*
X135145149Y-92810613D01*
X135148621Y-92806757D01*
X135158681Y-92789333D01*
X135236681Y-92654233D01*
X135236682Y-92654231D01*
X135239273Y-92649743D01*
X135295299Y-92477312D01*
X135314251Y-92297000D01*
X136119749Y-92297000D01*
X136138701Y-92477312D01*
X136194727Y-92649743D01*
X136197318Y-92654231D01*
X136197319Y-92654233D01*
X136275319Y-92789333D01*
X136285379Y-92806757D01*
X136288851Y-92810613D01*
X136403226Y-92937640D01*
X136403230Y-92937644D01*
X136406696Y-92941493D01*
X136553374Y-93048061D01*
X136558106Y-93050168D01*
X136558108Y-93050169D01*
X136714267Y-93119696D01*
X136714271Y-93119697D01*
X136719005Y-93121805D01*
X136724075Y-93122883D01*
X136724076Y-93122883D01*
X136756097Y-93129689D01*
X136896348Y-93159500D01*
X137077652Y-93159500D01*
X137217903Y-93129689D01*
X137249924Y-93122883D01*
X137249925Y-93122883D01*
X137254995Y-93121805D01*
X137259729Y-93119697D01*
X137259733Y-93119696D01*
X137415892Y-93050169D01*
X137415894Y-93050168D01*
X137420626Y-93048061D01*
X137567304Y-92941493D01*
X137570770Y-92937644D01*
X137570774Y-92937640D01*
X137685149Y-92810613D01*
X137688621Y-92806757D01*
X137698681Y-92789333D01*
X137776681Y-92654233D01*
X137776682Y-92654231D01*
X137779273Y-92649743D01*
X137835299Y-92477312D01*
X137854251Y-92297000D01*
X138659749Y-92297000D01*
X138678701Y-92477312D01*
X138734727Y-92649743D01*
X138737318Y-92654231D01*
X138737319Y-92654233D01*
X138815319Y-92789333D01*
X138825379Y-92806757D01*
X138828851Y-92810613D01*
X138943226Y-92937640D01*
X138943230Y-92937644D01*
X138946696Y-92941493D01*
X139093374Y-93048061D01*
X139098106Y-93050168D01*
X139098108Y-93050169D01*
X139254267Y-93119696D01*
X139254271Y-93119697D01*
X139259005Y-93121805D01*
X139264075Y-93122883D01*
X139264076Y-93122883D01*
X139296097Y-93129689D01*
X139436348Y-93159500D01*
X139617652Y-93159500D01*
X139757903Y-93129689D01*
X139789924Y-93122883D01*
X139789925Y-93122883D01*
X139794995Y-93121805D01*
X139799729Y-93119697D01*
X139799733Y-93119696D01*
X139955892Y-93050169D01*
X139955894Y-93050168D01*
X139960626Y-93048061D01*
X140107304Y-92941493D01*
X140110770Y-92937644D01*
X140110774Y-92937640D01*
X140225149Y-92810613D01*
X140228621Y-92806757D01*
X140238681Y-92789333D01*
X140316681Y-92654233D01*
X140316682Y-92654231D01*
X140319273Y-92649743D01*
X140375299Y-92477312D01*
X140394251Y-92297000D01*
X141199749Y-92297000D01*
X141218701Y-92477312D01*
X141274727Y-92649743D01*
X141277318Y-92654231D01*
X141277319Y-92654233D01*
X141355319Y-92789333D01*
X141365379Y-92806757D01*
X141368851Y-92810613D01*
X141483226Y-92937640D01*
X141483230Y-92937644D01*
X141486696Y-92941493D01*
X141633374Y-93048061D01*
X141638106Y-93050168D01*
X141638108Y-93050169D01*
X141794267Y-93119696D01*
X141794271Y-93119697D01*
X141799005Y-93121805D01*
X141804075Y-93122883D01*
X141804076Y-93122883D01*
X141836097Y-93129689D01*
X141976348Y-93159500D01*
X142157652Y-93159500D01*
X142297903Y-93129689D01*
X142329924Y-93122883D01*
X142329925Y-93122883D01*
X142334995Y-93121805D01*
X142339729Y-93119697D01*
X142339733Y-93119696D01*
X142495892Y-93050169D01*
X142495894Y-93050168D01*
X142500626Y-93048061D01*
X142647304Y-92941493D01*
X142650770Y-92937644D01*
X142650774Y-92937640D01*
X142765149Y-92810613D01*
X142768621Y-92806757D01*
X142778681Y-92789333D01*
X142856681Y-92654233D01*
X142856682Y-92654231D01*
X142859273Y-92649743D01*
X142915299Y-92477312D01*
X142934251Y-92297000D01*
X142915299Y-92116688D01*
X142859273Y-91944257D01*
X142774391Y-91797236D01*
X142771214Y-91791734D01*
X142771213Y-91791733D01*
X142768621Y-91787243D01*
X142709308Y-91721369D01*
X142650774Y-91656360D01*
X142650770Y-91656356D01*
X142647304Y-91652507D01*
X142500626Y-91545939D01*
X142495894Y-91543832D01*
X142495892Y-91543831D01*
X142339733Y-91474304D01*
X142339729Y-91474303D01*
X142334995Y-91472195D01*
X142329925Y-91471117D01*
X142329924Y-91471117D01*
X142293832Y-91463446D01*
X142157652Y-91434500D01*
X141976348Y-91434500D01*
X141840168Y-91463446D01*
X141804076Y-91471117D01*
X141804075Y-91471117D01*
X141799005Y-91472195D01*
X141794269Y-91474304D01*
X141794268Y-91474304D01*
X141638109Y-91543831D01*
X141638107Y-91543832D01*
X141633375Y-91545939D01*
X141486696Y-91652507D01*
X141483230Y-91656356D01*
X141483226Y-91656360D01*
X141424692Y-91721369D01*
X141365379Y-91787243D01*
X141362787Y-91791733D01*
X141362786Y-91791734D01*
X141359610Y-91797236D01*
X141274727Y-91944257D01*
X141218701Y-92116688D01*
X141199749Y-92297000D01*
X140394251Y-92297000D01*
X140375299Y-92116688D01*
X140319273Y-91944257D01*
X140234391Y-91797236D01*
X140231214Y-91791734D01*
X140231213Y-91791733D01*
X140228621Y-91787243D01*
X140169308Y-91721369D01*
X140110774Y-91656360D01*
X140110770Y-91656356D01*
X140107304Y-91652507D01*
X139960626Y-91545939D01*
X139955894Y-91543832D01*
X139955892Y-91543831D01*
X139799733Y-91474304D01*
X139799729Y-91474303D01*
X139794995Y-91472195D01*
X139789925Y-91471117D01*
X139789924Y-91471117D01*
X139753832Y-91463446D01*
X139617652Y-91434500D01*
X139436348Y-91434500D01*
X139300168Y-91463446D01*
X139264076Y-91471117D01*
X139264075Y-91471117D01*
X139259005Y-91472195D01*
X139254269Y-91474304D01*
X139254268Y-91474304D01*
X139098109Y-91543831D01*
X139098107Y-91543832D01*
X139093375Y-91545939D01*
X138946696Y-91652507D01*
X138943230Y-91656356D01*
X138943226Y-91656360D01*
X138884692Y-91721369D01*
X138825379Y-91787243D01*
X138822787Y-91791733D01*
X138822786Y-91791734D01*
X138819610Y-91797236D01*
X138734727Y-91944257D01*
X138678701Y-92116688D01*
X138659749Y-92297000D01*
X137854251Y-92297000D01*
X137835299Y-92116688D01*
X137779273Y-91944257D01*
X137694391Y-91797236D01*
X137691214Y-91791734D01*
X137691213Y-91791733D01*
X137688621Y-91787243D01*
X137629308Y-91721369D01*
X137570774Y-91656360D01*
X137570770Y-91656356D01*
X137567304Y-91652507D01*
X137420626Y-91545939D01*
X137415894Y-91543832D01*
X137415892Y-91543831D01*
X137259733Y-91474304D01*
X137259729Y-91474303D01*
X137254995Y-91472195D01*
X137249925Y-91471117D01*
X137249924Y-91471117D01*
X137213832Y-91463446D01*
X137077652Y-91434500D01*
X136896348Y-91434500D01*
X136760168Y-91463446D01*
X136724076Y-91471117D01*
X136724075Y-91471117D01*
X136719005Y-91472195D01*
X136714269Y-91474304D01*
X136714268Y-91474304D01*
X136558109Y-91543831D01*
X136558107Y-91543832D01*
X136553375Y-91545939D01*
X136406696Y-91652507D01*
X136403230Y-91656356D01*
X136403226Y-91656360D01*
X136344692Y-91721369D01*
X136285379Y-91787243D01*
X136282787Y-91791733D01*
X136282786Y-91791734D01*
X136279610Y-91797236D01*
X136194727Y-91944257D01*
X136138701Y-92116688D01*
X136119749Y-92297000D01*
X135314251Y-92297000D01*
X135295299Y-92116688D01*
X135239273Y-91944257D01*
X135154391Y-91797236D01*
X135151214Y-91791734D01*
X135151213Y-91791733D01*
X135148621Y-91787243D01*
X135089308Y-91721369D01*
X135030774Y-91656360D01*
X135030770Y-91656356D01*
X135027304Y-91652507D01*
X134880626Y-91545939D01*
X134875894Y-91543832D01*
X134875892Y-91543831D01*
X134719733Y-91474304D01*
X134719729Y-91474303D01*
X134714995Y-91472195D01*
X134709925Y-91471117D01*
X134709924Y-91471117D01*
X134673832Y-91463446D01*
X134537652Y-91434500D01*
X134356348Y-91434500D01*
X134220168Y-91463446D01*
X134184076Y-91471117D01*
X134184075Y-91471117D01*
X134179005Y-91472195D01*
X134174269Y-91474304D01*
X134174268Y-91474304D01*
X134018109Y-91543831D01*
X134018107Y-91543832D01*
X134013375Y-91545939D01*
X133866696Y-91652507D01*
X133863230Y-91656356D01*
X133863226Y-91656360D01*
X133804692Y-91721369D01*
X133745379Y-91787243D01*
X133742787Y-91791733D01*
X133742786Y-91791734D01*
X133739610Y-91797236D01*
X133654727Y-91944257D01*
X133598701Y-92116688D01*
X133579749Y-92297000D01*
X132774251Y-92297000D01*
X132755299Y-92116688D01*
X132699273Y-91944257D01*
X132614391Y-91797236D01*
X132611214Y-91791734D01*
X132611213Y-91791733D01*
X132608621Y-91787243D01*
X132549308Y-91721369D01*
X132490774Y-91656360D01*
X132490770Y-91656356D01*
X132487304Y-91652507D01*
X132340626Y-91545939D01*
X132335894Y-91543832D01*
X132335892Y-91543831D01*
X132179733Y-91474304D01*
X132179729Y-91474303D01*
X132174995Y-91472195D01*
X132169925Y-91471117D01*
X132169924Y-91471117D01*
X132133832Y-91463446D01*
X131997652Y-91434500D01*
X131816348Y-91434500D01*
X131680168Y-91463446D01*
X131644076Y-91471117D01*
X131644075Y-91471117D01*
X131639005Y-91472195D01*
X131634269Y-91474304D01*
X131634268Y-91474304D01*
X131478109Y-91543831D01*
X131478107Y-91543832D01*
X131473375Y-91545939D01*
X131326696Y-91652507D01*
X131323230Y-91656356D01*
X131323226Y-91656360D01*
X131264692Y-91721369D01*
X131205379Y-91787243D01*
X131202787Y-91791733D01*
X131202786Y-91791734D01*
X131199610Y-91797236D01*
X131114727Y-91944257D01*
X131058701Y-92116688D01*
X131039749Y-92297000D01*
X130234251Y-92297000D01*
X130215299Y-92116688D01*
X130159273Y-91944257D01*
X130074391Y-91797236D01*
X130071214Y-91791734D01*
X130071213Y-91791733D01*
X130068621Y-91787243D01*
X130009308Y-91721369D01*
X129950774Y-91656360D01*
X129950770Y-91656356D01*
X129947304Y-91652507D01*
X129800626Y-91545939D01*
X129795894Y-91543832D01*
X129795892Y-91543831D01*
X129639733Y-91474304D01*
X129639729Y-91474303D01*
X129634995Y-91472195D01*
X129629925Y-91471117D01*
X129629924Y-91471117D01*
X129593832Y-91463446D01*
X129457652Y-91434500D01*
X129276348Y-91434500D01*
X129140168Y-91463446D01*
X129104076Y-91471117D01*
X129104075Y-91471117D01*
X129099005Y-91472195D01*
X129094269Y-91474304D01*
X129094268Y-91474304D01*
X128938109Y-91543831D01*
X128938107Y-91543832D01*
X128933375Y-91545939D01*
X128786696Y-91652507D01*
X128783230Y-91656356D01*
X128783226Y-91656360D01*
X128724692Y-91721369D01*
X128665379Y-91787243D01*
X128662787Y-91791733D01*
X128662786Y-91791734D01*
X128659610Y-91797236D01*
X128574727Y-91944257D01*
X128518701Y-92116688D01*
X128499749Y-92297000D01*
X127694251Y-92297000D01*
X127675299Y-92116688D01*
X127619273Y-91944257D01*
X127534391Y-91797236D01*
X127531214Y-91791734D01*
X127531213Y-91791733D01*
X127528621Y-91787243D01*
X127469308Y-91721369D01*
X127410774Y-91656360D01*
X127410770Y-91656356D01*
X127407304Y-91652507D01*
X127260626Y-91545939D01*
X127255894Y-91543832D01*
X127255892Y-91543831D01*
X127099733Y-91474304D01*
X127099729Y-91474303D01*
X127094995Y-91472195D01*
X127089925Y-91471117D01*
X127089924Y-91471117D01*
X127053832Y-91463446D01*
X126917652Y-91434500D01*
X126736348Y-91434500D01*
X126600168Y-91463446D01*
X126564076Y-91471117D01*
X126564075Y-91471117D01*
X126559005Y-91472195D01*
X126554269Y-91474304D01*
X126554268Y-91474304D01*
X126398109Y-91543831D01*
X126398107Y-91543832D01*
X126393375Y-91545939D01*
X126246696Y-91652507D01*
X126243230Y-91656356D01*
X126243226Y-91656360D01*
X126184692Y-91721369D01*
X126125379Y-91787243D01*
X126122787Y-91791733D01*
X126122786Y-91791734D01*
X126119610Y-91797236D01*
X126034727Y-91944257D01*
X125978701Y-92116688D01*
X125959749Y-92297000D01*
X125154251Y-92297000D01*
X125135299Y-92116688D01*
X125079273Y-91944257D01*
X124994391Y-91797236D01*
X124991214Y-91791734D01*
X124991213Y-91791733D01*
X124988621Y-91787243D01*
X124929308Y-91721369D01*
X124870774Y-91656360D01*
X124870770Y-91656356D01*
X124867304Y-91652507D01*
X124720626Y-91545939D01*
X124715894Y-91543832D01*
X124715892Y-91543831D01*
X124559733Y-91474304D01*
X124559729Y-91474303D01*
X124554995Y-91472195D01*
X124549925Y-91471117D01*
X124549924Y-91471117D01*
X124513832Y-91463446D01*
X124377652Y-91434500D01*
X124196348Y-91434500D01*
X124060168Y-91463446D01*
X124024076Y-91471117D01*
X124024075Y-91471117D01*
X124019005Y-91472195D01*
X124014269Y-91474304D01*
X124014268Y-91474304D01*
X123858109Y-91543831D01*
X123858107Y-91543832D01*
X123853375Y-91545939D01*
X123706696Y-91652507D01*
X123703230Y-91656356D01*
X123703226Y-91656360D01*
X123644692Y-91721369D01*
X123585379Y-91787243D01*
X123582787Y-91791733D01*
X123582786Y-91791734D01*
X123579610Y-91797236D01*
X123494727Y-91944257D01*
X123438701Y-92116688D01*
X123419749Y-92297000D01*
X122614251Y-92297000D01*
X122595299Y-92116688D01*
X122539273Y-91944257D01*
X122454391Y-91797236D01*
X122451214Y-91791734D01*
X122451213Y-91791733D01*
X122448621Y-91787243D01*
X122389308Y-91721369D01*
X122330774Y-91656360D01*
X122330770Y-91656356D01*
X122327304Y-91652507D01*
X122180626Y-91545939D01*
X122175894Y-91543832D01*
X122175892Y-91543831D01*
X122019733Y-91474304D01*
X122019729Y-91474303D01*
X122014995Y-91472195D01*
X122009925Y-91471117D01*
X122009924Y-91471117D01*
X121973832Y-91463446D01*
X121837652Y-91434500D01*
X121656348Y-91434500D01*
X121520168Y-91463446D01*
X121484076Y-91471117D01*
X121484075Y-91471117D01*
X121479005Y-91472195D01*
X121474269Y-91474304D01*
X121474268Y-91474304D01*
X121318109Y-91543831D01*
X121318107Y-91543832D01*
X121313375Y-91545939D01*
X121166696Y-91652507D01*
X121163230Y-91656356D01*
X121163226Y-91656360D01*
X121104692Y-91721369D01*
X121045379Y-91787243D01*
X121042787Y-91791733D01*
X121042786Y-91791734D01*
X121039610Y-91797236D01*
X120954727Y-91944257D01*
X120898701Y-92116688D01*
X120879749Y-92297000D01*
X120074251Y-92297000D01*
X120055299Y-92116688D01*
X119999273Y-91944257D01*
X119914391Y-91797236D01*
X119911214Y-91791734D01*
X119911213Y-91791733D01*
X119908621Y-91787243D01*
X119849308Y-91721369D01*
X119790774Y-91656360D01*
X119790770Y-91656356D01*
X119787304Y-91652507D01*
X119640626Y-91545939D01*
X119635894Y-91543832D01*
X119635892Y-91543831D01*
X119479733Y-91474304D01*
X119479729Y-91474303D01*
X119474995Y-91472195D01*
X119469925Y-91471117D01*
X119469924Y-91471117D01*
X119433832Y-91463446D01*
X119297652Y-91434500D01*
X119116348Y-91434500D01*
X118980168Y-91463446D01*
X118944076Y-91471117D01*
X118944075Y-91471117D01*
X118939005Y-91472195D01*
X118934269Y-91474304D01*
X118934268Y-91474304D01*
X118778109Y-91543831D01*
X118778107Y-91543832D01*
X118773375Y-91545939D01*
X118626696Y-91652507D01*
X118623230Y-91656356D01*
X118623226Y-91656360D01*
X118564692Y-91721369D01*
X118505379Y-91787243D01*
X118502787Y-91791733D01*
X118502786Y-91791734D01*
X118499610Y-91797236D01*
X118414727Y-91944257D01*
X118358701Y-92116688D01*
X118339749Y-92297000D01*
X117534251Y-92297000D01*
X117515299Y-92116688D01*
X117459273Y-91944257D01*
X117456681Y-91939767D01*
X117456678Y-91939760D01*
X117429694Y-91893023D01*
X117416972Y-91833175D01*
X117441859Y-91777279D01*
X117494847Y-91746686D01*
X117513550Y-91744721D01*
X117520000Y-91745742D01*
X117527697Y-91744523D01*
X117643867Y-91726124D01*
X117643869Y-91726124D01*
X117651562Y-91724905D01*
X117658502Y-91721369D01*
X117763306Y-91667969D01*
X117763308Y-91667968D01*
X117770245Y-91664433D01*
X117864433Y-91570245D01*
X117870175Y-91558977D01*
X117921369Y-91458502D01*
X117921369Y-91458501D01*
X117924905Y-91451562D01*
X117926678Y-91440372D01*
X117944523Y-91327697D01*
X117945742Y-91320000D01*
X117924905Y-91188438D01*
X117864433Y-91069755D01*
X117770245Y-90975567D01*
X117763308Y-90972032D01*
X117763306Y-90972031D01*
X117658502Y-90918631D01*
X117658501Y-90918631D01*
X117651562Y-90915095D01*
X117643869Y-90913876D01*
X117643867Y-90913876D01*
X117527697Y-90895477D01*
X117520000Y-90894258D01*
X117512303Y-90895477D01*
X117396133Y-90913876D01*
X117396131Y-90913876D01*
X117388438Y-90915095D01*
X117381499Y-90918631D01*
X117381498Y-90918631D01*
X117276694Y-90972031D01*
X117276692Y-90972032D01*
X117269755Y-90975567D01*
X117175567Y-91069755D01*
X117115095Y-91188438D01*
X117094258Y-91320000D01*
X117095477Y-91327697D01*
X117095477Y-91327698D01*
X117103751Y-91379940D01*
X117094179Y-91440372D01*
X117050914Y-91483636D01*
X116990482Y-91493207D01*
X116965703Y-91485867D01*
X116939733Y-91474304D01*
X116939729Y-91474303D01*
X116934995Y-91472195D01*
X116929925Y-91471117D01*
X116929924Y-91471117D01*
X116893832Y-91463446D01*
X116757652Y-91434500D01*
X116576348Y-91434500D01*
X116440168Y-91463446D01*
X116404076Y-91471117D01*
X116404075Y-91471117D01*
X116399005Y-91472195D01*
X116394269Y-91474304D01*
X116394268Y-91474304D01*
X116238109Y-91543831D01*
X116238107Y-91543832D01*
X116233375Y-91545939D01*
X116086696Y-91652507D01*
X116083230Y-91656356D01*
X116083226Y-91656360D01*
X116024692Y-91721369D01*
X115965379Y-91787243D01*
X115962787Y-91791733D01*
X115962786Y-91791734D01*
X115959610Y-91797236D01*
X115874727Y-91944257D01*
X115818701Y-92116688D01*
X115799749Y-92297000D01*
X114969596Y-92297000D01*
X114951694Y-92126681D01*
X114895668Y-91954250D01*
X114887307Y-91939767D01*
X114807609Y-91801727D01*
X114807608Y-91801726D01*
X114805016Y-91797236D01*
X114757553Y-91744523D01*
X114687169Y-91666353D01*
X114687165Y-91666349D01*
X114683699Y-91662500D01*
X114537021Y-91555932D01*
X114532289Y-91553825D01*
X114532287Y-91553824D01*
X114376128Y-91484297D01*
X114376124Y-91484296D01*
X114371390Y-91482188D01*
X114366320Y-91481110D01*
X114366319Y-91481110D01*
X114319304Y-91471117D01*
X114194047Y-91444493D01*
X114012743Y-91444493D01*
X113887486Y-91471117D01*
X113840471Y-91481110D01*
X113840470Y-91481110D01*
X113835400Y-91482188D01*
X113830664Y-91484297D01*
X113830663Y-91484297D01*
X113674504Y-91553824D01*
X113674502Y-91553825D01*
X113669770Y-91555932D01*
X113523091Y-91662500D01*
X113519625Y-91666349D01*
X113519621Y-91666353D01*
X113449237Y-91744523D01*
X113401774Y-91797236D01*
X113399182Y-91801726D01*
X113399181Y-91801727D01*
X113319484Y-91939767D01*
X113311122Y-91954250D01*
X113255096Y-92126681D01*
X113236144Y-92306993D01*
X112453201Y-92306993D01*
X112454251Y-92297000D01*
X112435299Y-92116688D01*
X112379273Y-91944257D01*
X112294391Y-91797236D01*
X112291214Y-91791734D01*
X112291213Y-91791733D01*
X112288621Y-91787243D01*
X112229308Y-91721369D01*
X112170774Y-91656360D01*
X112170770Y-91656356D01*
X112167304Y-91652507D01*
X112020626Y-91545939D01*
X112015894Y-91543832D01*
X112015892Y-91543831D01*
X111859733Y-91474304D01*
X111859729Y-91474303D01*
X111854995Y-91472195D01*
X111849925Y-91471117D01*
X111849924Y-91471117D01*
X111813832Y-91463446D01*
X111677652Y-91434500D01*
X111496348Y-91434500D01*
X111360168Y-91463446D01*
X111324076Y-91471117D01*
X111324075Y-91471117D01*
X111319005Y-91472195D01*
X111314269Y-91474304D01*
X111314268Y-91474304D01*
X111158109Y-91543831D01*
X111158107Y-91543832D01*
X111153375Y-91545939D01*
X111006696Y-91652507D01*
X111003230Y-91656356D01*
X111003226Y-91656360D01*
X110944692Y-91721369D01*
X110885379Y-91787243D01*
X110882787Y-91791733D01*
X110882786Y-91791734D01*
X110879610Y-91797236D01*
X110794727Y-91944257D01*
X110738701Y-92116688D01*
X110719749Y-92297000D01*
X109914251Y-92297000D01*
X109895299Y-92116688D01*
X109839273Y-91944257D01*
X109754391Y-91797236D01*
X109751214Y-91791734D01*
X109751213Y-91791733D01*
X109748621Y-91787243D01*
X109689308Y-91721369D01*
X109630774Y-91656360D01*
X109630770Y-91656356D01*
X109627304Y-91652507D01*
X109480626Y-91545939D01*
X109475894Y-91543832D01*
X109475892Y-91543831D01*
X109319733Y-91474304D01*
X109319729Y-91474303D01*
X109314995Y-91472195D01*
X109309925Y-91471117D01*
X109309924Y-91471117D01*
X109273832Y-91463446D01*
X109137652Y-91434500D01*
X108956348Y-91434500D01*
X108820168Y-91463446D01*
X108784076Y-91471117D01*
X108784075Y-91471117D01*
X108779005Y-91472195D01*
X108774269Y-91474304D01*
X108774268Y-91474304D01*
X108618109Y-91543831D01*
X108618107Y-91543832D01*
X108613375Y-91545939D01*
X108466696Y-91652507D01*
X108463230Y-91656356D01*
X108463226Y-91656360D01*
X108404692Y-91721369D01*
X108345379Y-91787243D01*
X108342787Y-91791733D01*
X108342786Y-91791734D01*
X108339610Y-91797236D01*
X108254727Y-91944257D01*
X108198701Y-92116688D01*
X108179749Y-92297000D01*
X107374251Y-92297000D01*
X107355299Y-92116688D01*
X107299273Y-91944257D01*
X107214391Y-91797236D01*
X107211214Y-91791734D01*
X107211213Y-91791733D01*
X107208621Y-91787243D01*
X107149308Y-91721369D01*
X107090774Y-91656360D01*
X107090770Y-91656356D01*
X107087304Y-91652507D01*
X106940626Y-91545939D01*
X106935894Y-91543832D01*
X106935892Y-91543831D01*
X106779733Y-91474304D01*
X106779729Y-91474303D01*
X106774995Y-91472195D01*
X106769925Y-91471117D01*
X106769924Y-91471117D01*
X106733832Y-91463446D01*
X106597652Y-91434500D01*
X106416348Y-91434500D01*
X106280168Y-91463446D01*
X106244076Y-91471117D01*
X106244075Y-91471117D01*
X106239005Y-91472195D01*
X106234269Y-91474304D01*
X106234268Y-91474304D01*
X106078109Y-91543831D01*
X106078107Y-91543832D01*
X106073375Y-91545939D01*
X105926696Y-91652507D01*
X105923230Y-91656356D01*
X105923226Y-91656360D01*
X105864692Y-91721369D01*
X105805379Y-91787243D01*
X105802787Y-91791733D01*
X105802786Y-91791734D01*
X105799610Y-91797236D01*
X105714727Y-91944257D01*
X105658701Y-92116688D01*
X105639749Y-92297000D01*
X104834251Y-92297000D01*
X104815299Y-92116688D01*
X104759273Y-91944257D01*
X104674391Y-91797236D01*
X104671214Y-91791734D01*
X104671213Y-91791733D01*
X104668621Y-91787243D01*
X104609308Y-91721369D01*
X104550774Y-91656360D01*
X104550770Y-91656356D01*
X104547304Y-91652507D01*
X104400626Y-91545939D01*
X104395894Y-91543832D01*
X104395892Y-91543831D01*
X104239733Y-91474304D01*
X104239729Y-91474303D01*
X104234995Y-91472195D01*
X104229925Y-91471117D01*
X104229924Y-91471117D01*
X104193832Y-91463446D01*
X104057652Y-91434500D01*
X103876348Y-91434500D01*
X103740168Y-91463446D01*
X103704076Y-91471117D01*
X103704075Y-91471117D01*
X103699005Y-91472195D01*
X103694269Y-91474304D01*
X103694268Y-91474304D01*
X103538109Y-91543831D01*
X103538107Y-91543832D01*
X103533375Y-91545939D01*
X103386696Y-91652507D01*
X103383230Y-91656356D01*
X103383226Y-91656360D01*
X103324692Y-91721369D01*
X103265379Y-91787243D01*
X103262787Y-91791733D01*
X103262786Y-91791734D01*
X103259610Y-91797236D01*
X103174727Y-91944257D01*
X103118701Y-92116688D01*
X103099749Y-92297000D01*
X102294251Y-92297000D01*
X102275299Y-92116688D01*
X102219273Y-91944257D01*
X102134391Y-91797236D01*
X102131214Y-91791734D01*
X102131213Y-91791733D01*
X102128621Y-91787243D01*
X102069308Y-91721369D01*
X102010774Y-91656360D01*
X102010770Y-91656356D01*
X102007304Y-91652507D01*
X101860626Y-91545939D01*
X101855894Y-91543832D01*
X101855892Y-91543831D01*
X101699733Y-91474304D01*
X101699729Y-91474303D01*
X101694995Y-91472195D01*
X101689925Y-91471117D01*
X101689924Y-91471117D01*
X101653832Y-91463446D01*
X101517652Y-91434500D01*
X101336348Y-91434500D01*
X101200168Y-91463446D01*
X101164076Y-91471117D01*
X101164075Y-91471117D01*
X101159005Y-91472195D01*
X101154269Y-91474304D01*
X101154268Y-91474304D01*
X100998109Y-91543831D01*
X100998107Y-91543832D01*
X100993375Y-91545939D01*
X100846696Y-91652507D01*
X100843230Y-91656356D01*
X100843226Y-91656360D01*
X100784692Y-91721369D01*
X100725379Y-91787243D01*
X100722787Y-91791733D01*
X100722786Y-91791734D01*
X100719610Y-91797236D01*
X100634727Y-91944257D01*
X100578701Y-92116688D01*
X100559749Y-92297000D01*
X99754251Y-92297000D01*
X99735299Y-92116688D01*
X99679273Y-91944257D01*
X99594391Y-91797236D01*
X99591214Y-91791734D01*
X99591213Y-91791733D01*
X99588621Y-91787243D01*
X99529308Y-91721369D01*
X99470774Y-91656360D01*
X99470770Y-91656356D01*
X99467304Y-91652507D01*
X99320626Y-91545939D01*
X99315894Y-91543832D01*
X99315892Y-91543831D01*
X99159733Y-91474304D01*
X99159729Y-91474303D01*
X99154995Y-91472195D01*
X99149925Y-91471117D01*
X99149924Y-91471117D01*
X99113832Y-91463446D01*
X98977652Y-91434500D01*
X98796348Y-91434500D01*
X98660168Y-91463446D01*
X98624076Y-91471117D01*
X98624075Y-91471117D01*
X98619005Y-91472195D01*
X98614269Y-91474304D01*
X98614268Y-91474304D01*
X98458109Y-91543831D01*
X98458107Y-91543832D01*
X98453375Y-91545939D01*
X98306696Y-91652507D01*
X98303230Y-91656356D01*
X98303226Y-91656360D01*
X98244692Y-91721369D01*
X98185379Y-91787243D01*
X98182787Y-91791733D01*
X98182786Y-91791734D01*
X98179610Y-91797236D01*
X98094727Y-91944257D01*
X98038701Y-92116688D01*
X98019749Y-92297000D01*
X96312902Y-92297000D01*
X96312902Y-90184993D01*
X97879265Y-90184993D01*
X97900102Y-90316555D01*
X97960574Y-90435238D01*
X98054762Y-90529426D01*
X98061699Y-90532961D01*
X98061701Y-90532962D01*
X98166505Y-90586362D01*
X98173445Y-90589898D01*
X98181138Y-90591117D01*
X98181140Y-90591117D01*
X98297310Y-90609516D01*
X98305007Y-90610735D01*
X98312704Y-90609516D01*
X98428874Y-90591117D01*
X98428876Y-90591117D01*
X98436569Y-90589898D01*
X98443509Y-90586362D01*
X98548313Y-90532962D01*
X98548315Y-90532961D01*
X98555252Y-90529426D01*
X98649440Y-90435238D01*
X98709912Y-90316555D01*
X98730749Y-90184993D01*
X98709912Y-90053431D01*
X98674240Y-89983421D01*
X98652976Y-89941687D01*
X98652975Y-89941685D01*
X98649440Y-89934748D01*
X98555252Y-89840560D01*
X98548315Y-89837025D01*
X98548313Y-89837024D01*
X98443509Y-89783624D01*
X98443508Y-89783624D01*
X98436569Y-89780088D01*
X98428876Y-89778869D01*
X98428874Y-89778869D01*
X98312704Y-89760470D01*
X98305007Y-89759251D01*
X98297310Y-89760470D01*
X98181140Y-89778869D01*
X98181138Y-89778869D01*
X98173445Y-89780088D01*
X98166506Y-89783624D01*
X98166505Y-89783624D01*
X98061701Y-89837024D01*
X98061699Y-89837025D01*
X98054762Y-89840560D01*
X97960574Y-89934748D01*
X97957039Y-89941685D01*
X97957038Y-89941687D01*
X97935774Y-89983421D01*
X97900102Y-90053431D01*
X97879265Y-90184993D01*
X96312902Y-90184993D01*
X96312902Y-89923328D01*
X96312984Y-89923130D01*
X96312667Y-89922365D01*
X96312100Y-89922130D01*
X96311902Y-89922048D01*
X96311704Y-89922130D01*
X94472749Y-89922130D01*
X94414558Y-89903223D01*
X94378594Y-89853723D01*
X94373749Y-89823130D01*
X94373749Y-89122000D01*
X102014749Y-89122000D01*
X102033701Y-89302312D01*
X102089727Y-89474743D01*
X102092318Y-89479231D01*
X102092319Y-89479233D01*
X102174922Y-89622306D01*
X102180379Y-89631757D01*
X102183851Y-89635613D01*
X102298226Y-89762640D01*
X102298230Y-89762644D01*
X102301696Y-89766493D01*
X102448374Y-89873061D01*
X102453106Y-89875168D01*
X102453108Y-89875169D01*
X102609267Y-89944696D01*
X102609271Y-89944697D01*
X102614005Y-89946805D01*
X102619075Y-89947883D01*
X102619076Y-89947883D01*
X102655168Y-89955554D01*
X102791348Y-89984500D01*
X102972652Y-89984500D01*
X103108832Y-89955554D01*
X103144924Y-89947883D01*
X103144925Y-89947883D01*
X103149995Y-89946805D01*
X103154729Y-89944697D01*
X103154733Y-89944696D01*
X103310892Y-89875169D01*
X103310894Y-89875168D01*
X103315626Y-89873061D01*
X103462304Y-89766493D01*
X103465770Y-89762644D01*
X103465774Y-89762640D01*
X103580149Y-89635613D01*
X103583621Y-89631757D01*
X103589078Y-89622306D01*
X103671681Y-89479233D01*
X103671682Y-89479231D01*
X103674273Y-89474743D01*
X103705382Y-89379000D01*
X105315258Y-89379000D01*
X105336095Y-89510562D01*
X105339631Y-89517501D01*
X105339631Y-89517502D01*
X105390019Y-89616393D01*
X105396567Y-89629245D01*
X105490755Y-89723433D01*
X105497692Y-89726968D01*
X105497694Y-89726969D01*
X105563444Y-89760470D01*
X105609438Y-89783905D01*
X105617131Y-89785124D01*
X105617133Y-89785124D01*
X105733303Y-89803523D01*
X105741000Y-89804742D01*
X105748697Y-89803523D01*
X105864867Y-89785124D01*
X105864869Y-89785124D01*
X105872562Y-89783905D01*
X105918556Y-89760470D01*
X105984306Y-89726969D01*
X105984308Y-89726968D01*
X105991245Y-89723433D01*
X106085433Y-89629245D01*
X106091982Y-89616393D01*
X106142369Y-89517502D01*
X106142369Y-89517501D01*
X106145905Y-89510562D01*
X106166108Y-89383000D01*
X107388258Y-89383000D01*
X107389477Y-89390697D01*
X107407243Y-89502867D01*
X107409095Y-89514562D01*
X107412631Y-89521501D01*
X107412631Y-89521502D01*
X107458558Y-89611638D01*
X107469567Y-89633245D01*
X107563755Y-89727433D01*
X107570692Y-89730968D01*
X107570694Y-89730969D01*
X107675498Y-89784369D01*
X107682438Y-89787905D01*
X107690131Y-89789124D01*
X107690133Y-89789124D01*
X107806303Y-89807523D01*
X107814000Y-89808742D01*
X107821697Y-89807523D01*
X107937867Y-89789124D01*
X107937869Y-89789124D01*
X107945562Y-89787905D01*
X107952502Y-89784369D01*
X108057306Y-89730969D01*
X108057308Y-89730968D01*
X108064245Y-89727433D01*
X108158433Y-89633245D01*
X108169443Y-89611638D01*
X108215369Y-89521502D01*
X108215369Y-89521501D01*
X108218905Y-89514562D01*
X108220758Y-89502867D01*
X108238523Y-89390697D01*
X108239742Y-89383000D01*
X108226844Y-89301562D01*
X108220124Y-89259133D01*
X108220124Y-89259131D01*
X108218905Y-89251438D01*
X108201850Y-89217966D01*
X108197928Y-89210269D01*
X113519648Y-89210269D01*
X113520867Y-89217966D01*
X113534677Y-89305157D01*
X113540485Y-89341831D01*
X113544021Y-89348770D01*
X113544021Y-89348771D01*
X113561462Y-89383000D01*
X113600957Y-89460514D01*
X113695145Y-89554702D01*
X113702082Y-89558237D01*
X113702084Y-89558238D01*
X113806888Y-89611638D01*
X113813828Y-89615174D01*
X113821521Y-89616393D01*
X113821523Y-89616393D01*
X113937693Y-89634792D01*
X113945390Y-89636011D01*
X113953087Y-89634792D01*
X114069257Y-89616393D01*
X114069259Y-89616393D01*
X114076952Y-89615174D01*
X114083892Y-89611638D01*
X114188696Y-89558238D01*
X114188698Y-89558237D01*
X114195635Y-89554702D01*
X114289823Y-89460514D01*
X114329319Y-89383000D01*
X114346759Y-89348771D01*
X114346759Y-89348770D01*
X114350295Y-89341831D01*
X114356104Y-89305157D01*
X114369913Y-89217966D01*
X114371132Y-89210269D01*
X114364754Y-89170000D01*
X114914258Y-89170000D01*
X114915477Y-89177697D01*
X114927742Y-89255133D01*
X114935095Y-89301562D01*
X114938631Y-89308501D01*
X114938631Y-89308502D01*
X114980512Y-89390697D01*
X114995567Y-89420245D01*
X115089755Y-89514433D01*
X115096692Y-89517968D01*
X115096694Y-89517969D01*
X115157981Y-89549196D01*
X115208438Y-89574905D01*
X115216131Y-89576124D01*
X115216133Y-89576124D01*
X115332303Y-89594523D01*
X115340000Y-89595742D01*
X115347697Y-89594523D01*
X115463867Y-89576124D01*
X115463869Y-89576124D01*
X115471562Y-89574905D01*
X115522019Y-89549196D01*
X115583306Y-89517969D01*
X115583308Y-89517968D01*
X115590245Y-89514433D01*
X115684433Y-89420245D01*
X115699489Y-89390697D01*
X115741369Y-89308502D01*
X115741369Y-89308501D01*
X115744905Y-89301562D01*
X115745152Y-89300000D01*
X126662749Y-89300000D01*
X126681701Y-89480312D01*
X126737727Y-89652743D01*
X126740318Y-89657231D01*
X126740319Y-89657233D01*
X126825786Y-89805266D01*
X126828379Y-89809757D01*
X126831851Y-89813613D01*
X126946226Y-89940640D01*
X126946230Y-89940644D01*
X126949696Y-89944493D01*
X127096374Y-90051061D01*
X127101106Y-90053168D01*
X127101108Y-90053169D01*
X127257267Y-90122696D01*
X127257271Y-90122697D01*
X127262005Y-90124805D01*
X127267075Y-90125883D01*
X127267076Y-90125883D01*
X127303168Y-90133554D01*
X127439348Y-90162500D01*
X127620652Y-90162500D01*
X127756832Y-90133554D01*
X127792924Y-90125883D01*
X127792925Y-90125883D01*
X127797995Y-90124805D01*
X127802729Y-90122697D01*
X127802733Y-90122696D01*
X127958892Y-90053169D01*
X127958894Y-90053168D01*
X127963626Y-90051061D01*
X128110304Y-89944493D01*
X128113770Y-89940644D01*
X128113774Y-89940640D01*
X128228149Y-89813613D01*
X128231621Y-89809757D01*
X128234214Y-89805266D01*
X128319681Y-89657233D01*
X128319682Y-89657231D01*
X128322273Y-89652743D01*
X128378299Y-89480312D01*
X128397251Y-89300000D01*
X129202749Y-89300000D01*
X129221701Y-89480312D01*
X129277727Y-89652743D01*
X129280318Y-89657231D01*
X129280319Y-89657233D01*
X129365786Y-89805266D01*
X129368379Y-89809757D01*
X129371851Y-89813613D01*
X129486226Y-89940640D01*
X129486230Y-89940644D01*
X129489696Y-89944493D01*
X129636374Y-90051061D01*
X129641106Y-90053168D01*
X129641108Y-90053169D01*
X129797267Y-90122696D01*
X129797271Y-90122697D01*
X129802005Y-90124805D01*
X129807075Y-90125883D01*
X129807076Y-90125883D01*
X129843168Y-90133554D01*
X129979348Y-90162500D01*
X130160652Y-90162500D01*
X130296832Y-90133554D01*
X130332924Y-90125883D01*
X130332925Y-90125883D01*
X130337995Y-90124805D01*
X130342729Y-90122697D01*
X130342733Y-90122696D01*
X130498892Y-90053169D01*
X130498894Y-90053168D01*
X130503626Y-90051061D01*
X130650304Y-89944493D01*
X130653770Y-89940644D01*
X130653774Y-89940640D01*
X130768149Y-89813613D01*
X130771621Y-89809757D01*
X130774214Y-89805266D01*
X130859681Y-89657233D01*
X130859682Y-89657231D01*
X130862273Y-89652743D01*
X130918299Y-89480312D01*
X130937251Y-89300000D01*
X130918299Y-89119688D01*
X130882895Y-89010725D01*
X130863875Y-88952187D01*
X130863874Y-88952186D01*
X130862273Y-88947257D01*
X130855846Y-88936124D01*
X130774214Y-88794734D01*
X130774213Y-88794733D01*
X130771621Y-88790243D01*
X130752725Y-88769257D01*
X130653774Y-88659360D01*
X130653770Y-88659356D01*
X130650304Y-88655507D01*
X130503626Y-88548939D01*
X130498894Y-88546832D01*
X130498892Y-88546831D01*
X130342733Y-88477304D01*
X130342729Y-88477303D01*
X130337995Y-88475195D01*
X130332925Y-88474117D01*
X130332924Y-88474117D01*
X130296832Y-88466446D01*
X130160652Y-88437500D01*
X129979348Y-88437500D01*
X129843168Y-88466446D01*
X129807076Y-88474117D01*
X129807075Y-88474117D01*
X129802005Y-88475195D01*
X129797269Y-88477304D01*
X129797268Y-88477304D01*
X129641109Y-88546831D01*
X129641107Y-88546832D01*
X129636375Y-88548939D01*
X129489696Y-88655507D01*
X129486230Y-88659356D01*
X129486226Y-88659360D01*
X129387275Y-88769257D01*
X129368379Y-88790243D01*
X129365787Y-88794733D01*
X129365786Y-88794734D01*
X129284155Y-88936124D01*
X129277727Y-88947257D01*
X129276126Y-88952186D01*
X129276125Y-88952187D01*
X129257105Y-89010725D01*
X129221701Y-89119688D01*
X129202749Y-89300000D01*
X128397251Y-89300000D01*
X128378299Y-89119688D01*
X128342895Y-89010725D01*
X128323875Y-88952187D01*
X128323874Y-88952186D01*
X128322273Y-88947257D01*
X128315846Y-88936124D01*
X128234214Y-88794734D01*
X128234213Y-88794733D01*
X128231621Y-88790243D01*
X128212725Y-88769257D01*
X128113774Y-88659360D01*
X128113770Y-88659356D01*
X128110304Y-88655507D01*
X127963626Y-88548939D01*
X127958894Y-88546832D01*
X127958892Y-88546831D01*
X127802733Y-88477304D01*
X127802729Y-88477303D01*
X127797995Y-88475195D01*
X127792925Y-88474117D01*
X127792924Y-88474117D01*
X127756832Y-88466446D01*
X127620652Y-88437500D01*
X127439348Y-88437500D01*
X127303168Y-88466446D01*
X127267076Y-88474117D01*
X127267075Y-88474117D01*
X127262005Y-88475195D01*
X127257269Y-88477304D01*
X127257268Y-88477304D01*
X127101109Y-88546831D01*
X127101107Y-88546832D01*
X127096375Y-88548939D01*
X126949696Y-88655507D01*
X126946230Y-88659356D01*
X126946226Y-88659360D01*
X126847275Y-88769257D01*
X126828379Y-88790243D01*
X126825787Y-88794733D01*
X126825786Y-88794734D01*
X126744155Y-88936124D01*
X126737727Y-88947257D01*
X126736126Y-88952186D01*
X126736125Y-88952187D01*
X126717105Y-89010725D01*
X126681701Y-89119688D01*
X126662749Y-89300000D01*
X115745152Y-89300000D01*
X115752259Y-89255133D01*
X115764523Y-89177697D01*
X115765742Y-89170000D01*
X115758971Y-89127249D01*
X115746124Y-89046133D01*
X115746124Y-89046131D01*
X115744905Y-89038438D01*
X115717434Y-88984523D01*
X115687969Y-88926694D01*
X115687968Y-88926692D01*
X115684433Y-88919755D01*
X115590245Y-88825567D01*
X115583308Y-88822032D01*
X115583306Y-88822031D01*
X115478502Y-88768631D01*
X115478501Y-88768631D01*
X115471562Y-88765095D01*
X115463869Y-88763876D01*
X115463867Y-88763876D01*
X115347697Y-88745477D01*
X115340000Y-88744258D01*
X115332303Y-88745477D01*
X115216133Y-88763876D01*
X115216131Y-88763876D01*
X115208438Y-88765095D01*
X115201499Y-88768631D01*
X115201498Y-88768631D01*
X115096694Y-88822031D01*
X115096692Y-88822032D01*
X115089755Y-88825567D01*
X114995567Y-88919755D01*
X114992032Y-88926692D01*
X114992031Y-88926694D01*
X114962566Y-88984523D01*
X114935095Y-89038438D01*
X114933876Y-89046131D01*
X114933876Y-89046133D01*
X114921029Y-89127249D01*
X114914258Y-89170000D01*
X114364754Y-89170000D01*
X114357603Y-89124847D01*
X114351514Y-89086402D01*
X114351514Y-89086400D01*
X114350295Y-89078707D01*
X114326003Y-89031031D01*
X114293359Y-88966963D01*
X114293358Y-88966961D01*
X114289823Y-88960024D01*
X114237243Y-88907444D01*
X114209466Y-88852927D01*
X114219037Y-88792495D01*
X114237243Y-88767437D01*
X114318924Y-88685755D01*
X114318927Y-88685751D01*
X114324433Y-88680245D01*
X114330417Y-88668502D01*
X114381369Y-88568502D01*
X114381369Y-88568501D01*
X114384905Y-88561562D01*
X114386372Y-88552303D01*
X114404523Y-88437697D01*
X114405742Y-88430000D01*
X114404523Y-88422303D01*
X114386124Y-88306133D01*
X114386124Y-88306131D01*
X114384905Y-88298438D01*
X114365065Y-88259500D01*
X114327969Y-88186694D01*
X114327968Y-88186692D01*
X114324433Y-88179755D01*
X114230245Y-88085567D01*
X114223308Y-88082032D01*
X114223306Y-88082031D01*
X114118502Y-88028631D01*
X114118501Y-88028631D01*
X114111562Y-88025095D01*
X114103869Y-88023876D01*
X114103867Y-88023876D01*
X113987697Y-88005477D01*
X113980000Y-88004258D01*
X113972303Y-88005477D01*
X113856133Y-88023876D01*
X113856131Y-88023876D01*
X113848438Y-88025095D01*
X113841499Y-88028631D01*
X113841498Y-88028631D01*
X113736694Y-88082031D01*
X113736692Y-88082032D01*
X113729755Y-88085567D01*
X113635567Y-88179755D01*
X113632032Y-88186692D01*
X113632031Y-88186694D01*
X113594935Y-88259500D01*
X113575095Y-88298438D01*
X113573876Y-88306131D01*
X113573876Y-88306133D01*
X113555477Y-88422303D01*
X113554258Y-88430000D01*
X113555477Y-88437697D01*
X113573629Y-88552303D01*
X113575095Y-88561562D01*
X113578631Y-88568501D01*
X113578631Y-88568502D01*
X113629584Y-88668502D01*
X113635567Y-88680245D01*
X113688148Y-88732826D01*
X113715925Y-88787343D01*
X113706354Y-88847775D01*
X113688147Y-88872834D01*
X113606466Y-88954514D01*
X113606463Y-88954518D01*
X113600957Y-88960024D01*
X113597422Y-88966961D01*
X113597421Y-88966963D01*
X113564777Y-89031031D01*
X113540485Y-89078707D01*
X113539266Y-89086400D01*
X113539266Y-89086402D01*
X113533177Y-89124847D01*
X113519648Y-89210269D01*
X108197928Y-89210269D01*
X108161969Y-89139694D01*
X108161968Y-89139692D01*
X108158433Y-89132755D01*
X108151352Y-89125674D01*
X108150341Y-89123690D01*
X108148344Y-89120941D01*
X108148779Y-89120625D01*
X108123575Y-89071157D01*
X108133146Y-89010725D01*
X108176411Y-88967460D01*
X108236843Y-88957889D01*
X108251641Y-88961442D01*
X108258438Y-88964905D01*
X108390000Y-88985742D01*
X108397697Y-88984523D01*
X108513867Y-88966124D01*
X108513869Y-88966124D01*
X108521562Y-88964905D01*
X108536570Y-88957258D01*
X108633306Y-88907969D01*
X108633308Y-88907968D01*
X108640245Y-88904433D01*
X108734433Y-88810245D01*
X108742337Y-88794734D01*
X108791369Y-88698502D01*
X108791369Y-88698501D01*
X108794905Y-88691562D01*
X108796698Y-88680245D01*
X108814523Y-88567697D01*
X108815742Y-88560000D01*
X108810991Y-88530000D01*
X108806239Y-88500000D01*
X110012758Y-88500000D01*
X110013977Y-88507697D01*
X110031247Y-88616734D01*
X110033595Y-88631562D01*
X110037131Y-88638501D01*
X110037131Y-88638502D01*
X110085192Y-88732826D01*
X110094067Y-88750245D01*
X110188255Y-88844433D01*
X110195192Y-88847968D01*
X110195194Y-88847969D01*
X110299998Y-88901369D01*
X110306938Y-88904905D01*
X110314631Y-88906124D01*
X110314633Y-88906124D01*
X110430803Y-88924523D01*
X110438500Y-88925742D01*
X110446197Y-88924523D01*
X110562367Y-88906124D01*
X110562369Y-88906124D01*
X110570062Y-88904905D01*
X110577002Y-88901369D01*
X110681806Y-88847969D01*
X110681808Y-88847968D01*
X110688745Y-88844433D01*
X110782933Y-88750245D01*
X110791809Y-88732826D01*
X110839869Y-88638502D01*
X110839869Y-88638501D01*
X110843405Y-88631562D01*
X110845754Y-88616734D01*
X110859491Y-88530000D01*
X111074258Y-88530000D01*
X111075477Y-88537697D01*
X111093654Y-88652461D01*
X111095095Y-88661562D01*
X111098631Y-88668501D01*
X111098631Y-88668502D01*
X111147848Y-88765095D01*
X111155567Y-88780245D01*
X111249755Y-88874433D01*
X111256692Y-88877968D01*
X111256694Y-88877969D01*
X111352323Y-88926694D01*
X111368438Y-88934905D01*
X111376131Y-88936124D01*
X111376133Y-88936124D01*
X111492303Y-88954523D01*
X111500000Y-88955742D01*
X111507697Y-88954523D01*
X111623867Y-88936124D01*
X111623869Y-88936124D01*
X111631562Y-88934905D01*
X111647677Y-88926694D01*
X111743306Y-88877969D01*
X111743308Y-88877968D01*
X111750245Y-88874433D01*
X111844433Y-88780245D01*
X111852153Y-88765095D01*
X111901369Y-88668502D01*
X111901369Y-88668501D01*
X111904905Y-88661562D01*
X111906347Y-88652461D01*
X111916823Y-88586314D01*
X111944600Y-88531798D01*
X111999117Y-88504020D01*
X112045195Y-88507646D01*
X112050498Y-88509369D01*
X112057438Y-88512905D01*
X112065131Y-88514124D01*
X112065133Y-88514124D01*
X112181303Y-88532523D01*
X112189000Y-88533742D01*
X112196697Y-88532523D01*
X112312867Y-88514124D01*
X112312869Y-88514124D01*
X112320562Y-88512905D01*
X112327502Y-88509369D01*
X112432306Y-88455969D01*
X112432308Y-88455968D01*
X112439245Y-88452433D01*
X112533433Y-88358245D01*
X112554605Y-88316694D01*
X112590369Y-88246502D01*
X112590369Y-88246501D01*
X112593905Y-88239562D01*
X112596834Y-88221073D01*
X112613523Y-88115697D01*
X112614742Y-88108000D01*
X112602433Y-88030282D01*
X112595124Y-87984133D01*
X112595124Y-87984131D01*
X112593905Y-87976438D01*
X112590369Y-87969498D01*
X112536969Y-87864694D01*
X112536968Y-87864692D01*
X112533433Y-87857755D01*
X112439245Y-87763567D01*
X112432308Y-87760032D01*
X112432306Y-87760031D01*
X112327502Y-87706631D01*
X112327501Y-87706631D01*
X112320562Y-87703095D01*
X112312869Y-87701876D01*
X112312867Y-87701876D01*
X112196697Y-87683477D01*
X112189000Y-87682258D01*
X112181303Y-87683477D01*
X112065133Y-87701876D01*
X112065131Y-87701876D01*
X112057438Y-87703095D01*
X112050499Y-87706631D01*
X112050498Y-87706631D01*
X111945694Y-87760031D01*
X111945692Y-87760032D01*
X111938755Y-87763567D01*
X111844567Y-87857755D01*
X111841032Y-87864692D01*
X111841031Y-87864694D01*
X111787631Y-87969498D01*
X111784095Y-87976438D01*
X111782876Y-87984131D01*
X111782876Y-87984133D01*
X111772177Y-88051686D01*
X111744400Y-88106202D01*
X111689883Y-88133980D01*
X111643805Y-88130354D01*
X111638502Y-88128631D01*
X111631562Y-88125095D01*
X111623869Y-88123876D01*
X111623867Y-88123876D01*
X111507697Y-88105477D01*
X111500000Y-88104258D01*
X111492303Y-88105477D01*
X111376133Y-88123876D01*
X111376131Y-88123876D01*
X111368438Y-88125095D01*
X111361499Y-88128631D01*
X111361498Y-88128631D01*
X111256694Y-88182031D01*
X111256692Y-88182032D01*
X111249755Y-88185567D01*
X111155567Y-88279755D01*
X111152032Y-88286692D01*
X111152031Y-88286694D01*
X111109106Y-88370939D01*
X111095095Y-88398438D01*
X111093876Y-88406131D01*
X111093876Y-88406133D01*
X111076772Y-88514124D01*
X111074258Y-88530000D01*
X110859491Y-88530000D01*
X110863023Y-88507697D01*
X110864242Y-88500000D01*
X110854514Y-88438579D01*
X110844624Y-88376133D01*
X110844624Y-88376131D01*
X110843405Y-88368438D01*
X110839869Y-88361498D01*
X110786469Y-88256694D01*
X110786468Y-88256692D01*
X110782933Y-88249755D01*
X110688745Y-88155567D01*
X110681808Y-88152032D01*
X110681806Y-88152031D01*
X110577002Y-88098631D01*
X110577001Y-88098631D01*
X110570062Y-88095095D01*
X110562369Y-88093876D01*
X110562367Y-88093876D01*
X110446197Y-88075477D01*
X110438500Y-88074258D01*
X110430803Y-88075477D01*
X110314633Y-88093876D01*
X110314631Y-88093876D01*
X110306938Y-88095095D01*
X110299999Y-88098631D01*
X110299998Y-88098631D01*
X110195194Y-88152031D01*
X110195192Y-88152032D01*
X110188255Y-88155567D01*
X110094067Y-88249755D01*
X110090532Y-88256692D01*
X110090531Y-88256694D01*
X110037131Y-88361498D01*
X110033595Y-88368438D01*
X110032376Y-88376131D01*
X110032376Y-88376133D01*
X110022486Y-88438579D01*
X110012758Y-88500000D01*
X108806239Y-88500000D01*
X108796124Y-88436133D01*
X108796124Y-88436131D01*
X108794905Y-88428438D01*
X108776083Y-88391498D01*
X108737969Y-88316694D01*
X108737968Y-88316692D01*
X108734433Y-88309755D01*
X108640245Y-88215567D01*
X108633308Y-88212032D01*
X108633306Y-88212031D01*
X108528502Y-88158631D01*
X108528501Y-88158631D01*
X108521562Y-88155095D01*
X108513869Y-88153876D01*
X108513867Y-88153876D01*
X108397697Y-88135477D01*
X108390000Y-88134258D01*
X108382303Y-88135477D01*
X108266133Y-88153876D01*
X108266131Y-88153876D01*
X108258438Y-88155095D01*
X108251499Y-88158631D01*
X108251498Y-88158631D01*
X108146694Y-88212031D01*
X108146692Y-88212032D01*
X108139755Y-88215567D01*
X108045567Y-88309755D01*
X108042032Y-88316692D01*
X108042031Y-88316694D01*
X108003917Y-88391498D01*
X107985095Y-88428438D01*
X107983876Y-88436131D01*
X107983876Y-88436133D01*
X107969009Y-88530000D01*
X107964258Y-88560000D01*
X107965477Y-88567697D01*
X107983303Y-88680245D01*
X107985095Y-88691562D01*
X107988631Y-88698501D01*
X107988631Y-88698502D01*
X108037664Y-88794734D01*
X108045567Y-88810245D01*
X108052648Y-88817326D01*
X108053659Y-88819310D01*
X108055656Y-88822059D01*
X108055221Y-88822375D01*
X108080425Y-88871843D01*
X108070854Y-88932275D01*
X108027589Y-88975540D01*
X107967157Y-88985111D01*
X107952359Y-88981558D01*
X107945562Y-88978095D01*
X107814000Y-88957258D01*
X107806303Y-88958477D01*
X107690133Y-88976876D01*
X107690131Y-88976876D01*
X107682438Y-88978095D01*
X107675499Y-88981631D01*
X107675498Y-88981631D01*
X107570694Y-89035031D01*
X107570692Y-89035032D01*
X107563755Y-89038567D01*
X107469567Y-89132755D01*
X107466032Y-89139692D01*
X107466031Y-89139694D01*
X107426150Y-89217966D01*
X107409095Y-89251438D01*
X107407876Y-89259131D01*
X107407876Y-89259133D01*
X107401156Y-89301562D01*
X107388258Y-89383000D01*
X106166108Y-89383000D01*
X106166742Y-89379000D01*
X106159636Y-89334136D01*
X106147124Y-89255133D01*
X106147124Y-89255131D01*
X106145905Y-89247438D01*
X106130888Y-89217966D01*
X106088969Y-89135694D01*
X106088968Y-89135692D01*
X106085433Y-89128755D01*
X105991245Y-89034567D01*
X105984308Y-89031032D01*
X105984306Y-89031031D01*
X105879502Y-88977631D01*
X105879501Y-88977631D01*
X105872562Y-88974095D01*
X105864869Y-88972876D01*
X105864867Y-88972876D01*
X105748697Y-88954477D01*
X105741000Y-88953258D01*
X105733303Y-88954477D01*
X105617133Y-88972876D01*
X105617131Y-88972876D01*
X105609438Y-88974095D01*
X105602499Y-88977631D01*
X105602498Y-88977631D01*
X105497694Y-89031031D01*
X105497692Y-89031032D01*
X105490755Y-89034567D01*
X105396567Y-89128755D01*
X105393032Y-89135692D01*
X105393031Y-89135694D01*
X105351112Y-89217966D01*
X105336095Y-89247438D01*
X105334876Y-89255131D01*
X105334876Y-89255133D01*
X105322364Y-89334136D01*
X105315258Y-89379000D01*
X103705382Y-89379000D01*
X103730299Y-89302312D01*
X103749251Y-89122000D01*
X103730299Y-88941688D01*
X103682551Y-88794734D01*
X103675875Y-88774187D01*
X103675874Y-88774186D01*
X103674273Y-88769257D01*
X103671167Y-88763876D01*
X103586214Y-88616734D01*
X103586213Y-88616733D01*
X103583621Y-88612243D01*
X103560274Y-88586314D01*
X103465774Y-88481360D01*
X103465770Y-88481356D01*
X103462304Y-88477507D01*
X103315626Y-88370939D01*
X103310894Y-88368832D01*
X103310892Y-88368831D01*
X103154733Y-88299304D01*
X103154729Y-88299303D01*
X103149995Y-88297195D01*
X103144925Y-88296117D01*
X103144924Y-88296117D01*
X103067945Y-88279755D01*
X102972652Y-88259500D01*
X102791348Y-88259500D01*
X102696055Y-88279755D01*
X102619076Y-88296117D01*
X102619075Y-88296117D01*
X102614005Y-88297195D01*
X102609269Y-88299304D01*
X102609268Y-88299304D01*
X102453109Y-88368831D01*
X102453107Y-88368832D01*
X102448375Y-88370939D01*
X102301696Y-88477507D01*
X102298230Y-88481356D01*
X102298226Y-88481360D01*
X102203726Y-88586314D01*
X102180379Y-88612243D01*
X102177787Y-88616733D01*
X102177786Y-88616734D01*
X102092834Y-88763876D01*
X102089727Y-88769257D01*
X102088126Y-88774186D01*
X102088125Y-88774187D01*
X102081449Y-88794734D01*
X102033701Y-88941688D01*
X102014749Y-89122000D01*
X94373749Y-89122000D01*
X94373749Y-87602000D01*
X98726318Y-87602000D01*
X98746956Y-87758762D01*
X98807464Y-87904841D01*
X98903718Y-88030282D01*
X99029159Y-88126536D01*
X99099246Y-88155567D01*
X99163136Y-88182031D01*
X99175238Y-88187044D01*
X99292639Y-88202500D01*
X99371361Y-88202500D01*
X99488762Y-88187044D01*
X99500865Y-88182031D01*
X99564754Y-88155567D01*
X99634841Y-88126536D01*
X99760282Y-88030282D01*
X99856536Y-87904841D01*
X99917044Y-87758762D01*
X99937682Y-87602000D01*
X99935181Y-87583000D01*
X112838258Y-87583000D01*
X112839477Y-87590697D01*
X112857808Y-87706433D01*
X112859095Y-87714562D01*
X112862631Y-87721501D01*
X112862631Y-87721502D01*
X112886870Y-87769073D01*
X112919567Y-87833245D01*
X113013755Y-87927433D01*
X113020692Y-87930968D01*
X113020694Y-87930969D01*
X113125035Y-87984133D01*
X113132438Y-87987905D01*
X113140131Y-87989124D01*
X113140133Y-87989124D01*
X113256303Y-88007523D01*
X113264000Y-88008742D01*
X113271697Y-88007523D01*
X113387867Y-87989124D01*
X113387869Y-87989124D01*
X113395562Y-87987905D01*
X113402965Y-87984133D01*
X113507306Y-87930969D01*
X113507308Y-87930968D01*
X113514245Y-87927433D01*
X113608433Y-87833245D01*
X113641131Y-87769073D01*
X113665369Y-87721502D01*
X113665369Y-87721501D01*
X113668905Y-87714562D01*
X113670193Y-87706433D01*
X113688523Y-87590697D01*
X113689742Y-87583000D01*
X113668905Y-87451438D01*
X113662690Y-87439241D01*
X113611969Y-87339694D01*
X113611968Y-87339692D01*
X113608433Y-87332755D01*
X113514245Y-87238567D01*
X113507308Y-87235032D01*
X113507306Y-87235031D01*
X113460172Y-87211015D01*
X116283243Y-87211015D01*
X116284462Y-87218712D01*
X116302091Y-87330016D01*
X116304080Y-87342577D01*
X116307616Y-87349516D01*
X116307616Y-87349517D01*
X116359668Y-87451674D01*
X116364552Y-87461260D01*
X116458740Y-87555448D01*
X116465677Y-87558983D01*
X116465679Y-87558984D01*
X116527920Y-87590697D01*
X116577423Y-87615920D01*
X116585116Y-87617139D01*
X116585118Y-87617139D01*
X116701288Y-87635538D01*
X116708985Y-87636757D01*
X116716682Y-87635538D01*
X116832852Y-87617139D01*
X116832854Y-87617139D01*
X116840547Y-87615920D01*
X116890050Y-87590697D01*
X116952291Y-87558984D01*
X116952293Y-87558983D01*
X116959230Y-87555448D01*
X117053418Y-87461260D01*
X117058303Y-87451674D01*
X117103994Y-87362000D01*
X119006258Y-87362000D01*
X119007477Y-87369697D01*
X119019154Y-87443421D01*
X119027095Y-87493562D01*
X119030631Y-87500501D01*
X119030631Y-87500502D01*
X119079069Y-87595566D01*
X119087567Y-87612245D01*
X119181755Y-87706433D01*
X119188692Y-87709968D01*
X119188694Y-87709969D01*
X119271825Y-87752326D01*
X119300438Y-87766905D01*
X119308131Y-87768124D01*
X119308133Y-87768124D01*
X119424303Y-87786523D01*
X119432000Y-87787742D01*
X119439697Y-87786523D01*
X119555867Y-87768124D01*
X119555869Y-87768124D01*
X119563562Y-87766905D01*
X119592175Y-87752326D01*
X119675306Y-87709969D01*
X119675308Y-87709968D01*
X119682245Y-87706433D01*
X119776433Y-87612245D01*
X119784932Y-87595566D01*
X119833369Y-87500502D01*
X119833369Y-87500501D01*
X119836905Y-87493562D01*
X119844847Y-87443421D01*
X119856523Y-87369697D01*
X119857742Y-87362000D01*
X119854209Y-87339694D01*
X119838124Y-87238133D01*
X119838124Y-87238131D01*
X119836905Y-87230438D01*
X119830930Y-87218712D01*
X119779969Y-87118694D01*
X119779968Y-87118692D01*
X119776433Y-87111755D01*
X119682245Y-87017567D01*
X119675308Y-87014032D01*
X119675306Y-87014031D01*
X119570502Y-86960631D01*
X119570501Y-86960631D01*
X119563562Y-86957095D01*
X119555869Y-86955876D01*
X119555867Y-86955876D01*
X119439697Y-86937477D01*
X119432000Y-86936258D01*
X119424303Y-86937477D01*
X119308133Y-86955876D01*
X119308131Y-86955876D01*
X119300438Y-86957095D01*
X119293499Y-86960631D01*
X119293498Y-86960631D01*
X119188694Y-87014031D01*
X119188692Y-87014032D01*
X119181755Y-87017567D01*
X119087567Y-87111755D01*
X119084032Y-87118692D01*
X119084031Y-87118694D01*
X119033070Y-87218712D01*
X119027095Y-87230438D01*
X119025876Y-87238131D01*
X119025876Y-87238133D01*
X119009791Y-87339694D01*
X119006258Y-87362000D01*
X117103994Y-87362000D01*
X117110354Y-87349517D01*
X117110354Y-87349516D01*
X117113890Y-87342577D01*
X117115880Y-87330016D01*
X117133508Y-87218712D01*
X117134727Y-87211015D01*
X117123410Y-87139562D01*
X117115109Y-87087148D01*
X117115109Y-87087146D01*
X117113890Y-87079453D01*
X117075906Y-87004905D01*
X117056954Y-86967709D01*
X117056953Y-86967707D01*
X117053418Y-86960770D01*
X116959230Y-86866582D01*
X116952293Y-86863047D01*
X116952291Y-86863046D01*
X116847487Y-86809646D01*
X116847486Y-86809646D01*
X116840547Y-86806110D01*
X116832854Y-86804891D01*
X116832852Y-86804891D01*
X116716682Y-86786492D01*
X116708985Y-86785273D01*
X116701288Y-86786492D01*
X116585118Y-86804891D01*
X116585116Y-86804891D01*
X116577423Y-86806110D01*
X116570484Y-86809646D01*
X116570483Y-86809646D01*
X116465679Y-86863046D01*
X116465677Y-86863047D01*
X116458740Y-86866582D01*
X116364552Y-86960770D01*
X116361017Y-86967707D01*
X116361016Y-86967709D01*
X116342064Y-87004905D01*
X116304080Y-87079453D01*
X116302861Y-87087146D01*
X116302861Y-87087148D01*
X116294560Y-87139562D01*
X116283243Y-87211015D01*
X113460172Y-87211015D01*
X113402502Y-87181631D01*
X113402501Y-87181631D01*
X113395562Y-87178095D01*
X113387869Y-87176876D01*
X113387867Y-87176876D01*
X113271697Y-87158477D01*
X113264000Y-87157258D01*
X113256303Y-87158477D01*
X113140133Y-87176876D01*
X113140131Y-87176876D01*
X113132438Y-87178095D01*
X113125499Y-87181631D01*
X113125498Y-87181631D01*
X113020694Y-87235031D01*
X113020692Y-87235032D01*
X113013755Y-87238567D01*
X112919567Y-87332755D01*
X112916032Y-87339692D01*
X112916031Y-87339694D01*
X112865310Y-87439241D01*
X112859095Y-87451438D01*
X112838258Y-87583000D01*
X99935181Y-87583000D01*
X99917044Y-87445238D01*
X99856536Y-87299159D01*
X99760282Y-87173718D01*
X99634841Y-87077464D01*
X99488762Y-87016956D01*
X99371361Y-87001500D01*
X99292639Y-87001500D01*
X99175238Y-87016956D01*
X99029159Y-87077464D01*
X98903718Y-87173718D01*
X98807464Y-87299159D01*
X98746956Y-87445238D01*
X98726318Y-87602000D01*
X94373749Y-87602000D01*
X94373749Y-86853266D01*
X97017831Y-86853266D01*
X97019050Y-86860963D01*
X97035957Y-86967709D01*
X97038668Y-86984828D01*
X97042204Y-86991767D01*
X97042204Y-86991768D01*
X97095116Y-87095613D01*
X97099140Y-87103511D01*
X97193328Y-87197699D01*
X97200265Y-87201234D01*
X97200267Y-87201235D01*
X97305071Y-87254635D01*
X97312011Y-87258171D01*
X97319704Y-87259390D01*
X97319706Y-87259390D01*
X97435876Y-87277789D01*
X97443573Y-87279008D01*
X97451270Y-87277789D01*
X97567440Y-87259390D01*
X97567442Y-87259390D01*
X97575135Y-87258171D01*
X97582075Y-87254635D01*
X97686879Y-87201235D01*
X97686881Y-87201234D01*
X97693818Y-87197699D01*
X97788006Y-87103511D01*
X97792031Y-87095613D01*
X97844942Y-86991768D01*
X97844942Y-86991767D01*
X97848478Y-86984828D01*
X97851190Y-86967709D01*
X97868096Y-86860963D01*
X97869315Y-86853266D01*
X97867738Y-86843306D01*
X97849697Y-86729399D01*
X97849697Y-86729397D01*
X97848478Y-86721704D01*
X97788006Y-86603021D01*
X97766985Y-86582000D01*
X102014749Y-86582000D01*
X102033701Y-86762312D01*
X102089727Y-86934743D01*
X102092318Y-86939231D01*
X102092319Y-86939233D01*
X102137545Y-87017567D01*
X102180379Y-87091757D01*
X102183851Y-87095613D01*
X102298226Y-87222640D01*
X102298230Y-87222644D01*
X102301696Y-87226493D01*
X102448374Y-87333061D01*
X102453106Y-87335168D01*
X102453108Y-87335169D01*
X102609267Y-87404696D01*
X102609271Y-87404697D01*
X102614005Y-87406805D01*
X102619075Y-87407883D01*
X102619076Y-87407883D01*
X102655168Y-87415554D01*
X102791348Y-87444500D01*
X102972652Y-87444500D01*
X103108832Y-87415554D01*
X103144924Y-87407883D01*
X103144925Y-87407883D01*
X103149995Y-87406805D01*
X103154729Y-87404697D01*
X103154733Y-87404696D01*
X103310892Y-87335169D01*
X103310894Y-87335168D01*
X103315626Y-87333061D01*
X103462304Y-87226493D01*
X103465770Y-87222644D01*
X103465774Y-87222640D01*
X103580149Y-87095613D01*
X103583621Y-87091757D01*
X103626455Y-87017567D01*
X103631978Y-87008000D01*
X108188258Y-87008000D01*
X108189477Y-87015697D01*
X108201524Y-87091757D01*
X108209095Y-87139562D01*
X108212631Y-87146501D01*
X108212631Y-87146502D01*
X108259541Y-87238567D01*
X108269567Y-87258245D01*
X108363755Y-87352433D01*
X108370692Y-87355968D01*
X108370694Y-87355969D01*
X108466327Y-87404696D01*
X108482438Y-87412905D01*
X108490131Y-87414124D01*
X108490133Y-87414124D01*
X108606303Y-87432523D01*
X108614000Y-87433742D01*
X108621697Y-87432523D01*
X108737867Y-87414124D01*
X108737869Y-87414124D01*
X108745562Y-87412905D01*
X108761673Y-87404696D01*
X108857306Y-87355969D01*
X108857308Y-87355968D01*
X108864245Y-87352433D01*
X108958433Y-87258245D01*
X108968460Y-87238567D01*
X109015369Y-87146502D01*
X109015369Y-87146501D01*
X109018905Y-87139562D01*
X109026477Y-87091757D01*
X109038523Y-87015697D01*
X109039742Y-87008000D01*
X109028802Y-86938927D01*
X109020124Y-86884133D01*
X109020124Y-86884131D01*
X109018905Y-86876438D01*
X109013883Y-86866582D01*
X108961969Y-86764694D01*
X108961968Y-86764692D01*
X108958433Y-86757755D01*
X108864245Y-86663567D01*
X108857308Y-86660032D01*
X108857306Y-86660031D01*
X108752502Y-86606631D01*
X108752501Y-86606631D01*
X108745562Y-86603095D01*
X108737869Y-86601876D01*
X108737867Y-86601876D01*
X108726022Y-86600000D01*
X127274258Y-86600000D01*
X127275477Y-86607697D01*
X127293534Y-86721704D01*
X127295095Y-86731562D01*
X127298631Y-86738501D01*
X127298631Y-86738502D01*
X127334881Y-86809646D01*
X127355567Y-86850245D01*
X127449755Y-86944433D01*
X127456692Y-86947968D01*
X127456694Y-86947969D01*
X127542655Y-86991768D01*
X127568438Y-87004905D01*
X127576131Y-87006124D01*
X127576133Y-87006124D01*
X127692303Y-87024523D01*
X127700000Y-87025742D01*
X127707697Y-87024523D01*
X127823867Y-87006124D01*
X127823869Y-87006124D01*
X127831562Y-87004905D01*
X127857345Y-86991768D01*
X127943306Y-86947969D01*
X127943308Y-86947968D01*
X127950245Y-86944433D01*
X128044433Y-86850245D01*
X128065120Y-86809646D01*
X128101369Y-86738502D01*
X128101369Y-86738501D01*
X128104905Y-86731562D01*
X128106467Y-86721704D01*
X128124523Y-86607697D01*
X128125742Y-86600000D01*
X128111303Y-86508833D01*
X128106124Y-86476133D01*
X128106124Y-86476131D01*
X128104905Y-86468438D01*
X128085328Y-86430016D01*
X128047969Y-86356694D01*
X128047968Y-86356692D01*
X128044433Y-86349755D01*
X127950245Y-86255567D01*
X127943308Y-86252032D01*
X127943306Y-86252031D01*
X127838502Y-86198631D01*
X127838501Y-86198631D01*
X127831562Y-86195095D01*
X127823869Y-86193876D01*
X127823867Y-86193876D01*
X127707697Y-86175477D01*
X127700000Y-86174258D01*
X127692303Y-86175477D01*
X127576133Y-86193876D01*
X127576131Y-86193876D01*
X127568438Y-86195095D01*
X127561499Y-86198631D01*
X127561498Y-86198631D01*
X127456694Y-86252031D01*
X127456692Y-86252032D01*
X127449755Y-86255567D01*
X127355567Y-86349755D01*
X127352032Y-86356692D01*
X127352031Y-86356694D01*
X127314672Y-86430016D01*
X127295095Y-86468438D01*
X127293876Y-86476131D01*
X127293876Y-86476133D01*
X127288697Y-86508833D01*
X127274258Y-86600000D01*
X108726022Y-86600000D01*
X108621697Y-86583477D01*
X108614000Y-86582258D01*
X108606303Y-86583477D01*
X108490133Y-86601876D01*
X108490131Y-86601876D01*
X108482438Y-86603095D01*
X108475499Y-86606631D01*
X108475498Y-86606631D01*
X108370694Y-86660031D01*
X108370692Y-86660032D01*
X108363755Y-86663567D01*
X108269567Y-86757755D01*
X108266032Y-86764692D01*
X108266031Y-86764694D01*
X108214117Y-86866582D01*
X108209095Y-86876438D01*
X108207876Y-86884131D01*
X108207876Y-86884133D01*
X108199198Y-86938927D01*
X108188258Y-87008000D01*
X103631978Y-87008000D01*
X103671681Y-86939233D01*
X103671682Y-86939231D01*
X103674273Y-86934743D01*
X103730299Y-86762312D01*
X103749251Y-86582000D01*
X103730299Y-86401688D01*
X103674273Y-86229257D01*
X103652623Y-86191757D01*
X103586214Y-86076734D01*
X103586213Y-86076733D01*
X103583621Y-86072243D01*
X103545417Y-86029813D01*
X103465774Y-85941360D01*
X103465770Y-85941356D01*
X103462304Y-85937507D01*
X103315626Y-85830939D01*
X103310894Y-85828832D01*
X103310892Y-85828831D01*
X103154733Y-85759304D01*
X103154729Y-85759303D01*
X103149995Y-85757195D01*
X103144925Y-85756117D01*
X103144924Y-85756117D01*
X103067945Y-85739755D01*
X102972652Y-85719500D01*
X102791348Y-85719500D01*
X102696055Y-85739755D01*
X102619076Y-85756117D01*
X102619075Y-85756117D01*
X102614005Y-85757195D01*
X102609269Y-85759304D01*
X102609268Y-85759304D01*
X102453109Y-85828831D01*
X102453107Y-85828832D01*
X102448375Y-85830939D01*
X102301696Y-85937507D01*
X102298230Y-85941356D01*
X102298226Y-85941360D01*
X102218583Y-86029813D01*
X102180379Y-86072243D01*
X102177787Y-86076733D01*
X102177786Y-86076734D01*
X102111378Y-86191757D01*
X102089727Y-86229257D01*
X102033701Y-86401688D01*
X102014749Y-86582000D01*
X97766985Y-86582000D01*
X97693818Y-86508833D01*
X97686881Y-86505298D01*
X97686879Y-86505297D01*
X97582075Y-86451897D01*
X97582074Y-86451897D01*
X97575135Y-86448361D01*
X97567442Y-86447142D01*
X97567440Y-86447142D01*
X97451270Y-86428743D01*
X97443573Y-86427524D01*
X97435876Y-86428743D01*
X97319706Y-86447142D01*
X97319704Y-86447142D01*
X97312011Y-86448361D01*
X97305072Y-86451897D01*
X97305071Y-86451897D01*
X97200267Y-86505297D01*
X97200265Y-86505298D01*
X97193328Y-86508833D01*
X97099140Y-86603021D01*
X97038668Y-86721704D01*
X97037449Y-86729397D01*
X97037449Y-86729399D01*
X97019408Y-86843306D01*
X97017831Y-86853266D01*
X94373749Y-86853266D01*
X94373749Y-85990000D01*
X95094258Y-85990000D01*
X95095477Y-85997697D01*
X95102056Y-86039233D01*
X95115095Y-86121562D01*
X95118631Y-86128501D01*
X95118631Y-86128502D01*
X95167681Y-86224767D01*
X95175567Y-86240245D01*
X95269755Y-86334433D01*
X95276692Y-86337968D01*
X95276694Y-86337969D01*
X95381498Y-86391369D01*
X95388438Y-86394905D01*
X95396131Y-86396124D01*
X95396133Y-86396124D01*
X95512303Y-86414523D01*
X95520000Y-86415742D01*
X95527697Y-86414523D01*
X95643867Y-86396124D01*
X95643869Y-86396124D01*
X95651562Y-86394905D01*
X95658502Y-86391369D01*
X95763306Y-86337969D01*
X95763308Y-86337968D01*
X95770245Y-86334433D01*
X95864433Y-86240245D01*
X95872320Y-86224767D01*
X95921369Y-86128502D01*
X95921369Y-86128501D01*
X95924905Y-86121562D01*
X95937945Y-86039233D01*
X95944523Y-85997697D01*
X95945742Y-85990000D01*
X95924905Y-85858438D01*
X95919378Y-85847591D01*
X95867969Y-85746694D01*
X95867968Y-85746692D01*
X95864433Y-85739755D01*
X95770245Y-85645567D01*
X95763308Y-85642032D01*
X95763306Y-85642031D01*
X95658502Y-85588631D01*
X95658501Y-85588631D01*
X95651562Y-85585095D01*
X95643869Y-85583876D01*
X95643867Y-85583876D01*
X95527697Y-85565477D01*
X95520000Y-85564258D01*
X95512303Y-85565477D01*
X95396133Y-85583876D01*
X95396131Y-85583876D01*
X95388438Y-85585095D01*
X95381499Y-85588631D01*
X95381498Y-85588631D01*
X95276694Y-85642031D01*
X95276692Y-85642032D01*
X95269755Y-85645567D01*
X95175567Y-85739755D01*
X95172032Y-85746692D01*
X95172031Y-85746694D01*
X95120622Y-85847591D01*
X95115095Y-85858438D01*
X95094258Y-85990000D01*
X94373749Y-85990000D01*
X94373749Y-84042000D01*
X102014749Y-84042000D01*
X102033701Y-84222312D01*
X102089727Y-84394743D01*
X102092318Y-84399231D01*
X102092319Y-84399233D01*
X102129569Y-84463751D01*
X102180379Y-84551757D01*
X102183851Y-84555613D01*
X102298226Y-84682640D01*
X102298230Y-84682644D01*
X102301696Y-84686493D01*
X102448374Y-84793061D01*
X102453106Y-84795168D01*
X102453108Y-84795169D01*
X102609267Y-84864696D01*
X102609271Y-84864697D01*
X102614005Y-84866805D01*
X102619075Y-84867883D01*
X102619076Y-84867883D01*
X102645700Y-84873542D01*
X102791348Y-84904500D01*
X102972652Y-84904500D01*
X103118300Y-84873542D01*
X103144924Y-84867883D01*
X103144925Y-84867883D01*
X103149995Y-84866805D01*
X103154729Y-84864697D01*
X103154733Y-84864696D01*
X103282073Y-84808000D01*
X107663258Y-84808000D01*
X107664477Y-84815697D01*
X107679981Y-84913584D01*
X107684095Y-84939562D01*
X107687631Y-84946501D01*
X107687631Y-84946502D01*
X107737436Y-85044249D01*
X107744567Y-85058245D01*
X107838755Y-85152433D01*
X107845692Y-85155968D01*
X107845694Y-85155969D01*
X107944375Y-85206249D01*
X107957438Y-85212905D01*
X107965131Y-85214124D01*
X107965133Y-85214124D01*
X108081303Y-85232523D01*
X108089000Y-85233742D01*
X108096697Y-85232523D01*
X108212867Y-85214124D01*
X108212869Y-85214124D01*
X108220562Y-85212905D01*
X108233625Y-85206249D01*
X108273437Y-85185964D01*
X108333869Y-85176393D01*
X108388386Y-85204171D01*
X108416163Y-85258687D01*
X108416163Y-85289658D01*
X108413258Y-85308000D01*
X108414477Y-85315697D01*
X108430044Y-85413982D01*
X108434095Y-85439562D01*
X108437631Y-85446501D01*
X108437631Y-85446502D01*
X108490491Y-85550245D01*
X108494567Y-85558245D01*
X108588755Y-85652433D01*
X108595692Y-85655968D01*
X108595694Y-85655969D01*
X108700498Y-85709369D01*
X108707438Y-85712905D01*
X108715131Y-85714124D01*
X108715133Y-85714124D01*
X108831303Y-85732523D01*
X108839000Y-85733742D01*
X108846697Y-85732523D01*
X108962867Y-85714124D01*
X108962869Y-85714124D01*
X108970562Y-85712905D01*
X108977502Y-85709369D01*
X109082306Y-85655969D01*
X109082308Y-85655968D01*
X109089245Y-85652433D01*
X109183433Y-85558245D01*
X109185563Y-85554066D01*
X109233792Y-85519023D01*
X109294978Y-85519022D01*
X109344479Y-85554985D01*
X109362168Y-85597690D01*
X109362614Y-85600502D01*
X109367473Y-85631184D01*
X109371009Y-85638123D01*
X109371009Y-85638124D01*
X109422793Y-85739755D01*
X109427945Y-85749867D01*
X109522133Y-85844055D01*
X109529070Y-85847590D01*
X109529072Y-85847591D01*
X109628844Y-85898427D01*
X109640816Y-85904527D01*
X109648509Y-85905746D01*
X109648511Y-85905746D01*
X109764681Y-85924145D01*
X109772378Y-85925364D01*
X109780075Y-85924145D01*
X109896245Y-85905746D01*
X109896247Y-85905746D01*
X109903940Y-85904527D01*
X109915912Y-85898427D01*
X110015684Y-85847591D01*
X110015686Y-85847590D01*
X110022623Y-85844055D01*
X110116811Y-85749867D01*
X110121964Y-85739755D01*
X110173747Y-85638124D01*
X110173747Y-85638123D01*
X110177283Y-85631184D01*
X110182143Y-85600502D01*
X110196901Y-85507319D01*
X110198120Y-85499622D01*
X110196901Y-85491925D01*
X110178502Y-85375755D01*
X110178502Y-85375753D01*
X110177283Y-85368060D01*
X110173747Y-85361120D01*
X110142605Y-85300000D01*
X112034258Y-85300000D01*
X112035477Y-85307697D01*
X112052311Y-85413982D01*
X112055095Y-85431562D01*
X112058631Y-85438501D01*
X112058631Y-85438502D01*
X112099659Y-85519023D01*
X112115567Y-85550245D01*
X112209755Y-85644433D01*
X112216692Y-85647968D01*
X112216694Y-85647969D01*
X112314890Y-85698002D01*
X112328438Y-85704905D01*
X112336131Y-85706124D01*
X112336133Y-85706124D01*
X112452303Y-85724523D01*
X112460000Y-85725742D01*
X112467697Y-85724523D01*
X112583867Y-85706124D01*
X112583869Y-85706124D01*
X112591562Y-85704905D01*
X112605110Y-85698002D01*
X112703306Y-85647969D01*
X112703308Y-85647968D01*
X112710245Y-85644433D01*
X112804433Y-85550245D01*
X112820342Y-85519023D01*
X112861369Y-85438502D01*
X112861369Y-85438501D01*
X112864905Y-85431562D01*
X112867690Y-85413982D01*
X112884523Y-85307697D01*
X112885742Y-85300000D01*
X112884105Y-85289663D01*
X112866124Y-85176133D01*
X112866124Y-85176131D01*
X112864905Y-85168438D01*
X112853945Y-85146927D01*
X112807969Y-85056694D01*
X112807968Y-85056692D01*
X112804433Y-85049755D01*
X112710245Y-84955567D01*
X112703308Y-84952032D01*
X112703306Y-84952031D01*
X112598502Y-84898631D01*
X112598501Y-84898631D01*
X112591562Y-84895095D01*
X112583869Y-84893876D01*
X112583867Y-84893876D01*
X112467697Y-84875477D01*
X112460000Y-84874258D01*
X112452303Y-84875477D01*
X112336133Y-84893876D01*
X112336131Y-84893876D01*
X112328438Y-84895095D01*
X112321499Y-84898631D01*
X112321498Y-84898631D01*
X112216694Y-84952031D01*
X112216692Y-84952032D01*
X112209755Y-84955567D01*
X112115567Y-85049755D01*
X112112032Y-85056692D01*
X112112031Y-85056694D01*
X112066055Y-85146927D01*
X112055095Y-85168438D01*
X112053876Y-85176131D01*
X112053876Y-85176133D01*
X112035895Y-85289663D01*
X112034258Y-85300000D01*
X110142605Y-85300000D01*
X110120347Y-85256316D01*
X110120346Y-85256314D01*
X110116811Y-85249377D01*
X110022623Y-85155189D01*
X110015686Y-85151654D01*
X110015684Y-85151653D01*
X109910880Y-85098253D01*
X109910879Y-85098253D01*
X109903940Y-85094717D01*
X109896247Y-85093498D01*
X109896245Y-85093498D01*
X109780075Y-85075099D01*
X109772378Y-85073880D01*
X109764681Y-85075099D01*
X109648511Y-85093498D01*
X109648509Y-85093498D01*
X109640816Y-85094717D01*
X109633877Y-85098253D01*
X109633876Y-85098253D01*
X109529072Y-85151653D01*
X109529070Y-85151654D01*
X109522133Y-85155189D01*
X109427945Y-85249377D01*
X109425815Y-85253556D01*
X109377586Y-85288599D01*
X109316400Y-85288600D01*
X109266899Y-85252637D01*
X109249210Y-85209932D01*
X109245124Y-85184133D01*
X109245124Y-85184131D01*
X109243905Y-85176438D01*
X109233078Y-85155189D01*
X109186969Y-85064694D01*
X109186968Y-85064692D01*
X109183433Y-85057755D01*
X109089245Y-84963567D01*
X109082308Y-84960032D01*
X109082306Y-84960031D01*
X108977502Y-84906631D01*
X108977501Y-84906631D01*
X108970562Y-84903095D01*
X108962869Y-84901876D01*
X108962867Y-84901876D01*
X108846697Y-84883477D01*
X108839000Y-84882258D01*
X108831303Y-84883477D01*
X108715133Y-84901876D01*
X108715131Y-84901876D01*
X108707438Y-84903095D01*
X108700499Y-84906631D01*
X108700498Y-84906631D01*
X108654563Y-84930036D01*
X108594131Y-84939607D01*
X108539614Y-84911829D01*
X108511837Y-84857313D01*
X108511837Y-84826342D01*
X108514742Y-84808000D01*
X108508676Y-84769697D01*
X108507457Y-84762000D01*
X113306258Y-84762000D01*
X113307477Y-84769697D01*
X113325498Y-84883477D01*
X113327095Y-84893562D01*
X113330631Y-84900501D01*
X113330631Y-84900502D01*
X113376957Y-84991421D01*
X113387567Y-85012245D01*
X113481755Y-85106433D01*
X113488692Y-85109968D01*
X113488694Y-85109969D01*
X113561229Y-85146927D01*
X113600438Y-85166905D01*
X113608131Y-85168124D01*
X113608133Y-85168124D01*
X113724303Y-85186523D01*
X113732000Y-85187742D01*
X113858599Y-85167691D01*
X113919031Y-85177262D01*
X113962296Y-85220527D01*
X113971867Y-85280959D01*
X113962296Y-85310416D01*
X113955632Y-85323495D01*
X113955631Y-85323498D01*
X113952095Y-85330438D01*
X113950876Y-85338131D01*
X113950876Y-85338133D01*
X113935434Y-85435633D01*
X113931258Y-85462000D01*
X113932477Y-85469697D01*
X113950326Y-85582390D01*
X113952095Y-85593562D01*
X113955631Y-85600501D01*
X113955631Y-85600502D01*
X114005310Y-85698002D01*
X114012567Y-85712245D01*
X114106755Y-85806433D01*
X114113692Y-85809968D01*
X114113694Y-85809969D01*
X114216424Y-85862312D01*
X114225438Y-85866905D01*
X114233131Y-85868124D01*
X114233133Y-85868124D01*
X114349303Y-85886523D01*
X114357000Y-85887742D01*
X114364697Y-85886523D01*
X114480867Y-85868124D01*
X114480869Y-85868124D01*
X114488562Y-85866905D01*
X114497576Y-85862312D01*
X114600306Y-85809969D01*
X114600308Y-85809968D01*
X114607245Y-85806433D01*
X114701433Y-85712245D01*
X114708691Y-85698002D01*
X114758369Y-85600502D01*
X114758369Y-85600501D01*
X114761905Y-85593562D01*
X114763675Y-85582390D01*
X114767300Y-85559500D01*
X126524258Y-85559500D01*
X126525477Y-85567197D01*
X126543660Y-85682000D01*
X126545095Y-85691062D01*
X126548631Y-85698001D01*
X126548631Y-85698002D01*
X126575058Y-85749867D01*
X126605567Y-85809745D01*
X126699755Y-85903933D01*
X126706692Y-85907468D01*
X126706694Y-85907469D01*
X126811498Y-85960869D01*
X126818438Y-85964405D01*
X126826131Y-85965624D01*
X126826133Y-85965624D01*
X126942303Y-85984023D01*
X126950000Y-85985242D01*
X126957697Y-85984023D01*
X127073867Y-85965624D01*
X127073869Y-85965624D01*
X127081562Y-85964405D01*
X127088502Y-85960869D01*
X127193306Y-85907469D01*
X127193308Y-85907468D01*
X127200245Y-85903933D01*
X127294433Y-85809745D01*
X127324943Y-85749867D01*
X127351369Y-85698002D01*
X127351369Y-85698001D01*
X127354905Y-85691062D01*
X127356341Y-85682000D01*
X146114749Y-85682000D01*
X146133701Y-85862312D01*
X146189727Y-86034743D01*
X146192318Y-86039231D01*
X146192319Y-86039233D01*
X146213970Y-86076734D01*
X146280379Y-86191757D01*
X146283851Y-86195613D01*
X146398226Y-86322640D01*
X146398230Y-86322644D01*
X146401696Y-86326493D01*
X146548374Y-86433061D01*
X146553106Y-86435168D01*
X146553108Y-86435169D01*
X146709267Y-86504696D01*
X146709271Y-86504697D01*
X146714005Y-86506805D01*
X146719075Y-86507883D01*
X146719076Y-86507883D01*
X146723546Y-86508833D01*
X146891348Y-86544500D01*
X147072652Y-86544500D01*
X147240454Y-86508833D01*
X147244924Y-86507883D01*
X147244925Y-86507883D01*
X147249995Y-86506805D01*
X147254729Y-86504697D01*
X147254733Y-86504696D01*
X147410892Y-86435169D01*
X147410894Y-86435168D01*
X147415626Y-86433061D01*
X147562304Y-86326493D01*
X147565770Y-86322644D01*
X147565774Y-86322640D01*
X147680149Y-86195613D01*
X147683621Y-86191757D01*
X147750030Y-86076734D01*
X147771681Y-86039233D01*
X147771682Y-86039231D01*
X147774273Y-86034743D01*
X147830299Y-85862312D01*
X147849251Y-85682000D01*
X147830299Y-85501688D01*
X147774273Y-85329257D01*
X147770947Y-85323495D01*
X147686214Y-85176734D01*
X147686213Y-85176733D01*
X147683621Y-85172243D01*
X147673223Y-85160695D01*
X147565774Y-85041360D01*
X147565770Y-85041356D01*
X147562304Y-85037507D01*
X147415626Y-84930939D01*
X147410894Y-84928832D01*
X147410892Y-84928831D01*
X147254733Y-84859304D01*
X147254729Y-84859303D01*
X147249995Y-84857195D01*
X147244925Y-84856117D01*
X147244924Y-84856117D01*
X147199387Y-84846438D01*
X147072652Y-84819500D01*
X146891348Y-84819500D01*
X146764613Y-84846438D01*
X146719076Y-84856117D01*
X146719075Y-84856117D01*
X146714005Y-84857195D01*
X146709269Y-84859304D01*
X146709268Y-84859304D01*
X146553109Y-84928831D01*
X146553107Y-84928832D01*
X146548375Y-84930939D01*
X146401696Y-85037507D01*
X146398230Y-85041356D01*
X146398226Y-85041360D01*
X146290777Y-85160695D01*
X146280379Y-85172243D01*
X146277787Y-85176733D01*
X146277786Y-85176734D01*
X146193054Y-85323495D01*
X146189727Y-85329257D01*
X146133701Y-85501688D01*
X146114749Y-85682000D01*
X127356341Y-85682000D01*
X127374523Y-85567197D01*
X127375742Y-85559500D01*
X127367873Y-85509814D01*
X127356124Y-85435633D01*
X127356124Y-85435631D01*
X127354905Y-85427938D01*
X127342577Y-85403742D01*
X127297969Y-85316194D01*
X127297968Y-85316192D01*
X127294433Y-85309255D01*
X127200245Y-85215067D01*
X127193308Y-85211532D01*
X127193306Y-85211531D01*
X127088502Y-85158131D01*
X127088501Y-85158131D01*
X127081562Y-85154595D01*
X127073869Y-85153376D01*
X127073867Y-85153376D01*
X126957697Y-85134977D01*
X126950000Y-85133758D01*
X126942303Y-85134977D01*
X126826133Y-85153376D01*
X126826131Y-85153376D01*
X126818438Y-85154595D01*
X126811499Y-85158131D01*
X126811498Y-85158131D01*
X126706694Y-85211531D01*
X126706692Y-85211532D01*
X126699755Y-85215067D01*
X126605567Y-85309255D01*
X126602032Y-85316192D01*
X126602031Y-85316194D01*
X126557423Y-85403742D01*
X126545095Y-85427938D01*
X126543876Y-85435631D01*
X126543876Y-85435633D01*
X126532127Y-85509814D01*
X126524258Y-85559500D01*
X114767300Y-85559500D01*
X114781523Y-85469697D01*
X114782742Y-85462000D01*
X114778566Y-85435633D01*
X114763124Y-85338133D01*
X114763124Y-85338131D01*
X114761905Y-85330438D01*
X114748306Y-85303749D01*
X114704969Y-85218694D01*
X114704968Y-85218692D01*
X114701433Y-85211755D01*
X114607245Y-85117567D01*
X114600308Y-85114032D01*
X114600306Y-85114031D01*
X114495502Y-85060631D01*
X114495501Y-85060631D01*
X114488562Y-85057095D01*
X114480869Y-85055876D01*
X114480867Y-85055876D01*
X114364697Y-85037477D01*
X114357000Y-85036258D01*
X114349303Y-85037477D01*
X114306546Y-85044249D01*
X114230401Y-85056309D01*
X114169969Y-85046738D01*
X114126704Y-85003473D01*
X114117133Y-84943041D01*
X114126704Y-84913584D01*
X114133368Y-84900505D01*
X114133369Y-84900502D01*
X114136905Y-84893562D01*
X114138503Y-84883477D01*
X114156523Y-84769697D01*
X114157742Y-84762000D01*
X114149388Y-84709251D01*
X114138124Y-84638133D01*
X114138124Y-84638131D01*
X114136905Y-84630438D01*
X114128593Y-84614124D01*
X114079969Y-84518694D01*
X114079968Y-84518692D01*
X114076433Y-84511755D01*
X113982245Y-84417567D01*
X113975308Y-84414032D01*
X113975306Y-84414031D01*
X113870502Y-84360631D01*
X113870501Y-84360631D01*
X113863562Y-84357095D01*
X113855869Y-84355876D01*
X113855867Y-84355876D01*
X113739697Y-84337477D01*
X113732000Y-84336258D01*
X113724303Y-84337477D01*
X113608133Y-84355876D01*
X113608131Y-84355876D01*
X113600438Y-84357095D01*
X113593499Y-84360631D01*
X113593498Y-84360631D01*
X113488694Y-84414031D01*
X113488692Y-84414032D01*
X113481755Y-84417567D01*
X113387567Y-84511755D01*
X113384032Y-84518692D01*
X113384031Y-84518694D01*
X113335407Y-84614124D01*
X113327095Y-84630438D01*
X113325876Y-84638131D01*
X113325876Y-84638133D01*
X113314612Y-84709251D01*
X113306258Y-84762000D01*
X108507457Y-84762000D01*
X108495124Y-84684133D01*
X108495124Y-84684131D01*
X108493905Y-84676438D01*
X108489703Y-84668191D01*
X108436969Y-84564694D01*
X108436968Y-84564692D01*
X108433433Y-84557755D01*
X108339245Y-84463567D01*
X108332308Y-84460032D01*
X108332306Y-84460031D01*
X108227502Y-84406631D01*
X108227501Y-84406631D01*
X108220562Y-84403095D01*
X108212869Y-84401876D01*
X108212867Y-84401876D01*
X108096697Y-84383477D01*
X108089000Y-84382258D01*
X108081303Y-84383477D01*
X107965133Y-84401876D01*
X107965131Y-84401876D01*
X107957438Y-84403095D01*
X107950499Y-84406631D01*
X107950498Y-84406631D01*
X107845694Y-84460031D01*
X107845692Y-84460032D01*
X107838755Y-84463567D01*
X107744567Y-84557755D01*
X107741032Y-84564692D01*
X107741031Y-84564694D01*
X107688297Y-84668191D01*
X107684095Y-84676438D01*
X107682876Y-84684131D01*
X107682876Y-84684133D01*
X107669324Y-84769697D01*
X107663258Y-84808000D01*
X103282073Y-84808000D01*
X103310892Y-84795169D01*
X103310894Y-84795168D01*
X103315626Y-84793061D01*
X103462304Y-84686493D01*
X103465770Y-84682644D01*
X103465774Y-84682640D01*
X103580149Y-84555613D01*
X103583621Y-84551757D01*
X103634431Y-84463751D01*
X103671681Y-84399233D01*
X103671682Y-84399231D01*
X103674273Y-84394743D01*
X103730299Y-84222312D01*
X103749251Y-84042000D01*
X103730299Y-83861688D01*
X103682087Y-83713306D01*
X103675875Y-83694187D01*
X103675874Y-83694186D01*
X103674273Y-83689257D01*
X103661782Y-83667621D01*
X103586214Y-83536734D01*
X103586213Y-83536733D01*
X103583621Y-83532243D01*
X103567083Y-83513876D01*
X103465774Y-83401360D01*
X103465770Y-83401356D01*
X103462304Y-83397507D01*
X103315626Y-83290939D01*
X103310894Y-83288832D01*
X103310892Y-83288831D01*
X103154733Y-83219304D01*
X103154729Y-83219303D01*
X103149995Y-83217195D01*
X103144925Y-83216117D01*
X103144924Y-83216117D01*
X103090377Y-83204523D01*
X102972652Y-83179500D01*
X102791348Y-83179500D01*
X102673623Y-83204523D01*
X102619076Y-83216117D01*
X102619075Y-83216117D01*
X102614005Y-83217195D01*
X102609269Y-83219304D01*
X102609268Y-83219304D01*
X102453109Y-83288831D01*
X102453107Y-83288832D01*
X102448375Y-83290939D01*
X102301696Y-83397507D01*
X102298230Y-83401356D01*
X102298226Y-83401360D01*
X102196917Y-83513876D01*
X102180379Y-83532243D01*
X102177787Y-83536733D01*
X102177786Y-83536734D01*
X102102219Y-83667621D01*
X102089727Y-83689257D01*
X102088126Y-83694186D01*
X102088125Y-83694187D01*
X102081913Y-83713306D01*
X102033701Y-83861688D01*
X102014749Y-84042000D01*
X94373749Y-84042000D01*
X94373749Y-82840000D01*
X97481758Y-82840000D01*
X97482977Y-82847697D01*
X97500527Y-82958502D01*
X97502595Y-82971562D01*
X97506131Y-82978501D01*
X97506131Y-82978502D01*
X97558341Y-83080969D01*
X97563067Y-83090245D01*
X97657255Y-83184433D01*
X97664192Y-83187968D01*
X97664194Y-83187969D01*
X97768998Y-83241369D01*
X97775938Y-83244905D01*
X97783631Y-83246124D01*
X97783633Y-83246124D01*
X97899803Y-83264523D01*
X97907500Y-83265742D01*
X97915197Y-83264523D01*
X98031367Y-83246124D01*
X98031369Y-83246124D01*
X98039062Y-83244905D01*
X98046002Y-83241369D01*
X98150806Y-83187969D01*
X98150808Y-83187968D01*
X98157745Y-83184433D01*
X98251933Y-83090245D01*
X98256660Y-83080969D01*
X98308869Y-82978502D01*
X98308869Y-82978501D01*
X98312405Y-82971562D01*
X98314474Y-82958502D01*
X98332023Y-82847697D01*
X98333242Y-82840000D01*
X98332023Y-82832303D01*
X98313624Y-82716133D01*
X98313624Y-82716131D01*
X98312405Y-82708438D01*
X98306135Y-82696133D01*
X98255469Y-82596694D01*
X98255468Y-82596692D01*
X98251933Y-82589755D01*
X98157745Y-82495567D01*
X98150808Y-82492032D01*
X98150806Y-82492031D01*
X98046002Y-82438631D01*
X98046001Y-82438631D01*
X98039062Y-82435095D01*
X98031369Y-82433876D01*
X98031367Y-82433876D01*
X97915197Y-82415477D01*
X97907500Y-82414258D01*
X97899803Y-82415477D01*
X97783633Y-82433876D01*
X97783631Y-82433876D01*
X97775938Y-82435095D01*
X97768999Y-82438631D01*
X97768998Y-82438631D01*
X97664194Y-82492031D01*
X97664192Y-82492032D01*
X97657255Y-82495567D01*
X97563067Y-82589755D01*
X97559532Y-82596692D01*
X97559531Y-82596694D01*
X97508865Y-82696133D01*
X97502595Y-82708438D01*
X97501376Y-82716131D01*
X97501376Y-82716133D01*
X97482977Y-82832303D01*
X97481758Y-82840000D01*
X94373749Y-82840000D01*
X94373749Y-81822000D01*
X98726318Y-81822000D01*
X98746956Y-81978762D01*
X98807464Y-82124841D01*
X98903718Y-82250282D01*
X99029159Y-82346536D01*
X99175238Y-82407044D01*
X99292639Y-82422500D01*
X99371361Y-82422500D01*
X99488762Y-82407044D01*
X99634841Y-82346536D01*
X99760282Y-82250282D01*
X99856536Y-82124841D01*
X99917044Y-81978762D01*
X99937682Y-81822000D01*
X99917044Y-81665238D01*
X99856536Y-81519159D01*
X99760282Y-81393718D01*
X99634841Y-81297464D01*
X99488762Y-81236956D01*
X99371361Y-81221500D01*
X99292639Y-81221500D01*
X99175238Y-81236956D01*
X99029159Y-81297464D01*
X98903718Y-81393718D01*
X98807464Y-81519159D01*
X98746956Y-81665238D01*
X98726318Y-81822000D01*
X94373749Y-81822000D01*
X94373749Y-80654500D01*
X107484258Y-80654500D01*
X107485477Y-80662197D01*
X107501711Y-80764694D01*
X107505095Y-80786062D01*
X107508631Y-80793001D01*
X107508631Y-80793002D01*
X107560313Y-80894433D01*
X107565567Y-80904745D01*
X107659755Y-80998933D01*
X107666692Y-81002468D01*
X107666694Y-81002469D01*
X107719193Y-81029218D01*
X107762458Y-81072483D01*
X107772029Y-81132915D01*
X107762458Y-81162373D01*
X107735095Y-81216076D01*
X107733876Y-81223769D01*
X107733876Y-81223771D01*
X107722205Y-81297464D01*
X107714258Y-81347638D01*
X107715477Y-81355335D01*
X107732667Y-81463867D01*
X107735095Y-81479200D01*
X107738631Y-81486139D01*
X107738631Y-81486140D01*
X107788140Y-81583306D01*
X107795567Y-81597883D01*
X107889755Y-81692071D01*
X107896692Y-81695606D01*
X107896694Y-81695607D01*
X107995840Y-81746124D01*
X108008438Y-81752543D01*
X108016131Y-81753762D01*
X108016133Y-81753762D01*
X108132303Y-81772161D01*
X108140000Y-81773380D01*
X108260991Y-81754217D01*
X108321422Y-81763788D01*
X108364687Y-81807053D01*
X108374552Y-81848144D01*
X108374258Y-81850000D01*
X108375477Y-81857697D01*
X108378944Y-81879584D01*
X108395095Y-81981562D01*
X108398631Y-81988501D01*
X108398631Y-81988502D01*
X108419836Y-82030118D01*
X108455567Y-82100245D01*
X108549755Y-82194433D01*
X108556692Y-82197968D01*
X108556694Y-82197969D01*
X108581329Y-82210521D01*
X108601705Y-82220903D01*
X108644968Y-82264166D01*
X108654540Y-82324599D01*
X108626763Y-82379115D01*
X108618566Y-82386116D01*
X108613755Y-82388567D01*
X108519567Y-82482755D01*
X108516032Y-82489692D01*
X108516031Y-82489694D01*
X108465048Y-82589755D01*
X108459095Y-82601438D01*
X108438258Y-82733000D01*
X108439477Y-82740697D01*
X108446253Y-82783477D01*
X108459095Y-82864562D01*
X108462631Y-82871501D01*
X108462631Y-82871502D01*
X108511212Y-82966847D01*
X108519567Y-82983245D01*
X108613755Y-83077433D01*
X108620692Y-83080968D01*
X108620694Y-83080969D01*
X108708223Y-83125567D01*
X108732438Y-83137905D01*
X108740131Y-83139124D01*
X108740133Y-83139124D01*
X108856303Y-83157523D01*
X108864000Y-83158742D01*
X108871697Y-83157523D01*
X108987867Y-83139124D01*
X108987869Y-83139124D01*
X108995562Y-83137905D01*
X109019777Y-83125567D01*
X109107306Y-83080969D01*
X109107308Y-83080968D01*
X109114245Y-83077433D01*
X109208433Y-82983245D01*
X109216789Y-82966847D01*
X109265369Y-82871502D01*
X109265369Y-82871501D01*
X109268905Y-82864562D01*
X109275963Y-82820000D01*
X110454758Y-82820000D01*
X110455977Y-82827697D01*
X110464014Y-82878438D01*
X110475595Y-82951562D01*
X110479131Y-82958501D01*
X110479131Y-82958502D01*
X110527376Y-83053187D01*
X110536067Y-83070245D01*
X110630255Y-83164433D01*
X110637192Y-83167968D01*
X110637194Y-83167969D01*
X110741998Y-83221369D01*
X110748938Y-83224905D01*
X110756631Y-83226124D01*
X110756633Y-83226124D01*
X110801524Y-83233234D01*
X110856041Y-83261012D01*
X110883818Y-83315528D01*
X110883818Y-83346501D01*
X110864258Y-83470000D01*
X110865477Y-83477697D01*
X110881068Y-83576133D01*
X110885095Y-83601562D01*
X110888631Y-83608501D01*
X110888631Y-83608502D01*
X110935252Y-83700000D01*
X110945567Y-83720245D01*
X111039755Y-83814433D01*
X111046692Y-83817968D01*
X111046694Y-83817969D01*
X111129246Y-83860031D01*
X111158438Y-83874905D01*
X111166131Y-83876124D01*
X111166133Y-83876124D01*
X111282303Y-83894523D01*
X111290000Y-83895742D01*
X111387731Y-83880263D01*
X111448162Y-83889834D01*
X111491427Y-83933099D01*
X111500998Y-83962557D01*
X111513581Y-84042000D01*
X111515095Y-84051562D01*
X111518631Y-84058501D01*
X111518631Y-84058502D01*
X111565127Y-84149755D01*
X111575567Y-84170245D01*
X111669755Y-84264433D01*
X111676692Y-84267968D01*
X111676694Y-84267969D01*
X111768994Y-84314998D01*
X111788438Y-84324905D01*
X111796131Y-84326124D01*
X111796133Y-84326124D01*
X111912303Y-84344523D01*
X111920000Y-84345742D01*
X111927697Y-84344523D01*
X112043867Y-84326124D01*
X112043869Y-84326124D01*
X112051562Y-84324905D01*
X112071006Y-84314998D01*
X112163306Y-84267969D01*
X112163308Y-84267968D01*
X112170245Y-84264433D01*
X112264433Y-84170245D01*
X112274874Y-84149755D01*
X112321369Y-84058502D01*
X112321369Y-84058501D01*
X112324905Y-84051562D01*
X112326420Y-84042000D01*
X112344523Y-83927697D01*
X112345742Y-83920000D01*
X112344523Y-83912303D01*
X112326124Y-83796133D01*
X112326124Y-83796131D01*
X112324905Y-83788438D01*
X112322134Y-83783000D01*
X115413258Y-83783000D01*
X115414477Y-83790697D01*
X115431024Y-83895169D01*
X115434095Y-83914562D01*
X115437631Y-83921501D01*
X115437631Y-83921502D01*
X115481932Y-84008447D01*
X115494567Y-84033245D01*
X115588755Y-84127433D01*
X115595692Y-84130968D01*
X115595694Y-84130969D01*
X115672778Y-84170245D01*
X115707438Y-84187905D01*
X115715131Y-84189124D01*
X115715133Y-84189124D01*
X115745107Y-84193871D01*
X115779823Y-84199369D01*
X115834339Y-84227146D01*
X115862117Y-84281662D01*
X115858950Y-84321915D01*
X115859095Y-84321938D01*
X115838258Y-84453500D01*
X115839477Y-84461197D01*
X115857760Y-84576631D01*
X115859095Y-84585062D01*
X115862631Y-84592001D01*
X115862631Y-84592002D01*
X115912329Y-84689539D01*
X115919567Y-84703745D01*
X116013755Y-84797933D01*
X116020692Y-84801468D01*
X116020694Y-84801469D01*
X116124054Y-84854133D01*
X116132438Y-84858405D01*
X116140131Y-84859624D01*
X116140133Y-84859624D01*
X116256303Y-84878023D01*
X116264000Y-84879242D01*
X116271697Y-84878023D01*
X116271698Y-84878023D01*
X116299991Y-84873542D01*
X116360423Y-84883114D01*
X116403687Y-84926379D01*
X116414380Y-84970918D01*
X116413258Y-84978000D01*
X116414477Y-84985697D01*
X116428637Y-85075099D01*
X116434095Y-85109562D01*
X116437631Y-85116501D01*
X116437631Y-85116502D01*
X116489701Y-85218694D01*
X116494567Y-85228245D01*
X116588755Y-85322433D01*
X116595692Y-85325968D01*
X116595694Y-85325969D01*
X116678303Y-85368060D01*
X116707438Y-85382905D01*
X116715131Y-85384124D01*
X116715133Y-85384124D01*
X116831303Y-85402523D01*
X116839000Y-85403742D01*
X116846697Y-85402523D01*
X116962867Y-85384124D01*
X116962869Y-85384124D01*
X116970562Y-85382905D01*
X116999697Y-85368060D01*
X117082306Y-85325969D01*
X117082308Y-85325968D01*
X117089245Y-85322433D01*
X117183433Y-85228245D01*
X117188300Y-85218694D01*
X117238677Y-85119823D01*
X136744391Y-85119823D01*
X136745306Y-85126820D01*
X136745306Y-85126821D01*
X136757661Y-85221306D01*
X136762980Y-85261979D01*
X136765821Y-85268435D01*
X136765821Y-85268436D01*
X136816189Y-85382905D01*
X136820720Y-85393203D01*
X136856386Y-85435633D01*
X136908431Y-85497549D01*
X136908434Y-85497551D01*
X136912970Y-85502948D01*
X136918841Y-85506856D01*
X136918842Y-85506857D01*
X136931143Y-85515045D01*
X137032313Y-85582390D01*
X137132920Y-85613821D01*
X137162425Y-85623039D01*
X137162426Y-85623039D01*
X137169157Y-85625142D01*
X137240828Y-85626456D01*
X137305445Y-85627641D01*
X137305447Y-85627641D01*
X137312499Y-85627770D01*
X137319302Y-85625915D01*
X137319304Y-85625915D01*
X137412516Y-85600502D01*
X137450817Y-85590060D01*
X137572991Y-85515045D01*
X137580403Y-85506857D01*
X137664468Y-85413982D01*
X137669200Y-85408754D01*
X137727414Y-85288600D01*
X137728634Y-85286082D01*
X137731710Y-85279733D01*
X137735875Y-85254982D01*
X137754862Y-85142124D01*
X137754862Y-85142120D01*
X137755496Y-85138354D01*
X137755647Y-85126000D01*
X137735323Y-84984082D01*
X137700108Y-84906631D01*
X137678905Y-84859996D01*
X137678904Y-84859995D01*
X137675984Y-84853572D01*
X137582400Y-84744963D01*
X137462095Y-84666985D01*
X137324739Y-84625907D01*
X137241497Y-84625398D01*
X137188427Y-84625074D01*
X137188426Y-84625074D01*
X137181376Y-84625031D01*
X137174599Y-84626968D01*
X137174598Y-84626968D01*
X137050309Y-84662490D01*
X137050307Y-84662491D01*
X137043529Y-84664428D01*
X137024494Y-84676438D01*
X136932164Y-84734694D01*
X136922280Y-84740930D01*
X136917613Y-84746214D01*
X136917611Y-84746216D01*
X136832044Y-84843103D01*
X136832042Y-84843105D01*
X136827377Y-84848388D01*
X136824381Y-84854770D01*
X136824380Y-84854771D01*
X136809780Y-84885867D01*
X136766447Y-84978163D01*
X136765362Y-84985132D01*
X136765361Y-84985135D01*
X136754055Y-85057755D01*
X136744391Y-85119823D01*
X117238677Y-85119823D01*
X117240369Y-85116502D01*
X117240369Y-85116501D01*
X117243905Y-85109562D01*
X117249364Y-85075099D01*
X117263523Y-84985697D01*
X117264742Y-84978000D01*
X117257771Y-84933984D01*
X117245124Y-84854133D01*
X117245124Y-84854131D01*
X117243905Y-84846438D01*
X117230729Y-84820579D01*
X117186969Y-84734694D01*
X117186968Y-84734692D01*
X117183433Y-84727755D01*
X117089245Y-84633567D01*
X117082308Y-84630032D01*
X117082306Y-84630031D01*
X116977502Y-84576631D01*
X116977501Y-84576631D01*
X116970562Y-84573095D01*
X116962869Y-84571876D01*
X116962867Y-84571876D01*
X116846697Y-84553477D01*
X116839000Y-84552258D01*
X116831303Y-84553477D01*
X116831302Y-84553477D01*
X116803009Y-84557958D01*
X116742577Y-84548386D01*
X116699313Y-84505121D01*
X116688620Y-84460582D01*
X116689742Y-84453500D01*
X116674280Y-84355876D01*
X116670124Y-84329633D01*
X116670124Y-84329631D01*
X116668905Y-84321938D01*
X116660353Y-84305153D01*
X116611969Y-84210194D01*
X116611968Y-84210192D01*
X116610851Y-84208000D01*
X119313258Y-84208000D01*
X119314477Y-84215697D01*
X119332523Y-84329635D01*
X119334095Y-84339562D01*
X119337631Y-84346501D01*
X119337631Y-84346502D01*
X119373841Y-84417567D01*
X119394567Y-84458245D01*
X119488755Y-84552433D01*
X119495692Y-84555968D01*
X119495694Y-84555969D01*
X119573116Y-84595417D01*
X119607438Y-84612905D01*
X119615131Y-84614124D01*
X119615133Y-84614124D01*
X119731303Y-84632523D01*
X119739000Y-84633742D01*
X119746697Y-84632523D01*
X119862867Y-84614124D01*
X119862869Y-84614124D01*
X119870562Y-84612905D01*
X119904884Y-84595417D01*
X119982306Y-84555969D01*
X119982308Y-84555968D01*
X119989245Y-84552433D01*
X120083433Y-84458245D01*
X120104160Y-84417567D01*
X120140369Y-84346502D01*
X120140369Y-84346501D01*
X120143905Y-84339562D01*
X120145478Y-84329635D01*
X120163523Y-84215697D01*
X120164742Y-84208000D01*
X120155517Y-84149755D01*
X120152388Y-84130000D01*
X128932749Y-84130000D01*
X128951701Y-84310312D01*
X128961205Y-84339562D01*
X128997513Y-84451306D01*
X129007727Y-84482743D01*
X129010318Y-84487231D01*
X129010319Y-84487233D01*
X129072779Y-84595417D01*
X129098379Y-84639757D01*
X129101851Y-84643613D01*
X129216226Y-84770640D01*
X129216230Y-84770644D01*
X129219696Y-84774493D01*
X129366374Y-84881061D01*
X129371106Y-84883168D01*
X129371108Y-84883169D01*
X129527267Y-84952696D01*
X129527271Y-84952697D01*
X129532005Y-84954805D01*
X129537075Y-84955883D01*
X129537076Y-84955883D01*
X129561494Y-84961073D01*
X129709348Y-84992500D01*
X129890652Y-84992500D01*
X130038506Y-84961073D01*
X130062924Y-84955883D01*
X130062925Y-84955883D01*
X130067995Y-84954805D01*
X130072729Y-84952697D01*
X130072733Y-84952696D01*
X130228892Y-84883169D01*
X130228894Y-84883168D01*
X130233626Y-84881061D01*
X130380304Y-84774493D01*
X130383770Y-84770644D01*
X130383774Y-84770640D01*
X130498149Y-84643613D01*
X130501621Y-84639757D01*
X130527221Y-84595417D01*
X130589681Y-84487233D01*
X130589682Y-84487231D01*
X130592273Y-84482743D01*
X130602488Y-84451306D01*
X130638795Y-84339562D01*
X130648299Y-84310312D01*
X130667251Y-84130000D01*
X130666403Y-84121927D01*
X130657490Y-84037131D01*
X130648299Y-83949688D01*
X130609623Y-83830654D01*
X130593875Y-83782187D01*
X130593874Y-83782186D01*
X130592273Y-83777257D01*
X130547669Y-83700000D01*
X134274258Y-83700000D01*
X134275477Y-83707697D01*
X134289484Y-83796133D01*
X134295095Y-83831562D01*
X134298631Y-83838501D01*
X134298631Y-83838502D01*
X134346831Y-83933099D01*
X134355567Y-83950245D01*
X134449755Y-84044433D01*
X134456692Y-84047968D01*
X134456694Y-84047969D01*
X134542233Y-84091553D01*
X134568438Y-84104905D01*
X134576131Y-84106124D01*
X134576133Y-84106124D01*
X134692303Y-84124523D01*
X134700000Y-84125742D01*
X134707697Y-84124523D01*
X134823867Y-84106124D01*
X134823869Y-84106124D01*
X134831562Y-84104905D01*
X134893498Y-84073347D01*
X134953930Y-84063776D01*
X135008447Y-84091553D01*
X135036224Y-84146070D01*
X135026653Y-84206502D01*
X134995095Y-84268438D01*
X134993876Y-84276131D01*
X134993876Y-84276133D01*
X134982851Y-84345742D01*
X134974258Y-84400000D01*
X134995095Y-84531562D01*
X134998631Y-84538501D01*
X134998631Y-84538502D01*
X135049875Y-84639073D01*
X135055567Y-84650245D01*
X135149755Y-84744433D01*
X135156692Y-84747968D01*
X135156694Y-84747969D01*
X135259406Y-84800303D01*
X135268438Y-84804905D01*
X135276131Y-84806124D01*
X135276133Y-84806124D01*
X135392303Y-84824523D01*
X135400000Y-84825742D01*
X135407697Y-84824523D01*
X135523867Y-84806124D01*
X135523869Y-84806124D01*
X135531562Y-84804905D01*
X135540594Y-84800303D01*
X135643306Y-84747969D01*
X135643308Y-84747968D01*
X135650245Y-84744433D01*
X135744433Y-84650245D01*
X135750126Y-84639073D01*
X135801369Y-84538502D01*
X135801369Y-84538501D01*
X135804905Y-84531562D01*
X135825742Y-84400000D01*
X135817149Y-84345742D01*
X135806124Y-84276133D01*
X135806124Y-84276131D01*
X135804905Y-84268438D01*
X135775228Y-84210194D01*
X135747969Y-84156694D01*
X135747968Y-84156692D01*
X135744433Y-84149755D01*
X135650245Y-84055567D01*
X135643308Y-84052032D01*
X135643306Y-84052031D01*
X135538502Y-83998631D01*
X135538501Y-83998631D01*
X135531562Y-83995095D01*
X135523869Y-83993876D01*
X135523867Y-83993876D01*
X135407697Y-83975477D01*
X135400000Y-83974258D01*
X135392303Y-83975477D01*
X135276133Y-83993876D01*
X135276131Y-83993876D01*
X135268438Y-83995095D01*
X135261499Y-83998631D01*
X135261498Y-83998631D01*
X135206502Y-84026653D01*
X135146070Y-84036224D01*
X135091553Y-84008447D01*
X135063776Y-83953930D01*
X135073347Y-83893498D01*
X135101369Y-83838502D01*
X135101369Y-83838501D01*
X135104905Y-83831562D01*
X135110517Y-83796133D01*
X135124523Y-83707697D01*
X135125742Y-83700000D01*
X135120080Y-83664249D01*
X135106124Y-83576133D01*
X135106124Y-83576131D01*
X135104905Y-83568438D01*
X135101369Y-83561498D01*
X135047969Y-83456694D01*
X135047968Y-83456692D01*
X135044433Y-83449755D01*
X134950245Y-83355567D01*
X134943308Y-83352032D01*
X134943306Y-83352031D01*
X134838502Y-83298631D01*
X134838501Y-83298631D01*
X134831562Y-83295095D01*
X134823869Y-83293876D01*
X134823867Y-83293876D01*
X134707697Y-83275477D01*
X134700000Y-83274258D01*
X134692303Y-83275477D01*
X134576133Y-83293876D01*
X134576131Y-83293876D01*
X134568438Y-83295095D01*
X134561499Y-83298631D01*
X134561498Y-83298631D01*
X134456694Y-83352031D01*
X134456692Y-83352032D01*
X134449755Y-83355567D01*
X134355567Y-83449755D01*
X134352032Y-83456692D01*
X134352031Y-83456694D01*
X134298631Y-83561498D01*
X134295095Y-83568438D01*
X134293876Y-83576131D01*
X134293876Y-83576133D01*
X134279920Y-83664249D01*
X134274258Y-83700000D01*
X130547669Y-83700000D01*
X130519632Y-83651438D01*
X130504214Y-83624734D01*
X130504213Y-83624733D01*
X130501621Y-83620243D01*
X130461904Y-83576133D01*
X130383774Y-83489360D01*
X130383770Y-83489356D01*
X130380304Y-83485507D01*
X130233626Y-83378939D01*
X130228894Y-83376832D01*
X130228892Y-83376831D01*
X130072733Y-83307304D01*
X130072729Y-83307303D01*
X130067995Y-83305195D01*
X130062925Y-83304117D01*
X130062924Y-83304117D01*
X130015251Y-83293984D01*
X129890652Y-83267500D01*
X129709348Y-83267500D01*
X129584749Y-83293984D01*
X129537076Y-83304117D01*
X129537075Y-83304117D01*
X129532005Y-83305195D01*
X129527269Y-83307304D01*
X129527268Y-83307304D01*
X129371109Y-83376831D01*
X129371107Y-83376832D01*
X129366375Y-83378939D01*
X129219696Y-83485507D01*
X129216230Y-83489356D01*
X129216226Y-83489360D01*
X129138096Y-83576133D01*
X129098379Y-83620243D01*
X129095787Y-83624733D01*
X129095786Y-83624734D01*
X129080369Y-83651438D01*
X129007727Y-83777257D01*
X129006126Y-83782186D01*
X129006125Y-83782187D01*
X128990377Y-83830654D01*
X128951701Y-83949688D01*
X128942510Y-84037131D01*
X128933598Y-84121927D01*
X128932749Y-84130000D01*
X120152388Y-84130000D01*
X120145124Y-84084133D01*
X120145124Y-84084131D01*
X120143905Y-84076438D01*
X120140369Y-84069498D01*
X120086969Y-83964694D01*
X120086968Y-83964692D01*
X120083433Y-83957755D01*
X119989245Y-83863567D01*
X119982308Y-83860032D01*
X119982306Y-83860031D01*
X119877502Y-83806631D01*
X119877501Y-83806631D01*
X119870562Y-83803095D01*
X119862869Y-83801876D01*
X119862867Y-83801876D01*
X119746697Y-83783477D01*
X119739000Y-83782258D01*
X119731303Y-83783477D01*
X119615133Y-83801876D01*
X119615131Y-83801876D01*
X119607438Y-83803095D01*
X119600499Y-83806631D01*
X119600498Y-83806631D01*
X119495694Y-83860031D01*
X119495692Y-83860032D01*
X119488755Y-83863567D01*
X119394567Y-83957755D01*
X119391032Y-83964692D01*
X119391031Y-83964694D01*
X119337631Y-84069498D01*
X119334095Y-84076438D01*
X119332876Y-84084131D01*
X119332876Y-84084133D01*
X119322483Y-84149755D01*
X119313258Y-84208000D01*
X116610851Y-84208000D01*
X116608433Y-84203255D01*
X116514245Y-84109067D01*
X116507308Y-84105532D01*
X116507306Y-84105531D01*
X116402502Y-84052131D01*
X116402501Y-84052131D01*
X116395562Y-84048595D01*
X116387869Y-84047376D01*
X116387867Y-84047376D01*
X116353922Y-84042000D01*
X116323177Y-84037131D01*
X116268661Y-84009354D01*
X116240883Y-83954838D01*
X116244050Y-83914585D01*
X116243905Y-83914562D01*
X116244198Y-83912714D01*
X116244198Y-83912710D01*
X116257051Y-83831562D01*
X116263523Y-83790697D01*
X116264742Y-83783000D01*
X116256039Y-83728052D01*
X116265610Y-83667621D01*
X116308875Y-83624357D01*
X116369307Y-83614785D01*
X116481303Y-83632523D01*
X116489000Y-83633742D01*
X116496697Y-83632523D01*
X116612867Y-83614124D01*
X116612869Y-83614124D01*
X116620562Y-83612905D01*
X116627502Y-83609369D01*
X116732306Y-83555969D01*
X116732308Y-83555968D01*
X116739245Y-83552433D01*
X116833433Y-83458245D01*
X116840565Y-83444249D01*
X116890369Y-83346502D01*
X116890369Y-83346501D01*
X116893905Y-83339562D01*
X116905148Y-83268579D01*
X116913523Y-83215697D01*
X116913523Y-83215696D01*
X116914742Y-83208000D01*
X116913523Y-83200303D01*
X116895124Y-83084133D01*
X116895124Y-83084131D01*
X116893905Y-83076438D01*
X116889927Y-83068631D01*
X116836969Y-82964694D01*
X116836968Y-82964692D01*
X116833433Y-82957755D01*
X116739245Y-82863567D01*
X116732308Y-82860032D01*
X116732306Y-82860031D01*
X116627502Y-82806631D01*
X116627501Y-82806631D01*
X116620562Y-82803095D01*
X116612869Y-82801876D01*
X116612867Y-82801876D01*
X116496697Y-82783477D01*
X116489000Y-82782258D01*
X116481303Y-82783477D01*
X116365133Y-82801876D01*
X116365131Y-82801876D01*
X116357438Y-82803095D01*
X116350499Y-82806631D01*
X116350498Y-82806631D01*
X116245694Y-82860031D01*
X116245692Y-82860032D01*
X116238755Y-82863567D01*
X116144567Y-82957755D01*
X116141032Y-82964692D01*
X116141031Y-82964694D01*
X116088073Y-83068631D01*
X116084095Y-83076438D01*
X116082876Y-83084131D01*
X116082876Y-83084133D01*
X116064477Y-83200303D01*
X116063258Y-83208000D01*
X116071655Y-83261012D01*
X116071961Y-83262947D01*
X116062390Y-83323379D01*
X116019125Y-83366643D01*
X115958693Y-83376215D01*
X115846697Y-83358477D01*
X115839000Y-83357258D01*
X115831303Y-83358477D01*
X115715133Y-83376876D01*
X115715131Y-83376876D01*
X115707438Y-83378095D01*
X115700499Y-83381631D01*
X115700498Y-83381631D01*
X115595694Y-83435031D01*
X115595692Y-83435032D01*
X115588755Y-83438567D01*
X115494567Y-83532755D01*
X115491032Y-83539692D01*
X115491031Y-83539694D01*
X115437631Y-83644498D01*
X115434095Y-83651438D01*
X115432876Y-83659131D01*
X115432876Y-83659133D01*
X115414879Y-83772767D01*
X115413258Y-83783000D01*
X112322134Y-83783000D01*
X112318213Y-83775304D01*
X112267969Y-83676694D01*
X112267968Y-83676692D01*
X112264433Y-83669755D01*
X112170245Y-83575567D01*
X112163308Y-83572032D01*
X112163306Y-83572031D01*
X112058502Y-83518631D01*
X112058501Y-83518631D01*
X112051562Y-83515095D01*
X112043869Y-83513876D01*
X112043867Y-83513876D01*
X111927697Y-83495477D01*
X111920000Y-83494258D01*
X111822269Y-83509737D01*
X111761838Y-83500166D01*
X111718573Y-83456901D01*
X111709002Y-83427443D01*
X111696124Y-83346133D01*
X111696124Y-83346131D01*
X111694905Y-83338438D01*
X111687232Y-83323379D01*
X111637969Y-83226694D01*
X111637968Y-83226692D01*
X111634433Y-83219755D01*
X111540245Y-83125567D01*
X111533308Y-83122032D01*
X111533306Y-83122031D01*
X111428502Y-83068631D01*
X111428501Y-83068631D01*
X111421562Y-83065095D01*
X111413869Y-83063876D01*
X111413867Y-83063876D01*
X111368976Y-83056766D01*
X111314459Y-83028988D01*
X111304784Y-83010000D01*
X114564258Y-83010000D01*
X114565477Y-83017697D01*
X114583434Y-83131073D01*
X114585095Y-83141562D01*
X114588631Y-83148501D01*
X114588631Y-83148502D01*
X114633628Y-83236813D01*
X114645567Y-83260245D01*
X114739755Y-83354433D01*
X114746692Y-83357968D01*
X114746694Y-83357969D01*
X114818314Y-83394461D01*
X114858438Y-83414905D01*
X114866131Y-83416124D01*
X114866133Y-83416124D01*
X114982303Y-83434523D01*
X114990000Y-83435742D01*
X114997697Y-83434523D01*
X115113867Y-83416124D01*
X115113869Y-83416124D01*
X115121562Y-83414905D01*
X115161686Y-83394461D01*
X115233306Y-83357969D01*
X115233308Y-83357968D01*
X115240245Y-83354433D01*
X115334433Y-83260245D01*
X115346373Y-83236813D01*
X115391369Y-83148502D01*
X115391369Y-83148501D01*
X115394905Y-83141562D01*
X115396567Y-83131073D01*
X115414523Y-83017697D01*
X115415742Y-83010000D01*
X115410753Y-82978502D01*
X115396124Y-82886133D01*
X115396124Y-82886131D01*
X115394905Y-82878438D01*
X115369051Y-82827697D01*
X115344749Y-82780000D01*
X126804258Y-82780000D01*
X126805477Y-82787697D01*
X126821068Y-82886133D01*
X126825095Y-82911562D01*
X126828631Y-82918501D01*
X126828631Y-82918502D01*
X126875252Y-83010000D01*
X126885567Y-83030245D01*
X126979755Y-83124433D01*
X126986692Y-83127968D01*
X126986694Y-83127969D01*
X127087830Y-83179500D01*
X127098438Y-83184905D01*
X127106131Y-83186124D01*
X127106133Y-83186124D01*
X127222303Y-83204523D01*
X127230000Y-83205742D01*
X127237697Y-83204523D01*
X127353867Y-83186124D01*
X127353869Y-83186124D01*
X127361562Y-83184905D01*
X127372170Y-83179500D01*
X127445768Y-83142000D01*
X146114749Y-83142000D01*
X146133701Y-83322312D01*
X146135304Y-83327245D01*
X146181688Y-83470000D01*
X146189727Y-83494743D01*
X146192318Y-83499231D01*
X146192319Y-83499233D01*
X146264777Y-83624734D01*
X146280379Y-83651757D01*
X146283851Y-83655613D01*
X146398226Y-83782640D01*
X146398230Y-83782644D01*
X146401696Y-83786493D01*
X146548374Y-83893061D01*
X146553106Y-83895168D01*
X146553108Y-83895169D01*
X146709267Y-83964696D01*
X146709271Y-83964697D01*
X146714005Y-83966805D01*
X146719075Y-83967883D01*
X146719076Y-83967883D01*
X146749069Y-83974258D01*
X146891348Y-84004500D01*
X147072652Y-84004500D01*
X147214931Y-83974258D01*
X147244924Y-83967883D01*
X147244925Y-83967883D01*
X147249995Y-83966805D01*
X147254729Y-83964697D01*
X147254733Y-83964696D01*
X147410892Y-83895169D01*
X147410894Y-83895168D01*
X147415626Y-83893061D01*
X147562304Y-83786493D01*
X147565770Y-83782644D01*
X147565774Y-83782640D01*
X147680149Y-83655613D01*
X147683621Y-83651757D01*
X147699223Y-83624734D01*
X147771681Y-83499233D01*
X147771682Y-83499231D01*
X147774273Y-83494743D01*
X147782313Y-83470000D01*
X147828696Y-83327245D01*
X147830299Y-83322312D01*
X147849251Y-83142000D01*
X147848103Y-83131073D01*
X147841709Y-83070245D01*
X147830299Y-82961688D01*
X147790760Y-82840000D01*
X147775875Y-82794187D01*
X147775874Y-82794186D01*
X147774273Y-82789257D01*
X147768929Y-82780000D01*
X147686214Y-82636734D01*
X147686213Y-82636733D01*
X147683621Y-82632243D01*
X147655884Y-82601438D01*
X147565774Y-82501360D01*
X147565770Y-82501356D01*
X147562304Y-82497507D01*
X147415626Y-82390939D01*
X147410894Y-82388832D01*
X147410892Y-82388831D01*
X147254733Y-82319304D01*
X147254729Y-82319303D01*
X147249995Y-82317195D01*
X147244925Y-82316117D01*
X147244924Y-82316117D01*
X147208832Y-82308446D01*
X147072652Y-82279500D01*
X146891348Y-82279500D01*
X146755168Y-82308446D01*
X146719076Y-82316117D01*
X146719075Y-82316117D01*
X146714005Y-82317195D01*
X146709269Y-82319304D01*
X146709268Y-82319304D01*
X146553109Y-82388831D01*
X146553107Y-82388832D01*
X146548375Y-82390939D01*
X146401696Y-82497507D01*
X146398230Y-82501356D01*
X146398226Y-82501360D01*
X146308116Y-82601438D01*
X146280379Y-82632243D01*
X146277787Y-82636733D01*
X146277786Y-82636734D01*
X146195072Y-82780000D01*
X146189727Y-82789257D01*
X146188126Y-82794186D01*
X146188125Y-82794187D01*
X146173240Y-82840000D01*
X146133701Y-82961688D01*
X146122291Y-83070245D01*
X146115898Y-83131073D01*
X146114749Y-83142000D01*
X127445768Y-83142000D01*
X127473306Y-83127969D01*
X127473308Y-83127968D01*
X127480245Y-83124433D01*
X127574433Y-83030245D01*
X127584749Y-83010000D01*
X127631369Y-82918502D01*
X127631369Y-82918501D01*
X127634905Y-82911562D01*
X127638933Y-82886133D01*
X127654523Y-82787697D01*
X127655742Y-82780000D01*
X127634905Y-82648438D01*
X127614878Y-82609133D01*
X127577969Y-82536694D01*
X127577968Y-82536692D01*
X127574433Y-82529755D01*
X127480245Y-82435567D01*
X127473308Y-82432032D01*
X127473306Y-82432031D01*
X127368502Y-82378631D01*
X127368501Y-82378631D01*
X127361562Y-82375095D01*
X127353869Y-82373876D01*
X127353867Y-82373876D01*
X127237697Y-82355477D01*
X127230000Y-82354258D01*
X127222303Y-82355477D01*
X127106133Y-82373876D01*
X127106131Y-82373876D01*
X127098438Y-82375095D01*
X127091499Y-82378631D01*
X127091498Y-82378631D01*
X126986694Y-82432031D01*
X126986692Y-82432032D01*
X126979755Y-82435567D01*
X126885567Y-82529755D01*
X126882032Y-82536692D01*
X126882031Y-82536694D01*
X126845122Y-82609133D01*
X126825095Y-82648438D01*
X126804258Y-82780000D01*
X115344749Y-82780000D01*
X115337969Y-82766694D01*
X115337968Y-82766692D01*
X115334433Y-82759755D01*
X115240245Y-82665567D01*
X115233308Y-82662032D01*
X115233306Y-82662031D01*
X115128502Y-82608631D01*
X115128501Y-82608631D01*
X115121562Y-82605095D01*
X115113869Y-82603876D01*
X115113867Y-82603876D01*
X114997697Y-82585477D01*
X114990000Y-82584258D01*
X114982303Y-82585477D01*
X114866133Y-82603876D01*
X114866131Y-82603876D01*
X114858438Y-82605095D01*
X114851499Y-82608631D01*
X114851498Y-82608631D01*
X114746694Y-82662031D01*
X114746692Y-82662032D01*
X114739755Y-82665567D01*
X114645567Y-82759755D01*
X114642032Y-82766692D01*
X114642031Y-82766694D01*
X114610949Y-82827697D01*
X114585095Y-82878438D01*
X114583876Y-82886131D01*
X114583876Y-82886133D01*
X114569247Y-82978502D01*
X114564258Y-83010000D01*
X111304784Y-83010000D01*
X111286682Y-82974472D01*
X111286682Y-82943498D01*
X111305023Y-82827697D01*
X111306242Y-82820000D01*
X111303565Y-82803095D01*
X111286624Y-82696133D01*
X111286624Y-82696131D01*
X111285405Y-82688438D01*
X111256772Y-82632243D01*
X111228469Y-82576694D01*
X111228468Y-82576692D01*
X111224933Y-82569755D01*
X111130745Y-82475567D01*
X111123808Y-82472032D01*
X111123806Y-82472031D01*
X111019002Y-82418631D01*
X111019001Y-82418631D01*
X111012062Y-82415095D01*
X111004369Y-82413876D01*
X111004367Y-82413876D01*
X110888197Y-82395477D01*
X110880500Y-82394258D01*
X110872803Y-82395477D01*
X110756633Y-82413876D01*
X110756631Y-82413876D01*
X110748938Y-82415095D01*
X110741999Y-82418631D01*
X110741998Y-82418631D01*
X110637194Y-82472031D01*
X110637192Y-82472032D01*
X110630255Y-82475567D01*
X110536067Y-82569755D01*
X110532532Y-82576692D01*
X110532531Y-82576694D01*
X110504228Y-82632243D01*
X110475595Y-82688438D01*
X110474376Y-82696131D01*
X110474376Y-82696133D01*
X110457435Y-82803095D01*
X110454758Y-82820000D01*
X109275963Y-82820000D01*
X109281748Y-82783477D01*
X109288523Y-82740697D01*
X109289742Y-82733000D01*
X109268905Y-82601438D01*
X109262952Y-82589755D01*
X109211969Y-82489694D01*
X109211968Y-82489692D01*
X109208433Y-82482755D01*
X109114245Y-82388567D01*
X109107308Y-82385032D01*
X109107306Y-82385031D01*
X109082671Y-82372479D01*
X109062295Y-82362097D01*
X109019032Y-82318834D01*
X109009460Y-82258401D01*
X109037237Y-82203885D01*
X109045434Y-82196884D01*
X109050245Y-82194433D01*
X109144433Y-82100245D01*
X109176243Y-82037815D01*
X115744258Y-82037815D01*
X115765095Y-82169377D01*
X115768631Y-82176316D01*
X115768631Y-82176317D01*
X115819291Y-82275742D01*
X115825567Y-82288060D01*
X115919755Y-82382248D01*
X115926692Y-82385783D01*
X115926694Y-82385784D01*
X116023473Y-82435095D01*
X116038438Y-82442720D01*
X116046131Y-82443939D01*
X116046133Y-82443939D01*
X116162303Y-82462338D01*
X116170000Y-82463557D01*
X116177697Y-82462338D01*
X116293867Y-82443939D01*
X116293869Y-82443939D01*
X116301562Y-82442720D01*
X116316527Y-82435095D01*
X116413306Y-82385784D01*
X116413308Y-82385783D01*
X116420245Y-82382248D01*
X116514433Y-82288060D01*
X116520710Y-82275742D01*
X116571369Y-82176317D01*
X116571369Y-82176316D01*
X116574905Y-82169377D01*
X116595742Y-82037815D01*
X116574905Y-81906253D01*
X116564122Y-81885090D01*
X116517969Y-81794509D01*
X116517968Y-81794507D01*
X116514433Y-81787570D01*
X116420245Y-81693382D01*
X116413308Y-81689847D01*
X116413306Y-81689846D01*
X116308502Y-81636446D01*
X116308501Y-81636446D01*
X116301562Y-81632910D01*
X116293869Y-81631691D01*
X116293867Y-81631691D01*
X116177697Y-81613292D01*
X116170000Y-81612073D01*
X116162303Y-81613292D01*
X116046133Y-81631691D01*
X116046131Y-81631691D01*
X116038438Y-81632910D01*
X116031499Y-81636446D01*
X116031498Y-81636446D01*
X115926694Y-81689846D01*
X115926692Y-81689847D01*
X115919755Y-81693382D01*
X115825567Y-81787570D01*
X115822032Y-81794507D01*
X115822031Y-81794509D01*
X115775878Y-81885090D01*
X115765095Y-81906253D01*
X115744258Y-82037815D01*
X109176243Y-82037815D01*
X109180165Y-82030118D01*
X109201369Y-81988502D01*
X109201369Y-81988501D01*
X109204905Y-81981562D01*
X109221057Y-81879584D01*
X109224523Y-81857697D01*
X109225742Y-81850000D01*
X109204905Y-81718438D01*
X109192138Y-81693382D01*
X109147969Y-81606694D01*
X109147968Y-81606692D01*
X109144433Y-81599755D01*
X109050245Y-81505567D01*
X109043308Y-81502032D01*
X109043306Y-81502031D01*
X108938502Y-81448631D01*
X108938501Y-81448631D01*
X108931562Y-81445095D01*
X108923869Y-81443876D01*
X108923867Y-81443876D01*
X108807697Y-81425477D01*
X108800000Y-81424258D01*
X108679009Y-81443421D01*
X108618578Y-81433850D01*
X108575313Y-81390585D01*
X108565448Y-81349494D01*
X108565742Y-81347638D01*
X108557795Y-81297464D01*
X108546124Y-81223771D01*
X108546124Y-81223769D01*
X108544905Y-81216076D01*
X108517542Y-81162373D01*
X108487969Y-81104332D01*
X108487968Y-81104330D01*
X108484433Y-81097393D01*
X108395040Y-81008000D01*
X112988258Y-81008000D01*
X112989477Y-81015697D01*
X112996400Y-81059405D01*
X113009095Y-81139562D01*
X113012631Y-81146501D01*
X113012631Y-81146502D01*
X113061616Y-81242640D01*
X113069567Y-81258245D01*
X113163755Y-81352433D01*
X113170692Y-81355968D01*
X113170694Y-81355969D01*
X113261340Y-81402155D01*
X113282438Y-81412905D01*
X113290131Y-81414124D01*
X113290133Y-81414124D01*
X113406303Y-81432523D01*
X113414000Y-81433742D01*
X113421697Y-81432523D01*
X113537867Y-81414124D01*
X113537869Y-81414124D01*
X113545562Y-81412905D01*
X113566660Y-81402155D01*
X113657306Y-81355969D01*
X113657308Y-81355968D01*
X113664245Y-81352433D01*
X113676678Y-81340000D01*
X114734258Y-81340000D01*
X114735477Y-81347697D01*
X114753806Y-81463421D01*
X114755095Y-81471562D01*
X114758631Y-81478501D01*
X114758631Y-81478502D01*
X114791417Y-81542847D01*
X114815567Y-81590245D01*
X114909755Y-81684433D01*
X114916692Y-81687968D01*
X114916694Y-81687969D01*
X115021498Y-81741369D01*
X115028438Y-81744905D01*
X115036131Y-81746124D01*
X115036133Y-81746124D01*
X115152303Y-81764523D01*
X115160000Y-81765742D01*
X115167697Y-81764523D01*
X115283867Y-81746124D01*
X115283869Y-81746124D01*
X115291562Y-81744905D01*
X115298502Y-81741369D01*
X115403306Y-81687969D01*
X115403308Y-81687968D01*
X115410245Y-81684433D01*
X115504433Y-81590245D01*
X115528584Y-81542847D01*
X115529700Y-81540657D01*
X135714915Y-81540657D01*
X135716134Y-81548354D01*
X135733697Y-81659241D01*
X135735752Y-81672219D01*
X135739288Y-81679158D01*
X135739288Y-81679159D01*
X135791721Y-81782064D01*
X135796224Y-81790902D01*
X135890412Y-81885090D01*
X135897349Y-81888625D01*
X135897351Y-81888626D01*
X135947049Y-81913948D01*
X136009095Y-81945562D01*
X136016788Y-81946781D01*
X136016790Y-81946781D01*
X136132960Y-81965180D01*
X136140657Y-81966399D01*
X136148354Y-81965180D01*
X136264524Y-81946781D01*
X136264526Y-81946781D01*
X136272219Y-81945562D01*
X136334265Y-81913948D01*
X136383963Y-81888626D01*
X136383965Y-81888625D01*
X136390902Y-81885090D01*
X136485090Y-81790902D01*
X136489594Y-81782064D01*
X136542026Y-81679159D01*
X136542026Y-81679158D01*
X136545562Y-81672219D01*
X136547618Y-81659241D01*
X136565180Y-81548354D01*
X136566399Y-81540657D01*
X136562179Y-81514010D01*
X136546781Y-81416790D01*
X136546781Y-81416788D01*
X136545562Y-81409095D01*
X136536131Y-81390585D01*
X136488626Y-81297351D01*
X136488625Y-81297349D01*
X136485090Y-81290412D01*
X136390902Y-81196224D01*
X136383965Y-81192689D01*
X136383963Y-81192688D01*
X136279159Y-81139288D01*
X136279158Y-81139288D01*
X136272219Y-81135752D01*
X136264526Y-81134533D01*
X136264524Y-81134533D01*
X136148354Y-81116134D01*
X136140657Y-81114915D01*
X136132960Y-81116134D01*
X136016790Y-81134533D01*
X136016788Y-81134533D01*
X136009095Y-81135752D01*
X136002156Y-81139288D01*
X136002155Y-81139288D01*
X135897351Y-81192688D01*
X135897349Y-81192689D01*
X135890412Y-81196224D01*
X135796224Y-81290412D01*
X135792689Y-81297349D01*
X135792688Y-81297351D01*
X135745183Y-81390585D01*
X135735752Y-81409095D01*
X135734533Y-81416788D01*
X135734533Y-81416790D01*
X135719135Y-81514010D01*
X135714915Y-81540657D01*
X115529700Y-81540657D01*
X115561369Y-81478502D01*
X115561369Y-81478501D01*
X115564905Y-81471562D01*
X115566195Y-81463421D01*
X115584523Y-81347697D01*
X115585742Y-81340000D01*
X115569288Y-81236109D01*
X115566124Y-81216133D01*
X115566124Y-81216131D01*
X115564905Y-81208438D01*
X115529811Y-81139562D01*
X115507969Y-81096694D01*
X115507968Y-81096692D01*
X115504433Y-81089755D01*
X115410245Y-80995567D01*
X115403308Y-80992032D01*
X115403306Y-80992031D01*
X115298502Y-80938631D01*
X115298501Y-80938631D01*
X115291562Y-80935095D01*
X115283869Y-80933876D01*
X115283867Y-80933876D01*
X115167697Y-80915477D01*
X115160000Y-80914258D01*
X115152303Y-80915477D01*
X115036133Y-80933876D01*
X115036131Y-80933876D01*
X115028438Y-80935095D01*
X115021499Y-80938631D01*
X115021498Y-80938631D01*
X114916694Y-80992031D01*
X114916692Y-80992032D01*
X114909755Y-80995567D01*
X114815567Y-81089755D01*
X114812032Y-81096692D01*
X114812031Y-81096694D01*
X114790189Y-81139562D01*
X114755095Y-81208438D01*
X114753876Y-81216131D01*
X114753876Y-81216133D01*
X114750712Y-81236109D01*
X114734258Y-81340000D01*
X113676678Y-81340000D01*
X113758433Y-81258245D01*
X113766385Y-81242640D01*
X113815369Y-81146502D01*
X113815369Y-81146501D01*
X113818905Y-81139562D01*
X113831601Y-81059405D01*
X113838523Y-81015697D01*
X113839742Y-81008000D01*
X113828755Y-80938631D01*
X113820124Y-80884133D01*
X113820124Y-80884131D01*
X113818905Y-80876438D01*
X113776547Y-80793306D01*
X113761969Y-80764694D01*
X113761968Y-80764692D01*
X113758433Y-80757755D01*
X113664245Y-80663567D01*
X113657308Y-80660032D01*
X113657306Y-80660031D01*
X113552502Y-80606631D01*
X113552501Y-80606631D01*
X113545562Y-80603095D01*
X113537869Y-80601876D01*
X113537867Y-80601876D01*
X113421697Y-80583477D01*
X113414000Y-80582258D01*
X113406303Y-80583477D01*
X113290133Y-80601876D01*
X113290131Y-80601876D01*
X113282438Y-80603095D01*
X113275499Y-80606631D01*
X113275498Y-80606631D01*
X113170694Y-80660031D01*
X113170692Y-80660032D01*
X113163755Y-80663567D01*
X113069567Y-80757755D01*
X113066032Y-80764692D01*
X113066031Y-80764694D01*
X113051453Y-80793306D01*
X113009095Y-80876438D01*
X113007876Y-80884131D01*
X113007876Y-80884133D01*
X112999245Y-80938631D01*
X112988258Y-81008000D01*
X108395040Y-81008000D01*
X108390245Y-81003205D01*
X108383308Y-80999670D01*
X108383306Y-80999669D01*
X108330807Y-80972920D01*
X108287542Y-80929655D01*
X108277971Y-80869223D01*
X108287542Y-80839765D01*
X108311369Y-80793002D01*
X108311369Y-80793001D01*
X108314905Y-80786062D01*
X108318290Y-80764694D01*
X108334523Y-80662197D01*
X108335742Y-80654500D01*
X108328244Y-80607157D01*
X108319191Y-80550000D01*
X111804258Y-80550000D01*
X111805477Y-80557697D01*
X111814423Y-80614178D01*
X111825095Y-80681562D01*
X111828631Y-80688501D01*
X111828631Y-80688502D01*
X111881877Y-80793002D01*
X111885567Y-80800245D01*
X111979755Y-80894433D01*
X111986692Y-80897968D01*
X111986694Y-80897969D01*
X112066498Y-80938631D01*
X112098438Y-80954905D01*
X112106131Y-80956124D01*
X112106133Y-80956124D01*
X112222303Y-80974523D01*
X112230000Y-80975742D01*
X112237697Y-80974523D01*
X112353867Y-80956124D01*
X112353869Y-80956124D01*
X112361562Y-80954905D01*
X112393502Y-80938631D01*
X112473306Y-80897969D01*
X112473308Y-80897968D01*
X112480245Y-80894433D01*
X112574433Y-80800245D01*
X112578124Y-80793002D01*
X112631369Y-80688502D01*
X112631369Y-80688501D01*
X112634905Y-80681562D01*
X112645578Y-80614178D01*
X112654523Y-80557697D01*
X112655742Y-80550000D01*
X112634905Y-80418438D01*
X112631214Y-80411194D01*
X112577969Y-80306694D01*
X112577968Y-80306692D01*
X112574433Y-80299755D01*
X112480245Y-80205567D01*
X112473308Y-80202032D01*
X112473306Y-80202031D01*
X112449017Y-80189655D01*
X114013913Y-80189655D01*
X114015132Y-80197352D01*
X114028455Y-80281469D01*
X114034750Y-80321217D01*
X114038286Y-80328156D01*
X114038286Y-80328157D01*
X114085943Y-80421688D01*
X114095222Y-80439900D01*
X114189410Y-80534088D01*
X114196347Y-80537623D01*
X114196349Y-80537624D01*
X114235745Y-80557697D01*
X114308093Y-80594560D01*
X114315786Y-80595779D01*
X114315788Y-80595779D01*
X114431958Y-80614178D01*
X114439655Y-80615397D01*
X114447352Y-80614178D01*
X114524243Y-80602000D01*
X146114749Y-80602000D01*
X146133701Y-80782312D01*
X146137273Y-80793306D01*
X146166785Y-80884133D01*
X146189727Y-80954743D01*
X146192318Y-80959231D01*
X146192319Y-80959233D01*
X146254504Y-81066941D01*
X146280379Y-81111757D01*
X146283851Y-81115613D01*
X146398226Y-81242640D01*
X146398230Y-81242644D01*
X146401696Y-81246493D01*
X146548374Y-81353061D01*
X146553106Y-81355168D01*
X146553108Y-81355169D01*
X146709267Y-81424696D01*
X146709271Y-81424697D01*
X146714005Y-81426805D01*
X146719075Y-81427883D01*
X146719076Y-81427883D01*
X146740906Y-81432523D01*
X146891348Y-81464500D01*
X147072652Y-81464500D01*
X147223094Y-81432523D01*
X147244924Y-81427883D01*
X147244925Y-81427883D01*
X147249995Y-81426805D01*
X147254729Y-81424697D01*
X147254733Y-81424696D01*
X147410892Y-81355169D01*
X147410894Y-81355168D01*
X147415626Y-81353061D01*
X147562304Y-81246493D01*
X147565770Y-81242644D01*
X147565774Y-81242640D01*
X147680149Y-81115613D01*
X147683621Y-81111757D01*
X147709496Y-81066941D01*
X147771681Y-80959233D01*
X147771682Y-80959231D01*
X147774273Y-80954743D01*
X147797216Y-80884133D01*
X147826727Y-80793306D01*
X147830299Y-80782312D01*
X147849251Y-80602000D01*
X147830299Y-80421688D01*
X147774273Y-80249257D01*
X147752228Y-80211073D01*
X147686214Y-80096734D01*
X147686213Y-80096733D01*
X147683621Y-80092243D01*
X147652761Y-80057969D01*
X147565774Y-79961360D01*
X147565770Y-79961356D01*
X147562304Y-79957507D01*
X147415626Y-79850939D01*
X147410894Y-79848832D01*
X147410892Y-79848831D01*
X147254733Y-79779304D01*
X147254729Y-79779303D01*
X147249995Y-79777195D01*
X147244925Y-79776117D01*
X147244924Y-79776117D01*
X147187507Y-79763913D01*
X147072652Y-79739500D01*
X146891348Y-79739500D01*
X146776493Y-79763913D01*
X146719076Y-79776117D01*
X146719075Y-79776117D01*
X146714005Y-79777195D01*
X146709269Y-79779304D01*
X146709268Y-79779304D01*
X146553109Y-79848831D01*
X146553107Y-79848832D01*
X146548375Y-79850939D01*
X146401696Y-79957507D01*
X146398230Y-79961356D01*
X146398226Y-79961360D01*
X146311239Y-80057969D01*
X146280379Y-80092243D01*
X146277787Y-80096733D01*
X146277786Y-80096734D01*
X146211773Y-80211073D01*
X146189727Y-80249257D01*
X146133701Y-80421688D01*
X146114749Y-80602000D01*
X114524243Y-80602000D01*
X114563522Y-80595779D01*
X114563524Y-80595779D01*
X114571217Y-80594560D01*
X114643565Y-80557697D01*
X114682961Y-80537624D01*
X114682963Y-80537623D01*
X114689900Y-80534088D01*
X114784088Y-80439900D01*
X114793368Y-80421688D01*
X114841024Y-80328157D01*
X114841024Y-80328156D01*
X114844560Y-80321217D01*
X114850856Y-80281469D01*
X114864178Y-80197352D01*
X114865397Y-80189655D01*
X114858340Y-80145095D01*
X114845779Y-80065788D01*
X114845779Y-80065786D01*
X114844560Y-80058093D01*
X114839890Y-80048927D01*
X114787624Y-79946349D01*
X114787623Y-79946347D01*
X114784088Y-79939410D01*
X114778178Y-79933500D01*
X121754258Y-79933500D01*
X121755477Y-79941197D01*
X121773412Y-80054433D01*
X121775095Y-80065062D01*
X121778631Y-80072001D01*
X121778631Y-80072002D01*
X121817676Y-80148631D01*
X121835567Y-80183745D01*
X121929755Y-80277933D01*
X121936692Y-80281468D01*
X121936694Y-80281469D01*
X122028325Y-80328157D01*
X122048438Y-80338405D01*
X122056131Y-80339624D01*
X122056133Y-80339624D01*
X122172303Y-80358023D01*
X122180000Y-80359242D01*
X122187697Y-80358023D01*
X122303867Y-80339624D01*
X122303869Y-80339624D01*
X122311562Y-80338405D01*
X122331675Y-80328157D01*
X122423306Y-80281469D01*
X122423308Y-80281468D01*
X122430245Y-80277933D01*
X122524433Y-80183745D01*
X122542325Y-80148631D01*
X122581369Y-80072002D01*
X122581369Y-80072001D01*
X122584905Y-80065062D01*
X122586589Y-80054433D01*
X122604523Y-79941197D01*
X122605742Y-79933500D01*
X122592666Y-79850939D01*
X122586124Y-79809633D01*
X122586124Y-79809631D01*
X122584905Y-79801938D01*
X122575526Y-79783531D01*
X122527969Y-79690194D01*
X122527968Y-79690192D01*
X122524433Y-79683255D01*
X122430245Y-79589067D01*
X122423308Y-79585532D01*
X122423306Y-79585531D01*
X122318502Y-79532131D01*
X122318501Y-79532131D01*
X122311562Y-79528595D01*
X122303869Y-79527376D01*
X122303867Y-79527376D01*
X122187697Y-79508977D01*
X122180000Y-79507758D01*
X122172303Y-79508977D01*
X122056133Y-79527376D01*
X122056131Y-79527376D01*
X122048438Y-79528595D01*
X122041499Y-79532131D01*
X122041498Y-79532131D01*
X121936694Y-79585531D01*
X121936692Y-79585532D01*
X121929755Y-79589067D01*
X121835567Y-79683255D01*
X121832032Y-79690192D01*
X121832031Y-79690194D01*
X121784474Y-79783531D01*
X121775095Y-79801938D01*
X121773876Y-79809631D01*
X121773876Y-79809633D01*
X121767334Y-79850939D01*
X121754258Y-79933500D01*
X114778178Y-79933500D01*
X114689900Y-79845222D01*
X114682963Y-79841687D01*
X114682961Y-79841686D01*
X114578157Y-79788286D01*
X114578156Y-79788286D01*
X114571217Y-79784750D01*
X114563524Y-79783531D01*
X114563522Y-79783531D01*
X114447352Y-79765132D01*
X114439655Y-79763913D01*
X114431958Y-79765132D01*
X114315788Y-79783531D01*
X114315786Y-79783531D01*
X114308093Y-79784750D01*
X114301154Y-79788286D01*
X114301153Y-79788286D01*
X114196349Y-79841686D01*
X114196347Y-79841687D01*
X114189410Y-79845222D01*
X114095222Y-79939410D01*
X114091687Y-79946347D01*
X114091686Y-79946349D01*
X114039420Y-80048927D01*
X114034750Y-80058093D01*
X114033531Y-80065786D01*
X114033531Y-80065788D01*
X114020970Y-80145095D01*
X114013913Y-80189655D01*
X112449017Y-80189655D01*
X112368502Y-80148631D01*
X112368501Y-80148631D01*
X112361562Y-80145095D01*
X112353869Y-80143876D01*
X112353867Y-80143876D01*
X112237697Y-80125477D01*
X112230000Y-80124258D01*
X112222303Y-80125477D01*
X112106133Y-80143876D01*
X112106131Y-80143876D01*
X112098438Y-80145095D01*
X112091499Y-80148631D01*
X112091498Y-80148631D01*
X111986694Y-80202031D01*
X111986692Y-80202032D01*
X111979755Y-80205567D01*
X111885567Y-80299755D01*
X111882032Y-80306692D01*
X111882031Y-80306694D01*
X111828786Y-80411194D01*
X111825095Y-80418438D01*
X111804258Y-80550000D01*
X108319191Y-80550000D01*
X108316124Y-80530633D01*
X108316124Y-80530631D01*
X108314905Y-80522938D01*
X108311369Y-80515998D01*
X108257969Y-80411194D01*
X108257968Y-80411192D01*
X108254433Y-80404255D01*
X108160245Y-80310067D01*
X108153308Y-80306532D01*
X108153306Y-80306531D01*
X108048502Y-80253131D01*
X108048501Y-80253131D01*
X108041562Y-80249595D01*
X108033869Y-80248376D01*
X108033867Y-80248376D01*
X107917697Y-80229977D01*
X107910000Y-80228758D01*
X107902303Y-80229977D01*
X107786133Y-80248376D01*
X107786131Y-80248376D01*
X107778438Y-80249595D01*
X107771499Y-80253131D01*
X107771498Y-80253131D01*
X107666694Y-80306531D01*
X107666692Y-80306532D01*
X107659755Y-80310067D01*
X107565567Y-80404255D01*
X107562032Y-80411192D01*
X107562031Y-80411194D01*
X107508631Y-80515998D01*
X107505095Y-80522938D01*
X107503876Y-80530631D01*
X107503876Y-80530633D01*
X107491756Y-80607157D01*
X107484258Y-80654500D01*
X94373749Y-80654500D01*
X94373749Y-79710000D01*
X98014258Y-79710000D01*
X98035095Y-79841562D01*
X98038631Y-79848501D01*
X98038631Y-79848502D01*
X98088487Y-79946349D01*
X98095567Y-79960245D01*
X98189755Y-80054433D01*
X98196692Y-80057968D01*
X98196694Y-80057969D01*
X98256393Y-80088387D01*
X98308438Y-80114905D01*
X98316131Y-80116124D01*
X98316133Y-80116124D01*
X98432303Y-80134523D01*
X98440000Y-80135742D01*
X98447697Y-80134523D01*
X98563867Y-80116124D01*
X98563869Y-80116124D01*
X98571562Y-80114905D01*
X98623607Y-80088387D01*
X98683306Y-80057969D01*
X98683308Y-80057968D01*
X98690245Y-80054433D01*
X98784433Y-79960245D01*
X98791514Y-79946349D01*
X98841369Y-79848502D01*
X98841369Y-79848501D01*
X98844905Y-79841562D01*
X98865742Y-79710000D01*
X98862605Y-79690194D01*
X98846124Y-79586133D01*
X98846124Y-79586131D01*
X98844905Y-79578438D01*
X98836093Y-79561144D01*
X98787969Y-79466694D01*
X98787968Y-79466692D01*
X98784433Y-79459755D01*
X98690245Y-79365567D01*
X98683308Y-79362032D01*
X98683306Y-79362031D01*
X98578502Y-79308631D01*
X98578501Y-79308631D01*
X98571562Y-79305095D01*
X98563869Y-79303876D01*
X98563867Y-79303876D01*
X98447697Y-79285477D01*
X98440000Y-79284258D01*
X98432303Y-79285477D01*
X98316133Y-79303876D01*
X98316131Y-79303876D01*
X98308438Y-79305095D01*
X98301499Y-79308631D01*
X98301498Y-79308631D01*
X98196694Y-79362031D01*
X98196692Y-79362032D01*
X98189755Y-79365567D01*
X98095567Y-79459755D01*
X98092032Y-79466692D01*
X98092031Y-79466694D01*
X98043907Y-79561144D01*
X98035095Y-79578438D01*
X98033876Y-79586131D01*
X98033876Y-79586133D01*
X98017395Y-79690194D01*
X98014258Y-79710000D01*
X94373749Y-79710000D01*
X94373749Y-79660946D01*
X94392656Y-79602755D01*
X94442156Y-79566791D01*
X94472749Y-79561946D01*
X96311704Y-79561946D01*
X96311902Y-79562028D01*
X96312667Y-79561711D01*
X96312902Y-79561144D01*
X96312984Y-79560946D01*
X96312902Y-79560748D01*
X96312902Y-79280000D01*
X119704258Y-79280000D01*
X119705477Y-79287697D01*
X119708233Y-79305095D01*
X119725095Y-79411562D01*
X119728631Y-79418501D01*
X119728631Y-79418502D01*
X119749651Y-79459755D01*
X119785567Y-79530245D01*
X119879755Y-79624433D01*
X119886692Y-79627968D01*
X119886694Y-79627969D01*
X119991498Y-79681369D01*
X119998438Y-79684905D01*
X120006131Y-79686124D01*
X120006133Y-79686124D01*
X120122303Y-79704523D01*
X120130000Y-79705742D01*
X120137697Y-79704523D01*
X120253867Y-79686124D01*
X120253869Y-79686124D01*
X120261562Y-79684905D01*
X120268502Y-79681369D01*
X120373306Y-79627969D01*
X120373308Y-79627968D01*
X120380245Y-79624433D01*
X120474433Y-79530245D01*
X120510350Y-79459755D01*
X120530606Y-79420000D01*
X123044258Y-79420000D01*
X123045477Y-79427697D01*
X123063733Y-79542960D01*
X123065095Y-79551562D01*
X123068631Y-79558501D01*
X123068631Y-79558502D01*
X123102225Y-79624433D01*
X123125567Y-79670245D01*
X123219755Y-79764433D01*
X123226692Y-79767968D01*
X123226694Y-79767969D01*
X123308465Y-79809633D01*
X123338438Y-79824905D01*
X123346131Y-79826124D01*
X123346133Y-79826124D01*
X123462303Y-79844523D01*
X123470000Y-79845742D01*
X123477697Y-79844523D01*
X123593867Y-79826124D01*
X123593869Y-79826124D01*
X123601562Y-79824905D01*
X123631535Y-79809633D01*
X123713306Y-79767969D01*
X123713308Y-79767968D01*
X123720245Y-79764433D01*
X123814433Y-79670245D01*
X123837776Y-79624433D01*
X123871369Y-79558502D01*
X123871369Y-79558501D01*
X123874905Y-79551562D01*
X123876268Y-79542960D01*
X123894523Y-79427697D01*
X123895742Y-79420000D01*
X123874905Y-79288438D01*
X123837438Y-79214905D01*
X123817969Y-79176694D01*
X123817968Y-79176692D01*
X123814433Y-79169755D01*
X123720245Y-79075567D01*
X123713308Y-79072032D01*
X123713306Y-79072031D01*
X123608502Y-79018631D01*
X123608501Y-79018631D01*
X123601562Y-79015095D01*
X123593869Y-79013876D01*
X123593867Y-79013876D01*
X123477697Y-78995477D01*
X123470000Y-78994258D01*
X123462303Y-78995477D01*
X123346133Y-79013876D01*
X123346131Y-79013876D01*
X123338438Y-79015095D01*
X123331499Y-79018631D01*
X123331498Y-79018631D01*
X123226694Y-79072031D01*
X123226692Y-79072032D01*
X123219755Y-79075567D01*
X123125567Y-79169755D01*
X123122032Y-79176692D01*
X123122031Y-79176694D01*
X123102562Y-79214905D01*
X123065095Y-79288438D01*
X123044258Y-79420000D01*
X120530606Y-79420000D01*
X120531369Y-79418502D01*
X120531369Y-79418501D01*
X120534905Y-79411562D01*
X120551768Y-79305095D01*
X120554523Y-79287697D01*
X120555742Y-79280000D01*
X120534905Y-79148438D01*
X120500581Y-79081073D01*
X120477969Y-79036694D01*
X120477968Y-79036692D01*
X120474433Y-79029755D01*
X120380245Y-78935567D01*
X120373308Y-78932032D01*
X120373306Y-78932031D01*
X120268502Y-78878631D01*
X120268501Y-78878631D01*
X120261562Y-78875095D01*
X120253869Y-78873876D01*
X120253867Y-78873876D01*
X120137697Y-78855477D01*
X120130000Y-78854258D01*
X120122303Y-78855477D01*
X120006133Y-78873876D01*
X120006131Y-78873876D01*
X119998438Y-78875095D01*
X119991499Y-78878631D01*
X119991498Y-78878631D01*
X119886694Y-78932031D01*
X119886692Y-78932032D01*
X119879755Y-78935567D01*
X119785567Y-79029755D01*
X119782032Y-79036692D01*
X119782031Y-79036694D01*
X119759419Y-79081073D01*
X119725095Y-79148438D01*
X119704258Y-79280000D01*
X96312902Y-79280000D01*
X96312902Y-78810000D01*
X127924258Y-78810000D01*
X127945095Y-78941562D01*
X127948631Y-78948501D01*
X127948631Y-78948502D01*
X127990032Y-79029755D01*
X128005567Y-79060245D01*
X128099755Y-79154433D01*
X128106692Y-79157968D01*
X128106694Y-79157969D01*
X128211498Y-79211369D01*
X128218438Y-79214905D01*
X128226131Y-79216124D01*
X128226133Y-79216124D01*
X128342303Y-79234523D01*
X128350000Y-79235742D01*
X128357697Y-79234523D01*
X128473867Y-79216124D01*
X128473869Y-79216124D01*
X128481562Y-79214905D01*
X128488502Y-79211369D01*
X128593306Y-79157969D01*
X128593308Y-79157968D01*
X128600245Y-79154433D01*
X128694433Y-79060245D01*
X128709969Y-79029755D01*
X128751369Y-78948502D01*
X128751369Y-78948501D01*
X128754905Y-78941562D01*
X128775742Y-78810000D01*
X128754905Y-78678438D01*
X128694433Y-78559755D01*
X128600245Y-78465567D01*
X128593308Y-78462032D01*
X128593306Y-78462031D01*
X128488502Y-78408631D01*
X128488501Y-78408631D01*
X128481562Y-78405095D01*
X128473869Y-78403876D01*
X128473867Y-78403876D01*
X128357697Y-78385477D01*
X128350000Y-78384258D01*
X128342303Y-78385477D01*
X128226133Y-78403876D01*
X128226131Y-78403876D01*
X128218438Y-78405095D01*
X128211499Y-78408631D01*
X128211498Y-78408631D01*
X128106694Y-78462031D01*
X128106692Y-78462032D01*
X128099755Y-78465567D01*
X128005567Y-78559755D01*
X127945095Y-78678438D01*
X127924258Y-78810000D01*
X96312902Y-78810000D01*
X96312902Y-77057000D01*
X98019749Y-77057000D01*
X98038701Y-77237312D01*
X98094727Y-77409743D01*
X98185379Y-77566757D01*
X98188851Y-77570613D01*
X98303226Y-77697640D01*
X98303230Y-77697644D01*
X98306696Y-77701493D01*
X98453374Y-77808061D01*
X98458106Y-77810168D01*
X98458108Y-77810169D01*
X98614267Y-77879696D01*
X98614271Y-77879697D01*
X98619005Y-77881805D01*
X98624075Y-77882883D01*
X98624076Y-77882883D01*
X98660168Y-77890554D01*
X98796348Y-77919500D01*
X98977652Y-77919500D01*
X99113832Y-77890554D01*
X99149924Y-77882883D01*
X99149925Y-77882883D01*
X99154995Y-77881805D01*
X99159729Y-77879697D01*
X99159733Y-77879696D01*
X99315892Y-77810169D01*
X99315894Y-77810168D01*
X99320626Y-77808061D01*
X99467304Y-77701493D01*
X99470770Y-77697644D01*
X99470774Y-77697640D01*
X99585149Y-77570613D01*
X99588621Y-77566757D01*
X99679273Y-77409743D01*
X99735299Y-77237312D01*
X99754251Y-77057000D01*
X103099749Y-77057000D01*
X103118701Y-77237312D01*
X103174727Y-77409743D01*
X103265379Y-77566757D01*
X103268851Y-77570613D01*
X103383226Y-77697640D01*
X103383230Y-77697644D01*
X103386696Y-77701493D01*
X103533374Y-77808061D01*
X103538106Y-77810168D01*
X103538108Y-77810169D01*
X103694267Y-77879696D01*
X103694271Y-77879697D01*
X103699005Y-77881805D01*
X103704075Y-77882883D01*
X103704076Y-77882883D01*
X103740168Y-77890554D01*
X103876348Y-77919500D01*
X104057652Y-77919500D01*
X104193832Y-77890554D01*
X104229924Y-77882883D01*
X104229925Y-77882883D01*
X104234995Y-77881805D01*
X104239729Y-77879697D01*
X104239733Y-77879696D01*
X104395892Y-77810169D01*
X104395894Y-77810168D01*
X104400626Y-77808061D01*
X104547304Y-77701493D01*
X104550770Y-77697644D01*
X104550774Y-77697640D01*
X104665149Y-77570613D01*
X104668621Y-77566757D01*
X104759273Y-77409743D01*
X104815299Y-77237312D01*
X104834251Y-77057000D01*
X105639749Y-77057000D01*
X105658701Y-77237312D01*
X105714727Y-77409743D01*
X105805379Y-77566757D01*
X105808851Y-77570613D01*
X105923226Y-77697640D01*
X105923230Y-77697644D01*
X105926696Y-77701493D01*
X106073374Y-77808061D01*
X106078106Y-77810168D01*
X106078108Y-77810169D01*
X106234267Y-77879696D01*
X106234271Y-77879697D01*
X106239005Y-77881805D01*
X106244075Y-77882883D01*
X106244076Y-77882883D01*
X106280168Y-77890554D01*
X106416348Y-77919500D01*
X106597652Y-77919500D01*
X106733832Y-77890554D01*
X106769924Y-77882883D01*
X106769925Y-77882883D01*
X106774995Y-77881805D01*
X106779729Y-77879697D01*
X106779733Y-77879696D01*
X106935892Y-77810169D01*
X106935894Y-77810168D01*
X106940626Y-77808061D01*
X107087304Y-77701493D01*
X107090770Y-77697644D01*
X107090774Y-77697640D01*
X107205149Y-77570613D01*
X107208621Y-77566757D01*
X107299273Y-77409743D01*
X107355299Y-77237312D01*
X107374251Y-77057000D01*
X108179749Y-77057000D01*
X108198701Y-77237312D01*
X108254727Y-77409743D01*
X108345379Y-77566757D01*
X108348851Y-77570613D01*
X108463226Y-77697640D01*
X108463230Y-77697644D01*
X108466696Y-77701493D01*
X108613374Y-77808061D01*
X108618106Y-77810168D01*
X108618108Y-77810169D01*
X108774267Y-77879696D01*
X108774271Y-77879697D01*
X108779005Y-77881805D01*
X108784075Y-77882883D01*
X108784076Y-77882883D01*
X108820168Y-77890554D01*
X108956348Y-77919500D01*
X109137652Y-77919500D01*
X109273832Y-77890554D01*
X109309924Y-77882883D01*
X109309925Y-77882883D01*
X109314995Y-77881805D01*
X109319729Y-77879697D01*
X109319733Y-77879696D01*
X109475892Y-77810169D01*
X109475894Y-77810168D01*
X109480626Y-77808061D01*
X109627304Y-77701493D01*
X109630770Y-77697644D01*
X109630774Y-77697640D01*
X109745149Y-77570613D01*
X109748621Y-77566757D01*
X109839273Y-77409743D01*
X109895299Y-77237312D01*
X109914251Y-77057000D01*
X110719749Y-77057000D01*
X110738701Y-77237312D01*
X110794727Y-77409743D01*
X110885379Y-77566757D01*
X110888851Y-77570613D01*
X111003226Y-77697640D01*
X111003230Y-77697644D01*
X111006696Y-77701493D01*
X111153374Y-77808061D01*
X111158106Y-77810168D01*
X111158108Y-77810169D01*
X111314267Y-77879696D01*
X111314271Y-77879697D01*
X111319005Y-77881805D01*
X111324075Y-77882883D01*
X111324076Y-77882883D01*
X111360168Y-77890554D01*
X111496348Y-77919500D01*
X111677652Y-77919500D01*
X111813832Y-77890554D01*
X111849924Y-77882883D01*
X111849925Y-77882883D01*
X111854995Y-77881805D01*
X111859729Y-77879697D01*
X111859733Y-77879696D01*
X112015892Y-77810169D01*
X112015894Y-77810168D01*
X112020626Y-77808061D01*
X112167304Y-77701493D01*
X112170770Y-77697644D01*
X112170774Y-77697640D01*
X112285149Y-77570613D01*
X112288621Y-77566757D01*
X112379273Y-77409743D01*
X112435299Y-77237312D01*
X112454251Y-77057000D01*
X113259749Y-77057000D01*
X113278701Y-77237312D01*
X113334727Y-77409743D01*
X113425379Y-77566757D01*
X113428851Y-77570613D01*
X113543226Y-77697640D01*
X113543230Y-77697644D01*
X113546696Y-77701493D01*
X113693374Y-77808061D01*
X113698106Y-77810168D01*
X113698108Y-77810169D01*
X113854267Y-77879696D01*
X113854271Y-77879697D01*
X113859005Y-77881805D01*
X113864075Y-77882883D01*
X113864076Y-77882883D01*
X113900168Y-77890554D01*
X114036348Y-77919500D01*
X114217652Y-77919500D01*
X114353832Y-77890554D01*
X114389924Y-77882883D01*
X114389925Y-77882883D01*
X114394995Y-77881805D01*
X114399729Y-77879697D01*
X114399733Y-77879696D01*
X114555892Y-77810169D01*
X114555894Y-77810168D01*
X114560626Y-77808061D01*
X114707304Y-77701493D01*
X114710770Y-77697644D01*
X114710774Y-77697640D01*
X114825149Y-77570613D01*
X114828621Y-77566757D01*
X114919273Y-77409743D01*
X114975299Y-77237312D01*
X114994251Y-77057000D01*
X115799749Y-77057000D01*
X115818701Y-77237312D01*
X115874727Y-77409743D01*
X115965379Y-77566757D01*
X115968851Y-77570613D01*
X116083226Y-77697640D01*
X116083230Y-77697644D01*
X116086696Y-77701493D01*
X116233374Y-77808061D01*
X116238106Y-77810168D01*
X116238108Y-77810169D01*
X116394267Y-77879696D01*
X116394271Y-77879697D01*
X116399005Y-77881805D01*
X116404075Y-77882883D01*
X116404076Y-77882883D01*
X116440168Y-77890554D01*
X116576348Y-77919500D01*
X116757652Y-77919500D01*
X116893832Y-77890554D01*
X116929924Y-77882883D01*
X116929925Y-77882883D01*
X116934995Y-77881805D01*
X116939729Y-77879697D01*
X116939733Y-77879696D01*
X117095892Y-77810169D01*
X117095894Y-77810168D01*
X117100626Y-77808061D01*
X117247304Y-77701493D01*
X117250770Y-77697644D01*
X117250774Y-77697640D01*
X117365149Y-77570613D01*
X117368621Y-77566757D01*
X117459273Y-77409743D01*
X117515299Y-77237312D01*
X117534251Y-77057000D01*
X118339749Y-77057000D01*
X118358701Y-77237312D01*
X118414727Y-77409743D01*
X118505379Y-77566757D01*
X118508851Y-77570613D01*
X118623226Y-77697640D01*
X118623230Y-77697644D01*
X118626696Y-77701493D01*
X118773374Y-77808061D01*
X118778106Y-77810168D01*
X118778108Y-77810169D01*
X118934267Y-77879696D01*
X118934271Y-77879697D01*
X118939005Y-77881805D01*
X118944075Y-77882883D01*
X118944076Y-77882883D01*
X118980168Y-77890554D01*
X119116348Y-77919500D01*
X119297652Y-77919500D01*
X119433832Y-77890554D01*
X119469924Y-77882883D01*
X119469925Y-77882883D01*
X119474995Y-77881805D01*
X119479729Y-77879697D01*
X119479733Y-77879696D01*
X119635892Y-77810169D01*
X119635894Y-77810168D01*
X119640626Y-77808061D01*
X119787304Y-77701493D01*
X119790770Y-77697644D01*
X119790774Y-77697640D01*
X119905149Y-77570613D01*
X119908621Y-77566757D01*
X119999273Y-77409743D01*
X120055299Y-77237312D01*
X120074251Y-77057000D01*
X120879749Y-77057000D01*
X120898701Y-77237312D01*
X120954727Y-77409743D01*
X121045379Y-77566757D01*
X121048851Y-77570613D01*
X121163226Y-77697640D01*
X121163230Y-77697644D01*
X121166696Y-77701493D01*
X121313374Y-77808061D01*
X121318106Y-77810168D01*
X121318108Y-77810169D01*
X121474267Y-77879696D01*
X121474271Y-77879697D01*
X121479005Y-77881805D01*
X121484075Y-77882883D01*
X121484076Y-77882883D01*
X121520168Y-77890554D01*
X121656348Y-77919500D01*
X121837652Y-77919500D01*
X121973832Y-77890554D01*
X122009924Y-77882883D01*
X122009925Y-77882883D01*
X122014995Y-77881805D01*
X122019729Y-77879697D01*
X122019733Y-77879696D01*
X122175892Y-77810169D01*
X122175894Y-77810168D01*
X122180626Y-77808061D01*
X122327304Y-77701493D01*
X122330770Y-77697644D01*
X122330774Y-77697640D01*
X122445149Y-77570613D01*
X122448621Y-77566757D01*
X122539273Y-77409743D01*
X122595299Y-77237312D01*
X122614251Y-77057000D01*
X123419749Y-77057000D01*
X123438701Y-77237312D01*
X123494727Y-77409743D01*
X123585379Y-77566757D01*
X123588851Y-77570613D01*
X123703226Y-77697640D01*
X123703230Y-77697644D01*
X123706696Y-77701493D01*
X123853374Y-77808061D01*
X123858106Y-77810168D01*
X123858108Y-77810169D01*
X124014267Y-77879696D01*
X124014271Y-77879697D01*
X124019005Y-77881805D01*
X124024075Y-77882883D01*
X124024076Y-77882883D01*
X124060168Y-77890554D01*
X124196348Y-77919500D01*
X124377652Y-77919500D01*
X124513832Y-77890554D01*
X124549924Y-77882883D01*
X124549925Y-77882883D01*
X124554995Y-77881805D01*
X124559729Y-77879697D01*
X124559733Y-77879696D01*
X124715892Y-77810169D01*
X124715894Y-77810168D01*
X124720626Y-77808061D01*
X124867304Y-77701493D01*
X124870770Y-77697644D01*
X124870774Y-77697640D01*
X124985149Y-77570613D01*
X124988621Y-77566757D01*
X125079273Y-77409743D01*
X125135299Y-77237312D01*
X125154251Y-77057000D01*
X125959749Y-77057000D01*
X125978701Y-77237312D01*
X126034727Y-77409743D01*
X126125379Y-77566757D01*
X126128851Y-77570613D01*
X126243226Y-77697640D01*
X126243230Y-77697644D01*
X126246696Y-77701493D01*
X126393374Y-77808061D01*
X126398106Y-77810168D01*
X126398108Y-77810169D01*
X126554267Y-77879696D01*
X126554271Y-77879697D01*
X126559005Y-77881805D01*
X126564075Y-77882883D01*
X126564076Y-77882883D01*
X126600168Y-77890554D01*
X126736348Y-77919500D01*
X126917652Y-77919500D01*
X127053832Y-77890554D01*
X127089924Y-77882883D01*
X127089925Y-77882883D01*
X127094995Y-77881805D01*
X127099729Y-77879697D01*
X127099733Y-77879696D01*
X127255892Y-77810169D01*
X127255894Y-77810168D01*
X127260626Y-77808061D01*
X127407304Y-77701493D01*
X127410770Y-77697644D01*
X127410774Y-77697640D01*
X127525149Y-77570613D01*
X127528621Y-77566757D01*
X127619273Y-77409743D01*
X127675299Y-77237312D01*
X127694251Y-77057000D01*
X128499749Y-77057000D01*
X128518701Y-77237312D01*
X128574727Y-77409743D01*
X128665379Y-77566757D01*
X128668851Y-77570613D01*
X128783226Y-77697640D01*
X128783230Y-77697644D01*
X128786696Y-77701493D01*
X128933374Y-77808061D01*
X128938106Y-77810168D01*
X128938108Y-77810169D01*
X129094267Y-77879696D01*
X129094271Y-77879697D01*
X129099005Y-77881805D01*
X129104075Y-77882883D01*
X129104076Y-77882883D01*
X129140168Y-77890554D01*
X129276348Y-77919500D01*
X129457652Y-77919500D01*
X129593832Y-77890554D01*
X129629924Y-77882883D01*
X129629925Y-77882883D01*
X129634995Y-77881805D01*
X129639729Y-77879697D01*
X129639733Y-77879696D01*
X129795892Y-77810169D01*
X129795894Y-77810168D01*
X129800626Y-77808061D01*
X129947304Y-77701493D01*
X129950770Y-77697644D01*
X129950774Y-77697640D01*
X130065149Y-77570613D01*
X130068621Y-77566757D01*
X130159273Y-77409743D01*
X130215299Y-77237312D01*
X130234251Y-77057000D01*
X131039749Y-77057000D01*
X131058701Y-77237312D01*
X131114727Y-77409743D01*
X131205379Y-77566757D01*
X131208851Y-77570613D01*
X131323226Y-77697640D01*
X131323230Y-77697644D01*
X131326696Y-77701493D01*
X131473374Y-77808061D01*
X131478106Y-77810168D01*
X131478108Y-77810169D01*
X131634267Y-77879696D01*
X131634271Y-77879697D01*
X131639005Y-77881805D01*
X131644075Y-77882883D01*
X131644076Y-77882883D01*
X131680168Y-77890554D01*
X131816348Y-77919500D01*
X131997652Y-77919500D01*
X132133832Y-77890554D01*
X132169924Y-77882883D01*
X132169925Y-77882883D01*
X132174995Y-77881805D01*
X132179729Y-77879697D01*
X132179733Y-77879696D01*
X132335892Y-77810169D01*
X132335894Y-77810168D01*
X132340626Y-77808061D01*
X132487304Y-77701493D01*
X132490770Y-77697644D01*
X132490774Y-77697640D01*
X132605149Y-77570613D01*
X132608621Y-77566757D01*
X132699273Y-77409743D01*
X132755299Y-77237312D01*
X132774251Y-77057000D01*
X133579749Y-77057000D01*
X133598701Y-77237312D01*
X133654727Y-77409743D01*
X133745379Y-77566757D01*
X133748851Y-77570613D01*
X133863226Y-77697640D01*
X133863230Y-77697644D01*
X133866696Y-77701493D01*
X134013374Y-77808061D01*
X134018106Y-77810168D01*
X134018108Y-77810169D01*
X134174267Y-77879696D01*
X134174271Y-77879697D01*
X134179005Y-77881805D01*
X134184075Y-77882883D01*
X134184076Y-77882883D01*
X134220168Y-77890554D01*
X134356348Y-77919500D01*
X134537652Y-77919500D01*
X134673832Y-77890554D01*
X134709924Y-77882883D01*
X134709925Y-77882883D01*
X134714995Y-77881805D01*
X134719729Y-77879697D01*
X134719733Y-77879696D01*
X134875892Y-77810169D01*
X134875894Y-77810168D01*
X134880626Y-77808061D01*
X135027304Y-77701493D01*
X135030770Y-77697644D01*
X135030774Y-77697640D01*
X135145149Y-77570613D01*
X135148621Y-77566757D01*
X135239273Y-77409743D01*
X135295299Y-77237312D01*
X135314251Y-77057000D01*
X136119749Y-77057000D01*
X136138701Y-77237312D01*
X136194727Y-77409743D01*
X136285379Y-77566757D01*
X136288851Y-77570613D01*
X136403226Y-77697640D01*
X136403230Y-77697644D01*
X136406696Y-77701493D01*
X136553374Y-77808061D01*
X136558106Y-77810168D01*
X136558108Y-77810169D01*
X136714267Y-77879696D01*
X136714271Y-77879697D01*
X136719005Y-77881805D01*
X136724075Y-77882883D01*
X136724076Y-77882883D01*
X136760168Y-77890554D01*
X136896348Y-77919500D01*
X137077652Y-77919500D01*
X137213832Y-77890554D01*
X137249924Y-77882883D01*
X137249925Y-77882883D01*
X137254995Y-77881805D01*
X137259729Y-77879697D01*
X137259733Y-77879696D01*
X137415892Y-77810169D01*
X137415894Y-77810168D01*
X137420626Y-77808061D01*
X137567304Y-77701493D01*
X137570770Y-77697644D01*
X137570774Y-77697640D01*
X137685149Y-77570613D01*
X137688621Y-77566757D01*
X137779273Y-77409743D01*
X137835299Y-77237312D01*
X137854251Y-77057000D01*
X138659749Y-77057000D01*
X138678701Y-77237312D01*
X138734727Y-77409743D01*
X138825379Y-77566757D01*
X138828851Y-77570613D01*
X138943226Y-77697640D01*
X138943230Y-77697644D01*
X138946696Y-77701493D01*
X139093374Y-77808061D01*
X139098106Y-77810168D01*
X139098108Y-77810169D01*
X139254267Y-77879696D01*
X139254271Y-77879697D01*
X139259005Y-77881805D01*
X139264075Y-77882883D01*
X139264076Y-77882883D01*
X139300168Y-77890554D01*
X139436348Y-77919500D01*
X139617652Y-77919500D01*
X139753832Y-77890554D01*
X139789924Y-77882883D01*
X139789925Y-77882883D01*
X139794995Y-77881805D01*
X139799729Y-77879697D01*
X139799733Y-77879696D01*
X139955892Y-77810169D01*
X139955894Y-77810168D01*
X139960626Y-77808061D01*
X140107304Y-77701493D01*
X140110770Y-77697644D01*
X140110774Y-77697640D01*
X140225149Y-77570613D01*
X140228621Y-77566757D01*
X140319273Y-77409743D01*
X140375299Y-77237312D01*
X140394251Y-77057000D01*
X141199749Y-77057000D01*
X141218701Y-77237312D01*
X141274727Y-77409743D01*
X141365379Y-77566757D01*
X141368851Y-77570613D01*
X141483226Y-77697640D01*
X141483230Y-77697644D01*
X141486696Y-77701493D01*
X141633374Y-77808061D01*
X141638106Y-77810168D01*
X141638108Y-77810169D01*
X141794267Y-77879696D01*
X141794271Y-77879697D01*
X141799005Y-77881805D01*
X141804075Y-77882883D01*
X141804076Y-77882883D01*
X141840168Y-77890554D01*
X141976348Y-77919500D01*
X142157652Y-77919500D01*
X142293832Y-77890554D01*
X142329924Y-77882883D01*
X142329925Y-77882883D01*
X142334995Y-77881805D01*
X142339729Y-77879697D01*
X142339733Y-77879696D01*
X142495892Y-77810169D01*
X142495894Y-77810168D01*
X142500626Y-77808061D01*
X142647304Y-77701493D01*
X142650770Y-77697644D01*
X142650774Y-77697640D01*
X142765149Y-77570613D01*
X142768621Y-77566757D01*
X142859273Y-77409743D01*
X142915299Y-77237312D01*
X142934251Y-77057000D01*
X143739749Y-77057000D01*
X143758701Y-77237312D01*
X143814727Y-77409743D01*
X143905379Y-77566757D01*
X143908851Y-77570613D01*
X144023226Y-77697640D01*
X144023230Y-77697644D01*
X144026696Y-77701493D01*
X144173374Y-77808061D01*
X144178106Y-77810168D01*
X144178108Y-77810169D01*
X144334267Y-77879696D01*
X144334271Y-77879697D01*
X144339005Y-77881805D01*
X144344075Y-77882883D01*
X144344076Y-77882883D01*
X144380168Y-77890554D01*
X144516348Y-77919500D01*
X144697652Y-77919500D01*
X144833832Y-77890554D01*
X144869924Y-77882883D01*
X144869925Y-77882883D01*
X144874995Y-77881805D01*
X144879729Y-77879697D01*
X144879733Y-77879696D01*
X145035892Y-77810169D01*
X145035894Y-77810168D01*
X145040626Y-77808061D01*
X145187304Y-77701493D01*
X145190770Y-77697644D01*
X145190774Y-77697640D01*
X145305149Y-77570613D01*
X145308621Y-77566757D01*
X145399273Y-77409743D01*
X145455299Y-77237312D01*
X145474251Y-77057000D01*
X145455299Y-76876688D01*
X145399273Y-76704257D01*
X145308621Y-76547243D01*
X145299636Y-76537264D01*
X145190774Y-76416360D01*
X145190770Y-76416356D01*
X145187304Y-76412507D01*
X145040626Y-76305939D01*
X145035894Y-76303832D01*
X145035892Y-76303831D01*
X144879733Y-76234304D01*
X144879729Y-76234303D01*
X144874995Y-76232195D01*
X144869925Y-76231117D01*
X144869924Y-76231117D01*
X144833832Y-76223446D01*
X144697652Y-76194500D01*
X144516348Y-76194500D01*
X144380168Y-76223446D01*
X144344076Y-76231117D01*
X144344075Y-76231117D01*
X144339005Y-76232195D01*
X144334269Y-76234304D01*
X144334268Y-76234304D01*
X144178109Y-76303831D01*
X144178107Y-76303832D01*
X144173375Y-76305939D01*
X144026696Y-76412507D01*
X144023230Y-76416356D01*
X144023226Y-76416360D01*
X143914364Y-76537264D01*
X143905379Y-76547243D01*
X143814727Y-76704257D01*
X143758701Y-76876688D01*
X143739749Y-77057000D01*
X142934251Y-77057000D01*
X142915299Y-76876688D01*
X142859273Y-76704257D01*
X142768621Y-76547243D01*
X142759636Y-76537264D01*
X142650774Y-76416360D01*
X142650770Y-76416356D01*
X142647304Y-76412507D01*
X142500626Y-76305939D01*
X142495894Y-76303832D01*
X142495892Y-76303831D01*
X142339733Y-76234304D01*
X142339729Y-76234303D01*
X142334995Y-76232195D01*
X142329925Y-76231117D01*
X142329924Y-76231117D01*
X142293832Y-76223446D01*
X142157652Y-76194500D01*
X141976348Y-76194500D01*
X141840168Y-76223446D01*
X141804076Y-76231117D01*
X141804075Y-76231117D01*
X141799005Y-76232195D01*
X141794269Y-76234304D01*
X141794268Y-76234304D01*
X141638109Y-76303831D01*
X141638107Y-76303832D01*
X141633375Y-76305939D01*
X141486696Y-76412507D01*
X141483230Y-76416356D01*
X141483226Y-76416360D01*
X141374364Y-76537264D01*
X141365379Y-76547243D01*
X141274727Y-76704257D01*
X141218701Y-76876688D01*
X141199749Y-77057000D01*
X140394251Y-77057000D01*
X140375299Y-76876688D01*
X140319273Y-76704257D01*
X140228621Y-76547243D01*
X140219636Y-76537264D01*
X140110774Y-76416360D01*
X140110770Y-76416356D01*
X140107304Y-76412507D01*
X139960626Y-76305939D01*
X139955894Y-76303832D01*
X139955892Y-76303831D01*
X139799733Y-76234304D01*
X139799729Y-76234303D01*
X139794995Y-76232195D01*
X139789925Y-76231117D01*
X139789924Y-76231117D01*
X139753832Y-76223446D01*
X139617652Y-76194500D01*
X139436348Y-76194500D01*
X139300168Y-76223446D01*
X139264076Y-76231117D01*
X139264075Y-76231117D01*
X139259005Y-76232195D01*
X139254269Y-76234304D01*
X139254268Y-76234304D01*
X139098109Y-76303831D01*
X139098107Y-76303832D01*
X139093375Y-76305939D01*
X138946696Y-76412507D01*
X138943230Y-76416356D01*
X138943226Y-76416360D01*
X138834364Y-76537264D01*
X138825379Y-76547243D01*
X138734727Y-76704257D01*
X138678701Y-76876688D01*
X138659749Y-77057000D01*
X137854251Y-77057000D01*
X137835299Y-76876688D01*
X137779273Y-76704257D01*
X137688621Y-76547243D01*
X137679636Y-76537264D01*
X137570774Y-76416360D01*
X137570770Y-76416356D01*
X137567304Y-76412507D01*
X137420626Y-76305939D01*
X137415894Y-76303832D01*
X137415892Y-76303831D01*
X137259733Y-76234304D01*
X137259729Y-76234303D01*
X137254995Y-76232195D01*
X137249925Y-76231117D01*
X137249924Y-76231117D01*
X137213832Y-76223446D01*
X137077652Y-76194500D01*
X136896348Y-76194500D01*
X136760168Y-76223446D01*
X136724076Y-76231117D01*
X136724075Y-76231117D01*
X136719005Y-76232195D01*
X136714269Y-76234304D01*
X136714268Y-76234304D01*
X136558109Y-76303831D01*
X136558107Y-76303832D01*
X136553375Y-76305939D01*
X136406696Y-76412507D01*
X136403230Y-76416356D01*
X136403226Y-76416360D01*
X136294364Y-76537264D01*
X136285379Y-76547243D01*
X136194727Y-76704257D01*
X136138701Y-76876688D01*
X136119749Y-77057000D01*
X135314251Y-77057000D01*
X135295299Y-76876688D01*
X135239273Y-76704257D01*
X135148621Y-76547243D01*
X135139636Y-76537264D01*
X135030774Y-76416360D01*
X135030770Y-76416356D01*
X135027304Y-76412507D01*
X134880626Y-76305939D01*
X134875894Y-76303832D01*
X134875892Y-76303831D01*
X134719733Y-76234304D01*
X134719729Y-76234303D01*
X134714995Y-76232195D01*
X134709925Y-76231117D01*
X134709924Y-76231117D01*
X134673832Y-76223446D01*
X134537652Y-76194500D01*
X134356348Y-76194500D01*
X134220168Y-76223446D01*
X134184076Y-76231117D01*
X134184075Y-76231117D01*
X134179005Y-76232195D01*
X134174269Y-76234304D01*
X134174268Y-76234304D01*
X134018109Y-76303831D01*
X134018107Y-76303832D01*
X134013375Y-76305939D01*
X133866696Y-76412507D01*
X133863230Y-76416356D01*
X133863226Y-76416360D01*
X133754364Y-76537264D01*
X133745379Y-76547243D01*
X133654727Y-76704257D01*
X133598701Y-76876688D01*
X133579749Y-77057000D01*
X132774251Y-77057000D01*
X132755299Y-76876688D01*
X132699273Y-76704257D01*
X132608621Y-76547243D01*
X132599636Y-76537264D01*
X132490774Y-76416360D01*
X132490770Y-76416356D01*
X132487304Y-76412507D01*
X132340626Y-76305939D01*
X132335894Y-76303832D01*
X132335892Y-76303831D01*
X132179733Y-76234304D01*
X132179729Y-76234303D01*
X132174995Y-76232195D01*
X132169925Y-76231117D01*
X132169924Y-76231117D01*
X132133832Y-76223446D01*
X131997652Y-76194500D01*
X131816348Y-76194500D01*
X131680168Y-76223446D01*
X131644076Y-76231117D01*
X131644075Y-76231117D01*
X131639005Y-76232195D01*
X131634269Y-76234304D01*
X131634268Y-76234304D01*
X131478109Y-76303831D01*
X131478107Y-76303832D01*
X131473375Y-76305939D01*
X131326696Y-76412507D01*
X131323230Y-76416356D01*
X131323226Y-76416360D01*
X131214364Y-76537264D01*
X131205379Y-76547243D01*
X131114727Y-76704257D01*
X131058701Y-76876688D01*
X131039749Y-77057000D01*
X130234251Y-77057000D01*
X130215299Y-76876688D01*
X130159273Y-76704257D01*
X130068621Y-76547243D01*
X130059636Y-76537264D01*
X129950774Y-76416360D01*
X129950770Y-76416356D01*
X129947304Y-76412507D01*
X129800626Y-76305939D01*
X129795894Y-76303832D01*
X129795892Y-76303831D01*
X129639733Y-76234304D01*
X129639729Y-76234303D01*
X129634995Y-76232195D01*
X129629925Y-76231117D01*
X129629924Y-76231117D01*
X129593832Y-76223446D01*
X129457652Y-76194500D01*
X129276348Y-76194500D01*
X129140168Y-76223446D01*
X129104076Y-76231117D01*
X129104075Y-76231117D01*
X129099005Y-76232195D01*
X129094269Y-76234304D01*
X129094268Y-76234304D01*
X128938109Y-76303831D01*
X128938107Y-76303832D01*
X128933375Y-76305939D01*
X128786696Y-76412507D01*
X128783230Y-76416356D01*
X128783226Y-76416360D01*
X128674364Y-76537264D01*
X128665379Y-76547243D01*
X128574727Y-76704257D01*
X128518701Y-76876688D01*
X128499749Y-77057000D01*
X127694251Y-77057000D01*
X127675299Y-76876688D01*
X127619273Y-76704257D01*
X127528621Y-76547243D01*
X127519636Y-76537264D01*
X127410774Y-76416360D01*
X127410770Y-76416356D01*
X127407304Y-76412507D01*
X127260626Y-76305939D01*
X127255894Y-76303832D01*
X127255892Y-76303831D01*
X127099733Y-76234304D01*
X127099729Y-76234303D01*
X127094995Y-76232195D01*
X127089925Y-76231117D01*
X127089924Y-76231117D01*
X127053832Y-76223446D01*
X126917652Y-76194500D01*
X126736348Y-76194500D01*
X126600168Y-76223446D01*
X126564076Y-76231117D01*
X126564075Y-76231117D01*
X126559005Y-76232195D01*
X126554269Y-76234304D01*
X126554268Y-76234304D01*
X126398109Y-76303831D01*
X126398107Y-76303832D01*
X126393375Y-76305939D01*
X126246696Y-76412507D01*
X126243230Y-76416356D01*
X126243226Y-76416360D01*
X126134364Y-76537264D01*
X126125379Y-76547243D01*
X126034727Y-76704257D01*
X125978701Y-76876688D01*
X125959749Y-77057000D01*
X125154251Y-77057000D01*
X125135299Y-76876688D01*
X125079273Y-76704257D01*
X124988621Y-76547243D01*
X124979636Y-76537264D01*
X124870774Y-76416360D01*
X124870770Y-76416356D01*
X124867304Y-76412507D01*
X124720626Y-76305939D01*
X124715894Y-76303832D01*
X124715892Y-76303831D01*
X124559733Y-76234304D01*
X124559729Y-76234303D01*
X124554995Y-76232195D01*
X124549925Y-76231117D01*
X124549924Y-76231117D01*
X124513832Y-76223446D01*
X124377652Y-76194500D01*
X124196348Y-76194500D01*
X124060168Y-76223446D01*
X124024076Y-76231117D01*
X124024075Y-76231117D01*
X124019005Y-76232195D01*
X124014269Y-76234304D01*
X124014268Y-76234304D01*
X123858109Y-76303831D01*
X123858107Y-76303832D01*
X123853375Y-76305939D01*
X123706696Y-76412507D01*
X123703230Y-76416356D01*
X123703226Y-76416360D01*
X123594364Y-76537264D01*
X123585379Y-76547243D01*
X123494727Y-76704257D01*
X123438701Y-76876688D01*
X123419749Y-77057000D01*
X122614251Y-77057000D01*
X122595299Y-76876688D01*
X122539273Y-76704257D01*
X122448621Y-76547243D01*
X122439636Y-76537264D01*
X122330774Y-76416360D01*
X122330770Y-76416356D01*
X122327304Y-76412507D01*
X122180626Y-76305939D01*
X122175894Y-76303832D01*
X122175892Y-76303831D01*
X122019733Y-76234304D01*
X122019729Y-76234303D01*
X122014995Y-76232195D01*
X122009925Y-76231117D01*
X122009924Y-76231117D01*
X121973832Y-76223446D01*
X121837652Y-76194500D01*
X121656348Y-76194500D01*
X121520168Y-76223446D01*
X121484076Y-76231117D01*
X121484075Y-76231117D01*
X121479005Y-76232195D01*
X121474269Y-76234304D01*
X121474268Y-76234304D01*
X121318109Y-76303831D01*
X121318107Y-76303832D01*
X121313375Y-76305939D01*
X121166696Y-76412507D01*
X121163230Y-76416356D01*
X121163226Y-76416360D01*
X121054364Y-76537264D01*
X121045379Y-76547243D01*
X120954727Y-76704257D01*
X120898701Y-76876688D01*
X120879749Y-77057000D01*
X120074251Y-77057000D01*
X120055299Y-76876688D01*
X119999273Y-76704257D01*
X119908621Y-76547243D01*
X119899636Y-76537264D01*
X119790774Y-76416360D01*
X119790770Y-76416356D01*
X119787304Y-76412507D01*
X119640626Y-76305939D01*
X119635894Y-76303832D01*
X119635892Y-76303831D01*
X119479733Y-76234304D01*
X119479729Y-76234303D01*
X119474995Y-76232195D01*
X119469925Y-76231117D01*
X119469924Y-76231117D01*
X119433832Y-76223446D01*
X119297652Y-76194500D01*
X119116348Y-76194500D01*
X118980168Y-76223446D01*
X118944076Y-76231117D01*
X118944075Y-76231117D01*
X118939005Y-76232195D01*
X118934269Y-76234304D01*
X118934268Y-76234304D01*
X118778109Y-76303831D01*
X118778107Y-76303832D01*
X118773375Y-76305939D01*
X118626696Y-76412507D01*
X118623230Y-76416356D01*
X118623226Y-76416360D01*
X118514364Y-76537264D01*
X118505379Y-76547243D01*
X118414727Y-76704257D01*
X118358701Y-76876688D01*
X118339749Y-77057000D01*
X117534251Y-77057000D01*
X117515299Y-76876688D01*
X117459273Y-76704257D01*
X117368621Y-76547243D01*
X117359636Y-76537264D01*
X117250774Y-76416360D01*
X117250770Y-76416356D01*
X117247304Y-76412507D01*
X117100626Y-76305939D01*
X117095894Y-76303832D01*
X117095892Y-76303831D01*
X116939733Y-76234304D01*
X116939729Y-76234303D01*
X116934995Y-76232195D01*
X116929925Y-76231117D01*
X116929924Y-76231117D01*
X116893832Y-76223446D01*
X116757652Y-76194500D01*
X116576348Y-76194500D01*
X116440168Y-76223446D01*
X116404076Y-76231117D01*
X116404075Y-76231117D01*
X116399005Y-76232195D01*
X116394269Y-76234304D01*
X116394268Y-76234304D01*
X116238109Y-76303831D01*
X116238107Y-76303832D01*
X116233375Y-76305939D01*
X116086696Y-76412507D01*
X116083230Y-76416356D01*
X116083226Y-76416360D01*
X115974364Y-76537264D01*
X115965379Y-76547243D01*
X115874727Y-76704257D01*
X115818701Y-76876688D01*
X115799749Y-77057000D01*
X114994251Y-77057000D01*
X114975299Y-76876688D01*
X114919273Y-76704257D01*
X114828621Y-76547243D01*
X114819636Y-76537264D01*
X114710774Y-76416360D01*
X114710770Y-76416356D01*
X114707304Y-76412507D01*
X114560626Y-76305939D01*
X114555894Y-76303832D01*
X114555892Y-76303831D01*
X114399733Y-76234304D01*
X114399729Y-76234303D01*
X114394995Y-76232195D01*
X114389925Y-76231117D01*
X114389924Y-76231117D01*
X114353832Y-76223446D01*
X114217652Y-76194500D01*
X114036348Y-76194500D01*
X113900168Y-76223446D01*
X113864076Y-76231117D01*
X113864075Y-76231117D01*
X113859005Y-76232195D01*
X113854269Y-76234304D01*
X113854268Y-76234304D01*
X113698109Y-76303831D01*
X113698107Y-76303832D01*
X113693375Y-76305939D01*
X113546696Y-76412507D01*
X113543230Y-76416356D01*
X113543226Y-76416360D01*
X113434364Y-76537264D01*
X113425379Y-76547243D01*
X113334727Y-76704257D01*
X113278701Y-76876688D01*
X113259749Y-77057000D01*
X112454251Y-77057000D01*
X112435299Y-76876688D01*
X112379273Y-76704257D01*
X112288621Y-76547243D01*
X112279636Y-76537264D01*
X112170774Y-76416360D01*
X112170770Y-76416356D01*
X112167304Y-76412507D01*
X112020626Y-76305939D01*
X112015894Y-76303832D01*
X112015892Y-76303831D01*
X111859733Y-76234304D01*
X111859729Y-76234303D01*
X111854995Y-76232195D01*
X111849925Y-76231117D01*
X111849924Y-76231117D01*
X111813832Y-76223446D01*
X111677652Y-76194500D01*
X111496348Y-76194500D01*
X111360168Y-76223446D01*
X111324076Y-76231117D01*
X111324075Y-76231117D01*
X111319005Y-76232195D01*
X111314269Y-76234304D01*
X111314268Y-76234304D01*
X111158109Y-76303831D01*
X111158107Y-76303832D01*
X111153375Y-76305939D01*
X111006696Y-76412507D01*
X111003230Y-76416356D01*
X111003226Y-76416360D01*
X110894364Y-76537264D01*
X110885379Y-76547243D01*
X110794727Y-76704257D01*
X110738701Y-76876688D01*
X110719749Y-77057000D01*
X109914251Y-77057000D01*
X109895299Y-76876688D01*
X109839273Y-76704257D01*
X109748621Y-76547243D01*
X109739636Y-76537264D01*
X109630774Y-76416360D01*
X109630770Y-76416356D01*
X109627304Y-76412507D01*
X109480626Y-76305939D01*
X109475894Y-76303832D01*
X109475892Y-76303831D01*
X109319733Y-76234304D01*
X109319729Y-76234303D01*
X109314995Y-76232195D01*
X109309925Y-76231117D01*
X109309924Y-76231117D01*
X109273832Y-76223446D01*
X109137652Y-76194500D01*
X108956348Y-76194500D01*
X108820168Y-76223446D01*
X108784076Y-76231117D01*
X108784075Y-76231117D01*
X108779005Y-76232195D01*
X108774269Y-76234304D01*
X108774268Y-76234304D01*
X108618109Y-76303831D01*
X108618107Y-76303832D01*
X108613375Y-76305939D01*
X108466696Y-76412507D01*
X108463230Y-76416356D01*
X108463226Y-76416360D01*
X108354364Y-76537264D01*
X108345379Y-76547243D01*
X108254727Y-76704257D01*
X108198701Y-76876688D01*
X108179749Y-77057000D01*
X107374251Y-77057000D01*
X107355299Y-76876688D01*
X107299273Y-76704257D01*
X107208621Y-76547243D01*
X107199636Y-76537264D01*
X107090774Y-76416360D01*
X107090770Y-76416356D01*
X107087304Y-76412507D01*
X106940626Y-76305939D01*
X106935894Y-76303832D01*
X106935892Y-76303831D01*
X106779733Y-76234304D01*
X106779729Y-76234303D01*
X106774995Y-76232195D01*
X106769925Y-76231117D01*
X106769924Y-76231117D01*
X106733832Y-76223446D01*
X106597652Y-76194500D01*
X106416348Y-76194500D01*
X106280168Y-76223446D01*
X106244076Y-76231117D01*
X106244075Y-76231117D01*
X106239005Y-76232195D01*
X106234269Y-76234304D01*
X106234268Y-76234304D01*
X106078109Y-76303831D01*
X106078107Y-76303832D01*
X106073375Y-76305939D01*
X105926696Y-76412507D01*
X105923230Y-76416356D01*
X105923226Y-76416360D01*
X105814364Y-76537264D01*
X105805379Y-76547243D01*
X105714727Y-76704257D01*
X105658701Y-76876688D01*
X105639749Y-77057000D01*
X104834251Y-77057000D01*
X104815299Y-76876688D01*
X104759273Y-76704257D01*
X104668621Y-76547243D01*
X104659636Y-76537264D01*
X104550774Y-76416360D01*
X104550770Y-76416356D01*
X104547304Y-76412507D01*
X104400626Y-76305939D01*
X104395894Y-76303832D01*
X104395892Y-76303831D01*
X104239733Y-76234304D01*
X104239729Y-76234303D01*
X104234995Y-76232195D01*
X104229925Y-76231117D01*
X104229924Y-76231117D01*
X104193832Y-76223446D01*
X104057652Y-76194500D01*
X103876348Y-76194500D01*
X103740168Y-76223446D01*
X103704076Y-76231117D01*
X103704075Y-76231117D01*
X103699005Y-76232195D01*
X103694269Y-76234304D01*
X103694268Y-76234304D01*
X103538109Y-76303831D01*
X103538107Y-76303832D01*
X103533375Y-76305939D01*
X103386696Y-76412507D01*
X103383230Y-76416356D01*
X103383226Y-76416360D01*
X103274364Y-76537264D01*
X103265379Y-76547243D01*
X103174727Y-76704257D01*
X103118701Y-76876688D01*
X103099749Y-77057000D01*
X99754251Y-77057000D01*
X99735299Y-76876688D01*
X99679273Y-76704257D01*
X99588621Y-76547243D01*
X99579636Y-76537264D01*
X99470774Y-76416360D01*
X99470770Y-76416356D01*
X99467304Y-76412507D01*
X99320626Y-76305939D01*
X99315894Y-76303832D01*
X99315892Y-76303831D01*
X99159733Y-76234304D01*
X99159729Y-76234303D01*
X99154995Y-76232195D01*
X99149925Y-76231117D01*
X99149924Y-76231117D01*
X99113832Y-76223446D01*
X98977652Y-76194500D01*
X98796348Y-76194500D01*
X98660168Y-76223446D01*
X98624076Y-76231117D01*
X98624075Y-76231117D01*
X98619005Y-76232195D01*
X98614269Y-76234304D01*
X98614268Y-76234304D01*
X98458109Y-76303831D01*
X98458107Y-76303832D01*
X98453375Y-76305939D01*
X98306696Y-76412507D01*
X98303230Y-76416356D01*
X98303226Y-76416360D01*
X98194364Y-76537264D01*
X98185379Y-76547243D01*
X98094727Y-76704257D01*
X98038701Y-76876688D01*
X98019749Y-77057000D01*
X96312902Y-77057000D01*
X96312902Y-75859122D01*
X107623380Y-75859122D01*
X107644217Y-75990684D01*
X107704689Y-76109367D01*
X107798877Y-76203555D01*
X107805814Y-76207090D01*
X107805816Y-76207091D01*
X107852970Y-76231117D01*
X107917560Y-76264027D01*
X107925253Y-76265246D01*
X107925255Y-76265246D01*
X108041425Y-76283645D01*
X108049122Y-76284864D01*
X108056819Y-76283645D01*
X108172989Y-76265246D01*
X108172991Y-76265246D01*
X108180684Y-76264027D01*
X108245274Y-76231117D01*
X108292428Y-76207091D01*
X108292430Y-76207090D01*
X108299367Y-76203555D01*
X108393555Y-76109367D01*
X108454027Y-75990684D01*
X108474864Y-75859122D01*
X108454027Y-75727560D01*
X108393555Y-75608877D01*
X108299367Y-75514689D01*
X108292430Y-75511154D01*
X108292428Y-75511153D01*
X108187624Y-75457753D01*
X108187623Y-75457753D01*
X108180684Y-75454217D01*
X108172991Y-75452998D01*
X108172989Y-75452998D01*
X108056819Y-75434599D01*
X108049122Y-75433380D01*
X108041425Y-75434599D01*
X107925255Y-75452998D01*
X107925253Y-75452998D01*
X107917560Y-75454217D01*
X107910621Y-75457753D01*
X107910620Y-75457753D01*
X107805816Y-75511153D01*
X107805814Y-75511154D01*
X107798877Y-75514689D01*
X107704689Y-75608877D01*
X107644217Y-75727560D01*
X107623380Y-75859122D01*
X96312902Y-75859122D01*
X96312902Y-75088289D01*
X96331809Y-75030098D01*
X96381309Y-74994134D01*
X96411902Y-74989289D01*
X148031966Y-74989289D01*
X148090157Y-75008196D01*
G37*
G04 #@! TD.AperFunction*
M02*
