%TF.GenerationSoftware,KiCad,Pcbnew,(6.0.7-1)-1*%
%TF.CreationDate,2022-09-08T10:24:58-04:00*%
%TF.ProjectId,F405_pill,46343035-5f70-4696-9c6c-2e6b69636164,rev?*%
%TF.SameCoordinates,Original*%
%TF.FileFunction,Drillmap*%
%TF.FilePolarity,Positive*%
%FSLAX45Y45*%
G04 Gerber Fmt 4.5, Leading zero omitted, Abs format (unit mm)*
G04 Created by KiCad (PCBNEW (6.0.7-1)-1) date 2022-09-08 10:24:58*
%MOMM*%
%LPD*%
G01*
G04 APERTURE LIST*
%ADD10C,0.040000*%
%ADD11C,0.200000*%
%ADD12C,0.070000*%
G04 APERTURE END LIST*
D10*
X14813197Y-9440790D02*
X14813197Y-7498829D01*
X9631190Y-7498829D02*
X9631190Y-7956095D01*
X9437275Y-7956095D02*
X9437275Y-8992313D01*
X9437275Y-8992313D02*
X9631190Y-8992313D01*
X9631190Y-7956095D02*
X9437275Y-7956095D01*
X9631190Y-8992313D02*
X9631190Y-9440790D01*
X14813197Y-7498829D02*
X9631190Y-7498829D01*
X9631190Y-9440790D02*
X14813197Y-9440790D01*
D11*
D12*
X9898200Y-8147200D02*
X9968200Y-8217200D01*
X9968200Y-8147200D02*
X9898200Y-8217200D01*
X9898200Y-8725200D02*
X9968200Y-8795200D01*
X9968200Y-8725200D02*
X9898200Y-8795200D01*
D11*
X9692894Y-9753266D02*
X9692894Y-9553266D01*
X9740513Y-9553266D01*
X9769084Y-9562790D01*
X9788132Y-9581838D01*
X9797656Y-9600886D01*
X9807180Y-9638981D01*
X9807180Y-9667552D01*
X9797656Y-9705647D01*
X9788132Y-9724695D01*
X9769084Y-9743743D01*
X9740513Y-9753266D01*
X9692894Y-9753266D01*
X9892894Y-9753266D02*
X9892894Y-9619933D01*
X9892894Y-9658028D02*
X9902418Y-9638981D01*
X9911942Y-9629457D01*
X9930989Y-9619933D01*
X9950037Y-9619933D01*
X10016703Y-9753266D02*
X10016703Y-9619933D01*
X10016703Y-9553266D02*
X10007180Y-9562790D01*
X10016703Y-9572314D01*
X10026227Y-9562790D01*
X10016703Y-9553266D01*
X10016703Y-9572314D01*
X10140513Y-9753266D02*
X10121465Y-9743743D01*
X10111942Y-9724695D01*
X10111942Y-9553266D01*
X10245275Y-9753266D02*
X10226227Y-9743743D01*
X10216703Y-9724695D01*
X10216703Y-9553266D01*
X10473846Y-9753266D02*
X10473846Y-9553266D01*
X10540513Y-9696124D01*
X10607180Y-9553266D01*
X10607180Y-9753266D01*
X10788132Y-9753266D02*
X10788132Y-9648505D01*
X10778608Y-9629457D01*
X10759561Y-9619933D01*
X10721465Y-9619933D01*
X10702418Y-9629457D01*
X10788132Y-9743743D02*
X10769084Y-9753266D01*
X10721465Y-9753266D01*
X10702418Y-9743743D01*
X10692894Y-9724695D01*
X10692894Y-9705647D01*
X10702418Y-9686600D01*
X10721465Y-9677076D01*
X10769084Y-9677076D01*
X10788132Y-9667552D01*
X10883370Y-9619933D02*
X10883370Y-9819933D01*
X10883370Y-9629457D02*
X10902418Y-9619933D01*
X10940513Y-9619933D01*
X10959561Y-9629457D01*
X10969084Y-9638981D01*
X10978608Y-9658028D01*
X10978608Y-9715171D01*
X10969084Y-9734219D01*
X10959561Y-9743743D01*
X10940513Y-9753266D01*
X10902418Y-9753266D01*
X10883370Y-9743743D01*
X11064323Y-9734219D02*
X11073846Y-9743743D01*
X11064323Y-9753266D01*
X11054799Y-9743743D01*
X11064323Y-9734219D01*
X11064323Y-9753266D01*
X11064323Y-9629457D02*
X11073846Y-9638981D01*
X11064323Y-9648505D01*
X11054799Y-9638981D01*
X11064323Y-9629457D01*
X11064323Y-9648505D01*
D12*
X9365275Y-10047790D02*
X9435275Y-10117790D01*
X9435275Y-10047790D02*
X9365275Y-10117790D01*
D11*
X9730989Y-9973266D02*
X9750037Y-9973266D01*
X9769084Y-9982790D01*
X9778608Y-9992314D01*
X9788132Y-10011362D01*
X9797656Y-10049457D01*
X9797656Y-10097076D01*
X9788132Y-10135171D01*
X9778608Y-10154219D01*
X9769084Y-10163743D01*
X9750037Y-10173266D01*
X9730989Y-10173266D01*
X9711942Y-10163743D01*
X9702418Y-10154219D01*
X9692894Y-10135171D01*
X9683370Y-10097076D01*
X9683370Y-10049457D01*
X9692894Y-10011362D01*
X9702418Y-9992314D01*
X9711942Y-9982790D01*
X9730989Y-9973266D01*
X9883370Y-10154219D02*
X9892894Y-10163743D01*
X9883370Y-10173266D01*
X9873846Y-10163743D01*
X9883370Y-10154219D01*
X9883370Y-10173266D01*
X9959561Y-9973266D02*
X10092894Y-9973266D01*
X10007180Y-10173266D01*
X10207180Y-9973266D02*
X10226227Y-9973266D01*
X10245275Y-9982790D01*
X10254799Y-9992314D01*
X10264323Y-10011362D01*
X10273846Y-10049457D01*
X10273846Y-10097076D01*
X10264323Y-10135171D01*
X10254799Y-10154219D01*
X10245275Y-10163743D01*
X10226227Y-10173266D01*
X10207180Y-10173266D01*
X10188132Y-10163743D01*
X10178608Y-10154219D01*
X10169084Y-10135171D01*
X10159561Y-10097076D01*
X10159561Y-10049457D01*
X10169084Y-10011362D01*
X10178608Y-9992314D01*
X10188132Y-9982790D01*
X10207180Y-9973266D01*
X10397656Y-9973266D02*
X10416703Y-9973266D01*
X10435751Y-9982790D01*
X10445275Y-9992314D01*
X10454799Y-10011362D01*
X10464323Y-10049457D01*
X10464323Y-10097076D01*
X10454799Y-10135171D01*
X10445275Y-10154219D01*
X10435751Y-10163743D01*
X10416703Y-10173266D01*
X10397656Y-10173266D01*
X10378608Y-10163743D01*
X10369084Y-10154219D01*
X10359561Y-10135171D01*
X10350037Y-10097076D01*
X10350037Y-10049457D01*
X10359561Y-10011362D01*
X10369084Y-9992314D01*
X10378608Y-9982790D01*
X10397656Y-9973266D01*
X10550037Y-10173266D02*
X10550037Y-10039933D01*
X10550037Y-10058981D02*
X10559561Y-10049457D01*
X10578608Y-10039933D01*
X10607180Y-10039933D01*
X10626227Y-10049457D01*
X10635751Y-10068505D01*
X10635751Y-10173266D01*
X10635751Y-10068505D02*
X10645275Y-10049457D01*
X10664323Y-10039933D01*
X10692894Y-10039933D01*
X10711942Y-10049457D01*
X10721465Y-10068505D01*
X10721465Y-10173266D01*
X10816703Y-10173266D02*
X10816703Y-10039933D01*
X10816703Y-10058981D02*
X10826227Y-10049457D01*
X10845275Y-10039933D01*
X10873846Y-10039933D01*
X10892894Y-10049457D01*
X10902418Y-10068505D01*
X10902418Y-10173266D01*
X10902418Y-10068505D02*
X10911942Y-10049457D01*
X10930989Y-10039933D01*
X10959561Y-10039933D01*
X10978608Y-10049457D01*
X10988132Y-10068505D01*
X10988132Y-10173266D01*
X11378608Y-9963743D02*
X11207180Y-10220886D01*
X11635751Y-9973266D02*
X11654799Y-9973266D01*
X11673846Y-9982790D01*
X11683370Y-9992314D01*
X11692894Y-10011362D01*
X11702418Y-10049457D01*
X11702418Y-10097076D01*
X11692894Y-10135171D01*
X11683370Y-10154219D01*
X11673846Y-10163743D01*
X11654799Y-10173266D01*
X11635751Y-10173266D01*
X11616703Y-10163743D01*
X11607180Y-10154219D01*
X11597656Y-10135171D01*
X11588132Y-10097076D01*
X11588132Y-10049457D01*
X11597656Y-10011362D01*
X11607180Y-9992314D01*
X11616703Y-9982790D01*
X11635751Y-9973266D01*
X11788132Y-10154219D02*
X11797656Y-10163743D01*
X11788132Y-10173266D01*
X11778608Y-10163743D01*
X11788132Y-10154219D01*
X11788132Y-10173266D01*
X11921465Y-9973266D02*
X11940513Y-9973266D01*
X11959561Y-9982790D01*
X11969084Y-9992314D01*
X11978608Y-10011362D01*
X11988132Y-10049457D01*
X11988132Y-10097076D01*
X11978608Y-10135171D01*
X11969084Y-10154219D01*
X11959561Y-10163743D01*
X11940513Y-10173266D01*
X11921465Y-10173266D01*
X11902418Y-10163743D01*
X11892894Y-10154219D01*
X11883370Y-10135171D01*
X11873846Y-10097076D01*
X11873846Y-10049457D01*
X11883370Y-10011362D01*
X11892894Y-9992314D01*
X11902418Y-9982790D01*
X11921465Y-9973266D01*
X12064322Y-9992314D02*
X12073846Y-9982790D01*
X12092894Y-9973266D01*
X12140513Y-9973266D01*
X12159561Y-9982790D01*
X12169084Y-9992314D01*
X12178608Y-10011362D01*
X12178608Y-10030409D01*
X12169084Y-10058981D01*
X12054799Y-10173266D01*
X12178608Y-10173266D01*
X12245275Y-9973266D02*
X12378608Y-9973266D01*
X12292894Y-10173266D01*
X12540513Y-9973266D02*
X12502418Y-9973266D01*
X12483370Y-9982790D01*
X12473846Y-9992314D01*
X12454799Y-10020886D01*
X12445275Y-10058981D01*
X12445275Y-10135171D01*
X12454799Y-10154219D01*
X12464322Y-10163743D01*
X12483370Y-10173266D01*
X12521465Y-10173266D01*
X12540513Y-10163743D01*
X12550037Y-10154219D01*
X12559561Y-10135171D01*
X12559561Y-10087552D01*
X12550037Y-10068505D01*
X12540513Y-10058981D01*
X12521465Y-10049457D01*
X12483370Y-10049457D01*
X12464322Y-10058981D01*
X12454799Y-10068505D01*
X12445275Y-10087552D01*
X12635751Y-9973266D02*
X12635751Y-10011362D01*
X12711941Y-9973266D02*
X12711941Y-10011362D01*
X13007180Y-10249457D02*
X12997656Y-10239933D01*
X12978608Y-10211362D01*
X12969084Y-10192314D01*
X12959561Y-10163743D01*
X12950037Y-10116124D01*
X12950037Y-10078028D01*
X12959561Y-10030409D01*
X12969084Y-10001838D01*
X12978608Y-9982790D01*
X12997656Y-9954219D01*
X13007180Y-9944695D01*
X13073846Y-9992314D02*
X13083370Y-9982790D01*
X13102418Y-9973266D01*
X13150037Y-9973266D01*
X13169084Y-9982790D01*
X13178608Y-9992314D01*
X13188132Y-10011362D01*
X13188132Y-10030409D01*
X13178608Y-10058981D01*
X13064322Y-10173266D01*
X13188132Y-10173266D01*
X13426227Y-10173266D02*
X13426227Y-9973266D01*
X13511941Y-10173266D02*
X13511941Y-10068505D01*
X13502418Y-10049457D01*
X13483370Y-10039933D01*
X13454799Y-10039933D01*
X13435751Y-10049457D01*
X13426227Y-10058981D01*
X13635751Y-10173266D02*
X13616703Y-10163743D01*
X13607180Y-10154219D01*
X13597656Y-10135171D01*
X13597656Y-10078028D01*
X13607180Y-10058981D01*
X13616703Y-10049457D01*
X13635751Y-10039933D01*
X13664322Y-10039933D01*
X13683370Y-10049457D01*
X13692894Y-10058981D01*
X13702418Y-10078028D01*
X13702418Y-10135171D01*
X13692894Y-10154219D01*
X13683370Y-10163743D01*
X13664322Y-10173266D01*
X13635751Y-10173266D01*
X13816703Y-10173266D02*
X13797656Y-10163743D01*
X13788132Y-10144695D01*
X13788132Y-9973266D01*
X13969084Y-10163743D02*
X13950037Y-10173266D01*
X13911941Y-10173266D01*
X13892894Y-10163743D01*
X13883370Y-10144695D01*
X13883370Y-10068505D01*
X13892894Y-10049457D01*
X13911941Y-10039933D01*
X13950037Y-10039933D01*
X13969084Y-10049457D01*
X13978608Y-10068505D01*
X13978608Y-10087552D01*
X13883370Y-10106600D01*
X14054799Y-10163743D02*
X14073846Y-10173266D01*
X14111941Y-10173266D01*
X14130989Y-10163743D01*
X14140513Y-10144695D01*
X14140513Y-10135171D01*
X14130989Y-10116124D01*
X14111941Y-10106600D01*
X14083370Y-10106600D01*
X14064322Y-10097076D01*
X14054799Y-10078028D01*
X14054799Y-10068505D01*
X14064322Y-10049457D01*
X14083370Y-10039933D01*
X14111941Y-10039933D01*
X14130989Y-10049457D01*
X14207180Y-10249457D02*
X14216703Y-10239933D01*
X14235751Y-10211362D01*
X14245275Y-10192314D01*
X14254799Y-10163743D01*
X14264322Y-10116124D01*
X14264322Y-10078028D01*
X14254799Y-10030409D01*
X14245275Y-10001838D01*
X14235751Y-9982790D01*
X14216703Y-9954219D01*
X14207180Y-9944695D01*
X14569084Y-10249457D02*
X14559561Y-10239933D01*
X14540513Y-10211362D01*
X14530989Y-10192314D01*
X14521465Y-10163743D01*
X14511941Y-10116124D01*
X14511941Y-10078028D01*
X14521465Y-10030409D01*
X14530989Y-10001838D01*
X14540513Y-9982790D01*
X14559561Y-9954219D01*
X14569084Y-9944695D01*
X14645275Y-10039933D02*
X14645275Y-10173266D01*
X14645275Y-10058981D02*
X14654799Y-10049457D01*
X14673846Y-10039933D01*
X14702418Y-10039933D01*
X14721465Y-10049457D01*
X14730989Y-10068505D01*
X14730989Y-10173266D01*
X14854799Y-10173266D02*
X14835751Y-10163743D01*
X14826227Y-10154219D01*
X14816703Y-10135171D01*
X14816703Y-10078028D01*
X14826227Y-10058981D01*
X14835751Y-10049457D01*
X14854799Y-10039933D01*
X14883370Y-10039933D01*
X14902418Y-10049457D01*
X14911941Y-10058981D01*
X14921465Y-10078028D01*
X14921465Y-10135171D01*
X14911941Y-10154219D01*
X14902418Y-10163743D01*
X14883370Y-10173266D01*
X14854799Y-10173266D01*
X14978608Y-10039933D02*
X15054799Y-10039933D01*
X15007180Y-9973266D02*
X15007180Y-10144695D01*
X15016703Y-10163743D01*
X15035751Y-10173266D01*
X15054799Y-10173266D01*
X15273846Y-10039933D02*
X15273846Y-10239933D01*
X15273846Y-10049457D02*
X15292894Y-10039933D01*
X15330989Y-10039933D01*
X15350037Y-10049457D01*
X15359561Y-10058981D01*
X15369084Y-10078028D01*
X15369084Y-10135171D01*
X15359561Y-10154219D01*
X15350037Y-10163743D01*
X15330989Y-10173266D01*
X15292894Y-10173266D01*
X15273846Y-10163743D01*
X15483370Y-10173266D02*
X15464322Y-10163743D01*
X15454799Y-10144695D01*
X15454799Y-9973266D01*
X15645275Y-10173266D02*
X15645275Y-10068505D01*
X15635751Y-10049457D01*
X15616703Y-10039933D01*
X15578608Y-10039933D01*
X15559561Y-10049457D01*
X15645275Y-10163743D02*
X15626227Y-10173266D01*
X15578608Y-10173266D01*
X15559561Y-10163743D01*
X15550037Y-10144695D01*
X15550037Y-10125647D01*
X15559561Y-10106600D01*
X15578608Y-10097076D01*
X15626227Y-10097076D01*
X15645275Y-10087552D01*
X15711941Y-10039933D02*
X15788132Y-10039933D01*
X15740513Y-9973266D02*
X15740513Y-10144695D01*
X15750037Y-10163743D01*
X15769084Y-10173266D01*
X15788132Y-10173266D01*
X15930989Y-10163743D02*
X15911941Y-10173266D01*
X15873846Y-10173266D01*
X15854799Y-10163743D01*
X15845275Y-10144695D01*
X15845275Y-10068505D01*
X15854799Y-10049457D01*
X15873846Y-10039933D01*
X15911941Y-10039933D01*
X15930989Y-10049457D01*
X15940513Y-10068505D01*
X15940513Y-10087552D01*
X15845275Y-10106600D01*
X16111941Y-10173266D02*
X16111941Y-9973266D01*
X16111941Y-10163743D02*
X16092894Y-10173266D01*
X16054799Y-10173266D01*
X16035751Y-10163743D01*
X16026227Y-10154219D01*
X16016703Y-10135171D01*
X16016703Y-10078028D01*
X16026227Y-10058981D01*
X16035751Y-10049457D01*
X16054799Y-10039933D01*
X16092894Y-10039933D01*
X16111941Y-10049457D01*
X16188132Y-10249457D02*
X16197656Y-10239933D01*
X16216703Y-10211362D01*
X16226227Y-10192314D01*
X16235751Y-10163743D01*
X16245275Y-10116124D01*
X16245275Y-10078028D01*
X16235751Y-10030409D01*
X16226227Y-10001838D01*
X16216703Y-9982790D01*
X16197656Y-9954219D01*
X16188132Y-9944695D01*
M02*
