M48
; DRILL file {KiCad (6.0.7-1)-1} date Thursday, September 08, 2022 at 10:24:56 AM
; FORMAT={-:-/ absolute / metric / decimal}
; #@! TF.CreationDate,2022-09-08T10:24:56-04:00
; #@! TF.GenerationSoftware,Kicad,Pcbnew,(6.0.7-1)-1
; #@! TF.FileFunction,Plated,1,4,PTH
FMAT,2
METRIC
; #@! TA.AperFunction,Plated,PTH,ViaDrill
T1C0.300
; #@! TA.AperFunction,Plated,PTH,ViaDrill
T2C0.400
; #@! TA.AperFunction,Plated,PTH,ComponentDrill
T3C0.650
; #@! TA.AperFunction,Plated,PTH,ComponentDrill
T4C0.914
%
G90
G05
T1
X95.52Y-85.99
X95.55Y-84.02
X97.444Y-86.853
X97.907Y-82.84
X98.305Y-90.185
X98.44Y-79.71
X99.26Y-85.6
X100.182Y-75.912
X100.182Y-93.489
X102.15Y-93.27
X105.2Y-92.69
X105.741Y-89.379
X107.33Y-75.7
X107.56Y-93.45
X107.76Y-90.32
X107.814Y-89.383
X107.91Y-80.654
X108.049Y-75.859
X108.089Y-84.808
X108.14Y-81.348
X108.39Y-88.56
X108.614Y-87.008
X108.67Y-87.82
X108.69Y-80.83
X108.8Y-81.85
X108.8Y-84.5
X108.839Y-85.308
X108.864Y-82.733
X109.43Y-82.26
X109.772Y-85.5
X109.972Y-77.856
X110.31Y-92.73
X110.438Y-88.5
X110.483Y-85.977
X110.88Y-82.82
X110.96Y-89.06
X111.29Y-83.47
X111.5Y-88.53
X111.919Y-83.103
X111.92Y-83.92
X112.02Y-87.32
X112.189Y-88.108
X112.23Y-80.55
X112.46Y-85.3
X112.56Y-77.73
X112.9Y-92.69
X113.241Y-88.33
X113.264Y-87.583
X113.414Y-81.008
X113.62Y-85.6
X113.7Y-80.31
X113.732Y-84.762
X113.945Y-89.21
X113.98Y-88.43
X114.357Y-85.462
X114.44Y-80.19
X114.64Y-88.816
X114.68Y-82.0
X114.99Y-83.01
X115.16Y-81.34
X115.34Y-89.17
X115.39Y-77.18
X115.54Y-84.49
X115.64Y-82.56
X115.839Y-83.783
X116.095Y-86.815
X116.16Y-85.23
X116.17Y-82.038
X116.264Y-84.453
X116.489Y-83.208
X116.709Y-87.211
X116.839Y-84.978
X117.01Y-82.65
X117.52Y-91.32
X117.831Y-78.9
X117.9Y-77.18
X117.94Y-91.98
X119.432Y-87.362
X119.739Y-84.208
X119.98Y-83.45
X120.13Y-79.28
X120.2Y-87.091
X120.287Y-92.913
X120.46Y-77.22
X121.4Y-85.6
X122.18Y-79.933
X122.48Y-87.3
X122.69Y-79.36
X122.74Y-92.941
X123.0Y-77.25
X123.47Y-79.42
X124.21Y-82.67
X125.02Y-82.68
X125.53Y-92.41
X126.89Y-88.27
X126.95Y-85.559
X127.23Y-82.78
X127.57Y-77.96
X127.62Y-85.86
X127.7Y-86.6
X127.73Y-83.38
X128.12Y-92.75
X128.35Y-78.81
X130.36Y-77.84
X131.09Y-84.25
X132.8Y-79.5
X133.1Y-77.37
X133.17Y-92.54
X134.7Y-83.7
X135.4Y-84.4
X135.44Y-76.36
X135.47Y-83.61
X135.7Y-91.91
X136.141Y-81.541
X138.56Y-77.82
X140.7Y-92.52
X140.932Y-78.452
X141.782Y-83.512
X143.09Y-76.41
X144.3Y-83.9
X145.57Y-76.37
X147.43Y-82.0
T2
X104.876Y-85.013
X105.182Y-83.112
X105.634Y-78.456
X105.667Y-90.354
X119.337Y-89.197
X122.766Y-90.521
X136.682Y-89.712
X137.017Y-80.271
X137.25Y-85.126
T4
X98.887Y-77.057
X98.887Y-92.297
X101.427Y-77.057
X101.427Y-92.297
X102.882Y-81.502
X102.882Y-84.042
X102.882Y-86.582
X102.882Y-89.122
X103.967Y-77.057
X103.967Y-92.297
X106.507Y-77.057
X106.507Y-92.297
X109.047Y-77.057
X109.047Y-92.297
X111.587Y-77.057
X111.587Y-92.297
X114.103Y-92.307
X114.127Y-77.057
X116.667Y-77.057
X116.667Y-92.297
X119.207Y-77.057
X119.207Y-92.297
X121.747Y-77.057
X121.747Y-92.297
X124.287Y-77.057
X124.287Y-92.297
X126.827Y-77.057
X126.827Y-92.297
X127.53Y-89.3
X129.367Y-77.057
X129.367Y-92.297
X129.8Y-84.13
X129.8Y-86.67
X130.07Y-89.3
X131.907Y-77.057
X131.907Y-92.297
X134.447Y-77.057
X134.447Y-92.297
X136.987Y-77.057
X136.987Y-92.297
X139.527Y-77.057
X139.527Y-92.297
X142.067Y-77.057
X142.067Y-92.297
X144.607Y-77.057
X144.607Y-92.297
X146.982Y-80.602
X146.982Y-83.142
X146.982Y-85.682
X146.982Y-88.222
X147.147Y-77.057
X147.147Y-92.297
T3
X95.982Y-80.392G85X95.382Y-80.392
G05
X95.982Y-89.032G85X95.382Y-89.032
G05
X100.412Y-80.392G85X99.312Y-80.392
G05
X100.412Y-89.032G85X99.312Y-89.032
G05
T0
M30
